<?xml version="1.0"?>
<!DOCTYPE svg PUBLIC "-//W3C//DTD SVG 1.1//EN"
"http://www.w3.org/Graphics/SVG/1.1/DTD/svg11.dtd">
<svg xmlns="http://www.w3.org/2000/svg" version="1.2" width="190.0mm" height="518.0mm" viewBox="0 0 190.0 518.0" >
  <line x1="47.5" y1="0.0" x2="47.5" y2="518.0" style="stroke:#000000;stroke-width:0.1;" />
  <line x1="142.5" y1="0.0" x2="142.5" y2="518.0" style="stroke:#000000;stroke-width:0.1;" />
  <line x1="10.0" y1="255.0" x2="180.0" y2="255.0" style="stroke:#000000;stroke-width:0.1;" />
  <line x1="5.0" y1="255.0" x2="15.0" y2="255.0" style="stroke:#000000;stroke-width:0.1;" />
  <line x1="10.0" y1="250.0" x2="10.0" y2="260.0" style="stroke:#000000;stroke-width:0.1;" />
  <line x1="175.0" y1="255.0" x2="185.0" y2="255.0" style="stroke:#000000;stroke-width:0.1;" />
  <line x1="180.0" y1="250.0" x2="180.0" y2="260.0" style="stroke:#000000;stroke-width:0.1;" />
  <line x1="10.0" y1="265.0" x2="180.0" y2="265.0" style="stroke:#000000;stroke-width:0.1;" />
  <line x1="5.0" y1="265.0" x2="15.0" y2="265.0" style="stroke:#000000;stroke-width:0.1;" />
  <line x1="10.0" y1="260.0" x2="10.0" y2="270.0" style="stroke:#000000;stroke-width:0.1;" />
  <line x1="175.0" y1="265.0" x2="185.0" y2="265.0" style="stroke:#000000;stroke-width:0.1;" />
  <line x1="180.0" y1="260.0" x2="180.0" y2="270.0" style="stroke:#000000;stroke-width:0.1;" />
  <text x="60.0" y="225.0" font-family="Arial" fill="black" font-size="6" >BSL: 335 mm</text>
  <text x="60.0" y="295.0" font-family="Arial" fill="black" font-size="6" >BSL: 335 mm</text>
  <circle cx="65.5" cy="68.5" r="2.5" style="fill:none;stroke:#000000;stroke-width:0.1;" />
  <line x1="60.5" y1="68.5" x2="70.5" y2="68.5" style="stroke:#000000;stroke-width:0.1;" />
  <line x1="65.5" y1="63.5" x2="65.5" y2="73.5" style="stroke:#000000;stroke-width:0.1;" />
  <circle cx="160.5" cy="68.5" r="2.5" style="fill:none;stroke:#000000;stroke-width:0.1;" />
  <line x1="155.5" y1="68.5" x2="165.5" y2="68.5" style="stroke:#000000;stroke-width:0.1;" />
  <line x1="160.5" y1="63.5" x2="160.5" y2="73.5" style="stroke:#000000;stroke-width:0.1;" />
  <circle cx="29.5" cy="68.5" r="2.5" style="fill:none;stroke:#000000;stroke-width:0.1;" />
  <line x1="24.5" y1="68.5" x2="34.5" y2="68.5" style="stroke:#000000;stroke-width:0.1;" />
  <line x1="29.5" y1="63.5" x2="29.5" y2="73.5" style="stroke:#000000;stroke-width:0.1;" />
  <circle cx="124.5" cy="68.5" r="2.5" style="fill:none;stroke:#000000;stroke-width:0.1;" />
  <line x1="119.5" y1="68.5" x2="129.5" y2="68.5" style="stroke:#000000;stroke-width:0.1;" />
  <line x1="124.5" y1="63.5" x2="124.5" y2="73.5" style="stroke:#000000;stroke-width:0.1;" />
  <circle cx="65.5" cy="99.5" r="2.5" style="fill:none;stroke:#000000;stroke-width:0.1;" />
  <line x1="60.5" y1="99.5" x2="70.5" y2="99.5" style="stroke:#000000;stroke-width:0.1;" />
  <line x1="65.5" y1="94.5" x2="65.5" y2="104.5" style="stroke:#000000;stroke-width:0.1;" />
  <circle cx="160.5" cy="99.5" r="2.5" style="fill:none;stroke:#000000;stroke-width:0.1;" />
  <line x1="155.5" y1="99.5" x2="165.5" y2="99.5" style="stroke:#000000;stroke-width:0.1;" />
  <line x1="160.5" y1="94.5" x2="160.5" y2="104.5" style="stroke:#000000;stroke-width:0.1;" />
  <circle cx="29.5" cy="99.5" r="2.5" style="fill:none;stroke:#000000;stroke-width:0.1;" />
  <line x1="24.5" y1="99.5" x2="34.5" y2="99.5" style="stroke:#000000;stroke-width:0.1;" />
  <line x1="29.5" y1="94.5" x2="29.5" y2="104.5" style="stroke:#000000;stroke-width:0.1;" />
  <circle cx="124.5" cy="99.5" r="2.5" style="fill:none;stroke:#000000;stroke-width:0.1;" />
  <line x1="119.5" y1="99.5" x2="129.5" y2="99.5" style="stroke:#000000;stroke-width:0.1;" />
  <line x1="124.5" y1="94.5" x2="124.5" y2="104.5" style="stroke:#000000;stroke-width:0.1;" />
  <circle cx="63.5" cy="410.5" r="2.5" style="fill:none;stroke:#000000;stroke-width:0.1;" />
  <line x1="58.5" y1="410.5" x2="68.5" y2="410.5" style="stroke:#000000;stroke-width:0.1;" />
  <line x1="63.5" y1="405.5" x2="63.5" y2="415.5" style="stroke:#000000;stroke-width:0.1;" />
  <circle cx="158.5" cy="410.5" r="2.5" style="fill:none;stroke:#000000;stroke-width:0.1;" />
  <line x1="153.5" y1="410.5" x2="163.5" y2="410.5" style="stroke:#000000;stroke-width:0.1;" />
  <line x1="158.5" y1="405.5" x2="158.5" y2="415.5" style="stroke:#000000;stroke-width:0.1;" />
  <circle cx="31.5" cy="410.5" r="2.5" style="fill:none;stroke:#000000;stroke-width:0.1;" />
  <line x1="26.5" y1="410.5" x2="36.5" y2="410.5" style="stroke:#000000;stroke-width:0.1;" />
  <line x1="31.5" y1="405.5" x2="31.5" y2="415.5" style="stroke:#000000;stroke-width:0.1;" />
  <circle cx="126.5" cy="410.5" r="2.5" style="fill:none;stroke:#000000;stroke-width:0.1;" />
  <line x1="121.5" y1="410.5" x2="131.5" y2="410.5" style="stroke:#000000;stroke-width:0.1;" />
  <line x1="126.5" y1="405.5" x2="126.5" y2="415.5" style="stroke:#000000;stroke-width:0.1;" />
  <circle cx="63.5" cy="490.5" r="2.5" style="fill:none;stroke:#000000;stroke-width:0.1;" />
  <line x1="58.5" y1="490.5" x2="68.5" y2="490.5" style="stroke:#000000;stroke-width:0.1;" />
  <line x1="63.5" y1="485.5" x2="63.5" y2="495.5" style="stroke:#000000;stroke-width:0.1;" />
  <circle cx="158.5" cy="490.5" r="2.5" style="fill:none;stroke:#000000;stroke-width:0.1;" />
  <line x1="153.5" y1="490.5" x2="163.5" y2="490.5" style="stroke:#000000;stroke-width:0.1;" />
  <line x1="158.5" y1="485.5" x2="158.5" y2="495.5" style="stroke:#000000;stroke-width:0.1;" />
  <circle cx="31.5" cy="490.5" r="2.5" style="fill:none;stroke:#000000;stroke-width:0.1;" />
  <line x1="26.5" y1="490.5" x2="36.5" y2="490.5" style="stroke:#000000;stroke-width:0.1;" />
  <line x1="31.5" y1="485.5" x2="31.5" y2="495.5" style="stroke:#000000;stroke-width:0.1;" />
  <circle cx="126.5" cy="490.5" r="2.5" style="fill:none;stroke:#000000;stroke-width:0.1;" />
  <line x1="121.5" y1="490.5" x2="131.5" y2="490.5" style="stroke:#000000;stroke-width:0.1;" />
  <line x1="126.5" y1="485.5" x2="126.5" y2="495.5" style="stroke:#000000;stroke-width:0.1;" />
</svg>
