<?xml version="1.0"?>
<!DOCTYPE svg PUBLIC "-//W3C//DTD SVG 1.1//EN"
"http://www.w3.org/Graphics/SVG/1.1/DTD/svg11.dtd">
<svg xmlns="http://www.w3.org/2000/svg" version="1.2" width="192.000000mm" height="259.000000mm" viewBox="0 0 192.000000 259.000000" style="background-color:white" >
<line x1="48.000000" y1="0.000000" x2="48.000000" y2="259.000000" stroke="black" stroke-width="0.1" />
<line x1="144.000000" y1="0.000000" x2="144.000000" y2="259.000000" stroke="black" stroke-width="0.1" />
<line x1="104.000000" y1="255.000000" x2="184.000000" y2="255.000000" stroke="black" stroke-width="0.1" />
<line x1="8.000000" y1="5.000000" x2="88.000000" y2="5.000000" stroke="black" stroke-width="0.1" />
<line x1="96.000000" y1="0.000000" x2="96.000000" y2="259.000000" stroke="black" stroke-width="0.1" stroke-dasharray="2 2" />
<line x1="0.000000" y1="259.000000" x2="96.000000" y2="259.000000" stroke="black" stroke-width="0.1" stroke-dasharray="2 2" />
<line x1="96.000000" y1="0.000000" x2="192.000000" y2="0.000000" stroke="black" stroke-width="0.1" stroke-dasharray="2 2" />
<line x1="48.000000" y1="7.000000" x2="41.000000" y2="0.000000" stroke="black" stroke-width="0.1" stroke-dasharray="2 2" />
<line x1="48.000000" y1="7.000000" x2="55.000000" y2="0.000000" stroke="black" stroke-width="0.1" stroke-dasharray="2 2" />
<line x1="144.000000" y1="253.000000" x2="138.000000" y2="259.000000" stroke="black" stroke-width="0.1" stroke-dasharray="2 2" />
<line x1="144.000000" y1="253.000000" x2="150.000000" y2="259.000000" stroke="black" stroke-width="0.1" stroke-dasharray="2 2" />
<text x="83.000000" y="130.000000" font-family="Arial" font-size="8" text-anchor="middle" dominant-baseline="middle" transform="rotate(90 83.000000 130.000000)" >Look SPX 315, Heel</text>
<text x="179.000000" y="130.000000" font-family="Arial" font-size="8" text-anchor="middle" dominant-baseline="middle" transform="rotate(90 179.000000 130.000000)" >Look SPX 315, Toe</text>
<line x1="104.000000" y1="114.000000" x2="104.000000" y2="255.000000" stroke="black" stroke-width="0.1" />
<line x1="101.500000" y1="114.000000" x2="106.500000" y2="114.000000" stroke="black" stroke-width="0.1" />
<line x1="104.000000" y1="114.000000" x2="101.500000" y2="116.500000" stroke="black" stroke-width="0.1" />
<line x1="104.000000" y1="114.000000" x2="106.500000" y2="116.500000" stroke="black" stroke-width="0.1" />
<line x1="101.500000" y1="255.000000" x2="106.500000" y2="255.000000" stroke="black" stroke-width="0.1" />
<line x1="104.000000" y1="255.000000" x2="101.500000" y2="252.500000" stroke="black" stroke-width="0.1" />
<line x1="104.000000" y1="255.000000" x2="106.500000" y2="252.500000" stroke="black" stroke-width="0.1" />
<text x="106.500000" y="184.500000" font-family="Arial" font-size="4" text-anchor="middle" dominant-baseline="middle" transform="rotate(90 106.500000 184.500000)" >141.0 mm</text>
<line x1="114.000000" y1="72.500000" x2="114.000000" y2="114.000000" stroke="black" stroke-width="0.1" />
<line x1="111.500000" y1="72.500000" x2="116.500000" y2="72.500000" stroke="black" stroke-width="0.1" />
<line x1="114.000000" y1="72.500000" x2="111.500000" y2="75.000000" stroke="black" stroke-width="0.1" />
<line x1="114.000000" y1="72.500000" x2="116.500000" y2="75.000000" stroke="black" stroke-width="0.1" />
<line x1="111.500000" y1="114.000000" x2="116.500000" y2="114.000000" stroke="black" stroke-width="0.1" />
<line x1="114.000000" y1="114.000000" x2="111.500000" y2="111.500000" stroke="black" stroke-width="0.1" />
<line x1="114.000000" y1="114.000000" x2="116.500000" y2="111.500000" stroke="black" stroke-width="0.1" />
<text x="116.500000" y="93.250000" font-family="Arial" font-size="4" text-anchor="middle" dominant-baseline="middle" transform="rotate(90 116.500000 93.250000)" >41.5 mm</text>
<line x1="8.000000" y1="5.000000" x2="8.000000" y2="136.500000" stroke="black" stroke-width="0.1" />
<line x1="5.500000" y1="5.000000" x2="10.500000" y2="5.000000" stroke="black" stroke-width="0.1" />
<line x1="8.000000" y1="5.000000" x2="5.500000" y2="7.500000" stroke="black" stroke-width="0.1" />
<line x1="8.000000" y1="5.000000" x2="10.500000" y2="7.500000" stroke="black" stroke-width="0.1" />
<line x1="5.500000" y1="136.500000" x2="10.500000" y2="136.500000" stroke="black" stroke-width="0.1" />
<line x1="8.000000" y1="136.500000" x2="5.500000" y2="134.000000" stroke="black" stroke-width="0.1" />
<line x1="8.000000" y1="136.500000" x2="10.500000" y2="134.000000" stroke="black" stroke-width="0.1" />
<text x="10.500000" y="70.750000" font-family="Arial" font-size="4" text-anchor="middle" dominant-baseline="middle" transform="rotate(90 10.500000 70.750000)" >131.5 mm</text>
<line x1="18.000000" y1="136.500000" x2="18.000000" y2="241.500000" stroke="black" stroke-width="0.1" />
<line x1="15.500000" y1="136.500000" x2="20.500000" y2="136.500000" stroke="black" stroke-width="0.1" />
<line x1="18.000000" y1="136.500000" x2="15.500000" y2="139.000000" stroke="black" stroke-width="0.1" />
<line x1="18.000000" y1="136.500000" x2="20.500000" y2="139.000000" stroke="black" stroke-width="0.1" />
<line x1="15.500000" y1="241.500000" x2="20.500000" y2="241.500000" stroke="black" stroke-width="0.1" />
<line x1="18.000000" y1="241.500000" x2="15.500000" y2="239.000000" stroke="black" stroke-width="0.1" />
<line x1="18.000000" y1="241.500000" x2="20.500000" y2="239.000000" stroke="black" stroke-width="0.1" />
<text x="20.500000" y="189.000000" font-family="Arial" font-size="4" text-anchor="middle" dominant-baseline="middle" transform="rotate(90 20.500000 189.000000)" >105.0 mm</text>
<line x1="126.500000" y1="104.000000" x2="161.500000" y2="104.000000" stroke="black" stroke-width="0.1" />
<line x1="126.500000" y1="101.500000" x2="126.500000" y2="106.500000" stroke="black" stroke-width="0.1" />
<line x1="126.500000" y1="104.000000" x2="129.000000" y2="106.500000" stroke="black" stroke-width="0.1" />
<line x1="126.500000" y1="104.000000" x2="129.000000" y2="101.500000" stroke="black" stroke-width="0.1" />
<line x1="161.500000" y1="101.500000" x2="161.500000" y2="106.500000" stroke="black" stroke-width="0.1" />
<line x1="161.500000" y1="104.000000" x2="159.000000" y2="106.500000" stroke="black" stroke-width="0.1" />
<line x1="161.500000" y1="104.000000" x2="159.000000" y2="101.500000" stroke="black" stroke-width="0.1" />
<text x="149.000000" y="94.000000" font-family="Arial" font-size="4" text-anchor="middle" dominant-baseline="middle" transform="rotate(90 149.000000 94.000000)" >35.0 mm</text>
<line x1="123.000000" y1="62.500000" x2="165.000000" y2="62.500000" stroke="black" stroke-width="0.1" />
<line x1="123.000000" y1="60.000000" x2="123.000000" y2="65.000000" stroke="black" stroke-width="0.1" />
<line x1="123.000000" y1="62.500000" x2="125.500000" y2="65.000000" stroke="black" stroke-width="0.1" />
<line x1="123.000000" y1="62.500000" x2="125.500000" y2="60.000000" stroke="black" stroke-width="0.1" />
<line x1="165.000000" y1="60.000000" x2="165.000000" y2="65.000000" stroke="black" stroke-width="0.1" />
<line x1="165.000000" y1="62.500000" x2="162.500000" y2="65.000000" stroke="black" stroke-width="0.1" />
<line x1="165.000000" y1="62.500000" x2="162.500000" y2="60.000000" stroke="black" stroke-width="0.1" />
<text x="149.000000" y="52.500000" font-family="Arial" font-size="4" text-anchor="middle" dominant-baseline="middle" transform="rotate(90 149.000000 52.500000)" >42.0 mm</text>
<line x1="27.000000" y1="146.500000" x2="69.000000" y2="146.500000" stroke="black" stroke-width="0.1" />
<line x1="27.000000" y1="144.000000" x2="27.000000" y2="149.000000" stroke="black" stroke-width="0.1" />
<line x1="27.000000" y1="146.500000" x2="29.500000" y2="149.000000" stroke="black" stroke-width="0.1" />
<line x1="27.000000" y1="146.500000" x2="29.500000" y2="144.000000" stroke="black" stroke-width="0.1" />
<line x1="69.000000" y1="144.000000" x2="69.000000" y2="149.000000" stroke="black" stroke-width="0.1" />
<line x1="69.000000" y1="146.500000" x2="66.500000" y2="149.000000" stroke="black" stroke-width="0.1" />
<line x1="69.000000" y1="146.500000" x2="66.500000" y2="144.000000" stroke="black" stroke-width="0.1" />
<text x="53.000000" y="156.500000" font-family="Arial" font-size="4" text-anchor="middle" dominant-baseline="middle" transform="rotate(90 53.000000 156.500000)" >42.0 mm</text>
<line x1="27.000000" y1="251.500000" x2="69.000000" y2="251.500000" stroke="black" stroke-width="0.1" />
<line x1="27.000000" y1="249.000000" x2="27.000000" y2="254.000000" stroke="black" stroke-width="0.1" />
<line x1="27.000000" y1="251.500000" x2="29.500000" y2="254.000000" stroke="black" stroke-width="0.1" />
<line x1="27.000000" y1="251.500000" x2="29.500000" y2="249.000000" stroke="black" stroke-width="0.1" />
<line x1="69.000000" y1="249.000000" x2="69.000000" y2="254.000000" stroke="black" stroke-width="0.1" />
<line x1="69.000000" y1="251.500000" x2="66.500000" y2="254.000000" stroke="black" stroke-width="0.1" />
<line x1="69.000000" y1="251.500000" x2="66.500000" y2="249.000000" stroke="black" stroke-width="0.1" />
<text x="53.000000" y="261.500000" font-family="Arial" font-size="4" text-anchor="middle" dominant-baseline="middle" transform="rotate(90 53.000000 261.500000)" >42.0 mm</text>
<circle cx="126.500000" cy="114.000000" r="2.500000" fill="none" stroke="black" stroke-width="0.1" />
<circle cx="126.500000" cy="114.000000" r="0.250000" fill="none" stroke="black" stroke-width="0.1" />
<line x1="126.250000" y1="114.000000" x2="126.000000" y2="114.000000" stroke="black" stroke-width="0.1" />
<line x1="126.750000" y1="114.000000" x2="127.000000" y2="114.000000" stroke="black" stroke-width="0.1" />
<line x1="126.500000" y1="113.750000" x2="126.500000" y2="113.500000" stroke="black" stroke-width="0.1" />
<line x1="126.500000" y1="114.250000" x2="126.500000" y2="114.500000" stroke="black" stroke-width="0.1" />
<line x1="123.500000" y1="114.000000" x2="124.500000" y2="114.000000" stroke="black" stroke-width="0.1" />
<line x1="128.500000" y1="114.000000" x2="129.500000" y2="114.000000" stroke="black" stroke-width="0.1" />
<line x1="126.500000" y1="111.000000" x2="126.500000" y2="112.000000" stroke="black" stroke-width="0.1" />
<line x1="126.500000" y1="116.000000" x2="126.500000" y2="117.000000" stroke="black" stroke-width="0.1" />
<circle cx="161.500000" cy="114.000000" r="2.500000" fill="none" stroke="black" stroke-width="0.1" />
<circle cx="161.500000" cy="114.000000" r="0.250000" fill="none" stroke="black" stroke-width="0.1" />
<line x1="161.250000" y1="114.000000" x2="161.000000" y2="114.000000" stroke="black" stroke-width="0.1" />
<line x1="161.750000" y1="114.000000" x2="162.000000" y2="114.000000" stroke="black" stroke-width="0.1" />
<line x1="161.500000" y1="113.750000" x2="161.500000" y2="113.500000" stroke="black" stroke-width="0.1" />
<line x1="161.500000" y1="114.250000" x2="161.500000" y2="114.500000" stroke="black" stroke-width="0.1" />
<line x1="158.500000" y1="114.000000" x2="159.500000" y2="114.000000" stroke="black" stroke-width="0.1" />
<line x1="163.500000" y1="114.000000" x2="164.500000" y2="114.000000" stroke="black" stroke-width="0.1" />
<line x1="161.500000" y1="111.000000" x2="161.500000" y2="112.000000" stroke="black" stroke-width="0.1" />
<line x1="161.500000" y1="116.000000" x2="161.500000" y2="117.000000" stroke="black" stroke-width="0.1" />
<circle cx="123.000000" cy="72.500000" r="2.500000" fill="none" stroke="black" stroke-width="0.1" />
<circle cx="123.000000" cy="72.500000" r="0.250000" fill="none" stroke="black" stroke-width="0.1" />
<line x1="122.750000" y1="72.500000" x2="122.500000" y2="72.500000" stroke="black" stroke-width="0.1" />
<line x1="123.250000" y1="72.500000" x2="123.500000" y2="72.500000" stroke="black" stroke-width="0.1" />
<line x1="123.000000" y1="72.250000" x2="123.000000" y2="72.000000" stroke="black" stroke-width="0.1" />
<line x1="123.000000" y1="72.750000" x2="123.000000" y2="73.000000" stroke="black" stroke-width="0.1" />
<line x1="120.000000" y1="72.500000" x2="121.000000" y2="72.500000" stroke="black" stroke-width="0.1" />
<line x1="125.000000" y1="72.500000" x2="126.000000" y2="72.500000" stroke="black" stroke-width="0.1" />
<line x1="123.000000" y1="69.500000" x2="123.000000" y2="70.500000" stroke="black" stroke-width="0.1" />
<line x1="123.000000" y1="74.500000" x2="123.000000" y2="75.500000" stroke="black" stroke-width="0.1" />
<circle cx="165.000000" cy="72.500000" r="2.500000" fill="none" stroke="black" stroke-width="0.1" />
<circle cx="165.000000" cy="72.500000" r="0.250000" fill="none" stroke="black" stroke-width="0.1" />
<line x1="164.750000" y1="72.500000" x2="164.500000" y2="72.500000" stroke="black" stroke-width="0.1" />
<line x1="165.250000" y1="72.500000" x2="165.500000" y2="72.500000" stroke="black" stroke-width="0.1" />
<line x1="165.000000" y1="72.250000" x2="165.000000" y2="72.000000" stroke="black" stroke-width="0.1" />
<line x1="165.000000" y1="72.750000" x2="165.000000" y2="73.000000" stroke="black" stroke-width="0.1" />
<line x1="162.000000" y1="72.500000" x2="163.000000" y2="72.500000" stroke="black" stroke-width="0.1" />
<line x1="167.000000" y1="72.500000" x2="168.000000" y2="72.500000" stroke="black" stroke-width="0.1" />
<line x1="165.000000" y1="69.500000" x2="165.000000" y2="70.500000" stroke="black" stroke-width="0.1" />
<line x1="165.000000" y1="74.500000" x2="165.000000" y2="75.500000" stroke="black" stroke-width="0.1" />
<circle cx="27.000000" cy="136.500000" r="2.500000" fill="none" stroke="black" stroke-width="0.1" />
<circle cx="27.000000" cy="136.500000" r="0.250000" fill="none" stroke="black" stroke-width="0.1" />
<line x1="26.750000" y1="136.500000" x2="26.500000" y2="136.500000" stroke="black" stroke-width="0.1" />
<line x1="27.250000" y1="136.500000" x2="27.500000" y2="136.500000" stroke="black" stroke-width="0.1" />
<line x1="27.000000" y1="136.250000" x2="27.000000" y2="136.000000" stroke="black" stroke-width="0.1" />
<line x1="27.000000" y1="136.750000" x2="27.000000" y2="137.000000" stroke="black" stroke-width="0.1" />
<line x1="24.000000" y1="136.500000" x2="25.000000" y2="136.500000" stroke="black" stroke-width="0.1" />
<line x1="29.000000" y1="136.500000" x2="30.000000" y2="136.500000" stroke="black" stroke-width="0.1" />
<line x1="27.000000" y1="133.500000" x2="27.000000" y2="134.500000" stroke="black" stroke-width="0.1" />
<line x1="27.000000" y1="138.500000" x2="27.000000" y2="139.500000" stroke="black" stroke-width="0.1" />
<circle cx="69.000000" cy="136.500000" r="2.500000" fill="none" stroke="black" stroke-width="0.1" />
<circle cx="69.000000" cy="136.500000" r="0.250000" fill="none" stroke="black" stroke-width="0.1" />
<line x1="68.750000" y1="136.500000" x2="68.500000" y2="136.500000" stroke="black" stroke-width="0.1" />
<line x1="69.250000" y1="136.500000" x2="69.500000" y2="136.500000" stroke="black" stroke-width="0.1" />
<line x1="69.000000" y1="136.250000" x2="69.000000" y2="136.000000" stroke="black" stroke-width="0.1" />
<line x1="69.000000" y1="136.750000" x2="69.000000" y2="137.000000" stroke="black" stroke-width="0.1" />
<line x1="66.000000" y1="136.500000" x2="67.000000" y2="136.500000" stroke="black" stroke-width="0.1" />
<line x1="71.000000" y1="136.500000" x2="72.000000" y2="136.500000" stroke="black" stroke-width="0.1" />
<line x1="69.000000" y1="133.500000" x2="69.000000" y2="134.500000" stroke="black" stroke-width="0.1" />
<line x1="69.000000" y1="138.500000" x2="69.000000" y2="139.500000" stroke="black" stroke-width="0.1" />
<circle cx="27.000000" cy="241.500000" r="2.500000" fill="none" stroke="black" stroke-width="0.1" />
<circle cx="27.000000" cy="241.500000" r="0.250000" fill="none" stroke="black" stroke-width="0.1" />
<line x1="26.750000" y1="241.500000" x2="26.500000" y2="241.500000" stroke="black" stroke-width="0.1" />
<line x1="27.250000" y1="241.500000" x2="27.500000" y2="241.500000" stroke="black" stroke-width="0.1" />
<line x1="27.000000" y1="241.250000" x2="27.000000" y2="241.000000" stroke="black" stroke-width="0.1" />
<line x1="27.000000" y1="241.750000" x2="27.000000" y2="242.000000" stroke="black" stroke-width="0.1" />
<line x1="24.000000" y1="241.500000" x2="25.000000" y2="241.500000" stroke="black" stroke-width="0.1" />
<line x1="29.000000" y1="241.500000" x2="30.000000" y2="241.500000" stroke="black" stroke-width="0.1" />
<line x1="27.000000" y1="238.500000" x2="27.000000" y2="239.500000" stroke="black" stroke-width="0.1" />
<line x1="27.000000" y1="243.500000" x2="27.000000" y2="244.500000" stroke="black" stroke-width="0.1" />
<circle cx="69.000000" cy="241.500000" r="2.500000" fill="none" stroke="black" stroke-width="0.1" />
<circle cx="69.000000" cy="241.500000" r="0.250000" fill="none" stroke="black" stroke-width="0.1" />
<line x1="68.750000" y1="241.500000" x2="68.500000" y2="241.500000" stroke="black" stroke-width="0.1" />
<line x1="69.250000" y1="241.500000" x2="69.500000" y2="241.500000" stroke="black" stroke-width="0.1" />
<line x1="69.000000" y1="241.250000" x2="69.000000" y2="241.000000" stroke="black" stroke-width="0.1" />
<line x1="69.000000" y1="241.750000" x2="69.000000" y2="242.000000" stroke="black" stroke-width="0.1" />
<line x1="66.000000" y1="241.500000" x2="67.000000" y2="241.500000" stroke="black" stroke-width="0.1" />
<line x1="71.000000" y1="241.500000" x2="72.000000" y2="241.500000" stroke="black" stroke-width="0.1" />
<line x1="69.000000" y1="238.500000" x2="69.000000" y2="239.500000" stroke="black" stroke-width="0.1" />
<line x1="69.000000" y1="243.500000" x2="69.000000" y2="244.500000" stroke="black" stroke-width="0.1" />
<text x="73.000000" y="25.000000" font-family="Arial" font-size="4" text-anchor="middle" dominant-baseline="middle" transform="rotate(90 73.000000 25.000000)" >Mid Sole Mount Line</text>
<text x="169.000000" y="235.000000" font-family="Arial" font-size="4" text-anchor="middle" dominant-baseline="middle" transform="rotate(90 169.000000 235.000000)" >Mid Sole Mount Line</text>
<text x="43.000000" y="235.000000" font-family="Arial" font-size="4" text-anchor="middle" dominant-baseline="middle" transform="rotate(90 43.000000 235.000000)" >Ski Center Line</text>
<text x="139.000000" y="25.000000" font-family="Arial" font-size="4" text-anchor="middle" dominant-baseline="middle" transform="rotate(90 139.000000 25.000000)" >Ski Center Line</text>
</svg>