<?xml version="1.0"?>
<!DOCTYPE svg PUBLIC "-//W3C//DTD SVG 1.1//EN"
"http://www.w3.org/Graphics/SVG/1.1/DTD/svg11.dtd">
<svg xmlns="http://www.w3.org/2000/svg" version="1.2" width="192.000000mm" height="259.000000mm" viewBox="0 0 192.000000 259.000000" style="background-color:white" >
<line x1="48.000000" y1="0.000000" x2="48.000000" y2="259.000000" stroke="black" stroke-width="0.1" />
<line x1="144.000000" y1="0.000000" x2="144.000000" y2="259.000000" stroke="black" stroke-width="0.1" />
<line x1="104.000000" y1="255.000000" x2="184.000000" y2="255.000000" stroke="black" stroke-width="0.1" />
<line x1="8.000000" y1="5.000000" x2="88.000000" y2="5.000000" stroke="black" stroke-width="0.1" />
<line x1="96.000000" y1="0.000000" x2="96.000000" y2="259.000000" stroke="black" stroke-width="0.1" stroke-dasharray="2 2" />
<line x1="0.000000" y1="259.000000" x2="96.000000" y2="259.000000" stroke="black" stroke-width="0.1" stroke-dasharray="2 2" />
<line x1="96.000000" y1="0.000000" x2="192.000000" y2="0.000000" stroke="black" stroke-width="0.1" stroke-dasharray="2 2" />
<line x1="48.000000" y1="7.000000" x2="41.000000" y2="0.000000" stroke="black" stroke-width="0.1" stroke-dasharray="2 2" />
<line x1="48.000000" y1="7.000000" x2="55.000000" y2="0.000000" stroke="black" stroke-width="0.1" stroke-dasharray="2 2" />
<line x1="144.000000" y1="253.000000" x2="138.000000" y2="259.000000" stroke="black" stroke-width="0.1" stroke-dasharray="2 2" />
<line x1="144.000000" y1="253.000000" x2="150.000000" y2="259.000000" stroke="black" stroke-width="0.1" stroke-dasharray="2 2" />
<text x="83.000000" y="130.000000" font-family="Arial" font-size="8" text-anchor="middle" dominant-baseline="middle" transform="rotate(90 83.000000 130.000000)" >Look SPX 242, Heel</text>
<text x="179.000000" y="130.000000" font-family="Arial" font-size="8" text-anchor="middle" dominant-baseline="middle" transform="rotate(90 179.000000 130.000000)" >Look SPX 242, Toe</text>
<line x1="104.000000" y1="150.500000" x2="104.000000" y2="255.000000" stroke="black" stroke-width="0.1" />
<line x1="101.500000" y1="150.500000" x2="106.500000" y2="150.500000" stroke="black" stroke-width="0.1" />
<line x1="104.000000" y1="150.500000" x2="101.500000" y2="153.000000" stroke="black" stroke-width="0.1" />
<line x1="104.000000" y1="150.500000" x2="106.500000" y2="153.000000" stroke="black" stroke-width="0.1" />
<line x1="101.500000" y1="255.000000" x2="106.500000" y2="255.000000" stroke="black" stroke-width="0.1" />
<line x1="104.000000" y1="255.000000" x2="101.500000" y2="252.500000" stroke="black" stroke-width="0.1" />
<line x1="104.000000" y1="255.000000" x2="106.500000" y2="252.500000" stroke="black" stroke-width="0.1" />
<text x="106.500000" y="202.750000" font-family="Arial" font-size="4" text-anchor="middle" dominant-baseline="middle" transform="rotate(90 106.500000 202.750000)" >104.5 mm</text>
<line x1="114.000000" y1="109.000000" x2="114.000000" y2="150.500000" stroke="black" stroke-width="0.1" />
<line x1="111.500000" y1="109.000000" x2="116.500000" y2="109.000000" stroke="black" stroke-width="0.1" />
<line x1="114.000000" y1="109.000000" x2="111.500000" y2="111.500000" stroke="black" stroke-width="0.1" />
<line x1="114.000000" y1="109.000000" x2="116.500000" y2="111.500000" stroke="black" stroke-width="0.1" />
<line x1="111.500000" y1="150.500000" x2="116.500000" y2="150.500000" stroke="black" stroke-width="0.1" />
<line x1="114.000000" y1="150.500000" x2="111.500000" y2="148.000000" stroke="black" stroke-width="0.1" />
<line x1="114.000000" y1="150.500000" x2="116.500000" y2="148.000000" stroke="black" stroke-width="0.1" />
<text x="116.500000" y="129.750000" font-family="Arial" font-size="4" text-anchor="middle" dominant-baseline="middle" transform="rotate(90 116.500000 129.750000)" >41.5 mm</text>
<line x1="8.000000" y1="5.000000" x2="8.000000" y2="100.000000" stroke="black" stroke-width="0.1" />
<line x1="5.500000" y1="5.000000" x2="10.500000" y2="5.000000" stroke="black" stroke-width="0.1" />
<line x1="8.000000" y1="5.000000" x2="5.500000" y2="7.500000" stroke="black" stroke-width="0.1" />
<line x1="8.000000" y1="5.000000" x2="10.500000" y2="7.500000" stroke="black" stroke-width="0.1" />
<line x1="5.500000" y1="100.000000" x2="10.500000" y2="100.000000" stroke="black" stroke-width="0.1" />
<line x1="8.000000" y1="100.000000" x2="5.500000" y2="97.500000" stroke="black" stroke-width="0.1" />
<line x1="8.000000" y1="100.000000" x2="10.500000" y2="97.500000" stroke="black" stroke-width="0.1" />
<text x="10.500000" y="52.500000" font-family="Arial" font-size="4" text-anchor="middle" dominant-baseline="middle" transform="rotate(90 10.500000 52.500000)" >95.0 mm</text>
<line x1="18.000000" y1="100.000000" x2="18.000000" y2="205.000000" stroke="black" stroke-width="0.1" />
<line x1="15.500000" y1="100.000000" x2="20.500000" y2="100.000000" stroke="black" stroke-width="0.1" />
<line x1="18.000000" y1="100.000000" x2="15.500000" y2="102.500000" stroke="black" stroke-width="0.1" />
<line x1="18.000000" y1="100.000000" x2="20.500000" y2="102.500000" stroke="black" stroke-width="0.1" />
<line x1="15.500000" y1="205.000000" x2="20.500000" y2="205.000000" stroke="black" stroke-width="0.1" />
<line x1="18.000000" y1="205.000000" x2="15.500000" y2="202.500000" stroke="black" stroke-width="0.1" />
<line x1="18.000000" y1="205.000000" x2="20.500000" y2="202.500000" stroke="black" stroke-width="0.1" />
<text x="20.500000" y="152.500000" font-family="Arial" font-size="4" text-anchor="middle" dominant-baseline="middle" transform="rotate(90 20.500000 152.500000)" >105.0 mm</text>
<line x1="126.500000" y1="140.500000" x2="161.500000" y2="140.500000" stroke="black" stroke-width="0.1" />
<line x1="126.500000" y1="138.000000" x2="126.500000" y2="143.000000" stroke="black" stroke-width="0.1" />
<line x1="126.500000" y1="140.500000" x2="129.000000" y2="143.000000" stroke="black" stroke-width="0.1" />
<line x1="126.500000" y1="140.500000" x2="129.000000" y2="138.000000" stroke="black" stroke-width="0.1" />
<line x1="161.500000" y1="138.000000" x2="161.500000" y2="143.000000" stroke="black" stroke-width="0.1" />
<line x1="161.500000" y1="140.500000" x2="159.000000" y2="143.000000" stroke="black" stroke-width="0.1" />
<line x1="161.500000" y1="140.500000" x2="159.000000" y2="138.000000" stroke="black" stroke-width="0.1" />
<text x="149.000000" y="130.500000" font-family="Arial" font-size="4" text-anchor="middle" dominant-baseline="middle" transform="rotate(90 149.000000 130.500000)" >35.0 mm</text>
<line x1="123.000000" y1="99.000000" x2="165.000000" y2="99.000000" stroke="black" stroke-width="0.1" />
<line x1="123.000000" y1="96.500000" x2="123.000000" y2="101.500000" stroke="black" stroke-width="0.1" />
<line x1="123.000000" y1="99.000000" x2="125.500000" y2="101.500000" stroke="black" stroke-width="0.1" />
<line x1="123.000000" y1="99.000000" x2="125.500000" y2="96.500000" stroke="black" stroke-width="0.1" />
<line x1="165.000000" y1="96.500000" x2="165.000000" y2="101.500000" stroke="black" stroke-width="0.1" />
<line x1="165.000000" y1="99.000000" x2="162.500000" y2="101.500000" stroke="black" stroke-width="0.1" />
<line x1="165.000000" y1="99.000000" x2="162.500000" y2="96.500000" stroke="black" stroke-width="0.1" />
<text x="149.000000" y="89.000000" font-family="Arial" font-size="4" text-anchor="middle" dominant-baseline="middle" transform="rotate(90 149.000000 89.000000)" >42.0 mm</text>
<line x1="27.000000" y1="110.000000" x2="69.000000" y2="110.000000" stroke="black" stroke-width="0.1" />
<line x1="27.000000" y1="107.500000" x2="27.000000" y2="112.500000" stroke="black" stroke-width="0.1" />
<line x1="27.000000" y1="110.000000" x2="29.500000" y2="112.500000" stroke="black" stroke-width="0.1" />
<line x1="27.000000" y1="110.000000" x2="29.500000" y2="107.500000" stroke="black" stroke-width="0.1" />
<line x1="69.000000" y1="107.500000" x2="69.000000" y2="112.500000" stroke="black" stroke-width="0.1" />
<line x1="69.000000" y1="110.000000" x2="66.500000" y2="112.500000" stroke="black" stroke-width="0.1" />
<line x1="69.000000" y1="110.000000" x2="66.500000" y2="107.500000" stroke="black" stroke-width="0.1" />
<text x="53.000000" y="120.000000" font-family="Arial" font-size="4" text-anchor="middle" dominant-baseline="middle" transform="rotate(90 53.000000 120.000000)" >42.0 mm</text>
<line x1="27.000000" y1="215.000000" x2="69.000000" y2="215.000000" stroke="black" stroke-width="0.1" />
<line x1="27.000000" y1="212.500000" x2="27.000000" y2="217.500000" stroke="black" stroke-width="0.1" />
<line x1="27.000000" y1="215.000000" x2="29.500000" y2="217.500000" stroke="black" stroke-width="0.1" />
<line x1="27.000000" y1="215.000000" x2="29.500000" y2="212.500000" stroke="black" stroke-width="0.1" />
<line x1="69.000000" y1="212.500000" x2="69.000000" y2="217.500000" stroke="black" stroke-width="0.1" />
<line x1="69.000000" y1="215.000000" x2="66.500000" y2="217.500000" stroke="black" stroke-width="0.1" />
<line x1="69.000000" y1="215.000000" x2="66.500000" y2="212.500000" stroke="black" stroke-width="0.1" />
<text x="53.000000" y="225.000000" font-family="Arial" font-size="4" text-anchor="middle" dominant-baseline="middle" transform="rotate(90 53.000000 225.000000)" >42.0 mm</text>
<circle cx="126.500000" cy="150.500000" r="2.500000" fill="none" stroke="black" stroke-width="0.1" />
<circle cx="126.500000" cy="150.500000" r="0.250000" fill="none" stroke="black" stroke-width="0.1" />
<line x1="126.250000" y1="150.500000" x2="126.000000" y2="150.500000" stroke="black" stroke-width="0.1" />
<line x1="126.750000" y1="150.500000" x2="127.000000" y2="150.500000" stroke="black" stroke-width="0.1" />
<line x1="126.500000" y1="150.250000" x2="126.500000" y2="150.000000" stroke="black" stroke-width="0.1" />
<line x1="126.500000" y1="150.750000" x2="126.500000" y2="151.000000" stroke="black" stroke-width="0.1" />
<line x1="123.500000" y1="150.500000" x2="124.500000" y2="150.500000" stroke="black" stroke-width="0.1" />
<line x1="128.500000" y1="150.500000" x2="129.500000" y2="150.500000" stroke="black" stroke-width="0.1" />
<line x1="126.500000" y1="147.500000" x2="126.500000" y2="148.500000" stroke="black" stroke-width="0.1" />
<line x1="126.500000" y1="152.500000" x2="126.500000" y2="153.500000" stroke="black" stroke-width="0.1" />
<circle cx="161.500000" cy="150.500000" r="2.500000" fill="none" stroke="black" stroke-width="0.1" />
<circle cx="161.500000" cy="150.500000" r="0.250000" fill="none" stroke="black" stroke-width="0.1" />
<line x1="161.250000" y1="150.500000" x2="161.000000" y2="150.500000" stroke="black" stroke-width="0.1" />
<line x1="161.750000" y1="150.500000" x2="162.000000" y2="150.500000" stroke="black" stroke-width="0.1" />
<line x1="161.500000" y1="150.250000" x2="161.500000" y2="150.000000" stroke="black" stroke-width="0.1" />
<line x1="161.500000" y1="150.750000" x2="161.500000" y2="151.000000" stroke="black" stroke-width="0.1" />
<line x1="158.500000" y1="150.500000" x2="159.500000" y2="150.500000" stroke="black" stroke-width="0.1" />
<line x1="163.500000" y1="150.500000" x2="164.500000" y2="150.500000" stroke="black" stroke-width="0.1" />
<line x1="161.500000" y1="147.500000" x2="161.500000" y2="148.500000" stroke="black" stroke-width="0.1" />
<line x1="161.500000" y1="152.500000" x2="161.500000" y2="153.500000" stroke="black" stroke-width="0.1" />
<circle cx="123.000000" cy="109.000000" r="2.500000" fill="none" stroke="black" stroke-width="0.1" />
<circle cx="123.000000" cy="109.000000" r="0.250000" fill="none" stroke="black" stroke-width="0.1" />
<line x1="122.750000" y1="109.000000" x2="122.500000" y2="109.000000" stroke="black" stroke-width="0.1" />
<line x1="123.250000" y1="109.000000" x2="123.500000" y2="109.000000" stroke="black" stroke-width="0.1" />
<line x1="123.000000" y1="108.750000" x2="123.000000" y2="108.500000" stroke="black" stroke-width="0.1" />
<line x1="123.000000" y1="109.250000" x2="123.000000" y2="109.500000" stroke="black" stroke-width="0.1" />
<line x1="120.000000" y1="109.000000" x2="121.000000" y2="109.000000" stroke="black" stroke-width="0.1" />
<line x1="125.000000" y1="109.000000" x2="126.000000" y2="109.000000" stroke="black" stroke-width="0.1" />
<line x1="123.000000" y1="106.000000" x2="123.000000" y2="107.000000" stroke="black" stroke-width="0.1" />
<line x1="123.000000" y1="111.000000" x2="123.000000" y2="112.000000" stroke="black" stroke-width="0.1" />
<circle cx="165.000000" cy="109.000000" r="2.500000" fill="none" stroke="black" stroke-width="0.1" />
<circle cx="165.000000" cy="109.000000" r="0.250000" fill="none" stroke="black" stroke-width="0.1" />
<line x1="164.750000" y1="109.000000" x2="164.500000" y2="109.000000" stroke="black" stroke-width="0.1" />
<line x1="165.250000" y1="109.000000" x2="165.500000" y2="109.000000" stroke="black" stroke-width="0.1" />
<line x1="165.000000" y1="108.750000" x2="165.000000" y2="108.500000" stroke="black" stroke-width="0.1" />
<line x1="165.000000" y1="109.250000" x2="165.000000" y2="109.500000" stroke="black" stroke-width="0.1" />
<line x1="162.000000" y1="109.000000" x2="163.000000" y2="109.000000" stroke="black" stroke-width="0.1" />
<line x1="167.000000" y1="109.000000" x2="168.000000" y2="109.000000" stroke="black" stroke-width="0.1" />
<line x1="165.000000" y1="106.000000" x2="165.000000" y2="107.000000" stroke="black" stroke-width="0.1" />
<line x1="165.000000" y1="111.000000" x2="165.000000" y2="112.000000" stroke="black" stroke-width="0.1" />
<circle cx="27.000000" cy="100.000000" r="2.500000" fill="none" stroke="black" stroke-width="0.1" />
<circle cx="27.000000" cy="100.000000" r="0.250000" fill="none" stroke="black" stroke-width="0.1" />
<line x1="26.750000" y1="100.000000" x2="26.500000" y2="100.000000" stroke="black" stroke-width="0.1" />
<line x1="27.250000" y1="100.000000" x2="27.500000" y2="100.000000" stroke="black" stroke-width="0.1" />
<line x1="27.000000" y1="99.750000" x2="27.000000" y2="99.500000" stroke="black" stroke-width="0.1" />
<line x1="27.000000" y1="100.250000" x2="27.000000" y2="100.500000" stroke="black" stroke-width="0.1" />
<line x1="24.000000" y1="100.000000" x2="25.000000" y2="100.000000" stroke="black" stroke-width="0.1" />
<line x1="29.000000" y1="100.000000" x2="30.000000" y2="100.000000" stroke="black" stroke-width="0.1" />
<line x1="27.000000" y1="97.000000" x2="27.000000" y2="98.000000" stroke="black" stroke-width="0.1" />
<line x1="27.000000" y1="102.000000" x2="27.000000" y2="103.000000" stroke="black" stroke-width="0.1" />
<circle cx="69.000000" cy="100.000000" r="2.500000" fill="none" stroke="black" stroke-width="0.1" />
<circle cx="69.000000" cy="100.000000" r="0.250000" fill="none" stroke="black" stroke-width="0.1" />
<line x1="68.750000" y1="100.000000" x2="68.500000" y2="100.000000" stroke="black" stroke-width="0.1" />
<line x1="69.250000" y1="100.000000" x2="69.500000" y2="100.000000" stroke="black" stroke-width="0.1" />
<line x1="69.000000" y1="99.750000" x2="69.000000" y2="99.500000" stroke="black" stroke-width="0.1" />
<line x1="69.000000" y1="100.250000" x2="69.000000" y2="100.500000" stroke="black" stroke-width="0.1" />
<line x1="66.000000" y1="100.000000" x2="67.000000" y2="100.000000" stroke="black" stroke-width="0.1" />
<line x1="71.000000" y1="100.000000" x2="72.000000" y2="100.000000" stroke="black" stroke-width="0.1" />
<line x1="69.000000" y1="97.000000" x2="69.000000" y2="98.000000" stroke="black" stroke-width="0.1" />
<line x1="69.000000" y1="102.000000" x2="69.000000" y2="103.000000" stroke="black" stroke-width="0.1" />
<circle cx="27.000000" cy="205.000000" r="2.500000" fill="none" stroke="black" stroke-width="0.1" />
<circle cx="27.000000" cy="205.000000" r="0.250000" fill="none" stroke="black" stroke-width="0.1" />
<line x1="26.750000" y1="205.000000" x2="26.500000" y2="205.000000" stroke="black" stroke-width="0.1" />
<line x1="27.250000" y1="205.000000" x2="27.500000" y2="205.000000" stroke="black" stroke-width="0.1" />
<line x1="27.000000" y1="204.750000" x2="27.000000" y2="204.500000" stroke="black" stroke-width="0.1" />
<line x1="27.000000" y1="205.250000" x2="27.000000" y2="205.500000" stroke="black" stroke-width="0.1" />
<line x1="24.000000" y1="205.000000" x2="25.000000" y2="205.000000" stroke="black" stroke-width="0.1" />
<line x1="29.000000" y1="205.000000" x2="30.000000" y2="205.000000" stroke="black" stroke-width="0.1" />
<line x1="27.000000" y1="202.000000" x2="27.000000" y2="203.000000" stroke="black" stroke-width="0.1" />
<line x1="27.000000" y1="207.000000" x2="27.000000" y2="208.000000" stroke="black" stroke-width="0.1" />
<circle cx="69.000000" cy="205.000000" r="2.500000" fill="none" stroke="black" stroke-width="0.1" />
<circle cx="69.000000" cy="205.000000" r="0.250000" fill="none" stroke="black" stroke-width="0.1" />
<line x1="68.750000" y1="205.000000" x2="68.500000" y2="205.000000" stroke="black" stroke-width="0.1" />
<line x1="69.250000" y1="205.000000" x2="69.500000" y2="205.000000" stroke="black" stroke-width="0.1" />
<line x1="69.000000" y1="204.750000" x2="69.000000" y2="204.500000" stroke="black" stroke-width="0.1" />
<line x1="69.000000" y1="205.250000" x2="69.000000" y2="205.500000" stroke="black" stroke-width="0.1" />
<line x1="66.000000" y1="205.000000" x2="67.000000" y2="205.000000" stroke="black" stroke-width="0.1" />
<line x1="71.000000" y1="205.000000" x2="72.000000" y2="205.000000" stroke="black" stroke-width="0.1" />
<line x1="69.000000" y1="202.000000" x2="69.000000" y2="203.000000" stroke="black" stroke-width="0.1" />
<line x1="69.000000" y1="207.000000" x2="69.000000" y2="208.000000" stroke="black" stroke-width="0.1" />
<text x="73.000000" y="25.000000" font-family="Arial" font-size="4" text-anchor="middle" dominant-baseline="middle" transform="rotate(90 73.000000 25.000000)" >Mid Sole Mount Line</text>
<text x="169.000000" y="235.000000" font-family="Arial" font-size="4" text-anchor="middle" dominant-baseline="middle" transform="rotate(90 169.000000 235.000000)" >Mid Sole Mount Line</text>
<text x="43.000000" y="235.000000" font-family="Arial" font-size="4" text-anchor="middle" dominant-baseline="middle" transform="rotate(90 43.000000 235.000000)" >Ski Center Line</text>
<text x="139.000000" y="25.000000" font-family="Arial" font-size="4" text-anchor="middle" dominant-baseline="middle" transform="rotate(90 139.000000 25.000000)" >Ski Center Line</text>
</svg>