<?xml version="1.0"?>
<!DOCTYPE svg PUBLIC "-//W3C//DTD SVG 1.1//EN"
"http://www.w3.org/Graphics/SVG/1.1/DTD/svg11.dtd">
<svg xmlns="http://www.w3.org/2000/svg" version="1.2" width="192.000000mm" height="259.000000mm" viewBox="0 0 192.000000 259.000000" style="background-color:white" >
<line x1="48.000000" y1="0.000000" x2="48.000000" y2="259.000000" stroke="black" stroke-width="0.1" />
<line x1="144.000000" y1="0.000000" x2="144.000000" y2="259.000000" stroke="black" stroke-width="0.1" />
<line x1="104.000000" y1="255.000000" x2="184.000000" y2="255.000000" stroke="black" stroke-width="0.1" />
<line x1="8.000000" y1="5.000000" x2="88.000000" y2="5.000000" stroke="black" stroke-width="0.1" />
<line x1="96.000000" y1="0.000000" x2="96.000000" y2="259.000000" stroke="black" stroke-width="0.1" stroke-dasharray="2 2" />
<line x1="0.000000" y1="259.000000" x2="96.000000" y2="259.000000" stroke="black" stroke-width="0.1" stroke-dasharray="2 2" />
<line x1="96.000000" y1="0.000000" x2="192.000000" y2="0.000000" stroke="black" stroke-width="0.1" stroke-dasharray="2 2" />
<line x1="48.000000" y1="7.000000" x2="41.000000" y2="0.000000" stroke="black" stroke-width="0.1" stroke-dasharray="2 2" />
<line x1="48.000000" y1="7.000000" x2="55.000000" y2="0.000000" stroke="black" stroke-width="0.1" stroke-dasharray="2 2" />
<line x1="144.000000" y1="253.000000" x2="138.000000" y2="259.000000" stroke="black" stroke-width="0.1" stroke-dasharray="2 2" />
<line x1="144.000000" y1="253.000000" x2="150.000000" y2="259.000000" stroke="black" stroke-width="0.1" stroke-dasharray="2 2" />
<text x="83.000000" y="130.000000" font-family="Arial" font-size="8" text-anchor="middle" dominant-baseline="middle" transform="rotate(90 83.000000 130.000000)" >Look SPX 335, Heel</text>
<text x="179.000000" y="130.000000" font-family="Arial" font-size="8" text-anchor="middle" dominant-baseline="middle" transform="rotate(90 179.000000 130.000000)" >Look SPX 335, Toe</text>
<line x1="104.000000" y1="104.000000" x2="104.000000" y2="255.000000" stroke="black" stroke-width="0.1" />
<line x1="101.500000" y1="104.000000" x2="106.500000" y2="104.000000" stroke="black" stroke-width="0.1" />
<line x1="104.000000" y1="104.000000" x2="101.500000" y2="106.500000" stroke="black" stroke-width="0.1" />
<line x1="104.000000" y1="104.000000" x2="106.500000" y2="106.500000" stroke="black" stroke-width="0.1" />
<line x1="101.500000" y1="255.000000" x2="106.500000" y2="255.000000" stroke="black" stroke-width="0.1" />
<line x1="104.000000" y1="255.000000" x2="101.500000" y2="252.500000" stroke="black" stroke-width="0.1" />
<line x1="104.000000" y1="255.000000" x2="106.500000" y2="252.500000" stroke="black" stroke-width="0.1" />
<text x="106.500000" y="179.500000" font-family="Arial" font-size="4" text-anchor="middle" dominant-baseline="middle" transform="rotate(90 106.500000 179.500000)" >151.0 mm</text>
<line x1="114.000000" y1="62.500000" x2="114.000000" y2="104.000000" stroke="black" stroke-width="0.1" />
<line x1="111.500000" y1="62.500000" x2="116.500000" y2="62.500000" stroke="black" stroke-width="0.1" />
<line x1="114.000000" y1="62.500000" x2="111.500000" y2="65.000000" stroke="black" stroke-width="0.1" />
<line x1="114.000000" y1="62.500000" x2="116.500000" y2="65.000000" stroke="black" stroke-width="0.1" />
<line x1="111.500000" y1="104.000000" x2="116.500000" y2="104.000000" stroke="black" stroke-width="0.1" />
<line x1="114.000000" y1="104.000000" x2="111.500000" y2="101.500000" stroke="black" stroke-width="0.1" />
<line x1="114.000000" y1="104.000000" x2="116.500000" y2="101.500000" stroke="black" stroke-width="0.1" />
<text x="116.500000" y="83.250000" font-family="Arial" font-size="4" text-anchor="middle" dominant-baseline="middle" transform="rotate(90 116.500000 83.250000)" >41.5 mm</text>
<line x1="8.000000" y1="5.000000" x2="8.000000" y2="146.500000" stroke="black" stroke-width="0.1" />
<line x1="5.500000" y1="5.000000" x2="10.500000" y2="5.000000" stroke="black" stroke-width="0.1" />
<line x1="8.000000" y1="5.000000" x2="5.500000" y2="7.500000" stroke="black" stroke-width="0.1" />
<line x1="8.000000" y1="5.000000" x2="10.500000" y2="7.500000" stroke="black" stroke-width="0.1" />
<line x1="5.500000" y1="146.500000" x2="10.500000" y2="146.500000" stroke="black" stroke-width="0.1" />
<line x1="8.000000" y1="146.500000" x2="5.500000" y2="144.000000" stroke="black" stroke-width="0.1" />
<line x1="8.000000" y1="146.500000" x2="10.500000" y2="144.000000" stroke="black" stroke-width="0.1" />
<text x="10.500000" y="75.750000" font-family="Arial" font-size="4" text-anchor="middle" dominant-baseline="middle" transform="rotate(90 10.500000 75.750000)" >141.5 mm</text>
<line x1="18.000000" y1="146.500000" x2="18.000000" y2="251.500000" stroke="black" stroke-width="0.1" />
<line x1="15.500000" y1="146.500000" x2="20.500000" y2="146.500000" stroke="black" stroke-width="0.1" />
<line x1="18.000000" y1="146.500000" x2="15.500000" y2="149.000000" stroke="black" stroke-width="0.1" />
<line x1="18.000000" y1="146.500000" x2="20.500000" y2="149.000000" stroke="black" stroke-width="0.1" />
<line x1="15.500000" y1="251.500000" x2="20.500000" y2="251.500000" stroke="black" stroke-width="0.1" />
<line x1="18.000000" y1="251.500000" x2="15.500000" y2="249.000000" stroke="black" stroke-width="0.1" />
<line x1="18.000000" y1="251.500000" x2="20.500000" y2="249.000000" stroke="black" stroke-width="0.1" />
<text x="20.500000" y="199.000000" font-family="Arial" font-size="4" text-anchor="middle" dominant-baseline="middle" transform="rotate(90 20.500000 199.000000)" >105.0 mm</text>
<line x1="126.500000" y1="94.000000" x2="161.500000" y2="94.000000" stroke="black" stroke-width="0.1" />
<line x1="126.500000" y1="91.500000" x2="126.500000" y2="96.500000" stroke="black" stroke-width="0.1" />
<line x1="126.500000" y1="94.000000" x2="129.000000" y2="96.500000" stroke="black" stroke-width="0.1" />
<line x1="126.500000" y1="94.000000" x2="129.000000" y2="91.500000" stroke="black" stroke-width="0.1" />
<line x1="161.500000" y1="91.500000" x2="161.500000" y2="96.500000" stroke="black" stroke-width="0.1" />
<line x1="161.500000" y1="94.000000" x2="159.000000" y2="96.500000" stroke="black" stroke-width="0.1" />
<line x1="161.500000" y1="94.000000" x2="159.000000" y2="91.500000" stroke="black" stroke-width="0.1" />
<text x="149.000000" y="84.000000" font-family="Arial" font-size="4" text-anchor="middle" dominant-baseline="middle" transform="rotate(90 149.000000 84.000000)" >35.0 mm</text>
<line x1="123.000000" y1="52.500000" x2="165.000000" y2="52.500000" stroke="black" stroke-width="0.1" />
<line x1="123.000000" y1="50.000000" x2="123.000000" y2="55.000000" stroke="black" stroke-width="0.1" />
<line x1="123.000000" y1="52.500000" x2="125.500000" y2="55.000000" stroke="black" stroke-width="0.1" />
<line x1="123.000000" y1="52.500000" x2="125.500000" y2="50.000000" stroke="black" stroke-width="0.1" />
<line x1="165.000000" y1="50.000000" x2="165.000000" y2="55.000000" stroke="black" stroke-width="0.1" />
<line x1="165.000000" y1="52.500000" x2="162.500000" y2="55.000000" stroke="black" stroke-width="0.1" />
<line x1="165.000000" y1="52.500000" x2="162.500000" y2="50.000000" stroke="black" stroke-width="0.1" />
<text x="149.000000" y="42.500000" font-family="Arial" font-size="4" text-anchor="middle" dominant-baseline="middle" transform="rotate(90 149.000000 42.500000)" >42.0 mm</text>
<line x1="27.000000" y1="156.500000" x2="69.000000" y2="156.500000" stroke="black" stroke-width="0.1" />
<line x1="27.000000" y1="154.000000" x2="27.000000" y2="159.000000" stroke="black" stroke-width="0.1" />
<line x1="27.000000" y1="156.500000" x2="29.500000" y2="159.000000" stroke="black" stroke-width="0.1" />
<line x1="27.000000" y1="156.500000" x2="29.500000" y2="154.000000" stroke="black" stroke-width="0.1" />
<line x1="69.000000" y1="154.000000" x2="69.000000" y2="159.000000" stroke="black" stroke-width="0.1" />
<line x1="69.000000" y1="156.500000" x2="66.500000" y2="159.000000" stroke="black" stroke-width="0.1" />
<line x1="69.000000" y1="156.500000" x2="66.500000" y2="154.000000" stroke="black" stroke-width="0.1" />
<text x="53.000000" y="166.500000" font-family="Arial" font-size="4" text-anchor="middle" dominant-baseline="middle" transform="rotate(90 53.000000 166.500000)" >42.0 mm</text>
<line x1="27.000000" y1="261.500000" x2="69.000000" y2="261.500000" stroke="black" stroke-width="0.1" />
<line x1="27.000000" y1="259.000000" x2="27.000000" y2="264.000000" stroke="black" stroke-width="0.1" />
<line x1="27.000000" y1="261.500000" x2="29.500000" y2="264.000000" stroke="black" stroke-width="0.1" />
<line x1="27.000000" y1="261.500000" x2="29.500000" y2="259.000000" stroke="black" stroke-width="0.1" />
<line x1="69.000000" y1="259.000000" x2="69.000000" y2="264.000000" stroke="black" stroke-width="0.1" />
<line x1="69.000000" y1="261.500000" x2="66.500000" y2="264.000000" stroke="black" stroke-width="0.1" />
<line x1="69.000000" y1="261.500000" x2="66.500000" y2="259.000000" stroke="black" stroke-width="0.1" />
<text x="53.000000" y="271.500000" font-family="Arial" font-size="4" text-anchor="middle" dominant-baseline="middle" transform="rotate(90 53.000000 271.500000)" >42.0 mm</text>
<circle cx="126.500000" cy="104.000000" r="2.500000" fill="none" stroke="black" stroke-width="0.1" />
<circle cx="126.500000" cy="104.000000" r="0.250000" fill="none" stroke="black" stroke-width="0.1" />
<line x1="126.250000" y1="104.000000" x2="126.000000" y2="104.000000" stroke="black" stroke-width="0.1" />
<line x1="126.750000" y1="104.000000" x2="127.000000" y2="104.000000" stroke="black" stroke-width="0.1" />
<line x1="126.500000" y1="103.750000" x2="126.500000" y2="103.500000" stroke="black" stroke-width="0.1" />
<line x1="126.500000" y1="104.250000" x2="126.500000" y2="104.500000" stroke="black" stroke-width="0.1" />
<line x1="123.500000" y1="104.000000" x2="124.500000" y2="104.000000" stroke="black" stroke-width="0.1" />
<line x1="128.500000" y1="104.000000" x2="129.500000" y2="104.000000" stroke="black" stroke-width="0.1" />
<line x1="126.500000" y1="101.000000" x2="126.500000" y2="102.000000" stroke="black" stroke-width="0.1" />
<line x1="126.500000" y1="106.000000" x2="126.500000" y2="107.000000" stroke="black" stroke-width="0.1" />
<circle cx="161.500000" cy="104.000000" r="2.500000" fill="none" stroke="black" stroke-width="0.1" />
<circle cx="161.500000" cy="104.000000" r="0.250000" fill="none" stroke="black" stroke-width="0.1" />
<line x1="161.250000" y1="104.000000" x2="161.000000" y2="104.000000" stroke="black" stroke-width="0.1" />
<line x1="161.750000" y1="104.000000" x2="162.000000" y2="104.000000" stroke="black" stroke-width="0.1" />
<line x1="161.500000" y1="103.750000" x2="161.500000" y2="103.500000" stroke="black" stroke-width="0.1" />
<line x1="161.500000" y1="104.250000" x2="161.500000" y2="104.500000" stroke="black" stroke-width="0.1" />
<line x1="158.500000" y1="104.000000" x2="159.500000" y2="104.000000" stroke="black" stroke-width="0.1" />
<line x1="163.500000" y1="104.000000" x2="164.500000" y2="104.000000" stroke="black" stroke-width="0.1" />
<line x1="161.500000" y1="101.000000" x2="161.500000" y2="102.000000" stroke="black" stroke-width="0.1" />
<line x1="161.500000" y1="106.000000" x2="161.500000" y2="107.000000" stroke="black" stroke-width="0.1" />
<circle cx="123.000000" cy="62.500000" r="2.500000" fill="none" stroke="black" stroke-width="0.1" />
<circle cx="123.000000" cy="62.500000" r="0.250000" fill="none" stroke="black" stroke-width="0.1" />
<line x1="122.750000" y1="62.500000" x2="122.500000" y2="62.500000" stroke="black" stroke-width="0.1" />
<line x1="123.250000" y1="62.500000" x2="123.500000" y2="62.500000" stroke="black" stroke-width="0.1" />
<line x1="123.000000" y1="62.250000" x2="123.000000" y2="62.000000" stroke="black" stroke-width="0.1" />
<line x1="123.000000" y1="62.750000" x2="123.000000" y2="63.000000" stroke="black" stroke-width="0.1" />
<line x1="120.000000" y1="62.500000" x2="121.000000" y2="62.500000" stroke="black" stroke-width="0.1" />
<line x1="125.000000" y1="62.500000" x2="126.000000" y2="62.500000" stroke="black" stroke-width="0.1" />
<line x1="123.000000" y1="59.500000" x2="123.000000" y2="60.500000" stroke="black" stroke-width="0.1" />
<line x1="123.000000" y1="64.500000" x2="123.000000" y2="65.500000" stroke="black" stroke-width="0.1" />
<circle cx="165.000000" cy="62.500000" r="2.500000" fill="none" stroke="black" stroke-width="0.1" />
<circle cx="165.000000" cy="62.500000" r="0.250000" fill="none" stroke="black" stroke-width="0.1" />
<line x1="164.750000" y1="62.500000" x2="164.500000" y2="62.500000" stroke="black" stroke-width="0.1" />
<line x1="165.250000" y1="62.500000" x2="165.500000" y2="62.500000" stroke="black" stroke-width="0.1" />
<line x1="165.000000" y1="62.250000" x2="165.000000" y2="62.000000" stroke="black" stroke-width="0.1" />
<line x1="165.000000" y1="62.750000" x2="165.000000" y2="63.000000" stroke="black" stroke-width="0.1" />
<line x1="162.000000" y1="62.500000" x2="163.000000" y2="62.500000" stroke="black" stroke-width="0.1" />
<line x1="167.000000" y1="62.500000" x2="168.000000" y2="62.500000" stroke="black" stroke-width="0.1" />
<line x1="165.000000" y1="59.500000" x2="165.000000" y2="60.500000" stroke="black" stroke-width="0.1" />
<line x1="165.000000" y1="64.500000" x2="165.000000" y2="65.500000" stroke="black" stroke-width="0.1" />
<circle cx="27.000000" cy="146.500000" r="2.500000" fill="none" stroke="black" stroke-width="0.1" />
<circle cx="27.000000" cy="146.500000" r="0.250000" fill="none" stroke="black" stroke-width="0.1" />
<line x1="26.750000" y1="146.500000" x2="26.500000" y2="146.500000" stroke="black" stroke-width="0.1" />
<line x1="27.250000" y1="146.500000" x2="27.500000" y2="146.500000" stroke="black" stroke-width="0.1" />
<line x1="27.000000" y1="146.250000" x2="27.000000" y2="146.000000" stroke="black" stroke-width="0.1" />
<line x1="27.000000" y1="146.750000" x2="27.000000" y2="147.000000" stroke="black" stroke-width="0.1" />
<line x1="24.000000" y1="146.500000" x2="25.000000" y2="146.500000" stroke="black" stroke-width="0.1" />
<line x1="29.000000" y1="146.500000" x2="30.000000" y2="146.500000" stroke="black" stroke-width="0.1" />
<line x1="27.000000" y1="143.500000" x2="27.000000" y2="144.500000" stroke="black" stroke-width="0.1" />
<line x1="27.000000" y1="148.500000" x2="27.000000" y2="149.500000" stroke="black" stroke-width="0.1" />
<circle cx="69.000000" cy="146.500000" r="2.500000" fill="none" stroke="black" stroke-width="0.1" />
<circle cx="69.000000" cy="146.500000" r="0.250000" fill="none" stroke="black" stroke-width="0.1" />
<line x1="68.750000" y1="146.500000" x2="68.500000" y2="146.500000" stroke="black" stroke-width="0.1" />
<line x1="69.250000" y1="146.500000" x2="69.500000" y2="146.500000" stroke="black" stroke-width="0.1" />
<line x1="69.000000" y1="146.250000" x2="69.000000" y2="146.000000" stroke="black" stroke-width="0.1" />
<line x1="69.000000" y1="146.750000" x2="69.000000" y2="147.000000" stroke="black" stroke-width="0.1" />
<line x1="66.000000" y1="146.500000" x2="67.000000" y2="146.500000" stroke="black" stroke-width="0.1" />
<line x1="71.000000" y1="146.500000" x2="72.000000" y2="146.500000" stroke="black" stroke-width="0.1" />
<line x1="69.000000" y1="143.500000" x2="69.000000" y2="144.500000" stroke="black" stroke-width="0.1" />
<line x1="69.000000" y1="148.500000" x2="69.000000" y2="149.500000" stroke="black" stroke-width="0.1" />
<circle cx="27.000000" cy="251.500000" r="2.500000" fill="none" stroke="black" stroke-width="0.1" />
<circle cx="27.000000" cy="251.500000" r="0.250000" fill="none" stroke="black" stroke-width="0.1" />
<line x1="26.750000" y1="251.500000" x2="26.500000" y2="251.500000" stroke="black" stroke-width="0.1" />
<line x1="27.250000" y1="251.500000" x2="27.500000" y2="251.500000" stroke="black" stroke-width="0.1" />
<line x1="27.000000" y1="251.250000" x2="27.000000" y2="251.000000" stroke="black" stroke-width="0.1" />
<line x1="27.000000" y1="251.750000" x2="27.000000" y2="252.000000" stroke="black" stroke-width="0.1" />
<line x1="24.000000" y1="251.500000" x2="25.000000" y2="251.500000" stroke="black" stroke-width="0.1" />
<line x1="29.000000" y1="251.500000" x2="30.000000" y2="251.500000" stroke="black" stroke-width="0.1" />
<line x1="27.000000" y1="248.500000" x2="27.000000" y2="249.500000" stroke="black" stroke-width="0.1" />
<line x1="27.000000" y1="253.500000" x2="27.000000" y2="254.500000" stroke="black" stroke-width="0.1" />
<circle cx="69.000000" cy="251.500000" r="2.500000" fill="none" stroke="black" stroke-width="0.1" />
<circle cx="69.000000" cy="251.500000" r="0.250000" fill="none" stroke="black" stroke-width="0.1" />
<line x1="68.750000" y1="251.500000" x2="68.500000" y2="251.500000" stroke="black" stroke-width="0.1" />
<line x1="69.250000" y1="251.500000" x2="69.500000" y2="251.500000" stroke="black" stroke-width="0.1" />
<line x1="69.000000" y1="251.250000" x2="69.000000" y2="251.000000" stroke="black" stroke-width="0.1" />
<line x1="69.000000" y1="251.750000" x2="69.000000" y2="252.000000" stroke="black" stroke-width="0.1" />
<line x1="66.000000" y1="251.500000" x2="67.000000" y2="251.500000" stroke="black" stroke-width="0.1" />
<line x1="71.000000" y1="251.500000" x2="72.000000" y2="251.500000" stroke="black" stroke-width="0.1" />
<line x1="69.000000" y1="248.500000" x2="69.000000" y2="249.500000" stroke="black" stroke-width="0.1" />
<line x1="69.000000" y1="253.500000" x2="69.000000" y2="254.500000" stroke="black" stroke-width="0.1" />
<text x="73.000000" y="25.000000" font-family="Arial" font-size="4" text-anchor="middle" dominant-baseline="middle" transform="rotate(90 73.000000 25.000000)" >Mid Sole Mount Line</text>
<text x="169.000000" y="235.000000" font-family="Arial" font-size="4" text-anchor="middle" dominant-baseline="middle" transform="rotate(90 169.000000 235.000000)" >Mid Sole Mount Line</text>
<text x="43.000000" y="235.000000" font-family="Arial" font-size="4" text-anchor="middle" dominant-baseline="middle" transform="rotate(90 43.000000 235.000000)" >Ski Center Line</text>
<text x="139.000000" y="25.000000" font-family="Arial" font-size="4" text-anchor="middle" dominant-baseline="middle" transform="rotate(90 139.000000 25.000000)" >Ski Center Line</text>
</svg>