<?xml version="1.0"?>
<!DOCTYPE svg PUBLIC "-//W3C//DTD SVG 1.1//EN"
"http://www.w3.org/Graphics/SVG/1.1/DTD/svg11.dtd">
<svg xmlns="http://www.w3.org/2000/svg" version="1.2" width="192.000000mm" height="259.000000mm" viewBox="0 0 192.000000 259.000000" style="background-color:white" >
<line x1="48.000000" y1="0.000000" x2="48.000000" y2="259.000000" stroke="black" stroke-width="0.1" />
<line x1="144.000000" y1="0.000000" x2="144.000000" y2="259.000000" stroke="black" stroke-width="0.1" />
<line x1="104.000000" y1="255.000000" x2="184.000000" y2="255.000000" stroke="black" stroke-width="0.1" />
<line x1="8.000000" y1="5.000000" x2="88.000000" y2="5.000000" stroke="black" stroke-width="0.1" />
<line x1="96.000000" y1="0.000000" x2="96.000000" y2="259.000000" stroke="black" stroke-width="0.1" stroke-dasharray="2 2" />
<line x1="0.000000" y1="259.000000" x2="96.000000" y2="259.000000" stroke="black" stroke-width="0.1" stroke-dasharray="2 2" />
<line x1="96.000000" y1="0.000000" x2="192.000000" y2="0.000000" stroke="black" stroke-width="0.1" stroke-dasharray="2 2" />
<line x1="48.000000" y1="7.000000" x2="41.000000" y2="0.000000" stroke="black" stroke-width="0.1" stroke-dasharray="2 2" />
<line x1="48.000000" y1="7.000000" x2="55.000000" y2="0.000000" stroke="black" stroke-width="0.1" stroke-dasharray="2 2" />
<line x1="144.000000" y1="253.000000" x2="138.000000" y2="259.000000" stroke="black" stroke-width="0.1" stroke-dasharray="2 2" />
<line x1="144.000000" y1="253.000000" x2="150.000000" y2="259.000000" stroke="black" stroke-width="0.1" stroke-dasharray="2 2" />
<text x="83.000000" y="130.000000" font-family="Arial" font-size="8" text-anchor="middle" dominant-baseline="middle" transform="rotate(90 83.000000 130.000000)" >Look SPX 327, Heel</text>
<text x="179.000000" y="130.000000" font-family="Arial" font-size="8" text-anchor="middle" dominant-baseline="middle" transform="rotate(90 179.000000 130.000000)" >Look SPX 327, Toe</text>
<line x1="104.000000" y1="108.000000" x2="104.000000" y2="255.000000" stroke="black" stroke-width="0.1" />
<line x1="101.500000" y1="108.000000" x2="106.500000" y2="108.000000" stroke="black" stroke-width="0.1" />
<line x1="104.000000" y1="108.000000" x2="101.500000" y2="110.500000" stroke="black" stroke-width="0.1" />
<line x1="104.000000" y1="108.000000" x2="106.500000" y2="110.500000" stroke="black" stroke-width="0.1" />
<line x1="101.500000" y1="255.000000" x2="106.500000" y2="255.000000" stroke="black" stroke-width="0.1" />
<line x1="104.000000" y1="255.000000" x2="101.500000" y2="252.500000" stroke="black" stroke-width="0.1" />
<line x1="104.000000" y1="255.000000" x2="106.500000" y2="252.500000" stroke="black" stroke-width="0.1" />
<text x="106.500000" y="181.500000" font-family="Arial" font-size="4" text-anchor="middle" dominant-baseline="middle" transform="rotate(90 106.500000 181.500000)" >147.0 mm</text>
<line x1="114.000000" y1="66.500000" x2="114.000000" y2="108.000000" stroke="black" stroke-width="0.1" />
<line x1="111.500000" y1="66.500000" x2="116.500000" y2="66.500000" stroke="black" stroke-width="0.1" />
<line x1="114.000000" y1="66.500000" x2="111.500000" y2="69.000000" stroke="black" stroke-width="0.1" />
<line x1="114.000000" y1="66.500000" x2="116.500000" y2="69.000000" stroke="black" stroke-width="0.1" />
<line x1="111.500000" y1="108.000000" x2="116.500000" y2="108.000000" stroke="black" stroke-width="0.1" />
<line x1="114.000000" y1="108.000000" x2="111.500000" y2="105.500000" stroke="black" stroke-width="0.1" />
<line x1="114.000000" y1="108.000000" x2="116.500000" y2="105.500000" stroke="black" stroke-width="0.1" />
<text x="116.500000" y="87.250000" font-family="Arial" font-size="4" text-anchor="middle" dominant-baseline="middle" transform="rotate(90 116.500000 87.250000)" >41.5 mm</text>
<line x1="8.000000" y1="5.000000" x2="8.000000" y2="142.500000" stroke="black" stroke-width="0.1" />
<line x1="5.500000" y1="5.000000" x2="10.500000" y2="5.000000" stroke="black" stroke-width="0.1" />
<line x1="8.000000" y1="5.000000" x2="5.500000" y2="7.500000" stroke="black" stroke-width="0.1" />
<line x1="8.000000" y1="5.000000" x2="10.500000" y2="7.500000" stroke="black" stroke-width="0.1" />
<line x1="5.500000" y1="142.500000" x2="10.500000" y2="142.500000" stroke="black" stroke-width="0.1" />
<line x1="8.000000" y1="142.500000" x2="5.500000" y2="140.000000" stroke="black" stroke-width="0.1" />
<line x1="8.000000" y1="142.500000" x2="10.500000" y2="140.000000" stroke="black" stroke-width="0.1" />
<text x="10.500000" y="73.750000" font-family="Arial" font-size="4" text-anchor="middle" dominant-baseline="middle" transform="rotate(90 10.500000 73.750000)" >137.5 mm</text>
<line x1="18.000000" y1="142.500000" x2="18.000000" y2="247.500000" stroke="black" stroke-width="0.1" />
<line x1="15.500000" y1="142.500000" x2="20.500000" y2="142.500000" stroke="black" stroke-width="0.1" />
<line x1="18.000000" y1="142.500000" x2="15.500000" y2="145.000000" stroke="black" stroke-width="0.1" />
<line x1="18.000000" y1="142.500000" x2="20.500000" y2="145.000000" stroke="black" stroke-width="0.1" />
<line x1="15.500000" y1="247.500000" x2="20.500000" y2="247.500000" stroke="black" stroke-width="0.1" />
<line x1="18.000000" y1="247.500000" x2="15.500000" y2="245.000000" stroke="black" stroke-width="0.1" />
<line x1="18.000000" y1="247.500000" x2="20.500000" y2="245.000000" stroke="black" stroke-width="0.1" />
<text x="20.500000" y="195.000000" font-family="Arial" font-size="4" text-anchor="middle" dominant-baseline="middle" transform="rotate(90 20.500000 195.000000)" >105.0 mm</text>
<line x1="126.500000" y1="98.000000" x2="161.500000" y2="98.000000" stroke="black" stroke-width="0.1" />
<line x1="126.500000" y1="95.500000" x2="126.500000" y2="100.500000" stroke="black" stroke-width="0.1" />
<line x1="126.500000" y1="98.000000" x2="129.000000" y2="100.500000" stroke="black" stroke-width="0.1" />
<line x1="126.500000" y1="98.000000" x2="129.000000" y2="95.500000" stroke="black" stroke-width="0.1" />
<line x1="161.500000" y1="95.500000" x2="161.500000" y2="100.500000" stroke="black" stroke-width="0.1" />
<line x1="161.500000" y1="98.000000" x2="159.000000" y2="100.500000" stroke="black" stroke-width="0.1" />
<line x1="161.500000" y1="98.000000" x2="159.000000" y2="95.500000" stroke="black" stroke-width="0.1" />
<text x="149.000000" y="88.000000" font-family="Arial" font-size="4" text-anchor="middle" dominant-baseline="middle" transform="rotate(90 149.000000 88.000000)" >35.0 mm</text>
<line x1="123.000000" y1="56.500000" x2="165.000000" y2="56.500000" stroke="black" stroke-width="0.1" />
<line x1="123.000000" y1="54.000000" x2="123.000000" y2="59.000000" stroke="black" stroke-width="0.1" />
<line x1="123.000000" y1="56.500000" x2="125.500000" y2="59.000000" stroke="black" stroke-width="0.1" />
<line x1="123.000000" y1="56.500000" x2="125.500000" y2="54.000000" stroke="black" stroke-width="0.1" />
<line x1="165.000000" y1="54.000000" x2="165.000000" y2="59.000000" stroke="black" stroke-width="0.1" />
<line x1="165.000000" y1="56.500000" x2="162.500000" y2="59.000000" stroke="black" stroke-width="0.1" />
<line x1="165.000000" y1="56.500000" x2="162.500000" y2="54.000000" stroke="black" stroke-width="0.1" />
<text x="149.000000" y="46.500000" font-family="Arial" font-size="4" text-anchor="middle" dominant-baseline="middle" transform="rotate(90 149.000000 46.500000)" >42.0 mm</text>
<line x1="27.000000" y1="152.500000" x2="69.000000" y2="152.500000" stroke="black" stroke-width="0.1" />
<line x1="27.000000" y1="150.000000" x2="27.000000" y2="155.000000" stroke="black" stroke-width="0.1" />
<line x1="27.000000" y1="152.500000" x2="29.500000" y2="155.000000" stroke="black" stroke-width="0.1" />
<line x1="27.000000" y1="152.500000" x2="29.500000" y2="150.000000" stroke="black" stroke-width="0.1" />
<line x1="69.000000" y1="150.000000" x2="69.000000" y2="155.000000" stroke="black" stroke-width="0.1" />
<line x1="69.000000" y1="152.500000" x2="66.500000" y2="155.000000" stroke="black" stroke-width="0.1" />
<line x1="69.000000" y1="152.500000" x2="66.500000" y2="150.000000" stroke="black" stroke-width="0.1" />
<text x="53.000000" y="162.500000" font-family="Arial" font-size="4" text-anchor="middle" dominant-baseline="middle" transform="rotate(90 53.000000 162.500000)" >42.0 mm</text>
<line x1="27.000000" y1="257.500000" x2="69.000000" y2="257.500000" stroke="black" stroke-width="0.1" />
<line x1="27.000000" y1="255.000000" x2="27.000000" y2="260.000000" stroke="black" stroke-width="0.1" />
<line x1="27.000000" y1="257.500000" x2="29.500000" y2="260.000000" stroke="black" stroke-width="0.1" />
<line x1="27.000000" y1="257.500000" x2="29.500000" y2="255.000000" stroke="black" stroke-width="0.1" />
<line x1="69.000000" y1="255.000000" x2="69.000000" y2="260.000000" stroke="black" stroke-width="0.1" />
<line x1="69.000000" y1="257.500000" x2="66.500000" y2="260.000000" stroke="black" stroke-width="0.1" />
<line x1="69.000000" y1="257.500000" x2="66.500000" y2="255.000000" stroke="black" stroke-width="0.1" />
<text x="53.000000" y="267.500000" font-family="Arial" font-size="4" text-anchor="middle" dominant-baseline="middle" transform="rotate(90 53.000000 267.500000)" >42.0 mm</text>
<circle cx="126.500000" cy="108.000000" r="2.500000" fill="none" stroke="black" stroke-width="0.1" />
<circle cx="126.500000" cy="108.000000" r="0.250000" fill="none" stroke="black" stroke-width="0.1" />
<line x1="126.250000" y1="108.000000" x2="126.000000" y2="108.000000" stroke="black" stroke-width="0.1" />
<line x1="126.750000" y1="108.000000" x2="127.000000" y2="108.000000" stroke="black" stroke-width="0.1" />
<line x1="126.500000" y1="107.750000" x2="126.500000" y2="107.500000" stroke="black" stroke-width="0.1" />
<line x1="126.500000" y1="108.250000" x2="126.500000" y2="108.500000" stroke="black" stroke-width="0.1" />
<line x1="123.500000" y1="108.000000" x2="124.500000" y2="108.000000" stroke="black" stroke-width="0.1" />
<line x1="128.500000" y1="108.000000" x2="129.500000" y2="108.000000" stroke="black" stroke-width="0.1" />
<line x1="126.500000" y1="105.000000" x2="126.500000" y2="106.000000" stroke="black" stroke-width="0.1" />
<line x1="126.500000" y1="110.000000" x2="126.500000" y2="111.000000" stroke="black" stroke-width="0.1" />
<circle cx="161.500000" cy="108.000000" r="2.500000" fill="none" stroke="black" stroke-width="0.1" />
<circle cx="161.500000" cy="108.000000" r="0.250000" fill="none" stroke="black" stroke-width="0.1" />
<line x1="161.250000" y1="108.000000" x2="161.000000" y2="108.000000" stroke="black" stroke-width="0.1" />
<line x1="161.750000" y1="108.000000" x2="162.000000" y2="108.000000" stroke="black" stroke-width="0.1" />
<line x1="161.500000" y1="107.750000" x2="161.500000" y2="107.500000" stroke="black" stroke-width="0.1" />
<line x1="161.500000" y1="108.250000" x2="161.500000" y2="108.500000" stroke="black" stroke-width="0.1" />
<line x1="158.500000" y1="108.000000" x2="159.500000" y2="108.000000" stroke="black" stroke-width="0.1" />
<line x1="163.500000" y1="108.000000" x2="164.500000" y2="108.000000" stroke="black" stroke-width="0.1" />
<line x1="161.500000" y1="105.000000" x2="161.500000" y2="106.000000" stroke="black" stroke-width="0.1" />
<line x1="161.500000" y1="110.000000" x2="161.500000" y2="111.000000" stroke="black" stroke-width="0.1" />
<circle cx="123.000000" cy="66.500000" r="2.500000" fill="none" stroke="black" stroke-width="0.1" />
<circle cx="123.000000" cy="66.500000" r="0.250000" fill="none" stroke="black" stroke-width="0.1" />
<line x1="122.750000" y1="66.500000" x2="122.500000" y2="66.500000" stroke="black" stroke-width="0.1" />
<line x1="123.250000" y1="66.500000" x2="123.500000" y2="66.500000" stroke="black" stroke-width="0.1" />
<line x1="123.000000" y1="66.250000" x2="123.000000" y2="66.000000" stroke="black" stroke-width="0.1" />
<line x1="123.000000" y1="66.750000" x2="123.000000" y2="67.000000" stroke="black" stroke-width="0.1" />
<line x1="120.000000" y1="66.500000" x2="121.000000" y2="66.500000" stroke="black" stroke-width="0.1" />
<line x1="125.000000" y1="66.500000" x2="126.000000" y2="66.500000" stroke="black" stroke-width="0.1" />
<line x1="123.000000" y1="63.500000" x2="123.000000" y2="64.500000" stroke="black" stroke-width="0.1" />
<line x1="123.000000" y1="68.500000" x2="123.000000" y2="69.500000" stroke="black" stroke-width="0.1" />
<circle cx="165.000000" cy="66.500000" r="2.500000" fill="none" stroke="black" stroke-width="0.1" />
<circle cx="165.000000" cy="66.500000" r="0.250000" fill="none" stroke="black" stroke-width="0.1" />
<line x1="164.750000" y1="66.500000" x2="164.500000" y2="66.500000" stroke="black" stroke-width="0.1" />
<line x1="165.250000" y1="66.500000" x2="165.500000" y2="66.500000" stroke="black" stroke-width="0.1" />
<line x1="165.000000" y1="66.250000" x2="165.000000" y2="66.000000" stroke="black" stroke-width="0.1" />
<line x1="165.000000" y1="66.750000" x2="165.000000" y2="67.000000" stroke="black" stroke-width="0.1" />
<line x1="162.000000" y1="66.500000" x2="163.000000" y2="66.500000" stroke="black" stroke-width="0.1" />
<line x1="167.000000" y1="66.500000" x2="168.000000" y2="66.500000" stroke="black" stroke-width="0.1" />
<line x1="165.000000" y1="63.500000" x2="165.000000" y2="64.500000" stroke="black" stroke-width="0.1" />
<line x1="165.000000" y1="68.500000" x2="165.000000" y2="69.500000" stroke="black" stroke-width="0.1" />
<circle cx="27.000000" cy="142.500000" r="2.500000" fill="none" stroke="black" stroke-width="0.1" />
<circle cx="27.000000" cy="142.500000" r="0.250000" fill="none" stroke="black" stroke-width="0.1" />
<line x1="26.750000" y1="142.500000" x2="26.500000" y2="142.500000" stroke="black" stroke-width="0.1" />
<line x1="27.250000" y1="142.500000" x2="27.500000" y2="142.500000" stroke="black" stroke-width="0.1" />
<line x1="27.000000" y1="142.250000" x2="27.000000" y2="142.000000" stroke="black" stroke-width="0.1" />
<line x1="27.000000" y1="142.750000" x2="27.000000" y2="143.000000" stroke="black" stroke-width="0.1" />
<line x1="24.000000" y1="142.500000" x2="25.000000" y2="142.500000" stroke="black" stroke-width="0.1" />
<line x1="29.000000" y1="142.500000" x2="30.000000" y2="142.500000" stroke="black" stroke-width="0.1" />
<line x1="27.000000" y1="139.500000" x2="27.000000" y2="140.500000" stroke="black" stroke-width="0.1" />
<line x1="27.000000" y1="144.500000" x2="27.000000" y2="145.500000" stroke="black" stroke-width="0.1" />
<circle cx="69.000000" cy="142.500000" r="2.500000" fill="none" stroke="black" stroke-width="0.1" />
<circle cx="69.000000" cy="142.500000" r="0.250000" fill="none" stroke="black" stroke-width="0.1" />
<line x1="68.750000" y1="142.500000" x2="68.500000" y2="142.500000" stroke="black" stroke-width="0.1" />
<line x1="69.250000" y1="142.500000" x2="69.500000" y2="142.500000" stroke="black" stroke-width="0.1" />
<line x1="69.000000" y1="142.250000" x2="69.000000" y2="142.000000" stroke="black" stroke-width="0.1" />
<line x1="69.000000" y1="142.750000" x2="69.000000" y2="143.000000" stroke="black" stroke-width="0.1" />
<line x1="66.000000" y1="142.500000" x2="67.000000" y2="142.500000" stroke="black" stroke-width="0.1" />
<line x1="71.000000" y1="142.500000" x2="72.000000" y2="142.500000" stroke="black" stroke-width="0.1" />
<line x1="69.000000" y1="139.500000" x2="69.000000" y2="140.500000" stroke="black" stroke-width="0.1" />
<line x1="69.000000" y1="144.500000" x2="69.000000" y2="145.500000" stroke="black" stroke-width="0.1" />
<circle cx="27.000000" cy="247.500000" r="2.500000" fill="none" stroke="black" stroke-width="0.1" />
<circle cx="27.000000" cy="247.500000" r="0.250000" fill="none" stroke="black" stroke-width="0.1" />
<line x1="26.750000" y1="247.500000" x2="26.500000" y2="247.500000" stroke="black" stroke-width="0.1" />
<line x1="27.250000" y1="247.500000" x2="27.500000" y2="247.500000" stroke="black" stroke-width="0.1" />
<line x1="27.000000" y1="247.250000" x2="27.000000" y2="247.000000" stroke="black" stroke-width="0.1" />
<line x1="27.000000" y1="247.750000" x2="27.000000" y2="248.000000" stroke="black" stroke-width="0.1" />
<line x1="24.000000" y1="247.500000" x2="25.000000" y2="247.500000" stroke="black" stroke-width="0.1" />
<line x1="29.000000" y1="247.500000" x2="30.000000" y2="247.500000" stroke="black" stroke-width="0.1" />
<line x1="27.000000" y1="244.500000" x2="27.000000" y2="245.500000" stroke="black" stroke-width="0.1" />
<line x1="27.000000" y1="249.500000" x2="27.000000" y2="250.500000" stroke="black" stroke-width="0.1" />
<circle cx="69.000000" cy="247.500000" r="2.500000" fill="none" stroke="black" stroke-width="0.1" />
<circle cx="69.000000" cy="247.500000" r="0.250000" fill="none" stroke="black" stroke-width="0.1" />
<line x1="68.750000" y1="247.500000" x2="68.500000" y2="247.500000" stroke="black" stroke-width="0.1" />
<line x1="69.250000" y1="247.500000" x2="69.500000" y2="247.500000" stroke="black" stroke-width="0.1" />
<line x1="69.000000" y1="247.250000" x2="69.000000" y2="247.000000" stroke="black" stroke-width="0.1" />
<line x1="69.000000" y1="247.750000" x2="69.000000" y2="248.000000" stroke="black" stroke-width="0.1" />
<line x1="66.000000" y1="247.500000" x2="67.000000" y2="247.500000" stroke="black" stroke-width="0.1" />
<line x1="71.000000" y1="247.500000" x2="72.000000" y2="247.500000" stroke="black" stroke-width="0.1" />
<line x1="69.000000" y1="244.500000" x2="69.000000" y2="245.500000" stroke="black" stroke-width="0.1" />
<line x1="69.000000" y1="249.500000" x2="69.000000" y2="250.500000" stroke="black" stroke-width="0.1" />
<text x="73.000000" y="25.000000" font-family="Arial" font-size="4" text-anchor="middle" dominant-baseline="middle" transform="rotate(90 73.000000 25.000000)" >Mid Sole Mount Line</text>
<text x="169.000000" y="235.000000" font-family="Arial" font-size="4" text-anchor="middle" dominant-baseline="middle" transform="rotate(90 169.000000 235.000000)" >Mid Sole Mount Line</text>
<text x="43.000000" y="235.000000" font-family="Arial" font-size="4" text-anchor="middle" dominant-baseline="middle" transform="rotate(90 43.000000 235.000000)" >Ski Center Line</text>
<text x="139.000000" y="25.000000" font-family="Arial" font-size="4" text-anchor="middle" dominant-baseline="middle" transform="rotate(90 139.000000 25.000000)" >Ski Center Line</text>
</svg>