<?xml version="1.0"?>
<!DOCTYPE svg PUBLIC "-//W3C//DTD SVG 1.1//EN"
"http://www.w3.org/Graphics/SVG/1.1/DTD/svg11.dtd">
<svg xmlns="http://www.w3.org/2000/svg" version="1.2" width="190.0mm" height="259.0mm" viewBox="0 0 190.0 259.0" >
  <line x1="95.0" y1="0.0" x2="95.0" y2="259.0" stroke="black" stroke-width="0.1" stroke-dasharray="4 4" />
  <line x1="47.5" y1="0.0" x2="47.5" y2="259.0" stroke="black" stroke-width="0.1" />
  <line x1="142.5" y1="0.0" x2="142.5" y2="259.0" stroke="black" stroke-width="0.1" />
  <line x1="95.0" y1="255.0" x2="180.0" y2="255.0" stroke="black" stroke-width="0.1" />
  <line x1="10.0" y1="5.0" x2="95.0" y2="5.0" stroke="black" stroke-width="0.1" />
  <circle cx="160.0" cy="131.0" r="2.5" fill="none" stroke="black" stroke-width="0.1" />
  <line x1="159.5" y1="131.0" x2="160.5" y2="131.0" stroke="black" stroke-width="0.1" />
  <line x1="160.0" y1="130.5" x2="160.0" y2="131.5" stroke="black" stroke-width="0.1" />
  <line x1="157.0" y1="131.0" x2="158.0" y2="131.0" stroke="black" stroke-width="0.1" />
  <line x1="162.0" y1="131.0" x2="163.0" y2="131.0" stroke="black" stroke-width="0.1" />
  <line x1="160.0" y1="128.0" x2="160.0" y2="129.0" stroke="black" stroke-width="0.1" />
  <line x1="160.0" y1="133.0" x2="160.0" y2="134.0" stroke="black" stroke-width="0.1" />
  <circle cx="125.0" cy="131.0" r="2.5" fill="none" stroke="black" stroke-width="0.1" />
  <line x1="124.5" y1="131.0" x2="125.5" y2="131.0" stroke="black" stroke-width="0.1" />
  <line x1="125.0" y1="130.5" x2="125.0" y2="131.5" stroke="black" stroke-width="0.1" />
  <line x1="122.0" y1="131.0" x2="123.0" y2="131.0" stroke="black" stroke-width="0.1" />
  <line x1="127.0" y1="131.0" x2="128.0" y2="131.0" stroke="black" stroke-width="0.1" />
  <line x1="125.0" y1="128.0" x2="125.0" y2="129.0" stroke="black" stroke-width="0.1" />
  <line x1="125.0" y1="133.0" x2="125.0" y2="134.0" stroke="black" stroke-width="0.1" />
  <circle cx="163.5" cy="89.5" r="2.5" fill="none" stroke="black" stroke-width="0.1" />
  <line x1="163.0" y1="89.5" x2="164.0" y2="89.5" stroke="black" stroke-width="0.1" />
  <line x1="163.5" y1="89.0" x2="163.5" y2="90.0" stroke="black" stroke-width="0.1" />
  <line x1="160.5" y1="89.5" x2="161.5" y2="89.5" stroke="black" stroke-width="0.1" />
  <line x1="165.5" y1="89.5" x2="166.5" y2="89.5" stroke="black" stroke-width="0.1" />
  <line x1="163.5" y1="86.5" x2="163.5" y2="87.5" stroke="black" stroke-width="0.1" />
  <line x1="163.5" y1="91.5" x2="163.5" y2="92.5" stroke="black" stroke-width="0.1" />
  <circle cx="121.5" cy="89.5" r="2.5" fill="none" stroke="black" stroke-width="0.1" />
  <line x1="121.0" y1="89.5" x2="122.0" y2="89.5" stroke="black" stroke-width="0.1" />
  <line x1="121.5" y1="89.0" x2="121.5" y2="90.0" stroke="black" stroke-width="0.1" />
  <line x1="118.5" y1="89.5" x2="119.5" y2="89.5" stroke="black" stroke-width="0.1" />
  <line x1="123.5" y1="89.5" x2="124.5" y2="89.5" stroke="black" stroke-width="0.1" />
  <line x1="121.5" y1="86.5" x2="121.5" y2="87.5" stroke="black" stroke-width="0.1" />
  <line x1="121.5" y1="91.5" x2="121.5" y2="92.5" stroke="black" stroke-width="0.1" />
  <circle cx="58.0" cy="63.5" r="2.5" fill="none" stroke="black" stroke-width="0.1" />
  <line x1="57.5" y1="63.5" x2="58.5" y2="63.5" stroke="black" stroke-width="0.1" />
  <line x1="58.0" y1="63.0" x2="58.0" y2="64.0" stroke="black" stroke-width="0.1" />
  <line x1="55.0" y1="63.5" x2="56.0" y2="63.5" stroke="black" stroke-width="0.1" />
  <line x1="60.0" y1="63.5" x2="61.0" y2="63.5" stroke="black" stroke-width="0.1" />
  <line x1="58.0" y1="60.5" x2="58.0" y2="61.5" stroke="black" stroke-width="0.1" />
  <line x1="58.0" y1="65.5" x2="58.0" y2="66.5" stroke="black" stroke-width="0.1" />
  <circle cx="37.0" cy="63.5" r="2.5" fill="none" stroke="black" stroke-width="0.1" />
  <line x1="36.5" y1="63.5" x2="37.5" y2="63.5" stroke="black" stroke-width="0.1" />
  <line x1="37.0" y1="63.0" x2="37.0" y2="64.0" stroke="black" stroke-width="0.1" />
  <line x1="34.0" y1="63.5" x2="35.0" y2="63.5" stroke="black" stroke-width="0.1" />
  <line x1="39.0" y1="63.5" x2="40.0" y2="63.5" stroke="black" stroke-width="0.1" />
  <line x1="37.0" y1="60.5" x2="37.0" y2="61.5" stroke="black" stroke-width="0.1" />
  <line x1="37.0" y1="65.5" x2="37.0" y2="66.5" stroke="black" stroke-width="0.1" />
  <circle cx="62.0" cy="95.5" r="2.5" fill="none" stroke="black" stroke-width="0.1" />
  <line x1="61.5" y1="95.5" x2="62.5" y2="95.5" stroke="black" stroke-width="0.1" />
  <line x1="62.0" y1="95.0" x2="62.0" y2="96.0" stroke="black" stroke-width="0.1" />
  <line x1="59.0" y1="95.5" x2="60.0" y2="95.5" stroke="black" stroke-width="0.1" />
  <line x1="64.0" y1="95.5" x2="65.0" y2="95.5" stroke="black" stroke-width="0.1" />
  <line x1="62.0" y1="92.5" x2="62.0" y2="93.5" stroke="black" stroke-width="0.1" />
  <line x1="62.0" y1="97.5" x2="62.0" y2="98.5" stroke="black" stroke-width="0.1" />
  <circle cx="33.0" cy="95.5" r="2.5" fill="none" stroke="black" stroke-width="0.1" />
  <line x1="32.5" y1="95.5" x2="33.5" y2="95.5" stroke="black" stroke-width="0.1" />
  <line x1="33.0" y1="95.0" x2="33.0" y2="96.0" stroke="black" stroke-width="0.1" />
  <line x1="30.0" y1="95.5" x2="31.0" y2="95.5" stroke="black" stroke-width="0.1" />
  <line x1="35.0" y1="95.5" x2="36.0" y2="95.5" stroke="black" stroke-width="0.1" />
  <line x1="33.0" y1="92.5" x2="33.0" y2="93.5" stroke="black" stroke-width="0.1" />
  <line x1="33.0" y1="97.5" x2="33.0" y2="98.5" stroke="black" stroke-width="0.1" />
</svg>
