<?xml version="1.0"?>
<!DOCTYPE svg PUBLIC "-//W3C//DTD SVG 1.1//EN"
"http://www.w3.org/Graphics/SVG/1.1/DTD/svg11.dtd">
<svg xmlns="http://www.w3.org/2000/svg" version="1.2" width="190.0mm" height="259.0mm" viewBox="0 0 190.0 259.0" >
  <line x1="95.0" y1="0.0" x2="95.0" y2="259.0" stroke="black" stroke-width="0.1" stroke-dasharray="4 4" />
  <line x1="47.5" y1="0.0" x2="47.5" y2="259.0" stroke="black" stroke-width="0.1" />
  <line x1="142.5" y1="0.0" x2="142.5" y2="259.0" stroke="black" stroke-width="0.1" />
  <line x1="95.0" y1="255.0" x2="180.0" y2="255.0" stroke="black" stroke-width="0.1" />
  <line x1="10.0" y1="5.0" x2="95.0" y2="5.0" stroke="black" stroke-width="0.1" />
  <circle cx="160.0" cy="107.0" r="2.5" fill="none" stroke="black" stroke-width="0.1" />
  <line x1="159.5" y1="107.0" x2="160.5" y2="107.0" stroke="black" stroke-width="0.1" />
  <line x1="160.0" y1="106.5" x2="160.0" y2="107.5" stroke="black" stroke-width="0.1" />
  <line x1="157.0" y1="107.0" x2="158.0" y2="107.0" stroke="black" stroke-width="0.1" />
  <line x1="162.0" y1="107.0" x2="163.0" y2="107.0" stroke="black" stroke-width="0.1" />
  <line x1="160.0" y1="104.0" x2="160.0" y2="105.0" stroke="black" stroke-width="0.1" />
  <line x1="160.0" y1="109.0" x2="160.0" y2="110.0" stroke="black" stroke-width="0.1" />
  <circle cx="125.0" cy="107.0" r="2.5" fill="none" stroke="black" stroke-width="0.1" />
  <line x1="124.5" y1="107.0" x2="125.5" y2="107.0" stroke="black" stroke-width="0.1" />
  <line x1="125.0" y1="106.5" x2="125.0" y2="107.5" stroke="black" stroke-width="0.1" />
  <line x1="122.0" y1="107.0" x2="123.0" y2="107.0" stroke="black" stroke-width="0.1" />
  <line x1="127.0" y1="107.0" x2="128.0" y2="107.0" stroke="black" stroke-width="0.1" />
  <line x1="125.0" y1="104.0" x2="125.0" y2="105.0" stroke="black" stroke-width="0.1" />
  <line x1="125.0" y1="109.0" x2="125.0" y2="110.0" stroke="black" stroke-width="0.1" />
  <circle cx="163.5" cy="65.5" r="2.5" fill="none" stroke="black" stroke-width="0.1" />
  <line x1="163.0" y1="65.5" x2="164.0" y2="65.5" stroke="black" stroke-width="0.1" />
  <line x1="163.5" y1="65.0" x2="163.5" y2="66.0" stroke="black" stroke-width="0.1" />
  <line x1="160.5" y1="65.5" x2="161.5" y2="65.5" stroke="black" stroke-width="0.1" />
  <line x1="165.5" y1="65.5" x2="166.5" y2="65.5" stroke="black" stroke-width="0.1" />
  <line x1="163.5" y1="62.5" x2="163.5" y2="63.5" stroke="black" stroke-width="0.1" />
  <line x1="163.5" y1="67.5" x2="163.5" y2="68.5" stroke="black" stroke-width="0.1" />
  <circle cx="121.5" cy="65.5" r="2.5" fill="none" stroke="black" stroke-width="0.1" />
  <line x1="121.0" y1="65.5" x2="122.0" y2="65.5" stroke="black" stroke-width="0.1" />
  <line x1="121.5" y1="65.0" x2="121.5" y2="66.0" stroke="black" stroke-width="0.1" />
  <line x1="118.5" y1="65.5" x2="119.5" y2="65.5" stroke="black" stroke-width="0.1" />
  <line x1="123.5" y1="65.5" x2="124.5" y2="65.5" stroke="black" stroke-width="0.1" />
  <line x1="121.5" y1="62.5" x2="121.5" y2="63.5" stroke="black" stroke-width="0.1" />
  <line x1="121.5" y1="67.5" x2="121.5" y2="68.5" stroke="black" stroke-width="0.1" />
  <circle cx="58.0" cy="87.5" r="2.5" fill="none" stroke="black" stroke-width="0.1" />
  <line x1="57.5" y1="87.5" x2="58.5" y2="87.5" stroke="black" stroke-width="0.1" />
  <line x1="58.0" y1="87.0" x2="58.0" y2="88.0" stroke="black" stroke-width="0.1" />
  <line x1="55.0" y1="87.5" x2="56.0" y2="87.5" stroke="black" stroke-width="0.1" />
  <line x1="60.0" y1="87.5" x2="61.0" y2="87.5" stroke="black" stroke-width="0.1" />
  <line x1="58.0" y1="84.5" x2="58.0" y2="85.5" stroke="black" stroke-width="0.1" />
  <line x1="58.0" y1="89.5" x2="58.0" y2="90.5" stroke="black" stroke-width="0.1" />
  <circle cx="37.0" cy="87.5" r="2.5" fill="none" stroke="black" stroke-width="0.1" />
  <line x1="36.5" y1="87.5" x2="37.5" y2="87.5" stroke="black" stroke-width="0.1" />
  <line x1="37.0" y1="87.0" x2="37.0" y2="88.0" stroke="black" stroke-width="0.1" />
  <line x1="34.0" y1="87.5" x2="35.0" y2="87.5" stroke="black" stroke-width="0.1" />
  <line x1="39.0" y1="87.5" x2="40.0" y2="87.5" stroke="black" stroke-width="0.1" />
  <line x1="37.0" y1="84.5" x2="37.0" y2="85.5" stroke="black" stroke-width="0.1" />
  <line x1="37.0" y1="89.5" x2="37.0" y2="90.5" stroke="black" stroke-width="0.1" />
  <circle cx="62.0" cy="119.5" r="2.5" fill="none" stroke="black" stroke-width="0.1" />
  <line x1="61.5" y1="119.5" x2="62.5" y2="119.5" stroke="black" stroke-width="0.1" />
  <line x1="62.0" y1="119.0" x2="62.0" y2="120.0" stroke="black" stroke-width="0.1" />
  <line x1="59.0" y1="119.5" x2="60.0" y2="119.5" stroke="black" stroke-width="0.1" />
  <line x1="64.0" y1="119.5" x2="65.0" y2="119.5" stroke="black" stroke-width="0.1" />
  <line x1="62.0" y1="116.5" x2="62.0" y2="117.5" stroke="black" stroke-width="0.1" />
  <line x1="62.0" y1="121.5" x2="62.0" y2="122.5" stroke="black" stroke-width="0.1" />
  <circle cx="33.0" cy="119.5" r="2.5" fill="none" stroke="black" stroke-width="0.1" />
  <line x1="32.5" y1="119.5" x2="33.5" y2="119.5" stroke="black" stroke-width="0.1" />
  <line x1="33.0" y1="119.0" x2="33.0" y2="120.0" stroke="black" stroke-width="0.1" />
  <line x1="30.0" y1="119.5" x2="31.0" y2="119.5" stroke="black" stroke-width="0.1" />
  <line x1="35.0" y1="119.5" x2="36.0" y2="119.5" stroke="black" stroke-width="0.1" />
  <line x1="33.0" y1="116.5" x2="33.0" y2="117.5" stroke="black" stroke-width="0.1" />
  <line x1="33.0" y1="121.5" x2="33.0" y2="122.5" stroke="black" stroke-width="0.1" />
</svg>
