<?xml version="1.0"?>
<!DOCTYPE svg PUBLIC "-//W3C//DTD SVG 1.1//EN"
"http://www.w3.org/Graphics/SVG/1.1/DTD/svg11.dtd">
<svg xmlns="http://www.w3.org/2000/svg" version="1.2" width="192.000000mm" height="259.000000mm" viewBox="0 0 192.000000 259.000000" style="background-color:white" >
<line x1="48.000000" y1="0.000000" x2="48.000000" y2="259.000000" stroke="black" stroke-width="0.1" />
<line x1="144.000000" y1="0.000000" x2="144.000000" y2="259.000000" stroke="black" stroke-width="0.1" />
<line x1="104.000000" y1="255.000000" x2="184.000000" y2="255.000000" stroke="black" stroke-width="0.1" />
<line x1="8.000000" y1="5.000000" x2="88.000000" y2="5.000000" stroke="black" stroke-width="0.1" />
<line x1="96.000000" y1="0.000000" x2="96.000000" y2="259.000000" stroke="black" stroke-width="0.1" stroke-dasharray="2 2" />
<line x1="0.000000" y1="259.000000" x2="96.000000" y2="259.000000" stroke="black" stroke-width="0.1" stroke-dasharray="2 2" />
<line x1="96.000000" y1="0.000000" x2="192.000000" y2="0.000000" stroke="black" stroke-width="0.1" stroke-dasharray="2 2" />
<line x1="48.000000" y1="7.000000" x2="41.000000" y2="0.000000" stroke="black" stroke-width="0.1" stroke-dasharray="2 2" />
<line x1="48.000000" y1="7.000000" x2="55.000000" y2="0.000000" stroke="black" stroke-width="0.1" stroke-dasharray="2 2" />
<line x1="144.000000" y1="253.000000" x2="138.000000" y2="259.000000" stroke="black" stroke-width="0.1" stroke-dasharray="2 2" />
<line x1="144.000000" y1="253.000000" x2="150.000000" y2="259.000000" stroke="black" stroke-width="0.1" stroke-dasharray="2 2" />
<text x="83.000000" y="130.000000" font-family="Arial" font-size="8" text-anchor="middle" dominant-baseline="middle" transform="rotate(90 83.000000 130.000000)" >Marker XCell 290, Heel</text>
<text x="179.000000" y="130.000000" font-family="Arial" font-size="8" text-anchor="middle" dominant-baseline="middle" transform="rotate(90 179.000000 130.000000)" >Marker XCell 290, Toe</text>
<line x1="104.000000" y1="122.000000" x2="104.000000" y2="255.000000" stroke="black" stroke-width="0.1" />
<line x1="101.500000" y1="122.000000" x2="106.500000" y2="122.000000" stroke="black" stroke-width="0.1" />
<line x1="104.000000" y1="122.000000" x2="101.500000" y2="124.500000" stroke="black" stroke-width="0.1" />
<line x1="104.000000" y1="122.000000" x2="106.500000" y2="124.500000" stroke="black" stroke-width="0.1" />
<line x1="101.500000" y1="255.000000" x2="106.500000" y2="255.000000" stroke="black" stroke-width="0.1" />
<line x1="104.000000" y1="255.000000" x2="101.500000" y2="252.500000" stroke="black" stroke-width="0.1" />
<line x1="104.000000" y1="255.000000" x2="106.500000" y2="252.500000" stroke="black" stroke-width="0.1" />
<text x="106.500000" y="188.500000" font-family="Arial" font-size="4" text-anchor="middle" dominant-baseline="middle" transform="rotate(90 106.500000 188.500000)" >133.0 mm</text>
<line x1="114.000000" y1="91.000000" x2="114.000000" y2="122.000000" stroke="black" stroke-width="0.1" />
<line x1="111.500000" y1="91.000000" x2="116.500000" y2="91.000000" stroke="black" stroke-width="0.1" />
<line x1="114.000000" y1="91.000000" x2="111.500000" y2="93.500000" stroke="black" stroke-width="0.1" />
<line x1="114.000000" y1="91.000000" x2="116.500000" y2="93.500000" stroke="black" stroke-width="0.1" />
<line x1="111.500000" y1="122.000000" x2="116.500000" y2="122.000000" stroke="black" stroke-width="0.1" />
<line x1="114.000000" y1="122.000000" x2="111.500000" y2="119.500000" stroke="black" stroke-width="0.1" />
<line x1="114.000000" y1="122.000000" x2="116.500000" y2="119.500000" stroke="black" stroke-width="0.1" />
<text x="116.500000" y="106.500000" font-family="Arial" font-size="4" text-anchor="middle" dominant-baseline="middle" transform="rotate(90 116.500000 106.500000)" >31.0 mm</text>
<line x1="8.000000" y1="5.000000" x2="8.000000" y2="138.000000" stroke="black" stroke-width="0.1" />
<line x1="5.500000" y1="5.000000" x2="10.500000" y2="5.000000" stroke="black" stroke-width="0.1" />
<line x1="8.000000" y1="5.000000" x2="5.500000" y2="7.500000" stroke="black" stroke-width="0.1" />
<line x1="8.000000" y1="5.000000" x2="10.500000" y2="7.500000" stroke="black" stroke-width="0.1" />
<line x1="5.500000" y1="138.000000" x2="10.500000" y2="138.000000" stroke="black" stroke-width="0.1" />
<line x1="8.000000" y1="138.000000" x2="5.500000" y2="135.500000" stroke="black" stroke-width="0.1" />
<line x1="8.000000" y1="138.000000" x2="10.500000" y2="135.500000" stroke="black" stroke-width="0.1" />
<text x="10.500000" y="71.500000" font-family="Arial" font-size="4" text-anchor="middle" dominant-baseline="middle" transform="rotate(90 10.500000 71.500000)" >133.0 mm</text>
<line x1="18.000000" y1="138.000000" x2="18.000000" y2="218.000000" stroke="black" stroke-width="0.1" />
<line x1="15.500000" y1="138.000000" x2="20.500000" y2="138.000000" stroke="black" stroke-width="0.1" />
<line x1="18.000000" y1="138.000000" x2="15.500000" y2="140.500000" stroke="black" stroke-width="0.1" />
<line x1="18.000000" y1="138.000000" x2="20.500000" y2="140.500000" stroke="black" stroke-width="0.1" />
<line x1="15.500000" y1="218.000000" x2="20.500000" y2="218.000000" stroke="black" stroke-width="0.1" />
<line x1="18.000000" y1="218.000000" x2="15.500000" y2="215.500000" stroke="black" stroke-width="0.1" />
<line x1="18.000000" y1="218.000000" x2="20.500000" y2="215.500000" stroke="black" stroke-width="0.1" />
<text x="20.500000" y="178.000000" font-family="Arial" font-size="4" text-anchor="middle" dominant-baseline="middle" transform="rotate(90 20.500000 178.000000)" >80.0 mm</text>
<line x1="126.000000" y1="81.000000" x2="162.000000" y2="81.000000" stroke="black" stroke-width="0.1" />
<line x1="126.000000" y1="78.500000" x2="126.000000" y2="83.500000" stroke="black" stroke-width="0.1" />
<line x1="126.000000" y1="81.000000" x2="128.500000" y2="83.500000" stroke="black" stroke-width="0.1" />
<line x1="126.000000" y1="81.000000" x2="128.500000" y2="78.500000" stroke="black" stroke-width="0.1" />
<line x1="162.000000" y1="78.500000" x2="162.000000" y2="83.500000" stroke="black" stroke-width="0.1" />
<line x1="162.000000" y1="81.000000" x2="159.500000" y2="83.500000" stroke="black" stroke-width="0.1" />
<line x1="162.000000" y1="81.000000" x2="159.500000" y2="78.500000" stroke="black" stroke-width="0.1" />
<text x="149.000000" y="71.000000" font-family="Arial" font-size="4" text-anchor="middle" dominant-baseline="middle" transform="rotate(90 149.000000 71.000000)" >36.0 mm</text>
<line x1="126.000000" y1="112.000000" x2="162.000000" y2="112.000000" stroke="black" stroke-width="0.1" />
<line x1="126.000000" y1="109.500000" x2="126.000000" y2="114.500000" stroke="black" stroke-width="0.1" />
<line x1="126.000000" y1="112.000000" x2="128.500000" y2="114.500000" stroke="black" stroke-width="0.1" />
<line x1="126.000000" y1="112.000000" x2="128.500000" y2="109.500000" stroke="black" stroke-width="0.1" />
<line x1="162.000000" y1="109.500000" x2="162.000000" y2="114.500000" stroke="black" stroke-width="0.1" />
<line x1="162.000000" y1="112.000000" x2="159.500000" y2="114.500000" stroke="black" stroke-width="0.1" />
<line x1="162.000000" y1="112.000000" x2="159.500000" y2="109.500000" stroke="black" stroke-width="0.1" />
<text x="149.000000" y="102.000000" font-family="Arial" font-size="4" text-anchor="middle" dominant-baseline="middle" transform="rotate(90 149.000000 102.000000)" >36.0 mm</text>
<line x1="38.000000" y1="148.000000" x2="58.000000" y2="148.000000" stroke="black" stroke-width="0.1" />
<line x1="38.000000" y1="145.500000" x2="38.000000" y2="150.500000" stroke="black" stroke-width="0.1" />
<line x1="38.000000" y1="148.000000" x2="40.500000" y2="150.500000" stroke="black" stroke-width="0.1" />
<line x1="38.000000" y1="148.000000" x2="40.500000" y2="145.500000" stroke="black" stroke-width="0.1" />
<line x1="58.000000" y1="145.500000" x2="58.000000" y2="150.500000" stroke="black" stroke-width="0.1" />
<line x1="58.000000" y1="148.000000" x2="55.500000" y2="150.500000" stroke="black" stroke-width="0.1" />
<line x1="58.000000" y1="148.000000" x2="55.500000" y2="145.500000" stroke="black" stroke-width="0.1" />
<text x="53.000000" y="158.000000" font-family="Arial" font-size="4" text-anchor="middle" dominant-baseline="middle" transform="rotate(90 53.000000 158.000000)" >20.0 mm</text>
<line x1="27.750000" y1="228.000000" x2="68.250000" y2="228.000000" stroke="black" stroke-width="0.1" />
<line x1="27.750000" y1="225.500000" x2="27.750000" y2="230.500000" stroke="black" stroke-width="0.1" />
<line x1="27.750000" y1="228.000000" x2="30.250000" y2="230.500000" stroke="black" stroke-width="0.1" />
<line x1="27.750000" y1="228.000000" x2="30.250000" y2="225.500000" stroke="black" stroke-width="0.1" />
<line x1="68.250000" y1="225.500000" x2="68.250000" y2="230.500000" stroke="black" stroke-width="0.1" />
<line x1="68.250000" y1="228.000000" x2="65.750000" y2="230.500000" stroke="black" stroke-width="0.1" />
<line x1="68.250000" y1="228.000000" x2="65.750000" y2="225.500000" stroke="black" stroke-width="0.1" />
<text x="53.000000" y="238.000000" font-family="Arial" font-size="4" text-anchor="middle" dominant-baseline="middle" transform="rotate(90 53.000000 238.000000)" >40.5 mm</text>
<circle cx="126.000000" cy="91.000000" r="2.500000" fill="none" stroke="black" stroke-width="0.1" />
<circle cx="126.000000" cy="91.000000" r="0.250000" fill="none" stroke="black" stroke-width="0.1" />
<line x1="125.750000" y1="91.000000" x2="125.500000" y2="91.000000" stroke="black" stroke-width="0.1" />
<line x1="126.250000" y1="91.000000" x2="126.500000" y2="91.000000" stroke="black" stroke-width="0.1" />
<line x1="126.000000" y1="90.750000" x2="126.000000" y2="90.500000" stroke="black" stroke-width="0.1" />
<line x1="126.000000" y1="91.250000" x2="126.000000" y2="91.500000" stroke="black" stroke-width="0.1" />
<line x1="123.000000" y1="91.000000" x2="124.000000" y2="91.000000" stroke="black" stroke-width="0.1" />
<line x1="128.000000" y1="91.000000" x2="129.000000" y2="91.000000" stroke="black" stroke-width="0.1" />
<line x1="126.000000" y1="88.000000" x2="126.000000" y2="89.000000" stroke="black" stroke-width="0.1" />
<line x1="126.000000" y1="93.000000" x2="126.000000" y2="94.000000" stroke="black" stroke-width="0.1" />
<circle cx="162.000000" cy="91.000000" r="2.500000" fill="none" stroke="black" stroke-width="0.1" />
<circle cx="162.000000" cy="91.000000" r="0.250000" fill="none" stroke="black" stroke-width="0.1" />
<line x1="161.750000" y1="91.000000" x2="161.500000" y2="91.000000" stroke="black" stroke-width="0.1" />
<line x1="162.250000" y1="91.000000" x2="162.500000" y2="91.000000" stroke="black" stroke-width="0.1" />
<line x1="162.000000" y1="90.750000" x2="162.000000" y2="90.500000" stroke="black" stroke-width="0.1" />
<line x1="162.000000" y1="91.250000" x2="162.000000" y2="91.500000" stroke="black" stroke-width="0.1" />
<line x1="159.000000" y1="91.000000" x2="160.000000" y2="91.000000" stroke="black" stroke-width="0.1" />
<line x1="164.000000" y1="91.000000" x2="165.000000" y2="91.000000" stroke="black" stroke-width="0.1" />
<line x1="162.000000" y1="88.000000" x2="162.000000" y2="89.000000" stroke="black" stroke-width="0.1" />
<line x1="162.000000" y1="93.000000" x2="162.000000" y2="94.000000" stroke="black" stroke-width="0.1" />
<circle cx="126.000000" cy="122.000000" r="2.500000" fill="none" stroke="black" stroke-width="0.1" />
<circle cx="126.000000" cy="122.000000" r="0.250000" fill="none" stroke="black" stroke-width="0.1" />
<line x1="125.750000" y1="122.000000" x2="125.500000" y2="122.000000" stroke="black" stroke-width="0.1" />
<line x1="126.250000" y1="122.000000" x2="126.500000" y2="122.000000" stroke="black" stroke-width="0.1" />
<line x1="126.000000" y1="121.750000" x2="126.000000" y2="121.500000" stroke="black" stroke-width="0.1" />
<line x1="126.000000" y1="122.250000" x2="126.000000" y2="122.500000" stroke="black" stroke-width="0.1" />
<line x1="123.000000" y1="122.000000" x2="124.000000" y2="122.000000" stroke="black" stroke-width="0.1" />
<line x1="128.000000" y1="122.000000" x2="129.000000" y2="122.000000" stroke="black" stroke-width="0.1" />
<line x1="126.000000" y1="119.000000" x2="126.000000" y2="120.000000" stroke="black" stroke-width="0.1" />
<line x1="126.000000" y1="124.000000" x2="126.000000" y2="125.000000" stroke="black" stroke-width="0.1" />
<circle cx="162.000000" cy="122.000000" r="2.500000" fill="none" stroke="black" stroke-width="0.1" />
<circle cx="162.000000" cy="122.000000" r="0.250000" fill="none" stroke="black" stroke-width="0.1" />
<line x1="161.750000" y1="122.000000" x2="161.500000" y2="122.000000" stroke="black" stroke-width="0.1" />
<line x1="162.250000" y1="122.000000" x2="162.500000" y2="122.000000" stroke="black" stroke-width="0.1" />
<line x1="162.000000" y1="121.750000" x2="162.000000" y2="121.500000" stroke="black" stroke-width="0.1" />
<line x1="162.000000" y1="122.250000" x2="162.000000" y2="122.500000" stroke="black" stroke-width="0.1" />
<line x1="159.000000" y1="122.000000" x2="160.000000" y2="122.000000" stroke="black" stroke-width="0.1" />
<line x1="164.000000" y1="122.000000" x2="165.000000" y2="122.000000" stroke="black" stroke-width="0.1" />
<line x1="162.000000" y1="119.000000" x2="162.000000" y2="120.000000" stroke="black" stroke-width="0.1" />
<line x1="162.000000" y1="124.000000" x2="162.000000" y2="125.000000" stroke="black" stroke-width="0.1" />
<circle cx="38.000000" cy="138.000000" r="2.500000" fill="none" stroke="black" stroke-width="0.1" />
<circle cx="38.000000" cy="138.000000" r="0.250000" fill="none" stroke="black" stroke-width="0.1" />
<line x1="37.750000" y1="138.000000" x2="37.500000" y2="138.000000" stroke="black" stroke-width="0.1" />
<line x1="38.250000" y1="138.000000" x2="38.500000" y2="138.000000" stroke="black" stroke-width="0.1" />
<line x1="38.000000" y1="137.750000" x2="38.000000" y2="137.500000" stroke="black" stroke-width="0.1" />
<line x1="38.000000" y1="138.250000" x2="38.000000" y2="138.500000" stroke="black" stroke-width="0.1" />
<line x1="35.000000" y1="138.000000" x2="36.000000" y2="138.000000" stroke="black" stroke-width="0.1" />
<line x1="40.000000" y1="138.000000" x2="41.000000" y2="138.000000" stroke="black" stroke-width="0.1" />
<line x1="38.000000" y1="135.000000" x2="38.000000" y2="136.000000" stroke="black" stroke-width="0.1" />
<line x1="38.000000" y1="140.000000" x2="38.000000" y2="141.000000" stroke="black" stroke-width="0.1" />
<circle cx="58.000000" cy="138.000000" r="2.500000" fill="none" stroke="black" stroke-width="0.1" />
<circle cx="58.000000" cy="138.000000" r="0.250000" fill="none" stroke="black" stroke-width="0.1" />
<line x1="57.750000" y1="138.000000" x2="57.500000" y2="138.000000" stroke="black" stroke-width="0.1" />
<line x1="58.250000" y1="138.000000" x2="58.500000" y2="138.000000" stroke="black" stroke-width="0.1" />
<line x1="58.000000" y1="137.750000" x2="58.000000" y2="137.500000" stroke="black" stroke-width="0.1" />
<line x1="58.000000" y1="138.250000" x2="58.000000" y2="138.500000" stroke="black" stroke-width="0.1" />
<line x1="55.000000" y1="138.000000" x2="56.000000" y2="138.000000" stroke="black" stroke-width="0.1" />
<line x1="60.000000" y1="138.000000" x2="61.000000" y2="138.000000" stroke="black" stroke-width="0.1" />
<line x1="58.000000" y1="135.000000" x2="58.000000" y2="136.000000" stroke="black" stroke-width="0.1" />
<line x1="58.000000" y1="140.000000" x2="58.000000" y2="141.000000" stroke="black" stroke-width="0.1" />
<circle cx="27.750000" cy="218.000000" r="2.500000" fill="none" stroke="black" stroke-width="0.1" />
<circle cx="27.750000" cy="218.000000" r="0.250000" fill="none" stroke="black" stroke-width="0.1" />
<line x1="27.500000" y1="218.000000" x2="27.250000" y2="218.000000" stroke="black" stroke-width="0.1" />
<line x1="28.000000" y1="218.000000" x2="28.250000" y2="218.000000" stroke="black" stroke-width="0.1" />
<line x1="27.750000" y1="217.750000" x2="27.750000" y2="217.500000" stroke="black" stroke-width="0.1" />
<line x1="27.750000" y1="218.250000" x2="27.750000" y2="218.500000" stroke="black" stroke-width="0.1" />
<line x1="24.750000" y1="218.000000" x2="25.750000" y2="218.000000" stroke="black" stroke-width="0.1" />
<line x1="29.750000" y1="218.000000" x2="30.750000" y2="218.000000" stroke="black" stroke-width="0.1" />
<line x1="27.750000" y1="215.000000" x2="27.750000" y2="216.000000" stroke="black" stroke-width="0.1" />
<line x1="27.750000" y1="220.000000" x2="27.750000" y2="221.000000" stroke="black" stroke-width="0.1" />
<circle cx="68.250000" cy="218.000000" r="2.500000" fill="none" stroke="black" stroke-width="0.1" />
<circle cx="68.250000" cy="218.000000" r="0.250000" fill="none" stroke="black" stroke-width="0.1" />
<line x1="68.000000" y1="218.000000" x2="67.750000" y2="218.000000" stroke="black" stroke-width="0.1" />
<line x1="68.500000" y1="218.000000" x2="68.750000" y2="218.000000" stroke="black" stroke-width="0.1" />
<line x1="68.250000" y1="217.750000" x2="68.250000" y2="217.500000" stroke="black" stroke-width="0.1" />
<line x1="68.250000" y1="218.250000" x2="68.250000" y2="218.500000" stroke="black" stroke-width="0.1" />
<line x1="65.250000" y1="218.000000" x2="66.250000" y2="218.000000" stroke="black" stroke-width="0.1" />
<line x1="70.250000" y1="218.000000" x2="71.250000" y2="218.000000" stroke="black" stroke-width="0.1" />
<line x1="68.250000" y1="215.000000" x2="68.250000" y2="216.000000" stroke="black" stroke-width="0.1" />
<line x1="68.250000" y1="220.000000" x2="68.250000" y2="221.000000" stroke="black" stroke-width="0.1" />
<text x="73.000000" y="25.000000" font-family="Arial" font-size="4" text-anchor="middle" dominant-baseline="middle" transform="rotate(90 73.000000 25.000000)" >Mid Sole Mount Line</text>
<text x="169.000000" y="235.000000" font-family="Arial" font-size="4" text-anchor="middle" dominant-baseline="middle" transform="rotate(90 169.000000 235.000000)" >Mid Sole Mount Line</text>
<text x="43.000000" y="235.000000" font-family="Arial" font-size="4" text-anchor="middle" dominant-baseline="middle" transform="rotate(90 43.000000 235.000000)" >Ski Center Line</text>
<text x="139.000000" y="25.000000" font-family="Arial" font-size="4" text-anchor="middle" dominant-baseline="middle" transform="rotate(90 139.000000 25.000000)" >Ski Center Line</text>
</svg>