<?xml version="1.0"?>
<!DOCTYPE svg PUBLIC "-//W3C//DTD SVG 1.1//EN"
"http://www.w3.org/Graphics/SVG/1.1/DTD/svg11.dtd">
<svg xmlns="http://www.w3.org/2000/svg" version="1.2" width="192.000000mm" height="259.000000mm" viewBox="0 0 192.000000 259.000000" style="background-color:white" >
<line x1="48.000000" y1="0.000000" x2="48.000000" y2="259.000000" stroke="black" stroke-width="0.1" />
<line x1="144.000000" y1="0.000000" x2="144.000000" y2="259.000000" stroke="black" stroke-width="0.1" />
<line x1="104.000000" y1="255.000000" x2="184.000000" y2="255.000000" stroke="black" stroke-width="0.1" />
<line x1="8.000000" y1="5.000000" x2="88.000000" y2="5.000000" stroke="black" stroke-width="0.1" />
<line x1="96.000000" y1="0.000000" x2="96.000000" y2="259.000000" stroke="black" stroke-width="0.1" stroke-dasharray="2 2" />
<line x1="0.000000" y1="259.000000" x2="96.000000" y2="259.000000" stroke="black" stroke-width="0.1" stroke-dasharray="2 2" />
<line x1="96.000000" y1="0.000000" x2="192.000000" y2="0.000000" stroke="black" stroke-width="0.1" stroke-dasharray="2 2" />
<line x1="48.000000" y1="7.000000" x2="41.000000" y2="0.000000" stroke="black" stroke-width="0.1" stroke-dasharray="2 2" />
<line x1="48.000000" y1="7.000000" x2="55.000000" y2="0.000000" stroke="black" stroke-width="0.1" stroke-dasharray="2 2" />
<line x1="144.000000" y1="253.000000" x2="138.000000" y2="259.000000" stroke="black" stroke-width="0.1" stroke-dasharray="2 2" />
<line x1="144.000000" y1="253.000000" x2="150.000000" y2="259.000000" stroke="black" stroke-width="0.1" stroke-dasharray="2 2" />
<text x="83.000000" y="130.000000" font-family="Arial" font-size="8" text-anchor="middle" dominant-baseline="middle" transform="rotate(90 83.000000 130.000000)" >Marker XCell 275, Heel</text>
<text x="179.000000" y="130.000000" font-family="Arial" font-size="8" text-anchor="middle" dominant-baseline="middle" transform="rotate(90 179.000000 130.000000)" >Marker XCell 275, Toe</text>
<line x1="104.000000" y1="129.500000" x2="104.000000" y2="255.000000" stroke="black" stroke-width="0.1" />
<line x1="101.500000" y1="129.500000" x2="106.500000" y2="129.500000" stroke="black" stroke-width="0.1" />
<line x1="104.000000" y1="129.500000" x2="101.500000" y2="132.000000" stroke="black" stroke-width="0.1" />
<line x1="104.000000" y1="129.500000" x2="106.500000" y2="132.000000" stroke="black" stroke-width="0.1" />
<line x1="101.500000" y1="255.000000" x2="106.500000" y2="255.000000" stroke="black" stroke-width="0.1" />
<line x1="104.000000" y1="255.000000" x2="101.500000" y2="252.500000" stroke="black" stroke-width="0.1" />
<line x1="104.000000" y1="255.000000" x2="106.500000" y2="252.500000" stroke="black" stroke-width="0.1" />
<text x="106.500000" y="192.250000" font-family="Arial" font-size="4" text-anchor="middle" dominant-baseline="middle" transform="rotate(90 106.500000 192.250000)" >125.5 mm</text>
<line x1="114.000000" y1="98.500000" x2="114.000000" y2="129.500000" stroke="black" stroke-width="0.1" />
<line x1="111.500000" y1="98.500000" x2="116.500000" y2="98.500000" stroke="black" stroke-width="0.1" />
<line x1="114.000000" y1="98.500000" x2="111.500000" y2="101.000000" stroke="black" stroke-width="0.1" />
<line x1="114.000000" y1="98.500000" x2="116.500000" y2="101.000000" stroke="black" stroke-width="0.1" />
<line x1="111.500000" y1="129.500000" x2="116.500000" y2="129.500000" stroke="black" stroke-width="0.1" />
<line x1="114.000000" y1="129.500000" x2="111.500000" y2="127.000000" stroke="black" stroke-width="0.1" />
<line x1="114.000000" y1="129.500000" x2="116.500000" y2="127.000000" stroke="black" stroke-width="0.1" />
<text x="116.500000" y="114.000000" font-family="Arial" font-size="4" text-anchor="middle" dominant-baseline="middle" transform="rotate(90 116.500000 114.000000)" >31.0 mm</text>
<line x1="8.000000" y1="5.000000" x2="8.000000" y2="130.500000" stroke="black" stroke-width="0.1" />
<line x1="5.500000" y1="5.000000" x2="10.500000" y2="5.000000" stroke="black" stroke-width="0.1" />
<line x1="8.000000" y1="5.000000" x2="5.500000" y2="7.500000" stroke="black" stroke-width="0.1" />
<line x1="8.000000" y1="5.000000" x2="10.500000" y2="7.500000" stroke="black" stroke-width="0.1" />
<line x1="5.500000" y1="130.500000" x2="10.500000" y2="130.500000" stroke="black" stroke-width="0.1" />
<line x1="8.000000" y1="130.500000" x2="5.500000" y2="128.000000" stroke="black" stroke-width="0.1" />
<line x1="8.000000" y1="130.500000" x2="10.500000" y2="128.000000" stroke="black" stroke-width="0.1" />
<text x="10.500000" y="67.750000" font-family="Arial" font-size="4" text-anchor="middle" dominant-baseline="middle" transform="rotate(90 10.500000 67.750000)" >125.5 mm</text>
<line x1="18.000000" y1="130.500000" x2="18.000000" y2="210.500000" stroke="black" stroke-width="0.1" />
<line x1="15.500000" y1="130.500000" x2="20.500000" y2="130.500000" stroke="black" stroke-width="0.1" />
<line x1="18.000000" y1="130.500000" x2="15.500000" y2="133.000000" stroke="black" stroke-width="0.1" />
<line x1="18.000000" y1="130.500000" x2="20.500000" y2="133.000000" stroke="black" stroke-width="0.1" />
<line x1="15.500000" y1="210.500000" x2="20.500000" y2="210.500000" stroke="black" stroke-width="0.1" />
<line x1="18.000000" y1="210.500000" x2="15.500000" y2="208.000000" stroke="black" stroke-width="0.1" />
<line x1="18.000000" y1="210.500000" x2="20.500000" y2="208.000000" stroke="black" stroke-width="0.1" />
<text x="20.500000" y="170.500000" font-family="Arial" font-size="4" text-anchor="middle" dominant-baseline="middle" transform="rotate(90 20.500000 170.500000)" >80.0 mm</text>
<line x1="126.000000" y1="88.500000" x2="162.000000" y2="88.500000" stroke="black" stroke-width="0.1" />
<line x1="126.000000" y1="86.000000" x2="126.000000" y2="91.000000" stroke="black" stroke-width="0.1" />
<line x1="126.000000" y1="88.500000" x2="128.500000" y2="91.000000" stroke="black" stroke-width="0.1" />
<line x1="126.000000" y1="88.500000" x2="128.500000" y2="86.000000" stroke="black" stroke-width="0.1" />
<line x1="162.000000" y1="86.000000" x2="162.000000" y2="91.000000" stroke="black" stroke-width="0.1" />
<line x1="162.000000" y1="88.500000" x2="159.500000" y2="91.000000" stroke="black" stroke-width="0.1" />
<line x1="162.000000" y1="88.500000" x2="159.500000" y2="86.000000" stroke="black" stroke-width="0.1" />
<text x="149.000000" y="78.500000" font-family="Arial" font-size="4" text-anchor="middle" dominant-baseline="middle" transform="rotate(90 149.000000 78.500000)" >36.0 mm</text>
<line x1="126.000000" y1="119.500000" x2="162.000000" y2="119.500000" stroke="black" stroke-width="0.1" />
<line x1="126.000000" y1="117.000000" x2="126.000000" y2="122.000000" stroke="black" stroke-width="0.1" />
<line x1="126.000000" y1="119.500000" x2="128.500000" y2="122.000000" stroke="black" stroke-width="0.1" />
<line x1="126.000000" y1="119.500000" x2="128.500000" y2="117.000000" stroke="black" stroke-width="0.1" />
<line x1="162.000000" y1="117.000000" x2="162.000000" y2="122.000000" stroke="black" stroke-width="0.1" />
<line x1="162.000000" y1="119.500000" x2="159.500000" y2="122.000000" stroke="black" stroke-width="0.1" />
<line x1="162.000000" y1="119.500000" x2="159.500000" y2="117.000000" stroke="black" stroke-width="0.1" />
<text x="149.000000" y="109.500000" font-family="Arial" font-size="4" text-anchor="middle" dominant-baseline="middle" transform="rotate(90 149.000000 109.500000)" >36.0 mm</text>
<line x1="38.000000" y1="140.500000" x2="58.000000" y2="140.500000" stroke="black" stroke-width="0.1" />
<line x1="38.000000" y1="138.000000" x2="38.000000" y2="143.000000" stroke="black" stroke-width="0.1" />
<line x1="38.000000" y1="140.500000" x2="40.500000" y2="143.000000" stroke="black" stroke-width="0.1" />
<line x1="38.000000" y1="140.500000" x2="40.500000" y2="138.000000" stroke="black" stroke-width="0.1" />
<line x1="58.000000" y1="138.000000" x2="58.000000" y2="143.000000" stroke="black" stroke-width="0.1" />
<line x1="58.000000" y1="140.500000" x2="55.500000" y2="143.000000" stroke="black" stroke-width="0.1" />
<line x1="58.000000" y1="140.500000" x2="55.500000" y2="138.000000" stroke="black" stroke-width="0.1" />
<text x="53.000000" y="150.500000" font-family="Arial" font-size="4" text-anchor="middle" dominant-baseline="middle" transform="rotate(90 53.000000 150.500000)" >20.0 mm</text>
<line x1="27.750000" y1="220.500000" x2="68.250000" y2="220.500000" stroke="black" stroke-width="0.1" />
<line x1="27.750000" y1="218.000000" x2="27.750000" y2="223.000000" stroke="black" stroke-width="0.1" />
<line x1="27.750000" y1="220.500000" x2="30.250000" y2="223.000000" stroke="black" stroke-width="0.1" />
<line x1="27.750000" y1="220.500000" x2="30.250000" y2="218.000000" stroke="black" stroke-width="0.1" />
<line x1="68.250000" y1="218.000000" x2="68.250000" y2="223.000000" stroke="black" stroke-width="0.1" />
<line x1="68.250000" y1="220.500000" x2="65.750000" y2="223.000000" stroke="black" stroke-width="0.1" />
<line x1="68.250000" y1="220.500000" x2="65.750000" y2="218.000000" stroke="black" stroke-width="0.1" />
<text x="53.000000" y="230.500000" font-family="Arial" font-size="4" text-anchor="middle" dominant-baseline="middle" transform="rotate(90 53.000000 230.500000)" >40.5 mm</text>
<circle cx="126.000000" cy="98.500000" r="2.500000" fill="none" stroke="black" stroke-width="0.1" />
<circle cx="126.000000" cy="98.500000" r="0.250000" fill="none" stroke="black" stroke-width="0.1" />
<line x1="125.750000" y1="98.500000" x2="125.500000" y2="98.500000" stroke="black" stroke-width="0.1" />
<line x1="126.250000" y1="98.500000" x2="126.500000" y2="98.500000" stroke="black" stroke-width="0.1" />
<line x1="126.000000" y1="98.250000" x2="126.000000" y2="98.000000" stroke="black" stroke-width="0.1" />
<line x1="126.000000" y1="98.750000" x2="126.000000" y2="99.000000" stroke="black" stroke-width="0.1" />
<line x1="123.000000" y1="98.500000" x2="124.000000" y2="98.500000" stroke="black" stroke-width="0.1" />
<line x1="128.000000" y1="98.500000" x2="129.000000" y2="98.500000" stroke="black" stroke-width="0.1" />
<line x1="126.000000" y1="95.500000" x2="126.000000" y2="96.500000" stroke="black" stroke-width="0.1" />
<line x1="126.000000" y1="100.500000" x2="126.000000" y2="101.500000" stroke="black" stroke-width="0.1" />
<circle cx="162.000000" cy="98.500000" r="2.500000" fill="none" stroke="black" stroke-width="0.1" />
<circle cx="162.000000" cy="98.500000" r="0.250000" fill="none" stroke="black" stroke-width="0.1" />
<line x1="161.750000" y1="98.500000" x2="161.500000" y2="98.500000" stroke="black" stroke-width="0.1" />
<line x1="162.250000" y1="98.500000" x2="162.500000" y2="98.500000" stroke="black" stroke-width="0.1" />
<line x1="162.000000" y1="98.250000" x2="162.000000" y2="98.000000" stroke="black" stroke-width="0.1" />
<line x1="162.000000" y1="98.750000" x2="162.000000" y2="99.000000" stroke="black" stroke-width="0.1" />
<line x1="159.000000" y1="98.500000" x2="160.000000" y2="98.500000" stroke="black" stroke-width="0.1" />
<line x1="164.000000" y1="98.500000" x2="165.000000" y2="98.500000" stroke="black" stroke-width="0.1" />
<line x1="162.000000" y1="95.500000" x2="162.000000" y2="96.500000" stroke="black" stroke-width="0.1" />
<line x1="162.000000" y1="100.500000" x2="162.000000" y2="101.500000" stroke="black" stroke-width="0.1" />
<circle cx="126.000000" cy="129.500000" r="2.500000" fill="none" stroke="black" stroke-width="0.1" />
<circle cx="126.000000" cy="129.500000" r="0.250000" fill="none" stroke="black" stroke-width="0.1" />
<line x1="125.750000" y1="129.500000" x2="125.500000" y2="129.500000" stroke="black" stroke-width="0.1" />
<line x1="126.250000" y1="129.500000" x2="126.500000" y2="129.500000" stroke="black" stroke-width="0.1" />
<line x1="126.000000" y1="129.250000" x2="126.000000" y2="129.000000" stroke="black" stroke-width="0.1" />
<line x1="126.000000" y1="129.750000" x2="126.000000" y2="130.000000" stroke="black" stroke-width="0.1" />
<line x1="123.000000" y1="129.500000" x2="124.000000" y2="129.500000" stroke="black" stroke-width="0.1" />
<line x1="128.000000" y1="129.500000" x2="129.000000" y2="129.500000" stroke="black" stroke-width="0.1" />
<line x1="126.000000" y1="126.500000" x2="126.000000" y2="127.500000" stroke="black" stroke-width="0.1" />
<line x1="126.000000" y1="131.500000" x2="126.000000" y2="132.500000" stroke="black" stroke-width="0.1" />
<circle cx="162.000000" cy="129.500000" r="2.500000" fill="none" stroke="black" stroke-width="0.1" />
<circle cx="162.000000" cy="129.500000" r="0.250000" fill="none" stroke="black" stroke-width="0.1" />
<line x1="161.750000" y1="129.500000" x2="161.500000" y2="129.500000" stroke="black" stroke-width="0.1" />
<line x1="162.250000" y1="129.500000" x2="162.500000" y2="129.500000" stroke="black" stroke-width="0.1" />
<line x1="162.000000" y1="129.250000" x2="162.000000" y2="129.000000" stroke="black" stroke-width="0.1" />
<line x1="162.000000" y1="129.750000" x2="162.000000" y2="130.000000" stroke="black" stroke-width="0.1" />
<line x1="159.000000" y1="129.500000" x2="160.000000" y2="129.500000" stroke="black" stroke-width="0.1" />
<line x1="164.000000" y1="129.500000" x2="165.000000" y2="129.500000" stroke="black" stroke-width="0.1" />
<line x1="162.000000" y1="126.500000" x2="162.000000" y2="127.500000" stroke="black" stroke-width="0.1" />
<line x1="162.000000" y1="131.500000" x2="162.000000" y2="132.500000" stroke="black" stroke-width="0.1" />
<circle cx="38.000000" cy="130.500000" r="2.500000" fill="none" stroke="black" stroke-width="0.1" />
<circle cx="38.000000" cy="130.500000" r="0.250000" fill="none" stroke="black" stroke-width="0.1" />
<line x1="37.750000" y1="130.500000" x2="37.500000" y2="130.500000" stroke="black" stroke-width="0.1" />
<line x1="38.250000" y1="130.500000" x2="38.500000" y2="130.500000" stroke="black" stroke-width="0.1" />
<line x1="38.000000" y1="130.250000" x2="38.000000" y2="130.000000" stroke="black" stroke-width="0.1" />
<line x1="38.000000" y1="130.750000" x2="38.000000" y2="131.000000" stroke="black" stroke-width="0.1" />
<line x1="35.000000" y1="130.500000" x2="36.000000" y2="130.500000" stroke="black" stroke-width="0.1" />
<line x1="40.000000" y1="130.500000" x2="41.000000" y2="130.500000" stroke="black" stroke-width="0.1" />
<line x1="38.000000" y1="127.500000" x2="38.000000" y2="128.500000" stroke="black" stroke-width="0.1" />
<line x1="38.000000" y1="132.500000" x2="38.000000" y2="133.500000" stroke="black" stroke-width="0.1" />
<circle cx="58.000000" cy="130.500000" r="2.500000" fill="none" stroke="black" stroke-width="0.1" />
<circle cx="58.000000" cy="130.500000" r="0.250000" fill="none" stroke="black" stroke-width="0.1" />
<line x1="57.750000" y1="130.500000" x2="57.500000" y2="130.500000" stroke="black" stroke-width="0.1" />
<line x1="58.250000" y1="130.500000" x2="58.500000" y2="130.500000" stroke="black" stroke-width="0.1" />
<line x1="58.000000" y1="130.250000" x2="58.000000" y2="130.000000" stroke="black" stroke-width="0.1" />
<line x1="58.000000" y1="130.750000" x2="58.000000" y2="131.000000" stroke="black" stroke-width="0.1" />
<line x1="55.000000" y1="130.500000" x2="56.000000" y2="130.500000" stroke="black" stroke-width="0.1" />
<line x1="60.000000" y1="130.500000" x2="61.000000" y2="130.500000" stroke="black" stroke-width="0.1" />
<line x1="58.000000" y1="127.500000" x2="58.000000" y2="128.500000" stroke="black" stroke-width="0.1" />
<line x1="58.000000" y1="132.500000" x2="58.000000" y2="133.500000" stroke="black" stroke-width="0.1" />
<circle cx="27.750000" cy="210.500000" r="2.500000" fill="none" stroke="black" stroke-width="0.1" />
<circle cx="27.750000" cy="210.500000" r="0.250000" fill="none" stroke="black" stroke-width="0.1" />
<line x1="27.500000" y1="210.500000" x2="27.250000" y2="210.500000" stroke="black" stroke-width="0.1" />
<line x1="28.000000" y1="210.500000" x2="28.250000" y2="210.500000" stroke="black" stroke-width="0.1" />
<line x1="27.750000" y1="210.250000" x2="27.750000" y2="210.000000" stroke="black" stroke-width="0.1" />
<line x1="27.750000" y1="210.750000" x2="27.750000" y2="211.000000" stroke="black" stroke-width="0.1" />
<line x1="24.750000" y1="210.500000" x2="25.750000" y2="210.500000" stroke="black" stroke-width="0.1" />
<line x1="29.750000" y1="210.500000" x2="30.750000" y2="210.500000" stroke="black" stroke-width="0.1" />
<line x1="27.750000" y1="207.500000" x2="27.750000" y2="208.500000" stroke="black" stroke-width="0.1" />
<line x1="27.750000" y1="212.500000" x2="27.750000" y2="213.500000" stroke="black" stroke-width="0.1" />
<circle cx="68.250000" cy="210.500000" r="2.500000" fill="none" stroke="black" stroke-width="0.1" />
<circle cx="68.250000" cy="210.500000" r="0.250000" fill="none" stroke="black" stroke-width="0.1" />
<line x1="68.000000" y1="210.500000" x2="67.750000" y2="210.500000" stroke="black" stroke-width="0.1" />
<line x1="68.500000" y1="210.500000" x2="68.750000" y2="210.500000" stroke="black" stroke-width="0.1" />
<line x1="68.250000" y1="210.250000" x2="68.250000" y2="210.000000" stroke="black" stroke-width="0.1" />
<line x1="68.250000" y1="210.750000" x2="68.250000" y2="211.000000" stroke="black" stroke-width="0.1" />
<line x1="65.250000" y1="210.500000" x2="66.250000" y2="210.500000" stroke="black" stroke-width="0.1" />
<line x1="70.250000" y1="210.500000" x2="71.250000" y2="210.500000" stroke="black" stroke-width="0.1" />
<line x1="68.250000" y1="207.500000" x2="68.250000" y2="208.500000" stroke="black" stroke-width="0.1" />
<line x1="68.250000" y1="212.500000" x2="68.250000" y2="213.500000" stroke="black" stroke-width="0.1" />
<text x="73.000000" y="25.000000" font-family="Arial" font-size="4" text-anchor="middle" dominant-baseline="middle" transform="rotate(90 73.000000 25.000000)" >Mid Sole Mount Line</text>
<text x="169.000000" y="235.000000" font-family="Arial" font-size="4" text-anchor="middle" dominant-baseline="middle" transform="rotate(90 169.000000 235.000000)" >Mid Sole Mount Line</text>
<text x="43.000000" y="235.000000" font-family="Arial" font-size="4" text-anchor="middle" dominant-baseline="middle" transform="rotate(90 43.000000 235.000000)" >Ski Center Line</text>
<text x="139.000000" y="25.000000" font-family="Arial" font-size="4" text-anchor="middle" dominant-baseline="middle" transform="rotate(90 139.000000 25.000000)" >Ski Center Line</text>
</svg>