<?xml version="1.0"?>
<!DOCTYPE svg PUBLIC "-//W3C//DTD SVG 1.1//EN"
"http://www.w3.org/Graphics/SVG/1.1/DTD/svg11.dtd">
<svg xmlns="http://www.w3.org/2000/svg" version="1.2" width="192.000000mm" height="259.000000mm" viewBox="0 0 192.000000 259.000000" style="background-color:white" >
<line x1="48.000000" y1="0.000000" x2="48.000000" y2="259.000000" stroke="black" stroke-width="0.1" />
<line x1="144.000000" y1="0.000000" x2="144.000000" y2="259.000000" stroke="black" stroke-width="0.1" />
<line x1="104.000000" y1="255.000000" x2="184.000000" y2="255.000000" stroke="black" stroke-width="0.1" />
<line x1="8.000000" y1="5.000000" x2="88.000000" y2="5.000000" stroke="black" stroke-width="0.1" />
<line x1="96.000000" y1="0.000000" x2="96.000000" y2="259.000000" stroke="black" stroke-width="0.1" stroke-dasharray="2 2" />
<line x1="0.000000" y1="259.000000" x2="96.000000" y2="259.000000" stroke="black" stroke-width="0.1" stroke-dasharray="2 2" />
<line x1="96.000000" y1="0.000000" x2="192.000000" y2="0.000000" stroke="black" stroke-width="0.1" stroke-dasharray="2 2" />
<line x1="48.000000" y1="7.000000" x2="41.000000" y2="0.000000" stroke="black" stroke-width="0.1" stroke-dasharray="2 2" />
<line x1="48.000000" y1="7.000000" x2="55.000000" y2="0.000000" stroke="black" stroke-width="0.1" stroke-dasharray="2 2" />
<line x1="144.000000" y1="253.000000" x2="138.000000" y2="259.000000" stroke="black" stroke-width="0.1" stroke-dasharray="2 2" />
<line x1="144.000000" y1="253.000000" x2="150.000000" y2="259.000000" stroke="black" stroke-width="0.1" stroke-dasharray="2 2" />
<text x="83.000000" y="130.000000" font-family="Arial" font-size="8" text-anchor="middle" dominant-baseline="middle" transform="rotate(90 83.000000 130.000000)" >Marker XCell 287, Heel</text>
<text x="179.000000" y="130.000000" font-family="Arial" font-size="8" text-anchor="middle" dominant-baseline="middle" transform="rotate(90 179.000000 130.000000)" >Marker XCell 287, Toe</text>
<line x1="104.000000" y1="123.500000" x2="104.000000" y2="255.000000" stroke="black" stroke-width="0.1" />
<line x1="101.500000" y1="123.500000" x2="106.500000" y2="123.500000" stroke="black" stroke-width="0.1" />
<line x1="104.000000" y1="123.500000" x2="101.500000" y2="126.000000" stroke="black" stroke-width="0.1" />
<line x1="104.000000" y1="123.500000" x2="106.500000" y2="126.000000" stroke="black" stroke-width="0.1" />
<line x1="101.500000" y1="255.000000" x2="106.500000" y2="255.000000" stroke="black" stroke-width="0.1" />
<line x1="104.000000" y1="255.000000" x2="101.500000" y2="252.500000" stroke="black" stroke-width="0.1" />
<line x1="104.000000" y1="255.000000" x2="106.500000" y2="252.500000" stroke="black" stroke-width="0.1" />
<text x="106.500000" y="189.250000" font-family="Arial" font-size="4" text-anchor="middle" dominant-baseline="middle" transform="rotate(90 106.500000 189.250000)" >131.5 mm</text>
<line x1="114.000000" y1="92.500000" x2="114.000000" y2="123.500000" stroke="black" stroke-width="0.1" />
<line x1="111.500000" y1="92.500000" x2="116.500000" y2="92.500000" stroke="black" stroke-width="0.1" />
<line x1="114.000000" y1="92.500000" x2="111.500000" y2="95.000000" stroke="black" stroke-width="0.1" />
<line x1="114.000000" y1="92.500000" x2="116.500000" y2="95.000000" stroke="black" stroke-width="0.1" />
<line x1="111.500000" y1="123.500000" x2="116.500000" y2="123.500000" stroke="black" stroke-width="0.1" />
<line x1="114.000000" y1="123.500000" x2="111.500000" y2="121.000000" stroke="black" stroke-width="0.1" />
<line x1="114.000000" y1="123.500000" x2="116.500000" y2="121.000000" stroke="black" stroke-width="0.1" />
<text x="116.500000" y="108.000000" font-family="Arial" font-size="4" text-anchor="middle" dominant-baseline="middle" transform="rotate(90 116.500000 108.000000)" >31.0 mm</text>
<line x1="8.000000" y1="5.000000" x2="8.000000" y2="136.500000" stroke="black" stroke-width="0.1" />
<line x1="5.500000" y1="5.000000" x2="10.500000" y2="5.000000" stroke="black" stroke-width="0.1" />
<line x1="8.000000" y1="5.000000" x2="5.500000" y2="7.500000" stroke="black" stroke-width="0.1" />
<line x1="8.000000" y1="5.000000" x2="10.500000" y2="7.500000" stroke="black" stroke-width="0.1" />
<line x1="5.500000" y1="136.500000" x2="10.500000" y2="136.500000" stroke="black" stroke-width="0.1" />
<line x1="8.000000" y1="136.500000" x2="5.500000" y2="134.000000" stroke="black" stroke-width="0.1" />
<line x1="8.000000" y1="136.500000" x2="10.500000" y2="134.000000" stroke="black" stroke-width="0.1" />
<text x="10.500000" y="70.750000" font-family="Arial" font-size="4" text-anchor="middle" dominant-baseline="middle" transform="rotate(90 10.500000 70.750000)" >131.5 mm</text>
<line x1="18.000000" y1="136.500000" x2="18.000000" y2="216.500000" stroke="black" stroke-width="0.1" />
<line x1="15.500000" y1="136.500000" x2="20.500000" y2="136.500000" stroke="black" stroke-width="0.1" />
<line x1="18.000000" y1="136.500000" x2="15.500000" y2="139.000000" stroke="black" stroke-width="0.1" />
<line x1="18.000000" y1="136.500000" x2="20.500000" y2="139.000000" stroke="black" stroke-width="0.1" />
<line x1="15.500000" y1="216.500000" x2="20.500000" y2="216.500000" stroke="black" stroke-width="0.1" />
<line x1="18.000000" y1="216.500000" x2="15.500000" y2="214.000000" stroke="black" stroke-width="0.1" />
<line x1="18.000000" y1="216.500000" x2="20.500000" y2="214.000000" stroke="black" stroke-width="0.1" />
<text x="20.500000" y="176.500000" font-family="Arial" font-size="4" text-anchor="middle" dominant-baseline="middle" transform="rotate(90 20.500000 176.500000)" >80.0 mm</text>
<line x1="126.000000" y1="82.500000" x2="162.000000" y2="82.500000" stroke="black" stroke-width="0.1" />
<line x1="126.000000" y1="80.000000" x2="126.000000" y2="85.000000" stroke="black" stroke-width="0.1" />
<line x1="126.000000" y1="82.500000" x2="128.500000" y2="85.000000" stroke="black" stroke-width="0.1" />
<line x1="126.000000" y1="82.500000" x2="128.500000" y2="80.000000" stroke="black" stroke-width="0.1" />
<line x1="162.000000" y1="80.000000" x2="162.000000" y2="85.000000" stroke="black" stroke-width="0.1" />
<line x1="162.000000" y1="82.500000" x2="159.500000" y2="85.000000" stroke="black" stroke-width="0.1" />
<line x1="162.000000" y1="82.500000" x2="159.500000" y2="80.000000" stroke="black" stroke-width="0.1" />
<text x="149.000000" y="72.500000" font-family="Arial" font-size="4" text-anchor="middle" dominant-baseline="middle" transform="rotate(90 149.000000 72.500000)" >36.0 mm</text>
<line x1="126.000000" y1="113.500000" x2="162.000000" y2="113.500000" stroke="black" stroke-width="0.1" />
<line x1="126.000000" y1="111.000000" x2="126.000000" y2="116.000000" stroke="black" stroke-width="0.1" />
<line x1="126.000000" y1="113.500000" x2="128.500000" y2="116.000000" stroke="black" stroke-width="0.1" />
<line x1="126.000000" y1="113.500000" x2="128.500000" y2="111.000000" stroke="black" stroke-width="0.1" />
<line x1="162.000000" y1="111.000000" x2="162.000000" y2="116.000000" stroke="black" stroke-width="0.1" />
<line x1="162.000000" y1="113.500000" x2="159.500000" y2="116.000000" stroke="black" stroke-width="0.1" />
<line x1="162.000000" y1="113.500000" x2="159.500000" y2="111.000000" stroke="black" stroke-width="0.1" />
<text x="149.000000" y="103.500000" font-family="Arial" font-size="4" text-anchor="middle" dominant-baseline="middle" transform="rotate(90 149.000000 103.500000)" >36.0 mm</text>
<line x1="38.000000" y1="146.500000" x2="58.000000" y2="146.500000" stroke="black" stroke-width="0.1" />
<line x1="38.000000" y1="144.000000" x2="38.000000" y2="149.000000" stroke="black" stroke-width="0.1" />
<line x1="38.000000" y1="146.500000" x2="40.500000" y2="149.000000" stroke="black" stroke-width="0.1" />
<line x1="38.000000" y1="146.500000" x2="40.500000" y2="144.000000" stroke="black" stroke-width="0.1" />
<line x1="58.000000" y1="144.000000" x2="58.000000" y2="149.000000" stroke="black" stroke-width="0.1" />
<line x1="58.000000" y1="146.500000" x2="55.500000" y2="149.000000" stroke="black" stroke-width="0.1" />
<line x1="58.000000" y1="146.500000" x2="55.500000" y2="144.000000" stroke="black" stroke-width="0.1" />
<text x="53.000000" y="156.500000" font-family="Arial" font-size="4" text-anchor="middle" dominant-baseline="middle" transform="rotate(90 53.000000 156.500000)" >20.0 mm</text>
<line x1="27.750000" y1="226.500000" x2="68.250000" y2="226.500000" stroke="black" stroke-width="0.1" />
<line x1="27.750000" y1="224.000000" x2="27.750000" y2="229.000000" stroke="black" stroke-width="0.1" />
<line x1="27.750000" y1="226.500000" x2="30.250000" y2="229.000000" stroke="black" stroke-width="0.1" />
<line x1="27.750000" y1="226.500000" x2="30.250000" y2="224.000000" stroke="black" stroke-width="0.1" />
<line x1="68.250000" y1="224.000000" x2="68.250000" y2="229.000000" stroke="black" stroke-width="0.1" />
<line x1="68.250000" y1="226.500000" x2="65.750000" y2="229.000000" stroke="black" stroke-width="0.1" />
<line x1="68.250000" y1="226.500000" x2="65.750000" y2="224.000000" stroke="black" stroke-width="0.1" />
<text x="53.000000" y="236.500000" font-family="Arial" font-size="4" text-anchor="middle" dominant-baseline="middle" transform="rotate(90 53.000000 236.500000)" >40.5 mm</text>
<circle cx="126.000000" cy="92.500000" r="2.500000" fill="none" stroke="black" stroke-width="0.1" />
<circle cx="126.000000" cy="92.500000" r="0.250000" fill="none" stroke="black" stroke-width="0.1" />
<line x1="125.750000" y1="92.500000" x2="125.500000" y2="92.500000" stroke="black" stroke-width="0.1" />
<line x1="126.250000" y1="92.500000" x2="126.500000" y2="92.500000" stroke="black" stroke-width="0.1" />
<line x1="126.000000" y1="92.250000" x2="126.000000" y2="92.000000" stroke="black" stroke-width="0.1" />
<line x1="126.000000" y1="92.750000" x2="126.000000" y2="93.000000" stroke="black" stroke-width="0.1" />
<line x1="123.000000" y1="92.500000" x2="124.000000" y2="92.500000" stroke="black" stroke-width="0.1" />
<line x1="128.000000" y1="92.500000" x2="129.000000" y2="92.500000" stroke="black" stroke-width="0.1" />
<line x1="126.000000" y1="89.500000" x2="126.000000" y2="90.500000" stroke="black" stroke-width="0.1" />
<line x1="126.000000" y1="94.500000" x2="126.000000" y2="95.500000" stroke="black" stroke-width="0.1" />
<circle cx="162.000000" cy="92.500000" r="2.500000" fill="none" stroke="black" stroke-width="0.1" />
<circle cx="162.000000" cy="92.500000" r="0.250000" fill="none" stroke="black" stroke-width="0.1" />
<line x1="161.750000" y1="92.500000" x2="161.500000" y2="92.500000" stroke="black" stroke-width="0.1" />
<line x1="162.250000" y1="92.500000" x2="162.500000" y2="92.500000" stroke="black" stroke-width="0.1" />
<line x1="162.000000" y1="92.250000" x2="162.000000" y2="92.000000" stroke="black" stroke-width="0.1" />
<line x1="162.000000" y1="92.750000" x2="162.000000" y2="93.000000" stroke="black" stroke-width="0.1" />
<line x1="159.000000" y1="92.500000" x2="160.000000" y2="92.500000" stroke="black" stroke-width="0.1" />
<line x1="164.000000" y1="92.500000" x2="165.000000" y2="92.500000" stroke="black" stroke-width="0.1" />
<line x1="162.000000" y1="89.500000" x2="162.000000" y2="90.500000" stroke="black" stroke-width="0.1" />
<line x1="162.000000" y1="94.500000" x2="162.000000" y2="95.500000" stroke="black" stroke-width="0.1" />
<circle cx="126.000000" cy="123.500000" r="2.500000" fill="none" stroke="black" stroke-width="0.1" />
<circle cx="126.000000" cy="123.500000" r="0.250000" fill="none" stroke="black" stroke-width="0.1" />
<line x1="125.750000" y1="123.500000" x2="125.500000" y2="123.500000" stroke="black" stroke-width="0.1" />
<line x1="126.250000" y1="123.500000" x2="126.500000" y2="123.500000" stroke="black" stroke-width="0.1" />
<line x1="126.000000" y1="123.250000" x2="126.000000" y2="123.000000" stroke="black" stroke-width="0.1" />
<line x1="126.000000" y1="123.750000" x2="126.000000" y2="124.000000" stroke="black" stroke-width="0.1" />
<line x1="123.000000" y1="123.500000" x2="124.000000" y2="123.500000" stroke="black" stroke-width="0.1" />
<line x1="128.000000" y1="123.500000" x2="129.000000" y2="123.500000" stroke="black" stroke-width="0.1" />
<line x1="126.000000" y1="120.500000" x2="126.000000" y2="121.500000" stroke="black" stroke-width="0.1" />
<line x1="126.000000" y1="125.500000" x2="126.000000" y2="126.500000" stroke="black" stroke-width="0.1" />
<circle cx="162.000000" cy="123.500000" r="2.500000" fill="none" stroke="black" stroke-width="0.1" />
<circle cx="162.000000" cy="123.500000" r="0.250000" fill="none" stroke="black" stroke-width="0.1" />
<line x1="161.750000" y1="123.500000" x2="161.500000" y2="123.500000" stroke="black" stroke-width="0.1" />
<line x1="162.250000" y1="123.500000" x2="162.500000" y2="123.500000" stroke="black" stroke-width="0.1" />
<line x1="162.000000" y1="123.250000" x2="162.000000" y2="123.000000" stroke="black" stroke-width="0.1" />
<line x1="162.000000" y1="123.750000" x2="162.000000" y2="124.000000" stroke="black" stroke-width="0.1" />
<line x1="159.000000" y1="123.500000" x2="160.000000" y2="123.500000" stroke="black" stroke-width="0.1" />
<line x1="164.000000" y1="123.500000" x2="165.000000" y2="123.500000" stroke="black" stroke-width="0.1" />
<line x1="162.000000" y1="120.500000" x2="162.000000" y2="121.500000" stroke="black" stroke-width="0.1" />
<line x1="162.000000" y1="125.500000" x2="162.000000" y2="126.500000" stroke="black" stroke-width="0.1" />
<circle cx="38.000000" cy="136.500000" r="2.500000" fill="none" stroke="black" stroke-width="0.1" />
<circle cx="38.000000" cy="136.500000" r="0.250000" fill="none" stroke="black" stroke-width="0.1" />
<line x1="37.750000" y1="136.500000" x2="37.500000" y2="136.500000" stroke="black" stroke-width="0.1" />
<line x1="38.250000" y1="136.500000" x2="38.500000" y2="136.500000" stroke="black" stroke-width="0.1" />
<line x1="38.000000" y1="136.250000" x2="38.000000" y2="136.000000" stroke="black" stroke-width="0.1" />
<line x1="38.000000" y1="136.750000" x2="38.000000" y2="137.000000" stroke="black" stroke-width="0.1" />
<line x1="35.000000" y1="136.500000" x2="36.000000" y2="136.500000" stroke="black" stroke-width="0.1" />
<line x1="40.000000" y1="136.500000" x2="41.000000" y2="136.500000" stroke="black" stroke-width="0.1" />
<line x1="38.000000" y1="133.500000" x2="38.000000" y2="134.500000" stroke="black" stroke-width="0.1" />
<line x1="38.000000" y1="138.500000" x2="38.000000" y2="139.500000" stroke="black" stroke-width="0.1" />
<circle cx="58.000000" cy="136.500000" r="2.500000" fill="none" stroke="black" stroke-width="0.1" />
<circle cx="58.000000" cy="136.500000" r="0.250000" fill="none" stroke="black" stroke-width="0.1" />
<line x1="57.750000" y1="136.500000" x2="57.500000" y2="136.500000" stroke="black" stroke-width="0.1" />
<line x1="58.250000" y1="136.500000" x2="58.500000" y2="136.500000" stroke="black" stroke-width="0.1" />
<line x1="58.000000" y1="136.250000" x2="58.000000" y2="136.000000" stroke="black" stroke-width="0.1" />
<line x1="58.000000" y1="136.750000" x2="58.000000" y2="137.000000" stroke="black" stroke-width="0.1" />
<line x1="55.000000" y1="136.500000" x2="56.000000" y2="136.500000" stroke="black" stroke-width="0.1" />
<line x1="60.000000" y1="136.500000" x2="61.000000" y2="136.500000" stroke="black" stroke-width="0.1" />
<line x1="58.000000" y1="133.500000" x2="58.000000" y2="134.500000" stroke="black" stroke-width="0.1" />
<line x1="58.000000" y1="138.500000" x2="58.000000" y2="139.500000" stroke="black" stroke-width="0.1" />
<circle cx="27.750000" cy="216.500000" r="2.500000" fill="none" stroke="black" stroke-width="0.1" />
<circle cx="27.750000" cy="216.500000" r="0.250000" fill="none" stroke="black" stroke-width="0.1" />
<line x1="27.500000" y1="216.500000" x2="27.250000" y2="216.500000" stroke="black" stroke-width="0.1" />
<line x1="28.000000" y1="216.500000" x2="28.250000" y2="216.500000" stroke="black" stroke-width="0.1" />
<line x1="27.750000" y1="216.250000" x2="27.750000" y2="216.000000" stroke="black" stroke-width="0.1" />
<line x1="27.750000" y1="216.750000" x2="27.750000" y2="217.000000" stroke="black" stroke-width="0.1" />
<line x1="24.750000" y1="216.500000" x2="25.750000" y2="216.500000" stroke="black" stroke-width="0.1" />
<line x1="29.750000" y1="216.500000" x2="30.750000" y2="216.500000" stroke="black" stroke-width="0.1" />
<line x1="27.750000" y1="213.500000" x2="27.750000" y2="214.500000" stroke="black" stroke-width="0.1" />
<line x1="27.750000" y1="218.500000" x2="27.750000" y2="219.500000" stroke="black" stroke-width="0.1" />
<circle cx="68.250000" cy="216.500000" r="2.500000" fill="none" stroke="black" stroke-width="0.1" />
<circle cx="68.250000" cy="216.500000" r="0.250000" fill="none" stroke="black" stroke-width="0.1" />
<line x1="68.000000" y1="216.500000" x2="67.750000" y2="216.500000" stroke="black" stroke-width="0.1" />
<line x1="68.500000" y1="216.500000" x2="68.750000" y2="216.500000" stroke="black" stroke-width="0.1" />
<line x1="68.250000" y1="216.250000" x2="68.250000" y2="216.000000" stroke="black" stroke-width="0.1" />
<line x1="68.250000" y1="216.750000" x2="68.250000" y2="217.000000" stroke="black" stroke-width="0.1" />
<line x1="65.250000" y1="216.500000" x2="66.250000" y2="216.500000" stroke="black" stroke-width="0.1" />
<line x1="70.250000" y1="216.500000" x2="71.250000" y2="216.500000" stroke="black" stroke-width="0.1" />
<line x1="68.250000" y1="213.500000" x2="68.250000" y2="214.500000" stroke="black" stroke-width="0.1" />
<line x1="68.250000" y1="218.500000" x2="68.250000" y2="219.500000" stroke="black" stroke-width="0.1" />
<text x="73.000000" y="25.000000" font-family="Arial" font-size="4" text-anchor="middle" dominant-baseline="middle" transform="rotate(90 73.000000 25.000000)" >Mid Sole Mount Line</text>
<text x="169.000000" y="235.000000" font-family="Arial" font-size="4" text-anchor="middle" dominant-baseline="middle" transform="rotate(90 169.000000 235.000000)" >Mid Sole Mount Line</text>
<text x="43.000000" y="235.000000" font-family="Arial" font-size="4" text-anchor="middle" dominant-baseline="middle" transform="rotate(90 43.000000 235.000000)" >Ski Center Line</text>
<text x="139.000000" y="25.000000" font-family="Arial" font-size="4" text-anchor="middle" dominant-baseline="middle" transform="rotate(90 139.000000 25.000000)" >Ski Center Line</text>
</svg>