<?xml version="1.0"?>
<!DOCTYPE svg PUBLIC "-//W3C//DTD SVG 1.1//EN"
"http://www.w3.org/Graphics/SVG/1.1/DTD/svg11.dtd">
<svg xmlns="http://www.w3.org/2000/svg" version="1.2" width="190.0mm" height="518.0mm" viewBox="0 0 190.0 518.0" >
  <line x1="47.5" y1="0.0" x2="47.5" y2="518.0" stroke="black" stroke-width="0.1" />
  <line x1="142.5" y1="0.0" x2="142.5" y2="518.0" stroke="black" stroke-width="0.1" />
  <line x1="10.0" y1="255.0" x2="180.0" y2="255.0" stroke="black" stroke-width="0.1" />
  <line x1="5.0" y1="255.0" x2="15.0" y2="255.0" stroke="black" stroke-width="0.1" />
  <line x1="10.0" y1="250.0" x2="10.0" y2="260.0" stroke="black" stroke-width="0.1" />
  <line x1="175.0" y1="255.0" x2="185.0" y2="255.0" stroke="black" stroke-width="0.1" />
  <line x1="180.0" y1="250.0" x2="180.0" y2="260.0" stroke="black" stroke-width="0.1" />
  <line x1="10.0" y1="265.0" x2="180.0" y2="265.0" stroke="black" stroke-width="0.1" />
  <line x1="5.0" y1="265.0" x2="15.0" y2="265.0" stroke="black" stroke-width="0.1" />
  <line x1="10.0" y1="260.0" x2="10.0" y2="270.0" stroke="black" stroke-width="0.1" />
  <line x1="175.0" y1="265.0" x2="185.0" y2="265.0" stroke="black" stroke-width="0.1" />
  <line x1="180.0" y1="260.0" x2="180.0" y2="270.0" stroke="black" stroke-width="0.1" />
  <line x1="10.0" y1="106.0" x2="180.0" y2="106.0" stroke="black" stroke-width="0.1" stroke-dasharray="5 5" />
  <line x1="10.0" y1="414.0" x2="180.0" y2="414.0" stroke="black" stroke-width="0.1" stroke-dasharray="5 5" />
  <text x="60.0" y="225.0" font-family="Arial" fill="black" font-size="6" >BSL: 298 mm</text>
  <text x="60.0" y="295.0" font-family="Arial" fill="black" font-size="6" >BSL: 298 mm</text>
  <circle cx="65.0" cy="122.5" r="2.5" fill="none" stroke="black" stroke-width="0.1" />
  <line x1="60.0" y1="122.5" x2="70.0" y2="122.5" stroke="black" stroke-width="0.1" />
  <line x1="65.0" y1="117.5" x2="65.0" y2="127.5" stroke="black" stroke-width="0.1" />
  <circle cx="160.0" cy="122.5" r="2.5" fill="none" stroke="black" stroke-width="0.1" />
  <line x1="155.0" y1="122.5" x2="165.0" y2="122.5" stroke="black" stroke-width="0.1" />
  <line x1="160.0" y1="117.5" x2="160.0" y2="127.5" stroke="black" stroke-width="0.1" />
  <circle cx="30.0" cy="122.5" r="2.5" fill="none" stroke="black" stroke-width="0.1" />
  <line x1="25.0" y1="122.5" x2="35.0" y2="122.5" stroke="black" stroke-width="0.1" />
  <line x1="30.0" y1="117.5" x2="30.0" y2="127.5" stroke="black" stroke-width="0.1" />
  <circle cx="125.0" cy="122.5" r="2.5" fill="none" stroke="black" stroke-width="0.1" />
  <line x1="120.0" y1="122.5" x2="130.0" y2="122.5" stroke="black" stroke-width="0.1" />
  <line x1="125.0" y1="117.5" x2="125.0" y2="127.5" stroke="black" stroke-width="0.1" />
  <circle cx="68.5" cy="81.0" r="2.5" fill="none" stroke="black" stroke-width="0.1" />
  <line x1="63.5" y1="81.0" x2="73.5" y2="81.0" stroke="black" stroke-width="0.1" />
  <line x1="68.5" y1="76.0" x2="68.5" y2="86.0" stroke="black" stroke-width="0.1" />
  <circle cx="163.5" cy="81.0" r="2.5" fill="none" stroke="black" stroke-width="0.1" />
  <line x1="158.5" y1="81.0" x2="168.5" y2="81.0" stroke="black" stroke-width="0.1" />
  <line x1="163.5" y1="76.0" x2="163.5" y2="86.0" stroke="black" stroke-width="0.1" />
  <circle cx="26.5" cy="81.0" r="2.5" fill="none" stroke="black" stroke-width="0.1" />
  <line x1="21.5" y1="81.0" x2="31.5" y2="81.0" stroke="black" stroke-width="0.1" />
  <line x1="26.5" y1="76.0" x2="26.5" y2="86.0" stroke="black" stroke-width="0.1" />
  <circle cx="121.5" cy="81.0" r="2.5" fill="none" stroke="black" stroke-width="0.1" />
  <line x1="116.5" y1="81.0" x2="126.5" y2="81.0" stroke="black" stroke-width="0.1" />
  <line x1="121.5" y1="76.0" x2="121.5" y2="86.0" stroke="black" stroke-width="0.1" />
  <circle cx="68.5" cy="388.0" r="2.5" fill="none" stroke="black" stroke-width="0.1" />
  <line x1="63.5" y1="388.0" x2="73.5" y2="388.0" stroke="black" stroke-width="0.1" />
  <line x1="68.5" y1="383.0" x2="68.5" y2="393.0" stroke="black" stroke-width="0.1" />
  <circle cx="163.5" cy="388.0" r="2.5" fill="none" stroke="black" stroke-width="0.1" />
  <line x1="158.5" y1="388.0" x2="168.5" y2="388.0" stroke="black" stroke-width="0.1" />
  <line x1="163.5" y1="383.0" x2="163.5" y2="393.0" stroke="black" stroke-width="0.1" />
  <circle cx="26.5" cy="388.0" r="2.5" fill="none" stroke="black" stroke-width="0.1" />
  <line x1="21.5" y1="388.0" x2="31.5" y2="388.0" stroke="black" stroke-width="0.1" />
  <line x1="26.5" y1="383.0" x2="26.5" y2="393.0" stroke="black" stroke-width="0.1" />
  <circle cx="121.5" cy="388.0" r="2.5" fill="none" stroke="black" stroke-width="0.1" />
  <line x1="116.5" y1="388.0" x2="126.5" y2="388.0" stroke="black" stroke-width="0.1" />
  <line x1="121.5" y1="383.0" x2="121.5" y2="393.0" stroke="black" stroke-width="0.1" />
  <circle cx="68.5" cy="493.0" r="2.5" fill="none" stroke="black" stroke-width="0.1" />
  <line x1="63.5" y1="493.0" x2="73.5" y2="493.0" stroke="black" stroke-width="0.1" />
  <line x1="68.5" y1="488.0" x2="68.5" y2="498.0" stroke="black" stroke-width="0.1" />
  <circle cx="163.5" cy="493.0" r="2.5" fill="none" stroke="black" stroke-width="0.1" />
  <line x1="158.5" y1="493.0" x2="168.5" y2="493.0" stroke="black" stroke-width="0.1" />
  <line x1="163.5" y1="488.0" x2="163.5" y2="498.0" stroke="black" stroke-width="0.1" />
  <circle cx="26.5" cy="493.0" r="2.5" fill="none" stroke="black" stroke-width="0.1" />
  <line x1="21.5" y1="493.0" x2="31.5" y2="493.0" stroke="black" stroke-width="0.1" />
  <line x1="26.5" y1="488.0" x2="26.5" y2="498.0" stroke="black" stroke-width="0.1" />
  <circle cx="121.5" cy="493.0" r="2.5" fill="none" stroke="black" stroke-width="0.1" />
  <line x1="116.5" y1="493.0" x2="126.5" y2="493.0" stroke="black" stroke-width="0.1" />
  <line x1="121.5" y1="488.0" x2="121.5" y2="498.0" stroke="black" stroke-width="0.1" />
</svg>
