<?xml version="1.0"?>
<!DOCTYPE svg PUBLIC "-//W3C//DTD SVG 1.1//EN"
"http://www.w3.org/Graphics/SVG/1.1/DTD/svg11.dtd">
<svg xmlns="http://www.w3.org/2000/svg" version="1.2" width="190.0mm" height="259.0mm" viewBox="0 0 190.0 259.0" >
  <line x1="95.0" y1="0.0" x2="95.0" y2="259.0" stroke="black" stroke-width="0.1" stroke-dasharray="4 4" />
  <line x1="47.5" y1="0.0" x2="47.5" y2="259.0" stroke="black" stroke-width="0.1" />
  <line x1="142.5" y1="0.0" x2="142.5" y2="259.0" stroke="black" stroke-width="0.1" />
  <line x1="95.0" y1="255.0" x2="180.0" y2="255.0" stroke="black" stroke-width="0.1" />
  <line x1="10.0" y1="5.0" x2="95.0" y2="5.0" stroke="black" stroke-width="0.1" />
  <circle cx="160.5" cy="69.0" r="2.5" fill="none" stroke="black" stroke-width="0.1" />
  <line x1="160.0" y1="69.0" x2="161.0" y2="69.0" stroke="black" stroke-width="0.1" />
  <line x1="160.5" y1="68.5" x2="160.5" y2="69.5" stroke="black" stroke-width="0.1" />
  <line x1="157.5" y1="69.0" x2="158.5" y2="69.0" stroke="black" stroke-width="0.1" />
  <line x1="162.5" y1="69.0" x2="163.5" y2="69.0" stroke="black" stroke-width="0.1" />
  <line x1="160.5" y1="66.0" x2="160.5" y2="67.0" stroke="black" stroke-width="0.1" />
  <line x1="160.5" y1="71.0" x2="160.5" y2="72.0" stroke="black" stroke-width="0.1" />
  <circle cx="124.5" cy="69.0" r="2.5" fill="none" stroke="black" stroke-width="0.1" />
  <line x1="124.0" y1="69.0" x2="125.0" y2="69.0" stroke="black" stroke-width="0.1" />
  <line x1="124.5" y1="68.5" x2="124.5" y2="69.5" stroke="black" stroke-width="0.1" />
  <line x1="121.5" y1="69.0" x2="122.5" y2="69.0" stroke="black" stroke-width="0.1" />
  <line x1="126.5" y1="69.0" x2="127.5" y2="69.0" stroke="black" stroke-width="0.1" />
  <line x1="124.5" y1="66.0" x2="124.5" y2="67.0" stroke="black" stroke-width="0.1" />
  <line x1="124.5" y1="71.0" x2="124.5" y2="72.0" stroke="black" stroke-width="0.1" />
  <circle cx="160.5" cy="100.0" r="2.5" fill="none" stroke="black" stroke-width="0.1" />
  <line x1="160.0" y1="100.0" x2="161.0" y2="100.0" stroke="black" stroke-width="0.1" />
  <line x1="160.5" y1="99.5" x2="160.5" y2="100.5" stroke="black" stroke-width="0.1" />
  <line x1="157.5" y1="100.0" x2="158.5" y2="100.0" stroke="black" stroke-width="0.1" />
  <line x1="162.5" y1="100.0" x2="163.5" y2="100.0" stroke="black" stroke-width="0.1" />
  <line x1="160.5" y1="97.0" x2="160.5" y2="98.0" stroke="black" stroke-width="0.1" />
  <line x1="160.5" y1="102.0" x2="160.5" y2="103.0" stroke="black" stroke-width="0.1" />
  <circle cx="124.5" cy="100.0" r="2.5" fill="none" stroke="black" stroke-width="0.1" />
  <line x1="124.0" y1="100.0" x2="125.0" y2="100.0" stroke="black" stroke-width="0.1" />
  <line x1="124.5" y1="99.5" x2="124.5" y2="100.5" stroke="black" stroke-width="0.1" />
  <line x1="121.5" y1="100.0" x2="122.5" y2="100.0" stroke="black" stroke-width="0.1" />
  <line x1="126.5" y1="100.0" x2="127.5" y2="100.0" stroke="black" stroke-width="0.1" />
  <line x1="124.5" y1="97.0" x2="124.5" y2="98.0" stroke="black" stroke-width="0.1" />
  <line x1="124.5" y1="102.0" x2="124.5" y2="103.0" stroke="black" stroke-width="0.1" />
  <circle cx="63.5" cy="150.0" r="2.5" fill="none" stroke="black" stroke-width="0.1" />
  <line x1="63.0" y1="150.0" x2="64.0" y2="150.0" stroke="black" stroke-width="0.1" />
  <line x1="63.5" y1="149.5" x2="63.5" y2="150.5" stroke="black" stroke-width="0.1" />
  <line x1="60.5" y1="150.0" x2="61.5" y2="150.0" stroke="black" stroke-width="0.1" />
  <line x1="65.5" y1="150.0" x2="66.5" y2="150.0" stroke="black" stroke-width="0.1" />
  <line x1="63.5" y1="147.0" x2="63.5" y2="148.0" stroke="black" stroke-width="0.1" />
  <line x1="63.5" y1="152.0" x2="63.5" y2="153.0" stroke="black" stroke-width="0.1" />
  <circle cx="31.5" cy="150.0" r="2.5" fill="none" stroke="black" stroke-width="0.1" />
  <line x1="31.0" y1="150.0" x2="32.0" y2="150.0" stroke="black" stroke-width="0.1" />
  <line x1="31.5" y1="149.5" x2="31.5" y2="150.5" stroke="black" stroke-width="0.1" />
  <line x1="28.5" y1="150.0" x2="29.5" y2="150.0" stroke="black" stroke-width="0.1" />
  <line x1="33.5" y1="150.0" x2="34.5" y2="150.0" stroke="black" stroke-width="0.1" />
  <line x1="31.5" y1="147.0" x2="31.5" y2="148.0" stroke="black" stroke-width="0.1" />
  <line x1="31.5" y1="152.0" x2="31.5" y2="153.0" stroke="black" stroke-width="0.1" />
  <circle cx="63.5" cy="230.0" r="2.5" fill="none" stroke="black" stroke-width="0.1" />
  <line x1="63.0" y1="230.0" x2="64.0" y2="230.0" stroke="black" stroke-width="0.1" />
  <line x1="63.5" y1="229.5" x2="63.5" y2="230.5" stroke="black" stroke-width="0.1" />
  <line x1="60.5" y1="230.0" x2="61.5" y2="230.0" stroke="black" stroke-width="0.1" />
  <line x1="65.5" y1="230.0" x2="66.5" y2="230.0" stroke="black" stroke-width="0.1" />
  <line x1="63.5" y1="227.0" x2="63.5" y2="228.0" stroke="black" stroke-width="0.1" />
  <line x1="63.5" y1="232.0" x2="63.5" y2="233.0" stroke="black" stroke-width="0.1" />
  <circle cx="31.5" cy="230.0" r="2.5" fill="none" stroke="black" stroke-width="0.1" />
  <line x1="31.0" y1="230.0" x2="32.0" y2="230.0" stroke="black" stroke-width="0.1" />
  <line x1="31.5" y1="229.5" x2="31.5" y2="230.5" stroke="black" stroke-width="0.1" />
  <line x1="28.5" y1="230.0" x2="29.5" y2="230.0" stroke="black" stroke-width="0.1" />
  <line x1="33.5" y1="230.0" x2="34.5" y2="230.0" stroke="black" stroke-width="0.1" />
  <line x1="31.5" y1="227.0" x2="31.5" y2="228.0" stroke="black" stroke-width="0.1" />
  <line x1="31.5" y1="232.0" x2="31.5" y2="233.0" stroke="black" stroke-width="0.1" />
  <circle cx="160.0" cy="105.5" r="2.5" fill="none" stroke="black" stroke-width="0.1" />
  <line x1="159.5" y1="105.5" x2="160.5" y2="105.5" stroke="black" stroke-width="0.1" />
  <line x1="160.0" y1="105.0" x2="160.0" y2="106.0" stroke="black" stroke-width="0.1" />
  <line x1="157.0" y1="105.5" x2="158.0" y2="105.5" stroke="black" stroke-width="0.1" />
  <line x1="162.0" y1="105.5" x2="163.0" y2="105.5" stroke="black" stroke-width="0.1" />
  <line x1="160.0" y1="102.5" x2="160.0" y2="103.5" stroke="black" stroke-width="0.1" />
  <line x1="160.0" y1="107.5" x2="160.0" y2="108.5" stroke="black" stroke-width="0.1" />
  <circle cx="125.0" cy="105.5" r="2.5" fill="none" stroke="black" stroke-width="0.1" />
  <line x1="124.5" y1="105.5" x2="125.5" y2="105.5" stroke="black" stroke-width="0.1" />
  <line x1="125.0" y1="105.0" x2="125.0" y2="106.0" stroke="black" stroke-width="0.1" />
  <line x1="122.0" y1="105.5" x2="123.0" y2="105.5" stroke="black" stroke-width="0.1" />
  <line x1="127.0" y1="105.5" x2="128.0" y2="105.5" stroke="black" stroke-width="0.1" />
  <line x1="125.0" y1="102.5" x2="125.0" y2="103.5" stroke="black" stroke-width="0.1" />
  <line x1="125.0" y1="107.5" x2="125.0" y2="108.5" stroke="black" stroke-width="0.1" />
  <circle cx="163.5" cy="64.0" r="2.5" fill="none" stroke="black" stroke-width="0.1" />
  <line x1="163.0" y1="64.0" x2="164.0" y2="64.0" stroke="black" stroke-width="0.1" />
  <line x1="163.5" y1="63.5" x2="163.5" y2="64.5" stroke="black" stroke-width="0.1" />
  <line x1="160.5" y1="64.0" x2="161.5" y2="64.0" stroke="black" stroke-width="0.1" />
  <line x1="165.5" y1="64.0" x2="166.5" y2="64.0" stroke="black" stroke-width="0.1" />
  <line x1="163.5" y1="61.0" x2="163.5" y2="62.0" stroke="black" stroke-width="0.1" />
  <line x1="163.5" y1="66.0" x2="163.5" y2="67.0" stroke="black" stroke-width="0.1" />
  <circle cx="121.5" cy="64.0" r="2.5" fill="none" stroke="black" stroke-width="0.1" />
  <line x1="121.0" y1="64.0" x2="122.0" y2="64.0" stroke="black" stroke-width="0.1" />
  <line x1="121.5" y1="63.5" x2="121.5" y2="64.5" stroke="black" stroke-width="0.1" />
  <line x1="118.5" y1="64.0" x2="119.5" y2="64.0" stroke="black" stroke-width="0.1" />
  <line x1="123.5" y1="64.0" x2="124.5" y2="64.0" stroke="black" stroke-width="0.1" />
  <line x1="121.5" y1="61.0" x2="121.5" y2="62.0" stroke="black" stroke-width="0.1" />
  <line x1="121.5" y1="66.0" x2="121.5" y2="67.0" stroke="black" stroke-width="0.1" />
  <circle cx="68.75" cy="117.0" r="2.5" fill="none" stroke="black" stroke-width="0.1" />
  <line x1="68.25" y1="117.0" x2="69.25" y2="117.0" stroke="black" stroke-width="0.1" />
  <line x1="68.75" y1="116.5" x2="68.75" y2="117.5" stroke="black" stroke-width="0.1" />
  <line x1="65.75" y1="117.0" x2="66.75" y2="117.0" stroke="black" stroke-width="0.1" />
  <line x1="70.75" y1="117.0" x2="71.75" y2="117.0" stroke="black" stroke-width="0.1" />
  <line x1="68.75" y1="114.0" x2="68.75" y2="115.0" stroke="black" stroke-width="0.1" />
  <line x1="68.75" y1="119.0" x2="68.75" y2="120.0" stroke="black" stroke-width="0.1" />
  <circle cx="26.25" cy="117.0" r="2.5" fill="none" stroke="black" stroke-width="0.1" />
  <line x1="25.75" y1="117.0" x2="26.75" y2="117.0" stroke="black" stroke-width="0.1" />
  <line x1="26.25" y1="116.5" x2="26.25" y2="117.5" stroke="black" stroke-width="0.1" />
  <line x1="23.25" y1="117.0" x2="24.25" y2="117.0" stroke="black" stroke-width="0.1" />
  <line x1="28.25" y1="117.0" x2="29.25" y2="117.0" stroke="black" stroke-width="0.1" />
  <line x1="26.25" y1="114.0" x2="26.25" y2="115.0" stroke="black" stroke-width="0.1" />
  <line x1="26.25" y1="119.0" x2="26.25" y2="120.0" stroke="black" stroke-width="0.1" />
  <circle cx="68.75" cy="156.0" r="2.5" fill="none" stroke="black" stroke-width="0.1" />
  <line x1="68.25" y1="156.0" x2="69.25" y2="156.0" stroke="black" stroke-width="0.1" />
  <line x1="68.75" y1="155.5" x2="68.75" y2="156.5" stroke="black" stroke-width="0.1" />
  <line x1="65.75" y1="156.0" x2="66.75" y2="156.0" stroke="black" stroke-width="0.1" />
  <line x1="70.75" y1="156.0" x2="71.75" y2="156.0" stroke="black" stroke-width="0.1" />
  <line x1="68.75" y1="153.0" x2="68.75" y2="154.0" stroke="black" stroke-width="0.1" />
  <line x1="68.75" y1="158.0" x2="68.75" y2="159.0" stroke="black" stroke-width="0.1" />
  <circle cx="26.25" cy="156.0" r="2.5" fill="none" stroke="black" stroke-width="0.1" />
  <line x1="25.75" y1="156.0" x2="26.75" y2="156.0" stroke="black" stroke-width="0.1" />
  <line x1="26.25" y1="155.5" x2="26.25" y2="156.5" stroke="black" stroke-width="0.1" />
  <line x1="23.25" y1="156.0" x2="24.25" y2="156.0" stroke="black" stroke-width="0.1" />
  <line x1="28.25" y1="156.0" x2="29.25" y2="156.0" stroke="black" stroke-width="0.1" />
  <line x1="26.25" y1="153.0" x2="26.25" y2="154.0" stroke="black" stroke-width="0.1" />
  <line x1="26.25" y1="158.0" x2="26.25" y2="159.0" stroke="black" stroke-width="0.1" />
</svg>
