<?xml version="1.0"?>
<!DOCTYPE svg PUBLIC "-//W3C//DTD SVG 1.1//EN"
"http://www.w3.org/Graphics/SVG/1.1/DTD/svg11.dtd">
<svg xmlns="http://www.w3.org/2000/svg" version="1.2" width="190.0mm" height="259.0mm" viewBox="0 0 190.0 259.0" >
  <line x1="95.0" y1="0.0" x2="95.0" y2="259.0" stroke="black" stroke-width="0.1" stroke-dasharray="4 4" />
  <line x1="47.5" y1="0.0" x2="47.5" y2="259.0" stroke="black" stroke-width="0.1" />
  <line x1="142.5" y1="0.0" x2="142.5" y2="259.0" stroke="black" stroke-width="0.1" />
  <line x1="95.0" y1="255.0" x2="180.0" y2="255.0" stroke="black" stroke-width="0.1" />
  <line x1="10.0" y1="5.0" x2="95.0" y2="5.0" stroke="black" stroke-width="0.1" />
  <circle cx="148.5" cy="92.0" r="2.5" fill="none" stroke="black" stroke-width="0.1" />
  <line x1="148.0" y1="92.0" x2="149.0" y2="92.0" stroke="black" stroke-width="0.1" />
  <line x1="148.5" y1="91.5" x2="148.5" y2="92.5" stroke="black" stroke-width="0.1" />
  <line x1="145.5" y1="92.0" x2="146.5" y2="92.0" stroke="black" stroke-width="0.1" />
  <line x1="150.5" y1="92.0" x2="151.5" y2="92.0" stroke="black" stroke-width="0.1" />
  <line x1="148.5" y1="89.0" x2="148.5" y2="90.0" stroke="black" stroke-width="0.1" />
  <line x1="148.5" y1="94.0" x2="148.5" y2="95.0" stroke="black" stroke-width="0.1" />
  <circle cx="136.5" cy="92.0" r="2.5" fill="none" stroke="black" stroke-width="0.1" />
  <line x1="136.0" y1="92.0" x2="137.0" y2="92.0" stroke="black" stroke-width="0.1" />
  <line x1="136.5" y1="91.5" x2="136.5" y2="92.5" stroke="black" stroke-width="0.1" />
  <line x1="133.5" y1="92.0" x2="134.5" y2="92.0" stroke="black" stroke-width="0.1" />
  <line x1="138.5" y1="92.0" x2="139.5" y2="92.0" stroke="black" stroke-width="0.1" />
  <line x1="136.5" y1="89.0" x2="136.5" y2="90.0" stroke="black" stroke-width="0.1" />
  <line x1="136.5" y1="94.0" x2="136.5" y2="95.0" stroke="black" stroke-width="0.1" />
  <circle cx="160.0" cy="157.0" r="2.5" fill="none" stroke="black" stroke-width="0.1" />
  <line x1="159.5" y1="157.0" x2="160.5" y2="157.0" stroke="black" stroke-width="0.1" />
  <line x1="160.0" y1="156.5" x2="160.0" y2="157.5" stroke="black" stroke-width="0.1" />
  <line x1="157.0" y1="157.0" x2="158.0" y2="157.0" stroke="black" stroke-width="0.1" />
  <line x1="162.0" y1="157.0" x2="163.0" y2="157.0" stroke="black" stroke-width="0.1" />
  <line x1="160.0" y1="154.0" x2="160.0" y2="155.0" stroke="black" stroke-width="0.1" />
  <line x1="160.0" y1="159.0" x2="160.0" y2="160.0" stroke="black" stroke-width="0.1" />
  <circle cx="125.0" cy="157.0" r="2.5" fill="none" stroke="black" stroke-width="0.1" />
  <line x1="124.5" y1="157.0" x2="125.5" y2="157.0" stroke="black" stroke-width="0.1" />
  <line x1="125.0" y1="156.5" x2="125.0" y2="157.5" stroke="black" stroke-width="0.1" />
  <line x1="122.0" y1="157.0" x2="123.0" y2="157.0" stroke="black" stroke-width="0.1" />
  <line x1="127.0" y1="157.0" x2="128.0" y2="157.0" stroke="black" stroke-width="0.1" />
  <line x1="125.0" y1="154.0" x2="125.0" y2="155.0" stroke="black" stroke-width="0.1" />
  <line x1="125.0" y1="159.0" x2="125.0" y2="160.0" stroke="black" stroke-width="0.1" />
  <circle cx="65.0" cy="57.0" r="2.5" fill="none" stroke="black" stroke-width="0.1" />
  <line x1="64.5" y1="57.0" x2="65.5" y2="57.0" stroke="black" stroke-width="0.1" />
  <line x1="65.0" y1="56.5" x2="65.0" y2="57.5" stroke="black" stroke-width="0.1" />
  <line x1="62.0" y1="57.0" x2="63.0" y2="57.0" stroke="black" stroke-width="0.1" />
  <line x1="67.0" y1="57.0" x2="68.0" y2="57.0" stroke="black" stroke-width="0.1" />
  <line x1="65.0" y1="54.0" x2="65.0" y2="55.0" stroke="black" stroke-width="0.1" />
  <line x1="65.0" y1="59.0" x2="65.0" y2="60.0" stroke="black" stroke-width="0.1" />
  <circle cx="30.0" cy="57.0" r="2.5" fill="none" stroke="black" stroke-width="0.1" />
  <line x1="29.5" y1="57.0" x2="30.5" y2="57.0" stroke="black" stroke-width="0.1" />
  <line x1="30.0" y1="56.5" x2="30.0" y2="57.5" stroke="black" stroke-width="0.1" />
  <line x1="27.0" y1="57.0" x2="28.0" y2="57.0" stroke="black" stroke-width="0.1" />
  <line x1="32.0" y1="57.0" x2="33.0" y2="57.0" stroke="black" stroke-width="0.1" />
  <line x1="30.0" y1="54.0" x2="30.0" y2="55.0" stroke="black" stroke-width="0.1" />
  <line x1="30.0" y1="59.0" x2="30.0" y2="60.0" stroke="black" stroke-width="0.1" />
  <circle cx="65.0" cy="177.0" r="2.5" fill="none" stroke="black" stroke-width="0.1" />
  <line x1="64.5" y1="177.0" x2="65.5" y2="177.0" stroke="black" stroke-width="0.1" />
  <line x1="65.0" y1="176.5" x2="65.0" y2="177.5" stroke="black" stroke-width="0.1" />
  <line x1="62.0" y1="177.0" x2="63.0" y2="177.0" stroke="black" stroke-width="0.1" />
  <line x1="67.0" y1="177.0" x2="68.0" y2="177.0" stroke="black" stroke-width="0.1" />
  <line x1="65.0" y1="174.0" x2="65.0" y2="175.0" stroke="black" stroke-width="0.1" />
  <line x1="65.0" y1="179.0" x2="65.0" y2="180.0" stroke="black" stroke-width="0.1" />
  <circle cx="30.0" cy="177.0" r="2.5" fill="none" stroke="black" stroke-width="0.1" />
  <line x1="29.5" y1="177.0" x2="30.5" y2="177.0" stroke="black" stroke-width="0.1" />
  <line x1="30.0" y1="176.5" x2="30.0" y2="177.5" stroke="black" stroke-width="0.1" />
  <line x1="27.0" y1="177.0" x2="28.0" y2="177.0" stroke="black" stroke-width="0.1" />
  <line x1="32.0" y1="177.0" x2="33.0" y2="177.0" stroke="black" stroke-width="0.1" />
  <line x1="30.0" y1="174.0" x2="30.0" y2="175.0" stroke="black" stroke-width="0.1" />
  <line x1="30.0" y1="179.0" x2="30.0" y2="180.0" stroke="black" stroke-width="0.1" />
</svg>
