<?xml version="1.0"?>
<!DOCTYPE svg PUBLIC "-//W3C//DTD SVG 1.1//EN"
"http://www.w3.org/Graphics/SVG/1.1/DTD/svg11.dtd">
<svg xmlns="http://www.w3.org/2000/svg" version="1.2" width="190.0mm" height="518.0mm" viewBox="0 0 190.0 518.0" >
  <line x1="47.5" y1="0.0" x2="47.5" y2="518.0" stroke="black" stroke-width="0.1" />
  <line x1="142.5" y1="0.0" x2="142.5" y2="518.0" stroke="black" stroke-width="0.1" />
  <line x1="10.0" y1="255.0" x2="180.0" y2="255.0" stroke="black" stroke-width="0.1" />
  <line x1="5.0" y1="255.0" x2="15.0" y2="255.0" stroke="black" stroke-width="0.1" />
  <line x1="10.0" y1="250.0" x2="10.0" y2="260.0" stroke="black" stroke-width="0.1" />
  <line x1="175.0" y1="255.0" x2="185.0" y2="255.0" stroke="black" stroke-width="0.1" />
  <line x1="180.0" y1="250.0" x2="180.0" y2="260.0" stroke="black" stroke-width="0.1" />
  <line x1="10.0" y1="265.0" x2="180.0" y2="265.0" stroke="black" stroke-width="0.1" />
  <line x1="5.0" y1="265.0" x2="15.0" y2="265.0" stroke="black" stroke-width="0.1" />
  <line x1="10.0" y1="260.0" x2="10.0" y2="270.0" stroke="black" stroke-width="0.1" />
  <line x1="175.0" y1="265.0" x2="185.0" y2="265.0" stroke="black" stroke-width="0.1" />
  <line x1="180.0" y1="260.0" x2="180.0" y2="270.0" stroke="black" stroke-width="0.1" />
  <circle cx="53.5" cy="92.0" r="2.5" fill="none" stroke="black" stroke-width="0.1" />
  <line x1="48.5" y1="92.0" x2="58.5" y2="92.0" stroke="black" stroke-width="0.1" />
  <line x1="53.5" y1="87.0" x2="53.5" y2="97.0" stroke="black" stroke-width="0.1" />
  <circle cx="148.5" cy="92.0" r="2.5" fill="none" stroke="black" stroke-width="0.1" />
  <line x1="143.5" y1="92.0" x2="153.5" y2="92.0" stroke="black" stroke-width="0.1" />
  <line x1="148.5" y1="87.0" x2="148.5" y2="97.0" stroke="black" stroke-width="0.1" />
  <circle cx="41.5" cy="92.0" r="2.5" fill="none" stroke="black" stroke-width="0.1" />
  <line x1="36.5" y1="92.0" x2="46.5" y2="92.0" stroke="black" stroke-width="0.1" />
  <line x1="41.5" y1="87.0" x2="41.5" y2="97.0" stroke="black" stroke-width="0.1" />
  <circle cx="136.5" cy="92.0" r="2.5" fill="none" stroke="black" stroke-width="0.1" />
  <line x1="131.5" y1="92.0" x2="141.5" y2="92.0" stroke="black" stroke-width="0.1" />
  <line x1="136.5" y1="87.0" x2="136.5" y2="97.0" stroke="black" stroke-width="0.1" />
  <circle cx="65.0" cy="157.0" r="2.5" fill="none" stroke="black" stroke-width="0.1" />
  <line x1="60.0" y1="157.0" x2="70.0" y2="157.0" stroke="black" stroke-width="0.1" />
  <line x1="65.0" y1="152.0" x2="65.0" y2="162.0" stroke="black" stroke-width="0.1" />
  <circle cx="160.0" cy="157.0" r="2.5" fill="none" stroke="black" stroke-width="0.1" />
  <line x1="155.0" y1="157.0" x2="165.0" y2="157.0" stroke="black" stroke-width="0.1" />
  <line x1="160.0" y1="152.0" x2="160.0" y2="162.0" stroke="black" stroke-width="0.1" />
  <circle cx="30.0" cy="157.0" r="2.5" fill="none" stroke="black" stroke-width="0.1" />
  <line x1="25.0" y1="157.0" x2="35.0" y2="157.0" stroke="black" stroke-width="0.1" />
  <line x1="30.0" y1="152.0" x2="30.0" y2="162.0" stroke="black" stroke-width="0.1" />
  <circle cx="125.0" cy="157.0" r="2.5" fill="none" stroke="black" stroke-width="0.1" />
  <line x1="120.0" y1="157.0" x2="130.0" y2="157.0" stroke="black" stroke-width="0.1" />
  <line x1="125.0" y1="152.0" x2="125.0" y2="162.0" stroke="black" stroke-width="0.1" />
  <circle cx="65.0" cy="317.0" r="2.5" fill="none" stroke="black" stroke-width="0.1" />
  <line x1="60.0" y1="317.0" x2="70.0" y2="317.0" stroke="black" stroke-width="0.1" />
  <line x1="65.0" y1="312.0" x2="65.0" y2="322.0" stroke="black" stroke-width="0.1" />
  <circle cx="160.0" cy="317.0" r="2.5" fill="none" stroke="black" stroke-width="0.1" />
  <line x1="155.0" y1="317.0" x2="165.0" y2="317.0" stroke="black" stroke-width="0.1" />
  <line x1="160.0" y1="312.0" x2="160.0" y2="322.0" stroke="black" stroke-width="0.1" />
  <circle cx="30.0" cy="317.0" r="2.5" fill="none" stroke="black" stroke-width="0.1" />
  <line x1="25.0" y1="317.0" x2="35.0" y2="317.0" stroke="black" stroke-width="0.1" />
  <line x1="30.0" y1="312.0" x2="30.0" y2="322.0" stroke="black" stroke-width="0.1" />
  <circle cx="125.0" cy="317.0" r="2.5" fill="none" stroke="black" stroke-width="0.1" />
  <line x1="120.0" y1="317.0" x2="130.0" y2="317.0" stroke="black" stroke-width="0.1" />
  <line x1="125.0" y1="312.0" x2="125.0" y2="322.0" stroke="black" stroke-width="0.1" />
  <circle cx="65.0" cy="437.0" r="2.5" fill="none" stroke="black" stroke-width="0.1" />
  <line x1="60.0" y1="437.0" x2="70.0" y2="437.0" stroke="black" stroke-width="0.1" />
  <line x1="65.0" y1="432.0" x2="65.0" y2="442.0" stroke="black" stroke-width="0.1" />
  <circle cx="160.0" cy="437.0" r="2.5" fill="none" stroke="black" stroke-width="0.1" />
  <line x1="155.0" y1="437.0" x2="165.0" y2="437.0" stroke="black" stroke-width="0.1" />
  <line x1="160.0" y1="432.0" x2="160.0" y2="442.0" stroke="black" stroke-width="0.1" />
  <circle cx="30.0" cy="437.0" r="2.5" fill="none" stroke="black" stroke-width="0.1" />
  <line x1="25.0" y1="437.0" x2="35.0" y2="437.0" stroke="black" stroke-width="0.1" />
  <line x1="30.0" y1="432.0" x2="30.0" y2="442.0" stroke="black" stroke-width="0.1" />
  <circle cx="125.0" cy="437.0" r="2.5" fill="none" stroke="black" stroke-width="0.1" />
  <line x1="120.0" y1="437.0" x2="130.0" y2="437.0" stroke="black" stroke-width="0.1" />
  <line x1="125.0" y1="432.0" x2="125.0" y2="442.0" stroke="black" stroke-width="0.1" />
</svg>
