<?xml version="1.0"?>
<!DOCTYPE svg PUBLIC "-//W3C//DTD SVG 1.1//EN"
"http://www.w3.org/Graphics/SVG/1.1/DTD/svg11.dtd">
<svg xmlns="http://www.w3.org/2000/svg" version="1.2" width="192.000000mm" height="259.000000mm" viewBox="0 0 192.000000 259.000000" style="background-color:white" >
<line x1="48.000000" y1="0.000000" x2="48.000000" y2="259.000000" stroke="black" stroke-width="0.1" />
<line x1="144.000000" y1="0.000000" x2="144.000000" y2="259.000000" stroke="black" stroke-width="0.1" />
<line x1="104.000000" y1="255.000000" x2="184.000000" y2="255.000000" stroke="black" stroke-width="0.1" />
<line x1="8.000000" y1="5.000000" x2="88.000000" y2="5.000000" stroke="black" stroke-width="0.1" />
<line x1="96.000000" y1="0.000000" x2="96.000000" y2="259.000000" stroke="black" stroke-width="0.1" stroke-dasharray="2 2" />
<line x1="0.000000" y1="259.000000" x2="96.000000" y2="259.000000" stroke="black" stroke-width="0.1" stroke-dasharray="2 2" />
<line x1="96.000000" y1="0.000000" x2="192.000000" y2="0.000000" stroke="black" stroke-width="0.1" stroke-dasharray="2 2" />
<line x1="48.000000" y1="7.000000" x2="41.000000" y2="0.000000" stroke="black" stroke-width="0.1" stroke-dasharray="2 2" />
<line x1="48.000000" y1="7.000000" x2="55.000000" y2="0.000000" stroke="black" stroke-width="0.1" stroke-dasharray="2 2" />
<line x1="144.000000" y1="253.000000" x2="138.000000" y2="259.000000" stroke="black" stroke-width="0.1" stroke-dasharray="2 2" />
<line x1="144.000000" y1="253.000000" x2="150.000000" y2="259.000000" stroke="black" stroke-width="0.1" stroke-dasharray="2 2" />
<text x="83.000000" y="130.000000" font-family="Arial" font-size="8" text-anchor="middle" dominant-baseline="middle" transform="rotate(90 83.000000 130.000000)" >Tyrolia Tyrolia Common 271, Heel</text>
<text x="179.000000" y="130.000000" font-family="Arial" font-size="8" text-anchor="middle" dominant-baseline="middle" transform="rotate(90 179.000000 130.000000)" >Tyrolia Tyrolia Common 271, Toe</text>
<line x1="104.000000" y1="134.500000" x2="104.000000" y2="255.000000" stroke="black" stroke-width="0.1" />
<line x1="101.500000" y1="134.500000" x2="106.500000" y2="134.500000" stroke="black" stroke-width="0.1" />
<line x1="104.000000" y1="134.500000" x2="101.500000" y2="137.000000" stroke="black" stroke-width="0.1" />
<line x1="104.000000" y1="134.500000" x2="106.500000" y2="137.000000" stroke="black" stroke-width="0.1" />
<line x1="101.500000" y1="255.000000" x2="106.500000" y2="255.000000" stroke="black" stroke-width="0.1" />
<line x1="104.000000" y1="255.000000" x2="101.500000" y2="252.500000" stroke="black" stroke-width="0.1" />
<line x1="104.000000" y1="255.000000" x2="106.500000" y2="252.500000" stroke="black" stroke-width="0.1" />
<text x="106.500000" y="194.750000" font-family="Arial" font-size="4" text-anchor="middle" dominant-baseline="middle" transform="rotate(90 106.500000 194.750000)" >120.5 mm</text>
<line x1="114.000000" y1="79.500000" x2="114.000000" y2="134.500000" stroke="black" stroke-width="0.1" />
<line x1="111.500000" y1="79.500000" x2="116.500000" y2="79.500000" stroke="black" stroke-width="0.1" />
<line x1="114.000000" y1="79.500000" x2="111.500000" y2="82.000000" stroke="black" stroke-width="0.1" />
<line x1="114.000000" y1="79.500000" x2="116.500000" y2="82.000000" stroke="black" stroke-width="0.1" />
<line x1="111.500000" y1="134.500000" x2="116.500000" y2="134.500000" stroke="black" stroke-width="0.1" />
<line x1="114.000000" y1="134.500000" x2="111.500000" y2="132.000000" stroke="black" stroke-width="0.1" />
<line x1="114.000000" y1="134.500000" x2="116.500000" y2="132.000000" stroke="black" stroke-width="0.1" />
<text x="116.500000" y="107.000000" font-family="Arial" font-size="4" text-anchor="middle" dominant-baseline="middle" transform="rotate(90 116.500000 107.000000)" >55.0 mm</text>
<line x1="8.000000" y1="5.000000" x2="8.000000" y2="123.500000" stroke="black" stroke-width="0.1" />
<line x1="5.500000" y1="5.000000" x2="10.500000" y2="5.000000" stroke="black" stroke-width="0.1" />
<line x1="8.000000" y1="5.000000" x2="5.500000" y2="7.500000" stroke="black" stroke-width="0.1" />
<line x1="8.000000" y1="5.000000" x2="10.500000" y2="7.500000" stroke="black" stroke-width="0.1" />
<line x1="5.500000" y1="123.500000" x2="10.500000" y2="123.500000" stroke="black" stroke-width="0.1" />
<line x1="8.000000" y1="123.500000" x2="5.500000" y2="121.000000" stroke="black" stroke-width="0.1" />
<line x1="8.000000" y1="123.500000" x2="10.500000" y2="121.000000" stroke="black" stroke-width="0.1" />
<text x="10.500000" y="64.250000" font-family="Arial" font-size="4" text-anchor="middle" dominant-baseline="middle" transform="rotate(90 10.500000 64.250000)" >118.5 mm</text>
<line x1="18.000000" y1="123.500000" x2="18.000000" y2="218.500000" stroke="black" stroke-width="0.1" />
<line x1="15.500000" y1="123.500000" x2="20.500000" y2="123.500000" stroke="black" stroke-width="0.1" />
<line x1="18.000000" y1="123.500000" x2="15.500000" y2="126.000000" stroke="black" stroke-width="0.1" />
<line x1="18.000000" y1="123.500000" x2="20.500000" y2="126.000000" stroke="black" stroke-width="0.1" />
<line x1="15.500000" y1="218.500000" x2="20.500000" y2="218.500000" stroke="black" stroke-width="0.1" />
<line x1="18.000000" y1="218.500000" x2="15.500000" y2="216.000000" stroke="black" stroke-width="0.1" />
<line x1="18.000000" y1="218.500000" x2="20.500000" y2="216.000000" stroke="black" stroke-width="0.1" />
<text x="20.500000" y="171.000000" font-family="Arial" font-size="4" text-anchor="middle" dominant-baseline="middle" transform="rotate(90 20.500000 171.000000)" >95.0 mm</text>
<line x1="124.000000" y1="69.500000" x2="164.000000" y2="69.500000" stroke="black" stroke-width="0.1" />
<line x1="124.000000" y1="67.000000" x2="124.000000" y2="72.000000" stroke="black" stroke-width="0.1" />
<line x1="124.000000" y1="69.500000" x2="126.500000" y2="72.000000" stroke="black" stroke-width="0.1" />
<line x1="124.000000" y1="69.500000" x2="126.500000" y2="67.000000" stroke="black" stroke-width="0.1" />
<line x1="164.000000" y1="67.000000" x2="164.000000" y2="72.000000" stroke="black" stroke-width="0.1" />
<line x1="164.000000" y1="69.500000" x2="161.500000" y2="72.000000" stroke="black" stroke-width="0.1" />
<line x1="164.000000" y1="69.500000" x2="161.500000" y2="67.000000" stroke="black" stroke-width="0.1" />
<text x="149.000000" y="59.500000" font-family="Arial" font-size="4" text-anchor="middle" dominant-baseline="middle" transform="rotate(90 149.000000 59.500000)" >40.0 mm</text>
<line x1="124.000000" y1="124.500000" x2="164.000000" y2="124.500000" stroke="black" stroke-width="0.1" />
<line x1="124.000000" y1="122.000000" x2="124.000000" y2="127.000000" stroke="black" stroke-width="0.1" />
<line x1="124.000000" y1="124.500000" x2="126.500000" y2="127.000000" stroke="black" stroke-width="0.1" />
<line x1="124.000000" y1="124.500000" x2="126.500000" y2="122.000000" stroke="black" stroke-width="0.1" />
<line x1="164.000000" y1="122.000000" x2="164.000000" y2="127.000000" stroke="black" stroke-width="0.1" />
<line x1="164.000000" y1="124.500000" x2="161.500000" y2="127.000000" stroke="black" stroke-width="0.1" />
<line x1="164.000000" y1="124.500000" x2="161.500000" y2="122.000000" stroke="black" stroke-width="0.1" />
<text x="149.000000" y="114.500000" font-family="Arial" font-size="4" text-anchor="middle" dominant-baseline="middle" transform="rotate(90 149.000000 114.500000)" >40.0 mm</text>
<line x1="38.000000" y1="133.500000" x2="58.000000" y2="133.500000" stroke="black" stroke-width="0.1" />
<line x1="38.000000" y1="131.000000" x2="38.000000" y2="136.000000" stroke="black" stroke-width="0.1" />
<line x1="38.000000" y1="133.500000" x2="40.500000" y2="136.000000" stroke="black" stroke-width="0.1" />
<line x1="38.000000" y1="133.500000" x2="40.500000" y2="131.000000" stroke="black" stroke-width="0.1" />
<line x1="58.000000" y1="131.000000" x2="58.000000" y2="136.000000" stroke="black" stroke-width="0.1" />
<line x1="58.000000" y1="133.500000" x2="55.500000" y2="136.000000" stroke="black" stroke-width="0.1" />
<line x1="58.000000" y1="133.500000" x2="55.500000" y2="131.000000" stroke="black" stroke-width="0.1" />
<text x="53.000000" y="143.500000" font-family="Arial" font-size="4" text-anchor="middle" dominant-baseline="middle" transform="rotate(90 53.000000 143.500000)" >20.0 mm</text>
<line x1="26.375000" y1="228.500000" x2="69.625000" y2="228.500000" stroke="black" stroke-width="0.1" />
<line x1="26.375000" y1="226.000000" x2="26.375000" y2="231.000000" stroke="black" stroke-width="0.1" />
<line x1="26.375000" y1="228.500000" x2="28.875000" y2="231.000000" stroke="black" stroke-width="0.1" />
<line x1="26.375000" y1="228.500000" x2="28.875000" y2="226.000000" stroke="black" stroke-width="0.1" />
<line x1="69.625000" y1="226.000000" x2="69.625000" y2="231.000000" stroke="black" stroke-width="0.1" />
<line x1="69.625000" y1="228.500000" x2="67.125000" y2="231.000000" stroke="black" stroke-width="0.1" />
<line x1="69.625000" y1="228.500000" x2="67.125000" y2="226.000000" stroke="black" stroke-width="0.1" />
<text x="53.000000" y="238.500000" font-family="Arial" font-size="4" text-anchor="middle" dominant-baseline="middle" transform="rotate(90 53.000000 238.500000)" >43.3 mm</text>
<circle cx="124.000000" cy="79.500000" r="2.500000" fill="none" stroke="black" stroke-width="0.1" />
<circle cx="124.000000" cy="79.500000" r="0.250000" fill="none" stroke="black" stroke-width="0.1" />
<line x1="123.750000" y1="79.500000" x2="123.500000" y2="79.500000" stroke="black" stroke-width="0.1" />
<line x1="124.250000" y1="79.500000" x2="124.500000" y2="79.500000" stroke="black" stroke-width="0.1" />
<line x1="124.000000" y1="79.250000" x2="124.000000" y2="79.000000" stroke="black" stroke-width="0.1" />
<line x1="124.000000" y1="79.750000" x2="124.000000" y2="80.000000" stroke="black" stroke-width="0.1" />
<line x1="121.000000" y1="79.500000" x2="122.000000" y2="79.500000" stroke="black" stroke-width="0.1" />
<line x1="126.000000" y1="79.500000" x2="127.000000" y2="79.500000" stroke="black" stroke-width="0.1" />
<line x1="124.000000" y1="76.500000" x2="124.000000" y2="77.500000" stroke="black" stroke-width="0.1" />
<line x1="124.000000" y1="81.500000" x2="124.000000" y2="82.500000" stroke="black" stroke-width="0.1" />
<circle cx="164.000000" cy="79.500000" r="2.500000" fill="none" stroke="black" stroke-width="0.1" />
<circle cx="164.000000" cy="79.500000" r="0.250000" fill="none" stroke="black" stroke-width="0.1" />
<line x1="163.750000" y1="79.500000" x2="163.500000" y2="79.500000" stroke="black" stroke-width="0.1" />
<line x1="164.250000" y1="79.500000" x2="164.500000" y2="79.500000" stroke="black" stroke-width="0.1" />
<line x1="164.000000" y1="79.250000" x2="164.000000" y2="79.000000" stroke="black" stroke-width="0.1" />
<line x1="164.000000" y1="79.750000" x2="164.000000" y2="80.000000" stroke="black" stroke-width="0.1" />
<line x1="161.000000" y1="79.500000" x2="162.000000" y2="79.500000" stroke="black" stroke-width="0.1" />
<line x1="166.000000" y1="79.500000" x2="167.000000" y2="79.500000" stroke="black" stroke-width="0.1" />
<line x1="164.000000" y1="76.500000" x2="164.000000" y2="77.500000" stroke="black" stroke-width="0.1" />
<line x1="164.000000" y1="81.500000" x2="164.000000" y2="82.500000" stroke="black" stroke-width="0.1" />
<circle cx="124.000000" cy="134.500000" r="2.500000" fill="none" stroke="black" stroke-width="0.1" />
<circle cx="124.000000" cy="134.500000" r="0.250000" fill="none" stroke="black" stroke-width="0.1" />
<line x1="123.750000" y1="134.500000" x2="123.500000" y2="134.500000" stroke="black" stroke-width="0.1" />
<line x1="124.250000" y1="134.500000" x2="124.500000" y2="134.500000" stroke="black" stroke-width="0.1" />
<line x1="124.000000" y1="134.250000" x2="124.000000" y2="134.000000" stroke="black" stroke-width="0.1" />
<line x1="124.000000" y1="134.750000" x2="124.000000" y2="135.000000" stroke="black" stroke-width="0.1" />
<line x1="121.000000" y1="134.500000" x2="122.000000" y2="134.500000" stroke="black" stroke-width="0.1" />
<line x1="126.000000" y1="134.500000" x2="127.000000" y2="134.500000" stroke="black" stroke-width="0.1" />
<line x1="124.000000" y1="131.500000" x2="124.000000" y2="132.500000" stroke="black" stroke-width="0.1" />
<line x1="124.000000" y1="136.500000" x2="124.000000" y2="137.500000" stroke="black" stroke-width="0.1" />
<circle cx="164.000000" cy="134.500000" r="2.500000" fill="none" stroke="black" stroke-width="0.1" />
<circle cx="164.000000" cy="134.500000" r="0.250000" fill="none" stroke="black" stroke-width="0.1" />
<line x1="163.750000" y1="134.500000" x2="163.500000" y2="134.500000" stroke="black" stroke-width="0.1" />
<line x1="164.250000" y1="134.500000" x2="164.500000" y2="134.500000" stroke="black" stroke-width="0.1" />
<line x1="164.000000" y1="134.250000" x2="164.000000" y2="134.000000" stroke="black" stroke-width="0.1" />
<line x1="164.000000" y1="134.750000" x2="164.000000" y2="135.000000" stroke="black" stroke-width="0.1" />
<line x1="161.000000" y1="134.500000" x2="162.000000" y2="134.500000" stroke="black" stroke-width="0.1" />
<line x1="166.000000" y1="134.500000" x2="167.000000" y2="134.500000" stroke="black" stroke-width="0.1" />
<line x1="164.000000" y1="131.500000" x2="164.000000" y2="132.500000" stroke="black" stroke-width="0.1" />
<line x1="164.000000" y1="136.500000" x2="164.000000" y2="137.500000" stroke="black" stroke-width="0.1" />
<circle cx="38.000000" cy="123.500000" r="2.500000" fill="none" stroke="black" stroke-width="0.1" />
<circle cx="38.000000" cy="123.500000" r="0.250000" fill="none" stroke="black" stroke-width="0.1" />
<line x1="37.750000" y1="123.500000" x2="37.500000" y2="123.500000" stroke="black" stroke-width="0.1" />
<line x1="38.250000" y1="123.500000" x2="38.500000" y2="123.500000" stroke="black" stroke-width="0.1" />
<line x1="38.000000" y1="123.250000" x2="38.000000" y2="123.000000" stroke="black" stroke-width="0.1" />
<line x1="38.000000" y1="123.750000" x2="38.000000" y2="124.000000" stroke="black" stroke-width="0.1" />
<line x1="35.000000" y1="123.500000" x2="36.000000" y2="123.500000" stroke="black" stroke-width="0.1" />
<line x1="40.000000" y1="123.500000" x2="41.000000" y2="123.500000" stroke="black" stroke-width="0.1" />
<line x1="38.000000" y1="120.500000" x2="38.000000" y2="121.500000" stroke="black" stroke-width="0.1" />
<line x1="38.000000" y1="125.500000" x2="38.000000" y2="126.500000" stroke="black" stroke-width="0.1" />
<circle cx="58.000000" cy="123.500000" r="2.500000" fill="none" stroke="black" stroke-width="0.1" />
<circle cx="58.000000" cy="123.500000" r="0.250000" fill="none" stroke="black" stroke-width="0.1" />
<line x1="57.750000" y1="123.500000" x2="57.500000" y2="123.500000" stroke="black" stroke-width="0.1" />
<line x1="58.250000" y1="123.500000" x2="58.500000" y2="123.500000" stroke="black" stroke-width="0.1" />
<line x1="58.000000" y1="123.250000" x2="58.000000" y2="123.000000" stroke="black" stroke-width="0.1" />
<line x1="58.000000" y1="123.750000" x2="58.000000" y2="124.000000" stroke="black" stroke-width="0.1" />
<line x1="55.000000" y1="123.500000" x2="56.000000" y2="123.500000" stroke="black" stroke-width="0.1" />
<line x1="60.000000" y1="123.500000" x2="61.000000" y2="123.500000" stroke="black" stroke-width="0.1" />
<line x1="58.000000" y1="120.500000" x2="58.000000" y2="121.500000" stroke="black" stroke-width="0.1" />
<line x1="58.000000" y1="125.500000" x2="58.000000" y2="126.500000" stroke="black" stroke-width="0.1" />
<circle cx="26.375000" cy="218.500000" r="2.500000" fill="none" stroke="black" stroke-width="0.1" />
<circle cx="26.375000" cy="218.500000" r="0.250000" fill="none" stroke="black" stroke-width="0.1" />
<line x1="26.125000" y1="218.500000" x2="25.875000" y2="218.500000" stroke="black" stroke-width="0.1" />
<line x1="26.625000" y1="218.500000" x2="26.875000" y2="218.500000" stroke="black" stroke-width="0.1" />
<line x1="26.375000" y1="218.250000" x2="26.375000" y2="218.000000" stroke="black" stroke-width="0.1" />
<line x1="26.375000" y1="218.750000" x2="26.375000" y2="219.000000" stroke="black" stroke-width="0.1" />
<line x1="23.375000" y1="218.500000" x2="24.375000" y2="218.500000" stroke="black" stroke-width="0.1" />
<line x1="28.375000" y1="218.500000" x2="29.375000" y2="218.500000" stroke="black" stroke-width="0.1" />
<line x1="26.375000" y1="215.500000" x2="26.375000" y2="216.500000" stroke="black" stroke-width="0.1" />
<line x1="26.375000" y1="220.500000" x2="26.375000" y2="221.500000" stroke="black" stroke-width="0.1" />
<circle cx="69.625000" cy="218.500000" r="2.500000" fill="none" stroke="black" stroke-width="0.1" />
<circle cx="69.625000" cy="218.500000" r="0.250000" fill="none" stroke="black" stroke-width="0.1" />
<line x1="69.375000" y1="218.500000" x2="69.125000" y2="218.500000" stroke="black" stroke-width="0.1" />
<line x1="69.875000" y1="218.500000" x2="70.125000" y2="218.500000" stroke="black" stroke-width="0.1" />
<line x1="69.625000" y1="218.250000" x2="69.625000" y2="218.000000" stroke="black" stroke-width="0.1" />
<line x1="69.625000" y1="218.750000" x2="69.625000" y2="219.000000" stroke="black" stroke-width="0.1" />
<line x1="66.625000" y1="218.500000" x2="67.625000" y2="218.500000" stroke="black" stroke-width="0.1" />
<line x1="71.625000" y1="218.500000" x2="72.625000" y2="218.500000" stroke="black" stroke-width="0.1" />
<line x1="69.625000" y1="215.500000" x2="69.625000" y2="216.500000" stroke="black" stroke-width="0.1" />
<line x1="69.625000" y1="220.500000" x2="69.625000" y2="221.500000" stroke="black" stroke-width="0.1" />
<text x="73.000000" y="25.000000" font-family="Arial" font-size="4" text-anchor="middle" dominant-baseline="middle" transform="rotate(90 73.000000 25.000000)" >Mid Sole Mount Line</text>
<text x="169.000000" y="235.000000" font-family="Arial" font-size="4" text-anchor="middle" dominant-baseline="middle" transform="rotate(90 169.000000 235.000000)" >Mid Sole Mount Line</text>
<text x="43.000000" y="235.000000" font-family="Arial" font-size="4" text-anchor="middle" dominant-baseline="middle" transform="rotate(90 43.000000 235.000000)" >Ski Center Line</text>
<text x="139.000000" y="25.000000" font-family="Arial" font-size="4" text-anchor="middle" dominant-baseline="middle" transform="rotate(90 139.000000 25.000000)" >Ski Center Line</text>
</svg>