<?xml version="1.0"?>
<!DOCTYPE svg PUBLIC "-//W3C//DTD SVG 1.1//EN"
"http://www.w3.org/Graphics/SVG/1.1/DTD/svg11.dtd">
<svg xmlns="http://www.w3.org/2000/svg" version="1.2" width="192.000000mm" height="259.000000mm" viewBox="0 0 192.000000 259.000000" style="background-color:white" >
<line x1="48.000000" y1="0.000000" x2="48.000000" y2="259.000000" stroke="black" stroke-width="0.1" />
<line x1="144.000000" y1="0.000000" x2="144.000000" y2="259.000000" stroke="black" stroke-width="0.1" />
<line x1="104.000000" y1="255.000000" x2="184.000000" y2="255.000000" stroke="black" stroke-width="0.1" />
<line x1="8.000000" y1="5.000000" x2="88.000000" y2="5.000000" stroke="black" stroke-width="0.1" />
<line x1="96.000000" y1="0.000000" x2="96.000000" y2="259.000000" stroke="black" stroke-width="0.1" stroke-dasharray="2 2" />
<line x1="0.000000" y1="259.000000" x2="96.000000" y2="259.000000" stroke="black" stroke-width="0.1" stroke-dasharray="2 2" />
<line x1="96.000000" y1="0.000000" x2="192.000000" y2="0.000000" stroke="black" stroke-width="0.1" stroke-dasharray="2 2" />
<line x1="48.000000" y1="7.000000" x2="41.000000" y2="0.000000" stroke="black" stroke-width="0.1" stroke-dasharray="2 2" />
<line x1="48.000000" y1="7.000000" x2="55.000000" y2="0.000000" stroke="black" stroke-width="0.1" stroke-dasharray="2 2" />
<line x1="144.000000" y1="253.000000" x2="138.000000" y2="259.000000" stroke="black" stroke-width="0.1" stroke-dasharray="2 2" />
<line x1="144.000000" y1="253.000000" x2="150.000000" y2="259.000000" stroke="black" stroke-width="0.1" stroke-dasharray="2 2" />
<text x="83.000000" y="130.000000" font-family="Arial" font-size="8" text-anchor="middle" dominant-baseline="middle" transform="rotate(90 83.000000 130.000000)" >Tyrolia Tyrolia Common 326, Heel</text>
<text x="179.000000" y="130.000000" font-family="Arial" font-size="8" text-anchor="middle" dominant-baseline="middle" transform="rotate(90 179.000000 130.000000)" >Tyrolia Tyrolia Common 326, Toe</text>
<line x1="104.000000" y1="107.000000" x2="104.000000" y2="255.000000" stroke="black" stroke-width="0.1" />
<line x1="101.500000" y1="107.000000" x2="106.500000" y2="107.000000" stroke="black" stroke-width="0.1" />
<line x1="104.000000" y1="107.000000" x2="101.500000" y2="109.500000" stroke="black" stroke-width="0.1" />
<line x1="104.000000" y1="107.000000" x2="106.500000" y2="109.500000" stroke="black" stroke-width="0.1" />
<line x1="101.500000" y1="255.000000" x2="106.500000" y2="255.000000" stroke="black" stroke-width="0.1" />
<line x1="104.000000" y1="255.000000" x2="101.500000" y2="252.500000" stroke="black" stroke-width="0.1" />
<line x1="104.000000" y1="255.000000" x2="106.500000" y2="252.500000" stroke="black" stroke-width="0.1" />
<text x="106.500000" y="181.000000" font-family="Arial" font-size="4" text-anchor="middle" dominant-baseline="middle" transform="rotate(90 106.500000 181.000000)" >148.0 mm</text>
<line x1="114.000000" y1="52.000000" x2="114.000000" y2="107.000000" stroke="black" stroke-width="0.1" />
<line x1="111.500000" y1="52.000000" x2="116.500000" y2="52.000000" stroke="black" stroke-width="0.1" />
<line x1="114.000000" y1="52.000000" x2="111.500000" y2="54.500000" stroke="black" stroke-width="0.1" />
<line x1="114.000000" y1="52.000000" x2="116.500000" y2="54.500000" stroke="black" stroke-width="0.1" />
<line x1="111.500000" y1="107.000000" x2="116.500000" y2="107.000000" stroke="black" stroke-width="0.1" />
<line x1="114.000000" y1="107.000000" x2="111.500000" y2="104.500000" stroke="black" stroke-width="0.1" />
<line x1="114.000000" y1="107.000000" x2="116.500000" y2="104.500000" stroke="black" stroke-width="0.1" />
<text x="116.500000" y="79.500000" font-family="Arial" font-size="4" text-anchor="middle" dominant-baseline="middle" transform="rotate(90 116.500000 79.500000)" >55.0 mm</text>
<line x1="8.000000" y1="5.000000" x2="8.000000" y2="151.000000" stroke="black" stroke-width="0.1" />
<line x1="5.500000" y1="5.000000" x2="10.500000" y2="5.000000" stroke="black" stroke-width="0.1" />
<line x1="8.000000" y1="5.000000" x2="5.500000" y2="7.500000" stroke="black" stroke-width="0.1" />
<line x1="8.000000" y1="5.000000" x2="10.500000" y2="7.500000" stroke="black" stroke-width="0.1" />
<line x1="5.500000" y1="151.000000" x2="10.500000" y2="151.000000" stroke="black" stroke-width="0.1" />
<line x1="8.000000" y1="151.000000" x2="5.500000" y2="148.500000" stroke="black" stroke-width="0.1" />
<line x1="8.000000" y1="151.000000" x2="10.500000" y2="148.500000" stroke="black" stroke-width="0.1" />
<text x="10.500000" y="78.000000" font-family="Arial" font-size="4" text-anchor="middle" dominant-baseline="middle" transform="rotate(90 10.500000 78.000000)" >146.0 mm</text>
<line x1="18.000000" y1="151.000000" x2="18.000000" y2="246.000000" stroke="black" stroke-width="0.1" />
<line x1="15.500000" y1="151.000000" x2="20.500000" y2="151.000000" stroke="black" stroke-width="0.1" />
<line x1="18.000000" y1="151.000000" x2="15.500000" y2="153.500000" stroke="black" stroke-width="0.1" />
<line x1="18.000000" y1="151.000000" x2="20.500000" y2="153.500000" stroke="black" stroke-width="0.1" />
<line x1="15.500000" y1="246.000000" x2="20.500000" y2="246.000000" stroke="black" stroke-width="0.1" />
<line x1="18.000000" y1="246.000000" x2="15.500000" y2="243.500000" stroke="black" stroke-width="0.1" />
<line x1="18.000000" y1="246.000000" x2="20.500000" y2="243.500000" stroke="black" stroke-width="0.1" />
<text x="20.500000" y="198.500000" font-family="Arial" font-size="4" text-anchor="middle" dominant-baseline="middle" transform="rotate(90 20.500000 198.500000)" >95.0 mm</text>
<line x1="124.000000" y1="42.000000" x2="164.000000" y2="42.000000" stroke="black" stroke-width="0.1" />
<line x1="124.000000" y1="39.500000" x2="124.000000" y2="44.500000" stroke="black" stroke-width="0.1" />
<line x1="124.000000" y1="42.000000" x2="126.500000" y2="44.500000" stroke="black" stroke-width="0.1" />
<line x1="124.000000" y1="42.000000" x2="126.500000" y2="39.500000" stroke="black" stroke-width="0.1" />
<line x1="164.000000" y1="39.500000" x2="164.000000" y2="44.500000" stroke="black" stroke-width="0.1" />
<line x1="164.000000" y1="42.000000" x2="161.500000" y2="44.500000" stroke="black" stroke-width="0.1" />
<line x1="164.000000" y1="42.000000" x2="161.500000" y2="39.500000" stroke="black" stroke-width="0.1" />
<text x="149.000000" y="32.000000" font-family="Arial" font-size="4" text-anchor="middle" dominant-baseline="middle" transform="rotate(90 149.000000 32.000000)" >40.0 mm</text>
<line x1="124.000000" y1="97.000000" x2="164.000000" y2="97.000000" stroke="black" stroke-width="0.1" />
<line x1="124.000000" y1="94.500000" x2="124.000000" y2="99.500000" stroke="black" stroke-width="0.1" />
<line x1="124.000000" y1="97.000000" x2="126.500000" y2="99.500000" stroke="black" stroke-width="0.1" />
<line x1="124.000000" y1="97.000000" x2="126.500000" y2="94.500000" stroke="black" stroke-width="0.1" />
<line x1="164.000000" y1="94.500000" x2="164.000000" y2="99.500000" stroke="black" stroke-width="0.1" />
<line x1="164.000000" y1="97.000000" x2="161.500000" y2="99.500000" stroke="black" stroke-width="0.1" />
<line x1="164.000000" y1="97.000000" x2="161.500000" y2="94.500000" stroke="black" stroke-width="0.1" />
<text x="149.000000" y="87.000000" font-family="Arial" font-size="4" text-anchor="middle" dominant-baseline="middle" transform="rotate(90 149.000000 87.000000)" >40.0 mm</text>
<line x1="38.000000" y1="161.000000" x2="58.000000" y2="161.000000" stroke="black" stroke-width="0.1" />
<line x1="38.000000" y1="158.500000" x2="38.000000" y2="163.500000" stroke="black" stroke-width="0.1" />
<line x1="38.000000" y1="161.000000" x2="40.500000" y2="163.500000" stroke="black" stroke-width="0.1" />
<line x1="38.000000" y1="161.000000" x2="40.500000" y2="158.500000" stroke="black" stroke-width="0.1" />
<line x1="58.000000" y1="158.500000" x2="58.000000" y2="163.500000" stroke="black" stroke-width="0.1" />
<line x1="58.000000" y1="161.000000" x2="55.500000" y2="163.500000" stroke="black" stroke-width="0.1" />
<line x1="58.000000" y1="161.000000" x2="55.500000" y2="158.500000" stroke="black" stroke-width="0.1" />
<text x="53.000000" y="171.000000" font-family="Arial" font-size="4" text-anchor="middle" dominant-baseline="middle" transform="rotate(90 53.000000 171.000000)" >20.0 mm</text>
<line x1="26.375000" y1="256.000000" x2="69.625000" y2="256.000000" stroke="black" stroke-width="0.1" />
<line x1="26.375000" y1="253.500000" x2="26.375000" y2="258.500000" stroke="black" stroke-width="0.1" />
<line x1="26.375000" y1="256.000000" x2="28.875000" y2="258.500000" stroke="black" stroke-width="0.1" />
<line x1="26.375000" y1="256.000000" x2="28.875000" y2="253.500000" stroke="black" stroke-width="0.1" />
<line x1="69.625000" y1="253.500000" x2="69.625000" y2="258.500000" stroke="black" stroke-width="0.1" />
<line x1="69.625000" y1="256.000000" x2="67.125000" y2="258.500000" stroke="black" stroke-width="0.1" />
<line x1="69.625000" y1="256.000000" x2="67.125000" y2="253.500000" stroke="black" stroke-width="0.1" />
<text x="53.000000" y="266.000000" font-family="Arial" font-size="4" text-anchor="middle" dominant-baseline="middle" transform="rotate(90 53.000000 266.000000)" >43.3 mm</text>
<circle cx="124.000000" cy="52.000000" r="2.500000" fill="none" stroke="black" stroke-width="0.1" />
<circle cx="124.000000" cy="52.000000" r="0.250000" fill="none" stroke="black" stroke-width="0.1" />
<line x1="123.750000" y1="52.000000" x2="123.500000" y2="52.000000" stroke="black" stroke-width="0.1" />
<line x1="124.250000" y1="52.000000" x2="124.500000" y2="52.000000" stroke="black" stroke-width="0.1" />
<line x1="124.000000" y1="51.750000" x2="124.000000" y2="51.500000" stroke="black" stroke-width="0.1" />
<line x1="124.000000" y1="52.250000" x2="124.000000" y2="52.500000" stroke="black" stroke-width="0.1" />
<line x1="121.000000" y1="52.000000" x2="122.000000" y2="52.000000" stroke="black" stroke-width="0.1" />
<line x1="126.000000" y1="52.000000" x2="127.000000" y2="52.000000" stroke="black" stroke-width="0.1" />
<line x1="124.000000" y1="49.000000" x2="124.000000" y2="50.000000" stroke="black" stroke-width="0.1" />
<line x1="124.000000" y1="54.000000" x2="124.000000" y2="55.000000" stroke="black" stroke-width="0.1" />
<circle cx="164.000000" cy="52.000000" r="2.500000" fill="none" stroke="black" stroke-width="0.1" />
<circle cx="164.000000" cy="52.000000" r="0.250000" fill="none" stroke="black" stroke-width="0.1" />
<line x1="163.750000" y1="52.000000" x2="163.500000" y2="52.000000" stroke="black" stroke-width="0.1" />
<line x1="164.250000" y1="52.000000" x2="164.500000" y2="52.000000" stroke="black" stroke-width="0.1" />
<line x1="164.000000" y1="51.750000" x2="164.000000" y2="51.500000" stroke="black" stroke-width="0.1" />
<line x1="164.000000" y1="52.250000" x2="164.000000" y2="52.500000" stroke="black" stroke-width="0.1" />
<line x1="161.000000" y1="52.000000" x2="162.000000" y2="52.000000" stroke="black" stroke-width="0.1" />
<line x1="166.000000" y1="52.000000" x2="167.000000" y2="52.000000" stroke="black" stroke-width="0.1" />
<line x1="164.000000" y1="49.000000" x2="164.000000" y2="50.000000" stroke="black" stroke-width="0.1" />
<line x1="164.000000" y1="54.000000" x2="164.000000" y2="55.000000" stroke="black" stroke-width="0.1" />
<circle cx="124.000000" cy="107.000000" r="2.500000" fill="none" stroke="black" stroke-width="0.1" />
<circle cx="124.000000" cy="107.000000" r="0.250000" fill="none" stroke="black" stroke-width="0.1" />
<line x1="123.750000" y1="107.000000" x2="123.500000" y2="107.000000" stroke="black" stroke-width="0.1" />
<line x1="124.250000" y1="107.000000" x2="124.500000" y2="107.000000" stroke="black" stroke-width="0.1" />
<line x1="124.000000" y1="106.750000" x2="124.000000" y2="106.500000" stroke="black" stroke-width="0.1" />
<line x1="124.000000" y1="107.250000" x2="124.000000" y2="107.500000" stroke="black" stroke-width="0.1" />
<line x1="121.000000" y1="107.000000" x2="122.000000" y2="107.000000" stroke="black" stroke-width="0.1" />
<line x1="126.000000" y1="107.000000" x2="127.000000" y2="107.000000" stroke="black" stroke-width="0.1" />
<line x1="124.000000" y1="104.000000" x2="124.000000" y2="105.000000" stroke="black" stroke-width="0.1" />
<line x1="124.000000" y1="109.000000" x2="124.000000" y2="110.000000" stroke="black" stroke-width="0.1" />
<circle cx="164.000000" cy="107.000000" r="2.500000" fill="none" stroke="black" stroke-width="0.1" />
<circle cx="164.000000" cy="107.000000" r="0.250000" fill="none" stroke="black" stroke-width="0.1" />
<line x1="163.750000" y1="107.000000" x2="163.500000" y2="107.000000" stroke="black" stroke-width="0.1" />
<line x1="164.250000" y1="107.000000" x2="164.500000" y2="107.000000" stroke="black" stroke-width="0.1" />
<line x1="164.000000" y1="106.750000" x2="164.000000" y2="106.500000" stroke="black" stroke-width="0.1" />
<line x1="164.000000" y1="107.250000" x2="164.000000" y2="107.500000" stroke="black" stroke-width="0.1" />
<line x1="161.000000" y1="107.000000" x2="162.000000" y2="107.000000" stroke="black" stroke-width="0.1" />
<line x1="166.000000" y1="107.000000" x2="167.000000" y2="107.000000" stroke="black" stroke-width="0.1" />
<line x1="164.000000" y1="104.000000" x2="164.000000" y2="105.000000" stroke="black" stroke-width="0.1" />
<line x1="164.000000" y1="109.000000" x2="164.000000" y2="110.000000" stroke="black" stroke-width="0.1" />
<circle cx="38.000000" cy="151.000000" r="2.500000" fill="none" stroke="black" stroke-width="0.1" />
<circle cx="38.000000" cy="151.000000" r="0.250000" fill="none" stroke="black" stroke-width="0.1" />
<line x1="37.750000" y1="151.000000" x2="37.500000" y2="151.000000" stroke="black" stroke-width="0.1" />
<line x1="38.250000" y1="151.000000" x2="38.500000" y2="151.000000" stroke="black" stroke-width="0.1" />
<line x1="38.000000" y1="150.750000" x2="38.000000" y2="150.500000" stroke="black" stroke-width="0.1" />
<line x1="38.000000" y1="151.250000" x2="38.000000" y2="151.500000" stroke="black" stroke-width="0.1" />
<line x1="35.000000" y1="151.000000" x2="36.000000" y2="151.000000" stroke="black" stroke-width="0.1" />
<line x1="40.000000" y1="151.000000" x2="41.000000" y2="151.000000" stroke="black" stroke-width="0.1" />
<line x1="38.000000" y1="148.000000" x2="38.000000" y2="149.000000" stroke="black" stroke-width="0.1" />
<line x1="38.000000" y1="153.000000" x2="38.000000" y2="154.000000" stroke="black" stroke-width="0.1" />
<circle cx="58.000000" cy="151.000000" r="2.500000" fill="none" stroke="black" stroke-width="0.1" />
<circle cx="58.000000" cy="151.000000" r="0.250000" fill="none" stroke="black" stroke-width="0.1" />
<line x1="57.750000" y1="151.000000" x2="57.500000" y2="151.000000" stroke="black" stroke-width="0.1" />
<line x1="58.250000" y1="151.000000" x2="58.500000" y2="151.000000" stroke="black" stroke-width="0.1" />
<line x1="58.000000" y1="150.750000" x2="58.000000" y2="150.500000" stroke="black" stroke-width="0.1" />
<line x1="58.000000" y1="151.250000" x2="58.000000" y2="151.500000" stroke="black" stroke-width="0.1" />
<line x1="55.000000" y1="151.000000" x2="56.000000" y2="151.000000" stroke="black" stroke-width="0.1" />
<line x1="60.000000" y1="151.000000" x2="61.000000" y2="151.000000" stroke="black" stroke-width="0.1" />
<line x1="58.000000" y1="148.000000" x2="58.000000" y2="149.000000" stroke="black" stroke-width="0.1" />
<line x1="58.000000" y1="153.000000" x2="58.000000" y2="154.000000" stroke="black" stroke-width="0.1" />
<circle cx="26.375000" cy="246.000000" r="2.500000" fill="none" stroke="black" stroke-width="0.1" />
<circle cx="26.375000" cy="246.000000" r="0.250000" fill="none" stroke="black" stroke-width="0.1" />
<line x1="26.125000" y1="246.000000" x2="25.875000" y2="246.000000" stroke="black" stroke-width="0.1" />
<line x1="26.625000" y1="246.000000" x2="26.875000" y2="246.000000" stroke="black" stroke-width="0.1" />
<line x1="26.375000" y1="245.750000" x2="26.375000" y2="245.500000" stroke="black" stroke-width="0.1" />
<line x1="26.375000" y1="246.250000" x2="26.375000" y2="246.500000" stroke="black" stroke-width="0.1" />
<line x1="23.375000" y1="246.000000" x2="24.375000" y2="246.000000" stroke="black" stroke-width="0.1" />
<line x1="28.375000" y1="246.000000" x2="29.375000" y2="246.000000" stroke="black" stroke-width="0.1" />
<line x1="26.375000" y1="243.000000" x2="26.375000" y2="244.000000" stroke="black" stroke-width="0.1" />
<line x1="26.375000" y1="248.000000" x2="26.375000" y2="249.000000" stroke="black" stroke-width="0.1" />
<circle cx="69.625000" cy="246.000000" r="2.500000" fill="none" stroke="black" stroke-width="0.1" />
<circle cx="69.625000" cy="246.000000" r="0.250000" fill="none" stroke="black" stroke-width="0.1" />
<line x1="69.375000" y1="246.000000" x2="69.125000" y2="246.000000" stroke="black" stroke-width="0.1" />
<line x1="69.875000" y1="246.000000" x2="70.125000" y2="246.000000" stroke="black" stroke-width="0.1" />
<line x1="69.625000" y1="245.750000" x2="69.625000" y2="245.500000" stroke="black" stroke-width="0.1" />
<line x1="69.625000" y1="246.250000" x2="69.625000" y2="246.500000" stroke="black" stroke-width="0.1" />
<line x1="66.625000" y1="246.000000" x2="67.625000" y2="246.000000" stroke="black" stroke-width="0.1" />
<line x1="71.625000" y1="246.000000" x2="72.625000" y2="246.000000" stroke="black" stroke-width="0.1" />
<line x1="69.625000" y1="243.000000" x2="69.625000" y2="244.000000" stroke="black" stroke-width="0.1" />
<line x1="69.625000" y1="248.000000" x2="69.625000" y2="249.000000" stroke="black" stroke-width="0.1" />
<text x="73.000000" y="25.000000" font-family="Arial" font-size="4" text-anchor="middle" dominant-baseline="middle" transform="rotate(90 73.000000 25.000000)" >Mid Sole Mount Line</text>
<text x="169.000000" y="235.000000" font-family="Arial" font-size="4" text-anchor="middle" dominant-baseline="middle" transform="rotate(90 169.000000 235.000000)" >Mid Sole Mount Line</text>
<text x="43.000000" y="235.000000" font-family="Arial" font-size="4" text-anchor="middle" dominant-baseline="middle" transform="rotate(90 43.000000 235.000000)" >Ski Center Line</text>
<text x="139.000000" y="25.000000" font-family="Arial" font-size="4" text-anchor="middle" dominant-baseline="middle" transform="rotate(90 139.000000 25.000000)" >Ski Center Line</text>
</svg>