<?xml version="1.0"?>
<!DOCTYPE svg PUBLIC "-//W3C//DTD SVG 1.1//EN"
"http://www.w3.org/Graphics/SVG/1.1/DTD/svg11.dtd">
<svg xmlns="http://www.w3.org/2000/svg" version="1.2" width="192.000000mm" height="259.000000mm" viewBox="0 0 192.000000 259.000000" style="background-color:white" >
<line x1="48.000000" y1="0.000000" x2="48.000000" y2="259.000000" stroke="black" stroke-width="0.1" />
<line x1="144.000000" y1="0.000000" x2="144.000000" y2="259.000000" stroke="black" stroke-width="0.1" />
<line x1="104.000000" y1="255.000000" x2="184.000000" y2="255.000000" stroke="black" stroke-width="0.1" />
<line x1="8.000000" y1="5.000000" x2="88.000000" y2="5.000000" stroke="black" stroke-width="0.1" />
<line x1="96.000000" y1="0.000000" x2="96.000000" y2="259.000000" stroke="black" stroke-width="0.1" stroke-dasharray="2 2" />
<line x1="0.000000" y1="259.000000" x2="96.000000" y2="259.000000" stroke="black" stroke-width="0.1" stroke-dasharray="2 2" />
<line x1="96.000000" y1="0.000000" x2="192.000000" y2="0.000000" stroke="black" stroke-width="0.1" stroke-dasharray="2 2" />
<line x1="48.000000" y1="7.000000" x2="41.000000" y2="0.000000" stroke="black" stroke-width="0.1" stroke-dasharray="2 2" />
<line x1="48.000000" y1="7.000000" x2="55.000000" y2="0.000000" stroke="black" stroke-width="0.1" stroke-dasharray="2 2" />
<line x1="144.000000" y1="253.000000" x2="138.000000" y2="259.000000" stroke="black" stroke-width="0.1" stroke-dasharray="2 2" />
<line x1="144.000000" y1="253.000000" x2="150.000000" y2="259.000000" stroke="black" stroke-width="0.1" stroke-dasharray="2 2" />
<text x="83.000000" y="130.000000" font-family="Arial" font-size="8" text-anchor="middle" dominant-baseline="middle" transform="rotate(90 83.000000 130.000000)" >Tyrolia Tyrolia Common 282, Heel</text>
<text x="179.000000" y="130.000000" font-family="Arial" font-size="8" text-anchor="middle" dominant-baseline="middle" transform="rotate(90 179.000000 130.000000)" >Tyrolia Tyrolia Common 282, Toe</text>
<line x1="104.000000" y1="129.000000" x2="104.000000" y2="255.000000" stroke="black" stroke-width="0.1" />
<line x1="101.500000" y1="129.000000" x2="106.500000" y2="129.000000" stroke="black" stroke-width="0.1" />
<line x1="104.000000" y1="129.000000" x2="101.500000" y2="131.500000" stroke="black" stroke-width="0.1" />
<line x1="104.000000" y1="129.000000" x2="106.500000" y2="131.500000" stroke="black" stroke-width="0.1" />
<line x1="101.500000" y1="255.000000" x2="106.500000" y2="255.000000" stroke="black" stroke-width="0.1" />
<line x1="104.000000" y1="255.000000" x2="101.500000" y2="252.500000" stroke="black" stroke-width="0.1" />
<line x1="104.000000" y1="255.000000" x2="106.500000" y2="252.500000" stroke="black" stroke-width="0.1" />
<text x="106.500000" y="192.000000" font-family="Arial" font-size="4" text-anchor="middle" dominant-baseline="middle" transform="rotate(90 106.500000 192.000000)" >126.0 mm</text>
<line x1="114.000000" y1="74.000000" x2="114.000000" y2="129.000000" stroke="black" stroke-width="0.1" />
<line x1="111.500000" y1="74.000000" x2="116.500000" y2="74.000000" stroke="black" stroke-width="0.1" />
<line x1="114.000000" y1="74.000000" x2="111.500000" y2="76.500000" stroke="black" stroke-width="0.1" />
<line x1="114.000000" y1="74.000000" x2="116.500000" y2="76.500000" stroke="black" stroke-width="0.1" />
<line x1="111.500000" y1="129.000000" x2="116.500000" y2="129.000000" stroke="black" stroke-width="0.1" />
<line x1="114.000000" y1="129.000000" x2="111.500000" y2="126.500000" stroke="black" stroke-width="0.1" />
<line x1="114.000000" y1="129.000000" x2="116.500000" y2="126.500000" stroke="black" stroke-width="0.1" />
<text x="116.500000" y="101.500000" font-family="Arial" font-size="4" text-anchor="middle" dominant-baseline="middle" transform="rotate(90 116.500000 101.500000)" >55.0 mm</text>
<line x1="8.000000" y1="5.000000" x2="8.000000" y2="129.000000" stroke="black" stroke-width="0.1" />
<line x1="5.500000" y1="5.000000" x2="10.500000" y2="5.000000" stroke="black" stroke-width="0.1" />
<line x1="8.000000" y1="5.000000" x2="5.500000" y2="7.500000" stroke="black" stroke-width="0.1" />
<line x1="8.000000" y1="5.000000" x2="10.500000" y2="7.500000" stroke="black" stroke-width="0.1" />
<line x1="5.500000" y1="129.000000" x2="10.500000" y2="129.000000" stroke="black" stroke-width="0.1" />
<line x1="8.000000" y1="129.000000" x2="5.500000" y2="126.500000" stroke="black" stroke-width="0.1" />
<line x1="8.000000" y1="129.000000" x2="10.500000" y2="126.500000" stroke="black" stroke-width="0.1" />
<text x="10.500000" y="67.000000" font-family="Arial" font-size="4" text-anchor="middle" dominant-baseline="middle" transform="rotate(90 10.500000 67.000000)" >124.0 mm</text>
<line x1="18.000000" y1="129.000000" x2="18.000000" y2="224.000000" stroke="black" stroke-width="0.1" />
<line x1="15.500000" y1="129.000000" x2="20.500000" y2="129.000000" stroke="black" stroke-width="0.1" />
<line x1="18.000000" y1="129.000000" x2="15.500000" y2="131.500000" stroke="black" stroke-width="0.1" />
<line x1="18.000000" y1="129.000000" x2="20.500000" y2="131.500000" stroke="black" stroke-width="0.1" />
<line x1="15.500000" y1="224.000000" x2="20.500000" y2="224.000000" stroke="black" stroke-width="0.1" />
<line x1="18.000000" y1="224.000000" x2="15.500000" y2="221.500000" stroke="black" stroke-width="0.1" />
<line x1="18.000000" y1="224.000000" x2="20.500000" y2="221.500000" stroke="black" stroke-width="0.1" />
<text x="20.500000" y="176.500000" font-family="Arial" font-size="4" text-anchor="middle" dominant-baseline="middle" transform="rotate(90 20.500000 176.500000)" >95.0 mm</text>
<line x1="124.000000" y1="64.000000" x2="164.000000" y2="64.000000" stroke="black" stroke-width="0.1" />
<line x1="124.000000" y1="61.500000" x2="124.000000" y2="66.500000" stroke="black" stroke-width="0.1" />
<line x1="124.000000" y1="64.000000" x2="126.500000" y2="66.500000" stroke="black" stroke-width="0.1" />
<line x1="124.000000" y1="64.000000" x2="126.500000" y2="61.500000" stroke="black" stroke-width="0.1" />
<line x1="164.000000" y1="61.500000" x2="164.000000" y2="66.500000" stroke="black" stroke-width="0.1" />
<line x1="164.000000" y1="64.000000" x2="161.500000" y2="66.500000" stroke="black" stroke-width="0.1" />
<line x1="164.000000" y1="64.000000" x2="161.500000" y2="61.500000" stroke="black" stroke-width="0.1" />
<text x="149.000000" y="54.000000" font-family="Arial" font-size="4" text-anchor="middle" dominant-baseline="middle" transform="rotate(90 149.000000 54.000000)" >40.0 mm</text>
<line x1="124.000000" y1="119.000000" x2="164.000000" y2="119.000000" stroke="black" stroke-width="0.1" />
<line x1="124.000000" y1="116.500000" x2="124.000000" y2="121.500000" stroke="black" stroke-width="0.1" />
<line x1="124.000000" y1="119.000000" x2="126.500000" y2="121.500000" stroke="black" stroke-width="0.1" />
<line x1="124.000000" y1="119.000000" x2="126.500000" y2="116.500000" stroke="black" stroke-width="0.1" />
<line x1="164.000000" y1="116.500000" x2="164.000000" y2="121.500000" stroke="black" stroke-width="0.1" />
<line x1="164.000000" y1="119.000000" x2="161.500000" y2="121.500000" stroke="black" stroke-width="0.1" />
<line x1="164.000000" y1="119.000000" x2="161.500000" y2="116.500000" stroke="black" stroke-width="0.1" />
<text x="149.000000" y="109.000000" font-family="Arial" font-size="4" text-anchor="middle" dominant-baseline="middle" transform="rotate(90 149.000000 109.000000)" >40.0 mm</text>
<line x1="38.000000" y1="139.000000" x2="58.000000" y2="139.000000" stroke="black" stroke-width="0.1" />
<line x1="38.000000" y1="136.500000" x2="38.000000" y2="141.500000" stroke="black" stroke-width="0.1" />
<line x1="38.000000" y1="139.000000" x2="40.500000" y2="141.500000" stroke="black" stroke-width="0.1" />
<line x1="38.000000" y1="139.000000" x2="40.500000" y2="136.500000" stroke="black" stroke-width="0.1" />
<line x1="58.000000" y1="136.500000" x2="58.000000" y2="141.500000" stroke="black" stroke-width="0.1" />
<line x1="58.000000" y1="139.000000" x2="55.500000" y2="141.500000" stroke="black" stroke-width="0.1" />
<line x1="58.000000" y1="139.000000" x2="55.500000" y2="136.500000" stroke="black" stroke-width="0.1" />
<text x="53.000000" y="149.000000" font-family="Arial" font-size="4" text-anchor="middle" dominant-baseline="middle" transform="rotate(90 53.000000 149.000000)" >20.0 mm</text>
<line x1="26.375000" y1="234.000000" x2="69.625000" y2="234.000000" stroke="black" stroke-width="0.1" />
<line x1="26.375000" y1="231.500000" x2="26.375000" y2="236.500000" stroke="black" stroke-width="0.1" />
<line x1="26.375000" y1="234.000000" x2="28.875000" y2="236.500000" stroke="black" stroke-width="0.1" />
<line x1="26.375000" y1="234.000000" x2="28.875000" y2="231.500000" stroke="black" stroke-width="0.1" />
<line x1="69.625000" y1="231.500000" x2="69.625000" y2="236.500000" stroke="black" stroke-width="0.1" />
<line x1="69.625000" y1="234.000000" x2="67.125000" y2="236.500000" stroke="black" stroke-width="0.1" />
<line x1="69.625000" y1="234.000000" x2="67.125000" y2="231.500000" stroke="black" stroke-width="0.1" />
<text x="53.000000" y="244.000000" font-family="Arial" font-size="4" text-anchor="middle" dominant-baseline="middle" transform="rotate(90 53.000000 244.000000)" >43.3 mm</text>
<circle cx="124.000000" cy="74.000000" r="2.500000" fill="none" stroke="black" stroke-width="0.1" />
<circle cx="124.000000" cy="74.000000" r="0.250000" fill="none" stroke="black" stroke-width="0.1" />
<line x1="123.750000" y1="74.000000" x2="123.500000" y2="74.000000" stroke="black" stroke-width="0.1" />
<line x1="124.250000" y1="74.000000" x2="124.500000" y2="74.000000" stroke="black" stroke-width="0.1" />
<line x1="124.000000" y1="73.750000" x2="124.000000" y2="73.500000" stroke="black" stroke-width="0.1" />
<line x1="124.000000" y1="74.250000" x2="124.000000" y2="74.500000" stroke="black" stroke-width="0.1" />
<line x1="121.000000" y1="74.000000" x2="122.000000" y2="74.000000" stroke="black" stroke-width="0.1" />
<line x1="126.000000" y1="74.000000" x2="127.000000" y2="74.000000" stroke="black" stroke-width="0.1" />
<line x1="124.000000" y1="71.000000" x2="124.000000" y2="72.000000" stroke="black" stroke-width="0.1" />
<line x1="124.000000" y1="76.000000" x2="124.000000" y2="77.000000" stroke="black" stroke-width="0.1" />
<circle cx="164.000000" cy="74.000000" r="2.500000" fill="none" stroke="black" stroke-width="0.1" />
<circle cx="164.000000" cy="74.000000" r="0.250000" fill="none" stroke="black" stroke-width="0.1" />
<line x1="163.750000" y1="74.000000" x2="163.500000" y2="74.000000" stroke="black" stroke-width="0.1" />
<line x1="164.250000" y1="74.000000" x2="164.500000" y2="74.000000" stroke="black" stroke-width="0.1" />
<line x1="164.000000" y1="73.750000" x2="164.000000" y2="73.500000" stroke="black" stroke-width="0.1" />
<line x1="164.000000" y1="74.250000" x2="164.000000" y2="74.500000" stroke="black" stroke-width="0.1" />
<line x1="161.000000" y1="74.000000" x2="162.000000" y2="74.000000" stroke="black" stroke-width="0.1" />
<line x1="166.000000" y1="74.000000" x2="167.000000" y2="74.000000" stroke="black" stroke-width="0.1" />
<line x1="164.000000" y1="71.000000" x2="164.000000" y2="72.000000" stroke="black" stroke-width="0.1" />
<line x1="164.000000" y1="76.000000" x2="164.000000" y2="77.000000" stroke="black" stroke-width="0.1" />
<circle cx="124.000000" cy="129.000000" r="2.500000" fill="none" stroke="black" stroke-width="0.1" />
<circle cx="124.000000" cy="129.000000" r="0.250000" fill="none" stroke="black" stroke-width="0.1" />
<line x1="123.750000" y1="129.000000" x2="123.500000" y2="129.000000" stroke="black" stroke-width="0.1" />
<line x1="124.250000" y1="129.000000" x2="124.500000" y2="129.000000" stroke="black" stroke-width="0.1" />
<line x1="124.000000" y1="128.750000" x2="124.000000" y2="128.500000" stroke="black" stroke-width="0.1" />
<line x1="124.000000" y1="129.250000" x2="124.000000" y2="129.500000" stroke="black" stroke-width="0.1" />
<line x1="121.000000" y1="129.000000" x2="122.000000" y2="129.000000" stroke="black" stroke-width="0.1" />
<line x1="126.000000" y1="129.000000" x2="127.000000" y2="129.000000" stroke="black" stroke-width="0.1" />
<line x1="124.000000" y1="126.000000" x2="124.000000" y2="127.000000" stroke="black" stroke-width="0.1" />
<line x1="124.000000" y1="131.000000" x2="124.000000" y2="132.000000" stroke="black" stroke-width="0.1" />
<circle cx="164.000000" cy="129.000000" r="2.500000" fill="none" stroke="black" stroke-width="0.1" />
<circle cx="164.000000" cy="129.000000" r="0.250000" fill="none" stroke="black" stroke-width="0.1" />
<line x1="163.750000" y1="129.000000" x2="163.500000" y2="129.000000" stroke="black" stroke-width="0.1" />
<line x1="164.250000" y1="129.000000" x2="164.500000" y2="129.000000" stroke="black" stroke-width="0.1" />
<line x1="164.000000" y1="128.750000" x2="164.000000" y2="128.500000" stroke="black" stroke-width="0.1" />
<line x1="164.000000" y1="129.250000" x2="164.000000" y2="129.500000" stroke="black" stroke-width="0.1" />
<line x1="161.000000" y1="129.000000" x2="162.000000" y2="129.000000" stroke="black" stroke-width="0.1" />
<line x1="166.000000" y1="129.000000" x2="167.000000" y2="129.000000" stroke="black" stroke-width="0.1" />
<line x1="164.000000" y1="126.000000" x2="164.000000" y2="127.000000" stroke="black" stroke-width="0.1" />
<line x1="164.000000" y1="131.000000" x2="164.000000" y2="132.000000" stroke="black" stroke-width="0.1" />
<circle cx="38.000000" cy="129.000000" r="2.500000" fill="none" stroke="black" stroke-width="0.1" />
<circle cx="38.000000" cy="129.000000" r="0.250000" fill="none" stroke="black" stroke-width="0.1" />
<line x1="37.750000" y1="129.000000" x2="37.500000" y2="129.000000" stroke="black" stroke-width="0.1" />
<line x1="38.250000" y1="129.000000" x2="38.500000" y2="129.000000" stroke="black" stroke-width="0.1" />
<line x1="38.000000" y1="128.750000" x2="38.000000" y2="128.500000" stroke="black" stroke-width="0.1" />
<line x1="38.000000" y1="129.250000" x2="38.000000" y2="129.500000" stroke="black" stroke-width="0.1" />
<line x1="35.000000" y1="129.000000" x2="36.000000" y2="129.000000" stroke="black" stroke-width="0.1" />
<line x1="40.000000" y1="129.000000" x2="41.000000" y2="129.000000" stroke="black" stroke-width="0.1" />
<line x1="38.000000" y1="126.000000" x2="38.000000" y2="127.000000" stroke="black" stroke-width="0.1" />
<line x1="38.000000" y1="131.000000" x2="38.000000" y2="132.000000" stroke="black" stroke-width="0.1" />
<circle cx="58.000000" cy="129.000000" r="2.500000" fill="none" stroke="black" stroke-width="0.1" />
<circle cx="58.000000" cy="129.000000" r="0.250000" fill="none" stroke="black" stroke-width="0.1" />
<line x1="57.750000" y1="129.000000" x2="57.500000" y2="129.000000" stroke="black" stroke-width="0.1" />
<line x1="58.250000" y1="129.000000" x2="58.500000" y2="129.000000" stroke="black" stroke-width="0.1" />
<line x1="58.000000" y1="128.750000" x2="58.000000" y2="128.500000" stroke="black" stroke-width="0.1" />
<line x1="58.000000" y1="129.250000" x2="58.000000" y2="129.500000" stroke="black" stroke-width="0.1" />
<line x1="55.000000" y1="129.000000" x2="56.000000" y2="129.000000" stroke="black" stroke-width="0.1" />
<line x1="60.000000" y1="129.000000" x2="61.000000" y2="129.000000" stroke="black" stroke-width="0.1" />
<line x1="58.000000" y1="126.000000" x2="58.000000" y2="127.000000" stroke="black" stroke-width="0.1" />
<line x1="58.000000" y1="131.000000" x2="58.000000" y2="132.000000" stroke="black" stroke-width="0.1" />
<circle cx="26.375000" cy="224.000000" r="2.500000" fill="none" stroke="black" stroke-width="0.1" />
<circle cx="26.375000" cy="224.000000" r="0.250000" fill="none" stroke="black" stroke-width="0.1" />
<line x1="26.125000" y1="224.000000" x2="25.875000" y2="224.000000" stroke="black" stroke-width="0.1" />
<line x1="26.625000" y1="224.000000" x2="26.875000" y2="224.000000" stroke="black" stroke-width="0.1" />
<line x1="26.375000" y1="223.750000" x2="26.375000" y2="223.500000" stroke="black" stroke-width="0.1" />
<line x1="26.375000" y1="224.250000" x2="26.375000" y2="224.500000" stroke="black" stroke-width="0.1" />
<line x1="23.375000" y1="224.000000" x2="24.375000" y2="224.000000" stroke="black" stroke-width="0.1" />
<line x1="28.375000" y1="224.000000" x2="29.375000" y2="224.000000" stroke="black" stroke-width="0.1" />
<line x1="26.375000" y1="221.000000" x2="26.375000" y2="222.000000" stroke="black" stroke-width="0.1" />
<line x1="26.375000" y1="226.000000" x2="26.375000" y2="227.000000" stroke="black" stroke-width="0.1" />
<circle cx="69.625000" cy="224.000000" r="2.500000" fill="none" stroke="black" stroke-width="0.1" />
<circle cx="69.625000" cy="224.000000" r="0.250000" fill="none" stroke="black" stroke-width="0.1" />
<line x1="69.375000" y1="224.000000" x2="69.125000" y2="224.000000" stroke="black" stroke-width="0.1" />
<line x1="69.875000" y1="224.000000" x2="70.125000" y2="224.000000" stroke="black" stroke-width="0.1" />
<line x1="69.625000" y1="223.750000" x2="69.625000" y2="223.500000" stroke="black" stroke-width="0.1" />
<line x1="69.625000" y1="224.250000" x2="69.625000" y2="224.500000" stroke="black" stroke-width="0.1" />
<line x1="66.625000" y1="224.000000" x2="67.625000" y2="224.000000" stroke="black" stroke-width="0.1" />
<line x1="71.625000" y1="224.000000" x2="72.625000" y2="224.000000" stroke="black" stroke-width="0.1" />
<line x1="69.625000" y1="221.000000" x2="69.625000" y2="222.000000" stroke="black" stroke-width="0.1" />
<line x1="69.625000" y1="226.000000" x2="69.625000" y2="227.000000" stroke="black" stroke-width="0.1" />
<text x="73.000000" y="25.000000" font-family="Arial" font-size="4" text-anchor="middle" dominant-baseline="middle" transform="rotate(90 73.000000 25.000000)" >Mid Sole Mount Line</text>
<text x="169.000000" y="235.000000" font-family="Arial" font-size="4" text-anchor="middle" dominant-baseline="middle" transform="rotate(90 169.000000 235.000000)" >Mid Sole Mount Line</text>
<text x="43.000000" y="235.000000" font-family="Arial" font-size="4" text-anchor="middle" dominant-baseline="middle" transform="rotate(90 43.000000 235.000000)" >Ski Center Line</text>
<text x="139.000000" y="25.000000" font-family="Arial" font-size="4" text-anchor="middle" dominant-baseline="middle" transform="rotate(90 139.000000 25.000000)" >Ski Center Line</text>
</svg>