<?xml version="1.0"?>
<!DOCTYPE svg PUBLIC "-//W3C//DTD SVG 1.1//EN"
"http://www.w3.org/Graphics/SVG/1.1/DTD/svg11.dtd">
<svg xmlns="http://www.w3.org/2000/svg" version="1.2" width="192.000000mm" height="259.000000mm" viewBox="0 0 192.000000 259.000000" style="background-color:white" >
<style >
.small { font: 6px sans-serif; }
</style>
<line x1="48.000000" y1="0.000000" x2="48.000000" y2="259.000000" stroke="black" stroke-width="0.1" />
<line x1="144.000000" y1="0.000000" x2="144.000000" y2="259.000000" stroke="black" stroke-width="0.1" />
<line x1="104.000000" y1="255.000000" x2="184.000000" y2="255.000000" stroke="black" stroke-width="0.1" />
<line x1="8.000000" y1="5.000000" x2="88.000000" y2="5.000000" stroke="black" stroke-width="0.1" />
<line x1="96.000000" y1="0.000000" x2="96.000000" y2="259.000000" stroke="black" stroke-width="0.1" stroke-dasharray="2 2" />
<line x1="0.000000" y1="259.000000" x2="96.000000" y2="259.000000" stroke="black" stroke-width="0.1" stroke-dasharray="2 2" />
<line x1="96.000000" y1="0.000000" x2="192.000000" y2="0.000000" stroke="black" stroke-width="0.1" stroke-dasharray="2 2" />
<line x1="48.000000" y1="7.000000" x2="41.000000" y2="0.000000" stroke="black" stroke-width="0.1" stroke-dasharray="2 2" />
<line x1="48.000000" y1="7.000000" x2="55.000000" y2="0.000000" stroke="black" stroke-width="0.1" stroke-dasharray="2 2" />
<line x1="144.000000" y1="253.000000" x2="138.000000" y2="259.000000" stroke="black" stroke-width="0.1" stroke-dasharray="2 2" />
<line x1="144.000000" y1="253.000000" x2="150.000000" y2="259.000000" stroke="black" stroke-width="0.1" stroke-dasharray="2 2" />
<line x1="0.000000" y1="5.000000" x2="3.000000" y2="5.000000" stroke="black" stroke-width="0.1" />
<line x1="0.000000" y1="6.000000" x2="1.000000" y2="6.000000" stroke="black" stroke-width="0.1" />
<line x1="0.000000" y1="7.000000" x2="1.000000" y2="7.000000" stroke="black" stroke-width="0.1" />
<line x1="0.000000" y1="8.000000" x2="1.000000" y2="8.000000" stroke="black" stroke-width="0.1" />
<line x1="0.000000" y1="9.000000" x2="1.000000" y2="9.000000" stroke="black" stroke-width="0.1" />
<line x1="0.000000" y1="10.000000" x2="2.000000" y2="10.000000" stroke="black" stroke-width="0.1" />
<line x1="0.000000" y1="11.000000" x2="1.000000" y2="11.000000" stroke="black" stroke-width="0.1" />
<line x1="0.000000" y1="12.000000" x2="1.000000" y2="12.000000" stroke="black" stroke-width="0.1" />
<line x1="0.000000" y1="13.000000" x2="1.000000" y2="13.000000" stroke="black" stroke-width="0.1" />
<line x1="0.000000" y1="14.000000" x2="1.000000" y2="14.000000" stroke="black" stroke-width="0.1" />
<line x1="0.000000" y1="15.000000" x2="3.000000" y2="15.000000" stroke="black" stroke-width="0.1" />
<line x1="0.000000" y1="16.000000" x2="1.000000" y2="16.000000" stroke="black" stroke-width="0.1" />
<line x1="0.000000" y1="17.000000" x2="1.000000" y2="17.000000" stroke="black" stroke-width="0.1" />
<line x1="0.000000" y1="18.000000" x2="1.000000" y2="18.000000" stroke="black" stroke-width="0.1" />
<line x1="0.000000" y1="19.000000" x2="1.000000" y2="19.000000" stroke="black" stroke-width="0.1" />
<line x1="0.000000" y1="20.000000" x2="2.000000" y2="20.000000" stroke="black" stroke-width="0.1" />
<line x1="0.000000" y1="21.000000" x2="1.000000" y2="21.000000" stroke="black" stroke-width="0.1" />
<line x1="0.000000" y1="22.000000" x2="1.000000" y2="22.000000" stroke="black" stroke-width="0.1" />
<line x1="0.000000" y1="23.000000" x2="1.000000" y2="23.000000" stroke="black" stroke-width="0.1" />
<line x1="0.000000" y1="24.000000" x2="1.000000" y2="24.000000" stroke="black" stroke-width="0.1" />
<line x1="0.000000" y1="25.000000" x2="3.000000" y2="25.000000" stroke="black" stroke-width="0.1" />
<line x1="0.000000" y1="26.000000" x2="1.000000" y2="26.000000" stroke="black" stroke-width="0.1" />
<line x1="0.000000" y1="27.000000" x2="1.000000" y2="27.000000" stroke="black" stroke-width="0.1" />
<line x1="0.000000" y1="28.000000" x2="1.000000" y2="28.000000" stroke="black" stroke-width="0.1" />
<line x1="0.000000" y1="29.000000" x2="1.000000" y2="29.000000" stroke="black" stroke-width="0.1" />
<line x1="0.000000" y1="30.000000" x2="2.000000" y2="30.000000" stroke="black" stroke-width="0.1" />
<line x1="0.000000" y1="31.000000" x2="1.000000" y2="31.000000" stroke="black" stroke-width="0.1" />
<line x1="0.000000" y1="32.000000" x2="1.000000" y2="32.000000" stroke="black" stroke-width="0.1" />
<line x1="0.000000" y1="33.000000" x2="1.000000" y2="33.000000" stroke="black" stroke-width="0.1" />
<line x1="0.000000" y1="34.000000" x2="1.000000" y2="34.000000" stroke="black" stroke-width="0.1" />
<line x1="0.000000" y1="35.000000" x2="3.000000" y2="35.000000" stroke="black" stroke-width="0.1" />
<line x1="0.000000" y1="36.000000" x2="1.000000" y2="36.000000" stroke="black" stroke-width="0.1" />
<line x1="0.000000" y1="37.000000" x2="1.000000" y2="37.000000" stroke="black" stroke-width="0.1" />
<line x1="0.000000" y1="38.000000" x2="1.000000" y2="38.000000" stroke="black" stroke-width="0.1" />
<line x1="0.000000" y1="39.000000" x2="1.000000" y2="39.000000" stroke="black" stroke-width="0.1" />
<line x1="0.000000" y1="40.000000" x2="2.000000" y2="40.000000" stroke="black" stroke-width="0.1" />
<line x1="0.000000" y1="41.000000" x2="1.000000" y2="41.000000" stroke="black" stroke-width="0.1" />
<line x1="0.000000" y1="42.000000" x2="1.000000" y2="42.000000" stroke="black" stroke-width="0.1" />
<line x1="0.000000" y1="43.000000" x2="1.000000" y2="43.000000" stroke="black" stroke-width="0.1" />
<line x1="0.000000" y1="44.000000" x2="1.000000" y2="44.000000" stroke="black" stroke-width="0.1" />
<line x1="0.000000" y1="45.000000" x2="3.000000" y2="45.000000" stroke="black" stroke-width="0.1" />
<line x1="0.000000" y1="46.000000" x2="1.000000" y2="46.000000" stroke="black" stroke-width="0.1" />
<line x1="0.000000" y1="47.000000" x2="1.000000" y2="47.000000" stroke="black" stroke-width="0.1" />
<line x1="0.000000" y1="48.000000" x2="1.000000" y2="48.000000" stroke="black" stroke-width="0.1" />
<line x1="0.000000" y1="49.000000" x2="1.000000" y2="49.000000" stroke="black" stroke-width="0.1" />
<line x1="0.000000" y1="50.000000" x2="2.000000" y2="50.000000" stroke="black" stroke-width="0.1" />
<line x1="0.000000" y1="51.000000" x2="1.000000" y2="51.000000" stroke="black" stroke-width="0.1" />
<line x1="0.000000" y1="52.000000" x2="1.000000" y2="52.000000" stroke="black" stroke-width="0.1" />
<line x1="0.000000" y1="53.000000" x2="1.000000" y2="53.000000" stroke="black" stroke-width="0.1" />
<line x1="0.000000" y1="54.000000" x2="1.000000" y2="54.000000" stroke="black" stroke-width="0.1" />
<line x1="0.000000" y1="55.000000" x2="3.000000" y2="55.000000" stroke="black" stroke-width="0.1" />
<line x1="0.000000" y1="56.000000" x2="1.000000" y2="56.000000" stroke="black" stroke-width="0.1" />
<line x1="0.000000" y1="57.000000" x2="1.000000" y2="57.000000" stroke="black" stroke-width="0.1" />
<line x1="0.000000" y1="58.000000" x2="1.000000" y2="58.000000" stroke="black" stroke-width="0.1" />
<line x1="0.000000" y1="59.000000" x2="1.000000" y2="59.000000" stroke="black" stroke-width="0.1" />
<line x1="0.000000" y1="60.000000" x2="2.000000" y2="60.000000" stroke="black" stroke-width="0.1" />
<line x1="0.000000" y1="61.000000" x2="1.000000" y2="61.000000" stroke="black" stroke-width="0.1" />
<line x1="0.000000" y1="62.000000" x2="1.000000" y2="62.000000" stroke="black" stroke-width="0.1" />
<line x1="0.000000" y1="63.000000" x2="1.000000" y2="63.000000" stroke="black" stroke-width="0.1" />
<line x1="0.000000" y1="64.000000" x2="1.000000" y2="64.000000" stroke="black" stroke-width="0.1" />
<line x1="0.000000" y1="65.000000" x2="3.000000" y2="65.000000" stroke="black" stroke-width="0.1" />
<line x1="0.000000" y1="66.000000" x2="1.000000" y2="66.000000" stroke="black" stroke-width="0.1" />
<line x1="0.000000" y1="67.000000" x2="1.000000" y2="67.000000" stroke="black" stroke-width="0.1" />
<line x1="0.000000" y1="68.000000" x2="1.000000" y2="68.000000" stroke="black" stroke-width="0.1" />
<line x1="0.000000" y1="69.000000" x2="1.000000" y2="69.000000" stroke="black" stroke-width="0.1" />
<line x1="0.000000" y1="70.000000" x2="2.000000" y2="70.000000" stroke="black" stroke-width="0.1" />
<line x1="0.000000" y1="71.000000" x2="1.000000" y2="71.000000" stroke="black" stroke-width="0.1" />
<line x1="0.000000" y1="72.000000" x2="1.000000" y2="72.000000" stroke="black" stroke-width="0.1" />
<line x1="0.000000" y1="73.000000" x2="1.000000" y2="73.000000" stroke="black" stroke-width="0.1" />
<line x1="0.000000" y1="74.000000" x2="1.000000" y2="74.000000" stroke="black" stroke-width="0.1" />
<line x1="0.000000" y1="75.000000" x2="3.000000" y2="75.000000" stroke="black" stroke-width="0.1" />
<line x1="0.000000" y1="76.000000" x2="1.000000" y2="76.000000" stroke="black" stroke-width="0.1" />
<line x1="0.000000" y1="77.000000" x2="1.000000" y2="77.000000" stroke="black" stroke-width="0.1" />
<line x1="0.000000" y1="78.000000" x2="1.000000" y2="78.000000" stroke="black" stroke-width="0.1" />
<line x1="0.000000" y1="79.000000" x2="1.000000" y2="79.000000" stroke="black" stroke-width="0.1" />
<line x1="0.000000" y1="80.000000" x2="2.000000" y2="80.000000" stroke="black" stroke-width="0.1" />
<line x1="0.000000" y1="81.000000" x2="1.000000" y2="81.000000" stroke="black" stroke-width="0.1" />
<line x1="0.000000" y1="82.000000" x2="1.000000" y2="82.000000" stroke="black" stroke-width="0.1" />
<line x1="0.000000" y1="83.000000" x2="1.000000" y2="83.000000" stroke="black" stroke-width="0.1" />
<line x1="0.000000" y1="84.000000" x2="1.000000" y2="84.000000" stroke="black" stroke-width="0.1" />
<line x1="0.000000" y1="85.000000" x2="3.000000" y2="85.000000" stroke="black" stroke-width="0.1" />
<line x1="0.000000" y1="86.000000" x2="1.000000" y2="86.000000" stroke="black" stroke-width="0.1" />
<line x1="0.000000" y1="87.000000" x2="1.000000" y2="87.000000" stroke="black" stroke-width="0.1" />
<line x1="0.000000" y1="88.000000" x2="1.000000" y2="88.000000" stroke="black" stroke-width="0.1" />
<line x1="0.000000" y1="89.000000" x2="1.000000" y2="89.000000" stroke="black" stroke-width="0.1" />
<line x1="0.000000" y1="90.000000" x2="2.000000" y2="90.000000" stroke="black" stroke-width="0.1" />
<line x1="0.000000" y1="91.000000" x2="1.000000" y2="91.000000" stroke="black" stroke-width="0.1" />
<line x1="0.000000" y1="92.000000" x2="1.000000" y2="92.000000" stroke="black" stroke-width="0.1" />
<line x1="0.000000" y1="93.000000" x2="1.000000" y2="93.000000" stroke="black" stroke-width="0.1" />
<line x1="0.000000" y1="94.000000" x2="1.000000" y2="94.000000" stroke="black" stroke-width="0.1" />
<line x1="0.000000" y1="95.000000" x2="3.000000" y2="95.000000" stroke="black" stroke-width="0.1" />
<line x1="0.000000" y1="96.000000" x2="1.000000" y2="96.000000" stroke="black" stroke-width="0.1" />
<line x1="0.000000" y1="97.000000" x2="1.000000" y2="97.000000" stroke="black" stroke-width="0.1" />
<line x1="0.000000" y1="98.000000" x2="1.000000" y2="98.000000" stroke="black" stroke-width="0.1" />
<line x1="0.000000" y1="99.000000" x2="1.000000" y2="99.000000" stroke="black" stroke-width="0.1" />
<line x1="0.000000" y1="100.000000" x2="2.000000" y2="100.000000" stroke="black" stroke-width="0.1" />
<line x1="0.000000" y1="101.000000" x2="1.000000" y2="101.000000" stroke="black" stroke-width="0.1" />
<line x1="0.000000" y1="102.000000" x2="1.000000" y2="102.000000" stroke="black" stroke-width="0.1" />
<line x1="0.000000" y1="103.000000" x2="1.000000" y2="103.000000" stroke="black" stroke-width="0.1" />
<line x1="0.000000" y1="104.000000" x2="1.000000" y2="104.000000" stroke="black" stroke-width="0.1" />
<line x1="0.000000" y1="105.000000" x2="3.000000" y2="105.000000" stroke="black" stroke-width="0.1" />
<line x1="0.000000" y1="106.000000" x2="1.000000" y2="106.000000" stroke="black" stroke-width="0.1" />
<line x1="0.000000" y1="107.000000" x2="1.000000" y2="107.000000" stroke="black" stroke-width="0.1" />
<line x1="0.000000" y1="108.000000" x2="1.000000" y2="108.000000" stroke="black" stroke-width="0.1" />
<line x1="0.000000" y1="109.000000" x2="1.000000" y2="109.000000" stroke="black" stroke-width="0.1" />
<line x1="0.000000" y1="110.000000" x2="2.000000" y2="110.000000" stroke="black" stroke-width="0.1" />
<line x1="0.000000" y1="111.000000" x2="1.000000" y2="111.000000" stroke="black" stroke-width="0.1" />
<line x1="0.000000" y1="112.000000" x2="1.000000" y2="112.000000" stroke="black" stroke-width="0.1" />
<line x1="0.000000" y1="113.000000" x2="1.000000" y2="113.000000" stroke="black" stroke-width="0.1" />
<line x1="0.000000" y1="114.000000" x2="1.000000" y2="114.000000" stroke="black" stroke-width="0.1" />
<line x1="0.000000" y1="115.000000" x2="3.000000" y2="115.000000" stroke="black" stroke-width="0.1" />
<line x1="0.000000" y1="116.000000" x2="1.000000" y2="116.000000" stroke="black" stroke-width="0.1" />
<line x1="0.000000" y1="117.000000" x2="1.000000" y2="117.000000" stroke="black" stroke-width="0.1" />
<line x1="0.000000" y1="118.000000" x2="1.000000" y2="118.000000" stroke="black" stroke-width="0.1" />
<line x1="0.000000" y1="119.000000" x2="1.000000" y2="119.000000" stroke="black" stroke-width="0.1" />
<line x1="0.000000" y1="120.000000" x2="2.000000" y2="120.000000" stroke="black" stroke-width="0.1" />
<line x1="0.000000" y1="121.000000" x2="1.000000" y2="121.000000" stroke="black" stroke-width="0.1" />
<line x1="0.000000" y1="122.000000" x2="1.000000" y2="122.000000" stroke="black" stroke-width="0.1" />
<line x1="0.000000" y1="123.000000" x2="1.000000" y2="123.000000" stroke="black" stroke-width="0.1" />
<line x1="0.000000" y1="124.000000" x2="1.000000" y2="124.000000" stroke="black" stroke-width="0.1" />
<line x1="0.000000" y1="125.000000" x2="3.000000" y2="125.000000" stroke="black" stroke-width="0.1" />
<line x1="0.000000" y1="126.000000" x2="1.000000" y2="126.000000" stroke="black" stroke-width="0.1" />
<line x1="0.000000" y1="127.000000" x2="1.000000" y2="127.000000" stroke="black" stroke-width="0.1" />
<line x1="0.000000" y1="128.000000" x2="1.000000" y2="128.000000" stroke="black" stroke-width="0.1" />
<line x1="0.000000" y1="129.000000" x2="1.000000" y2="129.000000" stroke="black" stroke-width="0.1" />
<line x1="0.000000" y1="130.000000" x2="2.000000" y2="130.000000" stroke="black" stroke-width="0.1" />
<line x1="0.000000" y1="131.000000" x2="1.000000" y2="131.000000" stroke="black" stroke-width="0.1" />
<line x1="0.000000" y1="132.000000" x2="1.000000" y2="132.000000" stroke="black" stroke-width="0.1" />
<line x1="0.000000" y1="133.000000" x2="1.000000" y2="133.000000" stroke="black" stroke-width="0.1" />
<line x1="0.000000" y1="134.000000" x2="1.000000" y2="134.000000" stroke="black" stroke-width="0.1" />
<line x1="0.000000" y1="135.000000" x2="3.000000" y2="135.000000" stroke="black" stroke-width="0.1" />
<line x1="0.000000" y1="136.000000" x2="1.000000" y2="136.000000" stroke="black" stroke-width="0.1" />
<line x1="0.000000" y1="137.000000" x2="1.000000" y2="137.000000" stroke="black" stroke-width="0.1" />
<line x1="0.000000" y1="138.000000" x2="1.000000" y2="138.000000" stroke="black" stroke-width="0.1" />
<line x1="0.000000" y1="139.000000" x2="1.000000" y2="139.000000" stroke="black" stroke-width="0.1" />
<line x1="0.000000" y1="140.000000" x2="2.000000" y2="140.000000" stroke="black" stroke-width="0.1" />
<line x1="0.000000" y1="141.000000" x2="1.000000" y2="141.000000" stroke="black" stroke-width="0.1" />
<line x1="0.000000" y1="142.000000" x2="1.000000" y2="142.000000" stroke="black" stroke-width="0.1" />
<line x1="0.000000" y1="143.000000" x2="1.000000" y2="143.000000" stroke="black" stroke-width="0.1" />
<line x1="0.000000" y1="144.000000" x2="1.000000" y2="144.000000" stroke="black" stroke-width="0.1" />
<line x1="0.000000" y1="145.000000" x2="3.000000" y2="145.000000" stroke="black" stroke-width="0.1" />
<line x1="0.000000" y1="146.000000" x2="1.000000" y2="146.000000" stroke="black" stroke-width="0.1" />
<line x1="0.000000" y1="147.000000" x2="1.000000" y2="147.000000" stroke="black" stroke-width="0.1" />
<line x1="0.000000" y1="148.000000" x2="1.000000" y2="148.000000" stroke="black" stroke-width="0.1" />
<line x1="0.000000" y1="149.000000" x2="1.000000" y2="149.000000" stroke="black" stroke-width="0.1" />
<line x1="0.000000" y1="150.000000" x2="2.000000" y2="150.000000" stroke="black" stroke-width="0.1" />
<line x1="0.000000" y1="151.000000" x2="1.000000" y2="151.000000" stroke="black" stroke-width="0.1" />
<line x1="0.000000" y1="152.000000" x2="1.000000" y2="152.000000" stroke="black" stroke-width="0.1" />
<line x1="0.000000" y1="153.000000" x2="1.000000" y2="153.000000" stroke="black" stroke-width="0.1" />
<line x1="0.000000" y1="154.000000" x2="1.000000" y2="154.000000" stroke="black" stroke-width="0.1" />
<line x1="0.000000" y1="155.000000" x2="3.000000" y2="155.000000" stroke="black" stroke-width="0.1" />
<line x1="0.000000" y1="156.000000" x2="1.000000" y2="156.000000" stroke="black" stroke-width="0.1" />
<line x1="0.000000" y1="157.000000" x2="1.000000" y2="157.000000" stroke="black" stroke-width="0.1" />
<line x1="0.000000" y1="158.000000" x2="1.000000" y2="158.000000" stroke="black" stroke-width="0.1" />
<line x1="0.000000" y1="159.000000" x2="1.000000" y2="159.000000" stroke="black" stroke-width="0.1" />
<line x1="0.000000" y1="160.000000" x2="2.000000" y2="160.000000" stroke="black" stroke-width="0.1" />
<line x1="0.000000" y1="161.000000" x2="1.000000" y2="161.000000" stroke="black" stroke-width="0.1" />
<line x1="0.000000" y1="162.000000" x2="1.000000" y2="162.000000" stroke="black" stroke-width="0.1" />
<line x1="0.000000" y1="163.000000" x2="1.000000" y2="163.000000" stroke="black" stroke-width="0.1" />
<line x1="0.000000" y1="164.000000" x2="1.000000" y2="164.000000" stroke="black" stroke-width="0.1" />
<line x1="0.000000" y1="165.000000" x2="3.000000" y2="165.000000" stroke="black" stroke-width="0.1" />
<line x1="0.000000" y1="166.000000" x2="1.000000" y2="166.000000" stroke="black" stroke-width="0.1" />
<line x1="0.000000" y1="167.000000" x2="1.000000" y2="167.000000" stroke="black" stroke-width="0.1" />
<line x1="0.000000" y1="168.000000" x2="1.000000" y2="168.000000" stroke="black" stroke-width="0.1" />
<line x1="0.000000" y1="169.000000" x2="1.000000" y2="169.000000" stroke="black" stroke-width="0.1" />
<line x1="0.000000" y1="170.000000" x2="2.000000" y2="170.000000" stroke="black" stroke-width="0.1" />
<line x1="0.000000" y1="171.000000" x2="1.000000" y2="171.000000" stroke="black" stroke-width="0.1" />
<line x1="0.000000" y1="172.000000" x2="1.000000" y2="172.000000" stroke="black" stroke-width="0.1" />
<line x1="0.000000" y1="173.000000" x2="1.000000" y2="173.000000" stroke="black" stroke-width="0.1" />
<line x1="0.000000" y1="174.000000" x2="1.000000" y2="174.000000" stroke="black" stroke-width="0.1" />
<line x1="0.000000" y1="175.000000" x2="3.000000" y2="175.000000" stroke="black" stroke-width="0.1" />
<line x1="0.000000" y1="176.000000" x2="1.000000" y2="176.000000" stroke="black" stroke-width="0.1" />
<line x1="0.000000" y1="177.000000" x2="1.000000" y2="177.000000" stroke="black" stroke-width="0.1" />
<line x1="0.000000" y1="178.000000" x2="1.000000" y2="178.000000" stroke="black" stroke-width="0.1" />
<line x1="0.000000" y1="179.000000" x2="1.000000" y2="179.000000" stroke="black" stroke-width="0.1" />
<line x1="0.000000" y1="180.000000" x2="2.000000" y2="180.000000" stroke="black" stroke-width="0.1" />
<line x1="0.000000" y1="181.000000" x2="1.000000" y2="181.000000" stroke="black" stroke-width="0.1" />
<line x1="0.000000" y1="182.000000" x2="1.000000" y2="182.000000" stroke="black" stroke-width="0.1" />
<line x1="0.000000" y1="183.000000" x2="1.000000" y2="183.000000" stroke="black" stroke-width="0.1" />
<line x1="0.000000" y1="184.000000" x2="1.000000" y2="184.000000" stroke="black" stroke-width="0.1" />
<line x1="0.000000" y1="185.000000" x2="3.000000" y2="185.000000" stroke="black" stroke-width="0.1" />
<line x1="0.000000" y1="186.000000" x2="1.000000" y2="186.000000" stroke="black" stroke-width="0.1" />
<line x1="0.000000" y1="187.000000" x2="1.000000" y2="187.000000" stroke="black" stroke-width="0.1" />
<line x1="0.000000" y1="188.000000" x2="1.000000" y2="188.000000" stroke="black" stroke-width="0.1" />
<line x1="0.000000" y1="189.000000" x2="1.000000" y2="189.000000" stroke="black" stroke-width="0.1" />
<line x1="0.000000" y1="190.000000" x2="2.000000" y2="190.000000" stroke="black" stroke-width="0.1" />
<line x1="0.000000" y1="191.000000" x2="1.000000" y2="191.000000" stroke="black" stroke-width="0.1" />
<line x1="0.000000" y1="192.000000" x2="1.000000" y2="192.000000" stroke="black" stroke-width="0.1" />
<line x1="0.000000" y1="193.000000" x2="1.000000" y2="193.000000" stroke="black" stroke-width="0.1" />
<line x1="0.000000" y1="194.000000" x2="1.000000" y2="194.000000" stroke="black" stroke-width="0.1" />
<line x1="0.000000" y1="195.000000" x2="3.000000" y2="195.000000" stroke="black" stroke-width="0.1" />
<line x1="0.000000" y1="196.000000" x2="1.000000" y2="196.000000" stroke="black" stroke-width="0.1" />
<line x1="0.000000" y1="197.000000" x2="1.000000" y2="197.000000" stroke="black" stroke-width="0.1" />
<line x1="0.000000" y1="198.000000" x2="1.000000" y2="198.000000" stroke="black" stroke-width="0.1" />
<line x1="0.000000" y1="199.000000" x2="1.000000" y2="199.000000" stroke="black" stroke-width="0.1" />
<line x1="0.000000" y1="200.000000" x2="2.000000" y2="200.000000" stroke="black" stroke-width="0.1" />
<line x1="0.000000" y1="201.000000" x2="1.000000" y2="201.000000" stroke="black" stroke-width="0.1" />
<line x1="0.000000" y1="202.000000" x2="1.000000" y2="202.000000" stroke="black" stroke-width="0.1" />
<line x1="0.000000" y1="203.000000" x2="1.000000" y2="203.000000" stroke="black" stroke-width="0.1" />
<line x1="0.000000" y1="204.000000" x2="1.000000" y2="204.000000" stroke="black" stroke-width="0.1" />
<line x1="0.000000" y1="205.000000" x2="3.000000" y2="205.000000" stroke="black" stroke-width="0.1" />
<line x1="0.000000" y1="206.000000" x2="1.000000" y2="206.000000" stroke="black" stroke-width="0.1" />
<line x1="0.000000" y1="207.000000" x2="1.000000" y2="207.000000" stroke="black" stroke-width="0.1" />
<line x1="0.000000" y1="208.000000" x2="1.000000" y2="208.000000" stroke="black" stroke-width="0.1" />
<line x1="0.000000" y1="209.000000" x2="1.000000" y2="209.000000" stroke="black" stroke-width="0.1" />
<line x1="0.000000" y1="210.000000" x2="2.000000" y2="210.000000" stroke="black" stroke-width="0.1" />
<line x1="0.000000" y1="211.000000" x2="1.000000" y2="211.000000" stroke="black" stroke-width="0.1" />
<line x1="0.000000" y1="212.000000" x2="1.000000" y2="212.000000" stroke="black" stroke-width="0.1" />
<line x1="0.000000" y1="213.000000" x2="1.000000" y2="213.000000" stroke="black" stroke-width="0.1" />
<line x1="0.000000" y1="214.000000" x2="1.000000" y2="214.000000" stroke="black" stroke-width="0.1" />
<line x1="0.000000" y1="215.000000" x2="3.000000" y2="215.000000" stroke="black" stroke-width="0.1" />
<line x1="0.000000" y1="216.000000" x2="1.000000" y2="216.000000" stroke="black" stroke-width="0.1" />
<line x1="0.000000" y1="217.000000" x2="1.000000" y2="217.000000" stroke="black" stroke-width="0.1" />
<line x1="0.000000" y1="218.000000" x2="1.000000" y2="218.000000" stroke="black" stroke-width="0.1" />
<line x1="0.000000" y1="219.000000" x2="1.000000" y2="219.000000" stroke="black" stroke-width="0.1" />
<line x1="0.000000" y1="220.000000" x2="2.000000" y2="220.000000" stroke="black" stroke-width="0.1" />
<line x1="0.000000" y1="221.000000" x2="1.000000" y2="221.000000" stroke="black" stroke-width="0.1" />
<line x1="0.000000" y1="222.000000" x2="1.000000" y2="222.000000" stroke="black" stroke-width="0.1" />
<line x1="0.000000" y1="223.000000" x2="1.000000" y2="223.000000" stroke="black" stroke-width="0.1" />
<line x1="0.000000" y1="224.000000" x2="1.000000" y2="224.000000" stroke="black" stroke-width="0.1" />
<line x1="0.000000" y1="225.000000" x2="3.000000" y2="225.000000" stroke="black" stroke-width="0.1" />
<line x1="0.000000" y1="226.000000" x2="1.000000" y2="226.000000" stroke="black" stroke-width="0.1" />
<line x1="0.000000" y1="227.000000" x2="1.000000" y2="227.000000" stroke="black" stroke-width="0.1" />
<line x1="0.000000" y1="228.000000" x2="1.000000" y2="228.000000" stroke="black" stroke-width="0.1" />
<line x1="0.000000" y1="229.000000" x2="1.000000" y2="229.000000" stroke="black" stroke-width="0.1" />
<line x1="0.000000" y1="230.000000" x2="2.000000" y2="230.000000" stroke="black" stroke-width="0.1" />
<line x1="0.000000" y1="231.000000" x2="1.000000" y2="231.000000" stroke="black" stroke-width="0.1" />
<line x1="0.000000" y1="232.000000" x2="1.000000" y2="232.000000" stroke="black" stroke-width="0.1" />
<line x1="0.000000" y1="233.000000" x2="1.000000" y2="233.000000" stroke="black" stroke-width="0.1" />
<line x1="0.000000" y1="234.000000" x2="1.000000" y2="234.000000" stroke="black" stroke-width="0.1" />
<line x1="0.000000" y1="235.000000" x2="3.000000" y2="235.000000" stroke="black" stroke-width="0.1" />
<line x1="0.000000" y1="236.000000" x2="1.000000" y2="236.000000" stroke="black" stroke-width="0.1" />
<line x1="0.000000" y1="237.000000" x2="1.000000" y2="237.000000" stroke="black" stroke-width="0.1" />
<line x1="0.000000" y1="238.000000" x2="1.000000" y2="238.000000" stroke="black" stroke-width="0.1" />
<line x1="0.000000" y1="239.000000" x2="1.000000" y2="239.000000" stroke="black" stroke-width="0.1" />
<line x1="0.000000" y1="240.000000" x2="2.000000" y2="240.000000" stroke="black" stroke-width="0.1" />
<line x1="0.000000" y1="241.000000" x2="1.000000" y2="241.000000" stroke="black" stroke-width="0.1" />
<line x1="0.000000" y1="242.000000" x2="1.000000" y2="242.000000" stroke="black" stroke-width="0.1" />
<line x1="0.000000" y1="243.000000" x2="1.000000" y2="243.000000" stroke="black" stroke-width="0.1" />
<line x1="0.000000" y1="244.000000" x2="1.000000" y2="244.000000" stroke="black" stroke-width="0.1" />
<line x1="0.000000" y1="245.000000" x2="3.000000" y2="245.000000" stroke="black" stroke-width="0.1" />
<line x1="0.000000" y1="246.000000" x2="1.000000" y2="246.000000" stroke="black" stroke-width="0.1" />
<line x1="0.000000" y1="247.000000" x2="1.000000" y2="247.000000" stroke="black" stroke-width="0.1" />
<line x1="0.000000" y1="248.000000" x2="1.000000" y2="248.000000" stroke="black" stroke-width="0.1" />
<line x1="0.000000" y1="249.000000" x2="1.000000" y2="249.000000" stroke="black" stroke-width="0.1" />
<line x1="0.000000" y1="250.000000" x2="2.000000" y2="250.000000" stroke="black" stroke-width="0.1" />
<line x1="0.000000" y1="251.000000" x2="1.000000" y2="251.000000" stroke="black" stroke-width="0.1" />
<line x1="0.000000" y1="252.000000" x2="1.000000" y2="252.000000" stroke="black" stroke-width="0.1" />
<line x1="0.000000" y1="253.000000" x2="1.000000" y2="253.000000" stroke="black" stroke-width="0.1" />
<line x1="0.000000" y1="254.000000" x2="1.000000" y2="254.000000" stroke="black" stroke-width="0.1" />
<line x1="0.000000" y1="255.000000" x2="3.000000" y2="255.000000" stroke="black" stroke-width="0.1" />
<line x1="8.000000" y1="255.000000" x2="8.000000" y2="252.000000" stroke="black" stroke-width="0.1" />
<line x1="9.000000" y1="255.000000" x2="9.000000" y2="254.000000" stroke="black" stroke-width="0.1" />
<line x1="10.000000" y1="255.000000" x2="10.000000" y2="254.000000" stroke="black" stroke-width="0.1" />
<line x1="11.000000" y1="255.000000" x2="11.000000" y2="254.000000" stroke="black" stroke-width="0.1" />
<line x1="12.000000" y1="255.000000" x2="12.000000" y2="254.000000" stroke="black" stroke-width="0.1" />
<line x1="13.000000" y1="255.000000" x2="13.000000" y2="253.000000" stroke="black" stroke-width="0.1" />
<line x1="14.000000" y1="255.000000" x2="14.000000" y2="254.000000" stroke="black" stroke-width="0.1" />
<line x1="15.000000" y1="255.000000" x2="15.000000" y2="254.000000" stroke="black" stroke-width="0.1" />
<line x1="16.000000" y1="255.000000" x2="16.000000" y2="254.000000" stroke="black" stroke-width="0.1" />
<line x1="17.000000" y1="255.000000" x2="17.000000" y2="254.000000" stroke="black" stroke-width="0.1" />
<line x1="18.000000" y1="255.000000" x2="18.000000" y2="252.000000" stroke="black" stroke-width="0.1" />
<line x1="19.000000" y1="255.000000" x2="19.000000" y2="254.000000" stroke="black" stroke-width="0.1" />
<line x1="20.000000" y1="255.000000" x2="20.000000" y2="254.000000" stroke="black" stroke-width="0.1" />
<line x1="21.000000" y1="255.000000" x2="21.000000" y2="254.000000" stroke="black" stroke-width="0.1" />
<line x1="22.000000" y1="255.000000" x2="22.000000" y2="254.000000" stroke="black" stroke-width="0.1" />
<line x1="23.000000" y1="255.000000" x2="23.000000" y2="253.000000" stroke="black" stroke-width="0.1" />
<line x1="24.000000" y1="255.000000" x2="24.000000" y2="254.000000" stroke="black" stroke-width="0.1" />
<line x1="25.000000" y1="255.000000" x2="25.000000" y2="254.000000" stroke="black" stroke-width="0.1" />
<line x1="26.000000" y1="255.000000" x2="26.000000" y2="254.000000" stroke="black" stroke-width="0.1" />
<line x1="27.000000" y1="255.000000" x2="27.000000" y2="254.000000" stroke="black" stroke-width="0.1" />
<line x1="28.000000" y1="255.000000" x2="28.000000" y2="252.000000" stroke="black" stroke-width="0.1" />
<line x1="29.000000" y1="255.000000" x2="29.000000" y2="254.000000" stroke="black" stroke-width="0.1" />
<line x1="30.000000" y1="255.000000" x2="30.000000" y2="254.000000" stroke="black" stroke-width="0.1" />
<line x1="31.000000" y1="255.000000" x2="31.000000" y2="254.000000" stroke="black" stroke-width="0.1" />
<line x1="32.000000" y1="255.000000" x2="32.000000" y2="254.000000" stroke="black" stroke-width="0.1" />
<line x1="33.000000" y1="255.000000" x2="33.000000" y2="253.000000" stroke="black" stroke-width="0.1" />
<line x1="34.000000" y1="255.000000" x2="34.000000" y2="254.000000" stroke="black" stroke-width="0.1" />
<line x1="35.000000" y1="255.000000" x2="35.000000" y2="254.000000" stroke="black" stroke-width="0.1" />
<line x1="36.000000" y1="255.000000" x2="36.000000" y2="254.000000" stroke="black" stroke-width="0.1" />
<line x1="37.000000" y1="255.000000" x2="37.000000" y2="254.000000" stroke="black" stroke-width="0.1" />
<line x1="38.000000" y1="255.000000" x2="38.000000" y2="252.000000" stroke="black" stroke-width="0.1" />
<line x1="39.000000" y1="255.000000" x2="39.000000" y2="254.000000" stroke="black" stroke-width="0.1" />
<line x1="40.000000" y1="255.000000" x2="40.000000" y2="254.000000" stroke="black" stroke-width="0.1" />
<line x1="41.000000" y1="255.000000" x2="41.000000" y2="254.000000" stroke="black" stroke-width="0.1" />
<line x1="42.000000" y1="255.000000" x2="42.000000" y2="254.000000" stroke="black" stroke-width="0.1" />
<line x1="43.000000" y1="255.000000" x2="43.000000" y2="253.000000" stroke="black" stroke-width="0.1" />
<line x1="44.000000" y1="255.000000" x2="44.000000" y2="254.000000" stroke="black" stroke-width="0.1" />
<line x1="45.000000" y1="255.000000" x2="45.000000" y2="254.000000" stroke="black" stroke-width="0.1" />
<line x1="46.000000" y1="255.000000" x2="46.000000" y2="254.000000" stroke="black" stroke-width="0.1" />
<line x1="47.000000" y1="255.000000" x2="47.000000" y2="254.000000" stroke="black" stroke-width="0.1" />
<line x1="48.000000" y1="255.000000" x2="48.000000" y2="252.000000" stroke="black" stroke-width="0.1" />
<line x1="48.000000" y1="255.000000" x2="48.000000" y2="252.000000" stroke="black" stroke-width="0.1" />
<line x1="49.000000" y1="255.000000" x2="49.000000" y2="254.000000" stroke="black" stroke-width="0.1" />
<line x1="50.000000" y1="255.000000" x2="50.000000" y2="254.000000" stroke="black" stroke-width="0.1" />
<line x1="51.000000" y1="255.000000" x2="51.000000" y2="254.000000" stroke="black" stroke-width="0.1" />
<line x1="52.000000" y1="255.000000" x2="52.000000" y2="254.000000" stroke="black" stroke-width="0.1" />
<line x1="53.000000" y1="255.000000" x2="53.000000" y2="253.000000" stroke="black" stroke-width="0.1" />
<line x1="54.000000" y1="255.000000" x2="54.000000" y2="254.000000" stroke="black" stroke-width="0.1" />
<line x1="55.000000" y1="255.000000" x2="55.000000" y2="254.000000" stroke="black" stroke-width="0.1" />
<line x1="56.000000" y1="255.000000" x2="56.000000" y2="254.000000" stroke="black" stroke-width="0.1" />
<line x1="57.000000" y1="255.000000" x2="57.000000" y2="254.000000" stroke="black" stroke-width="0.1" />
<line x1="58.000000" y1="255.000000" x2="58.000000" y2="252.000000" stroke="black" stroke-width="0.1" />
<line x1="59.000000" y1="255.000000" x2="59.000000" y2="254.000000" stroke="black" stroke-width="0.1" />
<line x1="60.000000" y1="255.000000" x2="60.000000" y2="254.000000" stroke="black" stroke-width="0.1" />
<line x1="61.000000" y1="255.000000" x2="61.000000" y2="254.000000" stroke="black" stroke-width="0.1" />
<line x1="62.000000" y1="255.000000" x2="62.000000" y2="254.000000" stroke="black" stroke-width="0.1" />
<line x1="63.000000" y1="255.000000" x2="63.000000" y2="253.000000" stroke="black" stroke-width="0.1" />
<line x1="64.000000" y1="255.000000" x2="64.000000" y2="254.000000" stroke="black" stroke-width="0.1" />
<line x1="65.000000" y1="255.000000" x2="65.000000" y2="254.000000" stroke="black" stroke-width="0.1" />
<line x1="66.000000" y1="255.000000" x2="66.000000" y2="254.000000" stroke="black" stroke-width="0.1" />
<line x1="67.000000" y1="255.000000" x2="67.000000" y2="254.000000" stroke="black" stroke-width="0.1" />
<line x1="68.000000" y1="255.000000" x2="68.000000" y2="252.000000" stroke="black" stroke-width="0.1" />
<line x1="69.000000" y1="255.000000" x2="69.000000" y2="254.000000" stroke="black" stroke-width="0.1" />
<line x1="70.000000" y1="255.000000" x2="70.000000" y2="254.000000" stroke="black" stroke-width="0.1" />
<line x1="71.000000" y1="255.000000" x2="71.000000" y2="254.000000" stroke="black" stroke-width="0.1" />
<line x1="72.000000" y1="255.000000" x2="72.000000" y2="254.000000" stroke="black" stroke-width="0.1" />
<line x1="73.000000" y1="255.000000" x2="73.000000" y2="253.000000" stroke="black" stroke-width="0.1" />
<line x1="74.000000" y1="255.000000" x2="74.000000" y2="254.000000" stroke="black" stroke-width="0.1" />
<line x1="75.000000" y1="255.000000" x2="75.000000" y2="254.000000" stroke="black" stroke-width="0.1" />
<line x1="76.000000" y1="255.000000" x2="76.000000" y2="254.000000" stroke="black" stroke-width="0.1" />
<line x1="77.000000" y1="255.000000" x2="77.000000" y2="254.000000" stroke="black" stroke-width="0.1" />
<line x1="78.000000" y1="255.000000" x2="78.000000" y2="252.000000" stroke="black" stroke-width="0.1" />
<line x1="79.000000" y1="255.000000" x2="79.000000" y2="254.000000" stroke="black" stroke-width="0.1" />
<line x1="80.000000" y1="255.000000" x2="80.000000" y2="254.000000" stroke="black" stroke-width="0.1" />
<line x1="81.000000" y1="255.000000" x2="81.000000" y2="254.000000" stroke="black" stroke-width="0.1" />
<line x1="82.000000" y1="255.000000" x2="82.000000" y2="254.000000" stroke="black" stroke-width="0.1" />
<line x1="83.000000" y1="255.000000" x2="83.000000" y2="253.000000" stroke="black" stroke-width="0.1" />
<line x1="84.000000" y1="255.000000" x2="84.000000" y2="254.000000" stroke="black" stroke-width="0.1" />
<line x1="85.000000" y1="255.000000" x2="85.000000" y2="254.000000" stroke="black" stroke-width="0.1" />
<line x1="86.000000" y1="255.000000" x2="86.000000" y2="254.000000" stroke="black" stroke-width="0.1" />
<line x1="87.000000" y1="255.000000" x2="87.000000" y2="254.000000" stroke="black" stroke-width="0.1" />
<line x1="88.000000" y1="255.000000" x2="88.000000" y2="252.000000" stroke="black" stroke-width="0.1" />
<text x="83.000000" y="10.000000" class="small" transform="rotate(90 83.000000 10.000000)" >Salomon Shift 297, Heel</text>
<text x="179.000000" y="10.000000" class="small" transform="rotate(90 179.000000 10.000000)" >Salomon Shift 297, Toe</text>
<circle cx="144.000000" cy="61.500000" r="2.500000" fill="none" stroke="black" stroke-width="0.1" />
<circle cx="144.000000" cy="61.500000" r="0.250000" fill="none" stroke="black" stroke-width="0.1" />
<line x1="143.750000" y1="61.500000" x2="143.500000" y2="61.500000" stroke="black" stroke-width="0.1" />
<line x1="144.250000" y1="61.500000" x2="144.500000" y2="61.500000" stroke="black" stroke-width="0.1" />
<line x1="144.000000" y1="61.250000" x2="144.000000" y2="61.000000" stroke="black" stroke-width="0.1" />
<line x1="144.000000" y1="61.750000" x2="144.000000" y2="62.000000" stroke="black" stroke-width="0.1" />
<line x1="141.000000" y1="61.500000" x2="142.000000" y2="61.500000" stroke="black" stroke-width="0.1" />
<line x1="146.000000" y1="61.500000" x2="147.000000" y2="61.500000" stroke="black" stroke-width="0.1" />
<line x1="144.000000" y1="58.500000" x2="144.000000" y2="59.500000" stroke="black" stroke-width="0.1" />
<line x1="144.000000" y1="63.500000" x2="144.000000" y2="64.500000" stroke="black" stroke-width="0.1" />
<circle cx="129.000000" cy="196.500000" r="2.500000" fill="none" stroke="black" stroke-width="0.1" />
<circle cx="129.000000" cy="196.500000" r="0.250000" fill="none" stroke="black" stroke-width="0.1" />
<line x1="128.750000" y1="196.500000" x2="128.500000" y2="196.500000" stroke="black" stroke-width="0.1" />
<line x1="129.250000" y1="196.500000" x2="129.500000" y2="196.500000" stroke="black" stroke-width="0.1" />
<line x1="129.000000" y1="196.250000" x2="129.000000" y2="196.000000" stroke="black" stroke-width="0.1" />
<line x1="129.000000" y1="196.750000" x2="129.000000" y2="197.000000" stroke="black" stroke-width="0.1" />
<line x1="126.000000" y1="196.500000" x2="127.000000" y2="196.500000" stroke="black" stroke-width="0.1" />
<line x1="131.000000" y1="196.500000" x2="132.000000" y2="196.500000" stroke="black" stroke-width="0.1" />
<line x1="129.000000" y1="193.500000" x2="129.000000" y2="194.500000" stroke="black" stroke-width="0.1" />
<line x1="129.000000" y1="198.500000" x2="129.000000" y2="199.500000" stroke="black" stroke-width="0.1" />
<circle cx="159.000000" cy="196.500000" r="2.500000" fill="none" stroke="black" stroke-width="0.1" />
<circle cx="159.000000" cy="196.500000" r="0.250000" fill="none" stroke="black" stroke-width="0.1" />
<line x1="158.750000" y1="196.500000" x2="158.500000" y2="196.500000" stroke="black" stroke-width="0.1" />
<line x1="159.250000" y1="196.500000" x2="159.500000" y2="196.500000" stroke="black" stroke-width="0.1" />
<line x1="159.000000" y1="196.250000" x2="159.000000" y2="196.000000" stroke="black" stroke-width="0.1" />
<line x1="159.000000" y1="196.750000" x2="159.000000" y2="197.000000" stroke="black" stroke-width="0.1" />
<line x1="156.000000" y1="196.500000" x2="157.000000" y2="196.500000" stroke="black" stroke-width="0.1" />
<line x1="161.000000" y1="196.500000" x2="162.000000" y2="196.500000" stroke="black" stroke-width="0.1" />
<line x1="159.000000" y1="193.500000" x2="159.000000" y2="194.500000" stroke="black" stroke-width="0.1" />
<line x1="159.000000" y1="198.500000" x2="159.000000" y2="199.500000" stroke="black" stroke-width="0.1" />
<circle cx="30.000000" cy="138.500000" r="2.500000" fill="none" stroke="black" stroke-width="0.1" />
<circle cx="30.000000" cy="138.500000" r="0.250000" fill="none" stroke="black" stroke-width="0.1" />
<line x1="29.750000" y1="138.500000" x2="29.500000" y2="138.500000" stroke="black" stroke-width="0.1" />
<line x1="30.250000" y1="138.500000" x2="30.500000" y2="138.500000" stroke="black" stroke-width="0.1" />
<line x1="30.000000" y1="138.250000" x2="30.000000" y2="138.000000" stroke="black" stroke-width="0.1" />
<line x1="30.000000" y1="138.750000" x2="30.000000" y2="139.000000" stroke="black" stroke-width="0.1" />
<line x1="27.000000" y1="138.500000" x2="28.000000" y2="138.500000" stroke="black" stroke-width="0.1" />
<line x1="32.000000" y1="138.500000" x2="33.000000" y2="138.500000" stroke="black" stroke-width="0.1" />
<line x1="30.000000" y1="135.500000" x2="30.000000" y2="136.500000" stroke="black" stroke-width="0.1" />
<line x1="30.000000" y1="140.500000" x2="30.000000" y2="141.500000" stroke="black" stroke-width="0.1" />
<circle cx="66.000000" cy="138.500000" r="2.500000" fill="none" stroke="black" stroke-width="0.1" />
<circle cx="66.000000" cy="138.500000" r="0.250000" fill="none" stroke="black" stroke-width="0.1" />
<line x1="65.750000" y1="138.500000" x2="65.500000" y2="138.500000" stroke="black" stroke-width="0.1" />
<line x1="66.250000" y1="138.500000" x2="66.500000" y2="138.500000" stroke="black" stroke-width="0.1" />
<line x1="66.000000" y1="138.250000" x2="66.000000" y2="138.000000" stroke="black" stroke-width="0.1" />
<line x1="66.000000" y1="138.750000" x2="66.000000" y2="139.000000" stroke="black" stroke-width="0.1" />
<line x1="63.000000" y1="138.500000" x2="64.000000" y2="138.500000" stroke="black" stroke-width="0.1" />
<line x1="68.000000" y1="138.500000" x2="69.000000" y2="138.500000" stroke="black" stroke-width="0.1" />
<line x1="66.000000" y1="135.500000" x2="66.000000" y2="136.500000" stroke="black" stroke-width="0.1" />
<line x1="66.000000" y1="140.500000" x2="66.000000" y2="141.500000" stroke="black" stroke-width="0.1" />
<circle cx="30.000000" cy="206.500000" r="2.500000" fill="none" stroke="black" stroke-width="0.1" />
<circle cx="30.000000" cy="206.500000" r="0.250000" fill="none" stroke="black" stroke-width="0.1" />
<line x1="29.750000" y1="206.500000" x2="29.500000" y2="206.500000" stroke="black" stroke-width="0.1" />
<line x1="30.250000" y1="206.500000" x2="30.500000" y2="206.500000" stroke="black" stroke-width="0.1" />
<line x1="30.000000" y1="206.250000" x2="30.000000" y2="206.000000" stroke="black" stroke-width="0.1" />
<line x1="30.000000" y1="206.750000" x2="30.000000" y2="207.000000" stroke="black" stroke-width="0.1" />
<line x1="27.000000" y1="206.500000" x2="28.000000" y2="206.500000" stroke="black" stroke-width="0.1" />
<line x1="32.000000" y1="206.500000" x2="33.000000" y2="206.500000" stroke="black" stroke-width="0.1" />
<line x1="30.000000" y1="203.500000" x2="30.000000" y2="204.500000" stroke="black" stroke-width="0.1" />
<line x1="30.000000" y1="208.500000" x2="30.000000" y2="209.500000" stroke="black" stroke-width="0.1" />
<circle cx="66.000000" cy="206.500000" r="2.500000" fill="none" stroke="black" stroke-width="0.1" />
<circle cx="66.000000" cy="206.500000" r="0.250000" fill="none" stroke="black" stroke-width="0.1" />
<line x1="65.750000" y1="206.500000" x2="65.500000" y2="206.500000" stroke="black" stroke-width="0.1" />
<line x1="66.250000" y1="206.500000" x2="66.500000" y2="206.500000" stroke="black" stroke-width="0.1" />
<line x1="66.000000" y1="206.250000" x2="66.000000" y2="206.000000" stroke="black" stroke-width="0.1" />
<line x1="66.000000" y1="206.750000" x2="66.000000" y2="207.000000" stroke="black" stroke-width="0.1" />
<line x1="63.000000" y1="206.500000" x2="64.000000" y2="206.500000" stroke="black" stroke-width="0.1" />
<line x1="68.000000" y1="206.500000" x2="69.000000" y2="206.500000" stroke="black" stroke-width="0.1" />
<line x1="66.000000" y1="203.500000" x2="66.000000" y2="204.500000" stroke="black" stroke-width="0.1" />
<line x1="66.000000" y1="208.500000" x2="66.000000" y2="209.500000" stroke="black" stroke-width="0.1" />
</svg>