<?xml version="1.0"?>
<!DOCTYPE svg PUBLIC "-//W3C//DTD SVG 1.1//EN"
"http://www.w3.org/Graphics/SVG/1.1/DTD/svg11.dtd">
<svg xmlns="http://www.w3.org/2000/svg" version="1.2" width="192.000000mm" height="259.000000mm" viewBox="0 0 192.000000 259.000000" style="background-color:white" >
<line x1="48.000000" y1="0.000000" x2="48.000000" y2="259.000000" stroke="black" stroke-width="0.1" />
<line x1="144.000000" y1="0.000000" x2="144.000000" y2="259.000000" stroke="black" stroke-width="0.1" />
<line x1="104.000000" y1="255.000000" x2="184.000000" y2="255.000000" stroke="black" stroke-width="0.1" />
<line x1="8.000000" y1="5.000000" x2="88.000000" y2="5.000000" stroke="black" stroke-width="0.1" />
<line x1="96.000000" y1="0.000000" x2="96.000000" y2="259.000000" stroke="black" stroke-width="0.1" stroke-dasharray="2 2" />
<line x1="0.000000" y1="259.000000" x2="96.000000" y2="259.000000" stroke="black" stroke-width="0.1" stroke-dasharray="2 2" />
<line x1="96.000000" y1="0.000000" x2="192.000000" y2="0.000000" stroke="black" stroke-width="0.1" stroke-dasharray="2 2" />
<line x1="48.000000" y1="7.000000" x2="41.000000" y2="0.000000" stroke="black" stroke-width="0.1" stroke-dasharray="2 2" />
<line x1="48.000000" y1="7.000000" x2="55.000000" y2="0.000000" stroke="black" stroke-width="0.1" stroke-dasharray="2 2" />
<line x1="144.000000" y1="253.000000" x2="138.000000" y2="259.000000" stroke="black" stroke-width="0.1" stroke-dasharray="2 2" />
<line x1="144.000000" y1="253.000000" x2="150.000000" y2="259.000000" stroke="black" stroke-width="0.1" stroke-dasharray="2 2" />
<text x="83.000000" y="130.000000" font-family="Arial" font-size="8" text-anchor="middle" dominant-baseline="middle" transform="rotate(90 83.000000 130.000000)" >Salomon Shift 265, Heel</text>
<text x="179.000000" y="130.000000" font-family="Arial" font-size="8" text-anchor="middle" dominant-baseline="middle" transform="rotate(90 179.000000 130.000000)" >Salomon Shift 265, Toe</text>
<line x1="104.000000" y1="212.500000" x2="104.000000" y2="255.000000" stroke="black" stroke-width="0.1" />
<line x1="101.500000" y1="212.500000" x2="106.500000" y2="212.500000" stroke="black" stroke-width="0.1" />
<line x1="104.000000" y1="212.500000" x2="101.500000" y2="215.000000" stroke="black" stroke-width="0.1" />
<line x1="104.000000" y1="212.500000" x2="106.500000" y2="215.000000" stroke="black" stroke-width="0.1" />
<line x1="101.500000" y1="255.000000" x2="106.500000" y2="255.000000" stroke="black" stroke-width="0.1" />
<line x1="104.000000" y1="255.000000" x2="101.500000" y2="252.500000" stroke="black" stroke-width="0.1" />
<line x1="104.000000" y1="255.000000" x2="106.500000" y2="252.500000" stroke="black" stroke-width="0.1" />
<text x="106.500000" y="233.750000" font-family="Arial" font-size="4" text-anchor="middle" dominant-baseline="middle" transform="rotate(90 106.500000 233.750000)" >42.5 mm</text>
<line x1="114.000000" y1="77.500000" x2="114.000000" y2="212.500000" stroke="black" stroke-width="0.1" />
<line x1="111.500000" y1="77.500000" x2="116.500000" y2="77.500000" stroke="black" stroke-width="0.1" />
<line x1="114.000000" y1="77.500000" x2="111.500000" y2="80.000000" stroke="black" stroke-width="0.1" />
<line x1="114.000000" y1="77.500000" x2="116.500000" y2="80.000000" stroke="black" stroke-width="0.1" />
<line x1="111.500000" y1="212.500000" x2="116.500000" y2="212.500000" stroke="black" stroke-width="0.1" />
<line x1="114.000000" y1="212.500000" x2="111.500000" y2="210.000000" stroke="black" stroke-width="0.1" />
<line x1="114.000000" y1="212.500000" x2="116.500000" y2="210.000000" stroke="black" stroke-width="0.1" />
<text x="116.500000" y="145.000000" font-family="Arial" font-size="4" text-anchor="middle" dominant-baseline="middle" transform="rotate(90 116.500000 145.000000)" >135.0 mm</text>
<line x1="8.000000" y1="5.000000" x2="8.000000" y2="122.500000" stroke="black" stroke-width="0.1" />
<line x1="5.500000" y1="5.000000" x2="10.500000" y2="5.000000" stroke="black" stroke-width="0.1" />
<line x1="8.000000" y1="5.000000" x2="5.500000" y2="7.500000" stroke="black" stroke-width="0.1" />
<line x1="8.000000" y1="5.000000" x2="10.500000" y2="7.500000" stroke="black" stroke-width="0.1" />
<line x1="5.500000" y1="122.500000" x2="10.500000" y2="122.500000" stroke="black" stroke-width="0.1" />
<line x1="8.000000" y1="122.500000" x2="5.500000" y2="120.000000" stroke="black" stroke-width="0.1" />
<line x1="8.000000" y1="122.500000" x2="10.500000" y2="120.000000" stroke="black" stroke-width="0.1" />
<text x="10.500000" y="63.750000" font-family="Arial" font-size="4" text-anchor="middle" dominant-baseline="middle" transform="rotate(90 10.500000 63.750000)" >117.5 mm</text>
<line x1="18.000000" y1="122.500000" x2="18.000000" y2="190.500000" stroke="black" stroke-width="0.1" />
<line x1="15.500000" y1="122.500000" x2="20.500000" y2="122.500000" stroke="black" stroke-width="0.1" />
<line x1="18.000000" y1="122.500000" x2="15.500000" y2="125.000000" stroke="black" stroke-width="0.1" />
<line x1="18.000000" y1="122.500000" x2="20.500000" y2="125.000000" stroke="black" stroke-width="0.1" />
<line x1="15.500000" y1="190.500000" x2="20.500000" y2="190.500000" stroke="black" stroke-width="0.1" />
<line x1="18.000000" y1="190.500000" x2="15.500000" y2="188.000000" stroke="black" stroke-width="0.1" />
<line x1="18.000000" y1="190.500000" x2="20.500000" y2="188.000000" stroke="black" stroke-width="0.1" />
<text x="20.500000" y="156.500000" font-family="Arial" font-size="4" text-anchor="middle" dominant-baseline="middle" transform="rotate(90 20.500000 156.500000)" >68.0 mm</text>
<line x1="129.000000" y1="202.500000" x2="159.000000" y2="202.500000" stroke="black" stroke-width="0.1" />
<line x1="129.000000" y1="200.000000" x2="129.000000" y2="205.000000" stroke="black" stroke-width="0.1" />
<line x1="129.000000" y1="202.500000" x2="131.500000" y2="205.000000" stroke="black" stroke-width="0.1" />
<line x1="129.000000" y1="202.500000" x2="131.500000" y2="200.000000" stroke="black" stroke-width="0.1" />
<line x1="159.000000" y1="200.000000" x2="159.000000" y2="205.000000" stroke="black" stroke-width="0.1" />
<line x1="159.000000" y1="202.500000" x2="156.500000" y2="205.000000" stroke="black" stroke-width="0.1" />
<line x1="159.000000" y1="202.500000" x2="156.500000" y2="200.000000" stroke="black" stroke-width="0.1" />
<text x="149.000000" y="192.500000" font-family="Arial" font-size="4" text-anchor="middle" dominant-baseline="middle" transform="rotate(90 149.000000 192.500000)" >30.0 mm</text>
<line x1="30.000000" y1="132.500000" x2="66.000000" y2="132.500000" stroke="black" stroke-width="0.1" />
<line x1="30.000000" y1="130.000000" x2="30.000000" y2="135.000000" stroke="black" stroke-width="0.1" />
<line x1="30.000000" y1="132.500000" x2="32.500000" y2="135.000000" stroke="black" stroke-width="0.1" />
<line x1="30.000000" y1="132.500000" x2="32.500000" y2="130.000000" stroke="black" stroke-width="0.1" />
<line x1="66.000000" y1="130.000000" x2="66.000000" y2="135.000000" stroke="black" stroke-width="0.1" />
<line x1="66.000000" y1="132.500000" x2="63.500000" y2="135.000000" stroke="black" stroke-width="0.1" />
<line x1="66.000000" y1="132.500000" x2="63.500000" y2="130.000000" stroke="black" stroke-width="0.1" />
<text x="53.000000" y="142.500000" font-family="Arial" font-size="4" text-anchor="middle" dominant-baseline="middle" transform="rotate(90 53.000000 142.500000)" >36.0 mm</text>
<line x1="30.000000" y1="200.500000" x2="66.000000" y2="200.500000" stroke="black" stroke-width="0.1" />
<line x1="30.000000" y1="198.000000" x2="30.000000" y2="203.000000" stroke="black" stroke-width="0.1" />
<line x1="30.000000" y1="200.500000" x2="32.500000" y2="203.000000" stroke="black" stroke-width="0.1" />
<line x1="30.000000" y1="200.500000" x2="32.500000" y2="198.000000" stroke="black" stroke-width="0.1" />
<line x1="66.000000" y1="198.000000" x2="66.000000" y2="203.000000" stroke="black" stroke-width="0.1" />
<line x1="66.000000" y1="200.500000" x2="63.500000" y2="203.000000" stroke="black" stroke-width="0.1" />
<line x1="66.000000" y1="200.500000" x2="63.500000" y2="198.000000" stroke="black" stroke-width="0.1" />
<text x="53.000000" y="210.500000" font-family="Arial" font-size="4" text-anchor="middle" dominant-baseline="middle" transform="rotate(90 53.000000 210.500000)" >36.0 mm</text>
<circle cx="144.000000" cy="77.500000" r="2.500000" fill="none" stroke="black" stroke-width="0.1" />
<circle cx="144.000000" cy="77.500000" r="0.250000" fill="none" stroke="black" stroke-width="0.1" />
<line x1="143.750000" y1="77.500000" x2="143.500000" y2="77.500000" stroke="black" stroke-width="0.1" />
<line x1="144.250000" y1="77.500000" x2="144.500000" y2="77.500000" stroke="black" stroke-width="0.1" />
<line x1="144.000000" y1="77.250000" x2="144.000000" y2="77.000000" stroke="black" stroke-width="0.1" />
<line x1="144.000000" y1="77.750000" x2="144.000000" y2="78.000000" stroke="black" stroke-width="0.1" />
<line x1="141.000000" y1="77.500000" x2="142.000000" y2="77.500000" stroke="black" stroke-width="0.1" />
<line x1="146.000000" y1="77.500000" x2="147.000000" y2="77.500000" stroke="black" stroke-width="0.1" />
<line x1="144.000000" y1="74.500000" x2="144.000000" y2="75.500000" stroke="black" stroke-width="0.1" />
<line x1="144.000000" y1="79.500000" x2="144.000000" y2="80.500000" stroke="black" stroke-width="0.1" />
<circle cx="129.000000" cy="212.500000" r="2.500000" fill="none" stroke="black" stroke-width="0.1" />
<circle cx="129.000000" cy="212.500000" r="0.250000" fill="none" stroke="black" stroke-width="0.1" />
<line x1="128.750000" y1="212.500000" x2="128.500000" y2="212.500000" stroke="black" stroke-width="0.1" />
<line x1="129.250000" y1="212.500000" x2="129.500000" y2="212.500000" stroke="black" stroke-width="0.1" />
<line x1="129.000000" y1="212.250000" x2="129.000000" y2="212.000000" stroke="black" stroke-width="0.1" />
<line x1="129.000000" y1="212.750000" x2="129.000000" y2="213.000000" stroke="black" stroke-width="0.1" />
<line x1="126.000000" y1="212.500000" x2="127.000000" y2="212.500000" stroke="black" stroke-width="0.1" />
<line x1="131.000000" y1="212.500000" x2="132.000000" y2="212.500000" stroke="black" stroke-width="0.1" />
<line x1="129.000000" y1="209.500000" x2="129.000000" y2="210.500000" stroke="black" stroke-width="0.1" />
<line x1="129.000000" y1="214.500000" x2="129.000000" y2="215.500000" stroke="black" stroke-width="0.1" />
<circle cx="159.000000" cy="212.500000" r="2.500000" fill="none" stroke="black" stroke-width="0.1" />
<circle cx="159.000000" cy="212.500000" r="0.250000" fill="none" stroke="black" stroke-width="0.1" />
<line x1="158.750000" y1="212.500000" x2="158.500000" y2="212.500000" stroke="black" stroke-width="0.1" />
<line x1="159.250000" y1="212.500000" x2="159.500000" y2="212.500000" stroke="black" stroke-width="0.1" />
<line x1="159.000000" y1="212.250000" x2="159.000000" y2="212.000000" stroke="black" stroke-width="0.1" />
<line x1="159.000000" y1="212.750000" x2="159.000000" y2="213.000000" stroke="black" stroke-width="0.1" />
<line x1="156.000000" y1="212.500000" x2="157.000000" y2="212.500000" stroke="black" stroke-width="0.1" />
<line x1="161.000000" y1="212.500000" x2="162.000000" y2="212.500000" stroke="black" stroke-width="0.1" />
<line x1="159.000000" y1="209.500000" x2="159.000000" y2="210.500000" stroke="black" stroke-width="0.1" />
<line x1="159.000000" y1="214.500000" x2="159.000000" y2="215.500000" stroke="black" stroke-width="0.1" />
<circle cx="30.000000" cy="122.500000" r="2.500000" fill="none" stroke="black" stroke-width="0.1" />
<circle cx="30.000000" cy="122.500000" r="0.250000" fill="none" stroke="black" stroke-width="0.1" />
<line x1="29.750000" y1="122.500000" x2="29.500000" y2="122.500000" stroke="black" stroke-width="0.1" />
<line x1="30.250000" y1="122.500000" x2="30.500000" y2="122.500000" stroke="black" stroke-width="0.1" />
<line x1="30.000000" y1="122.250000" x2="30.000000" y2="122.000000" stroke="black" stroke-width="0.1" />
<line x1="30.000000" y1="122.750000" x2="30.000000" y2="123.000000" stroke="black" stroke-width="0.1" />
<line x1="27.000000" y1="122.500000" x2="28.000000" y2="122.500000" stroke="black" stroke-width="0.1" />
<line x1="32.000000" y1="122.500000" x2="33.000000" y2="122.500000" stroke="black" stroke-width="0.1" />
<line x1="30.000000" y1="119.500000" x2="30.000000" y2="120.500000" stroke="black" stroke-width="0.1" />
<line x1="30.000000" y1="124.500000" x2="30.000000" y2="125.500000" stroke="black" stroke-width="0.1" />
<circle cx="66.000000" cy="122.500000" r="2.500000" fill="none" stroke="black" stroke-width="0.1" />
<circle cx="66.000000" cy="122.500000" r="0.250000" fill="none" stroke="black" stroke-width="0.1" />
<line x1="65.750000" y1="122.500000" x2="65.500000" y2="122.500000" stroke="black" stroke-width="0.1" />
<line x1="66.250000" y1="122.500000" x2="66.500000" y2="122.500000" stroke="black" stroke-width="0.1" />
<line x1="66.000000" y1="122.250000" x2="66.000000" y2="122.000000" stroke="black" stroke-width="0.1" />
<line x1="66.000000" y1="122.750000" x2="66.000000" y2="123.000000" stroke="black" stroke-width="0.1" />
<line x1="63.000000" y1="122.500000" x2="64.000000" y2="122.500000" stroke="black" stroke-width="0.1" />
<line x1="68.000000" y1="122.500000" x2="69.000000" y2="122.500000" stroke="black" stroke-width="0.1" />
<line x1="66.000000" y1="119.500000" x2="66.000000" y2="120.500000" stroke="black" stroke-width="0.1" />
<line x1="66.000000" y1="124.500000" x2="66.000000" y2="125.500000" stroke="black" stroke-width="0.1" />
<circle cx="30.000000" cy="190.500000" r="2.500000" fill="none" stroke="black" stroke-width="0.1" />
<circle cx="30.000000" cy="190.500000" r="0.250000" fill="none" stroke="black" stroke-width="0.1" />
<line x1="29.750000" y1="190.500000" x2="29.500000" y2="190.500000" stroke="black" stroke-width="0.1" />
<line x1="30.250000" y1="190.500000" x2="30.500000" y2="190.500000" stroke="black" stroke-width="0.1" />
<line x1="30.000000" y1="190.250000" x2="30.000000" y2="190.000000" stroke="black" stroke-width="0.1" />
<line x1="30.000000" y1="190.750000" x2="30.000000" y2="191.000000" stroke="black" stroke-width="0.1" />
<line x1="27.000000" y1="190.500000" x2="28.000000" y2="190.500000" stroke="black" stroke-width="0.1" />
<line x1="32.000000" y1="190.500000" x2="33.000000" y2="190.500000" stroke="black" stroke-width="0.1" />
<line x1="30.000000" y1="187.500000" x2="30.000000" y2="188.500000" stroke="black" stroke-width="0.1" />
<line x1="30.000000" y1="192.500000" x2="30.000000" y2="193.500000" stroke="black" stroke-width="0.1" />
<circle cx="66.000000" cy="190.500000" r="2.500000" fill="none" stroke="black" stroke-width="0.1" />
<circle cx="66.000000" cy="190.500000" r="0.250000" fill="none" stroke="black" stroke-width="0.1" />
<line x1="65.750000" y1="190.500000" x2="65.500000" y2="190.500000" stroke="black" stroke-width="0.1" />
<line x1="66.250000" y1="190.500000" x2="66.500000" y2="190.500000" stroke="black" stroke-width="0.1" />
<line x1="66.000000" y1="190.250000" x2="66.000000" y2="190.000000" stroke="black" stroke-width="0.1" />
<line x1="66.000000" y1="190.750000" x2="66.000000" y2="191.000000" stroke="black" stroke-width="0.1" />
<line x1="63.000000" y1="190.500000" x2="64.000000" y2="190.500000" stroke="black" stroke-width="0.1" />
<line x1="68.000000" y1="190.500000" x2="69.000000" y2="190.500000" stroke="black" stroke-width="0.1" />
<line x1="66.000000" y1="187.500000" x2="66.000000" y2="188.500000" stroke="black" stroke-width="0.1" />
<line x1="66.000000" y1="192.500000" x2="66.000000" y2="193.500000" stroke="black" stroke-width="0.1" />
<text x="73.000000" y="25.000000" font-family="Arial" font-size="4" text-anchor="middle" dominant-baseline="middle" transform="rotate(90 73.000000 25.000000)" >Mid Sole Mount Line</text>
<text x="169.000000" y="235.000000" font-family="Arial" font-size="4" text-anchor="middle" dominant-baseline="middle" transform="rotate(90 169.000000 235.000000)" >Mid Sole Mount Line</text>
<text x="43.000000" y="235.000000" font-family="Arial" font-size="4" text-anchor="middle" dominant-baseline="middle" transform="rotate(90 43.000000 235.000000)" >Ski Center Line</text>
<text x="139.000000" y="25.000000" font-family="Arial" font-size="4" text-anchor="middle" dominant-baseline="middle" transform="rotate(90 139.000000 25.000000)" >Ski Center Line</text>
</svg>