<?xml version="1.0"?>
<!DOCTYPE svg PUBLIC "-//W3C//DTD SVG 1.1//EN"
"http://www.w3.org/Graphics/SVG/1.1/DTD/svg11.dtd">
<svg xmlns="http://www.w3.org/2000/svg" version="1.2" width="190.0mm" height="259.0mm" viewBox="0 0 190.0 259.0" >
  <line x1="95.0" y1="0.0" x2="95.0" y2="259.0" stroke="black" stroke-width="0.1" stroke-dasharray="4 4" />
  <line x1="47.5" y1="0.0" x2="47.5" y2="259.0" stroke="black" stroke-width="0.1" />
  <line x1="142.5" y1="0.0" x2="142.5" y2="259.0" stroke="black" stroke-width="0.1" />
  <line x1="95.0" y1="255.0" x2="180.0" y2="255.0" stroke="black" stroke-width="0.1" />
  <line x1="10.0" y1="5.0" x2="95.0" y2="5.0" stroke="black" stroke-width="0.1" />
  <circle cx="142.5" cy="49.5" r="2.5" fill="none" stroke="black" stroke-width="0.1" />
  <line x1="142.0" y1="49.5" x2="143.0" y2="49.5" stroke="black" stroke-width="0.1" />
  <line x1="142.5" y1="49.0" x2="142.5" y2="50.0" stroke="black" stroke-width="0.1" />
  <line x1="139.5" y1="49.5" x2="140.5" y2="49.5" stroke="black" stroke-width="0.1" />
  <line x1="144.5" y1="49.5" x2="145.5" y2="49.5" stroke="black" stroke-width="0.1" />
  <line x1="142.5" y1="46.5" x2="142.5" y2="47.5" stroke="black" stroke-width="0.1" />
  <line x1="142.5" y1="51.5" x2="142.5" y2="52.5" stroke="black" stroke-width="0.1" />
  <circle cx="157.5" cy="184.5" r="2.5" fill="none" stroke="black" stroke-width="0.1" />
  <line x1="157.0" y1="184.5" x2="158.0" y2="184.5" stroke="black" stroke-width="0.1" />
  <line x1="157.5" y1="184.0" x2="157.5" y2="185.0" stroke="black" stroke-width="0.1" />
  <line x1="154.5" y1="184.5" x2="155.5" y2="184.5" stroke="black" stroke-width="0.1" />
  <line x1="159.5" y1="184.5" x2="160.5" y2="184.5" stroke="black" stroke-width="0.1" />
  <line x1="157.5" y1="181.5" x2="157.5" y2="182.5" stroke="black" stroke-width="0.1" />
  <line x1="157.5" y1="186.5" x2="157.5" y2="187.5" stroke="black" stroke-width="0.1" />
  <circle cx="127.5" cy="184.5" r="2.5" fill="none" stroke="black" stroke-width="0.1" />
  <line x1="127.0" y1="184.5" x2="128.0" y2="184.5" stroke="black" stroke-width="0.1" />
  <line x1="127.5" y1="184.0" x2="127.5" y2="185.0" stroke="black" stroke-width="0.1" />
  <line x1="124.5" y1="184.5" x2="125.5" y2="184.5" stroke="black" stroke-width="0.1" />
  <line x1="129.5" y1="184.5" x2="130.5" y2="184.5" stroke="black" stroke-width="0.1" />
  <line x1="127.5" y1="181.5" x2="127.5" y2="182.5" stroke="black" stroke-width="0.1" />
  <line x1="127.5" y1="186.5" x2="127.5" y2="187.5" stroke="black" stroke-width="0.1" />
  <circle cx="65.5" cy="150.5" r="2.5" fill="none" stroke="black" stroke-width="0.1" />
  <line x1="65.0" y1="150.5" x2="66.0" y2="150.5" stroke="black" stroke-width="0.1" />
  <line x1="65.5" y1="150.0" x2="65.5" y2="151.0" stroke="black" stroke-width="0.1" />
  <line x1="62.5" y1="150.5" x2="63.5" y2="150.5" stroke="black" stroke-width="0.1" />
  <line x1="67.5" y1="150.5" x2="68.5" y2="150.5" stroke="black" stroke-width="0.1" />
  <line x1="65.5" y1="147.5" x2="65.5" y2="148.5" stroke="black" stroke-width="0.1" />
  <line x1="65.5" y1="152.5" x2="65.5" y2="153.5" stroke="black" stroke-width="0.1" />
  <circle cx="29.5" cy="150.5" r="2.5" fill="none" stroke="black" stroke-width="0.1" />
  <line x1="29.0" y1="150.5" x2="30.0" y2="150.5" stroke="black" stroke-width="0.1" />
  <line x1="29.5" y1="150.0" x2="29.5" y2="151.0" stroke="black" stroke-width="0.1" />
  <line x1="26.5" y1="150.5" x2="27.5" y2="150.5" stroke="black" stroke-width="0.1" />
  <line x1="31.5" y1="150.5" x2="32.5" y2="150.5" stroke="black" stroke-width="0.1" />
  <line x1="29.5" y1="147.5" x2="29.5" y2="148.5" stroke="black" stroke-width="0.1" />
  <line x1="29.5" y1="152.5" x2="29.5" y2="153.5" stroke="black" stroke-width="0.1" />
  <circle cx="65.5" cy="218.5" r="2.5" fill="none" stroke="black" stroke-width="0.1" />
  <line x1="65.0" y1="218.5" x2="66.0" y2="218.5" stroke="black" stroke-width="0.1" />
  <line x1="65.5" y1="218.0" x2="65.5" y2="219.0" stroke="black" stroke-width="0.1" />
  <line x1="62.5" y1="218.5" x2="63.5" y2="218.5" stroke="black" stroke-width="0.1" />
  <line x1="67.5" y1="218.5" x2="68.5" y2="218.5" stroke="black" stroke-width="0.1" />
  <line x1="65.5" y1="215.5" x2="65.5" y2="216.5" stroke="black" stroke-width="0.1" />
  <line x1="65.5" y1="220.5" x2="65.5" y2="221.5" stroke="black" stroke-width="0.1" />
  <circle cx="29.5" cy="218.5" r="2.5" fill="none" stroke="black" stroke-width="0.1" />
  <line x1="29.0" y1="218.5" x2="30.0" y2="218.5" stroke="black" stroke-width="0.1" />
  <line x1="29.5" y1="218.0" x2="29.5" y2="219.0" stroke="black" stroke-width="0.1" />
  <line x1="26.5" y1="218.5" x2="27.5" y2="218.5" stroke="black" stroke-width="0.1" />
  <line x1="31.5" y1="218.5" x2="32.5" y2="218.5" stroke="black" stroke-width="0.1" />
  <line x1="29.5" y1="215.5" x2="29.5" y2="216.5" stroke="black" stroke-width="0.1" />
  <line x1="29.5" y1="220.5" x2="29.5" y2="221.5" stroke="black" stroke-width="0.1" />
</svg>
