<?xml version="1.0"?>
<!DOCTYPE svg PUBLIC "-//W3C//DTD SVG 1.1//EN"
"http://www.w3.org/Graphics/SVG/1.1/DTD/svg11.dtd">
<svg xmlns="http://www.w3.org/2000/svg" version="1.2" width="190.0mm" height="259.0mm" viewBox="0 0 190.0 259.0" >
  <line x1="95.0" y1="0.0" x2="95.0" y2="259.0" stroke="black" stroke-width="0.1" stroke-dasharray="4 4" />
  <line x1="47.5" y1="0.0" x2="47.5" y2="259.0" stroke="black" stroke-width="0.1" />
  <line x1="142.5" y1="0.0" x2="142.5" y2="259.0" stroke="black" stroke-width="0.1" />
  <line x1="95.0" y1="255.0" x2="180.0" y2="255.0" stroke="black" stroke-width="0.1" />
  <line x1="10.0" y1="5.0" x2="95.0" y2="5.0" stroke="black" stroke-width="0.1" />
  <circle cx="142.5" cy="67.0" r="2.5" fill="none" stroke="black" stroke-width="0.1" />
  <line x1="142.0" y1="67.0" x2="143.0" y2="67.0" stroke="black" stroke-width="0.1" />
  <line x1="142.5" y1="66.5" x2="142.5" y2="67.5" stroke="black" stroke-width="0.1" />
  <line x1="139.5" y1="67.0" x2="140.5" y2="67.0" stroke="black" stroke-width="0.1" />
  <line x1="144.5" y1="67.0" x2="145.5" y2="67.0" stroke="black" stroke-width="0.1" />
  <line x1="142.5" y1="64.0" x2="142.5" y2="65.0" stroke="black" stroke-width="0.1" />
  <line x1="142.5" y1="69.0" x2="142.5" y2="70.0" stroke="black" stroke-width="0.1" />
  <circle cx="157.5" cy="202.0" r="2.5" fill="none" stroke="black" stroke-width="0.1" />
  <line x1="157.0" y1="202.0" x2="158.0" y2="202.0" stroke="black" stroke-width="0.1" />
  <line x1="157.5" y1="201.5" x2="157.5" y2="202.5" stroke="black" stroke-width="0.1" />
  <line x1="154.5" y1="202.0" x2="155.5" y2="202.0" stroke="black" stroke-width="0.1" />
  <line x1="159.5" y1="202.0" x2="160.5" y2="202.0" stroke="black" stroke-width="0.1" />
  <line x1="157.5" y1="199.0" x2="157.5" y2="200.0" stroke="black" stroke-width="0.1" />
  <line x1="157.5" y1="204.0" x2="157.5" y2="205.0" stroke="black" stroke-width="0.1" />
  <circle cx="127.5" cy="202.0" r="2.5" fill="none" stroke="black" stroke-width="0.1" />
  <line x1="127.0" y1="202.0" x2="128.0" y2="202.0" stroke="black" stroke-width="0.1" />
  <line x1="127.5" y1="201.5" x2="127.5" y2="202.5" stroke="black" stroke-width="0.1" />
  <line x1="124.5" y1="202.0" x2="125.5" y2="202.0" stroke="black" stroke-width="0.1" />
  <line x1="129.5" y1="202.0" x2="130.5" y2="202.0" stroke="black" stroke-width="0.1" />
  <line x1="127.5" y1="199.0" x2="127.5" y2="200.0" stroke="black" stroke-width="0.1" />
  <line x1="127.5" y1="204.0" x2="127.5" y2="205.0" stroke="black" stroke-width="0.1" />
  <circle cx="65.5" cy="133.0" r="2.5" fill="none" stroke="black" stroke-width="0.1" />
  <line x1="65.0" y1="133.0" x2="66.0" y2="133.0" stroke="black" stroke-width="0.1" />
  <line x1="65.5" y1="132.5" x2="65.5" y2="133.5" stroke="black" stroke-width="0.1" />
  <line x1="62.5" y1="133.0" x2="63.5" y2="133.0" stroke="black" stroke-width="0.1" />
  <line x1="67.5" y1="133.0" x2="68.5" y2="133.0" stroke="black" stroke-width="0.1" />
  <line x1="65.5" y1="130.0" x2="65.5" y2="131.0" stroke="black" stroke-width="0.1" />
  <line x1="65.5" y1="135.0" x2="65.5" y2="136.0" stroke="black" stroke-width="0.1" />
  <circle cx="29.5" cy="133.0" r="2.5" fill="none" stroke="black" stroke-width="0.1" />
  <line x1="29.0" y1="133.0" x2="30.0" y2="133.0" stroke="black" stroke-width="0.1" />
  <line x1="29.5" y1="132.5" x2="29.5" y2="133.5" stroke="black" stroke-width="0.1" />
  <line x1="26.5" y1="133.0" x2="27.5" y2="133.0" stroke="black" stroke-width="0.1" />
  <line x1="31.5" y1="133.0" x2="32.5" y2="133.0" stroke="black" stroke-width="0.1" />
  <line x1="29.5" y1="130.0" x2="29.5" y2="131.0" stroke="black" stroke-width="0.1" />
  <line x1="29.5" y1="135.0" x2="29.5" y2="136.0" stroke="black" stroke-width="0.1" />
  <circle cx="65.5" cy="201.0" r="2.5" fill="none" stroke="black" stroke-width="0.1" />
  <line x1="65.0" y1="201.0" x2="66.0" y2="201.0" stroke="black" stroke-width="0.1" />
  <line x1="65.5" y1="200.5" x2="65.5" y2="201.5" stroke="black" stroke-width="0.1" />
  <line x1="62.5" y1="201.0" x2="63.5" y2="201.0" stroke="black" stroke-width="0.1" />
  <line x1="67.5" y1="201.0" x2="68.5" y2="201.0" stroke="black" stroke-width="0.1" />
  <line x1="65.5" y1="198.0" x2="65.5" y2="199.0" stroke="black" stroke-width="0.1" />
  <line x1="65.5" y1="203.0" x2="65.5" y2="204.0" stroke="black" stroke-width="0.1" />
  <circle cx="29.5" cy="201.0" r="2.5" fill="none" stroke="black" stroke-width="0.1" />
  <line x1="29.0" y1="201.0" x2="30.0" y2="201.0" stroke="black" stroke-width="0.1" />
  <line x1="29.5" y1="200.5" x2="29.5" y2="201.5" stroke="black" stroke-width="0.1" />
  <line x1="26.5" y1="201.0" x2="27.5" y2="201.0" stroke="black" stroke-width="0.1" />
  <line x1="31.5" y1="201.0" x2="32.5" y2="201.0" stroke="black" stroke-width="0.1" />
  <line x1="29.5" y1="198.0" x2="29.5" y2="199.0" stroke="black" stroke-width="0.1" />
  <line x1="29.5" y1="203.0" x2="29.5" y2="204.0" stroke="black" stroke-width="0.1" />
</svg>
