<?xml version="1.0"?>
<!DOCTYPE svg PUBLIC "-//W3C//DTD SVG 1.1//EN"
"http://www.w3.org/Graphics/SVG/1.1/DTD/svg11.dtd">
<svg xmlns="http://www.w3.org/2000/svg" version="1.2" width="190.0mm" height="259.0mm" viewBox="0 0 190.0 259.0" >
  <line x1="95.0" y1="0.0" x2="95.0" y2="259.0" stroke="black" stroke-width="0.1" stroke-dasharray="4 4" />
  <line x1="47.5" y1="0.0" x2="47.5" y2="259.0" stroke="black" stroke-width="0.1" />
  <line x1="142.5" y1="0.0" x2="142.5" y2="259.0" stroke="black" stroke-width="0.1" />
  <line x1="95.0" y1="255.0" x2="180.0" y2="255.0" stroke="black" stroke-width="0.1" />
  <line x1="10.0" y1="5.0" x2="95.0" y2="5.0" stroke="black" stroke-width="0.1" />
  <circle cx="142.5" cy="63.0" r="2.5" fill="none" stroke="black" stroke-width="0.1" />
  <line x1="142.0" y1="63.0" x2="143.0" y2="63.0" stroke="black" stroke-width="0.1" />
  <line x1="142.5" y1="62.5" x2="142.5" y2="63.5" stroke="black" stroke-width="0.1" />
  <line x1="139.5" y1="63.0" x2="140.5" y2="63.0" stroke="black" stroke-width="0.1" />
  <line x1="144.5" y1="63.0" x2="145.5" y2="63.0" stroke="black" stroke-width="0.1" />
  <line x1="142.5" y1="60.0" x2="142.5" y2="61.0" stroke="black" stroke-width="0.1" />
  <line x1="142.5" y1="65.0" x2="142.5" y2="66.0" stroke="black" stroke-width="0.1" />
  <circle cx="157.5" cy="198.0" r="2.5" fill="none" stroke="black" stroke-width="0.1" />
  <line x1="157.0" y1="198.0" x2="158.0" y2="198.0" stroke="black" stroke-width="0.1" />
  <line x1="157.5" y1="197.5" x2="157.5" y2="198.5" stroke="black" stroke-width="0.1" />
  <line x1="154.5" y1="198.0" x2="155.5" y2="198.0" stroke="black" stroke-width="0.1" />
  <line x1="159.5" y1="198.0" x2="160.5" y2="198.0" stroke="black" stroke-width="0.1" />
  <line x1="157.5" y1="195.0" x2="157.5" y2="196.0" stroke="black" stroke-width="0.1" />
  <line x1="157.5" y1="200.0" x2="157.5" y2="201.0" stroke="black" stroke-width="0.1" />
  <circle cx="127.5" cy="198.0" r="2.5" fill="none" stroke="black" stroke-width="0.1" />
  <line x1="127.0" y1="198.0" x2="128.0" y2="198.0" stroke="black" stroke-width="0.1" />
  <line x1="127.5" y1="197.5" x2="127.5" y2="198.5" stroke="black" stroke-width="0.1" />
  <line x1="124.5" y1="198.0" x2="125.5" y2="198.0" stroke="black" stroke-width="0.1" />
  <line x1="129.5" y1="198.0" x2="130.5" y2="198.0" stroke="black" stroke-width="0.1" />
  <line x1="127.5" y1="195.0" x2="127.5" y2="196.0" stroke="black" stroke-width="0.1" />
  <line x1="127.5" y1="200.0" x2="127.5" y2="201.0" stroke="black" stroke-width="0.1" />
  <circle cx="65.5" cy="137.0" r="2.5" fill="none" stroke="black" stroke-width="0.1" />
  <line x1="65.0" y1="137.0" x2="66.0" y2="137.0" stroke="black" stroke-width="0.1" />
  <line x1="65.5" y1="136.5" x2="65.5" y2="137.5" stroke="black" stroke-width="0.1" />
  <line x1="62.5" y1="137.0" x2="63.5" y2="137.0" stroke="black" stroke-width="0.1" />
  <line x1="67.5" y1="137.0" x2="68.5" y2="137.0" stroke="black" stroke-width="0.1" />
  <line x1="65.5" y1="134.0" x2="65.5" y2="135.0" stroke="black" stroke-width="0.1" />
  <line x1="65.5" y1="139.0" x2="65.5" y2="140.0" stroke="black" stroke-width="0.1" />
  <circle cx="29.5" cy="137.0" r="2.5" fill="none" stroke="black" stroke-width="0.1" />
  <line x1="29.0" y1="137.0" x2="30.0" y2="137.0" stroke="black" stroke-width="0.1" />
  <line x1="29.5" y1="136.5" x2="29.5" y2="137.5" stroke="black" stroke-width="0.1" />
  <line x1="26.5" y1="137.0" x2="27.5" y2="137.0" stroke="black" stroke-width="0.1" />
  <line x1="31.5" y1="137.0" x2="32.5" y2="137.0" stroke="black" stroke-width="0.1" />
  <line x1="29.5" y1="134.0" x2="29.5" y2="135.0" stroke="black" stroke-width="0.1" />
  <line x1="29.5" y1="139.0" x2="29.5" y2="140.0" stroke="black" stroke-width="0.1" />
  <circle cx="65.5" cy="205.0" r="2.5" fill="none" stroke="black" stroke-width="0.1" />
  <line x1="65.0" y1="205.0" x2="66.0" y2="205.0" stroke="black" stroke-width="0.1" />
  <line x1="65.5" y1="204.5" x2="65.5" y2="205.5" stroke="black" stroke-width="0.1" />
  <line x1="62.5" y1="205.0" x2="63.5" y2="205.0" stroke="black" stroke-width="0.1" />
  <line x1="67.5" y1="205.0" x2="68.5" y2="205.0" stroke="black" stroke-width="0.1" />
  <line x1="65.5" y1="202.0" x2="65.5" y2="203.0" stroke="black" stroke-width="0.1" />
  <line x1="65.5" y1="207.0" x2="65.5" y2="208.0" stroke="black" stroke-width="0.1" />
  <circle cx="29.5" cy="205.0" r="2.5" fill="none" stroke="black" stroke-width="0.1" />
  <line x1="29.0" y1="205.0" x2="30.0" y2="205.0" stroke="black" stroke-width="0.1" />
  <line x1="29.5" y1="204.5" x2="29.5" y2="205.5" stroke="black" stroke-width="0.1" />
  <line x1="26.5" y1="205.0" x2="27.5" y2="205.0" stroke="black" stroke-width="0.1" />
  <line x1="31.5" y1="205.0" x2="32.5" y2="205.0" stroke="black" stroke-width="0.1" />
  <line x1="29.5" y1="202.0" x2="29.5" y2="203.0" stroke="black" stroke-width="0.1" />
  <line x1="29.5" y1="207.0" x2="29.5" y2="208.0" stroke="black" stroke-width="0.1" />
</svg>
