<?xml version="1.0"?>
<!DOCTYPE svg PUBLIC "-//W3C//DTD SVG 1.1//EN"
"http://www.w3.org/Graphics/SVG/1.1/DTD/svg11.dtd">
<svg xmlns="http://www.w3.org/2000/svg" version="1.2" width="190.0mm" height="259.0mm" viewBox="0 0 190.0 259.0" >
  <line x1="95.0" y1="0.0" x2="95.0" y2="259.0" stroke="black" stroke-width="0.1" stroke-dasharray="4 4" />
  <line x1="47.5" y1="0.0" x2="47.5" y2="259.0" stroke="black" stroke-width="0.1" />
  <line x1="142.5" y1="0.0" x2="142.5" y2="259.0" stroke="black" stroke-width="0.1" />
  <line x1="95.0" y1="255.0" x2="180.0" y2="255.0" stroke="black" stroke-width="0.1" />
  <line x1="10.0" y1="5.0" x2="95.0" y2="5.0" stroke="black" stroke-width="0.1" />
  <circle cx="142.5" cy="52.5" r="2.5" fill="none" stroke="black" stroke-width="0.1" />
  <line x1="142.0" y1="52.5" x2="143.0" y2="52.5" stroke="black" stroke-width="0.1" />
  <line x1="142.5" y1="52.0" x2="142.5" y2="53.0" stroke="black" stroke-width="0.1" />
  <line x1="139.5" y1="52.5" x2="140.5" y2="52.5" stroke="black" stroke-width="0.1" />
  <line x1="144.5" y1="52.5" x2="145.5" y2="52.5" stroke="black" stroke-width="0.1" />
  <line x1="142.5" y1="49.5" x2="142.5" y2="50.5" stroke="black" stroke-width="0.1" />
  <line x1="142.5" y1="54.5" x2="142.5" y2="55.5" stroke="black" stroke-width="0.1" />
  <circle cx="157.5" cy="187.5" r="2.5" fill="none" stroke="black" stroke-width="0.1" />
  <line x1="157.0" y1="187.5" x2="158.0" y2="187.5" stroke="black" stroke-width="0.1" />
  <line x1="157.5" y1="187.0" x2="157.5" y2="188.0" stroke="black" stroke-width="0.1" />
  <line x1="154.5" y1="187.5" x2="155.5" y2="187.5" stroke="black" stroke-width="0.1" />
  <line x1="159.5" y1="187.5" x2="160.5" y2="187.5" stroke="black" stroke-width="0.1" />
  <line x1="157.5" y1="184.5" x2="157.5" y2="185.5" stroke="black" stroke-width="0.1" />
  <line x1="157.5" y1="189.5" x2="157.5" y2="190.5" stroke="black" stroke-width="0.1" />
  <circle cx="127.5" cy="187.5" r="2.5" fill="none" stroke="black" stroke-width="0.1" />
  <line x1="127.0" y1="187.5" x2="128.0" y2="187.5" stroke="black" stroke-width="0.1" />
  <line x1="127.5" y1="187.0" x2="127.5" y2="188.0" stroke="black" stroke-width="0.1" />
  <line x1="124.5" y1="187.5" x2="125.5" y2="187.5" stroke="black" stroke-width="0.1" />
  <line x1="129.5" y1="187.5" x2="130.5" y2="187.5" stroke="black" stroke-width="0.1" />
  <line x1="127.5" y1="184.5" x2="127.5" y2="185.5" stroke="black" stroke-width="0.1" />
  <line x1="127.5" y1="189.5" x2="127.5" y2="190.5" stroke="black" stroke-width="0.1" />
  <circle cx="65.5" cy="147.5" r="2.5" fill="none" stroke="black" stroke-width="0.1" />
  <line x1="65.0" y1="147.5" x2="66.0" y2="147.5" stroke="black" stroke-width="0.1" />
  <line x1="65.5" y1="147.0" x2="65.5" y2="148.0" stroke="black" stroke-width="0.1" />
  <line x1="62.5" y1="147.5" x2="63.5" y2="147.5" stroke="black" stroke-width="0.1" />
  <line x1="67.5" y1="147.5" x2="68.5" y2="147.5" stroke="black" stroke-width="0.1" />
  <line x1="65.5" y1="144.5" x2="65.5" y2="145.5" stroke="black" stroke-width="0.1" />
  <line x1="65.5" y1="149.5" x2="65.5" y2="150.5" stroke="black" stroke-width="0.1" />
  <circle cx="29.5" cy="147.5" r="2.5" fill="none" stroke="black" stroke-width="0.1" />
  <line x1="29.0" y1="147.5" x2="30.0" y2="147.5" stroke="black" stroke-width="0.1" />
  <line x1="29.5" y1="147.0" x2="29.5" y2="148.0" stroke="black" stroke-width="0.1" />
  <line x1="26.5" y1="147.5" x2="27.5" y2="147.5" stroke="black" stroke-width="0.1" />
  <line x1="31.5" y1="147.5" x2="32.5" y2="147.5" stroke="black" stroke-width="0.1" />
  <line x1="29.5" y1="144.5" x2="29.5" y2="145.5" stroke="black" stroke-width="0.1" />
  <line x1="29.5" y1="149.5" x2="29.5" y2="150.5" stroke="black" stroke-width="0.1" />
  <circle cx="65.5" cy="215.5" r="2.5" fill="none" stroke="black" stroke-width="0.1" />
  <line x1="65.0" y1="215.5" x2="66.0" y2="215.5" stroke="black" stroke-width="0.1" />
  <line x1="65.5" y1="215.0" x2="65.5" y2="216.0" stroke="black" stroke-width="0.1" />
  <line x1="62.5" y1="215.5" x2="63.5" y2="215.5" stroke="black" stroke-width="0.1" />
  <line x1="67.5" y1="215.5" x2="68.5" y2="215.5" stroke="black" stroke-width="0.1" />
  <line x1="65.5" y1="212.5" x2="65.5" y2="213.5" stroke="black" stroke-width="0.1" />
  <line x1="65.5" y1="217.5" x2="65.5" y2="218.5" stroke="black" stroke-width="0.1" />
  <circle cx="29.5" cy="215.5" r="2.5" fill="none" stroke="black" stroke-width="0.1" />
  <line x1="29.0" y1="215.5" x2="30.0" y2="215.5" stroke="black" stroke-width="0.1" />
  <line x1="29.5" y1="215.0" x2="29.5" y2="216.0" stroke="black" stroke-width="0.1" />
  <line x1="26.5" y1="215.5" x2="27.5" y2="215.5" stroke="black" stroke-width="0.1" />
  <line x1="31.5" y1="215.5" x2="32.5" y2="215.5" stroke="black" stroke-width="0.1" />
  <line x1="29.5" y1="212.5" x2="29.5" y2="213.5" stroke="black" stroke-width="0.1" />
  <line x1="29.5" y1="217.5" x2="29.5" y2="218.5" stroke="black" stroke-width="0.1" />
</svg>
