<?xml version="1.0"?>
<!DOCTYPE svg PUBLIC "-//W3C//DTD SVG 1.1//EN"
"http://www.w3.org/Graphics/SVG/1.1/DTD/svg11.dtd">
<svg xmlns="http://www.w3.org/2000/svg" version="1.2" width="190.0mm" height="259.0mm" viewBox="0 0 190.0 259.0" >
  <line x1="95.0" y1="0.0" x2="95.0" y2="259.0" stroke="black" stroke-width="0.1" stroke-dasharray="4 4" />
  <line x1="47.5" y1="0.0" x2="47.5" y2="259.0" stroke="black" stroke-width="0.1" />
  <line x1="142.5" y1="0.0" x2="142.5" y2="259.0" stroke="black" stroke-width="0.1" />
  <line x1="95.0" y1="255.0" x2="180.0" y2="255.0" stroke="black" stroke-width="0.1" />
  <line x1="10.0" y1="5.0" x2="95.0" y2="5.0" stroke="black" stroke-width="0.1" />
  <circle cx="162.5" cy="77.0" r="2.5" fill="none" stroke="black" stroke-width="0.1" />
  <line x1="162.0" y1="77.0" x2="163.0" y2="77.0" stroke="black" stroke-width="0.1" />
  <line x1="162.5" y1="76.5" x2="162.5" y2="77.5" stroke="black" stroke-width="0.1" />
  <line x1="159.5" y1="77.0" x2="160.5" y2="77.0" stroke="black" stroke-width="0.1" />
  <line x1="164.5" y1="77.0" x2="165.5" y2="77.0" stroke="black" stroke-width="0.1" />
  <line x1="162.5" y1="74.0" x2="162.5" y2="75.0" stroke="black" stroke-width="0.1" />
  <line x1="162.5" y1="79.0" x2="162.5" y2="80.0" stroke="black" stroke-width="0.1" />
  <circle cx="122.5" cy="77.0" r="2.5" fill="none" stroke="black" stroke-width="0.1" />
  <line x1="122.0" y1="77.0" x2="123.0" y2="77.0" stroke="black" stroke-width="0.1" />
  <line x1="122.5" y1="76.5" x2="122.5" y2="77.5" stroke="black" stroke-width="0.1" />
  <line x1="119.5" y1="77.0" x2="120.5" y2="77.0" stroke="black" stroke-width="0.1" />
  <line x1="124.5" y1="77.0" x2="125.5" y2="77.0" stroke="black" stroke-width="0.1" />
  <line x1="122.5" y1="74.0" x2="122.5" y2="75.0" stroke="black" stroke-width="0.1" />
  <line x1="122.5" y1="79.0" x2="122.5" y2="80.0" stroke="black" stroke-width="0.1" />
  <circle cx="162.5" cy="132.0" r="2.5" fill="none" stroke="black" stroke-width="0.1" />
  <line x1="162.0" y1="132.0" x2="163.0" y2="132.0" stroke="black" stroke-width="0.1" />
  <line x1="162.5" y1="131.5" x2="162.5" y2="132.5" stroke="black" stroke-width="0.1" />
  <line x1="159.5" y1="132.0" x2="160.5" y2="132.0" stroke="black" stroke-width="0.1" />
  <line x1="164.5" y1="132.0" x2="165.5" y2="132.0" stroke="black" stroke-width="0.1" />
  <line x1="162.5" y1="129.0" x2="162.5" y2="130.0" stroke="black" stroke-width="0.1" />
  <line x1="162.5" y1="134.0" x2="162.5" y2="135.0" stroke="black" stroke-width="0.1" />
  <circle cx="122.5" cy="132.0" r="2.5" fill="none" stroke="black" stroke-width="0.1" />
  <line x1="122.0" y1="132.0" x2="123.0" y2="132.0" stroke="black" stroke-width="0.1" />
  <line x1="122.5" y1="131.5" x2="122.5" y2="132.5" stroke="black" stroke-width="0.1" />
  <line x1="119.5" y1="132.0" x2="120.5" y2="132.0" stroke="black" stroke-width="0.1" />
  <line x1="124.5" y1="132.0" x2="125.5" y2="132.0" stroke="black" stroke-width="0.1" />
  <line x1="122.5" y1="129.0" x2="122.5" y2="130.0" stroke="black" stroke-width="0.1" />
  <line x1="122.5" y1="134.0" x2="122.5" y2="135.0" stroke="black" stroke-width="0.1" />
  <circle cx="57.5" cy="126.0" r="2.5" fill="none" stroke="black" stroke-width="0.1" />
  <line x1="57.0" y1="126.0" x2="58.0" y2="126.0" stroke="black" stroke-width="0.1" />
  <line x1="57.5" y1="125.5" x2="57.5" y2="126.5" stroke="black" stroke-width="0.1" />
  <line x1="54.5" y1="126.0" x2="55.5" y2="126.0" stroke="black" stroke-width="0.1" />
  <line x1="59.5" y1="126.0" x2="60.5" y2="126.0" stroke="black" stroke-width="0.1" />
  <line x1="57.5" y1="123.0" x2="57.5" y2="124.0" stroke="black" stroke-width="0.1" />
  <line x1="57.5" y1="128.0" x2="57.5" y2="129.0" stroke="black" stroke-width="0.1" />
  <circle cx="37.5" cy="126.0" r="2.5" fill="none" stroke="black" stroke-width="0.1" />
  <line x1="37.0" y1="126.0" x2="38.0" y2="126.0" stroke="black" stroke-width="0.1" />
  <line x1="37.5" y1="125.5" x2="37.5" y2="126.5" stroke="black" stroke-width="0.1" />
  <line x1="34.5" y1="126.0" x2="35.5" y2="126.0" stroke="black" stroke-width="0.1" />
  <line x1="39.5" y1="126.0" x2="40.5" y2="126.0" stroke="black" stroke-width="0.1" />
  <line x1="37.5" y1="123.0" x2="37.5" y2="124.0" stroke="black" stroke-width="0.1" />
  <line x1="37.5" y1="128.0" x2="37.5" y2="129.0" stroke="black" stroke-width="0.1" />
  <circle cx="68.75" cy="221.0" r="2.5" fill="none" stroke="black" stroke-width="0.1" />
  <line x1="68.25" y1="221.0" x2="69.25" y2="221.0" stroke="black" stroke-width="0.1" />
  <line x1="68.75" y1="220.5" x2="68.75" y2="221.5" stroke="black" stroke-width="0.1" />
  <line x1="65.75" y1="221.0" x2="66.75" y2="221.0" stroke="black" stroke-width="0.1" />
  <line x1="70.75" y1="221.0" x2="71.75" y2="221.0" stroke="black" stroke-width="0.1" />
  <line x1="68.75" y1="218.0" x2="68.75" y2="219.0" stroke="black" stroke-width="0.1" />
  <line x1="68.75" y1="223.0" x2="68.75" y2="224.0" stroke="black" stroke-width="0.1" />
  <circle cx="26.25" cy="221.0" r="2.5" fill="none" stroke="black" stroke-width="0.1" />
  <line x1="25.75" y1="221.0" x2="26.75" y2="221.0" stroke="black" stroke-width="0.1" />
  <line x1="26.25" y1="220.5" x2="26.25" y2="221.5" stroke="black" stroke-width="0.1" />
  <line x1="23.25" y1="221.0" x2="24.25" y2="221.0" stroke="black" stroke-width="0.1" />
  <line x1="28.25" y1="221.0" x2="29.25" y2="221.0" stroke="black" stroke-width="0.1" />
  <line x1="26.25" y1="218.0" x2="26.25" y2="219.0" stroke="black" stroke-width="0.1" />
  <line x1="26.25" y1="223.0" x2="26.25" y2="224.0" stroke="black" stroke-width="0.1" />
</svg>
