<?xml version="1.0"?>
<!DOCTYPE svg PUBLIC "-//W3C//DTD SVG 1.1//EN"
"http://www.w3.org/Graphics/SVG/1.1/DTD/svg11.dtd">
<svg xmlns="http://www.w3.org/2000/svg" version="1.2" width="190.0mm" height="259.0mm" viewBox="0 0 190.0 259.0" >
  <line x1="95.0" y1="0.0" x2="95.0" y2="259.0" stroke="black" stroke-width="0.1" stroke-dasharray="4 4" />
  <line x1="47.5" y1="0.0" x2="47.5" y2="259.0" stroke="black" stroke-width="0.1" />
  <line x1="142.5" y1="0.0" x2="142.5" y2="259.0" stroke="black" stroke-width="0.1" />
  <line x1="95.0" y1="255.0" x2="180.0" y2="255.0" stroke="black" stroke-width="0.1" />
  <line x1="10.0" y1="5.0" x2="95.0" y2="5.0" stroke="black" stroke-width="0.1" />
  <circle cx="162.5" cy="61.0" r="2.5" fill="none" stroke="black" stroke-width="0.1" />
  <line x1="162.0" y1="61.0" x2="163.0" y2="61.0" stroke="black" stroke-width="0.1" />
  <line x1="162.5" y1="60.5" x2="162.5" y2="61.5" stroke="black" stroke-width="0.1" />
  <line x1="159.5" y1="61.0" x2="160.5" y2="61.0" stroke="black" stroke-width="0.1" />
  <line x1="164.5" y1="61.0" x2="165.5" y2="61.0" stroke="black" stroke-width="0.1" />
  <line x1="162.5" y1="58.0" x2="162.5" y2="59.0" stroke="black" stroke-width="0.1" />
  <line x1="162.5" y1="63.0" x2="162.5" y2="64.0" stroke="black" stroke-width="0.1" />
  <circle cx="122.5" cy="61.0" r="2.5" fill="none" stroke="black" stroke-width="0.1" />
  <line x1="122.0" y1="61.0" x2="123.0" y2="61.0" stroke="black" stroke-width="0.1" />
  <line x1="122.5" y1="60.5" x2="122.5" y2="61.5" stroke="black" stroke-width="0.1" />
  <line x1="119.5" y1="61.0" x2="120.5" y2="61.0" stroke="black" stroke-width="0.1" />
  <line x1="124.5" y1="61.0" x2="125.5" y2="61.0" stroke="black" stroke-width="0.1" />
  <line x1="122.5" y1="58.0" x2="122.5" y2="59.0" stroke="black" stroke-width="0.1" />
  <line x1="122.5" y1="63.0" x2="122.5" y2="64.0" stroke="black" stroke-width="0.1" />
  <circle cx="162.5" cy="116.0" r="2.5" fill="none" stroke="black" stroke-width="0.1" />
  <line x1="162.0" y1="116.0" x2="163.0" y2="116.0" stroke="black" stroke-width="0.1" />
  <line x1="162.5" y1="115.5" x2="162.5" y2="116.5" stroke="black" stroke-width="0.1" />
  <line x1="159.5" y1="116.0" x2="160.5" y2="116.0" stroke="black" stroke-width="0.1" />
  <line x1="164.5" y1="116.0" x2="165.5" y2="116.0" stroke="black" stroke-width="0.1" />
  <line x1="162.5" y1="113.0" x2="162.5" y2="114.0" stroke="black" stroke-width="0.1" />
  <line x1="162.5" y1="118.0" x2="162.5" y2="119.0" stroke="black" stroke-width="0.1" />
  <circle cx="122.5" cy="116.0" r="2.5" fill="none" stroke="black" stroke-width="0.1" />
  <line x1="122.0" y1="116.0" x2="123.0" y2="116.0" stroke="black" stroke-width="0.1" />
  <line x1="122.5" y1="115.5" x2="122.5" y2="116.5" stroke="black" stroke-width="0.1" />
  <line x1="119.5" y1="116.0" x2="120.5" y2="116.0" stroke="black" stroke-width="0.1" />
  <line x1="124.5" y1="116.0" x2="125.5" y2="116.0" stroke="black" stroke-width="0.1" />
  <line x1="122.5" y1="113.0" x2="122.5" y2="114.0" stroke="black" stroke-width="0.1" />
  <line x1="122.5" y1="118.0" x2="122.5" y2="119.0" stroke="black" stroke-width="0.1" />
  <circle cx="57.5" cy="142.0" r="2.5" fill="none" stroke="black" stroke-width="0.1" />
  <line x1="57.0" y1="142.0" x2="58.0" y2="142.0" stroke="black" stroke-width="0.1" />
  <line x1="57.5" y1="141.5" x2="57.5" y2="142.5" stroke="black" stroke-width="0.1" />
  <line x1="54.5" y1="142.0" x2="55.5" y2="142.0" stroke="black" stroke-width="0.1" />
  <line x1="59.5" y1="142.0" x2="60.5" y2="142.0" stroke="black" stroke-width="0.1" />
  <line x1="57.5" y1="139.0" x2="57.5" y2="140.0" stroke="black" stroke-width="0.1" />
  <line x1="57.5" y1="144.0" x2="57.5" y2="145.0" stroke="black" stroke-width="0.1" />
  <circle cx="37.5" cy="142.0" r="2.5" fill="none" stroke="black" stroke-width="0.1" />
  <line x1="37.0" y1="142.0" x2="38.0" y2="142.0" stroke="black" stroke-width="0.1" />
  <line x1="37.5" y1="141.5" x2="37.5" y2="142.5" stroke="black" stroke-width="0.1" />
  <line x1="34.5" y1="142.0" x2="35.5" y2="142.0" stroke="black" stroke-width="0.1" />
  <line x1="39.5" y1="142.0" x2="40.5" y2="142.0" stroke="black" stroke-width="0.1" />
  <line x1="37.5" y1="139.0" x2="37.5" y2="140.0" stroke="black" stroke-width="0.1" />
  <line x1="37.5" y1="144.0" x2="37.5" y2="145.0" stroke="black" stroke-width="0.1" />
  <circle cx="68.75" cy="237.0" r="2.5" fill="none" stroke="black" stroke-width="0.1" />
  <line x1="68.25" y1="237.0" x2="69.25" y2="237.0" stroke="black" stroke-width="0.1" />
  <line x1="68.75" y1="236.5" x2="68.75" y2="237.5" stroke="black" stroke-width="0.1" />
  <line x1="65.75" y1="237.0" x2="66.75" y2="237.0" stroke="black" stroke-width="0.1" />
  <line x1="70.75" y1="237.0" x2="71.75" y2="237.0" stroke="black" stroke-width="0.1" />
  <line x1="68.75" y1="234.0" x2="68.75" y2="235.0" stroke="black" stroke-width="0.1" />
  <line x1="68.75" y1="239.0" x2="68.75" y2="240.0" stroke="black" stroke-width="0.1" />
  <circle cx="26.25" cy="237.0" r="2.5" fill="none" stroke="black" stroke-width="0.1" />
  <line x1="25.75" y1="237.0" x2="26.75" y2="237.0" stroke="black" stroke-width="0.1" />
  <line x1="26.25" y1="236.5" x2="26.25" y2="237.5" stroke="black" stroke-width="0.1" />
  <line x1="23.25" y1="237.0" x2="24.25" y2="237.0" stroke="black" stroke-width="0.1" />
  <line x1="28.25" y1="237.0" x2="29.25" y2="237.0" stroke="black" stroke-width="0.1" />
  <line x1="26.25" y1="234.0" x2="26.25" y2="235.0" stroke="black" stroke-width="0.1" />
  <line x1="26.25" y1="239.0" x2="26.25" y2="240.0" stroke="black" stroke-width="0.1" />
</svg>
