<?xml version="1.0"?>
<!DOCTYPE svg PUBLIC "-//W3C//DTD SVG 1.1//EN"
"http://www.w3.org/Graphics/SVG/1.1/DTD/svg11.dtd">
<svg xmlns="http://www.w3.org/2000/svg" version="1.2" width="190.0mm" height="518.0mm" viewBox="0 0 190.0 518.0" >
  <line x1="47.5" y1="0.0" x2="47.5" y2="518.0" stroke="black" stroke-width="0.1" />
  <line x1="142.5" y1="0.0" x2="142.5" y2="518.0" stroke="black" stroke-width="0.1" />
  <line x1="10.0" y1="255.0" x2="180.0" y2="255.0" stroke="black" stroke-width="0.1" />
  <line x1="5.0" y1="255.0" x2="15.0" y2="255.0" stroke="black" stroke-width="0.1" />
  <line x1="10.0" y1="250.0" x2="10.0" y2="260.0" stroke="black" stroke-width="0.1" />
  <line x1="175.0" y1="255.0" x2="185.0" y2="255.0" stroke="black" stroke-width="0.1" />
  <line x1="180.0" y1="250.0" x2="180.0" y2="260.0" stroke="black" stroke-width="0.1" />
  <line x1="10.0" y1="265.0" x2="180.0" y2="265.0" stroke="black" stroke-width="0.1" />
  <line x1="5.0" y1="265.0" x2="15.0" y2="265.0" stroke="black" stroke-width="0.1" />
  <line x1="10.0" y1="260.0" x2="10.0" y2="270.0" stroke="black" stroke-width="0.1" />
  <line x1="175.0" y1="265.0" x2="185.0" y2="265.0" stroke="black" stroke-width="0.1" />
  <line x1="180.0" y1="260.0" x2="180.0" y2="270.0" stroke="black" stroke-width="0.1" />
  <text x="60.0" y="225.0" font-family="Arial" fill="black" font-size="6" >BSL: 308 mm</text>
  <text x="60.0" y="295.0" font-family="Arial" fill="black" font-size="6" >BSL: 308 mm</text>
  <circle cx="67.5" cy="55.5" r="2.5" fill="none" stroke="black" stroke-width="0.1" />
  <line x1="62.5" y1="55.5" x2="72.5" y2="55.5" stroke="black" stroke-width="0.1" />
  <line x1="67.5" y1="50.5" x2="67.5" y2="60.5" stroke="black" stroke-width="0.1" />
  <circle cx="162.5" cy="55.5" r="2.5" fill="none" stroke="black" stroke-width="0.1" />
  <line x1="157.5" y1="55.5" x2="167.5" y2="55.5" stroke="black" stroke-width="0.1" />
  <line x1="162.5" y1="50.5" x2="162.5" y2="60.5" stroke="black" stroke-width="0.1" />
  <circle cx="27.5" cy="55.5" r="2.5" fill="none" stroke="black" stroke-width="0.1" />
  <line x1="22.5" y1="55.5" x2="32.5" y2="55.5" stroke="black" stroke-width="0.1" />
  <line x1="27.5" y1="50.5" x2="27.5" y2="60.5" stroke="black" stroke-width="0.1" />
  <circle cx="122.5" cy="55.5" r="2.5" fill="none" stroke="black" stroke-width="0.1" />
  <line x1="117.5" y1="55.5" x2="127.5" y2="55.5" stroke="black" stroke-width="0.1" />
  <line x1="122.5" y1="50.5" x2="122.5" y2="60.5" stroke="black" stroke-width="0.1" />
  <circle cx="67.5" cy="110.5" r="2.5" fill="none" stroke="black" stroke-width="0.1" />
  <line x1="62.5" y1="110.5" x2="72.5" y2="110.5" stroke="black" stroke-width="0.1" />
  <line x1="67.5" y1="105.5" x2="67.5" y2="115.5" stroke="black" stroke-width="0.1" />
  <circle cx="162.5" cy="110.5" r="2.5" fill="none" stroke="black" stroke-width="0.1" />
  <line x1="157.5" y1="110.5" x2="167.5" y2="110.5" stroke="black" stroke-width="0.1" />
  <line x1="162.5" y1="105.5" x2="162.5" y2="115.5" stroke="black" stroke-width="0.1" />
  <circle cx="27.5" cy="110.5" r="2.5" fill="none" stroke="black" stroke-width="0.1" />
  <line x1="22.5" y1="110.5" x2="32.5" y2="110.5" stroke="black" stroke-width="0.1" />
  <line x1="27.5" y1="105.5" x2="27.5" y2="115.5" stroke="black" stroke-width="0.1" />
  <circle cx="122.5" cy="110.5" r="2.5" fill="none" stroke="black" stroke-width="0.1" />
  <line x1="117.5" y1="110.5" x2="127.5" y2="110.5" stroke="black" stroke-width="0.1" />
  <line x1="122.5" y1="105.5" x2="122.5" y2="115.5" stroke="black" stroke-width="0.1" />
  <circle cx="57.5" cy="402.5" r="2.5" fill="none" stroke="black" stroke-width="0.1" />
  <line x1="52.5" y1="402.5" x2="62.5" y2="402.5" stroke="black" stroke-width="0.1" />
  <line x1="57.5" y1="397.5" x2="57.5" y2="407.5" stroke="black" stroke-width="0.1" />
  <circle cx="152.5" cy="402.5" r="2.5" fill="none" stroke="black" stroke-width="0.1" />
  <line x1="147.5" y1="402.5" x2="157.5" y2="402.5" stroke="black" stroke-width="0.1" />
  <line x1="152.5" y1="397.5" x2="152.5" y2="407.5" stroke="black" stroke-width="0.1" />
  <circle cx="37.5" cy="402.5" r="2.5" fill="none" stroke="black" stroke-width="0.1" />
  <line x1="32.5" y1="402.5" x2="42.5" y2="402.5" stroke="black" stroke-width="0.1" />
  <line x1="37.5" y1="397.5" x2="37.5" y2="407.5" stroke="black" stroke-width="0.1" />
  <circle cx="132.5" cy="402.5" r="2.5" fill="none" stroke="black" stroke-width="0.1" />
  <line x1="127.5" y1="402.5" x2="137.5" y2="402.5" stroke="black" stroke-width="0.1" />
  <line x1="132.5" y1="397.5" x2="132.5" y2="407.5" stroke="black" stroke-width="0.1" />
  <circle cx="68.75" cy="497.5" r="2.5" fill="none" stroke="black" stroke-width="0.1" />
  <line x1="63.75" y1="497.5" x2="73.75" y2="497.5" stroke="black" stroke-width="0.1" />
  <line x1="68.75" y1="492.5" x2="68.75" y2="502.5" stroke="black" stroke-width="0.1" />
  <circle cx="163.75" cy="497.5" r="2.5" fill="none" stroke="black" stroke-width="0.1" />
  <line x1="158.75" y1="497.5" x2="168.75" y2="497.5" stroke="black" stroke-width="0.1" />
  <line x1="163.75" y1="492.5" x2="163.75" y2="502.5" stroke="black" stroke-width="0.1" />
  <circle cx="26.25" cy="497.5" r="2.5" fill="none" stroke="black" stroke-width="0.1" />
  <line x1="21.25" y1="497.5" x2="31.25" y2="497.5" stroke="black" stroke-width="0.1" />
  <line x1="26.25" y1="492.5" x2="26.25" y2="502.5" stroke="black" stroke-width="0.1" />
  <circle cx="121.25" cy="497.5" r="2.5" fill="none" stroke="black" stroke-width="0.1" />
  <line x1="116.25" y1="497.5" x2="126.25" y2="497.5" stroke="black" stroke-width="0.1" />
  <line x1="121.25" y1="492.5" x2="121.25" y2="502.5" stroke="black" stroke-width="0.1" />
</svg>
