<?xml version="1.0"?>
<!DOCTYPE svg PUBLIC "-//W3C//DTD SVG 1.1//EN"
"http://www.w3.org/Graphics/SVG/1.1/DTD/svg11.dtd">
<svg xmlns="http://www.w3.org/2000/svg" version="1.2" width="190.0mm" height="259.0mm" viewBox="0 0 190.0 259.0" >
  <line x1="95.0" y1="0.0" x2="95.0" y2="259.0" stroke="black" stroke-width="0.1" stroke-dasharray="4 4" />
  <line x1="47.5" y1="0.0" x2="47.5" y2="259.0" stroke="black" stroke-width="0.1" />
  <line x1="142.5" y1="0.0" x2="142.5" y2="259.0" stroke="black" stroke-width="0.1" />
  <line x1="95.0" y1="255.0" x2="180.0" y2="255.0" stroke="black" stroke-width="0.1" />
  <line x1="10.0" y1="5.0" x2="95.0" y2="5.0" stroke="black" stroke-width="0.1" />
  <circle cx="162.5" cy="62.5" r="2.5" fill="none" stroke="black" stroke-width="0.1" />
  <line x1="162.0" y1="62.5" x2="163.0" y2="62.5" stroke="black" stroke-width="0.1" />
  <line x1="162.5" y1="62.0" x2="162.5" y2="63.0" stroke="black" stroke-width="0.1" />
  <line x1="159.5" y1="62.5" x2="160.5" y2="62.5" stroke="black" stroke-width="0.1" />
  <line x1="164.5" y1="62.5" x2="165.5" y2="62.5" stroke="black" stroke-width="0.1" />
  <line x1="162.5" y1="59.5" x2="162.5" y2="60.5" stroke="black" stroke-width="0.1" />
  <line x1="162.5" y1="64.5" x2="162.5" y2="65.5" stroke="black" stroke-width="0.1" />
  <circle cx="122.5" cy="62.5" r="2.5" fill="none" stroke="black" stroke-width="0.1" />
  <line x1="122.0" y1="62.5" x2="123.0" y2="62.5" stroke="black" stroke-width="0.1" />
  <line x1="122.5" y1="62.0" x2="122.5" y2="63.0" stroke="black" stroke-width="0.1" />
  <line x1="119.5" y1="62.5" x2="120.5" y2="62.5" stroke="black" stroke-width="0.1" />
  <line x1="124.5" y1="62.5" x2="125.5" y2="62.5" stroke="black" stroke-width="0.1" />
  <line x1="122.5" y1="59.5" x2="122.5" y2="60.5" stroke="black" stroke-width="0.1" />
  <line x1="122.5" y1="64.5" x2="122.5" y2="65.5" stroke="black" stroke-width="0.1" />
  <circle cx="162.5" cy="117.5" r="2.5" fill="none" stroke="black" stroke-width="0.1" />
  <line x1="162.0" y1="117.5" x2="163.0" y2="117.5" stroke="black" stroke-width="0.1" />
  <line x1="162.5" y1="117.0" x2="162.5" y2="118.0" stroke="black" stroke-width="0.1" />
  <line x1="159.5" y1="117.5" x2="160.5" y2="117.5" stroke="black" stroke-width="0.1" />
  <line x1="164.5" y1="117.5" x2="165.5" y2="117.5" stroke="black" stroke-width="0.1" />
  <line x1="162.5" y1="114.5" x2="162.5" y2="115.5" stroke="black" stroke-width="0.1" />
  <line x1="162.5" y1="119.5" x2="162.5" y2="120.5" stroke="black" stroke-width="0.1" />
  <circle cx="122.5" cy="117.5" r="2.5" fill="none" stroke="black" stroke-width="0.1" />
  <line x1="122.0" y1="117.5" x2="123.0" y2="117.5" stroke="black" stroke-width="0.1" />
  <line x1="122.5" y1="117.0" x2="122.5" y2="118.0" stroke="black" stroke-width="0.1" />
  <line x1="119.5" y1="117.5" x2="120.5" y2="117.5" stroke="black" stroke-width="0.1" />
  <line x1="124.5" y1="117.5" x2="125.5" y2="117.5" stroke="black" stroke-width="0.1" />
  <line x1="122.5" y1="114.5" x2="122.5" y2="115.5" stroke="black" stroke-width="0.1" />
  <line x1="122.5" y1="119.5" x2="122.5" y2="120.5" stroke="black" stroke-width="0.1" />
  <circle cx="57.5" cy="140.5" r="2.5" fill="none" stroke="black" stroke-width="0.1" />
  <line x1="57.0" y1="140.5" x2="58.0" y2="140.5" stroke="black" stroke-width="0.1" />
  <line x1="57.5" y1="140.0" x2="57.5" y2="141.0" stroke="black" stroke-width="0.1" />
  <line x1="54.5" y1="140.5" x2="55.5" y2="140.5" stroke="black" stroke-width="0.1" />
  <line x1="59.5" y1="140.5" x2="60.5" y2="140.5" stroke="black" stroke-width="0.1" />
  <line x1="57.5" y1="137.5" x2="57.5" y2="138.5" stroke="black" stroke-width="0.1" />
  <line x1="57.5" y1="142.5" x2="57.5" y2="143.5" stroke="black" stroke-width="0.1" />
  <circle cx="37.5" cy="140.5" r="2.5" fill="none" stroke="black" stroke-width="0.1" />
  <line x1="37.0" y1="140.5" x2="38.0" y2="140.5" stroke="black" stroke-width="0.1" />
  <line x1="37.5" y1="140.0" x2="37.5" y2="141.0" stroke="black" stroke-width="0.1" />
  <line x1="34.5" y1="140.5" x2="35.5" y2="140.5" stroke="black" stroke-width="0.1" />
  <line x1="39.5" y1="140.5" x2="40.5" y2="140.5" stroke="black" stroke-width="0.1" />
  <line x1="37.5" y1="137.5" x2="37.5" y2="138.5" stroke="black" stroke-width="0.1" />
  <line x1="37.5" y1="142.5" x2="37.5" y2="143.5" stroke="black" stroke-width="0.1" />
  <circle cx="68.75" cy="235.5" r="2.5" fill="none" stroke="black" stroke-width="0.1" />
  <line x1="68.25" y1="235.5" x2="69.25" y2="235.5" stroke="black" stroke-width="0.1" />
  <line x1="68.75" y1="235.0" x2="68.75" y2="236.0" stroke="black" stroke-width="0.1" />
  <line x1="65.75" y1="235.5" x2="66.75" y2="235.5" stroke="black" stroke-width="0.1" />
  <line x1="70.75" y1="235.5" x2="71.75" y2="235.5" stroke="black" stroke-width="0.1" />
  <line x1="68.75" y1="232.5" x2="68.75" y2="233.5" stroke="black" stroke-width="0.1" />
  <line x1="68.75" y1="237.5" x2="68.75" y2="238.5" stroke="black" stroke-width="0.1" />
  <circle cx="26.25" cy="235.5" r="2.5" fill="none" stroke="black" stroke-width="0.1" />
  <line x1="25.75" y1="235.5" x2="26.75" y2="235.5" stroke="black" stroke-width="0.1" />
  <line x1="26.25" y1="235.0" x2="26.25" y2="236.0" stroke="black" stroke-width="0.1" />
  <line x1="23.25" y1="235.5" x2="24.25" y2="235.5" stroke="black" stroke-width="0.1" />
  <line x1="28.25" y1="235.5" x2="29.25" y2="235.5" stroke="black" stroke-width="0.1" />
  <line x1="26.25" y1="232.5" x2="26.25" y2="233.5" stroke="black" stroke-width="0.1" />
  <line x1="26.25" y1="237.5" x2="26.25" y2="238.5" stroke="black" stroke-width="0.1" />
</svg>
