<?xml version="1.0"?>
<!DOCTYPE svg PUBLIC "-//W3C//DTD SVG 1.1//EN"
"http://www.w3.org/Graphics/SVG/1.1/DTD/svg11.dtd">
<svg xmlns="http://www.w3.org/2000/svg" version="1.2" width="190.0mm" height="259.0mm" viewBox="0 0 190.0 259.0" >
  <line x1="95.0" y1="0.0" x2="95.0" y2="259.0" stroke="black" stroke-width="0.1" stroke-dasharray="4 4" />
  <line x1="47.5" y1="0.0" x2="47.5" y2="259.0" stroke="black" stroke-width="0.1" />
  <line x1="142.5" y1="0.0" x2="142.5" y2="259.0" stroke="black" stroke-width="0.1" />
  <line x1="95.0" y1="255.0" x2="180.0" y2="255.0" stroke="black" stroke-width="0.1" />
  <line x1="10.0" y1="5.0" x2="95.0" y2="5.0" stroke="black" stroke-width="0.1" />
  <circle cx="162.5" cy="53.5" r="2.5" fill="none" stroke="black" stroke-width="0.1" />
  <line x1="162.0" y1="53.5" x2="163.0" y2="53.5" stroke="black" stroke-width="0.1" />
  <line x1="162.5" y1="53.0" x2="162.5" y2="54.0" stroke="black" stroke-width="0.1" />
  <line x1="159.5" y1="53.5" x2="160.5" y2="53.5" stroke="black" stroke-width="0.1" />
  <line x1="164.5" y1="53.5" x2="165.5" y2="53.5" stroke="black" stroke-width="0.1" />
  <line x1="162.5" y1="50.5" x2="162.5" y2="51.5" stroke="black" stroke-width="0.1" />
  <line x1="162.5" y1="55.5" x2="162.5" y2="56.5" stroke="black" stroke-width="0.1" />
  <circle cx="122.5" cy="53.5" r="2.5" fill="none" stroke="black" stroke-width="0.1" />
  <line x1="122.0" y1="53.5" x2="123.0" y2="53.5" stroke="black" stroke-width="0.1" />
  <line x1="122.5" y1="53.0" x2="122.5" y2="54.0" stroke="black" stroke-width="0.1" />
  <line x1="119.5" y1="53.5" x2="120.5" y2="53.5" stroke="black" stroke-width="0.1" />
  <line x1="124.5" y1="53.5" x2="125.5" y2="53.5" stroke="black" stroke-width="0.1" />
  <line x1="122.5" y1="50.5" x2="122.5" y2="51.5" stroke="black" stroke-width="0.1" />
  <line x1="122.5" y1="55.5" x2="122.5" y2="56.5" stroke="black" stroke-width="0.1" />
  <circle cx="162.5" cy="108.5" r="2.5" fill="none" stroke="black" stroke-width="0.1" />
  <line x1="162.0" y1="108.5" x2="163.0" y2="108.5" stroke="black" stroke-width="0.1" />
  <line x1="162.5" y1="108.0" x2="162.5" y2="109.0" stroke="black" stroke-width="0.1" />
  <line x1="159.5" y1="108.5" x2="160.5" y2="108.5" stroke="black" stroke-width="0.1" />
  <line x1="164.5" y1="108.5" x2="165.5" y2="108.5" stroke="black" stroke-width="0.1" />
  <line x1="162.5" y1="105.5" x2="162.5" y2="106.5" stroke="black" stroke-width="0.1" />
  <line x1="162.5" y1="110.5" x2="162.5" y2="111.5" stroke="black" stroke-width="0.1" />
  <circle cx="122.5" cy="108.5" r="2.5" fill="none" stroke="black" stroke-width="0.1" />
  <line x1="122.0" y1="108.5" x2="123.0" y2="108.5" stroke="black" stroke-width="0.1" />
  <line x1="122.5" y1="108.0" x2="122.5" y2="109.0" stroke="black" stroke-width="0.1" />
  <line x1="119.5" y1="108.5" x2="120.5" y2="108.5" stroke="black" stroke-width="0.1" />
  <line x1="124.5" y1="108.5" x2="125.5" y2="108.5" stroke="black" stroke-width="0.1" />
  <line x1="122.5" y1="105.5" x2="122.5" y2="106.5" stroke="black" stroke-width="0.1" />
  <line x1="122.5" y1="110.5" x2="122.5" y2="111.5" stroke="black" stroke-width="0.1" />
  <circle cx="57.5" cy="149.5" r="2.5" fill="none" stroke="black" stroke-width="0.1" />
  <line x1="57.0" y1="149.5" x2="58.0" y2="149.5" stroke="black" stroke-width="0.1" />
  <line x1="57.5" y1="149.0" x2="57.5" y2="150.0" stroke="black" stroke-width="0.1" />
  <line x1="54.5" y1="149.5" x2="55.5" y2="149.5" stroke="black" stroke-width="0.1" />
  <line x1="59.5" y1="149.5" x2="60.5" y2="149.5" stroke="black" stroke-width="0.1" />
  <line x1="57.5" y1="146.5" x2="57.5" y2="147.5" stroke="black" stroke-width="0.1" />
  <line x1="57.5" y1="151.5" x2="57.5" y2="152.5" stroke="black" stroke-width="0.1" />
  <circle cx="37.5" cy="149.5" r="2.5" fill="none" stroke="black" stroke-width="0.1" />
  <line x1="37.0" y1="149.5" x2="38.0" y2="149.5" stroke="black" stroke-width="0.1" />
  <line x1="37.5" y1="149.0" x2="37.5" y2="150.0" stroke="black" stroke-width="0.1" />
  <line x1="34.5" y1="149.5" x2="35.5" y2="149.5" stroke="black" stroke-width="0.1" />
  <line x1="39.5" y1="149.5" x2="40.5" y2="149.5" stroke="black" stroke-width="0.1" />
  <line x1="37.5" y1="146.5" x2="37.5" y2="147.5" stroke="black" stroke-width="0.1" />
  <line x1="37.5" y1="151.5" x2="37.5" y2="152.5" stroke="black" stroke-width="0.1" />
  <circle cx="68.75" cy="244.5" r="2.5" fill="none" stroke="black" stroke-width="0.1" />
  <line x1="68.25" y1="244.5" x2="69.25" y2="244.5" stroke="black" stroke-width="0.1" />
  <line x1="68.75" y1="244.0" x2="68.75" y2="245.0" stroke="black" stroke-width="0.1" />
  <line x1="65.75" y1="244.5" x2="66.75" y2="244.5" stroke="black" stroke-width="0.1" />
  <line x1="70.75" y1="244.5" x2="71.75" y2="244.5" stroke="black" stroke-width="0.1" />
  <line x1="68.75" y1="241.5" x2="68.75" y2="242.5" stroke="black" stroke-width="0.1" />
  <line x1="68.75" y1="246.5" x2="68.75" y2="247.5" stroke="black" stroke-width="0.1" />
  <circle cx="26.25" cy="244.5" r="2.5" fill="none" stroke="black" stroke-width="0.1" />
  <line x1="25.75" y1="244.5" x2="26.75" y2="244.5" stroke="black" stroke-width="0.1" />
  <line x1="26.25" y1="244.0" x2="26.25" y2="245.0" stroke="black" stroke-width="0.1" />
  <line x1="23.25" y1="244.5" x2="24.25" y2="244.5" stroke="black" stroke-width="0.1" />
  <line x1="28.25" y1="244.5" x2="29.25" y2="244.5" stroke="black" stroke-width="0.1" />
  <line x1="26.25" y1="241.5" x2="26.25" y2="242.5" stroke="black" stroke-width="0.1" />
  <line x1="26.25" y1="246.5" x2="26.25" y2="247.5" stroke="black" stroke-width="0.1" />
</svg>
