<?xml version="1.0"?>
<!DOCTYPE svg PUBLIC "-//W3C//DTD SVG 1.1//EN"
"http://www.w3.org/Graphics/SVG/1.1/DTD/svg11.dtd">
<svg xmlns="http://www.w3.org/2000/svg" version="1.2" width="190.0mm" height="259.0mm" viewBox="0 0 190.0 259.0" >
  <line x1="95.0" y1="0.0" x2="95.0" y2="259.0" stroke="black" stroke-width="0.1" stroke-dasharray="4 4" />
  <line x1="47.5" y1="0.0" x2="47.5" y2="259.0" stroke="black" stroke-width="0.1" />
  <line x1="142.5" y1="0.0" x2="142.5" y2="259.0" stroke="black" stroke-width="0.1" />
  <line x1="95.0" y1="255.0" x2="180.0" y2="255.0" stroke="black" stroke-width="0.1" />
  <line x1="10.0" y1="5.0" x2="95.0" y2="5.0" stroke="black" stroke-width="0.1" />
  <circle cx="160.0" cy="126.5" r="2.5" fill="none" stroke="black" stroke-width="0.1" />
  <line x1="159.5" y1="126.5" x2="160.5" y2="126.5" stroke="black" stroke-width="0.1" />
  <line x1="160.0" y1="126.0" x2="160.0" y2="127.0" stroke="black" stroke-width="0.1" />
  <line x1="157.0" y1="126.5" x2="158.0" y2="126.5" stroke="black" stroke-width="0.1" />
  <line x1="162.0" y1="126.5" x2="163.0" y2="126.5" stroke="black" stroke-width="0.1" />
  <line x1="160.0" y1="123.5" x2="160.0" y2="124.5" stroke="black" stroke-width="0.1" />
  <line x1="160.0" y1="128.5" x2="160.0" y2="129.5" stroke="black" stroke-width="0.1" />
  <circle cx="125.0" cy="126.5" r="2.5" fill="none" stroke="black" stroke-width="0.1" />
  <line x1="124.5" y1="126.5" x2="125.5" y2="126.5" stroke="black" stroke-width="0.1" />
  <line x1="125.0" y1="126.0" x2="125.0" y2="127.0" stroke="black" stroke-width="0.1" />
  <line x1="122.0" y1="126.5" x2="123.0" y2="126.5" stroke="black" stroke-width="0.1" />
  <line x1="127.0" y1="126.5" x2="128.0" y2="126.5" stroke="black" stroke-width="0.1" />
  <line x1="125.0" y1="123.5" x2="125.0" y2="124.5" stroke="black" stroke-width="0.1" />
  <line x1="125.0" y1="128.5" x2="125.0" y2="129.5" stroke="black" stroke-width="0.1" />
  <circle cx="163.5" cy="85.0" r="2.5" fill="none" stroke="black" stroke-width="0.1" />
  <line x1="163.0" y1="85.0" x2="164.0" y2="85.0" stroke="black" stroke-width="0.1" />
  <line x1="163.5" y1="84.5" x2="163.5" y2="85.5" stroke="black" stroke-width="0.1" />
  <line x1="160.5" y1="85.0" x2="161.5" y2="85.0" stroke="black" stroke-width="0.1" />
  <line x1="165.5" y1="85.0" x2="166.5" y2="85.0" stroke="black" stroke-width="0.1" />
  <line x1="163.5" y1="82.0" x2="163.5" y2="83.0" stroke="black" stroke-width="0.1" />
  <line x1="163.5" y1="87.0" x2="163.5" y2="88.0" stroke="black" stroke-width="0.1" />
  <circle cx="121.5" cy="85.0" r="2.5" fill="none" stroke="black" stroke-width="0.1" />
  <line x1="121.0" y1="85.0" x2="122.0" y2="85.0" stroke="black" stroke-width="0.1" />
  <line x1="121.5" y1="84.5" x2="121.5" y2="85.5" stroke="black" stroke-width="0.1" />
  <line x1="118.5" y1="85.0" x2="119.5" y2="85.0" stroke="black" stroke-width="0.1" />
  <line x1="123.5" y1="85.0" x2="124.5" y2="85.0" stroke="black" stroke-width="0.1" />
  <line x1="121.5" y1="82.0" x2="121.5" y2="83.0" stroke="black" stroke-width="0.1" />
  <line x1="121.5" y1="87.0" x2="121.5" y2="88.0" stroke="black" stroke-width="0.1" />
  <circle cx="68.5" cy="124.0" r="2.5" fill="none" stroke="black" stroke-width="0.1" />
  <line x1="68.0" y1="124.0" x2="69.0" y2="124.0" stroke="black" stroke-width="0.1" />
  <line x1="68.5" y1="123.5" x2="68.5" y2="124.5" stroke="black" stroke-width="0.1" />
  <line x1="65.5" y1="124.0" x2="66.5" y2="124.0" stroke="black" stroke-width="0.1" />
  <line x1="70.5" y1="124.0" x2="71.5" y2="124.0" stroke="black" stroke-width="0.1" />
  <line x1="68.5" y1="121.0" x2="68.5" y2="122.0" stroke="black" stroke-width="0.1" />
  <line x1="68.5" y1="126.0" x2="68.5" y2="127.0" stroke="black" stroke-width="0.1" />
  <circle cx="26.5" cy="124.0" r="2.5" fill="none" stroke="black" stroke-width="0.1" />
  <line x1="26.0" y1="124.0" x2="27.0" y2="124.0" stroke="black" stroke-width="0.1" />
  <line x1="26.5" y1="123.5" x2="26.5" y2="124.5" stroke="black" stroke-width="0.1" />
  <line x1="23.5" y1="124.0" x2="24.5" y2="124.0" stroke="black" stroke-width="0.1" />
  <line x1="28.5" y1="124.0" x2="29.5" y2="124.0" stroke="black" stroke-width="0.1" />
  <line x1="26.5" y1="121.0" x2="26.5" y2="122.0" stroke="black" stroke-width="0.1" />
  <line x1="26.5" y1="126.0" x2="26.5" y2="127.0" stroke="black" stroke-width="0.1" />
  <circle cx="68.5" cy="229.0" r="2.5" fill="none" stroke="black" stroke-width="0.1" />
  <line x1="68.0" y1="229.0" x2="69.0" y2="229.0" stroke="black" stroke-width="0.1" />
  <line x1="68.5" y1="228.5" x2="68.5" y2="229.5" stroke="black" stroke-width="0.1" />
  <line x1="65.5" y1="229.0" x2="66.5" y2="229.0" stroke="black" stroke-width="0.1" />
  <line x1="70.5" y1="229.0" x2="71.5" y2="229.0" stroke="black" stroke-width="0.1" />
  <line x1="68.5" y1="226.0" x2="68.5" y2="227.0" stroke="black" stroke-width="0.1" />
  <line x1="68.5" y1="231.0" x2="68.5" y2="232.0" stroke="black" stroke-width="0.1" />
  <circle cx="26.5" cy="229.0" r="2.5" fill="none" stroke="black" stroke-width="0.1" />
  <line x1="26.0" y1="229.0" x2="27.0" y2="229.0" stroke="black" stroke-width="0.1" />
  <line x1="26.5" y1="228.5" x2="26.5" y2="229.5" stroke="black" stroke-width="0.1" />
  <line x1="23.5" y1="229.0" x2="24.5" y2="229.0" stroke="black" stroke-width="0.1" />
  <line x1="28.5" y1="229.0" x2="29.5" y2="229.0" stroke="black" stroke-width="0.1" />
  <line x1="26.5" y1="226.0" x2="26.5" y2="227.0" stroke="black" stroke-width="0.1" />
  <line x1="26.5" y1="231.0" x2="26.5" y2="232.0" stroke="black" stroke-width="0.1" />
</svg>
