<?xml version="1.0"?>
<!DOCTYPE svg PUBLIC "-//W3C//DTD SVG 1.1//EN"
"http://www.w3.org/Graphics/SVG/1.1/DTD/svg11.dtd">
<svg xmlns="http://www.w3.org/2000/svg" version="1.2" width="192.000000mm" height="259.000000mm" viewBox="0 0 192.000000 259.000000" style="background-color:white" >
<line x1="48.000000" y1="0.000000" x2="48.000000" y2="259.000000" stroke="black" stroke-width="0.1" />
<line x1="144.000000" y1="0.000000" x2="144.000000" y2="259.000000" stroke="black" stroke-width="0.1" />
<line x1="104.000000" y1="255.000000" x2="184.000000" y2="255.000000" stroke="black" stroke-width="0.1" />
<line x1="8.000000" y1="5.000000" x2="88.000000" y2="5.000000" stroke="black" stroke-width="0.1" />
<line x1="96.000000" y1="0.000000" x2="96.000000" y2="259.000000" stroke="black" stroke-width="0.1" stroke-dasharray="2 2" />
<line x1="0.000000" y1="259.000000" x2="96.000000" y2="259.000000" stroke="black" stroke-width="0.1" stroke-dasharray="2 2" />
<line x1="96.000000" y1="0.000000" x2="192.000000" y2="0.000000" stroke="black" stroke-width="0.1" stroke-dasharray="2 2" />
<line x1="48.000000" y1="7.000000" x2="41.000000" y2="0.000000" stroke="black" stroke-width="0.1" stroke-dasharray="2 2" />
<line x1="48.000000" y1="7.000000" x2="55.000000" y2="0.000000" stroke="black" stroke-width="0.1" stroke-dasharray="2 2" />
<line x1="144.000000" y1="253.000000" x2="138.000000" y2="259.000000" stroke="black" stroke-width="0.1" stroke-dasharray="2 2" />
<line x1="144.000000" y1="253.000000" x2="150.000000" y2="259.000000" stroke="black" stroke-width="0.1" stroke-dasharray="2 2" />
<text x="83.000000" y="130.000000" font-family="Arial" font-size="8" text-anchor="middle" dominant-baseline="middle" transform="rotate(90 83.000000 130.000000)" >Salomon Warden 11, Strive 12/14 302, Heel</text>
<text x="179.000000" y="130.000000" font-family="Arial" font-size="8" text-anchor="middle" dominant-baseline="middle" transform="rotate(90 179.000000 130.000000)" >Salomon Warden 11, Strive 12/14 302, Toe</text>
<line x1="104.000000" y1="119.000000" x2="104.000000" y2="255.000000" stroke="black" stroke-width="0.1" />
<line x1="101.500000" y1="119.000000" x2="106.500000" y2="119.000000" stroke="black" stroke-width="0.1" />
<line x1="104.000000" y1="119.000000" x2="101.500000" y2="121.500000" stroke="black" stroke-width="0.1" />
<line x1="104.000000" y1="119.000000" x2="106.500000" y2="121.500000" stroke="black" stroke-width="0.1" />
<line x1="101.500000" y1="255.000000" x2="106.500000" y2="255.000000" stroke="black" stroke-width="0.1" />
<line x1="104.000000" y1="255.000000" x2="101.500000" y2="252.500000" stroke="black" stroke-width="0.1" />
<line x1="104.000000" y1="255.000000" x2="106.500000" y2="252.500000" stroke="black" stroke-width="0.1" />
<text x="106.500000" y="187.000000" font-family="Arial" font-size="4" text-anchor="middle" dominant-baseline="middle" transform="rotate(90 106.500000 187.000000)" >136.0 mm</text>
<line x1="114.000000" y1="54.000000" x2="114.000000" y2="119.000000" stroke="black" stroke-width="0.1" />
<line x1="111.500000" y1="54.000000" x2="116.500000" y2="54.000000" stroke="black" stroke-width="0.1" />
<line x1="114.000000" y1="54.000000" x2="111.500000" y2="56.500000" stroke="black" stroke-width="0.1" />
<line x1="114.000000" y1="54.000000" x2="116.500000" y2="56.500000" stroke="black" stroke-width="0.1" />
<line x1="111.500000" y1="119.000000" x2="116.500000" y2="119.000000" stroke="black" stroke-width="0.1" />
<line x1="114.000000" y1="119.000000" x2="111.500000" y2="116.500000" stroke="black" stroke-width="0.1" />
<line x1="114.000000" y1="119.000000" x2="116.500000" y2="116.500000" stroke="black" stroke-width="0.1" />
<text x="116.500000" y="86.500000" font-family="Arial" font-size="4" text-anchor="middle" dominant-baseline="middle" transform="rotate(90 116.500000 86.500000)" >65.0 mm</text>
<line x1="8.000000" y1="5.000000" x2="8.000000" y2="128.000000" stroke="black" stroke-width="0.1" />
<line x1="5.500000" y1="5.000000" x2="10.500000" y2="5.000000" stroke="black" stroke-width="0.1" />
<line x1="8.000000" y1="5.000000" x2="5.500000" y2="7.500000" stroke="black" stroke-width="0.1" />
<line x1="8.000000" y1="5.000000" x2="10.500000" y2="7.500000" stroke="black" stroke-width="0.1" />
<line x1="5.500000" y1="128.000000" x2="10.500000" y2="128.000000" stroke="black" stroke-width="0.1" />
<line x1="8.000000" y1="128.000000" x2="5.500000" y2="125.500000" stroke="black" stroke-width="0.1" />
<line x1="8.000000" y1="128.000000" x2="10.500000" y2="125.500000" stroke="black" stroke-width="0.1" />
<text x="10.500000" y="66.500000" font-family="Arial" font-size="4" text-anchor="middle" dominant-baseline="middle" transform="rotate(90 10.500000 66.500000)" >123.0 mm</text>
<line x1="18.000000" y1="128.000000" x2="18.000000" y2="208.000000" stroke="black" stroke-width="0.1" />
<line x1="15.500000" y1="128.000000" x2="20.500000" y2="128.000000" stroke="black" stroke-width="0.1" />
<line x1="18.000000" y1="128.000000" x2="15.500000" y2="130.500000" stroke="black" stroke-width="0.1" />
<line x1="18.000000" y1="128.000000" x2="20.500000" y2="130.500000" stroke="black" stroke-width="0.1" />
<line x1="15.500000" y1="208.000000" x2="20.500000" y2="208.000000" stroke="black" stroke-width="0.1" />
<line x1="18.000000" y1="208.000000" x2="15.500000" y2="205.500000" stroke="black" stroke-width="0.1" />
<line x1="18.000000" y1="208.000000" x2="20.500000" y2="205.500000" stroke="black" stroke-width="0.1" />
<text x="20.500000" y="168.000000" font-family="Arial" font-size="4" text-anchor="middle" dominant-baseline="middle" transform="rotate(90 20.500000 168.000000)" >80.0 mm</text>
<line x1="124.000000" y1="44.000000" x2="164.000000" y2="44.000000" stroke="black" stroke-width="0.1" />
<line x1="124.000000" y1="41.500000" x2="124.000000" y2="46.500000" stroke="black" stroke-width="0.1" />
<line x1="124.000000" y1="44.000000" x2="126.500000" y2="46.500000" stroke="black" stroke-width="0.1" />
<line x1="124.000000" y1="44.000000" x2="126.500000" y2="41.500000" stroke="black" stroke-width="0.1" />
<line x1="164.000000" y1="41.500000" x2="164.000000" y2="46.500000" stroke="black" stroke-width="0.1" />
<line x1="164.000000" y1="44.000000" x2="161.500000" y2="46.500000" stroke="black" stroke-width="0.1" />
<line x1="164.000000" y1="44.000000" x2="161.500000" y2="41.500000" stroke="black" stroke-width="0.1" />
<text x="149.000000" y="34.000000" font-family="Arial" font-size="4" text-anchor="middle" dominant-baseline="middle" transform="rotate(90 149.000000 34.000000)" >40.0 mm</text>
<line x1="124.000000" y1="109.000000" x2="164.000000" y2="109.000000" stroke="black" stroke-width="0.1" />
<line x1="124.000000" y1="106.500000" x2="124.000000" y2="111.500000" stroke="black" stroke-width="0.1" />
<line x1="124.000000" y1="109.000000" x2="126.500000" y2="111.500000" stroke="black" stroke-width="0.1" />
<line x1="124.000000" y1="109.000000" x2="126.500000" y2="106.500000" stroke="black" stroke-width="0.1" />
<line x1="164.000000" y1="106.500000" x2="164.000000" y2="111.500000" stroke="black" stroke-width="0.1" />
<line x1="164.000000" y1="109.000000" x2="161.500000" y2="111.500000" stroke="black" stroke-width="0.1" />
<line x1="164.000000" y1="109.000000" x2="161.500000" y2="106.500000" stroke="black" stroke-width="0.1" />
<text x="149.000000" y="99.000000" font-family="Arial" font-size="4" text-anchor="middle" dominant-baseline="middle" transform="rotate(90 149.000000 99.000000)" >40.0 mm</text>
<line x1="33.000000" y1="138.000000" x2="63.000000" y2="138.000000" stroke="black" stroke-width="0.1" />
<line x1="33.000000" y1="135.500000" x2="33.000000" y2="140.500000" stroke="black" stroke-width="0.1" />
<line x1="33.000000" y1="138.000000" x2="35.500000" y2="140.500000" stroke="black" stroke-width="0.1" />
<line x1="33.000000" y1="138.000000" x2="35.500000" y2="135.500000" stroke="black" stroke-width="0.1" />
<line x1="63.000000" y1="135.500000" x2="63.000000" y2="140.500000" stroke="black" stroke-width="0.1" />
<line x1="63.000000" y1="138.000000" x2="60.500000" y2="140.500000" stroke="black" stroke-width="0.1" />
<line x1="63.000000" y1="138.000000" x2="60.500000" y2="135.500000" stroke="black" stroke-width="0.1" />
<text x="53.000000" y="148.000000" font-family="Arial" font-size="4" text-anchor="middle" dominant-baseline="middle" transform="rotate(90 53.000000 148.000000)" >30.0 mm</text>
<line x1="33.000000" y1="218.000000" x2="63.000000" y2="218.000000" stroke="black" stroke-width="0.1" />
<line x1="33.000000" y1="215.500000" x2="33.000000" y2="220.500000" stroke="black" stroke-width="0.1" />
<line x1="33.000000" y1="218.000000" x2="35.500000" y2="220.500000" stroke="black" stroke-width="0.1" />
<line x1="33.000000" y1="218.000000" x2="35.500000" y2="215.500000" stroke="black" stroke-width="0.1" />
<line x1="63.000000" y1="215.500000" x2="63.000000" y2="220.500000" stroke="black" stroke-width="0.1" />
<line x1="63.000000" y1="218.000000" x2="60.500000" y2="220.500000" stroke="black" stroke-width="0.1" />
<line x1="63.000000" y1="218.000000" x2="60.500000" y2="215.500000" stroke="black" stroke-width="0.1" />
<text x="53.000000" y="228.000000" font-family="Arial" font-size="4" text-anchor="middle" dominant-baseline="middle" transform="rotate(90 53.000000 228.000000)" >30.0 mm</text>
<circle cx="124.000000" cy="54.000000" r="2.500000" fill="none" stroke="black" stroke-width="0.1" />
<circle cx="124.000000" cy="54.000000" r="0.250000" fill="none" stroke="black" stroke-width="0.1" />
<line x1="123.750000" y1="54.000000" x2="123.500000" y2="54.000000" stroke="black" stroke-width="0.1" />
<line x1="124.250000" y1="54.000000" x2="124.500000" y2="54.000000" stroke="black" stroke-width="0.1" />
<line x1="124.000000" y1="53.750000" x2="124.000000" y2="53.500000" stroke="black" stroke-width="0.1" />
<line x1="124.000000" y1="54.250000" x2="124.000000" y2="54.500000" stroke="black" stroke-width="0.1" />
<line x1="121.000000" y1="54.000000" x2="122.000000" y2="54.000000" stroke="black" stroke-width="0.1" />
<line x1="126.000000" y1="54.000000" x2="127.000000" y2="54.000000" stroke="black" stroke-width="0.1" />
<line x1="124.000000" y1="51.000000" x2="124.000000" y2="52.000000" stroke="black" stroke-width="0.1" />
<line x1="124.000000" y1="56.000000" x2="124.000000" y2="57.000000" stroke="black" stroke-width="0.1" />
<circle cx="164.000000" cy="54.000000" r="2.500000" fill="none" stroke="black" stroke-width="0.1" />
<circle cx="164.000000" cy="54.000000" r="0.250000" fill="none" stroke="black" stroke-width="0.1" />
<line x1="163.750000" y1="54.000000" x2="163.500000" y2="54.000000" stroke="black" stroke-width="0.1" />
<line x1="164.250000" y1="54.000000" x2="164.500000" y2="54.000000" stroke="black" stroke-width="0.1" />
<line x1="164.000000" y1="53.750000" x2="164.000000" y2="53.500000" stroke="black" stroke-width="0.1" />
<line x1="164.000000" y1="54.250000" x2="164.000000" y2="54.500000" stroke="black" stroke-width="0.1" />
<line x1="161.000000" y1="54.000000" x2="162.000000" y2="54.000000" stroke="black" stroke-width="0.1" />
<line x1="166.000000" y1="54.000000" x2="167.000000" y2="54.000000" stroke="black" stroke-width="0.1" />
<line x1="164.000000" y1="51.000000" x2="164.000000" y2="52.000000" stroke="black" stroke-width="0.1" />
<line x1="164.000000" y1="56.000000" x2="164.000000" y2="57.000000" stroke="black" stroke-width="0.1" />
<circle cx="124.000000" cy="119.000000" r="2.500000" fill="none" stroke="black" stroke-width="0.1" />
<circle cx="124.000000" cy="119.000000" r="0.250000" fill="none" stroke="black" stroke-width="0.1" />
<line x1="123.750000" y1="119.000000" x2="123.500000" y2="119.000000" stroke="black" stroke-width="0.1" />
<line x1="124.250000" y1="119.000000" x2="124.500000" y2="119.000000" stroke="black" stroke-width="0.1" />
<line x1="124.000000" y1="118.750000" x2="124.000000" y2="118.500000" stroke="black" stroke-width="0.1" />
<line x1="124.000000" y1="119.250000" x2="124.000000" y2="119.500000" stroke="black" stroke-width="0.1" />
<line x1="121.000000" y1="119.000000" x2="122.000000" y2="119.000000" stroke="black" stroke-width="0.1" />
<line x1="126.000000" y1="119.000000" x2="127.000000" y2="119.000000" stroke="black" stroke-width="0.1" />
<line x1="124.000000" y1="116.000000" x2="124.000000" y2="117.000000" stroke="black" stroke-width="0.1" />
<line x1="124.000000" y1="121.000000" x2="124.000000" y2="122.000000" stroke="black" stroke-width="0.1" />
<circle cx="164.000000" cy="119.000000" r="2.500000" fill="none" stroke="black" stroke-width="0.1" />
<circle cx="164.000000" cy="119.000000" r="0.250000" fill="none" stroke="black" stroke-width="0.1" />
<line x1="163.750000" y1="119.000000" x2="163.500000" y2="119.000000" stroke="black" stroke-width="0.1" />
<line x1="164.250000" y1="119.000000" x2="164.500000" y2="119.000000" stroke="black" stroke-width="0.1" />
<line x1="164.000000" y1="118.750000" x2="164.000000" y2="118.500000" stroke="black" stroke-width="0.1" />
<line x1="164.000000" y1="119.250000" x2="164.000000" y2="119.500000" stroke="black" stroke-width="0.1" />
<line x1="161.000000" y1="119.000000" x2="162.000000" y2="119.000000" stroke="black" stroke-width="0.1" />
<line x1="166.000000" y1="119.000000" x2="167.000000" y2="119.000000" stroke="black" stroke-width="0.1" />
<line x1="164.000000" y1="116.000000" x2="164.000000" y2="117.000000" stroke="black" stroke-width="0.1" />
<line x1="164.000000" y1="121.000000" x2="164.000000" y2="122.000000" stroke="black" stroke-width="0.1" />
<circle cx="33.000000" cy="128.000000" r="2.500000" fill="none" stroke="black" stroke-width="0.1" />
<circle cx="33.000000" cy="128.000000" r="0.250000" fill="none" stroke="black" stroke-width="0.1" />
<line x1="32.750000" y1="128.000000" x2="32.500000" y2="128.000000" stroke="black" stroke-width="0.1" />
<line x1="33.250000" y1="128.000000" x2="33.500000" y2="128.000000" stroke="black" stroke-width="0.1" />
<line x1="33.000000" y1="127.750000" x2="33.000000" y2="127.500000" stroke="black" stroke-width="0.1" />
<line x1="33.000000" y1="128.250000" x2="33.000000" y2="128.500000" stroke="black" stroke-width="0.1" />
<line x1="30.000000" y1="128.000000" x2="31.000000" y2="128.000000" stroke="black" stroke-width="0.1" />
<line x1="35.000000" y1="128.000000" x2="36.000000" y2="128.000000" stroke="black" stroke-width="0.1" />
<line x1="33.000000" y1="125.000000" x2="33.000000" y2="126.000000" stroke="black" stroke-width="0.1" />
<line x1="33.000000" y1="130.000000" x2="33.000000" y2="131.000000" stroke="black" stroke-width="0.1" />
<circle cx="63.000000" cy="128.000000" r="2.500000" fill="none" stroke="black" stroke-width="0.1" />
<circle cx="63.000000" cy="128.000000" r="0.250000" fill="none" stroke="black" stroke-width="0.1" />
<line x1="62.750000" y1="128.000000" x2="62.500000" y2="128.000000" stroke="black" stroke-width="0.1" />
<line x1="63.250000" y1="128.000000" x2="63.500000" y2="128.000000" stroke="black" stroke-width="0.1" />
<line x1="63.000000" y1="127.750000" x2="63.000000" y2="127.500000" stroke="black" stroke-width="0.1" />
<line x1="63.000000" y1="128.250000" x2="63.000000" y2="128.500000" stroke="black" stroke-width="0.1" />
<line x1="60.000000" y1="128.000000" x2="61.000000" y2="128.000000" stroke="black" stroke-width="0.1" />
<line x1="65.000000" y1="128.000000" x2="66.000000" y2="128.000000" stroke="black" stroke-width="0.1" />
<line x1="63.000000" y1="125.000000" x2="63.000000" y2="126.000000" stroke="black" stroke-width="0.1" />
<line x1="63.000000" y1="130.000000" x2="63.000000" y2="131.000000" stroke="black" stroke-width="0.1" />
<circle cx="33.000000" cy="208.000000" r="2.500000" fill="none" stroke="black" stroke-width="0.1" />
<circle cx="33.000000" cy="208.000000" r="0.250000" fill="none" stroke="black" stroke-width="0.1" />
<line x1="32.750000" y1="208.000000" x2="32.500000" y2="208.000000" stroke="black" stroke-width="0.1" />
<line x1="33.250000" y1="208.000000" x2="33.500000" y2="208.000000" stroke="black" stroke-width="0.1" />
<line x1="33.000000" y1="207.750000" x2="33.000000" y2="207.500000" stroke="black" stroke-width="0.1" />
<line x1="33.000000" y1="208.250000" x2="33.000000" y2="208.500000" stroke="black" stroke-width="0.1" />
<line x1="30.000000" y1="208.000000" x2="31.000000" y2="208.000000" stroke="black" stroke-width="0.1" />
<line x1="35.000000" y1="208.000000" x2="36.000000" y2="208.000000" stroke="black" stroke-width="0.1" />
<line x1="33.000000" y1="205.000000" x2="33.000000" y2="206.000000" stroke="black" stroke-width="0.1" />
<line x1="33.000000" y1="210.000000" x2="33.000000" y2="211.000000" stroke="black" stroke-width="0.1" />
<circle cx="63.000000" cy="208.000000" r="2.500000" fill="none" stroke="black" stroke-width="0.1" />
<circle cx="63.000000" cy="208.000000" r="0.250000" fill="none" stroke="black" stroke-width="0.1" />
<line x1="62.750000" y1="208.000000" x2="62.500000" y2="208.000000" stroke="black" stroke-width="0.1" />
<line x1="63.250000" y1="208.000000" x2="63.500000" y2="208.000000" stroke="black" stroke-width="0.1" />
<line x1="63.000000" y1="207.750000" x2="63.000000" y2="207.500000" stroke="black" stroke-width="0.1" />
<line x1="63.000000" y1="208.250000" x2="63.000000" y2="208.500000" stroke="black" stroke-width="0.1" />
<line x1="60.000000" y1="208.000000" x2="61.000000" y2="208.000000" stroke="black" stroke-width="0.1" />
<line x1="65.000000" y1="208.000000" x2="66.000000" y2="208.000000" stroke="black" stroke-width="0.1" />
<line x1="63.000000" y1="205.000000" x2="63.000000" y2="206.000000" stroke="black" stroke-width="0.1" />
<line x1="63.000000" y1="210.000000" x2="63.000000" y2="211.000000" stroke="black" stroke-width="0.1" />
<text x="73.000000" y="25.000000" font-family="Arial" font-size="4" text-anchor="middle" dominant-baseline="middle" transform="rotate(90 73.000000 25.000000)" >Mid Sole Mount Line</text>
<text x="169.000000" y="235.000000" font-family="Arial" font-size="4" text-anchor="middle" dominant-baseline="middle" transform="rotate(90 169.000000 235.000000)" >Mid Sole Mount Line</text>
<text x="43.000000" y="235.000000" font-family="Arial" font-size="4" text-anchor="middle" dominant-baseline="middle" transform="rotate(90 43.000000 235.000000)" >Ski Center Line</text>
<text x="139.000000" y="25.000000" font-family="Arial" font-size="4" text-anchor="middle" dominant-baseline="middle" transform="rotate(90 139.000000 25.000000)" >Ski Center Line</text>
</svg>