<?xml version="1.0"?>
<!DOCTYPE svg PUBLIC "-//W3C//DTD SVG 1.1//EN"
"http://www.w3.org/Graphics/SVG/1.1/DTD/svg11.dtd">
<svg xmlns="http://www.w3.org/2000/svg" version="1.2" width="192.000000mm" height="259.000000mm" viewBox="0 0 192.000000 259.000000" style="background-color:white" >
<line x1="48.000000" y1="0.000000" x2="48.000000" y2="259.000000" stroke="black" stroke-width="0.1" />
<line x1="144.000000" y1="0.000000" x2="144.000000" y2="259.000000" stroke="black" stroke-width="0.1" />
<line x1="104.000000" y1="255.000000" x2="184.000000" y2="255.000000" stroke="black" stroke-width="0.1" />
<line x1="8.000000" y1="5.000000" x2="88.000000" y2="5.000000" stroke="black" stroke-width="0.1" />
<line x1="96.000000" y1="0.000000" x2="96.000000" y2="259.000000" stroke="black" stroke-width="0.1" stroke-dasharray="2 2" />
<line x1="0.000000" y1="259.000000" x2="96.000000" y2="259.000000" stroke="black" stroke-width="0.1" stroke-dasharray="2 2" />
<line x1="96.000000" y1="0.000000" x2="192.000000" y2="0.000000" stroke="black" stroke-width="0.1" stroke-dasharray="2 2" />
<line x1="48.000000" y1="7.000000" x2="41.000000" y2="0.000000" stroke="black" stroke-width="0.1" stroke-dasharray="2 2" />
<line x1="48.000000" y1="7.000000" x2="55.000000" y2="0.000000" stroke="black" stroke-width="0.1" stroke-dasharray="2 2" />
<line x1="144.000000" y1="253.000000" x2="138.000000" y2="259.000000" stroke="black" stroke-width="0.1" stroke-dasharray="2 2" />
<line x1="144.000000" y1="253.000000" x2="150.000000" y2="259.000000" stroke="black" stroke-width="0.1" stroke-dasharray="2 2" />
<text x="83.000000" y="130.000000" font-family="Arial" font-size="8" text-anchor="middle" dominant-baseline="middle" transform="rotate(90 83.000000 130.000000)" >Salomon Warden 11, Strive 12/14 242, Heel</text>
<text x="179.000000" y="130.000000" font-family="Arial" font-size="8" text-anchor="middle" dominant-baseline="middle" transform="rotate(90 179.000000 130.000000)" >Salomon Warden 11, Strive 12/14 242, Toe</text>
<line x1="104.000000" y1="149.000000" x2="104.000000" y2="255.000000" stroke="black" stroke-width="0.1" />
<line x1="101.500000" y1="149.000000" x2="106.500000" y2="149.000000" stroke="black" stroke-width="0.1" />
<line x1="104.000000" y1="149.000000" x2="101.500000" y2="151.500000" stroke="black" stroke-width="0.1" />
<line x1="104.000000" y1="149.000000" x2="106.500000" y2="151.500000" stroke="black" stroke-width="0.1" />
<line x1="101.500000" y1="255.000000" x2="106.500000" y2="255.000000" stroke="black" stroke-width="0.1" />
<line x1="104.000000" y1="255.000000" x2="101.500000" y2="252.500000" stroke="black" stroke-width="0.1" />
<line x1="104.000000" y1="255.000000" x2="106.500000" y2="252.500000" stroke="black" stroke-width="0.1" />
<text x="106.500000" y="202.000000" font-family="Arial" font-size="4" text-anchor="middle" dominant-baseline="middle" transform="rotate(90 106.500000 202.000000)" >106.0 mm</text>
<line x1="114.000000" y1="84.000000" x2="114.000000" y2="149.000000" stroke="black" stroke-width="0.1" />
<line x1="111.500000" y1="84.000000" x2="116.500000" y2="84.000000" stroke="black" stroke-width="0.1" />
<line x1="114.000000" y1="84.000000" x2="111.500000" y2="86.500000" stroke="black" stroke-width="0.1" />
<line x1="114.000000" y1="84.000000" x2="116.500000" y2="86.500000" stroke="black" stroke-width="0.1" />
<line x1="111.500000" y1="149.000000" x2="116.500000" y2="149.000000" stroke="black" stroke-width="0.1" />
<line x1="114.000000" y1="149.000000" x2="111.500000" y2="146.500000" stroke="black" stroke-width="0.1" />
<line x1="114.000000" y1="149.000000" x2="116.500000" y2="146.500000" stroke="black" stroke-width="0.1" />
<text x="116.500000" y="116.500000" font-family="Arial" font-size="4" text-anchor="middle" dominant-baseline="middle" transform="rotate(90 116.500000 116.500000)" >65.0 mm</text>
<line x1="8.000000" y1="5.000000" x2="8.000000" y2="98.000000" stroke="black" stroke-width="0.1" />
<line x1="5.500000" y1="5.000000" x2="10.500000" y2="5.000000" stroke="black" stroke-width="0.1" />
<line x1="8.000000" y1="5.000000" x2="5.500000" y2="7.500000" stroke="black" stroke-width="0.1" />
<line x1="8.000000" y1="5.000000" x2="10.500000" y2="7.500000" stroke="black" stroke-width="0.1" />
<line x1="5.500000" y1="98.000000" x2="10.500000" y2="98.000000" stroke="black" stroke-width="0.1" />
<line x1="8.000000" y1="98.000000" x2="5.500000" y2="95.500000" stroke="black" stroke-width="0.1" />
<line x1="8.000000" y1="98.000000" x2="10.500000" y2="95.500000" stroke="black" stroke-width="0.1" />
<text x="10.500000" y="51.500000" font-family="Arial" font-size="4" text-anchor="middle" dominant-baseline="middle" transform="rotate(90 10.500000 51.500000)" >93.0 mm</text>
<line x1="18.000000" y1="98.000000" x2="18.000000" y2="178.000000" stroke="black" stroke-width="0.1" />
<line x1="15.500000" y1="98.000000" x2="20.500000" y2="98.000000" stroke="black" stroke-width="0.1" />
<line x1="18.000000" y1="98.000000" x2="15.500000" y2="100.500000" stroke="black" stroke-width="0.1" />
<line x1="18.000000" y1="98.000000" x2="20.500000" y2="100.500000" stroke="black" stroke-width="0.1" />
<line x1="15.500000" y1="178.000000" x2="20.500000" y2="178.000000" stroke="black" stroke-width="0.1" />
<line x1="18.000000" y1="178.000000" x2="15.500000" y2="175.500000" stroke="black" stroke-width="0.1" />
<line x1="18.000000" y1="178.000000" x2="20.500000" y2="175.500000" stroke="black" stroke-width="0.1" />
<text x="20.500000" y="138.000000" font-family="Arial" font-size="4" text-anchor="middle" dominant-baseline="middle" transform="rotate(90 20.500000 138.000000)" >80.0 mm</text>
<line x1="124.000000" y1="74.000000" x2="164.000000" y2="74.000000" stroke="black" stroke-width="0.1" />
<line x1="124.000000" y1="71.500000" x2="124.000000" y2="76.500000" stroke="black" stroke-width="0.1" />
<line x1="124.000000" y1="74.000000" x2="126.500000" y2="76.500000" stroke="black" stroke-width="0.1" />
<line x1="124.000000" y1="74.000000" x2="126.500000" y2="71.500000" stroke="black" stroke-width="0.1" />
<line x1="164.000000" y1="71.500000" x2="164.000000" y2="76.500000" stroke="black" stroke-width="0.1" />
<line x1="164.000000" y1="74.000000" x2="161.500000" y2="76.500000" stroke="black" stroke-width="0.1" />
<line x1="164.000000" y1="74.000000" x2="161.500000" y2="71.500000" stroke="black" stroke-width="0.1" />
<text x="149.000000" y="64.000000" font-family="Arial" font-size="4" text-anchor="middle" dominant-baseline="middle" transform="rotate(90 149.000000 64.000000)" >40.0 mm</text>
<line x1="124.000000" y1="139.000000" x2="164.000000" y2="139.000000" stroke="black" stroke-width="0.1" />
<line x1="124.000000" y1="136.500000" x2="124.000000" y2="141.500000" stroke="black" stroke-width="0.1" />
<line x1="124.000000" y1="139.000000" x2="126.500000" y2="141.500000" stroke="black" stroke-width="0.1" />
<line x1="124.000000" y1="139.000000" x2="126.500000" y2="136.500000" stroke="black" stroke-width="0.1" />
<line x1="164.000000" y1="136.500000" x2="164.000000" y2="141.500000" stroke="black" stroke-width="0.1" />
<line x1="164.000000" y1="139.000000" x2="161.500000" y2="141.500000" stroke="black" stroke-width="0.1" />
<line x1="164.000000" y1="139.000000" x2="161.500000" y2="136.500000" stroke="black" stroke-width="0.1" />
<text x="149.000000" y="129.000000" font-family="Arial" font-size="4" text-anchor="middle" dominant-baseline="middle" transform="rotate(90 149.000000 129.000000)" >40.0 mm</text>
<line x1="33.000000" y1="108.000000" x2="63.000000" y2="108.000000" stroke="black" stroke-width="0.1" />
<line x1="33.000000" y1="105.500000" x2="33.000000" y2="110.500000" stroke="black" stroke-width="0.1" />
<line x1="33.000000" y1="108.000000" x2="35.500000" y2="110.500000" stroke="black" stroke-width="0.1" />
<line x1="33.000000" y1="108.000000" x2="35.500000" y2="105.500000" stroke="black" stroke-width="0.1" />
<line x1="63.000000" y1="105.500000" x2="63.000000" y2="110.500000" stroke="black" stroke-width="0.1" />
<line x1="63.000000" y1="108.000000" x2="60.500000" y2="110.500000" stroke="black" stroke-width="0.1" />
<line x1="63.000000" y1="108.000000" x2="60.500000" y2="105.500000" stroke="black" stroke-width="0.1" />
<text x="53.000000" y="118.000000" font-family="Arial" font-size="4" text-anchor="middle" dominant-baseline="middle" transform="rotate(90 53.000000 118.000000)" >30.0 mm</text>
<line x1="33.000000" y1="188.000000" x2="63.000000" y2="188.000000" stroke="black" stroke-width="0.1" />
<line x1="33.000000" y1="185.500000" x2="33.000000" y2="190.500000" stroke="black" stroke-width="0.1" />
<line x1="33.000000" y1="188.000000" x2="35.500000" y2="190.500000" stroke="black" stroke-width="0.1" />
<line x1="33.000000" y1="188.000000" x2="35.500000" y2="185.500000" stroke="black" stroke-width="0.1" />
<line x1="63.000000" y1="185.500000" x2="63.000000" y2="190.500000" stroke="black" stroke-width="0.1" />
<line x1="63.000000" y1="188.000000" x2="60.500000" y2="190.500000" stroke="black" stroke-width="0.1" />
<line x1="63.000000" y1="188.000000" x2="60.500000" y2="185.500000" stroke="black" stroke-width="0.1" />
<text x="53.000000" y="198.000000" font-family="Arial" font-size="4" text-anchor="middle" dominant-baseline="middle" transform="rotate(90 53.000000 198.000000)" >30.0 mm</text>
<circle cx="124.000000" cy="84.000000" r="2.500000" fill="none" stroke="black" stroke-width="0.1" />
<circle cx="124.000000" cy="84.000000" r="0.250000" fill="none" stroke="black" stroke-width="0.1" />
<line x1="123.750000" y1="84.000000" x2="123.500000" y2="84.000000" stroke="black" stroke-width="0.1" />
<line x1="124.250000" y1="84.000000" x2="124.500000" y2="84.000000" stroke="black" stroke-width="0.1" />
<line x1="124.000000" y1="83.750000" x2="124.000000" y2="83.500000" stroke="black" stroke-width="0.1" />
<line x1="124.000000" y1="84.250000" x2="124.000000" y2="84.500000" stroke="black" stroke-width="0.1" />
<line x1="121.000000" y1="84.000000" x2="122.000000" y2="84.000000" stroke="black" stroke-width="0.1" />
<line x1="126.000000" y1="84.000000" x2="127.000000" y2="84.000000" stroke="black" stroke-width="0.1" />
<line x1="124.000000" y1="81.000000" x2="124.000000" y2="82.000000" stroke="black" stroke-width="0.1" />
<line x1="124.000000" y1="86.000000" x2="124.000000" y2="87.000000" stroke="black" stroke-width="0.1" />
<circle cx="164.000000" cy="84.000000" r="2.500000" fill="none" stroke="black" stroke-width="0.1" />
<circle cx="164.000000" cy="84.000000" r="0.250000" fill="none" stroke="black" stroke-width="0.1" />
<line x1="163.750000" y1="84.000000" x2="163.500000" y2="84.000000" stroke="black" stroke-width="0.1" />
<line x1="164.250000" y1="84.000000" x2="164.500000" y2="84.000000" stroke="black" stroke-width="0.1" />
<line x1="164.000000" y1="83.750000" x2="164.000000" y2="83.500000" stroke="black" stroke-width="0.1" />
<line x1="164.000000" y1="84.250000" x2="164.000000" y2="84.500000" stroke="black" stroke-width="0.1" />
<line x1="161.000000" y1="84.000000" x2="162.000000" y2="84.000000" stroke="black" stroke-width="0.1" />
<line x1="166.000000" y1="84.000000" x2="167.000000" y2="84.000000" stroke="black" stroke-width="0.1" />
<line x1="164.000000" y1="81.000000" x2="164.000000" y2="82.000000" stroke="black" stroke-width="0.1" />
<line x1="164.000000" y1="86.000000" x2="164.000000" y2="87.000000" stroke="black" stroke-width="0.1" />
<circle cx="124.000000" cy="149.000000" r="2.500000" fill="none" stroke="black" stroke-width="0.1" />
<circle cx="124.000000" cy="149.000000" r="0.250000" fill="none" stroke="black" stroke-width="0.1" />
<line x1="123.750000" y1="149.000000" x2="123.500000" y2="149.000000" stroke="black" stroke-width="0.1" />
<line x1="124.250000" y1="149.000000" x2="124.500000" y2="149.000000" stroke="black" stroke-width="0.1" />
<line x1="124.000000" y1="148.750000" x2="124.000000" y2="148.500000" stroke="black" stroke-width="0.1" />
<line x1="124.000000" y1="149.250000" x2="124.000000" y2="149.500000" stroke="black" stroke-width="0.1" />
<line x1="121.000000" y1="149.000000" x2="122.000000" y2="149.000000" stroke="black" stroke-width="0.1" />
<line x1="126.000000" y1="149.000000" x2="127.000000" y2="149.000000" stroke="black" stroke-width="0.1" />
<line x1="124.000000" y1="146.000000" x2="124.000000" y2="147.000000" stroke="black" stroke-width="0.1" />
<line x1="124.000000" y1="151.000000" x2="124.000000" y2="152.000000" stroke="black" stroke-width="0.1" />
<circle cx="164.000000" cy="149.000000" r="2.500000" fill="none" stroke="black" stroke-width="0.1" />
<circle cx="164.000000" cy="149.000000" r="0.250000" fill="none" stroke="black" stroke-width="0.1" />
<line x1="163.750000" y1="149.000000" x2="163.500000" y2="149.000000" stroke="black" stroke-width="0.1" />
<line x1="164.250000" y1="149.000000" x2="164.500000" y2="149.000000" stroke="black" stroke-width="0.1" />
<line x1="164.000000" y1="148.750000" x2="164.000000" y2="148.500000" stroke="black" stroke-width="0.1" />
<line x1="164.000000" y1="149.250000" x2="164.000000" y2="149.500000" stroke="black" stroke-width="0.1" />
<line x1="161.000000" y1="149.000000" x2="162.000000" y2="149.000000" stroke="black" stroke-width="0.1" />
<line x1="166.000000" y1="149.000000" x2="167.000000" y2="149.000000" stroke="black" stroke-width="0.1" />
<line x1="164.000000" y1="146.000000" x2="164.000000" y2="147.000000" stroke="black" stroke-width="0.1" />
<line x1="164.000000" y1="151.000000" x2="164.000000" y2="152.000000" stroke="black" stroke-width="0.1" />
<circle cx="33.000000" cy="98.000000" r="2.500000" fill="none" stroke="black" stroke-width="0.1" />
<circle cx="33.000000" cy="98.000000" r="0.250000" fill="none" stroke="black" stroke-width="0.1" />
<line x1="32.750000" y1="98.000000" x2="32.500000" y2="98.000000" stroke="black" stroke-width="0.1" />
<line x1="33.250000" y1="98.000000" x2="33.500000" y2="98.000000" stroke="black" stroke-width="0.1" />
<line x1="33.000000" y1="97.750000" x2="33.000000" y2="97.500000" stroke="black" stroke-width="0.1" />
<line x1="33.000000" y1="98.250000" x2="33.000000" y2="98.500000" stroke="black" stroke-width="0.1" />
<line x1="30.000000" y1="98.000000" x2="31.000000" y2="98.000000" stroke="black" stroke-width="0.1" />
<line x1="35.000000" y1="98.000000" x2="36.000000" y2="98.000000" stroke="black" stroke-width="0.1" />
<line x1="33.000000" y1="95.000000" x2="33.000000" y2="96.000000" stroke="black" stroke-width="0.1" />
<line x1="33.000000" y1="100.000000" x2="33.000000" y2="101.000000" stroke="black" stroke-width="0.1" />
<circle cx="63.000000" cy="98.000000" r="2.500000" fill="none" stroke="black" stroke-width="0.1" />
<circle cx="63.000000" cy="98.000000" r="0.250000" fill="none" stroke="black" stroke-width="0.1" />
<line x1="62.750000" y1="98.000000" x2="62.500000" y2="98.000000" stroke="black" stroke-width="0.1" />
<line x1="63.250000" y1="98.000000" x2="63.500000" y2="98.000000" stroke="black" stroke-width="0.1" />
<line x1="63.000000" y1="97.750000" x2="63.000000" y2="97.500000" stroke="black" stroke-width="0.1" />
<line x1="63.000000" y1="98.250000" x2="63.000000" y2="98.500000" stroke="black" stroke-width="0.1" />
<line x1="60.000000" y1="98.000000" x2="61.000000" y2="98.000000" stroke="black" stroke-width="0.1" />
<line x1="65.000000" y1="98.000000" x2="66.000000" y2="98.000000" stroke="black" stroke-width="0.1" />
<line x1="63.000000" y1="95.000000" x2="63.000000" y2="96.000000" stroke="black" stroke-width="0.1" />
<line x1="63.000000" y1="100.000000" x2="63.000000" y2="101.000000" stroke="black" stroke-width="0.1" />
<circle cx="33.000000" cy="178.000000" r="2.500000" fill="none" stroke="black" stroke-width="0.1" />
<circle cx="33.000000" cy="178.000000" r="0.250000" fill="none" stroke="black" stroke-width="0.1" />
<line x1="32.750000" y1="178.000000" x2="32.500000" y2="178.000000" stroke="black" stroke-width="0.1" />
<line x1="33.250000" y1="178.000000" x2="33.500000" y2="178.000000" stroke="black" stroke-width="0.1" />
<line x1="33.000000" y1="177.750000" x2="33.000000" y2="177.500000" stroke="black" stroke-width="0.1" />
<line x1="33.000000" y1="178.250000" x2="33.000000" y2="178.500000" stroke="black" stroke-width="0.1" />
<line x1="30.000000" y1="178.000000" x2="31.000000" y2="178.000000" stroke="black" stroke-width="0.1" />
<line x1="35.000000" y1="178.000000" x2="36.000000" y2="178.000000" stroke="black" stroke-width="0.1" />
<line x1="33.000000" y1="175.000000" x2="33.000000" y2="176.000000" stroke="black" stroke-width="0.1" />
<line x1="33.000000" y1="180.000000" x2="33.000000" y2="181.000000" stroke="black" stroke-width="0.1" />
<circle cx="63.000000" cy="178.000000" r="2.500000" fill="none" stroke="black" stroke-width="0.1" />
<circle cx="63.000000" cy="178.000000" r="0.250000" fill="none" stroke="black" stroke-width="0.1" />
<line x1="62.750000" y1="178.000000" x2="62.500000" y2="178.000000" stroke="black" stroke-width="0.1" />
<line x1="63.250000" y1="178.000000" x2="63.500000" y2="178.000000" stroke="black" stroke-width="0.1" />
<line x1="63.000000" y1="177.750000" x2="63.000000" y2="177.500000" stroke="black" stroke-width="0.1" />
<line x1="63.000000" y1="178.250000" x2="63.000000" y2="178.500000" stroke="black" stroke-width="0.1" />
<line x1="60.000000" y1="178.000000" x2="61.000000" y2="178.000000" stroke="black" stroke-width="0.1" />
<line x1="65.000000" y1="178.000000" x2="66.000000" y2="178.000000" stroke="black" stroke-width="0.1" />
<line x1="63.000000" y1="175.000000" x2="63.000000" y2="176.000000" stroke="black" stroke-width="0.1" />
<line x1="63.000000" y1="180.000000" x2="63.000000" y2="181.000000" stroke="black" stroke-width="0.1" />
<text x="73.000000" y="25.000000" font-family="Arial" font-size="4" text-anchor="middle" dominant-baseline="middle" transform="rotate(90 73.000000 25.000000)" >Mid Sole Mount Line</text>
<text x="169.000000" y="235.000000" font-family="Arial" font-size="4" text-anchor="middle" dominant-baseline="middle" transform="rotate(90 169.000000 235.000000)" >Mid Sole Mount Line</text>
<text x="43.000000" y="235.000000" font-family="Arial" font-size="4" text-anchor="middle" dominant-baseline="middle" transform="rotate(90 43.000000 235.000000)" >Ski Center Line</text>
<text x="139.000000" y="25.000000" font-family="Arial" font-size="4" text-anchor="middle" dominant-baseline="middle" transform="rotate(90 139.000000 25.000000)" >Ski Center Line</text>
</svg>