<?xml version="1.0"?>
<!DOCTYPE svg PUBLIC "-//W3C//DTD SVG 1.1//EN"
"http://www.w3.org/Graphics/SVG/1.1/DTD/svg11.dtd">
<svg xmlns="http://www.w3.org/2000/svg" version="1.2" width="192.000000mm" height="259.000000mm" viewBox="0 0 192.000000 259.000000" style="background-color:white" >
<line x1="48.000000" y1="0.000000" x2="48.000000" y2="259.000000" stroke="black" stroke-width="0.1" />
<line x1="144.000000" y1="0.000000" x2="144.000000" y2="259.000000" stroke="black" stroke-width="0.1" />
<line x1="104.000000" y1="255.000000" x2="184.000000" y2="255.000000" stroke="black" stroke-width="0.1" />
<line x1="8.000000" y1="5.000000" x2="88.000000" y2="5.000000" stroke="black" stroke-width="0.1" />
<line x1="96.000000" y1="0.000000" x2="96.000000" y2="259.000000" stroke="black" stroke-width="0.1" stroke-dasharray="2 2" />
<line x1="0.000000" y1="259.000000" x2="96.000000" y2="259.000000" stroke="black" stroke-width="0.1" stroke-dasharray="2 2" />
<line x1="96.000000" y1="0.000000" x2="192.000000" y2="0.000000" stroke="black" stroke-width="0.1" stroke-dasharray="2 2" />
<line x1="48.000000" y1="7.000000" x2="41.000000" y2="0.000000" stroke="black" stroke-width="0.1" stroke-dasharray="2 2" />
<line x1="48.000000" y1="7.000000" x2="55.000000" y2="0.000000" stroke="black" stroke-width="0.1" stroke-dasharray="2 2" />
<line x1="144.000000" y1="253.000000" x2="138.000000" y2="259.000000" stroke="black" stroke-width="0.1" stroke-dasharray="2 2" />
<line x1="144.000000" y1="253.000000" x2="150.000000" y2="259.000000" stroke="black" stroke-width="0.1" stroke-dasharray="2 2" />
<text x="83.000000" y="130.000000" font-family="Arial" font-size="8" text-anchor="middle" dominant-baseline="middle" transform="rotate(90 83.000000 130.000000)" >Salomon Warden 11, Strive 12/14 335, Heel</text>
<text x="179.000000" y="130.000000" font-family="Arial" font-size="8" text-anchor="middle" dominant-baseline="middle" transform="rotate(90 179.000000 130.000000)" >Salomon Warden 11, Strive 12/14 335, Toe</text>
<line x1="104.000000" y1="102.500000" x2="104.000000" y2="255.000000" stroke="black" stroke-width="0.1" />
<line x1="101.500000" y1="102.500000" x2="106.500000" y2="102.500000" stroke="black" stroke-width="0.1" />
<line x1="104.000000" y1="102.500000" x2="101.500000" y2="105.000000" stroke="black" stroke-width="0.1" />
<line x1="104.000000" y1="102.500000" x2="106.500000" y2="105.000000" stroke="black" stroke-width="0.1" />
<line x1="101.500000" y1="255.000000" x2="106.500000" y2="255.000000" stroke="black" stroke-width="0.1" />
<line x1="104.000000" y1="255.000000" x2="101.500000" y2="252.500000" stroke="black" stroke-width="0.1" />
<line x1="104.000000" y1="255.000000" x2="106.500000" y2="252.500000" stroke="black" stroke-width="0.1" />
<text x="106.500000" y="178.750000" font-family="Arial" font-size="4" text-anchor="middle" dominant-baseline="middle" transform="rotate(90 106.500000 178.750000)" >152.5 mm</text>
<line x1="114.000000" y1="37.500000" x2="114.000000" y2="102.500000" stroke="black" stroke-width="0.1" />
<line x1="111.500000" y1="37.500000" x2="116.500000" y2="37.500000" stroke="black" stroke-width="0.1" />
<line x1="114.000000" y1="37.500000" x2="111.500000" y2="40.000000" stroke="black" stroke-width="0.1" />
<line x1="114.000000" y1="37.500000" x2="116.500000" y2="40.000000" stroke="black" stroke-width="0.1" />
<line x1="111.500000" y1="102.500000" x2="116.500000" y2="102.500000" stroke="black" stroke-width="0.1" />
<line x1="114.000000" y1="102.500000" x2="111.500000" y2="100.000000" stroke="black" stroke-width="0.1" />
<line x1="114.000000" y1="102.500000" x2="116.500000" y2="100.000000" stroke="black" stroke-width="0.1" />
<text x="116.500000" y="70.000000" font-family="Arial" font-size="4" text-anchor="middle" dominant-baseline="middle" transform="rotate(90 116.500000 70.000000)" >65.0 mm</text>
<line x1="8.000000" y1="5.000000" x2="8.000000" y2="144.500000" stroke="black" stroke-width="0.1" />
<line x1="5.500000" y1="5.000000" x2="10.500000" y2="5.000000" stroke="black" stroke-width="0.1" />
<line x1="8.000000" y1="5.000000" x2="5.500000" y2="7.500000" stroke="black" stroke-width="0.1" />
<line x1="8.000000" y1="5.000000" x2="10.500000" y2="7.500000" stroke="black" stroke-width="0.1" />
<line x1="5.500000" y1="144.500000" x2="10.500000" y2="144.500000" stroke="black" stroke-width="0.1" />
<line x1="8.000000" y1="144.500000" x2="5.500000" y2="142.000000" stroke="black" stroke-width="0.1" />
<line x1="8.000000" y1="144.500000" x2="10.500000" y2="142.000000" stroke="black" stroke-width="0.1" />
<text x="10.500000" y="74.750000" font-family="Arial" font-size="4" text-anchor="middle" dominant-baseline="middle" transform="rotate(90 10.500000 74.750000)" >139.5 mm</text>
<line x1="18.000000" y1="144.500000" x2="18.000000" y2="224.500000" stroke="black" stroke-width="0.1" />
<line x1="15.500000" y1="144.500000" x2="20.500000" y2="144.500000" stroke="black" stroke-width="0.1" />
<line x1="18.000000" y1="144.500000" x2="15.500000" y2="147.000000" stroke="black" stroke-width="0.1" />
<line x1="18.000000" y1="144.500000" x2="20.500000" y2="147.000000" stroke="black" stroke-width="0.1" />
<line x1="15.500000" y1="224.500000" x2="20.500000" y2="224.500000" stroke="black" stroke-width="0.1" />
<line x1="18.000000" y1="224.500000" x2="15.500000" y2="222.000000" stroke="black" stroke-width="0.1" />
<line x1="18.000000" y1="224.500000" x2="20.500000" y2="222.000000" stroke="black" stroke-width="0.1" />
<text x="20.500000" y="184.500000" font-family="Arial" font-size="4" text-anchor="middle" dominant-baseline="middle" transform="rotate(90 20.500000 184.500000)" >80.0 mm</text>
<line x1="124.000000" y1="27.500000" x2="164.000000" y2="27.500000" stroke="black" stroke-width="0.1" />
<line x1="124.000000" y1="25.000000" x2="124.000000" y2="30.000000" stroke="black" stroke-width="0.1" />
<line x1="124.000000" y1="27.500000" x2="126.500000" y2="30.000000" stroke="black" stroke-width="0.1" />
<line x1="124.000000" y1="27.500000" x2="126.500000" y2="25.000000" stroke="black" stroke-width="0.1" />
<line x1="164.000000" y1="25.000000" x2="164.000000" y2="30.000000" stroke="black" stroke-width="0.1" />
<line x1="164.000000" y1="27.500000" x2="161.500000" y2="30.000000" stroke="black" stroke-width="0.1" />
<line x1="164.000000" y1="27.500000" x2="161.500000" y2="25.000000" stroke="black" stroke-width="0.1" />
<text x="149.000000" y="17.500000" font-family="Arial" font-size="4" text-anchor="middle" dominant-baseline="middle" transform="rotate(90 149.000000 17.500000)" >40.0 mm</text>
<line x1="124.000000" y1="92.500000" x2="164.000000" y2="92.500000" stroke="black" stroke-width="0.1" />
<line x1="124.000000" y1="90.000000" x2="124.000000" y2="95.000000" stroke="black" stroke-width="0.1" />
<line x1="124.000000" y1="92.500000" x2="126.500000" y2="95.000000" stroke="black" stroke-width="0.1" />
<line x1="124.000000" y1="92.500000" x2="126.500000" y2="90.000000" stroke="black" stroke-width="0.1" />
<line x1="164.000000" y1="90.000000" x2="164.000000" y2="95.000000" stroke="black" stroke-width="0.1" />
<line x1="164.000000" y1="92.500000" x2="161.500000" y2="95.000000" stroke="black" stroke-width="0.1" />
<line x1="164.000000" y1="92.500000" x2="161.500000" y2="90.000000" stroke="black" stroke-width="0.1" />
<text x="149.000000" y="82.500000" font-family="Arial" font-size="4" text-anchor="middle" dominant-baseline="middle" transform="rotate(90 149.000000 82.500000)" >40.0 mm</text>
<line x1="33.000000" y1="154.500000" x2="63.000000" y2="154.500000" stroke="black" stroke-width="0.1" />
<line x1="33.000000" y1="152.000000" x2="33.000000" y2="157.000000" stroke="black" stroke-width="0.1" />
<line x1="33.000000" y1="154.500000" x2="35.500000" y2="157.000000" stroke="black" stroke-width="0.1" />
<line x1="33.000000" y1="154.500000" x2="35.500000" y2="152.000000" stroke="black" stroke-width="0.1" />
<line x1="63.000000" y1="152.000000" x2="63.000000" y2="157.000000" stroke="black" stroke-width="0.1" />
<line x1="63.000000" y1="154.500000" x2="60.500000" y2="157.000000" stroke="black" stroke-width="0.1" />
<line x1="63.000000" y1="154.500000" x2="60.500000" y2="152.000000" stroke="black" stroke-width="0.1" />
<text x="53.000000" y="164.500000" font-family="Arial" font-size="4" text-anchor="middle" dominant-baseline="middle" transform="rotate(90 53.000000 164.500000)" >30.0 mm</text>
<line x1="33.000000" y1="234.500000" x2="63.000000" y2="234.500000" stroke="black" stroke-width="0.1" />
<line x1="33.000000" y1="232.000000" x2="33.000000" y2="237.000000" stroke="black" stroke-width="0.1" />
<line x1="33.000000" y1="234.500000" x2="35.500000" y2="237.000000" stroke="black" stroke-width="0.1" />
<line x1="33.000000" y1="234.500000" x2="35.500000" y2="232.000000" stroke="black" stroke-width="0.1" />
<line x1="63.000000" y1="232.000000" x2="63.000000" y2="237.000000" stroke="black" stroke-width="0.1" />
<line x1="63.000000" y1="234.500000" x2="60.500000" y2="237.000000" stroke="black" stroke-width="0.1" />
<line x1="63.000000" y1="234.500000" x2="60.500000" y2="232.000000" stroke="black" stroke-width="0.1" />
<text x="53.000000" y="244.500000" font-family="Arial" font-size="4" text-anchor="middle" dominant-baseline="middle" transform="rotate(90 53.000000 244.500000)" >30.0 mm</text>
<circle cx="124.000000" cy="37.500000" r="2.500000" fill="none" stroke="black" stroke-width="0.1" />
<circle cx="124.000000" cy="37.500000" r="0.250000" fill="none" stroke="black" stroke-width="0.1" />
<line x1="123.750000" y1="37.500000" x2="123.500000" y2="37.500000" stroke="black" stroke-width="0.1" />
<line x1="124.250000" y1="37.500000" x2="124.500000" y2="37.500000" stroke="black" stroke-width="0.1" />
<line x1="124.000000" y1="37.250000" x2="124.000000" y2="37.000000" stroke="black" stroke-width="0.1" />
<line x1="124.000000" y1="37.750000" x2="124.000000" y2="38.000000" stroke="black" stroke-width="0.1" />
<line x1="121.000000" y1="37.500000" x2="122.000000" y2="37.500000" stroke="black" stroke-width="0.1" />
<line x1="126.000000" y1="37.500000" x2="127.000000" y2="37.500000" stroke="black" stroke-width="0.1" />
<line x1="124.000000" y1="34.500000" x2="124.000000" y2="35.500000" stroke="black" stroke-width="0.1" />
<line x1="124.000000" y1="39.500000" x2="124.000000" y2="40.500000" stroke="black" stroke-width="0.1" />
<circle cx="164.000000" cy="37.500000" r="2.500000" fill="none" stroke="black" stroke-width="0.1" />
<circle cx="164.000000" cy="37.500000" r="0.250000" fill="none" stroke="black" stroke-width="0.1" />
<line x1="163.750000" y1="37.500000" x2="163.500000" y2="37.500000" stroke="black" stroke-width="0.1" />
<line x1="164.250000" y1="37.500000" x2="164.500000" y2="37.500000" stroke="black" stroke-width="0.1" />
<line x1="164.000000" y1="37.250000" x2="164.000000" y2="37.000000" stroke="black" stroke-width="0.1" />
<line x1="164.000000" y1="37.750000" x2="164.000000" y2="38.000000" stroke="black" stroke-width="0.1" />
<line x1="161.000000" y1="37.500000" x2="162.000000" y2="37.500000" stroke="black" stroke-width="0.1" />
<line x1="166.000000" y1="37.500000" x2="167.000000" y2="37.500000" stroke="black" stroke-width="0.1" />
<line x1="164.000000" y1="34.500000" x2="164.000000" y2="35.500000" stroke="black" stroke-width="0.1" />
<line x1="164.000000" y1="39.500000" x2="164.000000" y2="40.500000" stroke="black" stroke-width="0.1" />
<circle cx="124.000000" cy="102.500000" r="2.500000" fill="none" stroke="black" stroke-width="0.1" />
<circle cx="124.000000" cy="102.500000" r="0.250000" fill="none" stroke="black" stroke-width="0.1" />
<line x1="123.750000" y1="102.500000" x2="123.500000" y2="102.500000" stroke="black" stroke-width="0.1" />
<line x1="124.250000" y1="102.500000" x2="124.500000" y2="102.500000" stroke="black" stroke-width="0.1" />
<line x1="124.000000" y1="102.250000" x2="124.000000" y2="102.000000" stroke="black" stroke-width="0.1" />
<line x1="124.000000" y1="102.750000" x2="124.000000" y2="103.000000" stroke="black" stroke-width="0.1" />
<line x1="121.000000" y1="102.500000" x2="122.000000" y2="102.500000" stroke="black" stroke-width="0.1" />
<line x1="126.000000" y1="102.500000" x2="127.000000" y2="102.500000" stroke="black" stroke-width="0.1" />
<line x1="124.000000" y1="99.500000" x2="124.000000" y2="100.500000" stroke="black" stroke-width="0.1" />
<line x1="124.000000" y1="104.500000" x2="124.000000" y2="105.500000" stroke="black" stroke-width="0.1" />
<circle cx="164.000000" cy="102.500000" r="2.500000" fill="none" stroke="black" stroke-width="0.1" />
<circle cx="164.000000" cy="102.500000" r="0.250000" fill="none" stroke="black" stroke-width="0.1" />
<line x1="163.750000" y1="102.500000" x2="163.500000" y2="102.500000" stroke="black" stroke-width="0.1" />
<line x1="164.250000" y1="102.500000" x2="164.500000" y2="102.500000" stroke="black" stroke-width="0.1" />
<line x1="164.000000" y1="102.250000" x2="164.000000" y2="102.000000" stroke="black" stroke-width="0.1" />
<line x1="164.000000" y1="102.750000" x2="164.000000" y2="103.000000" stroke="black" stroke-width="0.1" />
<line x1="161.000000" y1="102.500000" x2="162.000000" y2="102.500000" stroke="black" stroke-width="0.1" />
<line x1="166.000000" y1="102.500000" x2="167.000000" y2="102.500000" stroke="black" stroke-width="0.1" />
<line x1="164.000000" y1="99.500000" x2="164.000000" y2="100.500000" stroke="black" stroke-width="0.1" />
<line x1="164.000000" y1="104.500000" x2="164.000000" y2="105.500000" stroke="black" stroke-width="0.1" />
<circle cx="33.000000" cy="144.500000" r="2.500000" fill="none" stroke="black" stroke-width="0.1" />
<circle cx="33.000000" cy="144.500000" r="0.250000" fill="none" stroke="black" stroke-width="0.1" />
<line x1="32.750000" y1="144.500000" x2="32.500000" y2="144.500000" stroke="black" stroke-width="0.1" />
<line x1="33.250000" y1="144.500000" x2="33.500000" y2="144.500000" stroke="black" stroke-width="0.1" />
<line x1="33.000000" y1="144.250000" x2="33.000000" y2="144.000000" stroke="black" stroke-width="0.1" />
<line x1="33.000000" y1="144.750000" x2="33.000000" y2="145.000000" stroke="black" stroke-width="0.1" />
<line x1="30.000000" y1="144.500000" x2="31.000000" y2="144.500000" stroke="black" stroke-width="0.1" />
<line x1="35.000000" y1="144.500000" x2="36.000000" y2="144.500000" stroke="black" stroke-width="0.1" />
<line x1="33.000000" y1="141.500000" x2="33.000000" y2="142.500000" stroke="black" stroke-width="0.1" />
<line x1="33.000000" y1="146.500000" x2="33.000000" y2="147.500000" stroke="black" stroke-width="0.1" />
<circle cx="63.000000" cy="144.500000" r="2.500000" fill="none" stroke="black" stroke-width="0.1" />
<circle cx="63.000000" cy="144.500000" r="0.250000" fill="none" stroke="black" stroke-width="0.1" />
<line x1="62.750000" y1="144.500000" x2="62.500000" y2="144.500000" stroke="black" stroke-width="0.1" />
<line x1="63.250000" y1="144.500000" x2="63.500000" y2="144.500000" stroke="black" stroke-width="0.1" />
<line x1="63.000000" y1="144.250000" x2="63.000000" y2="144.000000" stroke="black" stroke-width="0.1" />
<line x1="63.000000" y1="144.750000" x2="63.000000" y2="145.000000" stroke="black" stroke-width="0.1" />
<line x1="60.000000" y1="144.500000" x2="61.000000" y2="144.500000" stroke="black" stroke-width="0.1" />
<line x1="65.000000" y1="144.500000" x2="66.000000" y2="144.500000" stroke="black" stroke-width="0.1" />
<line x1="63.000000" y1="141.500000" x2="63.000000" y2="142.500000" stroke="black" stroke-width="0.1" />
<line x1="63.000000" y1="146.500000" x2="63.000000" y2="147.500000" stroke="black" stroke-width="0.1" />
<circle cx="33.000000" cy="224.500000" r="2.500000" fill="none" stroke="black" stroke-width="0.1" />
<circle cx="33.000000" cy="224.500000" r="0.250000" fill="none" stroke="black" stroke-width="0.1" />
<line x1="32.750000" y1="224.500000" x2="32.500000" y2="224.500000" stroke="black" stroke-width="0.1" />
<line x1="33.250000" y1="224.500000" x2="33.500000" y2="224.500000" stroke="black" stroke-width="0.1" />
<line x1="33.000000" y1="224.250000" x2="33.000000" y2="224.000000" stroke="black" stroke-width="0.1" />
<line x1="33.000000" y1="224.750000" x2="33.000000" y2="225.000000" stroke="black" stroke-width="0.1" />
<line x1="30.000000" y1="224.500000" x2="31.000000" y2="224.500000" stroke="black" stroke-width="0.1" />
<line x1="35.000000" y1="224.500000" x2="36.000000" y2="224.500000" stroke="black" stroke-width="0.1" />
<line x1="33.000000" y1="221.500000" x2="33.000000" y2="222.500000" stroke="black" stroke-width="0.1" />
<line x1="33.000000" y1="226.500000" x2="33.000000" y2="227.500000" stroke="black" stroke-width="0.1" />
<circle cx="63.000000" cy="224.500000" r="2.500000" fill="none" stroke="black" stroke-width="0.1" />
<circle cx="63.000000" cy="224.500000" r="0.250000" fill="none" stroke="black" stroke-width="0.1" />
<line x1="62.750000" y1="224.500000" x2="62.500000" y2="224.500000" stroke="black" stroke-width="0.1" />
<line x1="63.250000" y1="224.500000" x2="63.500000" y2="224.500000" stroke="black" stroke-width="0.1" />
<line x1="63.000000" y1="224.250000" x2="63.000000" y2="224.000000" stroke="black" stroke-width="0.1" />
<line x1="63.000000" y1="224.750000" x2="63.000000" y2="225.000000" stroke="black" stroke-width="0.1" />
<line x1="60.000000" y1="224.500000" x2="61.000000" y2="224.500000" stroke="black" stroke-width="0.1" />
<line x1="65.000000" y1="224.500000" x2="66.000000" y2="224.500000" stroke="black" stroke-width="0.1" />
<line x1="63.000000" y1="221.500000" x2="63.000000" y2="222.500000" stroke="black" stroke-width="0.1" />
<line x1="63.000000" y1="226.500000" x2="63.000000" y2="227.500000" stroke="black" stroke-width="0.1" />
<text x="73.000000" y="25.000000" font-family="Arial" font-size="4" text-anchor="middle" dominant-baseline="middle" transform="rotate(90 73.000000 25.000000)" >Mid Sole Mount Line</text>
<text x="169.000000" y="235.000000" font-family="Arial" font-size="4" text-anchor="middle" dominant-baseline="middle" transform="rotate(90 169.000000 235.000000)" >Mid Sole Mount Line</text>
<text x="43.000000" y="235.000000" font-family="Arial" font-size="4" text-anchor="middle" dominant-baseline="middle" transform="rotate(90 43.000000 235.000000)" >Ski Center Line</text>
<text x="139.000000" y="25.000000" font-family="Arial" font-size="4" text-anchor="middle" dominant-baseline="middle" transform="rotate(90 139.000000 25.000000)" >Ski Center Line</text>
</svg>