<?xml version="1.0"?>
<!DOCTYPE svg PUBLIC "-//W3C//DTD SVG 1.1//EN"
"http://www.w3.org/Graphics/SVG/1.1/DTD/svg11.dtd">
<svg xmlns="http://www.w3.org/2000/svg" version="1.2" width="192.000000mm" height="259.000000mm" viewBox="0 0 192.000000 259.000000" style="background-color:white" >
<line x1="48.000000" y1="0.000000" x2="48.000000" y2="259.000000" stroke="black" stroke-width="0.1" />
<line x1="144.000000" y1="0.000000" x2="144.000000" y2="259.000000" stroke="black" stroke-width="0.1" />
<line x1="104.000000" y1="255.000000" x2="184.000000" y2="255.000000" stroke="black" stroke-width="0.1" />
<line x1="8.000000" y1="5.000000" x2="88.000000" y2="5.000000" stroke="black" stroke-width="0.1" />
<line x1="96.000000" y1="0.000000" x2="96.000000" y2="259.000000" stroke="black" stroke-width="0.1" stroke-dasharray="2 2" />
<line x1="0.000000" y1="259.000000" x2="96.000000" y2="259.000000" stroke="black" stroke-width="0.1" stroke-dasharray="2 2" />
<line x1="96.000000" y1="0.000000" x2="192.000000" y2="0.000000" stroke="black" stroke-width="0.1" stroke-dasharray="2 2" />
<line x1="48.000000" y1="7.000000" x2="41.000000" y2="0.000000" stroke="black" stroke-width="0.1" stroke-dasharray="2 2" />
<line x1="48.000000" y1="7.000000" x2="55.000000" y2="0.000000" stroke="black" stroke-width="0.1" stroke-dasharray="2 2" />
<line x1="144.000000" y1="253.000000" x2="138.000000" y2="259.000000" stroke="black" stroke-width="0.1" stroke-dasharray="2 2" />
<line x1="144.000000" y1="253.000000" x2="150.000000" y2="259.000000" stroke="black" stroke-width="0.1" stroke-dasharray="2 2" />
<text x="83.000000" y="130.000000" font-family="Arial" font-size="8" text-anchor="middle" dominant-baseline="middle" transform="rotate(90 83.000000 130.000000)" >Salomon Warden 11, Strive 12/14 331, Heel</text>
<text x="179.000000" y="130.000000" font-family="Arial" font-size="8" text-anchor="middle" dominant-baseline="middle" transform="rotate(90 179.000000 130.000000)" >Salomon Warden 11, Strive 12/14 331, Toe</text>
<line x1="104.000000" y1="104.500000" x2="104.000000" y2="255.000000" stroke="black" stroke-width="0.1" />
<line x1="101.500000" y1="104.500000" x2="106.500000" y2="104.500000" stroke="black" stroke-width="0.1" />
<line x1="104.000000" y1="104.500000" x2="101.500000" y2="107.000000" stroke="black" stroke-width="0.1" />
<line x1="104.000000" y1="104.500000" x2="106.500000" y2="107.000000" stroke="black" stroke-width="0.1" />
<line x1="101.500000" y1="255.000000" x2="106.500000" y2="255.000000" stroke="black" stroke-width="0.1" />
<line x1="104.000000" y1="255.000000" x2="101.500000" y2="252.500000" stroke="black" stroke-width="0.1" />
<line x1="104.000000" y1="255.000000" x2="106.500000" y2="252.500000" stroke="black" stroke-width="0.1" />
<text x="106.500000" y="179.750000" font-family="Arial" font-size="4" text-anchor="middle" dominant-baseline="middle" transform="rotate(90 106.500000 179.750000)" >150.5 mm</text>
<line x1="114.000000" y1="39.500000" x2="114.000000" y2="104.500000" stroke="black" stroke-width="0.1" />
<line x1="111.500000" y1="39.500000" x2="116.500000" y2="39.500000" stroke="black" stroke-width="0.1" />
<line x1="114.000000" y1="39.500000" x2="111.500000" y2="42.000000" stroke="black" stroke-width="0.1" />
<line x1="114.000000" y1="39.500000" x2="116.500000" y2="42.000000" stroke="black" stroke-width="0.1" />
<line x1="111.500000" y1="104.500000" x2="116.500000" y2="104.500000" stroke="black" stroke-width="0.1" />
<line x1="114.000000" y1="104.500000" x2="111.500000" y2="102.000000" stroke="black" stroke-width="0.1" />
<line x1="114.000000" y1="104.500000" x2="116.500000" y2="102.000000" stroke="black" stroke-width="0.1" />
<text x="116.500000" y="72.000000" font-family="Arial" font-size="4" text-anchor="middle" dominant-baseline="middle" transform="rotate(90 116.500000 72.000000)" >65.0 mm</text>
<line x1="8.000000" y1="5.000000" x2="8.000000" y2="142.500000" stroke="black" stroke-width="0.1" />
<line x1="5.500000" y1="5.000000" x2="10.500000" y2="5.000000" stroke="black" stroke-width="0.1" />
<line x1="8.000000" y1="5.000000" x2="5.500000" y2="7.500000" stroke="black" stroke-width="0.1" />
<line x1="8.000000" y1="5.000000" x2="10.500000" y2="7.500000" stroke="black" stroke-width="0.1" />
<line x1="5.500000" y1="142.500000" x2="10.500000" y2="142.500000" stroke="black" stroke-width="0.1" />
<line x1="8.000000" y1="142.500000" x2="5.500000" y2="140.000000" stroke="black" stroke-width="0.1" />
<line x1="8.000000" y1="142.500000" x2="10.500000" y2="140.000000" stroke="black" stroke-width="0.1" />
<text x="10.500000" y="73.750000" font-family="Arial" font-size="4" text-anchor="middle" dominant-baseline="middle" transform="rotate(90 10.500000 73.750000)" >137.5 mm</text>
<line x1="18.000000" y1="142.500000" x2="18.000000" y2="222.500000" stroke="black" stroke-width="0.1" />
<line x1="15.500000" y1="142.500000" x2="20.500000" y2="142.500000" stroke="black" stroke-width="0.1" />
<line x1="18.000000" y1="142.500000" x2="15.500000" y2="145.000000" stroke="black" stroke-width="0.1" />
<line x1="18.000000" y1="142.500000" x2="20.500000" y2="145.000000" stroke="black" stroke-width="0.1" />
<line x1="15.500000" y1="222.500000" x2="20.500000" y2="222.500000" stroke="black" stroke-width="0.1" />
<line x1="18.000000" y1="222.500000" x2="15.500000" y2="220.000000" stroke="black" stroke-width="0.1" />
<line x1="18.000000" y1="222.500000" x2="20.500000" y2="220.000000" stroke="black" stroke-width="0.1" />
<text x="20.500000" y="182.500000" font-family="Arial" font-size="4" text-anchor="middle" dominant-baseline="middle" transform="rotate(90 20.500000 182.500000)" >80.0 mm</text>
<line x1="124.000000" y1="29.500000" x2="164.000000" y2="29.500000" stroke="black" stroke-width="0.1" />
<line x1="124.000000" y1="27.000000" x2="124.000000" y2="32.000000" stroke="black" stroke-width="0.1" />
<line x1="124.000000" y1="29.500000" x2="126.500000" y2="32.000000" stroke="black" stroke-width="0.1" />
<line x1="124.000000" y1="29.500000" x2="126.500000" y2="27.000000" stroke="black" stroke-width="0.1" />
<line x1="164.000000" y1="27.000000" x2="164.000000" y2="32.000000" stroke="black" stroke-width="0.1" />
<line x1="164.000000" y1="29.500000" x2="161.500000" y2="32.000000" stroke="black" stroke-width="0.1" />
<line x1="164.000000" y1="29.500000" x2="161.500000" y2="27.000000" stroke="black" stroke-width="0.1" />
<text x="149.000000" y="19.500000" font-family="Arial" font-size="4" text-anchor="middle" dominant-baseline="middle" transform="rotate(90 149.000000 19.500000)" >40.0 mm</text>
<line x1="124.000000" y1="94.500000" x2="164.000000" y2="94.500000" stroke="black" stroke-width="0.1" />
<line x1="124.000000" y1="92.000000" x2="124.000000" y2="97.000000" stroke="black" stroke-width="0.1" />
<line x1="124.000000" y1="94.500000" x2="126.500000" y2="97.000000" stroke="black" stroke-width="0.1" />
<line x1="124.000000" y1="94.500000" x2="126.500000" y2="92.000000" stroke="black" stroke-width="0.1" />
<line x1="164.000000" y1="92.000000" x2="164.000000" y2="97.000000" stroke="black" stroke-width="0.1" />
<line x1="164.000000" y1="94.500000" x2="161.500000" y2="97.000000" stroke="black" stroke-width="0.1" />
<line x1="164.000000" y1="94.500000" x2="161.500000" y2="92.000000" stroke="black" stroke-width="0.1" />
<text x="149.000000" y="84.500000" font-family="Arial" font-size="4" text-anchor="middle" dominant-baseline="middle" transform="rotate(90 149.000000 84.500000)" >40.0 mm</text>
<line x1="33.000000" y1="152.500000" x2="63.000000" y2="152.500000" stroke="black" stroke-width="0.1" />
<line x1="33.000000" y1="150.000000" x2="33.000000" y2="155.000000" stroke="black" stroke-width="0.1" />
<line x1="33.000000" y1="152.500000" x2="35.500000" y2="155.000000" stroke="black" stroke-width="0.1" />
<line x1="33.000000" y1="152.500000" x2="35.500000" y2="150.000000" stroke="black" stroke-width="0.1" />
<line x1="63.000000" y1="150.000000" x2="63.000000" y2="155.000000" stroke="black" stroke-width="0.1" />
<line x1="63.000000" y1="152.500000" x2="60.500000" y2="155.000000" stroke="black" stroke-width="0.1" />
<line x1="63.000000" y1="152.500000" x2="60.500000" y2="150.000000" stroke="black" stroke-width="0.1" />
<text x="53.000000" y="162.500000" font-family="Arial" font-size="4" text-anchor="middle" dominant-baseline="middle" transform="rotate(90 53.000000 162.500000)" >30.0 mm</text>
<line x1="33.000000" y1="232.500000" x2="63.000000" y2="232.500000" stroke="black" stroke-width="0.1" />
<line x1="33.000000" y1="230.000000" x2="33.000000" y2="235.000000" stroke="black" stroke-width="0.1" />
<line x1="33.000000" y1="232.500000" x2="35.500000" y2="235.000000" stroke="black" stroke-width="0.1" />
<line x1="33.000000" y1="232.500000" x2="35.500000" y2="230.000000" stroke="black" stroke-width="0.1" />
<line x1="63.000000" y1="230.000000" x2="63.000000" y2="235.000000" stroke="black" stroke-width="0.1" />
<line x1="63.000000" y1="232.500000" x2="60.500000" y2="235.000000" stroke="black" stroke-width="0.1" />
<line x1="63.000000" y1="232.500000" x2="60.500000" y2="230.000000" stroke="black" stroke-width="0.1" />
<text x="53.000000" y="242.500000" font-family="Arial" font-size="4" text-anchor="middle" dominant-baseline="middle" transform="rotate(90 53.000000 242.500000)" >30.0 mm</text>
<circle cx="124.000000" cy="39.500000" r="2.500000" fill="none" stroke="black" stroke-width="0.1" />
<circle cx="124.000000" cy="39.500000" r="0.250000" fill="none" stroke="black" stroke-width="0.1" />
<line x1="123.750000" y1="39.500000" x2="123.500000" y2="39.500000" stroke="black" stroke-width="0.1" />
<line x1="124.250000" y1="39.500000" x2="124.500000" y2="39.500000" stroke="black" stroke-width="0.1" />
<line x1="124.000000" y1="39.250000" x2="124.000000" y2="39.000000" stroke="black" stroke-width="0.1" />
<line x1="124.000000" y1="39.750000" x2="124.000000" y2="40.000000" stroke="black" stroke-width="0.1" />
<line x1="121.000000" y1="39.500000" x2="122.000000" y2="39.500000" stroke="black" stroke-width="0.1" />
<line x1="126.000000" y1="39.500000" x2="127.000000" y2="39.500000" stroke="black" stroke-width="0.1" />
<line x1="124.000000" y1="36.500000" x2="124.000000" y2="37.500000" stroke="black" stroke-width="0.1" />
<line x1="124.000000" y1="41.500000" x2="124.000000" y2="42.500000" stroke="black" stroke-width="0.1" />
<circle cx="164.000000" cy="39.500000" r="2.500000" fill="none" stroke="black" stroke-width="0.1" />
<circle cx="164.000000" cy="39.500000" r="0.250000" fill="none" stroke="black" stroke-width="0.1" />
<line x1="163.750000" y1="39.500000" x2="163.500000" y2="39.500000" stroke="black" stroke-width="0.1" />
<line x1="164.250000" y1="39.500000" x2="164.500000" y2="39.500000" stroke="black" stroke-width="0.1" />
<line x1="164.000000" y1="39.250000" x2="164.000000" y2="39.000000" stroke="black" stroke-width="0.1" />
<line x1="164.000000" y1="39.750000" x2="164.000000" y2="40.000000" stroke="black" stroke-width="0.1" />
<line x1="161.000000" y1="39.500000" x2="162.000000" y2="39.500000" stroke="black" stroke-width="0.1" />
<line x1="166.000000" y1="39.500000" x2="167.000000" y2="39.500000" stroke="black" stroke-width="0.1" />
<line x1="164.000000" y1="36.500000" x2="164.000000" y2="37.500000" stroke="black" stroke-width="0.1" />
<line x1="164.000000" y1="41.500000" x2="164.000000" y2="42.500000" stroke="black" stroke-width="0.1" />
<circle cx="124.000000" cy="104.500000" r="2.500000" fill="none" stroke="black" stroke-width="0.1" />
<circle cx="124.000000" cy="104.500000" r="0.250000" fill="none" stroke="black" stroke-width="0.1" />
<line x1="123.750000" y1="104.500000" x2="123.500000" y2="104.500000" stroke="black" stroke-width="0.1" />
<line x1="124.250000" y1="104.500000" x2="124.500000" y2="104.500000" stroke="black" stroke-width="0.1" />
<line x1="124.000000" y1="104.250000" x2="124.000000" y2="104.000000" stroke="black" stroke-width="0.1" />
<line x1="124.000000" y1="104.750000" x2="124.000000" y2="105.000000" stroke="black" stroke-width="0.1" />
<line x1="121.000000" y1="104.500000" x2="122.000000" y2="104.500000" stroke="black" stroke-width="0.1" />
<line x1="126.000000" y1="104.500000" x2="127.000000" y2="104.500000" stroke="black" stroke-width="0.1" />
<line x1="124.000000" y1="101.500000" x2="124.000000" y2="102.500000" stroke="black" stroke-width="0.1" />
<line x1="124.000000" y1="106.500000" x2="124.000000" y2="107.500000" stroke="black" stroke-width="0.1" />
<circle cx="164.000000" cy="104.500000" r="2.500000" fill="none" stroke="black" stroke-width="0.1" />
<circle cx="164.000000" cy="104.500000" r="0.250000" fill="none" stroke="black" stroke-width="0.1" />
<line x1="163.750000" y1="104.500000" x2="163.500000" y2="104.500000" stroke="black" stroke-width="0.1" />
<line x1="164.250000" y1="104.500000" x2="164.500000" y2="104.500000" stroke="black" stroke-width="0.1" />
<line x1="164.000000" y1="104.250000" x2="164.000000" y2="104.000000" stroke="black" stroke-width="0.1" />
<line x1="164.000000" y1="104.750000" x2="164.000000" y2="105.000000" stroke="black" stroke-width="0.1" />
<line x1="161.000000" y1="104.500000" x2="162.000000" y2="104.500000" stroke="black" stroke-width="0.1" />
<line x1="166.000000" y1="104.500000" x2="167.000000" y2="104.500000" stroke="black" stroke-width="0.1" />
<line x1="164.000000" y1="101.500000" x2="164.000000" y2="102.500000" stroke="black" stroke-width="0.1" />
<line x1="164.000000" y1="106.500000" x2="164.000000" y2="107.500000" stroke="black" stroke-width="0.1" />
<circle cx="33.000000" cy="142.500000" r="2.500000" fill="none" stroke="black" stroke-width="0.1" />
<circle cx="33.000000" cy="142.500000" r="0.250000" fill="none" stroke="black" stroke-width="0.1" />
<line x1="32.750000" y1="142.500000" x2="32.500000" y2="142.500000" stroke="black" stroke-width="0.1" />
<line x1="33.250000" y1="142.500000" x2="33.500000" y2="142.500000" stroke="black" stroke-width="0.1" />
<line x1="33.000000" y1="142.250000" x2="33.000000" y2="142.000000" stroke="black" stroke-width="0.1" />
<line x1="33.000000" y1="142.750000" x2="33.000000" y2="143.000000" stroke="black" stroke-width="0.1" />
<line x1="30.000000" y1="142.500000" x2="31.000000" y2="142.500000" stroke="black" stroke-width="0.1" />
<line x1="35.000000" y1="142.500000" x2="36.000000" y2="142.500000" stroke="black" stroke-width="0.1" />
<line x1="33.000000" y1="139.500000" x2="33.000000" y2="140.500000" stroke="black" stroke-width="0.1" />
<line x1="33.000000" y1="144.500000" x2="33.000000" y2="145.500000" stroke="black" stroke-width="0.1" />
<circle cx="63.000000" cy="142.500000" r="2.500000" fill="none" stroke="black" stroke-width="0.1" />
<circle cx="63.000000" cy="142.500000" r="0.250000" fill="none" stroke="black" stroke-width="0.1" />
<line x1="62.750000" y1="142.500000" x2="62.500000" y2="142.500000" stroke="black" stroke-width="0.1" />
<line x1="63.250000" y1="142.500000" x2="63.500000" y2="142.500000" stroke="black" stroke-width="0.1" />
<line x1="63.000000" y1="142.250000" x2="63.000000" y2="142.000000" stroke="black" stroke-width="0.1" />
<line x1="63.000000" y1="142.750000" x2="63.000000" y2="143.000000" stroke="black" stroke-width="0.1" />
<line x1="60.000000" y1="142.500000" x2="61.000000" y2="142.500000" stroke="black" stroke-width="0.1" />
<line x1="65.000000" y1="142.500000" x2="66.000000" y2="142.500000" stroke="black" stroke-width="0.1" />
<line x1="63.000000" y1="139.500000" x2="63.000000" y2="140.500000" stroke="black" stroke-width="0.1" />
<line x1="63.000000" y1="144.500000" x2="63.000000" y2="145.500000" stroke="black" stroke-width="0.1" />
<circle cx="33.000000" cy="222.500000" r="2.500000" fill="none" stroke="black" stroke-width="0.1" />
<circle cx="33.000000" cy="222.500000" r="0.250000" fill="none" stroke="black" stroke-width="0.1" />
<line x1="32.750000" y1="222.500000" x2="32.500000" y2="222.500000" stroke="black" stroke-width="0.1" />
<line x1="33.250000" y1="222.500000" x2="33.500000" y2="222.500000" stroke="black" stroke-width="0.1" />
<line x1="33.000000" y1="222.250000" x2="33.000000" y2="222.000000" stroke="black" stroke-width="0.1" />
<line x1="33.000000" y1="222.750000" x2="33.000000" y2="223.000000" stroke="black" stroke-width="0.1" />
<line x1="30.000000" y1="222.500000" x2="31.000000" y2="222.500000" stroke="black" stroke-width="0.1" />
<line x1="35.000000" y1="222.500000" x2="36.000000" y2="222.500000" stroke="black" stroke-width="0.1" />
<line x1="33.000000" y1="219.500000" x2="33.000000" y2="220.500000" stroke="black" stroke-width="0.1" />
<line x1="33.000000" y1="224.500000" x2="33.000000" y2="225.500000" stroke="black" stroke-width="0.1" />
<circle cx="63.000000" cy="222.500000" r="2.500000" fill="none" stroke="black" stroke-width="0.1" />
<circle cx="63.000000" cy="222.500000" r="0.250000" fill="none" stroke="black" stroke-width="0.1" />
<line x1="62.750000" y1="222.500000" x2="62.500000" y2="222.500000" stroke="black" stroke-width="0.1" />
<line x1="63.250000" y1="222.500000" x2="63.500000" y2="222.500000" stroke="black" stroke-width="0.1" />
<line x1="63.000000" y1="222.250000" x2="63.000000" y2="222.000000" stroke="black" stroke-width="0.1" />
<line x1="63.000000" y1="222.750000" x2="63.000000" y2="223.000000" stroke="black" stroke-width="0.1" />
<line x1="60.000000" y1="222.500000" x2="61.000000" y2="222.500000" stroke="black" stroke-width="0.1" />
<line x1="65.000000" y1="222.500000" x2="66.000000" y2="222.500000" stroke="black" stroke-width="0.1" />
<line x1="63.000000" y1="219.500000" x2="63.000000" y2="220.500000" stroke="black" stroke-width="0.1" />
<line x1="63.000000" y1="224.500000" x2="63.000000" y2="225.500000" stroke="black" stroke-width="0.1" />
<text x="73.000000" y="25.000000" font-family="Arial" font-size="4" text-anchor="middle" dominant-baseline="middle" transform="rotate(90 73.000000 25.000000)" >Mid Sole Mount Line</text>
<text x="169.000000" y="235.000000" font-family="Arial" font-size="4" text-anchor="middle" dominant-baseline="middle" transform="rotate(90 169.000000 235.000000)" >Mid Sole Mount Line</text>
<text x="43.000000" y="235.000000" font-family="Arial" font-size="4" text-anchor="middle" dominant-baseline="middle" transform="rotate(90 43.000000 235.000000)" >Ski Center Line</text>
<text x="139.000000" y="25.000000" font-family="Arial" font-size="4" text-anchor="middle" dominant-baseline="middle" transform="rotate(90 139.000000 25.000000)" >Ski Center Line</text>
</svg>