<?xml version="1.0"?>
<!DOCTYPE svg PUBLIC "-//W3C//DTD SVG 1.1//EN"
"http://www.w3.org/Graphics/SVG/1.1/DTD/svg11.dtd">
<svg xmlns="http://www.w3.org/2000/svg" version="1.2" width="192.000000mm" height="259.000000mm" viewBox="0 0 192.000000 259.000000" style="background-color:white" >
<line x1="48.000000" y1="0.000000" x2="48.000000" y2="259.000000" stroke="black" stroke-width="0.1" />
<line x1="144.000000" y1="0.000000" x2="144.000000" y2="259.000000" stroke="black" stroke-width="0.1" />
<line x1="104.000000" y1="255.000000" x2="184.000000" y2="255.000000" stroke="black" stroke-width="0.1" />
<line x1="8.000000" y1="5.000000" x2="88.000000" y2="5.000000" stroke="black" stroke-width="0.1" />
<line x1="96.000000" y1="0.000000" x2="96.000000" y2="259.000000" stroke="black" stroke-width="0.1" stroke-dasharray="2 2" />
<line x1="0.000000" y1="259.000000" x2="96.000000" y2="259.000000" stroke="black" stroke-width="0.1" stroke-dasharray="2 2" />
<line x1="96.000000" y1="0.000000" x2="192.000000" y2="0.000000" stroke="black" stroke-width="0.1" stroke-dasharray="2 2" />
<line x1="48.000000" y1="7.000000" x2="41.000000" y2="0.000000" stroke="black" stroke-width="0.1" stroke-dasharray="2 2" />
<line x1="48.000000" y1="7.000000" x2="55.000000" y2="0.000000" stroke="black" stroke-width="0.1" stroke-dasharray="2 2" />
<line x1="144.000000" y1="253.000000" x2="138.000000" y2="259.000000" stroke="black" stroke-width="0.1" stroke-dasharray="2 2" />
<line x1="144.000000" y1="253.000000" x2="150.000000" y2="259.000000" stroke="black" stroke-width="0.1" stroke-dasharray="2 2" />
<text x="83.000000" y="130.000000" font-family="Arial" font-size="8" text-anchor="middle" dominant-baseline="middle" transform="rotate(90 83.000000 130.000000)" >Salomon Warden 11, Strive 12/14 264, Heel</text>
<text x="179.000000" y="130.000000" font-family="Arial" font-size="8" text-anchor="middle" dominant-baseline="middle" transform="rotate(90 179.000000 130.000000)" >Salomon Warden 11, Strive 12/14 264, Toe</text>
<line x1="104.000000" y1="138.000000" x2="104.000000" y2="255.000000" stroke="black" stroke-width="0.1" />
<line x1="101.500000" y1="138.000000" x2="106.500000" y2="138.000000" stroke="black" stroke-width="0.1" />
<line x1="104.000000" y1="138.000000" x2="101.500000" y2="140.500000" stroke="black" stroke-width="0.1" />
<line x1="104.000000" y1="138.000000" x2="106.500000" y2="140.500000" stroke="black" stroke-width="0.1" />
<line x1="101.500000" y1="255.000000" x2="106.500000" y2="255.000000" stroke="black" stroke-width="0.1" />
<line x1="104.000000" y1="255.000000" x2="101.500000" y2="252.500000" stroke="black" stroke-width="0.1" />
<line x1="104.000000" y1="255.000000" x2="106.500000" y2="252.500000" stroke="black" stroke-width="0.1" />
<text x="106.500000" y="196.500000" font-family="Arial" font-size="4" text-anchor="middle" dominant-baseline="middle" transform="rotate(90 106.500000 196.500000)" >117.0 mm</text>
<line x1="114.000000" y1="73.000000" x2="114.000000" y2="138.000000" stroke="black" stroke-width="0.1" />
<line x1="111.500000" y1="73.000000" x2="116.500000" y2="73.000000" stroke="black" stroke-width="0.1" />
<line x1="114.000000" y1="73.000000" x2="111.500000" y2="75.500000" stroke="black" stroke-width="0.1" />
<line x1="114.000000" y1="73.000000" x2="116.500000" y2="75.500000" stroke="black" stroke-width="0.1" />
<line x1="111.500000" y1="138.000000" x2="116.500000" y2="138.000000" stroke="black" stroke-width="0.1" />
<line x1="114.000000" y1="138.000000" x2="111.500000" y2="135.500000" stroke="black" stroke-width="0.1" />
<line x1="114.000000" y1="138.000000" x2="116.500000" y2="135.500000" stroke="black" stroke-width="0.1" />
<text x="116.500000" y="105.500000" font-family="Arial" font-size="4" text-anchor="middle" dominant-baseline="middle" transform="rotate(90 116.500000 105.500000)" >65.0 mm</text>
<line x1="8.000000" y1="5.000000" x2="8.000000" y2="109.000000" stroke="black" stroke-width="0.1" />
<line x1="5.500000" y1="5.000000" x2="10.500000" y2="5.000000" stroke="black" stroke-width="0.1" />
<line x1="8.000000" y1="5.000000" x2="5.500000" y2="7.500000" stroke="black" stroke-width="0.1" />
<line x1="8.000000" y1="5.000000" x2="10.500000" y2="7.500000" stroke="black" stroke-width="0.1" />
<line x1="5.500000" y1="109.000000" x2="10.500000" y2="109.000000" stroke="black" stroke-width="0.1" />
<line x1="8.000000" y1="109.000000" x2="5.500000" y2="106.500000" stroke="black" stroke-width="0.1" />
<line x1="8.000000" y1="109.000000" x2="10.500000" y2="106.500000" stroke="black" stroke-width="0.1" />
<text x="10.500000" y="57.000000" font-family="Arial" font-size="4" text-anchor="middle" dominant-baseline="middle" transform="rotate(90 10.500000 57.000000)" >104.0 mm</text>
<line x1="18.000000" y1="109.000000" x2="18.000000" y2="189.000000" stroke="black" stroke-width="0.1" />
<line x1="15.500000" y1="109.000000" x2="20.500000" y2="109.000000" stroke="black" stroke-width="0.1" />
<line x1="18.000000" y1="109.000000" x2="15.500000" y2="111.500000" stroke="black" stroke-width="0.1" />
<line x1="18.000000" y1="109.000000" x2="20.500000" y2="111.500000" stroke="black" stroke-width="0.1" />
<line x1="15.500000" y1="189.000000" x2="20.500000" y2="189.000000" stroke="black" stroke-width="0.1" />
<line x1="18.000000" y1="189.000000" x2="15.500000" y2="186.500000" stroke="black" stroke-width="0.1" />
<line x1="18.000000" y1="189.000000" x2="20.500000" y2="186.500000" stroke="black" stroke-width="0.1" />
<text x="20.500000" y="149.000000" font-family="Arial" font-size="4" text-anchor="middle" dominant-baseline="middle" transform="rotate(90 20.500000 149.000000)" >80.0 mm</text>
<line x1="124.000000" y1="63.000000" x2="164.000000" y2="63.000000" stroke="black" stroke-width="0.1" />
<line x1="124.000000" y1="60.500000" x2="124.000000" y2="65.500000" stroke="black" stroke-width="0.1" />
<line x1="124.000000" y1="63.000000" x2="126.500000" y2="65.500000" stroke="black" stroke-width="0.1" />
<line x1="124.000000" y1="63.000000" x2="126.500000" y2="60.500000" stroke="black" stroke-width="0.1" />
<line x1="164.000000" y1="60.500000" x2="164.000000" y2="65.500000" stroke="black" stroke-width="0.1" />
<line x1="164.000000" y1="63.000000" x2="161.500000" y2="65.500000" stroke="black" stroke-width="0.1" />
<line x1="164.000000" y1="63.000000" x2="161.500000" y2="60.500000" stroke="black" stroke-width="0.1" />
<text x="149.000000" y="53.000000" font-family="Arial" font-size="4" text-anchor="middle" dominant-baseline="middle" transform="rotate(90 149.000000 53.000000)" >40.0 mm</text>
<line x1="124.000000" y1="128.000000" x2="164.000000" y2="128.000000" stroke="black" stroke-width="0.1" />
<line x1="124.000000" y1="125.500000" x2="124.000000" y2="130.500000" stroke="black" stroke-width="0.1" />
<line x1="124.000000" y1="128.000000" x2="126.500000" y2="130.500000" stroke="black" stroke-width="0.1" />
<line x1="124.000000" y1="128.000000" x2="126.500000" y2="125.500000" stroke="black" stroke-width="0.1" />
<line x1="164.000000" y1="125.500000" x2="164.000000" y2="130.500000" stroke="black" stroke-width="0.1" />
<line x1="164.000000" y1="128.000000" x2="161.500000" y2="130.500000" stroke="black" stroke-width="0.1" />
<line x1="164.000000" y1="128.000000" x2="161.500000" y2="125.500000" stroke="black" stroke-width="0.1" />
<text x="149.000000" y="118.000000" font-family="Arial" font-size="4" text-anchor="middle" dominant-baseline="middle" transform="rotate(90 149.000000 118.000000)" >40.0 mm</text>
<line x1="33.000000" y1="119.000000" x2="63.000000" y2="119.000000" stroke="black" stroke-width="0.1" />
<line x1="33.000000" y1="116.500000" x2="33.000000" y2="121.500000" stroke="black" stroke-width="0.1" />
<line x1="33.000000" y1="119.000000" x2="35.500000" y2="121.500000" stroke="black" stroke-width="0.1" />
<line x1="33.000000" y1="119.000000" x2="35.500000" y2="116.500000" stroke="black" stroke-width="0.1" />
<line x1="63.000000" y1="116.500000" x2="63.000000" y2="121.500000" stroke="black" stroke-width="0.1" />
<line x1="63.000000" y1="119.000000" x2="60.500000" y2="121.500000" stroke="black" stroke-width="0.1" />
<line x1="63.000000" y1="119.000000" x2="60.500000" y2="116.500000" stroke="black" stroke-width="0.1" />
<text x="53.000000" y="129.000000" font-family="Arial" font-size="4" text-anchor="middle" dominant-baseline="middle" transform="rotate(90 53.000000 129.000000)" >30.0 mm</text>
<line x1="33.000000" y1="199.000000" x2="63.000000" y2="199.000000" stroke="black" stroke-width="0.1" />
<line x1="33.000000" y1="196.500000" x2="33.000000" y2="201.500000" stroke="black" stroke-width="0.1" />
<line x1="33.000000" y1="199.000000" x2="35.500000" y2="201.500000" stroke="black" stroke-width="0.1" />
<line x1="33.000000" y1="199.000000" x2="35.500000" y2="196.500000" stroke="black" stroke-width="0.1" />
<line x1="63.000000" y1="196.500000" x2="63.000000" y2="201.500000" stroke="black" stroke-width="0.1" />
<line x1="63.000000" y1="199.000000" x2="60.500000" y2="201.500000" stroke="black" stroke-width="0.1" />
<line x1="63.000000" y1="199.000000" x2="60.500000" y2="196.500000" stroke="black" stroke-width="0.1" />
<text x="53.000000" y="209.000000" font-family="Arial" font-size="4" text-anchor="middle" dominant-baseline="middle" transform="rotate(90 53.000000 209.000000)" >30.0 mm</text>
<circle cx="124.000000" cy="73.000000" r="2.500000" fill="none" stroke="black" stroke-width="0.1" />
<circle cx="124.000000" cy="73.000000" r="0.250000" fill="none" stroke="black" stroke-width="0.1" />
<line x1="123.750000" y1="73.000000" x2="123.500000" y2="73.000000" stroke="black" stroke-width="0.1" />
<line x1="124.250000" y1="73.000000" x2="124.500000" y2="73.000000" stroke="black" stroke-width="0.1" />
<line x1="124.000000" y1="72.750000" x2="124.000000" y2="72.500000" stroke="black" stroke-width="0.1" />
<line x1="124.000000" y1="73.250000" x2="124.000000" y2="73.500000" stroke="black" stroke-width="0.1" />
<line x1="121.000000" y1="73.000000" x2="122.000000" y2="73.000000" stroke="black" stroke-width="0.1" />
<line x1="126.000000" y1="73.000000" x2="127.000000" y2="73.000000" stroke="black" stroke-width="0.1" />
<line x1="124.000000" y1="70.000000" x2="124.000000" y2="71.000000" stroke="black" stroke-width="0.1" />
<line x1="124.000000" y1="75.000000" x2="124.000000" y2="76.000000" stroke="black" stroke-width="0.1" />
<circle cx="164.000000" cy="73.000000" r="2.500000" fill="none" stroke="black" stroke-width="0.1" />
<circle cx="164.000000" cy="73.000000" r="0.250000" fill="none" stroke="black" stroke-width="0.1" />
<line x1="163.750000" y1="73.000000" x2="163.500000" y2="73.000000" stroke="black" stroke-width="0.1" />
<line x1="164.250000" y1="73.000000" x2="164.500000" y2="73.000000" stroke="black" stroke-width="0.1" />
<line x1="164.000000" y1="72.750000" x2="164.000000" y2="72.500000" stroke="black" stroke-width="0.1" />
<line x1="164.000000" y1="73.250000" x2="164.000000" y2="73.500000" stroke="black" stroke-width="0.1" />
<line x1="161.000000" y1="73.000000" x2="162.000000" y2="73.000000" stroke="black" stroke-width="0.1" />
<line x1="166.000000" y1="73.000000" x2="167.000000" y2="73.000000" stroke="black" stroke-width="0.1" />
<line x1="164.000000" y1="70.000000" x2="164.000000" y2="71.000000" stroke="black" stroke-width="0.1" />
<line x1="164.000000" y1="75.000000" x2="164.000000" y2="76.000000" stroke="black" stroke-width="0.1" />
<circle cx="124.000000" cy="138.000000" r="2.500000" fill="none" stroke="black" stroke-width="0.1" />
<circle cx="124.000000" cy="138.000000" r="0.250000" fill="none" stroke="black" stroke-width="0.1" />
<line x1="123.750000" y1="138.000000" x2="123.500000" y2="138.000000" stroke="black" stroke-width="0.1" />
<line x1="124.250000" y1="138.000000" x2="124.500000" y2="138.000000" stroke="black" stroke-width="0.1" />
<line x1="124.000000" y1="137.750000" x2="124.000000" y2="137.500000" stroke="black" stroke-width="0.1" />
<line x1="124.000000" y1="138.250000" x2="124.000000" y2="138.500000" stroke="black" stroke-width="0.1" />
<line x1="121.000000" y1="138.000000" x2="122.000000" y2="138.000000" stroke="black" stroke-width="0.1" />
<line x1="126.000000" y1="138.000000" x2="127.000000" y2="138.000000" stroke="black" stroke-width="0.1" />
<line x1="124.000000" y1="135.000000" x2="124.000000" y2="136.000000" stroke="black" stroke-width="0.1" />
<line x1="124.000000" y1="140.000000" x2="124.000000" y2="141.000000" stroke="black" stroke-width="0.1" />
<circle cx="164.000000" cy="138.000000" r="2.500000" fill="none" stroke="black" stroke-width="0.1" />
<circle cx="164.000000" cy="138.000000" r="0.250000" fill="none" stroke="black" stroke-width="0.1" />
<line x1="163.750000" y1="138.000000" x2="163.500000" y2="138.000000" stroke="black" stroke-width="0.1" />
<line x1="164.250000" y1="138.000000" x2="164.500000" y2="138.000000" stroke="black" stroke-width="0.1" />
<line x1="164.000000" y1="137.750000" x2="164.000000" y2="137.500000" stroke="black" stroke-width="0.1" />
<line x1="164.000000" y1="138.250000" x2="164.000000" y2="138.500000" stroke="black" stroke-width="0.1" />
<line x1="161.000000" y1="138.000000" x2="162.000000" y2="138.000000" stroke="black" stroke-width="0.1" />
<line x1="166.000000" y1="138.000000" x2="167.000000" y2="138.000000" stroke="black" stroke-width="0.1" />
<line x1="164.000000" y1="135.000000" x2="164.000000" y2="136.000000" stroke="black" stroke-width="0.1" />
<line x1="164.000000" y1="140.000000" x2="164.000000" y2="141.000000" stroke="black" stroke-width="0.1" />
<circle cx="33.000000" cy="109.000000" r="2.500000" fill="none" stroke="black" stroke-width="0.1" />
<circle cx="33.000000" cy="109.000000" r="0.250000" fill="none" stroke="black" stroke-width="0.1" />
<line x1="32.750000" y1="109.000000" x2="32.500000" y2="109.000000" stroke="black" stroke-width="0.1" />
<line x1="33.250000" y1="109.000000" x2="33.500000" y2="109.000000" stroke="black" stroke-width="0.1" />
<line x1="33.000000" y1="108.750000" x2="33.000000" y2="108.500000" stroke="black" stroke-width="0.1" />
<line x1="33.000000" y1="109.250000" x2="33.000000" y2="109.500000" stroke="black" stroke-width="0.1" />
<line x1="30.000000" y1="109.000000" x2="31.000000" y2="109.000000" stroke="black" stroke-width="0.1" />
<line x1="35.000000" y1="109.000000" x2="36.000000" y2="109.000000" stroke="black" stroke-width="0.1" />
<line x1="33.000000" y1="106.000000" x2="33.000000" y2="107.000000" stroke="black" stroke-width="0.1" />
<line x1="33.000000" y1="111.000000" x2="33.000000" y2="112.000000" stroke="black" stroke-width="0.1" />
<circle cx="63.000000" cy="109.000000" r="2.500000" fill="none" stroke="black" stroke-width="0.1" />
<circle cx="63.000000" cy="109.000000" r="0.250000" fill="none" stroke="black" stroke-width="0.1" />
<line x1="62.750000" y1="109.000000" x2="62.500000" y2="109.000000" stroke="black" stroke-width="0.1" />
<line x1="63.250000" y1="109.000000" x2="63.500000" y2="109.000000" stroke="black" stroke-width="0.1" />
<line x1="63.000000" y1="108.750000" x2="63.000000" y2="108.500000" stroke="black" stroke-width="0.1" />
<line x1="63.000000" y1="109.250000" x2="63.000000" y2="109.500000" stroke="black" stroke-width="0.1" />
<line x1="60.000000" y1="109.000000" x2="61.000000" y2="109.000000" stroke="black" stroke-width="0.1" />
<line x1="65.000000" y1="109.000000" x2="66.000000" y2="109.000000" stroke="black" stroke-width="0.1" />
<line x1="63.000000" y1="106.000000" x2="63.000000" y2="107.000000" stroke="black" stroke-width="0.1" />
<line x1="63.000000" y1="111.000000" x2="63.000000" y2="112.000000" stroke="black" stroke-width="0.1" />
<circle cx="33.000000" cy="189.000000" r="2.500000" fill="none" stroke="black" stroke-width="0.1" />
<circle cx="33.000000" cy="189.000000" r="0.250000" fill="none" stroke="black" stroke-width="0.1" />
<line x1="32.750000" y1="189.000000" x2="32.500000" y2="189.000000" stroke="black" stroke-width="0.1" />
<line x1="33.250000" y1="189.000000" x2="33.500000" y2="189.000000" stroke="black" stroke-width="0.1" />
<line x1="33.000000" y1="188.750000" x2="33.000000" y2="188.500000" stroke="black" stroke-width="0.1" />
<line x1="33.000000" y1="189.250000" x2="33.000000" y2="189.500000" stroke="black" stroke-width="0.1" />
<line x1="30.000000" y1="189.000000" x2="31.000000" y2="189.000000" stroke="black" stroke-width="0.1" />
<line x1="35.000000" y1="189.000000" x2="36.000000" y2="189.000000" stroke="black" stroke-width="0.1" />
<line x1="33.000000" y1="186.000000" x2="33.000000" y2="187.000000" stroke="black" stroke-width="0.1" />
<line x1="33.000000" y1="191.000000" x2="33.000000" y2="192.000000" stroke="black" stroke-width="0.1" />
<circle cx="63.000000" cy="189.000000" r="2.500000" fill="none" stroke="black" stroke-width="0.1" />
<circle cx="63.000000" cy="189.000000" r="0.250000" fill="none" stroke="black" stroke-width="0.1" />
<line x1="62.750000" y1="189.000000" x2="62.500000" y2="189.000000" stroke="black" stroke-width="0.1" />
<line x1="63.250000" y1="189.000000" x2="63.500000" y2="189.000000" stroke="black" stroke-width="0.1" />
<line x1="63.000000" y1="188.750000" x2="63.000000" y2="188.500000" stroke="black" stroke-width="0.1" />
<line x1="63.000000" y1="189.250000" x2="63.000000" y2="189.500000" stroke="black" stroke-width="0.1" />
<line x1="60.000000" y1="189.000000" x2="61.000000" y2="189.000000" stroke="black" stroke-width="0.1" />
<line x1="65.000000" y1="189.000000" x2="66.000000" y2="189.000000" stroke="black" stroke-width="0.1" />
<line x1="63.000000" y1="186.000000" x2="63.000000" y2="187.000000" stroke="black" stroke-width="0.1" />
<line x1="63.000000" y1="191.000000" x2="63.000000" y2="192.000000" stroke="black" stroke-width="0.1" />
<text x="73.000000" y="25.000000" font-family="Arial" font-size="4" text-anchor="middle" dominant-baseline="middle" transform="rotate(90 73.000000 25.000000)" >Mid Sole Mount Line</text>
<text x="169.000000" y="235.000000" font-family="Arial" font-size="4" text-anchor="middle" dominant-baseline="middle" transform="rotate(90 169.000000 235.000000)" >Mid Sole Mount Line</text>
<text x="43.000000" y="235.000000" font-family="Arial" font-size="4" text-anchor="middle" dominant-baseline="middle" transform="rotate(90 43.000000 235.000000)" >Ski Center Line</text>
<text x="139.000000" y="25.000000" font-family="Arial" font-size="4" text-anchor="middle" dominant-baseline="middle" transform="rotate(90 139.000000 25.000000)" >Ski Center Line</text>
</svg>