<?xml version="1.0"?>
<!DOCTYPE svg PUBLIC "-//W3C//DTD SVG 1.1//EN"
"http://www.w3.org/Graphics/SVG/1.1/DTD/svg11.dtd">
<svg xmlns="http://www.w3.org/2000/svg" version="1.2" width="190.0mm" height="259.0mm" viewBox="0 0 190.0 259.0" >
  <line x1="95.0" y1="0.0" x2="95.0" y2="259.0" stroke="black" stroke-width="0.1" stroke-dasharray="4 4" />
  <line x1="47.5" y1="0.0" x2="47.5" y2="259.0" stroke="black" stroke-width="0.1" />
  <line x1="142.5" y1="0.0" x2="142.5" y2="259.0" stroke="black" stroke-width="0.1" />
  <line x1="95.0" y1="255.0" x2="180.0" y2="255.0" stroke="black" stroke-width="0.1" />
  <line x1="10.0" y1="5.0" x2="95.0" y2="5.0" stroke="black" stroke-width="0.1" />
  <circle cx="160.0" cy="103.5" r="2.5" fill="none" stroke="black" stroke-width="0.1" />
  <line x1="159.5" y1="103.5" x2="160.5" y2="103.5" stroke="black" stroke-width="0.1" />
  <line x1="160.0" y1="103.0" x2="160.0" y2="104.0" stroke="black" stroke-width="0.1" />
  <line x1="157.0" y1="103.5" x2="158.0" y2="103.5" stroke="black" stroke-width="0.1" />
  <line x1="162.0" y1="103.5" x2="163.0" y2="103.5" stroke="black" stroke-width="0.1" />
  <line x1="160.0" y1="100.5" x2="160.0" y2="101.5" stroke="black" stroke-width="0.1" />
  <line x1="160.0" y1="105.5" x2="160.0" y2="106.5" stroke="black" stroke-width="0.1" />
  <circle cx="125.0" cy="103.5" r="2.5" fill="none" stroke="black" stroke-width="0.1" />
  <line x1="124.5" y1="103.5" x2="125.5" y2="103.5" stroke="black" stroke-width="0.1" />
  <line x1="125.0" y1="103.0" x2="125.0" y2="104.0" stroke="black" stroke-width="0.1" />
  <line x1="122.0" y1="103.5" x2="123.0" y2="103.5" stroke="black" stroke-width="0.1" />
  <line x1="127.0" y1="103.5" x2="128.0" y2="103.5" stroke="black" stroke-width="0.1" />
  <line x1="125.0" y1="100.5" x2="125.0" y2="101.5" stroke="black" stroke-width="0.1" />
  <line x1="125.0" y1="105.5" x2="125.0" y2="106.5" stroke="black" stroke-width="0.1" />
  <circle cx="163.5" cy="62.0" r="2.5" fill="none" stroke="black" stroke-width="0.1" />
  <line x1="163.0" y1="62.0" x2="164.0" y2="62.0" stroke="black" stroke-width="0.1" />
  <line x1="163.5" y1="61.5" x2="163.5" y2="62.5" stroke="black" stroke-width="0.1" />
  <line x1="160.5" y1="62.0" x2="161.5" y2="62.0" stroke="black" stroke-width="0.1" />
  <line x1="165.5" y1="62.0" x2="166.5" y2="62.0" stroke="black" stroke-width="0.1" />
  <line x1="163.5" y1="59.0" x2="163.5" y2="60.0" stroke="black" stroke-width="0.1" />
  <line x1="163.5" y1="64.0" x2="163.5" y2="65.0" stroke="black" stroke-width="0.1" />
  <circle cx="121.5" cy="62.0" r="2.5" fill="none" stroke="black" stroke-width="0.1" />
  <line x1="121.0" y1="62.0" x2="122.0" y2="62.0" stroke="black" stroke-width="0.1" />
  <line x1="121.5" y1="61.5" x2="121.5" y2="62.5" stroke="black" stroke-width="0.1" />
  <line x1="118.5" y1="62.0" x2="119.5" y2="62.0" stroke="black" stroke-width="0.1" />
  <line x1="123.5" y1="62.0" x2="124.5" y2="62.0" stroke="black" stroke-width="0.1" />
  <line x1="121.5" y1="59.0" x2="121.5" y2="60.0" stroke="black" stroke-width="0.1" />
  <line x1="121.5" y1="64.0" x2="121.5" y2="65.0" stroke="black" stroke-width="0.1" />
  <circle cx="68.75" cy="114.0" r="2.5" fill="none" stroke="black" stroke-width="0.1" />
  <line x1="68.25" y1="114.0" x2="69.25" y2="114.0" stroke="black" stroke-width="0.1" />
  <line x1="68.75" y1="113.5" x2="68.75" y2="114.5" stroke="black" stroke-width="0.1" />
  <line x1="65.75" y1="114.0" x2="66.75" y2="114.0" stroke="black" stroke-width="0.1" />
  <line x1="70.75" y1="114.0" x2="71.75" y2="114.0" stroke="black" stroke-width="0.1" />
  <line x1="68.75" y1="111.0" x2="68.75" y2="112.0" stroke="black" stroke-width="0.1" />
  <line x1="68.75" y1="116.0" x2="68.75" y2="117.0" stroke="black" stroke-width="0.1" />
  <circle cx="26.25" cy="114.0" r="2.5" fill="none" stroke="black" stroke-width="0.1" />
  <line x1="25.75" y1="114.0" x2="26.75" y2="114.0" stroke="black" stroke-width="0.1" />
  <line x1="26.25" y1="113.5" x2="26.25" y2="114.5" stroke="black" stroke-width="0.1" />
  <line x1="23.25" y1="114.0" x2="24.25" y2="114.0" stroke="black" stroke-width="0.1" />
  <line x1="28.25" y1="114.0" x2="29.25" y2="114.0" stroke="black" stroke-width="0.1" />
  <line x1="26.25" y1="111.0" x2="26.25" y2="112.0" stroke="black" stroke-width="0.1" />
  <line x1="26.25" y1="116.0" x2="26.25" y2="117.0" stroke="black" stroke-width="0.1" />
  <circle cx="68.75" cy="153.0" r="2.5" fill="none" stroke="black" stroke-width="0.1" />
  <line x1="68.25" y1="153.0" x2="69.25" y2="153.0" stroke="black" stroke-width="0.1" />
  <line x1="68.75" y1="152.5" x2="68.75" y2="153.5" stroke="black" stroke-width="0.1" />
  <line x1="65.75" y1="153.0" x2="66.75" y2="153.0" stroke="black" stroke-width="0.1" />
  <line x1="70.75" y1="153.0" x2="71.75" y2="153.0" stroke="black" stroke-width="0.1" />
  <line x1="68.75" y1="150.0" x2="68.75" y2="151.0" stroke="black" stroke-width="0.1" />
  <line x1="68.75" y1="155.0" x2="68.75" y2="156.0" stroke="black" stroke-width="0.1" />
  <circle cx="26.25" cy="153.0" r="2.5" fill="none" stroke="black" stroke-width="0.1" />
  <line x1="25.75" y1="153.0" x2="26.75" y2="153.0" stroke="black" stroke-width="0.1" />
  <line x1="26.25" y1="152.5" x2="26.25" y2="153.5" stroke="black" stroke-width="0.1" />
  <line x1="23.25" y1="153.0" x2="24.25" y2="153.0" stroke="black" stroke-width="0.1" />
  <line x1="28.25" y1="153.0" x2="29.25" y2="153.0" stroke="black" stroke-width="0.1" />
  <line x1="26.25" y1="150.0" x2="26.25" y2="151.0" stroke="black" stroke-width="0.1" />
  <line x1="26.25" y1="155.0" x2="26.25" y2="156.0" stroke="black" stroke-width="0.1" />
</svg>
