<?xml version="1.0"?>
<!DOCTYPE svg PUBLIC "-//W3C//DTD SVG 1.1//EN"
"http://www.w3.org/Graphics/SVG/1.1/DTD/svg11.dtd">
<svg xmlns="http://www.w3.org/2000/svg" version="1.2" width="192.000000mm" height="259.000000mm" viewBox="0 0 192.000000 259.000000" style="background-color:white" >
<line x1="48.000000" y1="0.000000" x2="48.000000" y2="259.000000" stroke="black" stroke-width="0.1" />
<line x1="144.000000" y1="0.000000" x2="144.000000" y2="259.000000" stroke="black" stroke-width="0.1" />
<line x1="104.000000" y1="255.000000" x2="184.000000" y2="255.000000" stroke="black" stroke-width="0.1" />
<line x1="8.000000" y1="5.000000" x2="88.000000" y2="5.000000" stroke="black" stroke-width="0.1" />
<line x1="96.000000" y1="0.000000" x2="96.000000" y2="259.000000" stroke="black" stroke-width="0.1" stroke-dasharray="2 2" />
<line x1="0.000000" y1="259.000000" x2="96.000000" y2="259.000000" stroke="black" stroke-width="0.1" stroke-dasharray="2 2" />
<line x1="96.000000" y1="0.000000" x2="192.000000" y2="0.000000" stroke="black" stroke-width="0.1" stroke-dasharray="2 2" />
<line x1="48.000000" y1="7.000000" x2="41.000000" y2="0.000000" stroke="black" stroke-width="0.1" stroke-dasharray="2 2" />
<line x1="48.000000" y1="7.000000" x2="55.000000" y2="0.000000" stroke="black" stroke-width="0.1" stroke-dasharray="2 2" />
<line x1="144.000000" y1="253.000000" x2="138.000000" y2="259.000000" stroke="black" stroke-width="0.1" stroke-dasharray="2 2" />
<line x1="144.000000" y1="253.000000" x2="150.000000" y2="259.000000" stroke="black" stroke-width="0.1" stroke-dasharray="2 2" />
<text x="83.000000" y="130.000000" font-family="Arial" font-size="8" text-anchor="middle" dominant-baseline="middle" transform="rotate(90 83.000000 130.000000)" >Bishop BMF NTN 288, Heel</text>
<text x="179.000000" y="130.000000" font-family="Arial" font-size="8" text-anchor="middle" dominant-baseline="middle" transform="rotate(90 179.000000 130.000000)" >Bishop BMF NTN 288, Toe</text>
<line x1="104.000000" y1="212.000000" x2="104.000000" y2="255.000000" stroke="black" stroke-width="0.1" />
<line x1="101.500000" y1="212.000000" x2="106.500000" y2="212.000000" stroke="black" stroke-width="0.1" />
<line x1="104.000000" y1="212.000000" x2="101.500000" y2="214.500000" stroke="black" stroke-width="0.1" />
<line x1="104.000000" y1="212.000000" x2="106.500000" y2="214.500000" stroke="black" stroke-width="0.1" />
<line x1="101.500000" y1="255.000000" x2="106.500000" y2="255.000000" stroke="black" stroke-width="0.1" />
<line x1="104.000000" y1="255.000000" x2="101.500000" y2="252.500000" stroke="black" stroke-width="0.1" />
<line x1="104.000000" y1="255.000000" x2="106.500000" y2="252.500000" stroke="black" stroke-width="0.1" />
<text x="106.500000" y="233.500000" font-family="Arial" font-size="4" text-anchor="middle" dominant-baseline="middle" transform="rotate(90 106.500000 233.500000)" >43.0 mm</text>
<line x1="114.000000" y1="212.000000" x2="114.000000" y2="212.000000" stroke="black" stroke-width="0.1" />
<line x1="111.500000" y1="212.000000" x2="116.500000" y2="212.000000" stroke="black" stroke-width="0.1" />
<line x1="114.000000" y1="212.000000" x2="111.500000" y2="214.500000" stroke="black" stroke-width="0.1" />
<line x1="114.000000" y1="212.000000" x2="116.500000" y2="214.500000" stroke="black" stroke-width="0.1" />
<line x1="111.500000" y1="212.000000" x2="116.500000" y2="212.000000" stroke="black" stroke-width="0.1" />
<line x1="114.000000" y1="212.000000" x2="111.500000" y2="209.500000" stroke="black" stroke-width="0.1" />
<line x1="114.000000" y1="212.000000" x2="116.500000" y2="209.500000" stroke="black" stroke-width="0.1" />
<text x="116.500000" y="212.000000" font-family="Arial" font-size="4" text-anchor="middle" dominant-baseline="middle" transform="rotate(90 116.500000 212.000000)" >0.0 mm</text>
<line x1="104.000000" y1="212.000000" x2="104.000000" y2="212.000000" stroke="black" stroke-width="0.1" />
<line x1="101.500000" y1="212.000000" x2="106.500000" y2="212.000000" stroke="black" stroke-width="0.1" />
<line x1="104.000000" y1="212.000000" x2="101.500000" y2="214.500000" stroke="black" stroke-width="0.1" />
<line x1="104.000000" y1="212.000000" x2="106.500000" y2="214.500000" stroke="black" stroke-width="0.1" />
<line x1="101.500000" y1="212.000000" x2="106.500000" y2="212.000000" stroke="black" stroke-width="0.1" />
<line x1="104.000000" y1="212.000000" x2="101.500000" y2="209.500000" stroke="black" stroke-width="0.1" />
<line x1="104.000000" y1="212.000000" x2="106.500000" y2="209.500000" stroke="black" stroke-width="0.1" />
<text x="106.500000" y="212.000000" font-family="Arial" font-size="4" text-anchor="middle" dominant-baseline="middle" transform="rotate(90 106.500000 212.000000)" >0.0 mm</text>
<line x1="114.000000" y1="174.000000" x2="114.000000" y2="212.000000" stroke="black" stroke-width="0.1" />
<line x1="111.500000" y1="174.000000" x2="116.500000" y2="174.000000" stroke="black" stroke-width="0.1" />
<line x1="114.000000" y1="174.000000" x2="111.500000" y2="176.500000" stroke="black" stroke-width="0.1" />
<line x1="114.000000" y1="174.000000" x2="116.500000" y2="176.500000" stroke="black" stroke-width="0.1" />
<line x1="111.500000" y1="212.000000" x2="116.500000" y2="212.000000" stroke="black" stroke-width="0.1" />
<line x1="114.000000" y1="212.000000" x2="111.500000" y2="209.500000" stroke="black" stroke-width="0.1" />
<line x1="114.000000" y1="212.000000" x2="116.500000" y2="209.500000" stroke="black" stroke-width="0.1" />
<text x="116.500000" y="193.000000" font-family="Arial" font-size="4" text-anchor="middle" dominant-baseline="middle" transform="rotate(90 116.500000 193.000000)" >38.0 mm</text>
<line x1="104.000000" y1="136.000000" x2="104.000000" y2="174.000000" stroke="black" stroke-width="0.1" />
<line x1="101.500000" y1="136.000000" x2="106.500000" y2="136.000000" stroke="black" stroke-width="0.1" />
<line x1="104.000000" y1="136.000000" x2="101.500000" y2="138.500000" stroke="black" stroke-width="0.1" />
<line x1="104.000000" y1="136.000000" x2="106.500000" y2="138.500000" stroke="black" stroke-width="0.1" />
<line x1="101.500000" y1="174.000000" x2="106.500000" y2="174.000000" stroke="black" stroke-width="0.1" />
<line x1="104.000000" y1="174.000000" x2="101.500000" y2="171.500000" stroke="black" stroke-width="0.1" />
<line x1="104.000000" y1="174.000000" x2="106.500000" y2="171.500000" stroke="black" stroke-width="0.1" />
<text x="106.500000" y="155.000000" font-family="Arial" font-size="4" text-anchor="middle" dominant-baseline="middle" transform="rotate(90 106.500000 155.000000)" >38.0 mm</text>
<line x1="8.000000" y1="5.000000" x2="8.000000" y2="105.000000" stroke="black" stroke-width="0.1" />
<line x1="5.500000" y1="5.000000" x2="10.500000" y2="5.000000" stroke="black" stroke-width="0.1" />
<line x1="8.000000" y1="5.000000" x2="5.500000" y2="7.500000" stroke="black" stroke-width="0.1" />
<line x1="8.000000" y1="5.000000" x2="10.500000" y2="7.500000" stroke="black" stroke-width="0.1" />
<line x1="5.500000" y1="105.000000" x2="10.500000" y2="105.000000" stroke="black" stroke-width="0.1" />
<line x1="8.000000" y1="105.000000" x2="5.500000" y2="102.500000" stroke="black" stroke-width="0.1" />
<line x1="8.000000" y1="105.000000" x2="10.500000" y2="102.500000" stroke="black" stroke-width="0.1" />
<text x="10.500000" y="55.000000" font-family="Arial" font-size="4" text-anchor="middle" dominant-baseline="middle" transform="rotate(90 10.500000 55.000000)" >100.0 mm</text>
<line x1="18.000000" y1="105.000000" x2="18.000000" y2="143.000000" stroke="black" stroke-width="0.1" />
<line x1="15.500000" y1="105.000000" x2="20.500000" y2="105.000000" stroke="black" stroke-width="0.1" />
<line x1="18.000000" y1="105.000000" x2="15.500000" y2="107.500000" stroke="black" stroke-width="0.1" />
<line x1="18.000000" y1="105.000000" x2="20.500000" y2="107.500000" stroke="black" stroke-width="0.1" />
<line x1="15.500000" y1="143.000000" x2="20.500000" y2="143.000000" stroke="black" stroke-width="0.1" />
<line x1="18.000000" y1="143.000000" x2="15.500000" y2="140.500000" stroke="black" stroke-width="0.1" />
<line x1="18.000000" y1="143.000000" x2="20.500000" y2="140.500000" stroke="black" stroke-width="0.1" />
<text x="20.500000" y="124.000000" font-family="Arial" font-size="4" text-anchor="middle" dominant-baseline="middle" transform="rotate(90 20.500000 124.000000)" >38.0 mm</text>
<line x1="125.000000" y1="126.000000" x2="163.000000" y2="126.000000" stroke="black" stroke-width="0.1" />
<line x1="125.000000" y1="123.500000" x2="125.000000" y2="128.500000" stroke="black" stroke-width="0.1" />
<line x1="125.000000" y1="126.000000" x2="127.500000" y2="128.500000" stroke="black" stroke-width="0.1" />
<line x1="125.000000" y1="126.000000" x2="127.500000" y2="123.500000" stroke="black" stroke-width="0.1" />
<line x1="163.000000" y1="123.500000" x2="163.000000" y2="128.500000" stroke="black" stroke-width="0.1" />
<line x1="163.000000" y1="126.000000" x2="160.500000" y2="128.500000" stroke="black" stroke-width="0.1" />
<line x1="163.000000" y1="126.000000" x2="160.500000" y2="123.500000" stroke="black" stroke-width="0.1" />
<text x="149.000000" y="116.000000" font-family="Arial" font-size="4" text-anchor="middle" dominant-baseline="middle" transform="rotate(90 149.000000 116.000000)" >38.0 mm</text>
<line x1="125.000000" y1="164.000000" x2="163.000000" y2="164.000000" stroke="black" stroke-width="0.1" />
<line x1="125.000000" y1="161.500000" x2="125.000000" y2="166.500000" stroke="black" stroke-width="0.1" />
<line x1="125.000000" y1="164.000000" x2="127.500000" y2="166.500000" stroke="black" stroke-width="0.1" />
<line x1="125.000000" y1="164.000000" x2="127.500000" y2="161.500000" stroke="black" stroke-width="0.1" />
<line x1="163.000000" y1="161.500000" x2="163.000000" y2="166.500000" stroke="black" stroke-width="0.1" />
<line x1="163.000000" y1="164.000000" x2="160.500000" y2="166.500000" stroke="black" stroke-width="0.1" />
<line x1="163.000000" y1="164.000000" x2="160.500000" y2="161.500000" stroke="black" stroke-width="0.1" />
<text x="149.000000" y="154.000000" font-family="Arial" font-size="4" text-anchor="middle" dominant-baseline="middle" transform="rotate(90 149.000000 154.000000)" >38.0 mm</text>
<line x1="125.000000" y1="202.000000" x2="163.000000" y2="202.000000" stroke="black" stroke-width="0.1" />
<line x1="125.000000" y1="199.500000" x2="125.000000" y2="204.500000" stroke="black" stroke-width="0.1" />
<line x1="125.000000" y1="202.000000" x2="127.500000" y2="204.500000" stroke="black" stroke-width="0.1" />
<line x1="125.000000" y1="202.000000" x2="127.500000" y2="199.500000" stroke="black" stroke-width="0.1" />
<line x1="163.000000" y1="199.500000" x2="163.000000" y2="204.500000" stroke="black" stroke-width="0.1" />
<line x1="163.000000" y1="202.000000" x2="160.500000" y2="204.500000" stroke="black" stroke-width="0.1" />
<line x1="163.000000" y1="202.000000" x2="160.500000" y2="199.500000" stroke="black" stroke-width="0.1" />
<text x="149.000000" y="192.000000" font-family="Arial" font-size="4" text-anchor="middle" dominant-baseline="middle" transform="rotate(90 149.000000 192.000000)" >38.0 mm</text>
<line x1="125.000000" y1="202.000000" x2="163.000000" y2="202.000000" stroke="black" stroke-width="0.1" />
<line x1="125.000000" y1="199.500000" x2="125.000000" y2="204.500000" stroke="black" stroke-width="0.1" />
<line x1="125.000000" y1="202.000000" x2="127.500000" y2="204.500000" stroke="black" stroke-width="0.1" />
<line x1="125.000000" y1="202.000000" x2="127.500000" y2="199.500000" stroke="black" stroke-width="0.1" />
<line x1="163.000000" y1="199.500000" x2="163.000000" y2="204.500000" stroke="black" stroke-width="0.1" />
<line x1="163.000000" y1="202.000000" x2="160.500000" y2="204.500000" stroke="black" stroke-width="0.1" />
<line x1="163.000000" y1="202.000000" x2="160.500000" y2="199.500000" stroke="black" stroke-width="0.1" />
<text x="149.000000" y="192.000000" font-family="Arial" font-size="4" text-anchor="middle" dominant-baseline="middle" transform="rotate(90 149.000000 192.000000)" >38.0 mm</text>
<circle cx="125.000000" cy="136.000000" r="2.500000" fill="none" stroke="black" stroke-width="0.1" />
<circle cx="125.000000" cy="136.000000" r="0.250000" fill="none" stroke="black" stroke-width="0.1" />
<line x1="124.750000" y1="136.000000" x2="124.500000" y2="136.000000" stroke="black" stroke-width="0.1" />
<line x1="125.250000" y1="136.000000" x2="125.500000" y2="136.000000" stroke="black" stroke-width="0.1" />
<line x1="125.000000" y1="135.750000" x2="125.000000" y2="135.500000" stroke="black" stroke-width="0.1" />
<line x1="125.000000" y1="136.250000" x2="125.000000" y2="136.500000" stroke="black" stroke-width="0.1" />
<line x1="122.000000" y1="136.000000" x2="123.000000" y2="136.000000" stroke="black" stroke-width="0.1" />
<line x1="127.000000" y1="136.000000" x2="128.000000" y2="136.000000" stroke="black" stroke-width="0.1" />
<line x1="125.000000" y1="133.000000" x2="125.000000" y2="134.000000" stroke="black" stroke-width="0.1" />
<line x1="125.000000" y1="138.000000" x2="125.000000" y2="139.000000" stroke="black" stroke-width="0.1" />
<circle cx="163.000000" cy="136.000000" r="2.500000" fill="none" stroke="black" stroke-width="0.1" />
<circle cx="163.000000" cy="136.000000" r="0.250000" fill="none" stroke="black" stroke-width="0.1" />
<line x1="162.750000" y1="136.000000" x2="162.500000" y2="136.000000" stroke="black" stroke-width="0.1" />
<line x1="163.250000" y1="136.000000" x2="163.500000" y2="136.000000" stroke="black" stroke-width="0.1" />
<line x1="163.000000" y1="135.750000" x2="163.000000" y2="135.500000" stroke="black" stroke-width="0.1" />
<line x1="163.000000" y1="136.250000" x2="163.000000" y2="136.500000" stroke="black" stroke-width="0.1" />
<line x1="160.000000" y1="136.000000" x2="161.000000" y2="136.000000" stroke="black" stroke-width="0.1" />
<line x1="165.000000" y1="136.000000" x2="166.000000" y2="136.000000" stroke="black" stroke-width="0.1" />
<line x1="163.000000" y1="133.000000" x2="163.000000" y2="134.000000" stroke="black" stroke-width="0.1" />
<line x1="163.000000" y1="138.000000" x2="163.000000" y2="139.000000" stroke="black" stroke-width="0.1" />
<circle cx="125.000000" cy="174.000000" r="2.500000" fill="none" stroke="black" stroke-width="0.1" />
<circle cx="125.000000" cy="174.000000" r="0.250000" fill="none" stroke="black" stroke-width="0.1" />
<line x1="124.750000" y1="174.000000" x2="124.500000" y2="174.000000" stroke="black" stroke-width="0.1" />
<line x1="125.250000" y1="174.000000" x2="125.500000" y2="174.000000" stroke="black" stroke-width="0.1" />
<line x1="125.000000" y1="173.750000" x2="125.000000" y2="173.500000" stroke="black" stroke-width="0.1" />
<line x1="125.000000" y1="174.250000" x2="125.000000" y2="174.500000" stroke="black" stroke-width="0.1" />
<line x1="122.000000" y1="174.000000" x2="123.000000" y2="174.000000" stroke="black" stroke-width="0.1" />
<line x1="127.000000" y1="174.000000" x2="128.000000" y2="174.000000" stroke="black" stroke-width="0.1" />
<line x1="125.000000" y1="171.000000" x2="125.000000" y2="172.000000" stroke="black" stroke-width="0.1" />
<line x1="125.000000" y1="176.000000" x2="125.000000" y2="177.000000" stroke="black" stroke-width="0.1" />
<circle cx="163.000000" cy="174.000000" r="2.500000" fill="none" stroke="black" stroke-width="0.1" />
<circle cx="163.000000" cy="174.000000" r="0.250000" fill="none" stroke="black" stroke-width="0.1" />
<line x1="162.750000" y1="174.000000" x2="162.500000" y2="174.000000" stroke="black" stroke-width="0.1" />
<line x1="163.250000" y1="174.000000" x2="163.500000" y2="174.000000" stroke="black" stroke-width="0.1" />
<line x1="163.000000" y1="173.750000" x2="163.000000" y2="173.500000" stroke="black" stroke-width="0.1" />
<line x1="163.000000" y1="174.250000" x2="163.000000" y2="174.500000" stroke="black" stroke-width="0.1" />
<line x1="160.000000" y1="174.000000" x2="161.000000" y2="174.000000" stroke="black" stroke-width="0.1" />
<line x1="165.000000" y1="174.000000" x2="166.000000" y2="174.000000" stroke="black" stroke-width="0.1" />
<line x1="163.000000" y1="171.000000" x2="163.000000" y2="172.000000" stroke="black" stroke-width="0.1" />
<line x1="163.000000" y1="176.000000" x2="163.000000" y2="177.000000" stroke="black" stroke-width="0.1" />
<circle cx="125.000000" cy="212.000000" r="2.500000" fill="none" stroke="black" stroke-width="0.1" />
<circle cx="125.000000" cy="212.000000" r="0.250000" fill="none" stroke="black" stroke-width="0.1" />
<line x1="124.750000" y1="212.000000" x2="124.500000" y2="212.000000" stroke="black" stroke-width="0.1" />
<line x1="125.250000" y1="212.000000" x2="125.500000" y2="212.000000" stroke="black" stroke-width="0.1" />
<line x1="125.000000" y1="211.750000" x2="125.000000" y2="211.500000" stroke="black" stroke-width="0.1" />
<line x1="125.000000" y1="212.250000" x2="125.000000" y2="212.500000" stroke="black" stroke-width="0.1" />
<line x1="122.000000" y1="212.000000" x2="123.000000" y2="212.000000" stroke="black" stroke-width="0.1" />
<line x1="127.000000" y1="212.000000" x2="128.000000" y2="212.000000" stroke="black" stroke-width="0.1" />
<line x1="125.000000" y1="209.000000" x2="125.000000" y2="210.000000" stroke="black" stroke-width="0.1" />
<line x1="125.000000" y1="214.000000" x2="125.000000" y2="215.000000" stroke="black" stroke-width="0.1" />
<circle cx="163.000000" cy="212.000000" r="2.500000" fill="none" stroke="black" stroke-width="0.1" />
<circle cx="163.000000" cy="212.000000" r="0.250000" fill="none" stroke="black" stroke-width="0.1" />
<line x1="162.750000" y1="212.000000" x2="162.500000" y2="212.000000" stroke="black" stroke-width="0.1" />
<line x1="163.250000" y1="212.000000" x2="163.500000" y2="212.000000" stroke="black" stroke-width="0.1" />
<line x1="163.000000" y1="211.750000" x2="163.000000" y2="211.500000" stroke="black" stroke-width="0.1" />
<line x1="163.000000" y1="212.250000" x2="163.000000" y2="212.500000" stroke="black" stroke-width="0.1" />
<line x1="160.000000" y1="212.000000" x2="161.000000" y2="212.000000" stroke="black" stroke-width="0.1" />
<line x1="165.000000" y1="212.000000" x2="166.000000" y2="212.000000" stroke="black" stroke-width="0.1" />
<line x1="163.000000" y1="209.000000" x2="163.000000" y2="210.000000" stroke="black" stroke-width="0.1" />
<line x1="163.000000" y1="214.000000" x2="163.000000" y2="215.000000" stroke="black" stroke-width="0.1" />
<circle cx="125.000000" cy="212.000000" r="2.500000" fill="none" stroke="black" stroke-width="0.1" />
<circle cx="125.000000" cy="212.000000" r="0.250000" fill="none" stroke="black" stroke-width="0.1" />
<line x1="124.750000" y1="212.000000" x2="124.500000" y2="212.000000" stroke="black" stroke-width="0.1" />
<line x1="125.250000" y1="212.000000" x2="125.500000" y2="212.000000" stroke="black" stroke-width="0.1" />
<line x1="125.000000" y1="211.750000" x2="125.000000" y2="211.500000" stroke="black" stroke-width="0.1" />
<line x1="125.000000" y1="212.250000" x2="125.000000" y2="212.500000" stroke="black" stroke-width="0.1" />
<line x1="122.000000" y1="212.000000" x2="123.000000" y2="212.000000" stroke="black" stroke-width="0.1" />
<line x1="127.000000" y1="212.000000" x2="128.000000" y2="212.000000" stroke="black" stroke-width="0.1" />
<line x1="125.000000" y1="209.000000" x2="125.000000" y2="210.000000" stroke="black" stroke-width="0.1" />
<line x1="125.000000" y1="214.000000" x2="125.000000" y2="215.000000" stroke="black" stroke-width="0.1" />
<circle cx="163.000000" cy="212.000000" r="2.500000" fill="none" stroke="black" stroke-width="0.1" />
<circle cx="163.000000" cy="212.000000" r="0.250000" fill="none" stroke="black" stroke-width="0.1" />
<line x1="162.750000" y1="212.000000" x2="162.500000" y2="212.000000" stroke="black" stroke-width="0.1" />
<line x1="163.250000" y1="212.000000" x2="163.500000" y2="212.000000" stroke="black" stroke-width="0.1" />
<line x1="163.000000" y1="211.750000" x2="163.000000" y2="211.500000" stroke="black" stroke-width="0.1" />
<line x1="163.000000" y1="212.250000" x2="163.000000" y2="212.500000" stroke="black" stroke-width="0.1" />
<line x1="160.000000" y1="212.000000" x2="161.000000" y2="212.000000" stroke="black" stroke-width="0.1" />
<line x1="165.000000" y1="212.000000" x2="166.000000" y2="212.000000" stroke="black" stroke-width="0.1" />
<line x1="163.000000" y1="209.000000" x2="163.000000" y2="210.000000" stroke="black" stroke-width="0.1" />
<line x1="163.000000" y1="214.000000" x2="163.000000" y2="215.000000" stroke="black" stroke-width="0.1" />
<circle cx="144.000000" cy="212.000000" r="2.500000" fill="none" stroke="black" stroke-width="0.1" />
<circle cx="144.000000" cy="212.000000" r="0.250000" fill="none" stroke="black" stroke-width="0.1" />
<line x1="143.750000" y1="212.000000" x2="143.500000" y2="212.000000" stroke="black" stroke-width="0.1" />
<line x1="144.250000" y1="212.000000" x2="144.500000" y2="212.000000" stroke="black" stroke-width="0.1" />
<line x1="144.000000" y1="211.750000" x2="144.000000" y2="211.500000" stroke="black" stroke-width="0.1" />
<line x1="144.000000" y1="212.250000" x2="144.000000" y2="212.500000" stroke="black" stroke-width="0.1" />
<line x1="141.000000" y1="212.000000" x2="142.000000" y2="212.000000" stroke="black" stroke-width="0.1" />
<line x1="146.000000" y1="212.000000" x2="147.000000" y2="212.000000" stroke="black" stroke-width="0.1" />
<line x1="144.000000" y1="209.000000" x2="144.000000" y2="210.000000" stroke="black" stroke-width="0.1" />
<line x1="144.000000" y1="214.000000" x2="144.000000" y2="215.000000" stroke="black" stroke-width="0.1" />
<circle cx="48.000000" cy="105.000000" r="2.500000" fill="none" stroke="black" stroke-width="0.1" />
<circle cx="48.000000" cy="105.000000" r="0.250000" fill="none" stroke="black" stroke-width="0.1" />
<line x1="47.750000" y1="105.000000" x2="47.500000" y2="105.000000" stroke="black" stroke-width="0.1" />
<line x1="48.250000" y1="105.000000" x2="48.500000" y2="105.000000" stroke="black" stroke-width="0.1" />
<line x1="48.000000" y1="104.750000" x2="48.000000" y2="104.500000" stroke="black" stroke-width="0.1" />
<line x1="48.000000" y1="105.250000" x2="48.000000" y2="105.500000" stroke="black" stroke-width="0.1" />
<line x1="45.000000" y1="105.000000" x2="46.000000" y2="105.000000" stroke="black" stroke-width="0.1" />
<line x1="50.000000" y1="105.000000" x2="51.000000" y2="105.000000" stroke="black" stroke-width="0.1" />
<line x1="48.000000" y1="102.000000" x2="48.000000" y2="103.000000" stroke="black" stroke-width="0.1" />
<line x1="48.000000" y1="107.000000" x2="48.000000" y2="108.000000" stroke="black" stroke-width="0.1" />
<circle cx="48.000000" cy="143.000000" r="2.500000" fill="none" stroke="black" stroke-width="0.1" />
<circle cx="48.000000" cy="143.000000" r="0.250000" fill="none" stroke="black" stroke-width="0.1" />
<line x1="47.750000" y1="143.000000" x2="47.500000" y2="143.000000" stroke="black" stroke-width="0.1" />
<line x1="48.250000" y1="143.000000" x2="48.500000" y2="143.000000" stroke="black" stroke-width="0.1" />
<line x1="48.000000" y1="142.750000" x2="48.000000" y2="142.500000" stroke="black" stroke-width="0.1" />
<line x1="48.000000" y1="143.250000" x2="48.000000" y2="143.500000" stroke="black" stroke-width="0.1" />
<line x1="45.000000" y1="143.000000" x2="46.000000" y2="143.000000" stroke="black" stroke-width="0.1" />
<line x1="50.000000" y1="143.000000" x2="51.000000" y2="143.000000" stroke="black" stroke-width="0.1" />
<line x1="48.000000" y1="140.000000" x2="48.000000" y2="141.000000" stroke="black" stroke-width="0.1" />
<line x1="48.000000" y1="145.000000" x2="48.000000" y2="146.000000" stroke="black" stroke-width="0.1" />
<text x="73.000000" y="25.000000" font-family="Arial" font-size="4" text-anchor="middle" dominant-baseline="middle" transform="rotate(90 73.000000 25.000000)" >Mid Sole Mount Line</text>
<text x="169.000000" y="235.000000" font-family="Arial" font-size="4" text-anchor="middle" dominant-baseline="middle" transform="rotate(90 169.000000 235.000000)" >Mid Sole Mount Line</text>
<text x="43.000000" y="235.000000" font-family="Arial" font-size="4" text-anchor="middle" dominant-baseline="middle" transform="rotate(90 43.000000 235.000000)" >Ski Center Line</text>
<text x="139.000000" y="25.000000" font-family="Arial" font-size="4" text-anchor="middle" dominant-baseline="middle" transform="rotate(90 139.000000 25.000000)" >Ski Center Line</text>
</svg>