<?xml version="1.0"?>
<!DOCTYPE svg PUBLIC "-//W3C//DTD SVG 1.1//EN"
"http://www.w3.org/Graphics/SVG/1.1/DTD/svg11.dtd">
<svg xmlns="http://www.w3.org/2000/svg" version="1.2" width="192.000000mm" height="259.000000mm" viewBox="0 0 192.000000 259.000000" style="background-color:white" >
<line x1="48.000000" y1="0.000000" x2="48.000000" y2="259.000000" stroke="black" stroke-width="0.1" />
<line x1="144.000000" y1="0.000000" x2="144.000000" y2="259.000000" stroke="black" stroke-width="0.1" />
<line x1="104.000000" y1="255.000000" x2="184.000000" y2="255.000000" stroke="black" stroke-width="0.1" />
<line x1="8.000000" y1="5.000000" x2="88.000000" y2="5.000000" stroke="black" stroke-width="0.1" />
<line x1="96.000000" y1="0.000000" x2="96.000000" y2="259.000000" stroke="black" stroke-width="0.1" stroke-dasharray="2 2" />
<line x1="0.000000" y1="259.000000" x2="96.000000" y2="259.000000" stroke="black" stroke-width="0.1" stroke-dasharray="2 2" />
<line x1="96.000000" y1="0.000000" x2="192.000000" y2="0.000000" stroke="black" stroke-width="0.1" stroke-dasharray="2 2" />
<line x1="48.000000" y1="7.000000" x2="41.000000" y2="0.000000" stroke="black" stroke-width="0.1" stroke-dasharray="2 2" />
<line x1="48.000000" y1="7.000000" x2="55.000000" y2="0.000000" stroke="black" stroke-width="0.1" stroke-dasharray="2 2" />
<line x1="144.000000" y1="253.000000" x2="138.000000" y2="259.000000" stroke="black" stroke-width="0.1" stroke-dasharray="2 2" />
<line x1="144.000000" y1="253.000000" x2="150.000000" y2="259.000000" stroke="black" stroke-width="0.1" stroke-dasharray="2 2" />
<text x="83.000000" y="130.000000" font-family="Arial" font-size="8" text-anchor="middle" dominant-baseline="middle" transform="rotate(90 83.000000 130.000000)" >Bishop BMF NTN 281, Heel</text>
<text x="179.000000" y="130.000000" font-family="Arial" font-size="8" text-anchor="middle" dominant-baseline="middle" transform="rotate(90 179.000000 130.000000)" >Bishop BMF NTN 281, Toe</text>
<line x1="104.000000" y1="215.500000" x2="104.000000" y2="255.000000" stroke="black" stroke-width="0.1" />
<line x1="101.500000" y1="215.500000" x2="106.500000" y2="215.500000" stroke="black" stroke-width="0.1" />
<line x1="104.000000" y1="215.500000" x2="101.500000" y2="218.000000" stroke="black" stroke-width="0.1" />
<line x1="104.000000" y1="215.500000" x2="106.500000" y2="218.000000" stroke="black" stroke-width="0.1" />
<line x1="101.500000" y1="255.000000" x2="106.500000" y2="255.000000" stroke="black" stroke-width="0.1" />
<line x1="104.000000" y1="255.000000" x2="101.500000" y2="252.500000" stroke="black" stroke-width="0.1" />
<line x1="104.000000" y1="255.000000" x2="106.500000" y2="252.500000" stroke="black" stroke-width="0.1" />
<text x="106.500000" y="235.250000" font-family="Arial" font-size="4" text-anchor="middle" dominant-baseline="middle" transform="rotate(90 106.500000 235.250000)" >39.5 mm</text>
<line x1="114.000000" y1="215.500000" x2="114.000000" y2="215.500000" stroke="black" stroke-width="0.1" />
<line x1="111.500000" y1="215.500000" x2="116.500000" y2="215.500000" stroke="black" stroke-width="0.1" />
<line x1="114.000000" y1="215.500000" x2="111.500000" y2="218.000000" stroke="black" stroke-width="0.1" />
<line x1="114.000000" y1="215.500000" x2="116.500000" y2="218.000000" stroke="black" stroke-width="0.1" />
<line x1="111.500000" y1="215.500000" x2="116.500000" y2="215.500000" stroke="black" stroke-width="0.1" />
<line x1="114.000000" y1="215.500000" x2="111.500000" y2="213.000000" stroke="black" stroke-width="0.1" />
<line x1="114.000000" y1="215.500000" x2="116.500000" y2="213.000000" stroke="black" stroke-width="0.1" />
<text x="116.500000" y="215.500000" font-family="Arial" font-size="4" text-anchor="middle" dominant-baseline="middle" transform="rotate(90 116.500000 215.500000)" >0.0 mm</text>
<line x1="104.000000" y1="215.500000" x2="104.000000" y2="215.500000" stroke="black" stroke-width="0.1" />
<line x1="101.500000" y1="215.500000" x2="106.500000" y2="215.500000" stroke="black" stroke-width="0.1" />
<line x1="104.000000" y1="215.500000" x2="101.500000" y2="218.000000" stroke="black" stroke-width="0.1" />
<line x1="104.000000" y1="215.500000" x2="106.500000" y2="218.000000" stroke="black" stroke-width="0.1" />
<line x1="101.500000" y1="215.500000" x2="106.500000" y2="215.500000" stroke="black" stroke-width="0.1" />
<line x1="104.000000" y1="215.500000" x2="101.500000" y2="213.000000" stroke="black" stroke-width="0.1" />
<line x1="104.000000" y1="215.500000" x2="106.500000" y2="213.000000" stroke="black" stroke-width="0.1" />
<text x="106.500000" y="215.500000" font-family="Arial" font-size="4" text-anchor="middle" dominant-baseline="middle" transform="rotate(90 106.500000 215.500000)" >0.0 mm</text>
<line x1="114.000000" y1="177.500000" x2="114.000000" y2="215.500000" stroke="black" stroke-width="0.1" />
<line x1="111.500000" y1="177.500000" x2="116.500000" y2="177.500000" stroke="black" stroke-width="0.1" />
<line x1="114.000000" y1="177.500000" x2="111.500000" y2="180.000000" stroke="black" stroke-width="0.1" />
<line x1="114.000000" y1="177.500000" x2="116.500000" y2="180.000000" stroke="black" stroke-width="0.1" />
<line x1="111.500000" y1="215.500000" x2="116.500000" y2="215.500000" stroke="black" stroke-width="0.1" />
<line x1="114.000000" y1="215.500000" x2="111.500000" y2="213.000000" stroke="black" stroke-width="0.1" />
<line x1="114.000000" y1="215.500000" x2="116.500000" y2="213.000000" stroke="black" stroke-width="0.1" />
<text x="116.500000" y="196.500000" font-family="Arial" font-size="4" text-anchor="middle" dominant-baseline="middle" transform="rotate(90 116.500000 196.500000)" >38.0 mm</text>
<line x1="104.000000" y1="139.500000" x2="104.000000" y2="177.500000" stroke="black" stroke-width="0.1" />
<line x1="101.500000" y1="139.500000" x2="106.500000" y2="139.500000" stroke="black" stroke-width="0.1" />
<line x1="104.000000" y1="139.500000" x2="101.500000" y2="142.000000" stroke="black" stroke-width="0.1" />
<line x1="104.000000" y1="139.500000" x2="106.500000" y2="142.000000" stroke="black" stroke-width="0.1" />
<line x1="101.500000" y1="177.500000" x2="106.500000" y2="177.500000" stroke="black" stroke-width="0.1" />
<line x1="104.000000" y1="177.500000" x2="101.500000" y2="175.000000" stroke="black" stroke-width="0.1" />
<line x1="104.000000" y1="177.500000" x2="106.500000" y2="175.000000" stroke="black" stroke-width="0.1" />
<text x="106.500000" y="158.500000" font-family="Arial" font-size="4" text-anchor="middle" dominant-baseline="middle" transform="rotate(90 106.500000 158.500000)" >38.0 mm</text>
<line x1="8.000000" y1="5.000000" x2="8.000000" y2="108.500000" stroke="black" stroke-width="0.1" />
<line x1="5.500000" y1="5.000000" x2="10.500000" y2="5.000000" stroke="black" stroke-width="0.1" />
<line x1="8.000000" y1="5.000000" x2="5.500000" y2="7.500000" stroke="black" stroke-width="0.1" />
<line x1="8.000000" y1="5.000000" x2="10.500000" y2="7.500000" stroke="black" stroke-width="0.1" />
<line x1="5.500000" y1="108.500000" x2="10.500000" y2="108.500000" stroke="black" stroke-width="0.1" />
<line x1="8.000000" y1="108.500000" x2="5.500000" y2="106.000000" stroke="black" stroke-width="0.1" />
<line x1="8.000000" y1="108.500000" x2="10.500000" y2="106.000000" stroke="black" stroke-width="0.1" />
<text x="10.500000" y="56.750000" font-family="Arial" font-size="4" text-anchor="middle" dominant-baseline="middle" transform="rotate(90 10.500000 56.750000)" >103.5 mm</text>
<line x1="18.000000" y1="108.500000" x2="18.000000" y2="146.500000" stroke="black" stroke-width="0.1" />
<line x1="15.500000" y1="108.500000" x2="20.500000" y2="108.500000" stroke="black" stroke-width="0.1" />
<line x1="18.000000" y1="108.500000" x2="15.500000" y2="111.000000" stroke="black" stroke-width="0.1" />
<line x1="18.000000" y1="108.500000" x2="20.500000" y2="111.000000" stroke="black" stroke-width="0.1" />
<line x1="15.500000" y1="146.500000" x2="20.500000" y2="146.500000" stroke="black" stroke-width="0.1" />
<line x1="18.000000" y1="146.500000" x2="15.500000" y2="144.000000" stroke="black" stroke-width="0.1" />
<line x1="18.000000" y1="146.500000" x2="20.500000" y2="144.000000" stroke="black" stroke-width="0.1" />
<text x="20.500000" y="127.500000" font-family="Arial" font-size="4" text-anchor="middle" dominant-baseline="middle" transform="rotate(90 20.500000 127.500000)" >38.0 mm</text>
<line x1="125.000000" y1="129.500000" x2="163.000000" y2="129.500000" stroke="black" stroke-width="0.1" />
<line x1="125.000000" y1="127.000000" x2="125.000000" y2="132.000000" stroke="black" stroke-width="0.1" />
<line x1="125.000000" y1="129.500000" x2="127.500000" y2="132.000000" stroke="black" stroke-width="0.1" />
<line x1="125.000000" y1="129.500000" x2="127.500000" y2="127.000000" stroke="black" stroke-width="0.1" />
<line x1="163.000000" y1="127.000000" x2="163.000000" y2="132.000000" stroke="black" stroke-width="0.1" />
<line x1="163.000000" y1="129.500000" x2="160.500000" y2="132.000000" stroke="black" stroke-width="0.1" />
<line x1="163.000000" y1="129.500000" x2="160.500000" y2="127.000000" stroke="black" stroke-width="0.1" />
<text x="149.000000" y="119.500000" font-family="Arial" font-size="4" text-anchor="middle" dominant-baseline="middle" transform="rotate(90 149.000000 119.500000)" >38.0 mm</text>
<line x1="125.000000" y1="167.500000" x2="163.000000" y2="167.500000" stroke="black" stroke-width="0.1" />
<line x1="125.000000" y1="165.000000" x2="125.000000" y2="170.000000" stroke="black" stroke-width="0.1" />
<line x1="125.000000" y1="167.500000" x2="127.500000" y2="170.000000" stroke="black" stroke-width="0.1" />
<line x1="125.000000" y1="167.500000" x2="127.500000" y2="165.000000" stroke="black" stroke-width="0.1" />
<line x1="163.000000" y1="165.000000" x2="163.000000" y2="170.000000" stroke="black" stroke-width="0.1" />
<line x1="163.000000" y1="167.500000" x2="160.500000" y2="170.000000" stroke="black" stroke-width="0.1" />
<line x1="163.000000" y1="167.500000" x2="160.500000" y2="165.000000" stroke="black" stroke-width="0.1" />
<text x="149.000000" y="157.500000" font-family="Arial" font-size="4" text-anchor="middle" dominant-baseline="middle" transform="rotate(90 149.000000 157.500000)" >38.0 mm</text>
<line x1="125.000000" y1="205.500000" x2="163.000000" y2="205.500000" stroke="black" stroke-width="0.1" />
<line x1="125.000000" y1="203.000000" x2="125.000000" y2="208.000000" stroke="black" stroke-width="0.1" />
<line x1="125.000000" y1="205.500000" x2="127.500000" y2="208.000000" stroke="black" stroke-width="0.1" />
<line x1="125.000000" y1="205.500000" x2="127.500000" y2="203.000000" stroke="black" stroke-width="0.1" />
<line x1="163.000000" y1="203.000000" x2="163.000000" y2="208.000000" stroke="black" stroke-width="0.1" />
<line x1="163.000000" y1="205.500000" x2="160.500000" y2="208.000000" stroke="black" stroke-width="0.1" />
<line x1="163.000000" y1="205.500000" x2="160.500000" y2="203.000000" stroke="black" stroke-width="0.1" />
<text x="149.000000" y="195.500000" font-family="Arial" font-size="4" text-anchor="middle" dominant-baseline="middle" transform="rotate(90 149.000000 195.500000)" >38.0 mm</text>
<line x1="125.000000" y1="205.500000" x2="163.000000" y2="205.500000" stroke="black" stroke-width="0.1" />
<line x1="125.000000" y1="203.000000" x2="125.000000" y2="208.000000" stroke="black" stroke-width="0.1" />
<line x1="125.000000" y1="205.500000" x2="127.500000" y2="208.000000" stroke="black" stroke-width="0.1" />
<line x1="125.000000" y1="205.500000" x2="127.500000" y2="203.000000" stroke="black" stroke-width="0.1" />
<line x1="163.000000" y1="203.000000" x2="163.000000" y2="208.000000" stroke="black" stroke-width="0.1" />
<line x1="163.000000" y1="205.500000" x2="160.500000" y2="208.000000" stroke="black" stroke-width="0.1" />
<line x1="163.000000" y1="205.500000" x2="160.500000" y2="203.000000" stroke="black" stroke-width="0.1" />
<text x="149.000000" y="195.500000" font-family="Arial" font-size="4" text-anchor="middle" dominant-baseline="middle" transform="rotate(90 149.000000 195.500000)" >38.0 mm</text>
<circle cx="125.000000" cy="139.500000" r="2.500000" fill="none" stroke="black" stroke-width="0.1" />
<circle cx="125.000000" cy="139.500000" r="0.250000" fill="none" stroke="black" stroke-width="0.1" />
<line x1="124.750000" y1="139.500000" x2="124.500000" y2="139.500000" stroke="black" stroke-width="0.1" />
<line x1="125.250000" y1="139.500000" x2="125.500000" y2="139.500000" stroke="black" stroke-width="0.1" />
<line x1="125.000000" y1="139.250000" x2="125.000000" y2="139.000000" stroke="black" stroke-width="0.1" />
<line x1="125.000000" y1="139.750000" x2="125.000000" y2="140.000000" stroke="black" stroke-width="0.1" />
<line x1="122.000000" y1="139.500000" x2="123.000000" y2="139.500000" stroke="black" stroke-width="0.1" />
<line x1="127.000000" y1="139.500000" x2="128.000000" y2="139.500000" stroke="black" stroke-width="0.1" />
<line x1="125.000000" y1="136.500000" x2="125.000000" y2="137.500000" stroke="black" stroke-width="0.1" />
<line x1="125.000000" y1="141.500000" x2="125.000000" y2="142.500000" stroke="black" stroke-width="0.1" />
<circle cx="163.000000" cy="139.500000" r="2.500000" fill="none" stroke="black" stroke-width="0.1" />
<circle cx="163.000000" cy="139.500000" r="0.250000" fill="none" stroke="black" stroke-width="0.1" />
<line x1="162.750000" y1="139.500000" x2="162.500000" y2="139.500000" stroke="black" stroke-width="0.1" />
<line x1="163.250000" y1="139.500000" x2="163.500000" y2="139.500000" stroke="black" stroke-width="0.1" />
<line x1="163.000000" y1="139.250000" x2="163.000000" y2="139.000000" stroke="black" stroke-width="0.1" />
<line x1="163.000000" y1="139.750000" x2="163.000000" y2="140.000000" stroke="black" stroke-width="0.1" />
<line x1="160.000000" y1="139.500000" x2="161.000000" y2="139.500000" stroke="black" stroke-width="0.1" />
<line x1="165.000000" y1="139.500000" x2="166.000000" y2="139.500000" stroke="black" stroke-width="0.1" />
<line x1="163.000000" y1="136.500000" x2="163.000000" y2="137.500000" stroke="black" stroke-width="0.1" />
<line x1="163.000000" y1="141.500000" x2="163.000000" y2="142.500000" stroke="black" stroke-width="0.1" />
<circle cx="125.000000" cy="177.500000" r="2.500000" fill="none" stroke="black" stroke-width="0.1" />
<circle cx="125.000000" cy="177.500000" r="0.250000" fill="none" stroke="black" stroke-width="0.1" />
<line x1="124.750000" y1="177.500000" x2="124.500000" y2="177.500000" stroke="black" stroke-width="0.1" />
<line x1="125.250000" y1="177.500000" x2="125.500000" y2="177.500000" stroke="black" stroke-width="0.1" />
<line x1="125.000000" y1="177.250000" x2="125.000000" y2="177.000000" stroke="black" stroke-width="0.1" />
<line x1="125.000000" y1="177.750000" x2="125.000000" y2="178.000000" stroke="black" stroke-width="0.1" />
<line x1="122.000000" y1="177.500000" x2="123.000000" y2="177.500000" stroke="black" stroke-width="0.1" />
<line x1="127.000000" y1="177.500000" x2="128.000000" y2="177.500000" stroke="black" stroke-width="0.1" />
<line x1="125.000000" y1="174.500000" x2="125.000000" y2="175.500000" stroke="black" stroke-width="0.1" />
<line x1="125.000000" y1="179.500000" x2="125.000000" y2="180.500000" stroke="black" stroke-width="0.1" />
<circle cx="163.000000" cy="177.500000" r="2.500000" fill="none" stroke="black" stroke-width="0.1" />
<circle cx="163.000000" cy="177.500000" r="0.250000" fill="none" stroke="black" stroke-width="0.1" />
<line x1="162.750000" y1="177.500000" x2="162.500000" y2="177.500000" stroke="black" stroke-width="0.1" />
<line x1="163.250000" y1="177.500000" x2="163.500000" y2="177.500000" stroke="black" stroke-width="0.1" />
<line x1="163.000000" y1="177.250000" x2="163.000000" y2="177.000000" stroke="black" stroke-width="0.1" />
<line x1="163.000000" y1="177.750000" x2="163.000000" y2="178.000000" stroke="black" stroke-width="0.1" />
<line x1="160.000000" y1="177.500000" x2="161.000000" y2="177.500000" stroke="black" stroke-width="0.1" />
<line x1="165.000000" y1="177.500000" x2="166.000000" y2="177.500000" stroke="black" stroke-width="0.1" />
<line x1="163.000000" y1="174.500000" x2="163.000000" y2="175.500000" stroke="black" stroke-width="0.1" />
<line x1="163.000000" y1="179.500000" x2="163.000000" y2="180.500000" stroke="black" stroke-width="0.1" />
<circle cx="125.000000" cy="215.500000" r="2.500000" fill="none" stroke="black" stroke-width="0.1" />
<circle cx="125.000000" cy="215.500000" r="0.250000" fill="none" stroke="black" stroke-width="0.1" />
<line x1="124.750000" y1="215.500000" x2="124.500000" y2="215.500000" stroke="black" stroke-width="0.1" />
<line x1="125.250000" y1="215.500000" x2="125.500000" y2="215.500000" stroke="black" stroke-width="0.1" />
<line x1="125.000000" y1="215.250000" x2="125.000000" y2="215.000000" stroke="black" stroke-width="0.1" />
<line x1="125.000000" y1="215.750000" x2="125.000000" y2="216.000000" stroke="black" stroke-width="0.1" />
<line x1="122.000000" y1="215.500000" x2="123.000000" y2="215.500000" stroke="black" stroke-width="0.1" />
<line x1="127.000000" y1="215.500000" x2="128.000000" y2="215.500000" stroke="black" stroke-width="0.1" />
<line x1="125.000000" y1="212.500000" x2="125.000000" y2="213.500000" stroke="black" stroke-width="0.1" />
<line x1="125.000000" y1="217.500000" x2="125.000000" y2="218.500000" stroke="black" stroke-width="0.1" />
<circle cx="163.000000" cy="215.500000" r="2.500000" fill="none" stroke="black" stroke-width="0.1" />
<circle cx="163.000000" cy="215.500000" r="0.250000" fill="none" stroke="black" stroke-width="0.1" />
<line x1="162.750000" y1="215.500000" x2="162.500000" y2="215.500000" stroke="black" stroke-width="0.1" />
<line x1="163.250000" y1="215.500000" x2="163.500000" y2="215.500000" stroke="black" stroke-width="0.1" />
<line x1="163.000000" y1="215.250000" x2="163.000000" y2="215.000000" stroke="black" stroke-width="0.1" />
<line x1="163.000000" y1="215.750000" x2="163.000000" y2="216.000000" stroke="black" stroke-width="0.1" />
<line x1="160.000000" y1="215.500000" x2="161.000000" y2="215.500000" stroke="black" stroke-width="0.1" />
<line x1="165.000000" y1="215.500000" x2="166.000000" y2="215.500000" stroke="black" stroke-width="0.1" />
<line x1="163.000000" y1="212.500000" x2="163.000000" y2="213.500000" stroke="black" stroke-width="0.1" />
<line x1="163.000000" y1="217.500000" x2="163.000000" y2="218.500000" stroke="black" stroke-width="0.1" />
<circle cx="125.000000" cy="215.500000" r="2.500000" fill="none" stroke="black" stroke-width="0.1" />
<circle cx="125.000000" cy="215.500000" r="0.250000" fill="none" stroke="black" stroke-width="0.1" />
<line x1="124.750000" y1="215.500000" x2="124.500000" y2="215.500000" stroke="black" stroke-width="0.1" />
<line x1="125.250000" y1="215.500000" x2="125.500000" y2="215.500000" stroke="black" stroke-width="0.1" />
<line x1="125.000000" y1="215.250000" x2="125.000000" y2="215.000000" stroke="black" stroke-width="0.1" />
<line x1="125.000000" y1="215.750000" x2="125.000000" y2="216.000000" stroke="black" stroke-width="0.1" />
<line x1="122.000000" y1="215.500000" x2="123.000000" y2="215.500000" stroke="black" stroke-width="0.1" />
<line x1="127.000000" y1="215.500000" x2="128.000000" y2="215.500000" stroke="black" stroke-width="0.1" />
<line x1="125.000000" y1="212.500000" x2="125.000000" y2="213.500000" stroke="black" stroke-width="0.1" />
<line x1="125.000000" y1="217.500000" x2="125.000000" y2="218.500000" stroke="black" stroke-width="0.1" />
<circle cx="163.000000" cy="215.500000" r="2.500000" fill="none" stroke="black" stroke-width="0.1" />
<circle cx="163.000000" cy="215.500000" r="0.250000" fill="none" stroke="black" stroke-width="0.1" />
<line x1="162.750000" y1="215.500000" x2="162.500000" y2="215.500000" stroke="black" stroke-width="0.1" />
<line x1="163.250000" y1="215.500000" x2="163.500000" y2="215.500000" stroke="black" stroke-width="0.1" />
<line x1="163.000000" y1="215.250000" x2="163.000000" y2="215.000000" stroke="black" stroke-width="0.1" />
<line x1="163.000000" y1="215.750000" x2="163.000000" y2="216.000000" stroke="black" stroke-width="0.1" />
<line x1="160.000000" y1="215.500000" x2="161.000000" y2="215.500000" stroke="black" stroke-width="0.1" />
<line x1="165.000000" y1="215.500000" x2="166.000000" y2="215.500000" stroke="black" stroke-width="0.1" />
<line x1="163.000000" y1="212.500000" x2="163.000000" y2="213.500000" stroke="black" stroke-width="0.1" />
<line x1="163.000000" y1="217.500000" x2="163.000000" y2="218.500000" stroke="black" stroke-width="0.1" />
<circle cx="144.000000" cy="215.500000" r="2.500000" fill="none" stroke="black" stroke-width="0.1" />
<circle cx="144.000000" cy="215.500000" r="0.250000" fill="none" stroke="black" stroke-width="0.1" />
<line x1="143.750000" y1="215.500000" x2="143.500000" y2="215.500000" stroke="black" stroke-width="0.1" />
<line x1="144.250000" y1="215.500000" x2="144.500000" y2="215.500000" stroke="black" stroke-width="0.1" />
<line x1="144.000000" y1="215.250000" x2="144.000000" y2="215.000000" stroke="black" stroke-width="0.1" />
<line x1="144.000000" y1="215.750000" x2="144.000000" y2="216.000000" stroke="black" stroke-width="0.1" />
<line x1="141.000000" y1="215.500000" x2="142.000000" y2="215.500000" stroke="black" stroke-width="0.1" />
<line x1="146.000000" y1="215.500000" x2="147.000000" y2="215.500000" stroke="black" stroke-width="0.1" />
<line x1="144.000000" y1="212.500000" x2="144.000000" y2="213.500000" stroke="black" stroke-width="0.1" />
<line x1="144.000000" y1="217.500000" x2="144.000000" y2="218.500000" stroke="black" stroke-width="0.1" />
<circle cx="48.000000" cy="108.500000" r="2.500000" fill="none" stroke="black" stroke-width="0.1" />
<circle cx="48.000000" cy="108.500000" r="0.250000" fill="none" stroke="black" stroke-width="0.1" />
<line x1="47.750000" y1="108.500000" x2="47.500000" y2="108.500000" stroke="black" stroke-width="0.1" />
<line x1="48.250000" y1="108.500000" x2="48.500000" y2="108.500000" stroke="black" stroke-width="0.1" />
<line x1="48.000000" y1="108.250000" x2="48.000000" y2="108.000000" stroke="black" stroke-width="0.1" />
<line x1="48.000000" y1="108.750000" x2="48.000000" y2="109.000000" stroke="black" stroke-width="0.1" />
<line x1="45.000000" y1="108.500000" x2="46.000000" y2="108.500000" stroke="black" stroke-width="0.1" />
<line x1="50.000000" y1="108.500000" x2="51.000000" y2="108.500000" stroke="black" stroke-width="0.1" />
<line x1="48.000000" y1="105.500000" x2="48.000000" y2="106.500000" stroke="black" stroke-width="0.1" />
<line x1="48.000000" y1="110.500000" x2="48.000000" y2="111.500000" stroke="black" stroke-width="0.1" />
<circle cx="48.000000" cy="146.500000" r="2.500000" fill="none" stroke="black" stroke-width="0.1" />
<circle cx="48.000000" cy="146.500000" r="0.250000" fill="none" stroke="black" stroke-width="0.1" />
<line x1="47.750000" y1="146.500000" x2="47.500000" y2="146.500000" stroke="black" stroke-width="0.1" />
<line x1="48.250000" y1="146.500000" x2="48.500000" y2="146.500000" stroke="black" stroke-width="0.1" />
<line x1="48.000000" y1="146.250000" x2="48.000000" y2="146.000000" stroke="black" stroke-width="0.1" />
<line x1="48.000000" y1="146.750000" x2="48.000000" y2="147.000000" stroke="black" stroke-width="0.1" />
<line x1="45.000000" y1="146.500000" x2="46.000000" y2="146.500000" stroke="black" stroke-width="0.1" />
<line x1="50.000000" y1="146.500000" x2="51.000000" y2="146.500000" stroke="black" stroke-width="0.1" />
<line x1="48.000000" y1="143.500000" x2="48.000000" y2="144.500000" stroke="black" stroke-width="0.1" />
<line x1="48.000000" y1="148.500000" x2="48.000000" y2="149.500000" stroke="black" stroke-width="0.1" />
<text x="73.000000" y="25.000000" font-family="Arial" font-size="4" text-anchor="middle" dominant-baseline="middle" transform="rotate(90 73.000000 25.000000)" >Mid Sole Mount Line</text>
<text x="169.000000" y="235.000000" font-family="Arial" font-size="4" text-anchor="middle" dominant-baseline="middle" transform="rotate(90 169.000000 235.000000)" >Mid Sole Mount Line</text>
<text x="43.000000" y="235.000000" font-family="Arial" font-size="4" text-anchor="middle" dominant-baseline="middle" transform="rotate(90 43.000000 235.000000)" >Ski Center Line</text>
<text x="139.000000" y="25.000000" font-family="Arial" font-size="4" text-anchor="middle" dominant-baseline="middle" transform="rotate(90 139.000000 25.000000)" >Ski Center Line</text>
</svg>