<?xml version="1.0"?>
<!DOCTYPE svg PUBLIC "-//W3C//DTD SVG 1.1//EN"
"http://www.w3.org/Graphics/SVG/1.1/DTD/svg11.dtd">
<svg xmlns="http://www.w3.org/2000/svg" version="1.2" width="192.000000mm" height="259.000000mm" viewBox="0 0 192.000000 259.000000" style="background-color:white" >
<line x1="48.000000" y1="0.000000" x2="48.000000" y2="259.000000" stroke="black" stroke-width="0.1" />
<line x1="144.000000" y1="0.000000" x2="144.000000" y2="259.000000" stroke="black" stroke-width="0.1" />
<line x1="104.000000" y1="255.000000" x2="184.000000" y2="255.000000" stroke="black" stroke-width="0.1" />
<line x1="8.000000" y1="5.000000" x2="88.000000" y2="5.000000" stroke="black" stroke-width="0.1" />
<line x1="96.000000" y1="0.000000" x2="96.000000" y2="259.000000" stroke="black" stroke-width="0.1" stroke-dasharray="2 2" />
<line x1="0.000000" y1="259.000000" x2="96.000000" y2="259.000000" stroke="black" stroke-width="0.1" stroke-dasharray="2 2" />
<line x1="96.000000" y1="0.000000" x2="192.000000" y2="0.000000" stroke="black" stroke-width="0.1" stroke-dasharray="2 2" />
<line x1="48.000000" y1="7.000000" x2="41.000000" y2="0.000000" stroke="black" stroke-width="0.1" stroke-dasharray="2 2" />
<line x1="48.000000" y1="7.000000" x2="55.000000" y2="0.000000" stroke="black" stroke-width="0.1" stroke-dasharray="2 2" />
<line x1="144.000000" y1="253.000000" x2="138.000000" y2="259.000000" stroke="black" stroke-width="0.1" stroke-dasharray="2 2" />
<line x1="144.000000" y1="253.000000" x2="150.000000" y2="259.000000" stroke="black" stroke-width="0.1" stroke-dasharray="2 2" />
<text x="83.000000" y="130.000000" font-family="Arial" font-size="8" text-anchor="middle" dominant-baseline="middle" transform="rotate(90 83.000000 130.000000)" >Bishop BMF NTN 338, Heel</text>
<text x="179.000000" y="130.000000" font-family="Arial" font-size="8" text-anchor="middle" dominant-baseline="middle" transform="rotate(90 179.000000 130.000000)" >Bishop BMF NTN 338, Toe</text>
<line x1="104.000000" y1="187.000000" x2="104.000000" y2="255.000000" stroke="black" stroke-width="0.1" />
<line x1="101.500000" y1="187.000000" x2="106.500000" y2="187.000000" stroke="black" stroke-width="0.1" />
<line x1="104.000000" y1="187.000000" x2="101.500000" y2="189.500000" stroke="black" stroke-width="0.1" />
<line x1="104.000000" y1="187.000000" x2="106.500000" y2="189.500000" stroke="black" stroke-width="0.1" />
<line x1="101.500000" y1="255.000000" x2="106.500000" y2="255.000000" stroke="black" stroke-width="0.1" />
<line x1="104.000000" y1="255.000000" x2="101.500000" y2="252.500000" stroke="black" stroke-width="0.1" />
<line x1="104.000000" y1="255.000000" x2="106.500000" y2="252.500000" stroke="black" stroke-width="0.1" />
<text x="106.500000" y="221.000000" font-family="Arial" font-size="4" text-anchor="middle" dominant-baseline="middle" transform="rotate(90 106.500000 221.000000)" >68.0 mm</text>
<line x1="114.000000" y1="187.000000" x2="114.000000" y2="187.000000" stroke="black" stroke-width="0.1" />
<line x1="111.500000" y1="187.000000" x2="116.500000" y2="187.000000" stroke="black" stroke-width="0.1" />
<line x1="114.000000" y1="187.000000" x2="111.500000" y2="189.500000" stroke="black" stroke-width="0.1" />
<line x1="114.000000" y1="187.000000" x2="116.500000" y2="189.500000" stroke="black" stroke-width="0.1" />
<line x1="111.500000" y1="187.000000" x2="116.500000" y2="187.000000" stroke="black" stroke-width="0.1" />
<line x1="114.000000" y1="187.000000" x2="111.500000" y2="184.500000" stroke="black" stroke-width="0.1" />
<line x1="114.000000" y1="187.000000" x2="116.500000" y2="184.500000" stroke="black" stroke-width="0.1" />
<text x="116.500000" y="187.000000" font-family="Arial" font-size="4" text-anchor="middle" dominant-baseline="middle" transform="rotate(90 116.500000 187.000000)" >0.0 mm</text>
<line x1="104.000000" y1="187.000000" x2="104.000000" y2="187.000000" stroke="black" stroke-width="0.1" />
<line x1="101.500000" y1="187.000000" x2="106.500000" y2="187.000000" stroke="black" stroke-width="0.1" />
<line x1="104.000000" y1="187.000000" x2="101.500000" y2="189.500000" stroke="black" stroke-width="0.1" />
<line x1="104.000000" y1="187.000000" x2="106.500000" y2="189.500000" stroke="black" stroke-width="0.1" />
<line x1="101.500000" y1="187.000000" x2="106.500000" y2="187.000000" stroke="black" stroke-width="0.1" />
<line x1="104.000000" y1="187.000000" x2="101.500000" y2="184.500000" stroke="black" stroke-width="0.1" />
<line x1="104.000000" y1="187.000000" x2="106.500000" y2="184.500000" stroke="black" stroke-width="0.1" />
<text x="106.500000" y="187.000000" font-family="Arial" font-size="4" text-anchor="middle" dominant-baseline="middle" transform="rotate(90 106.500000 187.000000)" >0.0 mm</text>
<line x1="114.000000" y1="149.000000" x2="114.000000" y2="187.000000" stroke="black" stroke-width="0.1" />
<line x1="111.500000" y1="149.000000" x2="116.500000" y2="149.000000" stroke="black" stroke-width="0.1" />
<line x1="114.000000" y1="149.000000" x2="111.500000" y2="151.500000" stroke="black" stroke-width="0.1" />
<line x1="114.000000" y1="149.000000" x2="116.500000" y2="151.500000" stroke="black" stroke-width="0.1" />
<line x1="111.500000" y1="187.000000" x2="116.500000" y2="187.000000" stroke="black" stroke-width="0.1" />
<line x1="114.000000" y1="187.000000" x2="111.500000" y2="184.500000" stroke="black" stroke-width="0.1" />
<line x1="114.000000" y1="187.000000" x2="116.500000" y2="184.500000" stroke="black" stroke-width="0.1" />
<text x="116.500000" y="168.000000" font-family="Arial" font-size="4" text-anchor="middle" dominant-baseline="middle" transform="rotate(90 116.500000 168.000000)" >38.0 mm</text>
<line x1="104.000000" y1="111.000000" x2="104.000000" y2="149.000000" stroke="black" stroke-width="0.1" />
<line x1="101.500000" y1="111.000000" x2="106.500000" y2="111.000000" stroke="black" stroke-width="0.1" />
<line x1="104.000000" y1="111.000000" x2="101.500000" y2="113.500000" stroke="black" stroke-width="0.1" />
<line x1="104.000000" y1="111.000000" x2="106.500000" y2="113.500000" stroke="black" stroke-width="0.1" />
<line x1="101.500000" y1="149.000000" x2="106.500000" y2="149.000000" stroke="black" stroke-width="0.1" />
<line x1="104.000000" y1="149.000000" x2="101.500000" y2="146.500000" stroke="black" stroke-width="0.1" />
<line x1="104.000000" y1="149.000000" x2="106.500000" y2="146.500000" stroke="black" stroke-width="0.1" />
<text x="106.500000" y="130.000000" font-family="Arial" font-size="4" text-anchor="middle" dominant-baseline="middle" transform="rotate(90 106.500000 130.000000)" >38.0 mm</text>
<line x1="8.000000" y1="5.000000" x2="8.000000" y2="80.000000" stroke="black" stroke-width="0.1" />
<line x1="5.500000" y1="5.000000" x2="10.500000" y2="5.000000" stroke="black" stroke-width="0.1" />
<line x1="8.000000" y1="5.000000" x2="5.500000" y2="7.500000" stroke="black" stroke-width="0.1" />
<line x1="8.000000" y1="5.000000" x2="10.500000" y2="7.500000" stroke="black" stroke-width="0.1" />
<line x1="5.500000" y1="80.000000" x2="10.500000" y2="80.000000" stroke="black" stroke-width="0.1" />
<line x1="8.000000" y1="80.000000" x2="5.500000" y2="77.500000" stroke="black" stroke-width="0.1" />
<line x1="8.000000" y1="80.000000" x2="10.500000" y2="77.500000" stroke="black" stroke-width="0.1" />
<text x="10.500000" y="42.500000" font-family="Arial" font-size="4" text-anchor="middle" dominant-baseline="middle" transform="rotate(90 10.500000 42.500000)" >75.0 mm</text>
<line x1="18.000000" y1="80.000000" x2="18.000000" y2="118.000000" stroke="black" stroke-width="0.1" />
<line x1="15.500000" y1="80.000000" x2="20.500000" y2="80.000000" stroke="black" stroke-width="0.1" />
<line x1="18.000000" y1="80.000000" x2="15.500000" y2="82.500000" stroke="black" stroke-width="0.1" />
<line x1="18.000000" y1="80.000000" x2="20.500000" y2="82.500000" stroke="black" stroke-width="0.1" />
<line x1="15.500000" y1="118.000000" x2="20.500000" y2="118.000000" stroke="black" stroke-width="0.1" />
<line x1="18.000000" y1="118.000000" x2="15.500000" y2="115.500000" stroke="black" stroke-width="0.1" />
<line x1="18.000000" y1="118.000000" x2="20.500000" y2="115.500000" stroke="black" stroke-width="0.1" />
<text x="20.500000" y="99.000000" font-family="Arial" font-size="4" text-anchor="middle" dominant-baseline="middle" transform="rotate(90 20.500000 99.000000)" >38.0 mm</text>
<line x1="125.000000" y1="101.000000" x2="163.000000" y2="101.000000" stroke="black" stroke-width="0.1" />
<line x1="125.000000" y1="98.500000" x2="125.000000" y2="103.500000" stroke="black" stroke-width="0.1" />
<line x1="125.000000" y1="101.000000" x2="127.500000" y2="103.500000" stroke="black" stroke-width="0.1" />
<line x1="125.000000" y1="101.000000" x2="127.500000" y2="98.500000" stroke="black" stroke-width="0.1" />
<line x1="163.000000" y1="98.500000" x2="163.000000" y2="103.500000" stroke="black" stroke-width="0.1" />
<line x1="163.000000" y1="101.000000" x2="160.500000" y2="103.500000" stroke="black" stroke-width="0.1" />
<line x1="163.000000" y1="101.000000" x2="160.500000" y2="98.500000" stroke="black" stroke-width="0.1" />
<text x="149.000000" y="91.000000" font-family="Arial" font-size="4" text-anchor="middle" dominant-baseline="middle" transform="rotate(90 149.000000 91.000000)" >38.0 mm</text>
<line x1="125.000000" y1="139.000000" x2="163.000000" y2="139.000000" stroke="black" stroke-width="0.1" />
<line x1="125.000000" y1="136.500000" x2="125.000000" y2="141.500000" stroke="black" stroke-width="0.1" />
<line x1="125.000000" y1="139.000000" x2="127.500000" y2="141.500000" stroke="black" stroke-width="0.1" />
<line x1="125.000000" y1="139.000000" x2="127.500000" y2="136.500000" stroke="black" stroke-width="0.1" />
<line x1="163.000000" y1="136.500000" x2="163.000000" y2="141.500000" stroke="black" stroke-width="0.1" />
<line x1="163.000000" y1="139.000000" x2="160.500000" y2="141.500000" stroke="black" stroke-width="0.1" />
<line x1="163.000000" y1="139.000000" x2="160.500000" y2="136.500000" stroke="black" stroke-width="0.1" />
<text x="149.000000" y="129.000000" font-family="Arial" font-size="4" text-anchor="middle" dominant-baseline="middle" transform="rotate(90 149.000000 129.000000)" >38.0 mm</text>
<line x1="125.000000" y1="177.000000" x2="163.000000" y2="177.000000" stroke="black" stroke-width="0.1" />
<line x1="125.000000" y1="174.500000" x2="125.000000" y2="179.500000" stroke="black" stroke-width="0.1" />
<line x1="125.000000" y1="177.000000" x2="127.500000" y2="179.500000" stroke="black" stroke-width="0.1" />
<line x1="125.000000" y1="177.000000" x2="127.500000" y2="174.500000" stroke="black" stroke-width="0.1" />
<line x1="163.000000" y1="174.500000" x2="163.000000" y2="179.500000" stroke="black" stroke-width="0.1" />
<line x1="163.000000" y1="177.000000" x2="160.500000" y2="179.500000" stroke="black" stroke-width="0.1" />
<line x1="163.000000" y1="177.000000" x2="160.500000" y2="174.500000" stroke="black" stroke-width="0.1" />
<text x="149.000000" y="167.000000" font-family="Arial" font-size="4" text-anchor="middle" dominant-baseline="middle" transform="rotate(90 149.000000 167.000000)" >38.0 mm</text>
<line x1="125.000000" y1="177.000000" x2="163.000000" y2="177.000000" stroke="black" stroke-width="0.1" />
<line x1="125.000000" y1="174.500000" x2="125.000000" y2="179.500000" stroke="black" stroke-width="0.1" />
<line x1="125.000000" y1="177.000000" x2="127.500000" y2="179.500000" stroke="black" stroke-width="0.1" />
<line x1="125.000000" y1="177.000000" x2="127.500000" y2="174.500000" stroke="black" stroke-width="0.1" />
<line x1="163.000000" y1="174.500000" x2="163.000000" y2="179.500000" stroke="black" stroke-width="0.1" />
<line x1="163.000000" y1="177.000000" x2="160.500000" y2="179.500000" stroke="black" stroke-width="0.1" />
<line x1="163.000000" y1="177.000000" x2="160.500000" y2="174.500000" stroke="black" stroke-width="0.1" />
<text x="149.000000" y="167.000000" font-family="Arial" font-size="4" text-anchor="middle" dominant-baseline="middle" transform="rotate(90 149.000000 167.000000)" >38.0 mm</text>
<circle cx="125.000000" cy="111.000000" r="2.500000" fill="none" stroke="black" stroke-width="0.1" />
<circle cx="125.000000" cy="111.000000" r="0.250000" fill="none" stroke="black" stroke-width="0.1" />
<line x1="124.750000" y1="111.000000" x2="124.500000" y2="111.000000" stroke="black" stroke-width="0.1" />
<line x1="125.250000" y1="111.000000" x2="125.500000" y2="111.000000" stroke="black" stroke-width="0.1" />
<line x1="125.000000" y1="110.750000" x2="125.000000" y2="110.500000" stroke="black" stroke-width="0.1" />
<line x1="125.000000" y1="111.250000" x2="125.000000" y2="111.500000" stroke="black" stroke-width="0.1" />
<line x1="122.000000" y1="111.000000" x2="123.000000" y2="111.000000" stroke="black" stroke-width="0.1" />
<line x1="127.000000" y1="111.000000" x2="128.000000" y2="111.000000" stroke="black" stroke-width="0.1" />
<line x1="125.000000" y1="108.000000" x2="125.000000" y2="109.000000" stroke="black" stroke-width="0.1" />
<line x1="125.000000" y1="113.000000" x2="125.000000" y2="114.000000" stroke="black" stroke-width="0.1" />
<circle cx="163.000000" cy="111.000000" r="2.500000" fill="none" stroke="black" stroke-width="0.1" />
<circle cx="163.000000" cy="111.000000" r="0.250000" fill="none" stroke="black" stroke-width="0.1" />
<line x1="162.750000" y1="111.000000" x2="162.500000" y2="111.000000" stroke="black" stroke-width="0.1" />
<line x1="163.250000" y1="111.000000" x2="163.500000" y2="111.000000" stroke="black" stroke-width="0.1" />
<line x1="163.000000" y1="110.750000" x2="163.000000" y2="110.500000" stroke="black" stroke-width="0.1" />
<line x1="163.000000" y1="111.250000" x2="163.000000" y2="111.500000" stroke="black" stroke-width="0.1" />
<line x1="160.000000" y1="111.000000" x2="161.000000" y2="111.000000" stroke="black" stroke-width="0.1" />
<line x1="165.000000" y1="111.000000" x2="166.000000" y2="111.000000" stroke="black" stroke-width="0.1" />
<line x1="163.000000" y1="108.000000" x2="163.000000" y2="109.000000" stroke="black" stroke-width="0.1" />
<line x1="163.000000" y1="113.000000" x2="163.000000" y2="114.000000" stroke="black" stroke-width="0.1" />
<circle cx="125.000000" cy="149.000000" r="2.500000" fill="none" stroke="black" stroke-width="0.1" />
<circle cx="125.000000" cy="149.000000" r="0.250000" fill="none" stroke="black" stroke-width="0.1" />
<line x1="124.750000" y1="149.000000" x2="124.500000" y2="149.000000" stroke="black" stroke-width="0.1" />
<line x1="125.250000" y1="149.000000" x2="125.500000" y2="149.000000" stroke="black" stroke-width="0.1" />
<line x1="125.000000" y1="148.750000" x2="125.000000" y2="148.500000" stroke="black" stroke-width="0.1" />
<line x1="125.000000" y1="149.250000" x2="125.000000" y2="149.500000" stroke="black" stroke-width="0.1" />
<line x1="122.000000" y1="149.000000" x2="123.000000" y2="149.000000" stroke="black" stroke-width="0.1" />
<line x1="127.000000" y1="149.000000" x2="128.000000" y2="149.000000" stroke="black" stroke-width="0.1" />
<line x1="125.000000" y1="146.000000" x2="125.000000" y2="147.000000" stroke="black" stroke-width="0.1" />
<line x1="125.000000" y1="151.000000" x2="125.000000" y2="152.000000" stroke="black" stroke-width="0.1" />
<circle cx="163.000000" cy="149.000000" r="2.500000" fill="none" stroke="black" stroke-width="0.1" />
<circle cx="163.000000" cy="149.000000" r="0.250000" fill="none" stroke="black" stroke-width="0.1" />
<line x1="162.750000" y1="149.000000" x2="162.500000" y2="149.000000" stroke="black" stroke-width="0.1" />
<line x1="163.250000" y1="149.000000" x2="163.500000" y2="149.000000" stroke="black" stroke-width="0.1" />
<line x1="163.000000" y1="148.750000" x2="163.000000" y2="148.500000" stroke="black" stroke-width="0.1" />
<line x1="163.000000" y1="149.250000" x2="163.000000" y2="149.500000" stroke="black" stroke-width="0.1" />
<line x1="160.000000" y1="149.000000" x2="161.000000" y2="149.000000" stroke="black" stroke-width="0.1" />
<line x1="165.000000" y1="149.000000" x2="166.000000" y2="149.000000" stroke="black" stroke-width="0.1" />
<line x1="163.000000" y1="146.000000" x2="163.000000" y2="147.000000" stroke="black" stroke-width="0.1" />
<line x1="163.000000" y1="151.000000" x2="163.000000" y2="152.000000" stroke="black" stroke-width="0.1" />
<circle cx="125.000000" cy="187.000000" r="2.500000" fill="none" stroke="black" stroke-width="0.1" />
<circle cx="125.000000" cy="187.000000" r="0.250000" fill="none" stroke="black" stroke-width="0.1" />
<line x1="124.750000" y1="187.000000" x2="124.500000" y2="187.000000" stroke="black" stroke-width="0.1" />
<line x1="125.250000" y1="187.000000" x2="125.500000" y2="187.000000" stroke="black" stroke-width="0.1" />
<line x1="125.000000" y1="186.750000" x2="125.000000" y2="186.500000" stroke="black" stroke-width="0.1" />
<line x1="125.000000" y1="187.250000" x2="125.000000" y2="187.500000" stroke="black" stroke-width="0.1" />
<line x1="122.000000" y1="187.000000" x2="123.000000" y2="187.000000" stroke="black" stroke-width="0.1" />
<line x1="127.000000" y1="187.000000" x2="128.000000" y2="187.000000" stroke="black" stroke-width="0.1" />
<line x1="125.000000" y1="184.000000" x2="125.000000" y2="185.000000" stroke="black" stroke-width="0.1" />
<line x1="125.000000" y1="189.000000" x2="125.000000" y2="190.000000" stroke="black" stroke-width="0.1" />
<circle cx="163.000000" cy="187.000000" r="2.500000" fill="none" stroke="black" stroke-width="0.1" />
<circle cx="163.000000" cy="187.000000" r="0.250000" fill="none" stroke="black" stroke-width="0.1" />
<line x1="162.750000" y1="187.000000" x2="162.500000" y2="187.000000" stroke="black" stroke-width="0.1" />
<line x1="163.250000" y1="187.000000" x2="163.500000" y2="187.000000" stroke="black" stroke-width="0.1" />
<line x1="163.000000" y1="186.750000" x2="163.000000" y2="186.500000" stroke="black" stroke-width="0.1" />
<line x1="163.000000" y1="187.250000" x2="163.000000" y2="187.500000" stroke="black" stroke-width="0.1" />
<line x1="160.000000" y1="187.000000" x2="161.000000" y2="187.000000" stroke="black" stroke-width="0.1" />
<line x1="165.000000" y1="187.000000" x2="166.000000" y2="187.000000" stroke="black" stroke-width="0.1" />
<line x1="163.000000" y1="184.000000" x2="163.000000" y2="185.000000" stroke="black" stroke-width="0.1" />
<line x1="163.000000" y1="189.000000" x2="163.000000" y2="190.000000" stroke="black" stroke-width="0.1" />
<circle cx="125.000000" cy="187.000000" r="2.500000" fill="none" stroke="black" stroke-width="0.1" />
<circle cx="125.000000" cy="187.000000" r="0.250000" fill="none" stroke="black" stroke-width="0.1" />
<line x1="124.750000" y1="187.000000" x2="124.500000" y2="187.000000" stroke="black" stroke-width="0.1" />
<line x1="125.250000" y1="187.000000" x2="125.500000" y2="187.000000" stroke="black" stroke-width="0.1" />
<line x1="125.000000" y1="186.750000" x2="125.000000" y2="186.500000" stroke="black" stroke-width="0.1" />
<line x1="125.000000" y1="187.250000" x2="125.000000" y2="187.500000" stroke="black" stroke-width="0.1" />
<line x1="122.000000" y1="187.000000" x2="123.000000" y2="187.000000" stroke="black" stroke-width="0.1" />
<line x1="127.000000" y1="187.000000" x2="128.000000" y2="187.000000" stroke="black" stroke-width="0.1" />
<line x1="125.000000" y1="184.000000" x2="125.000000" y2="185.000000" stroke="black" stroke-width="0.1" />
<line x1="125.000000" y1="189.000000" x2="125.000000" y2="190.000000" stroke="black" stroke-width="0.1" />
<circle cx="163.000000" cy="187.000000" r="2.500000" fill="none" stroke="black" stroke-width="0.1" />
<circle cx="163.000000" cy="187.000000" r="0.250000" fill="none" stroke="black" stroke-width="0.1" />
<line x1="162.750000" y1="187.000000" x2="162.500000" y2="187.000000" stroke="black" stroke-width="0.1" />
<line x1="163.250000" y1="187.000000" x2="163.500000" y2="187.000000" stroke="black" stroke-width="0.1" />
<line x1="163.000000" y1="186.750000" x2="163.000000" y2="186.500000" stroke="black" stroke-width="0.1" />
<line x1="163.000000" y1="187.250000" x2="163.000000" y2="187.500000" stroke="black" stroke-width="0.1" />
<line x1="160.000000" y1="187.000000" x2="161.000000" y2="187.000000" stroke="black" stroke-width="0.1" />
<line x1="165.000000" y1="187.000000" x2="166.000000" y2="187.000000" stroke="black" stroke-width="0.1" />
<line x1="163.000000" y1="184.000000" x2="163.000000" y2="185.000000" stroke="black" stroke-width="0.1" />
<line x1="163.000000" y1="189.000000" x2="163.000000" y2="190.000000" stroke="black" stroke-width="0.1" />
<circle cx="144.000000" cy="187.000000" r="2.500000" fill="none" stroke="black" stroke-width="0.1" />
<circle cx="144.000000" cy="187.000000" r="0.250000" fill="none" stroke="black" stroke-width="0.1" />
<line x1="143.750000" y1="187.000000" x2="143.500000" y2="187.000000" stroke="black" stroke-width="0.1" />
<line x1="144.250000" y1="187.000000" x2="144.500000" y2="187.000000" stroke="black" stroke-width="0.1" />
<line x1="144.000000" y1="186.750000" x2="144.000000" y2="186.500000" stroke="black" stroke-width="0.1" />
<line x1="144.000000" y1="187.250000" x2="144.000000" y2="187.500000" stroke="black" stroke-width="0.1" />
<line x1="141.000000" y1="187.000000" x2="142.000000" y2="187.000000" stroke="black" stroke-width="0.1" />
<line x1="146.000000" y1="187.000000" x2="147.000000" y2="187.000000" stroke="black" stroke-width="0.1" />
<line x1="144.000000" y1="184.000000" x2="144.000000" y2="185.000000" stroke="black" stroke-width="0.1" />
<line x1="144.000000" y1="189.000000" x2="144.000000" y2="190.000000" stroke="black" stroke-width="0.1" />
<circle cx="48.000000" cy="80.000000" r="2.500000" fill="none" stroke="black" stroke-width="0.1" />
<circle cx="48.000000" cy="80.000000" r="0.250000" fill="none" stroke="black" stroke-width="0.1" />
<line x1="47.750000" y1="80.000000" x2="47.500000" y2="80.000000" stroke="black" stroke-width="0.1" />
<line x1="48.250000" y1="80.000000" x2="48.500000" y2="80.000000" stroke="black" stroke-width="0.1" />
<line x1="48.000000" y1="79.750000" x2="48.000000" y2="79.500000" stroke="black" stroke-width="0.1" />
<line x1="48.000000" y1="80.250000" x2="48.000000" y2="80.500000" stroke="black" stroke-width="0.1" />
<line x1="45.000000" y1="80.000000" x2="46.000000" y2="80.000000" stroke="black" stroke-width="0.1" />
<line x1="50.000000" y1="80.000000" x2="51.000000" y2="80.000000" stroke="black" stroke-width="0.1" />
<line x1="48.000000" y1="77.000000" x2="48.000000" y2="78.000000" stroke="black" stroke-width="0.1" />
<line x1="48.000000" y1="82.000000" x2="48.000000" y2="83.000000" stroke="black" stroke-width="0.1" />
<circle cx="48.000000" cy="118.000000" r="2.500000" fill="none" stroke="black" stroke-width="0.1" />
<circle cx="48.000000" cy="118.000000" r="0.250000" fill="none" stroke="black" stroke-width="0.1" />
<line x1="47.750000" y1="118.000000" x2="47.500000" y2="118.000000" stroke="black" stroke-width="0.1" />
<line x1="48.250000" y1="118.000000" x2="48.500000" y2="118.000000" stroke="black" stroke-width="0.1" />
<line x1="48.000000" y1="117.750000" x2="48.000000" y2="117.500000" stroke="black" stroke-width="0.1" />
<line x1="48.000000" y1="118.250000" x2="48.000000" y2="118.500000" stroke="black" stroke-width="0.1" />
<line x1="45.000000" y1="118.000000" x2="46.000000" y2="118.000000" stroke="black" stroke-width="0.1" />
<line x1="50.000000" y1="118.000000" x2="51.000000" y2="118.000000" stroke="black" stroke-width="0.1" />
<line x1="48.000000" y1="115.000000" x2="48.000000" y2="116.000000" stroke="black" stroke-width="0.1" />
<line x1="48.000000" y1="120.000000" x2="48.000000" y2="121.000000" stroke="black" stroke-width="0.1" />
<text x="73.000000" y="25.000000" font-family="Arial" font-size="4" text-anchor="middle" dominant-baseline="middle" transform="rotate(90 73.000000 25.000000)" >Mid Sole Mount Line</text>
<text x="169.000000" y="235.000000" font-family="Arial" font-size="4" text-anchor="middle" dominant-baseline="middle" transform="rotate(90 169.000000 235.000000)" >Mid Sole Mount Line</text>
<text x="43.000000" y="235.000000" font-family="Arial" font-size="4" text-anchor="middle" dominant-baseline="middle" transform="rotate(90 43.000000 235.000000)" >Ski Center Line</text>
<text x="139.000000" y="25.000000" font-family="Arial" font-size="4" text-anchor="middle" dominant-baseline="middle" transform="rotate(90 139.000000 25.000000)" >Ski Center Line</text>
</svg>