<?xml version="1.0"?>
<!DOCTYPE svg PUBLIC "-//W3C//DTD SVG 1.1//EN"
"http://www.w3.org/Graphics/SVG/1.1/DTD/svg11.dtd">
<svg xmlns="http://www.w3.org/2000/svg" version="1.2" width="192.000000mm" height="259.000000mm" viewBox="0 0 192.000000 259.000000" style="background-color:white" >
<line x1="48.000000" y1="0.000000" x2="48.000000" y2="259.000000" stroke="black" stroke-width="0.1" />
<line x1="144.000000" y1="0.000000" x2="144.000000" y2="259.000000" stroke="black" stroke-width="0.1" />
<line x1="104.000000" y1="255.000000" x2="184.000000" y2="255.000000" stroke="black" stroke-width="0.1" />
<line x1="8.000000" y1="5.000000" x2="88.000000" y2="5.000000" stroke="black" stroke-width="0.1" />
<line x1="96.000000" y1="0.000000" x2="96.000000" y2="259.000000" stroke="black" stroke-width="0.1" stroke-dasharray="2 2" />
<line x1="0.000000" y1="259.000000" x2="96.000000" y2="259.000000" stroke="black" stroke-width="0.1" stroke-dasharray="2 2" />
<line x1="96.000000" y1="0.000000" x2="192.000000" y2="0.000000" stroke="black" stroke-width="0.1" stroke-dasharray="2 2" />
<line x1="48.000000" y1="7.000000" x2="41.000000" y2="0.000000" stroke="black" stroke-width="0.1" stroke-dasharray="2 2" />
<line x1="48.000000" y1="7.000000" x2="55.000000" y2="0.000000" stroke="black" stroke-width="0.1" stroke-dasharray="2 2" />
<line x1="144.000000" y1="253.000000" x2="138.000000" y2="259.000000" stroke="black" stroke-width="0.1" stroke-dasharray="2 2" />
<line x1="144.000000" y1="253.000000" x2="150.000000" y2="259.000000" stroke="black" stroke-width="0.1" stroke-dasharray="2 2" />
<text x="83.000000" y="130.000000" font-family="Arial" font-size="8" text-anchor="middle" dominant-baseline="middle" transform="rotate(90 83.000000 130.000000)" >Bishop BMF NTN 306, Heel</text>
<text x="179.000000" y="130.000000" font-family="Arial" font-size="8" text-anchor="middle" dominant-baseline="middle" transform="rotate(90 179.000000 130.000000)" >Bishop BMF NTN 306, Toe</text>
<line x1="104.000000" y1="203.000000" x2="104.000000" y2="255.000000" stroke="black" stroke-width="0.1" />
<line x1="101.500000" y1="203.000000" x2="106.500000" y2="203.000000" stroke="black" stroke-width="0.1" />
<line x1="104.000000" y1="203.000000" x2="101.500000" y2="205.500000" stroke="black" stroke-width="0.1" />
<line x1="104.000000" y1="203.000000" x2="106.500000" y2="205.500000" stroke="black" stroke-width="0.1" />
<line x1="101.500000" y1="255.000000" x2="106.500000" y2="255.000000" stroke="black" stroke-width="0.1" />
<line x1="104.000000" y1="255.000000" x2="101.500000" y2="252.500000" stroke="black" stroke-width="0.1" />
<line x1="104.000000" y1="255.000000" x2="106.500000" y2="252.500000" stroke="black" stroke-width="0.1" />
<text x="106.500000" y="229.000000" font-family="Arial" font-size="4" text-anchor="middle" dominant-baseline="middle" transform="rotate(90 106.500000 229.000000)" >52.0 mm</text>
<line x1="114.000000" y1="203.000000" x2="114.000000" y2="203.000000" stroke="black" stroke-width="0.1" />
<line x1="111.500000" y1="203.000000" x2="116.500000" y2="203.000000" stroke="black" stroke-width="0.1" />
<line x1="114.000000" y1="203.000000" x2="111.500000" y2="205.500000" stroke="black" stroke-width="0.1" />
<line x1="114.000000" y1="203.000000" x2="116.500000" y2="205.500000" stroke="black" stroke-width="0.1" />
<line x1="111.500000" y1="203.000000" x2="116.500000" y2="203.000000" stroke="black" stroke-width="0.1" />
<line x1="114.000000" y1="203.000000" x2="111.500000" y2="200.500000" stroke="black" stroke-width="0.1" />
<line x1="114.000000" y1="203.000000" x2="116.500000" y2="200.500000" stroke="black" stroke-width="0.1" />
<text x="116.500000" y="203.000000" font-family="Arial" font-size="4" text-anchor="middle" dominant-baseline="middle" transform="rotate(90 116.500000 203.000000)" >0.0 mm</text>
<line x1="104.000000" y1="203.000000" x2="104.000000" y2="203.000000" stroke="black" stroke-width="0.1" />
<line x1="101.500000" y1="203.000000" x2="106.500000" y2="203.000000" stroke="black" stroke-width="0.1" />
<line x1="104.000000" y1="203.000000" x2="101.500000" y2="205.500000" stroke="black" stroke-width="0.1" />
<line x1="104.000000" y1="203.000000" x2="106.500000" y2="205.500000" stroke="black" stroke-width="0.1" />
<line x1="101.500000" y1="203.000000" x2="106.500000" y2="203.000000" stroke="black" stroke-width="0.1" />
<line x1="104.000000" y1="203.000000" x2="101.500000" y2="200.500000" stroke="black" stroke-width="0.1" />
<line x1="104.000000" y1="203.000000" x2="106.500000" y2="200.500000" stroke="black" stroke-width="0.1" />
<text x="106.500000" y="203.000000" font-family="Arial" font-size="4" text-anchor="middle" dominant-baseline="middle" transform="rotate(90 106.500000 203.000000)" >0.0 mm</text>
<line x1="114.000000" y1="165.000000" x2="114.000000" y2="203.000000" stroke="black" stroke-width="0.1" />
<line x1="111.500000" y1="165.000000" x2="116.500000" y2="165.000000" stroke="black" stroke-width="0.1" />
<line x1="114.000000" y1="165.000000" x2="111.500000" y2="167.500000" stroke="black" stroke-width="0.1" />
<line x1="114.000000" y1="165.000000" x2="116.500000" y2="167.500000" stroke="black" stroke-width="0.1" />
<line x1="111.500000" y1="203.000000" x2="116.500000" y2="203.000000" stroke="black" stroke-width="0.1" />
<line x1="114.000000" y1="203.000000" x2="111.500000" y2="200.500000" stroke="black" stroke-width="0.1" />
<line x1="114.000000" y1="203.000000" x2="116.500000" y2="200.500000" stroke="black" stroke-width="0.1" />
<text x="116.500000" y="184.000000" font-family="Arial" font-size="4" text-anchor="middle" dominant-baseline="middle" transform="rotate(90 116.500000 184.000000)" >38.0 mm</text>
<line x1="104.000000" y1="127.000000" x2="104.000000" y2="165.000000" stroke="black" stroke-width="0.1" />
<line x1="101.500000" y1="127.000000" x2="106.500000" y2="127.000000" stroke="black" stroke-width="0.1" />
<line x1="104.000000" y1="127.000000" x2="101.500000" y2="129.500000" stroke="black" stroke-width="0.1" />
<line x1="104.000000" y1="127.000000" x2="106.500000" y2="129.500000" stroke="black" stroke-width="0.1" />
<line x1="101.500000" y1="165.000000" x2="106.500000" y2="165.000000" stroke="black" stroke-width="0.1" />
<line x1="104.000000" y1="165.000000" x2="101.500000" y2="162.500000" stroke="black" stroke-width="0.1" />
<line x1="104.000000" y1="165.000000" x2="106.500000" y2="162.500000" stroke="black" stroke-width="0.1" />
<text x="106.500000" y="146.000000" font-family="Arial" font-size="4" text-anchor="middle" dominant-baseline="middle" transform="rotate(90 106.500000 146.000000)" >38.0 mm</text>
<line x1="8.000000" y1="5.000000" x2="8.000000" y2="96.000000" stroke="black" stroke-width="0.1" />
<line x1="5.500000" y1="5.000000" x2="10.500000" y2="5.000000" stroke="black" stroke-width="0.1" />
<line x1="8.000000" y1="5.000000" x2="5.500000" y2="7.500000" stroke="black" stroke-width="0.1" />
<line x1="8.000000" y1="5.000000" x2="10.500000" y2="7.500000" stroke="black" stroke-width="0.1" />
<line x1="5.500000" y1="96.000000" x2="10.500000" y2="96.000000" stroke="black" stroke-width="0.1" />
<line x1="8.000000" y1="96.000000" x2="5.500000" y2="93.500000" stroke="black" stroke-width="0.1" />
<line x1="8.000000" y1="96.000000" x2="10.500000" y2="93.500000" stroke="black" stroke-width="0.1" />
<text x="10.500000" y="50.500000" font-family="Arial" font-size="4" text-anchor="middle" dominant-baseline="middle" transform="rotate(90 10.500000 50.500000)" >91.0 mm</text>
<line x1="18.000000" y1="96.000000" x2="18.000000" y2="134.000000" stroke="black" stroke-width="0.1" />
<line x1="15.500000" y1="96.000000" x2="20.500000" y2="96.000000" stroke="black" stroke-width="0.1" />
<line x1="18.000000" y1="96.000000" x2="15.500000" y2="98.500000" stroke="black" stroke-width="0.1" />
<line x1="18.000000" y1="96.000000" x2="20.500000" y2="98.500000" stroke="black" stroke-width="0.1" />
<line x1="15.500000" y1="134.000000" x2="20.500000" y2="134.000000" stroke="black" stroke-width="0.1" />
<line x1="18.000000" y1="134.000000" x2="15.500000" y2="131.500000" stroke="black" stroke-width="0.1" />
<line x1="18.000000" y1="134.000000" x2="20.500000" y2="131.500000" stroke="black" stroke-width="0.1" />
<text x="20.500000" y="115.000000" font-family="Arial" font-size="4" text-anchor="middle" dominant-baseline="middle" transform="rotate(90 20.500000 115.000000)" >38.0 mm</text>
<line x1="125.000000" y1="117.000000" x2="163.000000" y2="117.000000" stroke="black" stroke-width="0.1" />
<line x1="125.000000" y1="114.500000" x2="125.000000" y2="119.500000" stroke="black" stroke-width="0.1" />
<line x1="125.000000" y1="117.000000" x2="127.500000" y2="119.500000" stroke="black" stroke-width="0.1" />
<line x1="125.000000" y1="117.000000" x2="127.500000" y2="114.500000" stroke="black" stroke-width="0.1" />
<line x1="163.000000" y1="114.500000" x2="163.000000" y2="119.500000" stroke="black" stroke-width="0.1" />
<line x1="163.000000" y1="117.000000" x2="160.500000" y2="119.500000" stroke="black" stroke-width="0.1" />
<line x1="163.000000" y1="117.000000" x2="160.500000" y2="114.500000" stroke="black" stroke-width="0.1" />
<text x="149.000000" y="107.000000" font-family="Arial" font-size="4" text-anchor="middle" dominant-baseline="middle" transform="rotate(90 149.000000 107.000000)" >38.0 mm</text>
<line x1="125.000000" y1="155.000000" x2="163.000000" y2="155.000000" stroke="black" stroke-width="0.1" />
<line x1="125.000000" y1="152.500000" x2="125.000000" y2="157.500000" stroke="black" stroke-width="0.1" />
<line x1="125.000000" y1="155.000000" x2="127.500000" y2="157.500000" stroke="black" stroke-width="0.1" />
<line x1="125.000000" y1="155.000000" x2="127.500000" y2="152.500000" stroke="black" stroke-width="0.1" />
<line x1="163.000000" y1="152.500000" x2="163.000000" y2="157.500000" stroke="black" stroke-width="0.1" />
<line x1="163.000000" y1="155.000000" x2="160.500000" y2="157.500000" stroke="black" stroke-width="0.1" />
<line x1="163.000000" y1="155.000000" x2="160.500000" y2="152.500000" stroke="black" stroke-width="0.1" />
<text x="149.000000" y="145.000000" font-family="Arial" font-size="4" text-anchor="middle" dominant-baseline="middle" transform="rotate(90 149.000000 145.000000)" >38.0 mm</text>
<line x1="125.000000" y1="193.000000" x2="163.000000" y2="193.000000" stroke="black" stroke-width="0.1" />
<line x1="125.000000" y1="190.500000" x2="125.000000" y2="195.500000" stroke="black" stroke-width="0.1" />
<line x1="125.000000" y1="193.000000" x2="127.500000" y2="195.500000" stroke="black" stroke-width="0.1" />
<line x1="125.000000" y1="193.000000" x2="127.500000" y2="190.500000" stroke="black" stroke-width="0.1" />
<line x1="163.000000" y1="190.500000" x2="163.000000" y2="195.500000" stroke="black" stroke-width="0.1" />
<line x1="163.000000" y1="193.000000" x2="160.500000" y2="195.500000" stroke="black" stroke-width="0.1" />
<line x1="163.000000" y1="193.000000" x2="160.500000" y2="190.500000" stroke="black" stroke-width="0.1" />
<text x="149.000000" y="183.000000" font-family="Arial" font-size="4" text-anchor="middle" dominant-baseline="middle" transform="rotate(90 149.000000 183.000000)" >38.0 mm</text>
<line x1="125.000000" y1="193.000000" x2="163.000000" y2="193.000000" stroke="black" stroke-width="0.1" />
<line x1="125.000000" y1="190.500000" x2="125.000000" y2="195.500000" stroke="black" stroke-width="0.1" />
<line x1="125.000000" y1="193.000000" x2="127.500000" y2="195.500000" stroke="black" stroke-width="0.1" />
<line x1="125.000000" y1="193.000000" x2="127.500000" y2="190.500000" stroke="black" stroke-width="0.1" />
<line x1="163.000000" y1="190.500000" x2="163.000000" y2="195.500000" stroke="black" stroke-width="0.1" />
<line x1="163.000000" y1="193.000000" x2="160.500000" y2="195.500000" stroke="black" stroke-width="0.1" />
<line x1="163.000000" y1="193.000000" x2="160.500000" y2="190.500000" stroke="black" stroke-width="0.1" />
<text x="149.000000" y="183.000000" font-family="Arial" font-size="4" text-anchor="middle" dominant-baseline="middle" transform="rotate(90 149.000000 183.000000)" >38.0 mm</text>
<circle cx="125.000000" cy="127.000000" r="2.500000" fill="none" stroke="black" stroke-width="0.1" />
<circle cx="125.000000" cy="127.000000" r="0.250000" fill="none" stroke="black" stroke-width="0.1" />
<line x1="124.750000" y1="127.000000" x2="124.500000" y2="127.000000" stroke="black" stroke-width="0.1" />
<line x1="125.250000" y1="127.000000" x2="125.500000" y2="127.000000" stroke="black" stroke-width="0.1" />
<line x1="125.000000" y1="126.750000" x2="125.000000" y2="126.500000" stroke="black" stroke-width="0.1" />
<line x1="125.000000" y1="127.250000" x2="125.000000" y2="127.500000" stroke="black" stroke-width="0.1" />
<line x1="122.000000" y1="127.000000" x2="123.000000" y2="127.000000" stroke="black" stroke-width="0.1" />
<line x1="127.000000" y1="127.000000" x2="128.000000" y2="127.000000" stroke="black" stroke-width="0.1" />
<line x1="125.000000" y1="124.000000" x2="125.000000" y2="125.000000" stroke="black" stroke-width="0.1" />
<line x1="125.000000" y1="129.000000" x2="125.000000" y2="130.000000" stroke="black" stroke-width="0.1" />
<circle cx="163.000000" cy="127.000000" r="2.500000" fill="none" stroke="black" stroke-width="0.1" />
<circle cx="163.000000" cy="127.000000" r="0.250000" fill="none" stroke="black" stroke-width="0.1" />
<line x1="162.750000" y1="127.000000" x2="162.500000" y2="127.000000" stroke="black" stroke-width="0.1" />
<line x1="163.250000" y1="127.000000" x2="163.500000" y2="127.000000" stroke="black" stroke-width="0.1" />
<line x1="163.000000" y1="126.750000" x2="163.000000" y2="126.500000" stroke="black" stroke-width="0.1" />
<line x1="163.000000" y1="127.250000" x2="163.000000" y2="127.500000" stroke="black" stroke-width="0.1" />
<line x1="160.000000" y1="127.000000" x2="161.000000" y2="127.000000" stroke="black" stroke-width="0.1" />
<line x1="165.000000" y1="127.000000" x2="166.000000" y2="127.000000" stroke="black" stroke-width="0.1" />
<line x1="163.000000" y1="124.000000" x2="163.000000" y2="125.000000" stroke="black" stroke-width="0.1" />
<line x1="163.000000" y1="129.000000" x2="163.000000" y2="130.000000" stroke="black" stroke-width="0.1" />
<circle cx="125.000000" cy="165.000000" r="2.500000" fill="none" stroke="black" stroke-width="0.1" />
<circle cx="125.000000" cy="165.000000" r="0.250000" fill="none" stroke="black" stroke-width="0.1" />
<line x1="124.750000" y1="165.000000" x2="124.500000" y2="165.000000" stroke="black" stroke-width="0.1" />
<line x1="125.250000" y1="165.000000" x2="125.500000" y2="165.000000" stroke="black" stroke-width="0.1" />
<line x1="125.000000" y1="164.750000" x2="125.000000" y2="164.500000" stroke="black" stroke-width="0.1" />
<line x1="125.000000" y1="165.250000" x2="125.000000" y2="165.500000" stroke="black" stroke-width="0.1" />
<line x1="122.000000" y1="165.000000" x2="123.000000" y2="165.000000" stroke="black" stroke-width="0.1" />
<line x1="127.000000" y1="165.000000" x2="128.000000" y2="165.000000" stroke="black" stroke-width="0.1" />
<line x1="125.000000" y1="162.000000" x2="125.000000" y2="163.000000" stroke="black" stroke-width="0.1" />
<line x1="125.000000" y1="167.000000" x2="125.000000" y2="168.000000" stroke="black" stroke-width="0.1" />
<circle cx="163.000000" cy="165.000000" r="2.500000" fill="none" stroke="black" stroke-width="0.1" />
<circle cx="163.000000" cy="165.000000" r="0.250000" fill="none" stroke="black" stroke-width="0.1" />
<line x1="162.750000" y1="165.000000" x2="162.500000" y2="165.000000" stroke="black" stroke-width="0.1" />
<line x1="163.250000" y1="165.000000" x2="163.500000" y2="165.000000" stroke="black" stroke-width="0.1" />
<line x1="163.000000" y1="164.750000" x2="163.000000" y2="164.500000" stroke="black" stroke-width="0.1" />
<line x1="163.000000" y1="165.250000" x2="163.000000" y2="165.500000" stroke="black" stroke-width="0.1" />
<line x1="160.000000" y1="165.000000" x2="161.000000" y2="165.000000" stroke="black" stroke-width="0.1" />
<line x1="165.000000" y1="165.000000" x2="166.000000" y2="165.000000" stroke="black" stroke-width="0.1" />
<line x1="163.000000" y1="162.000000" x2="163.000000" y2="163.000000" stroke="black" stroke-width="0.1" />
<line x1="163.000000" y1="167.000000" x2="163.000000" y2="168.000000" stroke="black" stroke-width="0.1" />
<circle cx="125.000000" cy="203.000000" r="2.500000" fill="none" stroke="black" stroke-width="0.1" />
<circle cx="125.000000" cy="203.000000" r="0.250000" fill="none" stroke="black" stroke-width="0.1" />
<line x1="124.750000" y1="203.000000" x2="124.500000" y2="203.000000" stroke="black" stroke-width="0.1" />
<line x1="125.250000" y1="203.000000" x2="125.500000" y2="203.000000" stroke="black" stroke-width="0.1" />
<line x1="125.000000" y1="202.750000" x2="125.000000" y2="202.500000" stroke="black" stroke-width="0.1" />
<line x1="125.000000" y1="203.250000" x2="125.000000" y2="203.500000" stroke="black" stroke-width="0.1" />
<line x1="122.000000" y1="203.000000" x2="123.000000" y2="203.000000" stroke="black" stroke-width="0.1" />
<line x1="127.000000" y1="203.000000" x2="128.000000" y2="203.000000" stroke="black" stroke-width="0.1" />
<line x1="125.000000" y1="200.000000" x2="125.000000" y2="201.000000" stroke="black" stroke-width="0.1" />
<line x1="125.000000" y1="205.000000" x2="125.000000" y2="206.000000" stroke="black" stroke-width="0.1" />
<circle cx="163.000000" cy="203.000000" r="2.500000" fill="none" stroke="black" stroke-width="0.1" />
<circle cx="163.000000" cy="203.000000" r="0.250000" fill="none" stroke="black" stroke-width="0.1" />
<line x1="162.750000" y1="203.000000" x2="162.500000" y2="203.000000" stroke="black" stroke-width="0.1" />
<line x1="163.250000" y1="203.000000" x2="163.500000" y2="203.000000" stroke="black" stroke-width="0.1" />
<line x1="163.000000" y1="202.750000" x2="163.000000" y2="202.500000" stroke="black" stroke-width="0.1" />
<line x1="163.000000" y1="203.250000" x2="163.000000" y2="203.500000" stroke="black" stroke-width="0.1" />
<line x1="160.000000" y1="203.000000" x2="161.000000" y2="203.000000" stroke="black" stroke-width="0.1" />
<line x1="165.000000" y1="203.000000" x2="166.000000" y2="203.000000" stroke="black" stroke-width="0.1" />
<line x1="163.000000" y1="200.000000" x2="163.000000" y2="201.000000" stroke="black" stroke-width="0.1" />
<line x1="163.000000" y1="205.000000" x2="163.000000" y2="206.000000" stroke="black" stroke-width="0.1" />
<circle cx="125.000000" cy="203.000000" r="2.500000" fill="none" stroke="black" stroke-width="0.1" />
<circle cx="125.000000" cy="203.000000" r="0.250000" fill="none" stroke="black" stroke-width="0.1" />
<line x1="124.750000" y1="203.000000" x2="124.500000" y2="203.000000" stroke="black" stroke-width="0.1" />
<line x1="125.250000" y1="203.000000" x2="125.500000" y2="203.000000" stroke="black" stroke-width="0.1" />
<line x1="125.000000" y1="202.750000" x2="125.000000" y2="202.500000" stroke="black" stroke-width="0.1" />
<line x1="125.000000" y1="203.250000" x2="125.000000" y2="203.500000" stroke="black" stroke-width="0.1" />
<line x1="122.000000" y1="203.000000" x2="123.000000" y2="203.000000" stroke="black" stroke-width="0.1" />
<line x1="127.000000" y1="203.000000" x2="128.000000" y2="203.000000" stroke="black" stroke-width="0.1" />
<line x1="125.000000" y1="200.000000" x2="125.000000" y2="201.000000" stroke="black" stroke-width="0.1" />
<line x1="125.000000" y1="205.000000" x2="125.000000" y2="206.000000" stroke="black" stroke-width="0.1" />
<circle cx="163.000000" cy="203.000000" r="2.500000" fill="none" stroke="black" stroke-width="0.1" />
<circle cx="163.000000" cy="203.000000" r="0.250000" fill="none" stroke="black" stroke-width="0.1" />
<line x1="162.750000" y1="203.000000" x2="162.500000" y2="203.000000" stroke="black" stroke-width="0.1" />
<line x1="163.250000" y1="203.000000" x2="163.500000" y2="203.000000" stroke="black" stroke-width="0.1" />
<line x1="163.000000" y1="202.750000" x2="163.000000" y2="202.500000" stroke="black" stroke-width="0.1" />
<line x1="163.000000" y1="203.250000" x2="163.000000" y2="203.500000" stroke="black" stroke-width="0.1" />
<line x1="160.000000" y1="203.000000" x2="161.000000" y2="203.000000" stroke="black" stroke-width="0.1" />
<line x1="165.000000" y1="203.000000" x2="166.000000" y2="203.000000" stroke="black" stroke-width="0.1" />
<line x1="163.000000" y1="200.000000" x2="163.000000" y2="201.000000" stroke="black" stroke-width="0.1" />
<line x1="163.000000" y1="205.000000" x2="163.000000" y2="206.000000" stroke="black" stroke-width="0.1" />
<circle cx="144.000000" cy="203.000000" r="2.500000" fill="none" stroke="black" stroke-width="0.1" />
<circle cx="144.000000" cy="203.000000" r="0.250000" fill="none" stroke="black" stroke-width="0.1" />
<line x1="143.750000" y1="203.000000" x2="143.500000" y2="203.000000" stroke="black" stroke-width="0.1" />
<line x1="144.250000" y1="203.000000" x2="144.500000" y2="203.000000" stroke="black" stroke-width="0.1" />
<line x1="144.000000" y1="202.750000" x2="144.000000" y2="202.500000" stroke="black" stroke-width="0.1" />
<line x1="144.000000" y1="203.250000" x2="144.000000" y2="203.500000" stroke="black" stroke-width="0.1" />
<line x1="141.000000" y1="203.000000" x2="142.000000" y2="203.000000" stroke="black" stroke-width="0.1" />
<line x1="146.000000" y1="203.000000" x2="147.000000" y2="203.000000" stroke="black" stroke-width="0.1" />
<line x1="144.000000" y1="200.000000" x2="144.000000" y2="201.000000" stroke="black" stroke-width="0.1" />
<line x1="144.000000" y1="205.000000" x2="144.000000" y2="206.000000" stroke="black" stroke-width="0.1" />
<circle cx="48.000000" cy="96.000000" r="2.500000" fill="none" stroke="black" stroke-width="0.1" />
<circle cx="48.000000" cy="96.000000" r="0.250000" fill="none" stroke="black" stroke-width="0.1" />
<line x1="47.750000" y1="96.000000" x2="47.500000" y2="96.000000" stroke="black" stroke-width="0.1" />
<line x1="48.250000" y1="96.000000" x2="48.500000" y2="96.000000" stroke="black" stroke-width="0.1" />
<line x1="48.000000" y1="95.750000" x2="48.000000" y2="95.500000" stroke="black" stroke-width="0.1" />
<line x1="48.000000" y1="96.250000" x2="48.000000" y2="96.500000" stroke="black" stroke-width="0.1" />
<line x1="45.000000" y1="96.000000" x2="46.000000" y2="96.000000" stroke="black" stroke-width="0.1" />
<line x1="50.000000" y1="96.000000" x2="51.000000" y2="96.000000" stroke="black" stroke-width="0.1" />
<line x1="48.000000" y1="93.000000" x2="48.000000" y2="94.000000" stroke="black" stroke-width="0.1" />
<line x1="48.000000" y1="98.000000" x2="48.000000" y2="99.000000" stroke="black" stroke-width="0.1" />
<circle cx="48.000000" cy="134.000000" r="2.500000" fill="none" stroke="black" stroke-width="0.1" />
<circle cx="48.000000" cy="134.000000" r="0.250000" fill="none" stroke="black" stroke-width="0.1" />
<line x1="47.750000" y1="134.000000" x2="47.500000" y2="134.000000" stroke="black" stroke-width="0.1" />
<line x1="48.250000" y1="134.000000" x2="48.500000" y2="134.000000" stroke="black" stroke-width="0.1" />
<line x1="48.000000" y1="133.750000" x2="48.000000" y2="133.500000" stroke="black" stroke-width="0.1" />
<line x1="48.000000" y1="134.250000" x2="48.000000" y2="134.500000" stroke="black" stroke-width="0.1" />
<line x1="45.000000" y1="134.000000" x2="46.000000" y2="134.000000" stroke="black" stroke-width="0.1" />
<line x1="50.000000" y1="134.000000" x2="51.000000" y2="134.000000" stroke="black" stroke-width="0.1" />
<line x1="48.000000" y1="131.000000" x2="48.000000" y2="132.000000" stroke="black" stroke-width="0.1" />
<line x1="48.000000" y1="136.000000" x2="48.000000" y2="137.000000" stroke="black" stroke-width="0.1" />
<text x="73.000000" y="25.000000" font-family="Arial" font-size="4" text-anchor="middle" dominant-baseline="middle" transform="rotate(90 73.000000 25.000000)" >Mid Sole Mount Line</text>
<text x="169.000000" y="235.000000" font-family="Arial" font-size="4" text-anchor="middle" dominant-baseline="middle" transform="rotate(90 169.000000 235.000000)" >Mid Sole Mount Line</text>
<text x="43.000000" y="235.000000" font-family="Arial" font-size="4" text-anchor="middle" dominant-baseline="middle" transform="rotate(90 43.000000 235.000000)" >Ski Center Line</text>
<text x="139.000000" y="25.000000" font-family="Arial" font-size="4" text-anchor="middle" dominant-baseline="middle" transform="rotate(90 139.000000 25.000000)" >Ski Center Line</text>
</svg>