<?xml version="1.0"?>
<!DOCTYPE svg PUBLIC "-//W3C//DTD SVG 1.1//EN"
"http://www.w3.org/Graphics/SVG/1.1/DTD/svg11.dtd">
<svg xmlns="http://www.w3.org/2000/svg" version="1.2" width="192.000000mm" height="259.000000mm" viewBox="0 0 192.000000 259.000000" style="background-color:white" >
<line x1="48.000000" y1="0.000000" x2="48.000000" y2="259.000000" stroke="black" stroke-width="0.1" />
<line x1="144.000000" y1="0.000000" x2="144.000000" y2="259.000000" stroke="black" stroke-width="0.1" />
<line x1="104.000000" y1="255.000000" x2="184.000000" y2="255.000000" stroke="black" stroke-width="0.1" />
<line x1="8.000000" y1="5.000000" x2="88.000000" y2="5.000000" stroke="black" stroke-width="0.1" />
<line x1="96.000000" y1="0.000000" x2="96.000000" y2="259.000000" stroke="black" stroke-width="0.1" stroke-dasharray="2 2" />
<line x1="0.000000" y1="259.000000" x2="96.000000" y2="259.000000" stroke="black" stroke-width="0.1" stroke-dasharray="2 2" />
<line x1="96.000000" y1="0.000000" x2="192.000000" y2="0.000000" stroke="black" stroke-width="0.1" stroke-dasharray="2 2" />
<line x1="48.000000" y1="7.000000" x2="41.000000" y2="0.000000" stroke="black" stroke-width="0.1" stroke-dasharray="2 2" />
<line x1="48.000000" y1="7.000000" x2="55.000000" y2="0.000000" stroke="black" stroke-width="0.1" stroke-dasharray="2 2" />
<line x1="144.000000" y1="253.000000" x2="138.000000" y2="259.000000" stroke="black" stroke-width="0.1" stroke-dasharray="2 2" />
<line x1="144.000000" y1="253.000000" x2="150.000000" y2="259.000000" stroke="black" stroke-width="0.1" stroke-dasharray="2 2" />
<text x="83.000000" y="130.000000" font-family="Arial" font-size="8" text-anchor="middle" dominant-baseline="middle" transform="rotate(90 83.000000 130.000000)" >Bishop BMF NTN 342, Heel</text>
<text x="179.000000" y="130.000000" font-family="Arial" font-size="8" text-anchor="middle" dominant-baseline="middle" transform="rotate(90 179.000000 130.000000)" >Bishop BMF NTN 342, Toe</text>
<line x1="104.000000" y1="185.000000" x2="104.000000" y2="255.000000" stroke="black" stroke-width="0.1" />
<line x1="101.500000" y1="185.000000" x2="106.500000" y2="185.000000" stroke="black" stroke-width="0.1" />
<line x1="104.000000" y1="185.000000" x2="101.500000" y2="187.500000" stroke="black" stroke-width="0.1" />
<line x1="104.000000" y1="185.000000" x2="106.500000" y2="187.500000" stroke="black" stroke-width="0.1" />
<line x1="101.500000" y1="255.000000" x2="106.500000" y2="255.000000" stroke="black" stroke-width="0.1" />
<line x1="104.000000" y1="255.000000" x2="101.500000" y2="252.500000" stroke="black" stroke-width="0.1" />
<line x1="104.000000" y1="255.000000" x2="106.500000" y2="252.500000" stroke="black" stroke-width="0.1" />
<text x="106.500000" y="220.000000" font-family="Arial" font-size="4" text-anchor="middle" dominant-baseline="middle" transform="rotate(90 106.500000 220.000000)" >70.0 mm</text>
<line x1="114.000000" y1="185.000000" x2="114.000000" y2="185.000000" stroke="black" stroke-width="0.1" />
<line x1="111.500000" y1="185.000000" x2="116.500000" y2="185.000000" stroke="black" stroke-width="0.1" />
<line x1="114.000000" y1="185.000000" x2="111.500000" y2="187.500000" stroke="black" stroke-width="0.1" />
<line x1="114.000000" y1="185.000000" x2="116.500000" y2="187.500000" stroke="black" stroke-width="0.1" />
<line x1="111.500000" y1="185.000000" x2="116.500000" y2="185.000000" stroke="black" stroke-width="0.1" />
<line x1="114.000000" y1="185.000000" x2="111.500000" y2="182.500000" stroke="black" stroke-width="0.1" />
<line x1="114.000000" y1="185.000000" x2="116.500000" y2="182.500000" stroke="black" stroke-width="0.1" />
<text x="116.500000" y="185.000000" font-family="Arial" font-size="4" text-anchor="middle" dominant-baseline="middle" transform="rotate(90 116.500000 185.000000)" >0.0 mm</text>
<line x1="104.000000" y1="185.000000" x2="104.000000" y2="185.000000" stroke="black" stroke-width="0.1" />
<line x1="101.500000" y1="185.000000" x2="106.500000" y2="185.000000" stroke="black" stroke-width="0.1" />
<line x1="104.000000" y1="185.000000" x2="101.500000" y2="187.500000" stroke="black" stroke-width="0.1" />
<line x1="104.000000" y1="185.000000" x2="106.500000" y2="187.500000" stroke="black" stroke-width="0.1" />
<line x1="101.500000" y1="185.000000" x2="106.500000" y2="185.000000" stroke="black" stroke-width="0.1" />
<line x1="104.000000" y1="185.000000" x2="101.500000" y2="182.500000" stroke="black" stroke-width="0.1" />
<line x1="104.000000" y1="185.000000" x2="106.500000" y2="182.500000" stroke="black" stroke-width="0.1" />
<text x="106.500000" y="185.000000" font-family="Arial" font-size="4" text-anchor="middle" dominant-baseline="middle" transform="rotate(90 106.500000 185.000000)" >0.0 mm</text>
<line x1="114.000000" y1="147.000000" x2="114.000000" y2="185.000000" stroke="black" stroke-width="0.1" />
<line x1="111.500000" y1="147.000000" x2="116.500000" y2="147.000000" stroke="black" stroke-width="0.1" />
<line x1="114.000000" y1="147.000000" x2="111.500000" y2="149.500000" stroke="black" stroke-width="0.1" />
<line x1="114.000000" y1="147.000000" x2="116.500000" y2="149.500000" stroke="black" stroke-width="0.1" />
<line x1="111.500000" y1="185.000000" x2="116.500000" y2="185.000000" stroke="black" stroke-width="0.1" />
<line x1="114.000000" y1="185.000000" x2="111.500000" y2="182.500000" stroke="black" stroke-width="0.1" />
<line x1="114.000000" y1="185.000000" x2="116.500000" y2="182.500000" stroke="black" stroke-width="0.1" />
<text x="116.500000" y="166.000000" font-family="Arial" font-size="4" text-anchor="middle" dominant-baseline="middle" transform="rotate(90 116.500000 166.000000)" >38.0 mm</text>
<line x1="104.000000" y1="109.000000" x2="104.000000" y2="147.000000" stroke="black" stroke-width="0.1" />
<line x1="101.500000" y1="109.000000" x2="106.500000" y2="109.000000" stroke="black" stroke-width="0.1" />
<line x1="104.000000" y1="109.000000" x2="101.500000" y2="111.500000" stroke="black" stroke-width="0.1" />
<line x1="104.000000" y1="109.000000" x2="106.500000" y2="111.500000" stroke="black" stroke-width="0.1" />
<line x1="101.500000" y1="147.000000" x2="106.500000" y2="147.000000" stroke="black" stroke-width="0.1" />
<line x1="104.000000" y1="147.000000" x2="101.500000" y2="144.500000" stroke="black" stroke-width="0.1" />
<line x1="104.000000" y1="147.000000" x2="106.500000" y2="144.500000" stroke="black" stroke-width="0.1" />
<text x="106.500000" y="128.000000" font-family="Arial" font-size="4" text-anchor="middle" dominant-baseline="middle" transform="rotate(90 106.500000 128.000000)" >38.0 mm</text>
<line x1="8.000000" y1="5.000000" x2="8.000000" y2="78.000000" stroke="black" stroke-width="0.1" />
<line x1="5.500000" y1="5.000000" x2="10.500000" y2="5.000000" stroke="black" stroke-width="0.1" />
<line x1="8.000000" y1="5.000000" x2="5.500000" y2="7.500000" stroke="black" stroke-width="0.1" />
<line x1="8.000000" y1="5.000000" x2="10.500000" y2="7.500000" stroke="black" stroke-width="0.1" />
<line x1="5.500000" y1="78.000000" x2="10.500000" y2="78.000000" stroke="black" stroke-width="0.1" />
<line x1="8.000000" y1="78.000000" x2="5.500000" y2="75.500000" stroke="black" stroke-width="0.1" />
<line x1="8.000000" y1="78.000000" x2="10.500000" y2="75.500000" stroke="black" stroke-width="0.1" />
<text x="10.500000" y="41.500000" font-family="Arial" font-size="4" text-anchor="middle" dominant-baseline="middle" transform="rotate(90 10.500000 41.500000)" >73.0 mm</text>
<line x1="18.000000" y1="78.000000" x2="18.000000" y2="116.000000" stroke="black" stroke-width="0.1" />
<line x1="15.500000" y1="78.000000" x2="20.500000" y2="78.000000" stroke="black" stroke-width="0.1" />
<line x1="18.000000" y1="78.000000" x2="15.500000" y2="80.500000" stroke="black" stroke-width="0.1" />
<line x1="18.000000" y1="78.000000" x2="20.500000" y2="80.500000" stroke="black" stroke-width="0.1" />
<line x1="15.500000" y1="116.000000" x2="20.500000" y2="116.000000" stroke="black" stroke-width="0.1" />
<line x1="18.000000" y1="116.000000" x2="15.500000" y2="113.500000" stroke="black" stroke-width="0.1" />
<line x1="18.000000" y1="116.000000" x2="20.500000" y2="113.500000" stroke="black" stroke-width="0.1" />
<text x="20.500000" y="97.000000" font-family="Arial" font-size="4" text-anchor="middle" dominant-baseline="middle" transform="rotate(90 20.500000 97.000000)" >38.0 mm</text>
<line x1="125.000000" y1="99.000000" x2="163.000000" y2="99.000000" stroke="black" stroke-width="0.1" />
<line x1="125.000000" y1="96.500000" x2="125.000000" y2="101.500000" stroke="black" stroke-width="0.1" />
<line x1="125.000000" y1="99.000000" x2="127.500000" y2="101.500000" stroke="black" stroke-width="0.1" />
<line x1="125.000000" y1="99.000000" x2="127.500000" y2="96.500000" stroke="black" stroke-width="0.1" />
<line x1="163.000000" y1="96.500000" x2="163.000000" y2="101.500000" stroke="black" stroke-width="0.1" />
<line x1="163.000000" y1="99.000000" x2="160.500000" y2="101.500000" stroke="black" stroke-width="0.1" />
<line x1="163.000000" y1="99.000000" x2="160.500000" y2="96.500000" stroke="black" stroke-width="0.1" />
<text x="149.000000" y="89.000000" font-family="Arial" font-size="4" text-anchor="middle" dominant-baseline="middle" transform="rotate(90 149.000000 89.000000)" >38.0 mm</text>
<line x1="125.000000" y1="137.000000" x2="163.000000" y2="137.000000" stroke="black" stroke-width="0.1" />
<line x1="125.000000" y1="134.500000" x2="125.000000" y2="139.500000" stroke="black" stroke-width="0.1" />
<line x1="125.000000" y1="137.000000" x2="127.500000" y2="139.500000" stroke="black" stroke-width="0.1" />
<line x1="125.000000" y1="137.000000" x2="127.500000" y2="134.500000" stroke="black" stroke-width="0.1" />
<line x1="163.000000" y1="134.500000" x2="163.000000" y2="139.500000" stroke="black" stroke-width="0.1" />
<line x1="163.000000" y1="137.000000" x2="160.500000" y2="139.500000" stroke="black" stroke-width="0.1" />
<line x1="163.000000" y1="137.000000" x2="160.500000" y2="134.500000" stroke="black" stroke-width="0.1" />
<text x="149.000000" y="127.000000" font-family="Arial" font-size="4" text-anchor="middle" dominant-baseline="middle" transform="rotate(90 149.000000 127.000000)" >38.0 mm</text>
<line x1="125.000000" y1="175.000000" x2="163.000000" y2="175.000000" stroke="black" stroke-width="0.1" />
<line x1="125.000000" y1="172.500000" x2="125.000000" y2="177.500000" stroke="black" stroke-width="0.1" />
<line x1="125.000000" y1="175.000000" x2="127.500000" y2="177.500000" stroke="black" stroke-width="0.1" />
<line x1="125.000000" y1="175.000000" x2="127.500000" y2="172.500000" stroke="black" stroke-width="0.1" />
<line x1="163.000000" y1="172.500000" x2="163.000000" y2="177.500000" stroke="black" stroke-width="0.1" />
<line x1="163.000000" y1="175.000000" x2="160.500000" y2="177.500000" stroke="black" stroke-width="0.1" />
<line x1="163.000000" y1="175.000000" x2="160.500000" y2="172.500000" stroke="black" stroke-width="0.1" />
<text x="149.000000" y="165.000000" font-family="Arial" font-size="4" text-anchor="middle" dominant-baseline="middle" transform="rotate(90 149.000000 165.000000)" >38.0 mm</text>
<line x1="125.000000" y1="175.000000" x2="163.000000" y2="175.000000" stroke="black" stroke-width="0.1" />
<line x1="125.000000" y1="172.500000" x2="125.000000" y2="177.500000" stroke="black" stroke-width="0.1" />
<line x1="125.000000" y1="175.000000" x2="127.500000" y2="177.500000" stroke="black" stroke-width="0.1" />
<line x1="125.000000" y1="175.000000" x2="127.500000" y2="172.500000" stroke="black" stroke-width="0.1" />
<line x1="163.000000" y1="172.500000" x2="163.000000" y2="177.500000" stroke="black" stroke-width="0.1" />
<line x1="163.000000" y1="175.000000" x2="160.500000" y2="177.500000" stroke="black" stroke-width="0.1" />
<line x1="163.000000" y1="175.000000" x2="160.500000" y2="172.500000" stroke="black" stroke-width="0.1" />
<text x="149.000000" y="165.000000" font-family="Arial" font-size="4" text-anchor="middle" dominant-baseline="middle" transform="rotate(90 149.000000 165.000000)" >38.0 mm</text>
<circle cx="125.000000" cy="109.000000" r="2.500000" fill="none" stroke="black" stroke-width="0.1" />
<circle cx="125.000000" cy="109.000000" r="0.250000" fill="none" stroke="black" stroke-width="0.1" />
<line x1="124.750000" y1="109.000000" x2="124.500000" y2="109.000000" stroke="black" stroke-width="0.1" />
<line x1="125.250000" y1="109.000000" x2="125.500000" y2="109.000000" stroke="black" stroke-width="0.1" />
<line x1="125.000000" y1="108.750000" x2="125.000000" y2="108.500000" stroke="black" stroke-width="0.1" />
<line x1="125.000000" y1="109.250000" x2="125.000000" y2="109.500000" stroke="black" stroke-width="0.1" />
<line x1="122.000000" y1="109.000000" x2="123.000000" y2="109.000000" stroke="black" stroke-width="0.1" />
<line x1="127.000000" y1="109.000000" x2="128.000000" y2="109.000000" stroke="black" stroke-width="0.1" />
<line x1="125.000000" y1="106.000000" x2="125.000000" y2="107.000000" stroke="black" stroke-width="0.1" />
<line x1="125.000000" y1="111.000000" x2="125.000000" y2="112.000000" stroke="black" stroke-width="0.1" />
<circle cx="163.000000" cy="109.000000" r="2.500000" fill="none" stroke="black" stroke-width="0.1" />
<circle cx="163.000000" cy="109.000000" r="0.250000" fill="none" stroke="black" stroke-width="0.1" />
<line x1="162.750000" y1="109.000000" x2="162.500000" y2="109.000000" stroke="black" stroke-width="0.1" />
<line x1="163.250000" y1="109.000000" x2="163.500000" y2="109.000000" stroke="black" stroke-width="0.1" />
<line x1="163.000000" y1="108.750000" x2="163.000000" y2="108.500000" stroke="black" stroke-width="0.1" />
<line x1="163.000000" y1="109.250000" x2="163.000000" y2="109.500000" stroke="black" stroke-width="0.1" />
<line x1="160.000000" y1="109.000000" x2="161.000000" y2="109.000000" stroke="black" stroke-width="0.1" />
<line x1="165.000000" y1="109.000000" x2="166.000000" y2="109.000000" stroke="black" stroke-width="0.1" />
<line x1="163.000000" y1="106.000000" x2="163.000000" y2="107.000000" stroke="black" stroke-width="0.1" />
<line x1="163.000000" y1="111.000000" x2="163.000000" y2="112.000000" stroke="black" stroke-width="0.1" />
<circle cx="125.000000" cy="147.000000" r="2.500000" fill="none" stroke="black" stroke-width="0.1" />
<circle cx="125.000000" cy="147.000000" r="0.250000" fill="none" stroke="black" stroke-width="0.1" />
<line x1="124.750000" y1="147.000000" x2="124.500000" y2="147.000000" stroke="black" stroke-width="0.1" />
<line x1="125.250000" y1="147.000000" x2="125.500000" y2="147.000000" stroke="black" stroke-width="0.1" />
<line x1="125.000000" y1="146.750000" x2="125.000000" y2="146.500000" stroke="black" stroke-width="0.1" />
<line x1="125.000000" y1="147.250000" x2="125.000000" y2="147.500000" stroke="black" stroke-width="0.1" />
<line x1="122.000000" y1="147.000000" x2="123.000000" y2="147.000000" stroke="black" stroke-width="0.1" />
<line x1="127.000000" y1="147.000000" x2="128.000000" y2="147.000000" stroke="black" stroke-width="0.1" />
<line x1="125.000000" y1="144.000000" x2="125.000000" y2="145.000000" stroke="black" stroke-width="0.1" />
<line x1="125.000000" y1="149.000000" x2="125.000000" y2="150.000000" stroke="black" stroke-width="0.1" />
<circle cx="163.000000" cy="147.000000" r="2.500000" fill="none" stroke="black" stroke-width="0.1" />
<circle cx="163.000000" cy="147.000000" r="0.250000" fill="none" stroke="black" stroke-width="0.1" />
<line x1="162.750000" y1="147.000000" x2="162.500000" y2="147.000000" stroke="black" stroke-width="0.1" />
<line x1="163.250000" y1="147.000000" x2="163.500000" y2="147.000000" stroke="black" stroke-width="0.1" />
<line x1="163.000000" y1="146.750000" x2="163.000000" y2="146.500000" stroke="black" stroke-width="0.1" />
<line x1="163.000000" y1="147.250000" x2="163.000000" y2="147.500000" stroke="black" stroke-width="0.1" />
<line x1="160.000000" y1="147.000000" x2="161.000000" y2="147.000000" stroke="black" stroke-width="0.1" />
<line x1="165.000000" y1="147.000000" x2="166.000000" y2="147.000000" stroke="black" stroke-width="0.1" />
<line x1="163.000000" y1="144.000000" x2="163.000000" y2="145.000000" stroke="black" stroke-width="0.1" />
<line x1="163.000000" y1="149.000000" x2="163.000000" y2="150.000000" stroke="black" stroke-width="0.1" />
<circle cx="125.000000" cy="185.000000" r="2.500000" fill="none" stroke="black" stroke-width="0.1" />
<circle cx="125.000000" cy="185.000000" r="0.250000" fill="none" stroke="black" stroke-width="0.1" />
<line x1="124.750000" y1="185.000000" x2="124.500000" y2="185.000000" stroke="black" stroke-width="0.1" />
<line x1="125.250000" y1="185.000000" x2="125.500000" y2="185.000000" stroke="black" stroke-width="0.1" />
<line x1="125.000000" y1="184.750000" x2="125.000000" y2="184.500000" stroke="black" stroke-width="0.1" />
<line x1="125.000000" y1="185.250000" x2="125.000000" y2="185.500000" stroke="black" stroke-width="0.1" />
<line x1="122.000000" y1="185.000000" x2="123.000000" y2="185.000000" stroke="black" stroke-width="0.1" />
<line x1="127.000000" y1="185.000000" x2="128.000000" y2="185.000000" stroke="black" stroke-width="0.1" />
<line x1="125.000000" y1="182.000000" x2="125.000000" y2="183.000000" stroke="black" stroke-width="0.1" />
<line x1="125.000000" y1="187.000000" x2="125.000000" y2="188.000000" stroke="black" stroke-width="0.1" />
<circle cx="163.000000" cy="185.000000" r="2.500000" fill="none" stroke="black" stroke-width="0.1" />
<circle cx="163.000000" cy="185.000000" r="0.250000" fill="none" stroke="black" stroke-width="0.1" />
<line x1="162.750000" y1="185.000000" x2="162.500000" y2="185.000000" stroke="black" stroke-width="0.1" />
<line x1="163.250000" y1="185.000000" x2="163.500000" y2="185.000000" stroke="black" stroke-width="0.1" />
<line x1="163.000000" y1="184.750000" x2="163.000000" y2="184.500000" stroke="black" stroke-width="0.1" />
<line x1="163.000000" y1="185.250000" x2="163.000000" y2="185.500000" stroke="black" stroke-width="0.1" />
<line x1="160.000000" y1="185.000000" x2="161.000000" y2="185.000000" stroke="black" stroke-width="0.1" />
<line x1="165.000000" y1="185.000000" x2="166.000000" y2="185.000000" stroke="black" stroke-width="0.1" />
<line x1="163.000000" y1="182.000000" x2="163.000000" y2="183.000000" stroke="black" stroke-width="0.1" />
<line x1="163.000000" y1="187.000000" x2="163.000000" y2="188.000000" stroke="black" stroke-width="0.1" />
<circle cx="125.000000" cy="185.000000" r="2.500000" fill="none" stroke="black" stroke-width="0.1" />
<circle cx="125.000000" cy="185.000000" r="0.250000" fill="none" stroke="black" stroke-width="0.1" />
<line x1="124.750000" y1="185.000000" x2="124.500000" y2="185.000000" stroke="black" stroke-width="0.1" />
<line x1="125.250000" y1="185.000000" x2="125.500000" y2="185.000000" stroke="black" stroke-width="0.1" />
<line x1="125.000000" y1="184.750000" x2="125.000000" y2="184.500000" stroke="black" stroke-width="0.1" />
<line x1="125.000000" y1="185.250000" x2="125.000000" y2="185.500000" stroke="black" stroke-width="0.1" />
<line x1="122.000000" y1="185.000000" x2="123.000000" y2="185.000000" stroke="black" stroke-width="0.1" />
<line x1="127.000000" y1="185.000000" x2="128.000000" y2="185.000000" stroke="black" stroke-width="0.1" />
<line x1="125.000000" y1="182.000000" x2="125.000000" y2="183.000000" stroke="black" stroke-width="0.1" />
<line x1="125.000000" y1="187.000000" x2="125.000000" y2="188.000000" stroke="black" stroke-width="0.1" />
<circle cx="163.000000" cy="185.000000" r="2.500000" fill="none" stroke="black" stroke-width="0.1" />
<circle cx="163.000000" cy="185.000000" r="0.250000" fill="none" stroke="black" stroke-width="0.1" />
<line x1="162.750000" y1="185.000000" x2="162.500000" y2="185.000000" stroke="black" stroke-width="0.1" />
<line x1="163.250000" y1="185.000000" x2="163.500000" y2="185.000000" stroke="black" stroke-width="0.1" />
<line x1="163.000000" y1="184.750000" x2="163.000000" y2="184.500000" stroke="black" stroke-width="0.1" />
<line x1="163.000000" y1="185.250000" x2="163.000000" y2="185.500000" stroke="black" stroke-width="0.1" />
<line x1="160.000000" y1="185.000000" x2="161.000000" y2="185.000000" stroke="black" stroke-width="0.1" />
<line x1="165.000000" y1="185.000000" x2="166.000000" y2="185.000000" stroke="black" stroke-width="0.1" />
<line x1="163.000000" y1="182.000000" x2="163.000000" y2="183.000000" stroke="black" stroke-width="0.1" />
<line x1="163.000000" y1="187.000000" x2="163.000000" y2="188.000000" stroke="black" stroke-width="0.1" />
<circle cx="144.000000" cy="185.000000" r="2.500000" fill="none" stroke="black" stroke-width="0.1" />
<circle cx="144.000000" cy="185.000000" r="0.250000" fill="none" stroke="black" stroke-width="0.1" />
<line x1="143.750000" y1="185.000000" x2="143.500000" y2="185.000000" stroke="black" stroke-width="0.1" />
<line x1="144.250000" y1="185.000000" x2="144.500000" y2="185.000000" stroke="black" stroke-width="0.1" />
<line x1="144.000000" y1="184.750000" x2="144.000000" y2="184.500000" stroke="black" stroke-width="0.1" />
<line x1="144.000000" y1="185.250000" x2="144.000000" y2="185.500000" stroke="black" stroke-width="0.1" />
<line x1="141.000000" y1="185.000000" x2="142.000000" y2="185.000000" stroke="black" stroke-width="0.1" />
<line x1="146.000000" y1="185.000000" x2="147.000000" y2="185.000000" stroke="black" stroke-width="0.1" />
<line x1="144.000000" y1="182.000000" x2="144.000000" y2="183.000000" stroke="black" stroke-width="0.1" />
<line x1="144.000000" y1="187.000000" x2="144.000000" y2="188.000000" stroke="black" stroke-width="0.1" />
<circle cx="48.000000" cy="78.000000" r="2.500000" fill="none" stroke="black" stroke-width="0.1" />
<circle cx="48.000000" cy="78.000000" r="0.250000" fill="none" stroke="black" stroke-width="0.1" />
<line x1="47.750000" y1="78.000000" x2="47.500000" y2="78.000000" stroke="black" stroke-width="0.1" />
<line x1="48.250000" y1="78.000000" x2="48.500000" y2="78.000000" stroke="black" stroke-width="0.1" />
<line x1="48.000000" y1="77.750000" x2="48.000000" y2="77.500000" stroke="black" stroke-width="0.1" />
<line x1="48.000000" y1="78.250000" x2="48.000000" y2="78.500000" stroke="black" stroke-width="0.1" />
<line x1="45.000000" y1="78.000000" x2="46.000000" y2="78.000000" stroke="black" stroke-width="0.1" />
<line x1="50.000000" y1="78.000000" x2="51.000000" y2="78.000000" stroke="black" stroke-width="0.1" />
<line x1="48.000000" y1="75.000000" x2="48.000000" y2="76.000000" stroke="black" stroke-width="0.1" />
<line x1="48.000000" y1="80.000000" x2="48.000000" y2="81.000000" stroke="black" stroke-width="0.1" />
<circle cx="48.000000" cy="116.000000" r="2.500000" fill="none" stroke="black" stroke-width="0.1" />
<circle cx="48.000000" cy="116.000000" r="0.250000" fill="none" stroke="black" stroke-width="0.1" />
<line x1="47.750000" y1="116.000000" x2="47.500000" y2="116.000000" stroke="black" stroke-width="0.1" />
<line x1="48.250000" y1="116.000000" x2="48.500000" y2="116.000000" stroke="black" stroke-width="0.1" />
<line x1="48.000000" y1="115.750000" x2="48.000000" y2="115.500000" stroke="black" stroke-width="0.1" />
<line x1="48.000000" y1="116.250000" x2="48.000000" y2="116.500000" stroke="black" stroke-width="0.1" />
<line x1="45.000000" y1="116.000000" x2="46.000000" y2="116.000000" stroke="black" stroke-width="0.1" />
<line x1="50.000000" y1="116.000000" x2="51.000000" y2="116.000000" stroke="black" stroke-width="0.1" />
<line x1="48.000000" y1="113.000000" x2="48.000000" y2="114.000000" stroke="black" stroke-width="0.1" />
<line x1="48.000000" y1="118.000000" x2="48.000000" y2="119.000000" stroke="black" stroke-width="0.1" />
<text x="73.000000" y="25.000000" font-family="Arial" font-size="4" text-anchor="middle" dominant-baseline="middle" transform="rotate(90 73.000000 25.000000)" >Mid Sole Mount Line</text>
<text x="169.000000" y="235.000000" font-family="Arial" font-size="4" text-anchor="middle" dominant-baseline="middle" transform="rotate(90 169.000000 235.000000)" >Mid Sole Mount Line</text>
<text x="43.000000" y="235.000000" font-family="Arial" font-size="4" text-anchor="middle" dominant-baseline="middle" transform="rotate(90 43.000000 235.000000)" >Ski Center Line</text>
<text x="139.000000" y="25.000000" font-family="Arial" font-size="4" text-anchor="middle" dominant-baseline="middle" transform="rotate(90 139.000000 25.000000)" >Ski Center Line</text>
</svg>