<?xml version="1.0"?>
<!DOCTYPE svg PUBLIC "-//W3C//DTD SVG 1.1//EN"
"http://www.w3.org/Graphics/SVG/1.1/DTD/svg11.dtd">
<svg xmlns="http://www.w3.org/2000/svg" version="1.2" width="192.000000mm" height="259.000000mm" viewBox="0 0 192.000000 259.000000" style="background-color:white" >
<line x1="48.000000" y1="0.000000" x2="48.000000" y2="259.000000" stroke="black" stroke-width="0.1" />
<line x1="144.000000" y1="0.000000" x2="144.000000" y2="259.000000" stroke="black" stroke-width="0.1" />
<line x1="104.000000" y1="255.000000" x2="184.000000" y2="255.000000" stroke="black" stroke-width="0.1" />
<line x1="8.000000" y1="5.000000" x2="88.000000" y2="5.000000" stroke="black" stroke-width="0.1" />
<line x1="96.000000" y1="0.000000" x2="96.000000" y2="259.000000" stroke="black" stroke-width="0.1" stroke-dasharray="2 2" />
<line x1="0.000000" y1="259.000000" x2="96.000000" y2="259.000000" stroke="black" stroke-width="0.1" stroke-dasharray="2 2" />
<line x1="96.000000" y1="0.000000" x2="192.000000" y2="0.000000" stroke="black" stroke-width="0.1" stroke-dasharray="2 2" />
<line x1="48.000000" y1="7.000000" x2="41.000000" y2="0.000000" stroke="black" stroke-width="0.1" stroke-dasharray="2 2" />
<line x1="48.000000" y1="7.000000" x2="55.000000" y2="0.000000" stroke="black" stroke-width="0.1" stroke-dasharray="2 2" />
<line x1="144.000000" y1="253.000000" x2="138.000000" y2="259.000000" stroke="black" stroke-width="0.1" stroke-dasharray="2 2" />
<line x1="144.000000" y1="253.000000" x2="150.000000" y2="259.000000" stroke="black" stroke-width="0.1" stroke-dasharray="2 2" />
<text x="83.000000" y="130.000000" font-family="Arial" font-size="8" text-anchor="middle" dominant-baseline="middle" transform="rotate(90 83.000000 130.000000)" >Bishop BMF NTN 246, Heel</text>
<text x="179.000000" y="130.000000" font-family="Arial" font-size="8" text-anchor="middle" dominant-baseline="middle" transform="rotate(90 179.000000 130.000000)" >Bishop BMF NTN 246, Toe</text>
<line x1="104.000000" y1="233.000000" x2="104.000000" y2="255.000000" stroke="black" stroke-width="0.1" />
<line x1="101.500000" y1="233.000000" x2="106.500000" y2="233.000000" stroke="black" stroke-width="0.1" />
<line x1="104.000000" y1="233.000000" x2="101.500000" y2="235.500000" stroke="black" stroke-width="0.1" />
<line x1="104.000000" y1="233.000000" x2="106.500000" y2="235.500000" stroke="black" stroke-width="0.1" />
<line x1="101.500000" y1="255.000000" x2="106.500000" y2="255.000000" stroke="black" stroke-width="0.1" />
<line x1="104.000000" y1="255.000000" x2="101.500000" y2="252.500000" stroke="black" stroke-width="0.1" />
<line x1="104.000000" y1="255.000000" x2="106.500000" y2="252.500000" stroke="black" stroke-width="0.1" />
<text x="106.500000" y="244.000000" font-family="Arial" font-size="4" text-anchor="middle" dominant-baseline="middle" transform="rotate(90 106.500000 244.000000)" >22.0 mm</text>
<line x1="114.000000" y1="233.000000" x2="114.000000" y2="233.000000" stroke="black" stroke-width="0.1" />
<line x1="111.500000" y1="233.000000" x2="116.500000" y2="233.000000" stroke="black" stroke-width="0.1" />
<line x1="114.000000" y1="233.000000" x2="111.500000" y2="235.500000" stroke="black" stroke-width="0.1" />
<line x1="114.000000" y1="233.000000" x2="116.500000" y2="235.500000" stroke="black" stroke-width="0.1" />
<line x1="111.500000" y1="233.000000" x2="116.500000" y2="233.000000" stroke="black" stroke-width="0.1" />
<line x1="114.000000" y1="233.000000" x2="111.500000" y2="230.500000" stroke="black" stroke-width="0.1" />
<line x1="114.000000" y1="233.000000" x2="116.500000" y2="230.500000" stroke="black" stroke-width="0.1" />
<text x="116.500000" y="233.000000" font-family="Arial" font-size="4" text-anchor="middle" dominant-baseline="middle" transform="rotate(90 116.500000 233.000000)" >0.0 mm</text>
<line x1="104.000000" y1="233.000000" x2="104.000000" y2="233.000000" stroke="black" stroke-width="0.1" />
<line x1="101.500000" y1="233.000000" x2="106.500000" y2="233.000000" stroke="black" stroke-width="0.1" />
<line x1="104.000000" y1="233.000000" x2="101.500000" y2="235.500000" stroke="black" stroke-width="0.1" />
<line x1="104.000000" y1="233.000000" x2="106.500000" y2="235.500000" stroke="black" stroke-width="0.1" />
<line x1="101.500000" y1="233.000000" x2="106.500000" y2="233.000000" stroke="black" stroke-width="0.1" />
<line x1="104.000000" y1="233.000000" x2="101.500000" y2="230.500000" stroke="black" stroke-width="0.1" />
<line x1="104.000000" y1="233.000000" x2="106.500000" y2="230.500000" stroke="black" stroke-width="0.1" />
<text x="106.500000" y="233.000000" font-family="Arial" font-size="4" text-anchor="middle" dominant-baseline="middle" transform="rotate(90 106.500000 233.000000)" >0.0 mm</text>
<line x1="114.000000" y1="195.000000" x2="114.000000" y2="233.000000" stroke="black" stroke-width="0.1" />
<line x1="111.500000" y1="195.000000" x2="116.500000" y2="195.000000" stroke="black" stroke-width="0.1" />
<line x1="114.000000" y1="195.000000" x2="111.500000" y2="197.500000" stroke="black" stroke-width="0.1" />
<line x1="114.000000" y1="195.000000" x2="116.500000" y2="197.500000" stroke="black" stroke-width="0.1" />
<line x1="111.500000" y1="233.000000" x2="116.500000" y2="233.000000" stroke="black" stroke-width="0.1" />
<line x1="114.000000" y1="233.000000" x2="111.500000" y2="230.500000" stroke="black" stroke-width="0.1" />
<line x1="114.000000" y1="233.000000" x2="116.500000" y2="230.500000" stroke="black" stroke-width="0.1" />
<text x="116.500000" y="214.000000" font-family="Arial" font-size="4" text-anchor="middle" dominant-baseline="middle" transform="rotate(90 116.500000 214.000000)" >38.0 mm</text>
<line x1="104.000000" y1="157.000000" x2="104.000000" y2="195.000000" stroke="black" stroke-width="0.1" />
<line x1="101.500000" y1="157.000000" x2="106.500000" y2="157.000000" stroke="black" stroke-width="0.1" />
<line x1="104.000000" y1="157.000000" x2="101.500000" y2="159.500000" stroke="black" stroke-width="0.1" />
<line x1="104.000000" y1="157.000000" x2="106.500000" y2="159.500000" stroke="black" stroke-width="0.1" />
<line x1="101.500000" y1="195.000000" x2="106.500000" y2="195.000000" stroke="black" stroke-width="0.1" />
<line x1="104.000000" y1="195.000000" x2="101.500000" y2="192.500000" stroke="black" stroke-width="0.1" />
<line x1="104.000000" y1="195.000000" x2="106.500000" y2="192.500000" stroke="black" stroke-width="0.1" />
<text x="106.500000" y="176.000000" font-family="Arial" font-size="4" text-anchor="middle" dominant-baseline="middle" transform="rotate(90 106.500000 176.000000)" >38.0 mm</text>
<line x1="8.000000" y1="5.000000" x2="8.000000" y2="126.000000" stroke="black" stroke-width="0.1" />
<line x1="5.500000" y1="5.000000" x2="10.500000" y2="5.000000" stroke="black" stroke-width="0.1" />
<line x1="8.000000" y1="5.000000" x2="5.500000" y2="7.500000" stroke="black" stroke-width="0.1" />
<line x1="8.000000" y1="5.000000" x2="10.500000" y2="7.500000" stroke="black" stroke-width="0.1" />
<line x1="5.500000" y1="126.000000" x2="10.500000" y2="126.000000" stroke="black" stroke-width="0.1" />
<line x1="8.000000" y1="126.000000" x2="5.500000" y2="123.500000" stroke="black" stroke-width="0.1" />
<line x1="8.000000" y1="126.000000" x2="10.500000" y2="123.500000" stroke="black" stroke-width="0.1" />
<text x="10.500000" y="65.500000" font-family="Arial" font-size="4" text-anchor="middle" dominant-baseline="middle" transform="rotate(90 10.500000 65.500000)" >121.0 mm</text>
<line x1="18.000000" y1="126.000000" x2="18.000000" y2="164.000000" stroke="black" stroke-width="0.1" />
<line x1="15.500000" y1="126.000000" x2="20.500000" y2="126.000000" stroke="black" stroke-width="0.1" />
<line x1="18.000000" y1="126.000000" x2="15.500000" y2="128.500000" stroke="black" stroke-width="0.1" />
<line x1="18.000000" y1="126.000000" x2="20.500000" y2="128.500000" stroke="black" stroke-width="0.1" />
<line x1="15.500000" y1="164.000000" x2="20.500000" y2="164.000000" stroke="black" stroke-width="0.1" />
<line x1="18.000000" y1="164.000000" x2="15.500000" y2="161.500000" stroke="black" stroke-width="0.1" />
<line x1="18.000000" y1="164.000000" x2="20.500000" y2="161.500000" stroke="black" stroke-width="0.1" />
<text x="20.500000" y="145.000000" font-family="Arial" font-size="4" text-anchor="middle" dominant-baseline="middle" transform="rotate(90 20.500000 145.000000)" >38.0 mm</text>
<line x1="125.000000" y1="147.000000" x2="163.000000" y2="147.000000" stroke="black" stroke-width="0.1" />
<line x1="125.000000" y1="144.500000" x2="125.000000" y2="149.500000" stroke="black" stroke-width="0.1" />
<line x1="125.000000" y1="147.000000" x2="127.500000" y2="149.500000" stroke="black" stroke-width="0.1" />
<line x1="125.000000" y1="147.000000" x2="127.500000" y2="144.500000" stroke="black" stroke-width="0.1" />
<line x1="163.000000" y1="144.500000" x2="163.000000" y2="149.500000" stroke="black" stroke-width="0.1" />
<line x1="163.000000" y1="147.000000" x2="160.500000" y2="149.500000" stroke="black" stroke-width="0.1" />
<line x1="163.000000" y1="147.000000" x2="160.500000" y2="144.500000" stroke="black" stroke-width="0.1" />
<text x="149.000000" y="137.000000" font-family="Arial" font-size="4" text-anchor="middle" dominant-baseline="middle" transform="rotate(90 149.000000 137.000000)" >38.0 mm</text>
<line x1="125.000000" y1="185.000000" x2="163.000000" y2="185.000000" stroke="black" stroke-width="0.1" />
<line x1="125.000000" y1="182.500000" x2="125.000000" y2="187.500000" stroke="black" stroke-width="0.1" />
<line x1="125.000000" y1="185.000000" x2="127.500000" y2="187.500000" stroke="black" stroke-width="0.1" />
<line x1="125.000000" y1="185.000000" x2="127.500000" y2="182.500000" stroke="black" stroke-width="0.1" />
<line x1="163.000000" y1="182.500000" x2="163.000000" y2="187.500000" stroke="black" stroke-width="0.1" />
<line x1="163.000000" y1="185.000000" x2="160.500000" y2="187.500000" stroke="black" stroke-width="0.1" />
<line x1="163.000000" y1="185.000000" x2="160.500000" y2="182.500000" stroke="black" stroke-width="0.1" />
<text x="149.000000" y="175.000000" font-family="Arial" font-size="4" text-anchor="middle" dominant-baseline="middle" transform="rotate(90 149.000000 175.000000)" >38.0 mm</text>
<line x1="125.000000" y1="223.000000" x2="163.000000" y2="223.000000" stroke="black" stroke-width="0.1" />
<line x1="125.000000" y1="220.500000" x2="125.000000" y2="225.500000" stroke="black" stroke-width="0.1" />
<line x1="125.000000" y1="223.000000" x2="127.500000" y2="225.500000" stroke="black" stroke-width="0.1" />
<line x1="125.000000" y1="223.000000" x2="127.500000" y2="220.500000" stroke="black" stroke-width="0.1" />
<line x1="163.000000" y1="220.500000" x2="163.000000" y2="225.500000" stroke="black" stroke-width="0.1" />
<line x1="163.000000" y1="223.000000" x2="160.500000" y2="225.500000" stroke="black" stroke-width="0.1" />
<line x1="163.000000" y1="223.000000" x2="160.500000" y2="220.500000" stroke="black" stroke-width="0.1" />
<text x="149.000000" y="213.000000" font-family="Arial" font-size="4" text-anchor="middle" dominant-baseline="middle" transform="rotate(90 149.000000 213.000000)" >38.0 mm</text>
<line x1="125.000000" y1="223.000000" x2="163.000000" y2="223.000000" stroke="black" stroke-width="0.1" />
<line x1="125.000000" y1="220.500000" x2="125.000000" y2="225.500000" stroke="black" stroke-width="0.1" />
<line x1="125.000000" y1="223.000000" x2="127.500000" y2="225.500000" stroke="black" stroke-width="0.1" />
<line x1="125.000000" y1="223.000000" x2="127.500000" y2="220.500000" stroke="black" stroke-width="0.1" />
<line x1="163.000000" y1="220.500000" x2="163.000000" y2="225.500000" stroke="black" stroke-width="0.1" />
<line x1="163.000000" y1="223.000000" x2="160.500000" y2="225.500000" stroke="black" stroke-width="0.1" />
<line x1="163.000000" y1="223.000000" x2="160.500000" y2="220.500000" stroke="black" stroke-width="0.1" />
<text x="149.000000" y="213.000000" font-family="Arial" font-size="4" text-anchor="middle" dominant-baseline="middle" transform="rotate(90 149.000000 213.000000)" >38.0 mm</text>
<circle cx="125.000000" cy="157.000000" r="2.500000" fill="none" stroke="black" stroke-width="0.1" />
<circle cx="125.000000" cy="157.000000" r="0.250000" fill="none" stroke="black" stroke-width="0.1" />
<line x1="124.750000" y1="157.000000" x2="124.500000" y2="157.000000" stroke="black" stroke-width="0.1" />
<line x1="125.250000" y1="157.000000" x2="125.500000" y2="157.000000" stroke="black" stroke-width="0.1" />
<line x1="125.000000" y1="156.750000" x2="125.000000" y2="156.500000" stroke="black" stroke-width="0.1" />
<line x1="125.000000" y1="157.250000" x2="125.000000" y2="157.500000" stroke="black" stroke-width="0.1" />
<line x1="122.000000" y1="157.000000" x2="123.000000" y2="157.000000" stroke="black" stroke-width="0.1" />
<line x1="127.000000" y1="157.000000" x2="128.000000" y2="157.000000" stroke="black" stroke-width="0.1" />
<line x1="125.000000" y1="154.000000" x2="125.000000" y2="155.000000" stroke="black" stroke-width="0.1" />
<line x1="125.000000" y1="159.000000" x2="125.000000" y2="160.000000" stroke="black" stroke-width="0.1" />
<circle cx="163.000000" cy="157.000000" r="2.500000" fill="none" stroke="black" stroke-width="0.1" />
<circle cx="163.000000" cy="157.000000" r="0.250000" fill="none" stroke="black" stroke-width="0.1" />
<line x1="162.750000" y1="157.000000" x2="162.500000" y2="157.000000" stroke="black" stroke-width="0.1" />
<line x1="163.250000" y1="157.000000" x2="163.500000" y2="157.000000" stroke="black" stroke-width="0.1" />
<line x1="163.000000" y1="156.750000" x2="163.000000" y2="156.500000" stroke="black" stroke-width="0.1" />
<line x1="163.000000" y1="157.250000" x2="163.000000" y2="157.500000" stroke="black" stroke-width="0.1" />
<line x1="160.000000" y1="157.000000" x2="161.000000" y2="157.000000" stroke="black" stroke-width="0.1" />
<line x1="165.000000" y1="157.000000" x2="166.000000" y2="157.000000" stroke="black" stroke-width="0.1" />
<line x1="163.000000" y1="154.000000" x2="163.000000" y2="155.000000" stroke="black" stroke-width="0.1" />
<line x1="163.000000" y1="159.000000" x2="163.000000" y2="160.000000" stroke="black" stroke-width="0.1" />
<circle cx="125.000000" cy="195.000000" r="2.500000" fill="none" stroke="black" stroke-width="0.1" />
<circle cx="125.000000" cy="195.000000" r="0.250000" fill="none" stroke="black" stroke-width="0.1" />
<line x1="124.750000" y1="195.000000" x2="124.500000" y2="195.000000" stroke="black" stroke-width="0.1" />
<line x1="125.250000" y1="195.000000" x2="125.500000" y2="195.000000" stroke="black" stroke-width="0.1" />
<line x1="125.000000" y1="194.750000" x2="125.000000" y2="194.500000" stroke="black" stroke-width="0.1" />
<line x1="125.000000" y1="195.250000" x2="125.000000" y2="195.500000" stroke="black" stroke-width="0.1" />
<line x1="122.000000" y1="195.000000" x2="123.000000" y2="195.000000" stroke="black" stroke-width="0.1" />
<line x1="127.000000" y1="195.000000" x2="128.000000" y2="195.000000" stroke="black" stroke-width="0.1" />
<line x1="125.000000" y1="192.000000" x2="125.000000" y2="193.000000" stroke="black" stroke-width="0.1" />
<line x1="125.000000" y1="197.000000" x2="125.000000" y2="198.000000" stroke="black" stroke-width="0.1" />
<circle cx="163.000000" cy="195.000000" r="2.500000" fill="none" stroke="black" stroke-width="0.1" />
<circle cx="163.000000" cy="195.000000" r="0.250000" fill="none" stroke="black" stroke-width="0.1" />
<line x1="162.750000" y1="195.000000" x2="162.500000" y2="195.000000" stroke="black" stroke-width="0.1" />
<line x1="163.250000" y1="195.000000" x2="163.500000" y2="195.000000" stroke="black" stroke-width="0.1" />
<line x1="163.000000" y1="194.750000" x2="163.000000" y2="194.500000" stroke="black" stroke-width="0.1" />
<line x1="163.000000" y1="195.250000" x2="163.000000" y2="195.500000" stroke="black" stroke-width="0.1" />
<line x1="160.000000" y1="195.000000" x2="161.000000" y2="195.000000" stroke="black" stroke-width="0.1" />
<line x1="165.000000" y1="195.000000" x2="166.000000" y2="195.000000" stroke="black" stroke-width="0.1" />
<line x1="163.000000" y1="192.000000" x2="163.000000" y2="193.000000" stroke="black" stroke-width="0.1" />
<line x1="163.000000" y1="197.000000" x2="163.000000" y2="198.000000" stroke="black" stroke-width="0.1" />
<circle cx="125.000000" cy="233.000000" r="2.500000" fill="none" stroke="black" stroke-width="0.1" />
<circle cx="125.000000" cy="233.000000" r="0.250000" fill="none" stroke="black" stroke-width="0.1" />
<line x1="124.750000" y1="233.000000" x2="124.500000" y2="233.000000" stroke="black" stroke-width="0.1" />
<line x1="125.250000" y1="233.000000" x2="125.500000" y2="233.000000" stroke="black" stroke-width="0.1" />
<line x1="125.000000" y1="232.750000" x2="125.000000" y2="232.500000" stroke="black" stroke-width="0.1" />
<line x1="125.000000" y1="233.250000" x2="125.000000" y2="233.500000" stroke="black" stroke-width="0.1" />
<line x1="122.000000" y1="233.000000" x2="123.000000" y2="233.000000" stroke="black" stroke-width="0.1" />
<line x1="127.000000" y1="233.000000" x2="128.000000" y2="233.000000" stroke="black" stroke-width="0.1" />
<line x1="125.000000" y1="230.000000" x2="125.000000" y2="231.000000" stroke="black" stroke-width="0.1" />
<line x1="125.000000" y1="235.000000" x2="125.000000" y2="236.000000" stroke="black" stroke-width="0.1" />
<circle cx="163.000000" cy="233.000000" r="2.500000" fill="none" stroke="black" stroke-width="0.1" />
<circle cx="163.000000" cy="233.000000" r="0.250000" fill="none" stroke="black" stroke-width="0.1" />
<line x1="162.750000" y1="233.000000" x2="162.500000" y2="233.000000" stroke="black" stroke-width="0.1" />
<line x1="163.250000" y1="233.000000" x2="163.500000" y2="233.000000" stroke="black" stroke-width="0.1" />
<line x1="163.000000" y1="232.750000" x2="163.000000" y2="232.500000" stroke="black" stroke-width="0.1" />
<line x1="163.000000" y1="233.250000" x2="163.000000" y2="233.500000" stroke="black" stroke-width="0.1" />
<line x1="160.000000" y1="233.000000" x2="161.000000" y2="233.000000" stroke="black" stroke-width="0.1" />
<line x1="165.000000" y1="233.000000" x2="166.000000" y2="233.000000" stroke="black" stroke-width="0.1" />
<line x1="163.000000" y1="230.000000" x2="163.000000" y2="231.000000" stroke="black" stroke-width="0.1" />
<line x1="163.000000" y1="235.000000" x2="163.000000" y2="236.000000" stroke="black" stroke-width="0.1" />
<circle cx="125.000000" cy="233.000000" r="2.500000" fill="none" stroke="black" stroke-width="0.1" />
<circle cx="125.000000" cy="233.000000" r="0.250000" fill="none" stroke="black" stroke-width="0.1" />
<line x1="124.750000" y1="233.000000" x2="124.500000" y2="233.000000" stroke="black" stroke-width="0.1" />
<line x1="125.250000" y1="233.000000" x2="125.500000" y2="233.000000" stroke="black" stroke-width="0.1" />
<line x1="125.000000" y1="232.750000" x2="125.000000" y2="232.500000" stroke="black" stroke-width="0.1" />
<line x1="125.000000" y1="233.250000" x2="125.000000" y2="233.500000" stroke="black" stroke-width="0.1" />
<line x1="122.000000" y1="233.000000" x2="123.000000" y2="233.000000" stroke="black" stroke-width="0.1" />
<line x1="127.000000" y1="233.000000" x2="128.000000" y2="233.000000" stroke="black" stroke-width="0.1" />
<line x1="125.000000" y1="230.000000" x2="125.000000" y2="231.000000" stroke="black" stroke-width="0.1" />
<line x1="125.000000" y1="235.000000" x2="125.000000" y2="236.000000" stroke="black" stroke-width="0.1" />
<circle cx="163.000000" cy="233.000000" r="2.500000" fill="none" stroke="black" stroke-width="0.1" />
<circle cx="163.000000" cy="233.000000" r="0.250000" fill="none" stroke="black" stroke-width="0.1" />
<line x1="162.750000" y1="233.000000" x2="162.500000" y2="233.000000" stroke="black" stroke-width="0.1" />
<line x1="163.250000" y1="233.000000" x2="163.500000" y2="233.000000" stroke="black" stroke-width="0.1" />
<line x1="163.000000" y1="232.750000" x2="163.000000" y2="232.500000" stroke="black" stroke-width="0.1" />
<line x1="163.000000" y1="233.250000" x2="163.000000" y2="233.500000" stroke="black" stroke-width="0.1" />
<line x1="160.000000" y1="233.000000" x2="161.000000" y2="233.000000" stroke="black" stroke-width="0.1" />
<line x1="165.000000" y1="233.000000" x2="166.000000" y2="233.000000" stroke="black" stroke-width="0.1" />
<line x1="163.000000" y1="230.000000" x2="163.000000" y2="231.000000" stroke="black" stroke-width="0.1" />
<line x1="163.000000" y1="235.000000" x2="163.000000" y2="236.000000" stroke="black" stroke-width="0.1" />
<circle cx="144.000000" cy="233.000000" r="2.500000" fill="none" stroke="black" stroke-width="0.1" />
<circle cx="144.000000" cy="233.000000" r="0.250000" fill="none" stroke="black" stroke-width="0.1" />
<line x1="143.750000" y1="233.000000" x2="143.500000" y2="233.000000" stroke="black" stroke-width="0.1" />
<line x1="144.250000" y1="233.000000" x2="144.500000" y2="233.000000" stroke="black" stroke-width="0.1" />
<line x1="144.000000" y1="232.750000" x2="144.000000" y2="232.500000" stroke="black" stroke-width="0.1" />
<line x1="144.000000" y1="233.250000" x2="144.000000" y2="233.500000" stroke="black" stroke-width="0.1" />
<line x1="141.000000" y1="233.000000" x2="142.000000" y2="233.000000" stroke="black" stroke-width="0.1" />
<line x1="146.000000" y1="233.000000" x2="147.000000" y2="233.000000" stroke="black" stroke-width="0.1" />
<line x1="144.000000" y1="230.000000" x2="144.000000" y2="231.000000" stroke="black" stroke-width="0.1" />
<line x1="144.000000" y1="235.000000" x2="144.000000" y2="236.000000" stroke="black" stroke-width="0.1" />
<circle cx="48.000000" cy="126.000000" r="2.500000" fill="none" stroke="black" stroke-width="0.1" />
<circle cx="48.000000" cy="126.000000" r="0.250000" fill="none" stroke="black" stroke-width="0.1" />
<line x1="47.750000" y1="126.000000" x2="47.500000" y2="126.000000" stroke="black" stroke-width="0.1" />
<line x1="48.250000" y1="126.000000" x2="48.500000" y2="126.000000" stroke="black" stroke-width="0.1" />
<line x1="48.000000" y1="125.750000" x2="48.000000" y2="125.500000" stroke="black" stroke-width="0.1" />
<line x1="48.000000" y1="126.250000" x2="48.000000" y2="126.500000" stroke="black" stroke-width="0.1" />
<line x1="45.000000" y1="126.000000" x2="46.000000" y2="126.000000" stroke="black" stroke-width="0.1" />
<line x1="50.000000" y1="126.000000" x2="51.000000" y2="126.000000" stroke="black" stroke-width="0.1" />
<line x1="48.000000" y1="123.000000" x2="48.000000" y2="124.000000" stroke="black" stroke-width="0.1" />
<line x1="48.000000" y1="128.000000" x2="48.000000" y2="129.000000" stroke="black" stroke-width="0.1" />
<circle cx="48.000000" cy="164.000000" r="2.500000" fill="none" stroke="black" stroke-width="0.1" />
<circle cx="48.000000" cy="164.000000" r="0.250000" fill="none" stroke="black" stroke-width="0.1" />
<line x1="47.750000" y1="164.000000" x2="47.500000" y2="164.000000" stroke="black" stroke-width="0.1" />
<line x1="48.250000" y1="164.000000" x2="48.500000" y2="164.000000" stroke="black" stroke-width="0.1" />
<line x1="48.000000" y1="163.750000" x2="48.000000" y2="163.500000" stroke="black" stroke-width="0.1" />
<line x1="48.000000" y1="164.250000" x2="48.000000" y2="164.500000" stroke="black" stroke-width="0.1" />
<line x1="45.000000" y1="164.000000" x2="46.000000" y2="164.000000" stroke="black" stroke-width="0.1" />
<line x1="50.000000" y1="164.000000" x2="51.000000" y2="164.000000" stroke="black" stroke-width="0.1" />
<line x1="48.000000" y1="161.000000" x2="48.000000" y2="162.000000" stroke="black" stroke-width="0.1" />
<line x1="48.000000" y1="166.000000" x2="48.000000" y2="167.000000" stroke="black" stroke-width="0.1" />
<text x="73.000000" y="25.000000" font-family="Arial" font-size="4" text-anchor="middle" dominant-baseline="middle" transform="rotate(90 73.000000 25.000000)" >Mid Sole Mount Line</text>
<text x="169.000000" y="235.000000" font-family="Arial" font-size="4" text-anchor="middle" dominant-baseline="middle" transform="rotate(90 169.000000 235.000000)" >Mid Sole Mount Line</text>
<text x="43.000000" y="235.000000" font-family="Arial" font-size="4" text-anchor="middle" dominant-baseline="middle" transform="rotate(90 43.000000 235.000000)" >Ski Center Line</text>
<text x="139.000000" y="25.000000" font-family="Arial" font-size="4" text-anchor="middle" dominant-baseline="middle" transform="rotate(90 139.000000 25.000000)" >Ski Center Line</text>
</svg>