<?xml version="1.0"?>
<!DOCTYPE svg PUBLIC "-//W3C//DTD SVG 1.1//EN"
"http://www.w3.org/Graphics/SVG/1.1/DTD/svg11.dtd">
<svg xmlns="http://www.w3.org/2000/svg" version="1.2" width="192.000000mm" height="259.000000mm" viewBox="0 0 192.000000 259.000000" style="background-color:white" >
<line x1="48.000000" y1="0.000000" x2="48.000000" y2="259.000000" stroke="black" stroke-width="0.1" />
<line x1="144.000000" y1="0.000000" x2="144.000000" y2="259.000000" stroke="black" stroke-width="0.1" />
<line x1="104.000000" y1="255.000000" x2="184.000000" y2="255.000000" stroke="black" stroke-width="0.1" />
<line x1="8.000000" y1="5.000000" x2="88.000000" y2="5.000000" stroke="black" stroke-width="0.1" />
<line x1="96.000000" y1="0.000000" x2="96.000000" y2="259.000000" stroke="black" stroke-width="0.1" stroke-dasharray="2 2" />
<line x1="0.000000" y1="259.000000" x2="96.000000" y2="259.000000" stroke="black" stroke-width="0.1" stroke-dasharray="2 2" />
<line x1="96.000000" y1="0.000000" x2="192.000000" y2="0.000000" stroke="black" stroke-width="0.1" stroke-dasharray="2 2" />
<line x1="48.000000" y1="7.000000" x2="41.000000" y2="0.000000" stroke="black" stroke-width="0.1" stroke-dasharray="2 2" />
<line x1="48.000000" y1="7.000000" x2="55.000000" y2="0.000000" stroke="black" stroke-width="0.1" stroke-dasharray="2 2" />
<line x1="144.000000" y1="253.000000" x2="138.000000" y2="259.000000" stroke="black" stroke-width="0.1" stroke-dasharray="2 2" />
<line x1="144.000000" y1="253.000000" x2="150.000000" y2="259.000000" stroke="black" stroke-width="0.1" stroke-dasharray="2 2" />
<text x="83.000000" y="130.000000" font-family="Arial" font-size="8" text-anchor="middle" dominant-baseline="middle" transform="rotate(90 83.000000 130.000000)" >Look R22 Plate, Heel</text>
<text x="179.000000" y="130.000000" font-family="Arial" font-size="8" text-anchor="middle" dominant-baseline="middle" transform="rotate(90 179.000000 130.000000)" >Look R22 Plate, Toe</text>
<line x1="104.000000" y1="156.000000" x2="104.000000" y2="255.000000" stroke="black" stroke-width="0.1" />
<line x1="101.500000" y1="156.000000" x2="106.500000" y2="156.000000" stroke="black" stroke-width="0.1" />
<line x1="104.000000" y1="156.000000" x2="101.500000" y2="158.500000" stroke="black" stroke-width="0.1" />
<line x1="104.000000" y1="156.000000" x2="106.500000" y2="158.500000" stroke="black" stroke-width="0.1" />
<line x1="101.500000" y1="255.000000" x2="106.500000" y2="255.000000" stroke="black" stroke-width="0.1" />
<line x1="104.000000" y1="255.000000" x2="101.500000" y2="252.500000" stroke="black" stroke-width="0.1" />
<line x1="104.000000" y1="255.000000" x2="106.500000" y2="252.500000" stroke="black" stroke-width="0.1" />
<text x="106.500000" y="205.500000" font-family="Arial" font-size="4" text-anchor="middle" dominant-baseline="middle" transform="rotate(90 106.500000 205.500000)" >99.0 mm</text>
<line x1="114.000000" y1="91.000000" x2="114.000000" y2="156.000000" stroke="black" stroke-width="0.1" />
<line x1="111.500000" y1="91.000000" x2="116.500000" y2="91.000000" stroke="black" stroke-width="0.1" />
<line x1="114.000000" y1="91.000000" x2="111.500000" y2="93.500000" stroke="black" stroke-width="0.1" />
<line x1="114.000000" y1="91.000000" x2="116.500000" y2="93.500000" stroke="black" stroke-width="0.1" />
<line x1="111.500000" y1="156.000000" x2="116.500000" y2="156.000000" stroke="black" stroke-width="0.1" />
<line x1="114.000000" y1="156.000000" x2="111.500000" y2="153.500000" stroke="black" stroke-width="0.1" />
<line x1="114.000000" y1="156.000000" x2="116.500000" y2="153.500000" stroke="black" stroke-width="0.1" />
<text x="116.500000" y="123.500000" font-family="Arial" font-size="4" text-anchor="middle" dominant-baseline="middle" transform="rotate(90 116.500000 123.500000)" >65.0 mm</text>
<line x1="8.000000" y1="5.000000" x2="8.000000" y2="57.000000" stroke="black" stroke-width="0.1" />
<line x1="5.500000" y1="5.000000" x2="10.500000" y2="5.000000" stroke="black" stroke-width="0.1" />
<line x1="8.000000" y1="5.000000" x2="5.500000" y2="7.500000" stroke="black" stroke-width="0.1" />
<line x1="8.000000" y1="5.000000" x2="10.500000" y2="7.500000" stroke="black" stroke-width="0.1" />
<line x1="5.500000" y1="57.000000" x2="10.500000" y2="57.000000" stroke="black" stroke-width="0.1" />
<line x1="8.000000" y1="57.000000" x2="5.500000" y2="54.500000" stroke="black" stroke-width="0.1" />
<line x1="8.000000" y1="57.000000" x2="10.500000" y2="54.500000" stroke="black" stroke-width="0.1" />
<text x="10.500000" y="31.000000" font-family="Arial" font-size="4" text-anchor="middle" dominant-baseline="middle" transform="rotate(90 10.500000 31.000000)" >52.0 mm</text>
<line x1="18.000000" y1="57.000000" x2="18.000000" y2="176.000000" stroke="black" stroke-width="0.1" />
<line x1="15.500000" y1="57.000000" x2="20.500000" y2="57.000000" stroke="black" stroke-width="0.1" />
<line x1="18.000000" y1="57.000000" x2="15.500000" y2="59.500000" stroke="black" stroke-width="0.1" />
<line x1="18.000000" y1="57.000000" x2="20.500000" y2="59.500000" stroke="black" stroke-width="0.1" />
<line x1="15.500000" y1="176.000000" x2="20.500000" y2="176.000000" stroke="black" stroke-width="0.1" />
<line x1="18.000000" y1="176.000000" x2="15.500000" y2="173.500000" stroke="black" stroke-width="0.1" />
<line x1="18.000000" y1="176.000000" x2="20.500000" y2="173.500000" stroke="black" stroke-width="0.1" />
<text x="20.500000" y="116.500000" font-family="Arial" font-size="4" text-anchor="middle" dominant-baseline="middle" transform="rotate(90 20.500000 116.500000)" >119.0 mm</text>
<line x1="138.000000" y1="81.000000" x2="150.000000" y2="81.000000" stroke="black" stroke-width="0.1" />
<line x1="138.000000" y1="78.500000" x2="138.000000" y2="83.500000" stroke="black" stroke-width="0.1" />
<line x1="138.000000" y1="81.000000" x2="140.500000" y2="83.500000" stroke="black" stroke-width="0.1" />
<line x1="138.000000" y1="81.000000" x2="140.500000" y2="78.500000" stroke="black" stroke-width="0.1" />
<line x1="150.000000" y1="78.500000" x2="150.000000" y2="83.500000" stroke="black" stroke-width="0.1" />
<line x1="150.000000" y1="81.000000" x2="147.500000" y2="83.500000" stroke="black" stroke-width="0.1" />
<line x1="150.000000" y1="81.000000" x2="147.500000" y2="78.500000" stroke="black" stroke-width="0.1" />
<text x="149.000000" y="71.000000" font-family="Arial" font-size="4" text-anchor="middle" dominant-baseline="middle" transform="rotate(90 149.000000 71.000000)" >12.0 mm</text>
<line x1="126.500000" y1="146.000000" x2="161.500000" y2="146.000000" stroke="black" stroke-width="0.1" />
<line x1="126.500000" y1="143.500000" x2="126.500000" y2="148.500000" stroke="black" stroke-width="0.1" />
<line x1="126.500000" y1="146.000000" x2="129.000000" y2="148.500000" stroke="black" stroke-width="0.1" />
<line x1="126.500000" y1="146.000000" x2="129.000000" y2="143.500000" stroke="black" stroke-width="0.1" />
<line x1="161.500000" y1="143.500000" x2="161.500000" y2="148.500000" stroke="black" stroke-width="0.1" />
<line x1="161.500000" y1="146.000000" x2="159.000000" y2="148.500000" stroke="black" stroke-width="0.1" />
<line x1="161.500000" y1="146.000000" x2="159.000000" y2="143.500000" stroke="black" stroke-width="0.1" />
<text x="149.000000" y="136.000000" font-family="Arial" font-size="4" text-anchor="middle" dominant-baseline="middle" transform="rotate(90 149.000000 136.000000)" >35.0 mm</text>
<line x1="30.500000" y1="67.000000" x2="65.500000" y2="67.000000" stroke="black" stroke-width="0.1" />
<line x1="30.500000" y1="64.500000" x2="30.500000" y2="69.500000" stroke="black" stroke-width="0.1" />
<line x1="30.500000" y1="67.000000" x2="33.000000" y2="69.500000" stroke="black" stroke-width="0.1" />
<line x1="30.500000" y1="67.000000" x2="33.000000" y2="64.500000" stroke="black" stroke-width="0.1" />
<line x1="65.500000" y1="64.500000" x2="65.500000" y2="69.500000" stroke="black" stroke-width="0.1" />
<line x1="65.500000" y1="67.000000" x2="63.000000" y2="69.500000" stroke="black" stroke-width="0.1" />
<line x1="65.500000" y1="67.000000" x2="63.000000" y2="64.500000" stroke="black" stroke-width="0.1" />
<text x="53.000000" y="77.000000" font-family="Arial" font-size="4" text-anchor="middle" dominant-baseline="middle" transform="rotate(90 53.000000 77.000000)" >35.0 mm</text>
<line x1="30.500000" y1="186.000000" x2="65.500000" y2="186.000000" stroke="black" stroke-width="0.1" />
<line x1="30.500000" y1="183.500000" x2="30.500000" y2="188.500000" stroke="black" stroke-width="0.1" />
<line x1="30.500000" y1="186.000000" x2="33.000000" y2="188.500000" stroke="black" stroke-width="0.1" />
<line x1="30.500000" y1="186.000000" x2="33.000000" y2="183.500000" stroke="black" stroke-width="0.1" />
<line x1="65.500000" y1="183.500000" x2="65.500000" y2="188.500000" stroke="black" stroke-width="0.1" />
<line x1="65.500000" y1="186.000000" x2="63.000000" y2="188.500000" stroke="black" stroke-width="0.1" />
<line x1="65.500000" y1="186.000000" x2="63.000000" y2="183.500000" stroke="black" stroke-width="0.1" />
<text x="53.000000" y="196.000000" font-family="Arial" font-size="4" text-anchor="middle" dominant-baseline="middle" transform="rotate(90 53.000000 196.000000)" >35.0 mm</text>
<circle cx="138.000000" cy="91.000000" r="2.500000" fill="none" stroke="black" stroke-width="0.1" />
<circle cx="138.000000" cy="91.000000" r="0.250000" fill="none" stroke="black" stroke-width="0.1" />
<line x1="137.750000" y1="91.000000" x2="137.500000" y2="91.000000" stroke="black" stroke-width="0.1" />
<line x1="138.250000" y1="91.000000" x2="138.500000" y2="91.000000" stroke="black" stroke-width="0.1" />
<line x1="138.000000" y1="90.750000" x2="138.000000" y2="90.500000" stroke="black" stroke-width="0.1" />
<line x1="138.000000" y1="91.250000" x2="138.000000" y2="91.500000" stroke="black" stroke-width="0.1" />
<line x1="135.000000" y1="91.000000" x2="136.000000" y2="91.000000" stroke="black" stroke-width="0.1" />
<line x1="140.000000" y1="91.000000" x2="141.000000" y2="91.000000" stroke="black" stroke-width="0.1" />
<line x1="138.000000" y1="88.000000" x2="138.000000" y2="89.000000" stroke="black" stroke-width="0.1" />
<line x1="138.000000" y1="93.000000" x2="138.000000" y2="94.000000" stroke="black" stroke-width="0.1" />
<circle cx="150.000000" cy="91.000000" r="2.500000" fill="none" stroke="black" stroke-width="0.1" />
<circle cx="150.000000" cy="91.000000" r="0.250000" fill="none" stroke="black" stroke-width="0.1" />
<line x1="149.750000" y1="91.000000" x2="149.500000" y2="91.000000" stroke="black" stroke-width="0.1" />
<line x1="150.250000" y1="91.000000" x2="150.500000" y2="91.000000" stroke="black" stroke-width="0.1" />
<line x1="150.000000" y1="90.750000" x2="150.000000" y2="90.500000" stroke="black" stroke-width="0.1" />
<line x1="150.000000" y1="91.250000" x2="150.000000" y2="91.500000" stroke="black" stroke-width="0.1" />
<line x1="147.000000" y1="91.000000" x2="148.000000" y2="91.000000" stroke="black" stroke-width="0.1" />
<line x1="152.000000" y1="91.000000" x2="153.000000" y2="91.000000" stroke="black" stroke-width="0.1" />
<line x1="150.000000" y1="88.000000" x2="150.000000" y2="89.000000" stroke="black" stroke-width="0.1" />
<line x1="150.000000" y1="93.000000" x2="150.000000" y2="94.000000" stroke="black" stroke-width="0.1" />
<circle cx="126.500000" cy="156.000000" r="2.500000" fill="none" stroke="black" stroke-width="0.1" />
<circle cx="126.500000" cy="156.000000" r="0.250000" fill="none" stroke="black" stroke-width="0.1" />
<line x1="126.250000" y1="156.000000" x2="126.000000" y2="156.000000" stroke="black" stroke-width="0.1" />
<line x1="126.750000" y1="156.000000" x2="127.000000" y2="156.000000" stroke="black" stroke-width="0.1" />
<line x1="126.500000" y1="155.750000" x2="126.500000" y2="155.500000" stroke="black" stroke-width="0.1" />
<line x1="126.500000" y1="156.250000" x2="126.500000" y2="156.500000" stroke="black" stroke-width="0.1" />
<line x1="123.500000" y1="156.000000" x2="124.500000" y2="156.000000" stroke="black" stroke-width="0.1" />
<line x1="128.500000" y1="156.000000" x2="129.500000" y2="156.000000" stroke="black" stroke-width="0.1" />
<line x1="126.500000" y1="153.000000" x2="126.500000" y2="154.000000" stroke="black" stroke-width="0.1" />
<line x1="126.500000" y1="158.000000" x2="126.500000" y2="159.000000" stroke="black" stroke-width="0.1" />
<circle cx="161.500000" cy="156.000000" r="2.500000" fill="none" stroke="black" stroke-width="0.1" />
<circle cx="161.500000" cy="156.000000" r="0.250000" fill="none" stroke="black" stroke-width="0.1" />
<line x1="161.250000" y1="156.000000" x2="161.000000" y2="156.000000" stroke="black" stroke-width="0.1" />
<line x1="161.750000" y1="156.000000" x2="162.000000" y2="156.000000" stroke="black" stroke-width="0.1" />
<line x1="161.500000" y1="155.750000" x2="161.500000" y2="155.500000" stroke="black" stroke-width="0.1" />
<line x1="161.500000" y1="156.250000" x2="161.500000" y2="156.500000" stroke="black" stroke-width="0.1" />
<line x1="158.500000" y1="156.000000" x2="159.500000" y2="156.000000" stroke="black" stroke-width="0.1" />
<line x1="163.500000" y1="156.000000" x2="164.500000" y2="156.000000" stroke="black" stroke-width="0.1" />
<line x1="161.500000" y1="153.000000" x2="161.500000" y2="154.000000" stroke="black" stroke-width="0.1" />
<line x1="161.500000" y1="158.000000" x2="161.500000" y2="159.000000" stroke="black" stroke-width="0.1" />
<circle cx="30.500000" cy="57.000000" r="2.500000" fill="none" stroke="black" stroke-width="0.1" />
<circle cx="30.500000" cy="57.000000" r="0.250000" fill="none" stroke="black" stroke-width="0.1" />
<line x1="30.250000" y1="57.000000" x2="30.000000" y2="57.000000" stroke="black" stroke-width="0.1" />
<line x1="30.750000" y1="57.000000" x2="31.000000" y2="57.000000" stroke="black" stroke-width="0.1" />
<line x1="30.500000" y1="56.750000" x2="30.500000" y2="56.500000" stroke="black" stroke-width="0.1" />
<line x1="30.500000" y1="57.250000" x2="30.500000" y2="57.500000" stroke="black" stroke-width="0.1" />
<line x1="27.500000" y1="57.000000" x2="28.500000" y2="57.000000" stroke="black" stroke-width="0.1" />
<line x1="32.500000" y1="57.000000" x2="33.500000" y2="57.000000" stroke="black" stroke-width="0.1" />
<line x1="30.500000" y1="54.000000" x2="30.500000" y2="55.000000" stroke="black" stroke-width="0.1" />
<line x1="30.500000" y1="59.000000" x2="30.500000" y2="60.000000" stroke="black" stroke-width="0.1" />
<circle cx="65.500000" cy="57.000000" r="2.500000" fill="none" stroke="black" stroke-width="0.1" />
<circle cx="65.500000" cy="57.000000" r="0.250000" fill="none" stroke="black" stroke-width="0.1" />
<line x1="65.250000" y1="57.000000" x2="65.000000" y2="57.000000" stroke="black" stroke-width="0.1" />
<line x1="65.750000" y1="57.000000" x2="66.000000" y2="57.000000" stroke="black" stroke-width="0.1" />
<line x1="65.500000" y1="56.750000" x2="65.500000" y2="56.500000" stroke="black" stroke-width="0.1" />
<line x1="65.500000" y1="57.250000" x2="65.500000" y2="57.500000" stroke="black" stroke-width="0.1" />
<line x1="62.500000" y1="57.000000" x2="63.500000" y2="57.000000" stroke="black" stroke-width="0.1" />
<line x1="67.500000" y1="57.000000" x2="68.500000" y2="57.000000" stroke="black" stroke-width="0.1" />
<line x1="65.500000" y1="54.000000" x2="65.500000" y2="55.000000" stroke="black" stroke-width="0.1" />
<line x1="65.500000" y1="59.000000" x2="65.500000" y2="60.000000" stroke="black" stroke-width="0.1" />
<circle cx="30.500000" cy="176.000000" r="2.500000" fill="none" stroke="black" stroke-width="0.1" />
<circle cx="30.500000" cy="176.000000" r="0.250000" fill="none" stroke="black" stroke-width="0.1" />
<line x1="30.250000" y1="176.000000" x2="30.000000" y2="176.000000" stroke="black" stroke-width="0.1" />
<line x1="30.750000" y1="176.000000" x2="31.000000" y2="176.000000" stroke="black" stroke-width="0.1" />
<line x1="30.500000" y1="175.750000" x2="30.500000" y2="175.500000" stroke="black" stroke-width="0.1" />
<line x1="30.500000" y1="176.250000" x2="30.500000" y2="176.500000" stroke="black" stroke-width="0.1" />
<line x1="27.500000" y1="176.000000" x2="28.500000" y2="176.000000" stroke="black" stroke-width="0.1" />
<line x1="32.500000" y1="176.000000" x2="33.500000" y2="176.000000" stroke="black" stroke-width="0.1" />
<line x1="30.500000" y1="173.000000" x2="30.500000" y2="174.000000" stroke="black" stroke-width="0.1" />
<line x1="30.500000" y1="178.000000" x2="30.500000" y2="179.000000" stroke="black" stroke-width="0.1" />
<circle cx="65.500000" cy="176.000000" r="2.500000" fill="none" stroke="black" stroke-width="0.1" />
<circle cx="65.500000" cy="176.000000" r="0.250000" fill="none" stroke="black" stroke-width="0.1" />
<line x1="65.250000" y1="176.000000" x2="65.000000" y2="176.000000" stroke="black" stroke-width="0.1" />
<line x1="65.750000" y1="176.000000" x2="66.000000" y2="176.000000" stroke="black" stroke-width="0.1" />
<line x1="65.500000" y1="175.750000" x2="65.500000" y2="175.500000" stroke="black" stroke-width="0.1" />
<line x1="65.500000" y1="176.250000" x2="65.500000" y2="176.500000" stroke="black" stroke-width="0.1" />
<line x1="62.500000" y1="176.000000" x2="63.500000" y2="176.000000" stroke="black" stroke-width="0.1" />
<line x1="67.500000" y1="176.000000" x2="68.500000" y2="176.000000" stroke="black" stroke-width="0.1" />
<line x1="65.500000" y1="173.000000" x2="65.500000" y2="174.000000" stroke="black" stroke-width="0.1" />
<line x1="65.500000" y1="178.000000" x2="65.500000" y2="179.000000" stroke="black" stroke-width="0.1" />
<text x="73.000000" y="25.000000" font-family="Arial" font-size="4" text-anchor="middle" dominant-baseline="middle" transform="rotate(90 73.000000 25.000000)" >Mid Sole Mount Line</text>
<text x="169.000000" y="235.000000" font-family="Arial" font-size="4" text-anchor="middle" dominant-baseline="middle" transform="rotate(90 169.000000 235.000000)" >Mid Sole Mount Line</text>
<text x="43.000000" y="235.000000" font-family="Arial" font-size="4" text-anchor="middle" dominant-baseline="middle" transform="rotate(90 43.000000 235.000000)" >Ski Center Line</text>
<text x="139.000000" y="25.000000" font-family="Arial" font-size="4" text-anchor="middle" dominant-baseline="middle" transform="rotate(90 139.000000 25.000000)" >Ski Center Line</text>
</svg>