<?xml version="1.0"?>
<!DOCTYPE svg PUBLIC "-//W3C//DTD SVG 1.1//EN"
"http://www.w3.org/Graphics/SVG/1.1/DTD/svg11.dtd">
<svg xmlns="http://www.w3.org/2000/svg" version="1.2" width="192.000000mm" height="259.000000mm" viewBox="0 0 192.000000 259.000000" style="background-color:white" >
<line x1="48.000000" y1="0.000000" x2="48.000000" y2="259.000000" stroke="black" stroke-width="0.1" />
<line x1="144.000000" y1="0.000000" x2="144.000000" y2="259.000000" stroke="black" stroke-width="0.1" />
<line x1="104.000000" y1="255.000000" x2="184.000000" y2="255.000000" stroke="black" stroke-width="0.1" />
<line x1="8.000000" y1="5.000000" x2="88.000000" y2="5.000000" stroke="black" stroke-width="0.1" />
<line x1="96.000000" y1="0.000000" x2="96.000000" y2="259.000000" stroke="black" stroke-width="0.1" stroke-dasharray="2 2" />
<line x1="0.000000" y1="259.000000" x2="96.000000" y2="259.000000" stroke="black" stroke-width="0.1" stroke-dasharray="2 2" />
<line x1="96.000000" y1="0.000000" x2="192.000000" y2="0.000000" stroke="black" stroke-width="0.1" stroke-dasharray="2 2" />
<line x1="48.000000" y1="7.000000" x2="41.000000" y2="0.000000" stroke="black" stroke-width="0.1" stroke-dasharray="2 2" />
<line x1="48.000000" y1="7.000000" x2="55.000000" y2="0.000000" stroke="black" stroke-width="0.1" stroke-dasharray="2 2" />
<line x1="144.000000" y1="253.000000" x2="138.000000" y2="259.000000" stroke="black" stroke-width="0.1" stroke-dasharray="2 2" />
<line x1="144.000000" y1="253.000000" x2="150.000000" y2="259.000000" stroke="black" stroke-width="0.1" stroke-dasharray="2 2" />
<text x="83.000000" y="130.000000" font-family="Arial" font-size="8" text-anchor="middle" dominant-baseline="middle" transform="rotate(90 83.000000 130.000000)" >Salomon Warden 13, Strive 16 307, Heel</text>
<text x="179.000000" y="130.000000" font-family="Arial" font-size="8" text-anchor="middle" dominant-baseline="middle" transform="rotate(90 179.000000 130.000000)" >Salomon Warden 13, Strive 16 307, Toe</text>
<line x1="104.000000" y1="116.500000" x2="104.000000" y2="255.000000" stroke="black" stroke-width="0.1" />
<line x1="101.500000" y1="116.500000" x2="106.500000" y2="116.500000" stroke="black" stroke-width="0.1" />
<line x1="104.000000" y1="116.500000" x2="101.500000" y2="119.000000" stroke="black" stroke-width="0.1" />
<line x1="104.000000" y1="116.500000" x2="106.500000" y2="119.000000" stroke="black" stroke-width="0.1" />
<line x1="101.500000" y1="255.000000" x2="106.500000" y2="255.000000" stroke="black" stroke-width="0.1" />
<line x1="104.000000" y1="255.000000" x2="101.500000" y2="252.500000" stroke="black" stroke-width="0.1" />
<line x1="104.000000" y1="255.000000" x2="106.500000" y2="252.500000" stroke="black" stroke-width="0.1" />
<text x="106.500000" y="185.750000" font-family="Arial" font-size="4" text-anchor="middle" dominant-baseline="middle" transform="rotate(90 106.500000 185.750000)" >138.5 mm</text>
<line x1="114.000000" y1="51.500000" x2="114.000000" y2="116.500000" stroke="black" stroke-width="0.1" />
<line x1="111.500000" y1="51.500000" x2="116.500000" y2="51.500000" stroke="black" stroke-width="0.1" />
<line x1="114.000000" y1="51.500000" x2="111.500000" y2="54.000000" stroke="black" stroke-width="0.1" />
<line x1="114.000000" y1="51.500000" x2="116.500000" y2="54.000000" stroke="black" stroke-width="0.1" />
<line x1="111.500000" y1="116.500000" x2="116.500000" y2="116.500000" stroke="black" stroke-width="0.1" />
<line x1="114.000000" y1="116.500000" x2="111.500000" y2="114.000000" stroke="black" stroke-width="0.1" />
<line x1="114.000000" y1="116.500000" x2="116.500000" y2="114.000000" stroke="black" stroke-width="0.1" />
<text x="116.500000" y="84.000000" font-family="Arial" font-size="4" text-anchor="middle" dominant-baseline="middle" transform="rotate(90 116.500000 84.000000)" >65.0 mm</text>
<line x1="8.000000" y1="5.000000" x2="8.000000" y2="130.500000" stroke="black" stroke-width="0.1" />
<line x1="5.500000" y1="5.000000" x2="10.500000" y2="5.000000" stroke="black" stroke-width="0.1" />
<line x1="8.000000" y1="5.000000" x2="5.500000" y2="7.500000" stroke="black" stroke-width="0.1" />
<line x1="8.000000" y1="5.000000" x2="10.500000" y2="7.500000" stroke="black" stroke-width="0.1" />
<line x1="5.500000" y1="130.500000" x2="10.500000" y2="130.500000" stroke="black" stroke-width="0.1" />
<line x1="8.000000" y1="130.500000" x2="5.500000" y2="128.000000" stroke="black" stroke-width="0.1" />
<line x1="8.000000" y1="130.500000" x2="10.500000" y2="128.000000" stroke="black" stroke-width="0.1" />
<text x="10.500000" y="67.750000" font-family="Arial" font-size="4" text-anchor="middle" dominant-baseline="middle" transform="rotate(90 10.500000 67.750000)" >125.5 mm</text>
<line x1="18.000000" y1="130.500000" x2="18.000000" y2="205.500000" stroke="black" stroke-width="0.1" />
<line x1="15.500000" y1="130.500000" x2="20.500000" y2="130.500000" stroke="black" stroke-width="0.1" />
<line x1="18.000000" y1="130.500000" x2="15.500000" y2="133.000000" stroke="black" stroke-width="0.1" />
<line x1="18.000000" y1="130.500000" x2="20.500000" y2="133.000000" stroke="black" stroke-width="0.1" />
<line x1="15.500000" y1="205.500000" x2="20.500000" y2="205.500000" stroke="black" stroke-width="0.1" />
<line x1="18.000000" y1="205.500000" x2="15.500000" y2="203.000000" stroke="black" stroke-width="0.1" />
<line x1="18.000000" y1="205.500000" x2="20.500000" y2="203.000000" stroke="black" stroke-width="0.1" />
<text x="20.500000" y="168.000000" font-family="Arial" font-size="4" text-anchor="middle" dominant-baseline="middle" transform="rotate(90 20.500000 168.000000)" >75.0 mm</text>
<line x1="124.000000" y1="41.500000" x2="164.000000" y2="41.500000" stroke="black" stroke-width="0.1" />
<line x1="124.000000" y1="39.000000" x2="124.000000" y2="44.000000" stroke="black" stroke-width="0.1" />
<line x1="124.000000" y1="41.500000" x2="126.500000" y2="44.000000" stroke="black" stroke-width="0.1" />
<line x1="124.000000" y1="41.500000" x2="126.500000" y2="39.000000" stroke="black" stroke-width="0.1" />
<line x1="164.000000" y1="39.000000" x2="164.000000" y2="44.000000" stroke="black" stroke-width="0.1" />
<line x1="164.000000" y1="41.500000" x2="161.500000" y2="44.000000" stroke="black" stroke-width="0.1" />
<line x1="164.000000" y1="41.500000" x2="161.500000" y2="39.000000" stroke="black" stroke-width="0.1" />
<text x="149.000000" y="31.500000" font-family="Arial" font-size="4" text-anchor="middle" dominant-baseline="middle" transform="rotate(90 149.000000 31.500000)" >40.0 mm</text>
<line x1="124.000000" y1="106.500000" x2="164.000000" y2="106.500000" stroke="black" stroke-width="0.1" />
<line x1="124.000000" y1="104.000000" x2="124.000000" y2="109.000000" stroke="black" stroke-width="0.1" />
<line x1="124.000000" y1="106.500000" x2="126.500000" y2="109.000000" stroke="black" stroke-width="0.1" />
<line x1="124.000000" y1="106.500000" x2="126.500000" y2="104.000000" stroke="black" stroke-width="0.1" />
<line x1="164.000000" y1="104.000000" x2="164.000000" y2="109.000000" stroke="black" stroke-width="0.1" />
<line x1="164.000000" y1="106.500000" x2="161.500000" y2="109.000000" stroke="black" stroke-width="0.1" />
<line x1="164.000000" y1="106.500000" x2="161.500000" y2="104.000000" stroke="black" stroke-width="0.1" />
<text x="149.000000" y="96.500000" font-family="Arial" font-size="4" text-anchor="middle" dominant-baseline="middle" transform="rotate(90 149.000000 96.500000)" >40.0 mm</text>
<line x1="32.000000" y1="140.500000" x2="64.000000" y2="140.500000" stroke="black" stroke-width="0.1" />
<line x1="32.000000" y1="138.000000" x2="32.000000" y2="143.000000" stroke="black" stroke-width="0.1" />
<line x1="32.000000" y1="140.500000" x2="34.500000" y2="143.000000" stroke="black" stroke-width="0.1" />
<line x1="32.000000" y1="140.500000" x2="34.500000" y2="138.000000" stroke="black" stroke-width="0.1" />
<line x1="64.000000" y1="138.000000" x2="64.000000" y2="143.000000" stroke="black" stroke-width="0.1" />
<line x1="64.000000" y1="140.500000" x2="61.500000" y2="143.000000" stroke="black" stroke-width="0.1" />
<line x1="64.000000" y1="140.500000" x2="61.500000" y2="138.000000" stroke="black" stroke-width="0.1" />
<text x="53.000000" y="150.500000" font-family="Arial" font-size="4" text-anchor="middle" dominant-baseline="middle" transform="rotate(90 53.000000 150.500000)" >32.0 mm</text>
<line x1="32.000000" y1="215.500000" x2="64.000000" y2="215.500000" stroke="black" stroke-width="0.1" />
<line x1="32.000000" y1="213.000000" x2="32.000000" y2="218.000000" stroke="black" stroke-width="0.1" />
<line x1="32.000000" y1="215.500000" x2="34.500000" y2="218.000000" stroke="black" stroke-width="0.1" />
<line x1="32.000000" y1="215.500000" x2="34.500000" y2="213.000000" stroke="black" stroke-width="0.1" />
<line x1="64.000000" y1="213.000000" x2="64.000000" y2="218.000000" stroke="black" stroke-width="0.1" />
<line x1="64.000000" y1="215.500000" x2="61.500000" y2="218.000000" stroke="black" stroke-width="0.1" />
<line x1="64.000000" y1="215.500000" x2="61.500000" y2="213.000000" stroke="black" stroke-width="0.1" />
<text x="53.000000" y="225.500000" font-family="Arial" font-size="4" text-anchor="middle" dominant-baseline="middle" transform="rotate(90 53.000000 225.500000)" >32.0 mm</text>
<circle cx="124.000000" cy="51.500000" r="2.500000" fill="none" stroke="black" stroke-width="0.1" />
<circle cx="124.000000" cy="51.500000" r="0.250000" fill="none" stroke="black" stroke-width="0.1" />
<line x1="123.750000" y1="51.500000" x2="123.500000" y2="51.500000" stroke="black" stroke-width="0.1" />
<line x1="124.250000" y1="51.500000" x2="124.500000" y2="51.500000" stroke="black" stroke-width="0.1" />
<line x1="124.000000" y1="51.250000" x2="124.000000" y2="51.000000" stroke="black" stroke-width="0.1" />
<line x1="124.000000" y1="51.750000" x2="124.000000" y2="52.000000" stroke="black" stroke-width="0.1" />
<line x1="121.000000" y1="51.500000" x2="122.000000" y2="51.500000" stroke="black" stroke-width="0.1" />
<line x1="126.000000" y1="51.500000" x2="127.000000" y2="51.500000" stroke="black" stroke-width="0.1" />
<line x1="124.000000" y1="48.500000" x2="124.000000" y2="49.500000" stroke="black" stroke-width="0.1" />
<line x1="124.000000" y1="53.500000" x2="124.000000" y2="54.500000" stroke="black" stroke-width="0.1" />
<circle cx="164.000000" cy="51.500000" r="2.500000" fill="none" stroke="black" stroke-width="0.1" />
<circle cx="164.000000" cy="51.500000" r="0.250000" fill="none" stroke="black" stroke-width="0.1" />
<line x1="163.750000" y1="51.500000" x2="163.500000" y2="51.500000" stroke="black" stroke-width="0.1" />
<line x1="164.250000" y1="51.500000" x2="164.500000" y2="51.500000" stroke="black" stroke-width="0.1" />
<line x1="164.000000" y1="51.250000" x2="164.000000" y2="51.000000" stroke="black" stroke-width="0.1" />
<line x1="164.000000" y1="51.750000" x2="164.000000" y2="52.000000" stroke="black" stroke-width="0.1" />
<line x1="161.000000" y1="51.500000" x2="162.000000" y2="51.500000" stroke="black" stroke-width="0.1" />
<line x1="166.000000" y1="51.500000" x2="167.000000" y2="51.500000" stroke="black" stroke-width="0.1" />
<line x1="164.000000" y1="48.500000" x2="164.000000" y2="49.500000" stroke="black" stroke-width="0.1" />
<line x1="164.000000" y1="53.500000" x2="164.000000" y2="54.500000" stroke="black" stroke-width="0.1" />
<circle cx="124.000000" cy="116.500000" r="2.500000" fill="none" stroke="black" stroke-width="0.1" />
<circle cx="124.000000" cy="116.500000" r="0.250000" fill="none" stroke="black" stroke-width="0.1" />
<line x1="123.750000" y1="116.500000" x2="123.500000" y2="116.500000" stroke="black" stroke-width="0.1" />
<line x1="124.250000" y1="116.500000" x2="124.500000" y2="116.500000" stroke="black" stroke-width="0.1" />
<line x1="124.000000" y1="116.250000" x2="124.000000" y2="116.000000" stroke="black" stroke-width="0.1" />
<line x1="124.000000" y1="116.750000" x2="124.000000" y2="117.000000" stroke="black" stroke-width="0.1" />
<line x1="121.000000" y1="116.500000" x2="122.000000" y2="116.500000" stroke="black" stroke-width="0.1" />
<line x1="126.000000" y1="116.500000" x2="127.000000" y2="116.500000" stroke="black" stroke-width="0.1" />
<line x1="124.000000" y1="113.500000" x2="124.000000" y2="114.500000" stroke="black" stroke-width="0.1" />
<line x1="124.000000" y1="118.500000" x2="124.000000" y2="119.500000" stroke="black" stroke-width="0.1" />
<circle cx="164.000000" cy="116.500000" r="2.500000" fill="none" stroke="black" stroke-width="0.1" />
<circle cx="164.000000" cy="116.500000" r="0.250000" fill="none" stroke="black" stroke-width="0.1" />
<line x1="163.750000" y1="116.500000" x2="163.500000" y2="116.500000" stroke="black" stroke-width="0.1" />
<line x1="164.250000" y1="116.500000" x2="164.500000" y2="116.500000" stroke="black" stroke-width="0.1" />
<line x1="164.000000" y1="116.250000" x2="164.000000" y2="116.000000" stroke="black" stroke-width="0.1" />
<line x1="164.000000" y1="116.750000" x2="164.000000" y2="117.000000" stroke="black" stroke-width="0.1" />
<line x1="161.000000" y1="116.500000" x2="162.000000" y2="116.500000" stroke="black" stroke-width="0.1" />
<line x1="166.000000" y1="116.500000" x2="167.000000" y2="116.500000" stroke="black" stroke-width="0.1" />
<line x1="164.000000" y1="113.500000" x2="164.000000" y2="114.500000" stroke="black" stroke-width="0.1" />
<line x1="164.000000" y1="118.500000" x2="164.000000" y2="119.500000" stroke="black" stroke-width="0.1" />
<circle cx="32.000000" cy="130.500000" r="2.500000" fill="none" stroke="black" stroke-width="0.1" />
<circle cx="32.000000" cy="130.500000" r="0.250000" fill="none" stroke="black" stroke-width="0.1" />
<line x1="31.750000" y1="130.500000" x2="31.500000" y2="130.500000" stroke="black" stroke-width="0.1" />
<line x1="32.250000" y1="130.500000" x2="32.500000" y2="130.500000" stroke="black" stroke-width="0.1" />
<line x1="32.000000" y1="130.250000" x2="32.000000" y2="130.000000" stroke="black" stroke-width="0.1" />
<line x1="32.000000" y1="130.750000" x2="32.000000" y2="131.000000" stroke="black" stroke-width="0.1" />
<line x1="29.000000" y1="130.500000" x2="30.000000" y2="130.500000" stroke="black" stroke-width="0.1" />
<line x1="34.000000" y1="130.500000" x2="35.000000" y2="130.500000" stroke="black" stroke-width="0.1" />
<line x1="32.000000" y1="127.500000" x2="32.000000" y2="128.500000" stroke="black" stroke-width="0.1" />
<line x1="32.000000" y1="132.500000" x2="32.000000" y2="133.500000" stroke="black" stroke-width="0.1" />
<circle cx="64.000000" cy="130.500000" r="2.500000" fill="none" stroke="black" stroke-width="0.1" />
<circle cx="64.000000" cy="130.500000" r="0.250000" fill="none" stroke="black" stroke-width="0.1" />
<line x1="63.750000" y1="130.500000" x2="63.500000" y2="130.500000" stroke="black" stroke-width="0.1" />
<line x1="64.250000" y1="130.500000" x2="64.500000" y2="130.500000" stroke="black" stroke-width="0.1" />
<line x1="64.000000" y1="130.250000" x2="64.000000" y2="130.000000" stroke="black" stroke-width="0.1" />
<line x1="64.000000" y1="130.750000" x2="64.000000" y2="131.000000" stroke="black" stroke-width="0.1" />
<line x1="61.000000" y1="130.500000" x2="62.000000" y2="130.500000" stroke="black" stroke-width="0.1" />
<line x1="66.000000" y1="130.500000" x2="67.000000" y2="130.500000" stroke="black" stroke-width="0.1" />
<line x1="64.000000" y1="127.500000" x2="64.000000" y2="128.500000" stroke="black" stroke-width="0.1" />
<line x1="64.000000" y1="132.500000" x2="64.000000" y2="133.500000" stroke="black" stroke-width="0.1" />
<circle cx="32.000000" cy="205.500000" r="2.500000" fill="none" stroke="black" stroke-width="0.1" />
<circle cx="32.000000" cy="205.500000" r="0.250000" fill="none" stroke="black" stroke-width="0.1" />
<line x1="31.750000" y1="205.500000" x2="31.500000" y2="205.500000" stroke="black" stroke-width="0.1" />
<line x1="32.250000" y1="205.500000" x2="32.500000" y2="205.500000" stroke="black" stroke-width="0.1" />
<line x1="32.000000" y1="205.250000" x2="32.000000" y2="205.000000" stroke="black" stroke-width="0.1" />
<line x1="32.000000" y1="205.750000" x2="32.000000" y2="206.000000" stroke="black" stroke-width="0.1" />
<line x1="29.000000" y1="205.500000" x2="30.000000" y2="205.500000" stroke="black" stroke-width="0.1" />
<line x1="34.000000" y1="205.500000" x2="35.000000" y2="205.500000" stroke="black" stroke-width="0.1" />
<line x1="32.000000" y1="202.500000" x2="32.000000" y2="203.500000" stroke="black" stroke-width="0.1" />
<line x1="32.000000" y1="207.500000" x2="32.000000" y2="208.500000" stroke="black" stroke-width="0.1" />
<circle cx="64.000000" cy="205.500000" r="2.500000" fill="none" stroke="black" stroke-width="0.1" />
<circle cx="64.000000" cy="205.500000" r="0.250000" fill="none" stroke="black" stroke-width="0.1" />
<line x1="63.750000" y1="205.500000" x2="63.500000" y2="205.500000" stroke="black" stroke-width="0.1" />
<line x1="64.250000" y1="205.500000" x2="64.500000" y2="205.500000" stroke="black" stroke-width="0.1" />
<line x1="64.000000" y1="205.250000" x2="64.000000" y2="205.000000" stroke="black" stroke-width="0.1" />
<line x1="64.000000" y1="205.750000" x2="64.000000" y2="206.000000" stroke="black" stroke-width="0.1" />
<line x1="61.000000" y1="205.500000" x2="62.000000" y2="205.500000" stroke="black" stroke-width="0.1" />
<line x1="66.000000" y1="205.500000" x2="67.000000" y2="205.500000" stroke="black" stroke-width="0.1" />
<line x1="64.000000" y1="202.500000" x2="64.000000" y2="203.500000" stroke="black" stroke-width="0.1" />
<line x1="64.000000" y1="207.500000" x2="64.000000" y2="208.500000" stroke="black" stroke-width="0.1" />
<text x="73.000000" y="25.000000" font-family="Arial" font-size="4" text-anchor="middle" dominant-baseline="middle" transform="rotate(90 73.000000 25.000000)" >Mid Sole Mount Line</text>
<text x="169.000000" y="235.000000" font-family="Arial" font-size="4" text-anchor="middle" dominant-baseline="middle" transform="rotate(90 169.000000 235.000000)" >Mid Sole Mount Line</text>
<text x="43.000000" y="235.000000" font-family="Arial" font-size="4" text-anchor="middle" dominant-baseline="middle" transform="rotate(90 43.000000 235.000000)" >Ski Center Line</text>
<text x="139.000000" y="25.000000" font-family="Arial" font-size="4" text-anchor="middle" dominant-baseline="middle" transform="rotate(90 139.000000 25.000000)" >Ski Center Line</text>
</svg>