<?xml version="1.0"?>
<!DOCTYPE svg PUBLIC "-//W3C//DTD SVG 1.1//EN"
"http://www.w3.org/Graphics/SVG/1.1/DTD/svg11.dtd">
<svg xmlns="http://www.w3.org/2000/svg" version="1.2" width="192.000000mm" height="259.000000mm" viewBox="0 0 192.000000 259.000000" style="background-color:white" >
<line x1="48.000000" y1="0.000000" x2="48.000000" y2="259.000000" stroke="black" stroke-width="0.1" />
<line x1="144.000000" y1="0.000000" x2="144.000000" y2="259.000000" stroke="black" stroke-width="0.1" />
<line x1="104.000000" y1="255.000000" x2="184.000000" y2="255.000000" stroke="black" stroke-width="0.1" />
<line x1="8.000000" y1="5.000000" x2="88.000000" y2="5.000000" stroke="black" stroke-width="0.1" />
<line x1="96.000000" y1="0.000000" x2="96.000000" y2="259.000000" stroke="black" stroke-width="0.1" stroke-dasharray="2 2" />
<line x1="0.000000" y1="259.000000" x2="96.000000" y2="259.000000" stroke="black" stroke-width="0.1" stroke-dasharray="2 2" />
<line x1="96.000000" y1="0.000000" x2="192.000000" y2="0.000000" stroke="black" stroke-width="0.1" stroke-dasharray="2 2" />
<line x1="48.000000" y1="7.000000" x2="41.000000" y2="0.000000" stroke="black" stroke-width="0.1" stroke-dasharray="2 2" />
<line x1="48.000000" y1="7.000000" x2="55.000000" y2="0.000000" stroke="black" stroke-width="0.1" stroke-dasharray="2 2" />
<line x1="144.000000" y1="253.000000" x2="138.000000" y2="259.000000" stroke="black" stroke-width="0.1" stroke-dasharray="2 2" />
<line x1="144.000000" y1="253.000000" x2="150.000000" y2="259.000000" stroke="black" stroke-width="0.1" stroke-dasharray="2 2" />
<text x="83.000000" y="130.000000" font-family="Arial" font-size="8" text-anchor="middle" dominant-baseline="middle" transform="rotate(90 83.000000 130.000000)" >Salomon Warden 13, Strive 16 252, Heel</text>
<text x="179.000000" y="130.000000" font-family="Arial" font-size="8" text-anchor="middle" dominant-baseline="middle" transform="rotate(90 179.000000 130.000000)" >Salomon Warden 13, Strive 16 252, Toe</text>
<line x1="104.000000" y1="144.000000" x2="104.000000" y2="255.000000" stroke="black" stroke-width="0.1" />
<line x1="101.500000" y1="144.000000" x2="106.500000" y2="144.000000" stroke="black" stroke-width="0.1" />
<line x1="104.000000" y1="144.000000" x2="101.500000" y2="146.500000" stroke="black" stroke-width="0.1" />
<line x1="104.000000" y1="144.000000" x2="106.500000" y2="146.500000" stroke="black" stroke-width="0.1" />
<line x1="101.500000" y1="255.000000" x2="106.500000" y2="255.000000" stroke="black" stroke-width="0.1" />
<line x1="104.000000" y1="255.000000" x2="101.500000" y2="252.500000" stroke="black" stroke-width="0.1" />
<line x1="104.000000" y1="255.000000" x2="106.500000" y2="252.500000" stroke="black" stroke-width="0.1" />
<text x="106.500000" y="199.500000" font-family="Arial" font-size="4" text-anchor="middle" dominant-baseline="middle" transform="rotate(90 106.500000 199.500000)" >111.0 mm</text>
<line x1="114.000000" y1="79.000000" x2="114.000000" y2="144.000000" stroke="black" stroke-width="0.1" />
<line x1="111.500000" y1="79.000000" x2="116.500000" y2="79.000000" stroke="black" stroke-width="0.1" />
<line x1="114.000000" y1="79.000000" x2="111.500000" y2="81.500000" stroke="black" stroke-width="0.1" />
<line x1="114.000000" y1="79.000000" x2="116.500000" y2="81.500000" stroke="black" stroke-width="0.1" />
<line x1="111.500000" y1="144.000000" x2="116.500000" y2="144.000000" stroke="black" stroke-width="0.1" />
<line x1="114.000000" y1="144.000000" x2="111.500000" y2="141.500000" stroke="black" stroke-width="0.1" />
<line x1="114.000000" y1="144.000000" x2="116.500000" y2="141.500000" stroke="black" stroke-width="0.1" />
<text x="116.500000" y="111.500000" font-family="Arial" font-size="4" text-anchor="middle" dominant-baseline="middle" transform="rotate(90 116.500000 111.500000)" >65.0 mm</text>
<line x1="8.000000" y1="5.000000" x2="8.000000" y2="103.000000" stroke="black" stroke-width="0.1" />
<line x1="5.500000" y1="5.000000" x2="10.500000" y2="5.000000" stroke="black" stroke-width="0.1" />
<line x1="8.000000" y1="5.000000" x2="5.500000" y2="7.500000" stroke="black" stroke-width="0.1" />
<line x1="8.000000" y1="5.000000" x2="10.500000" y2="7.500000" stroke="black" stroke-width="0.1" />
<line x1="5.500000" y1="103.000000" x2="10.500000" y2="103.000000" stroke="black" stroke-width="0.1" />
<line x1="8.000000" y1="103.000000" x2="5.500000" y2="100.500000" stroke="black" stroke-width="0.1" />
<line x1="8.000000" y1="103.000000" x2="10.500000" y2="100.500000" stroke="black" stroke-width="0.1" />
<text x="10.500000" y="54.000000" font-family="Arial" font-size="4" text-anchor="middle" dominant-baseline="middle" transform="rotate(90 10.500000 54.000000)" >98.0 mm</text>
<line x1="18.000000" y1="103.000000" x2="18.000000" y2="178.000000" stroke="black" stroke-width="0.1" />
<line x1="15.500000" y1="103.000000" x2="20.500000" y2="103.000000" stroke="black" stroke-width="0.1" />
<line x1="18.000000" y1="103.000000" x2="15.500000" y2="105.500000" stroke="black" stroke-width="0.1" />
<line x1="18.000000" y1="103.000000" x2="20.500000" y2="105.500000" stroke="black" stroke-width="0.1" />
<line x1="15.500000" y1="178.000000" x2="20.500000" y2="178.000000" stroke="black" stroke-width="0.1" />
<line x1="18.000000" y1="178.000000" x2="15.500000" y2="175.500000" stroke="black" stroke-width="0.1" />
<line x1="18.000000" y1="178.000000" x2="20.500000" y2="175.500000" stroke="black" stroke-width="0.1" />
<text x="20.500000" y="140.500000" font-family="Arial" font-size="4" text-anchor="middle" dominant-baseline="middle" transform="rotate(90 20.500000 140.500000)" >75.0 mm</text>
<line x1="124.000000" y1="69.000000" x2="164.000000" y2="69.000000" stroke="black" stroke-width="0.1" />
<line x1="124.000000" y1="66.500000" x2="124.000000" y2="71.500000" stroke="black" stroke-width="0.1" />
<line x1="124.000000" y1="69.000000" x2="126.500000" y2="71.500000" stroke="black" stroke-width="0.1" />
<line x1="124.000000" y1="69.000000" x2="126.500000" y2="66.500000" stroke="black" stroke-width="0.1" />
<line x1="164.000000" y1="66.500000" x2="164.000000" y2="71.500000" stroke="black" stroke-width="0.1" />
<line x1="164.000000" y1="69.000000" x2="161.500000" y2="71.500000" stroke="black" stroke-width="0.1" />
<line x1="164.000000" y1="69.000000" x2="161.500000" y2="66.500000" stroke="black" stroke-width="0.1" />
<text x="149.000000" y="59.000000" font-family="Arial" font-size="4" text-anchor="middle" dominant-baseline="middle" transform="rotate(90 149.000000 59.000000)" >40.0 mm</text>
<line x1="124.000000" y1="134.000000" x2="164.000000" y2="134.000000" stroke="black" stroke-width="0.1" />
<line x1="124.000000" y1="131.500000" x2="124.000000" y2="136.500000" stroke="black" stroke-width="0.1" />
<line x1="124.000000" y1="134.000000" x2="126.500000" y2="136.500000" stroke="black" stroke-width="0.1" />
<line x1="124.000000" y1="134.000000" x2="126.500000" y2="131.500000" stroke="black" stroke-width="0.1" />
<line x1="164.000000" y1="131.500000" x2="164.000000" y2="136.500000" stroke="black" stroke-width="0.1" />
<line x1="164.000000" y1="134.000000" x2="161.500000" y2="136.500000" stroke="black" stroke-width="0.1" />
<line x1="164.000000" y1="134.000000" x2="161.500000" y2="131.500000" stroke="black" stroke-width="0.1" />
<text x="149.000000" y="124.000000" font-family="Arial" font-size="4" text-anchor="middle" dominant-baseline="middle" transform="rotate(90 149.000000 124.000000)" >40.0 mm</text>
<line x1="32.000000" y1="113.000000" x2="64.000000" y2="113.000000" stroke="black" stroke-width="0.1" />
<line x1="32.000000" y1="110.500000" x2="32.000000" y2="115.500000" stroke="black" stroke-width="0.1" />
<line x1="32.000000" y1="113.000000" x2="34.500000" y2="115.500000" stroke="black" stroke-width="0.1" />
<line x1="32.000000" y1="113.000000" x2="34.500000" y2="110.500000" stroke="black" stroke-width="0.1" />
<line x1="64.000000" y1="110.500000" x2="64.000000" y2="115.500000" stroke="black" stroke-width="0.1" />
<line x1="64.000000" y1="113.000000" x2="61.500000" y2="115.500000" stroke="black" stroke-width="0.1" />
<line x1="64.000000" y1="113.000000" x2="61.500000" y2="110.500000" stroke="black" stroke-width="0.1" />
<text x="53.000000" y="123.000000" font-family="Arial" font-size="4" text-anchor="middle" dominant-baseline="middle" transform="rotate(90 53.000000 123.000000)" >32.0 mm</text>
<line x1="32.000000" y1="188.000000" x2="64.000000" y2="188.000000" stroke="black" stroke-width="0.1" />
<line x1="32.000000" y1="185.500000" x2="32.000000" y2="190.500000" stroke="black" stroke-width="0.1" />
<line x1="32.000000" y1="188.000000" x2="34.500000" y2="190.500000" stroke="black" stroke-width="0.1" />
<line x1="32.000000" y1="188.000000" x2="34.500000" y2="185.500000" stroke="black" stroke-width="0.1" />
<line x1="64.000000" y1="185.500000" x2="64.000000" y2="190.500000" stroke="black" stroke-width="0.1" />
<line x1="64.000000" y1="188.000000" x2="61.500000" y2="190.500000" stroke="black" stroke-width="0.1" />
<line x1="64.000000" y1="188.000000" x2="61.500000" y2="185.500000" stroke="black" stroke-width="0.1" />
<text x="53.000000" y="198.000000" font-family="Arial" font-size="4" text-anchor="middle" dominant-baseline="middle" transform="rotate(90 53.000000 198.000000)" >32.0 mm</text>
<circle cx="124.000000" cy="79.000000" r="2.500000" fill="none" stroke="black" stroke-width="0.1" />
<circle cx="124.000000" cy="79.000000" r="0.250000" fill="none" stroke="black" stroke-width="0.1" />
<line x1="123.750000" y1="79.000000" x2="123.500000" y2="79.000000" stroke="black" stroke-width="0.1" />
<line x1="124.250000" y1="79.000000" x2="124.500000" y2="79.000000" stroke="black" stroke-width="0.1" />
<line x1="124.000000" y1="78.750000" x2="124.000000" y2="78.500000" stroke="black" stroke-width="0.1" />
<line x1="124.000000" y1="79.250000" x2="124.000000" y2="79.500000" stroke="black" stroke-width="0.1" />
<line x1="121.000000" y1="79.000000" x2="122.000000" y2="79.000000" stroke="black" stroke-width="0.1" />
<line x1="126.000000" y1="79.000000" x2="127.000000" y2="79.000000" stroke="black" stroke-width="0.1" />
<line x1="124.000000" y1="76.000000" x2="124.000000" y2="77.000000" stroke="black" stroke-width="0.1" />
<line x1="124.000000" y1="81.000000" x2="124.000000" y2="82.000000" stroke="black" stroke-width="0.1" />
<circle cx="164.000000" cy="79.000000" r="2.500000" fill="none" stroke="black" stroke-width="0.1" />
<circle cx="164.000000" cy="79.000000" r="0.250000" fill="none" stroke="black" stroke-width="0.1" />
<line x1="163.750000" y1="79.000000" x2="163.500000" y2="79.000000" stroke="black" stroke-width="0.1" />
<line x1="164.250000" y1="79.000000" x2="164.500000" y2="79.000000" stroke="black" stroke-width="0.1" />
<line x1="164.000000" y1="78.750000" x2="164.000000" y2="78.500000" stroke="black" stroke-width="0.1" />
<line x1="164.000000" y1="79.250000" x2="164.000000" y2="79.500000" stroke="black" stroke-width="0.1" />
<line x1="161.000000" y1="79.000000" x2="162.000000" y2="79.000000" stroke="black" stroke-width="0.1" />
<line x1="166.000000" y1="79.000000" x2="167.000000" y2="79.000000" stroke="black" stroke-width="0.1" />
<line x1="164.000000" y1="76.000000" x2="164.000000" y2="77.000000" stroke="black" stroke-width="0.1" />
<line x1="164.000000" y1="81.000000" x2="164.000000" y2="82.000000" stroke="black" stroke-width="0.1" />
<circle cx="124.000000" cy="144.000000" r="2.500000" fill="none" stroke="black" stroke-width="0.1" />
<circle cx="124.000000" cy="144.000000" r="0.250000" fill="none" stroke="black" stroke-width="0.1" />
<line x1="123.750000" y1="144.000000" x2="123.500000" y2="144.000000" stroke="black" stroke-width="0.1" />
<line x1="124.250000" y1="144.000000" x2="124.500000" y2="144.000000" stroke="black" stroke-width="0.1" />
<line x1="124.000000" y1="143.750000" x2="124.000000" y2="143.500000" stroke="black" stroke-width="0.1" />
<line x1="124.000000" y1="144.250000" x2="124.000000" y2="144.500000" stroke="black" stroke-width="0.1" />
<line x1="121.000000" y1="144.000000" x2="122.000000" y2="144.000000" stroke="black" stroke-width="0.1" />
<line x1="126.000000" y1="144.000000" x2="127.000000" y2="144.000000" stroke="black" stroke-width="0.1" />
<line x1="124.000000" y1="141.000000" x2="124.000000" y2="142.000000" stroke="black" stroke-width="0.1" />
<line x1="124.000000" y1="146.000000" x2="124.000000" y2="147.000000" stroke="black" stroke-width="0.1" />
<circle cx="164.000000" cy="144.000000" r="2.500000" fill="none" stroke="black" stroke-width="0.1" />
<circle cx="164.000000" cy="144.000000" r="0.250000" fill="none" stroke="black" stroke-width="0.1" />
<line x1="163.750000" y1="144.000000" x2="163.500000" y2="144.000000" stroke="black" stroke-width="0.1" />
<line x1="164.250000" y1="144.000000" x2="164.500000" y2="144.000000" stroke="black" stroke-width="0.1" />
<line x1="164.000000" y1="143.750000" x2="164.000000" y2="143.500000" stroke="black" stroke-width="0.1" />
<line x1="164.000000" y1="144.250000" x2="164.000000" y2="144.500000" stroke="black" stroke-width="0.1" />
<line x1="161.000000" y1="144.000000" x2="162.000000" y2="144.000000" stroke="black" stroke-width="0.1" />
<line x1="166.000000" y1="144.000000" x2="167.000000" y2="144.000000" stroke="black" stroke-width="0.1" />
<line x1="164.000000" y1="141.000000" x2="164.000000" y2="142.000000" stroke="black" stroke-width="0.1" />
<line x1="164.000000" y1="146.000000" x2="164.000000" y2="147.000000" stroke="black" stroke-width="0.1" />
<circle cx="32.000000" cy="103.000000" r="2.500000" fill="none" stroke="black" stroke-width="0.1" />
<circle cx="32.000000" cy="103.000000" r="0.250000" fill="none" stroke="black" stroke-width="0.1" />
<line x1="31.750000" y1="103.000000" x2="31.500000" y2="103.000000" stroke="black" stroke-width="0.1" />
<line x1="32.250000" y1="103.000000" x2="32.500000" y2="103.000000" stroke="black" stroke-width="0.1" />
<line x1="32.000000" y1="102.750000" x2="32.000000" y2="102.500000" stroke="black" stroke-width="0.1" />
<line x1="32.000000" y1="103.250000" x2="32.000000" y2="103.500000" stroke="black" stroke-width="0.1" />
<line x1="29.000000" y1="103.000000" x2="30.000000" y2="103.000000" stroke="black" stroke-width="0.1" />
<line x1="34.000000" y1="103.000000" x2="35.000000" y2="103.000000" stroke="black" stroke-width="0.1" />
<line x1="32.000000" y1="100.000000" x2="32.000000" y2="101.000000" stroke="black" stroke-width="0.1" />
<line x1="32.000000" y1="105.000000" x2="32.000000" y2="106.000000" stroke="black" stroke-width="0.1" />
<circle cx="64.000000" cy="103.000000" r="2.500000" fill="none" stroke="black" stroke-width="0.1" />
<circle cx="64.000000" cy="103.000000" r="0.250000" fill="none" stroke="black" stroke-width="0.1" />
<line x1="63.750000" y1="103.000000" x2="63.500000" y2="103.000000" stroke="black" stroke-width="0.1" />
<line x1="64.250000" y1="103.000000" x2="64.500000" y2="103.000000" stroke="black" stroke-width="0.1" />
<line x1="64.000000" y1="102.750000" x2="64.000000" y2="102.500000" stroke="black" stroke-width="0.1" />
<line x1="64.000000" y1="103.250000" x2="64.000000" y2="103.500000" stroke="black" stroke-width="0.1" />
<line x1="61.000000" y1="103.000000" x2="62.000000" y2="103.000000" stroke="black" stroke-width="0.1" />
<line x1="66.000000" y1="103.000000" x2="67.000000" y2="103.000000" stroke="black" stroke-width="0.1" />
<line x1="64.000000" y1="100.000000" x2="64.000000" y2="101.000000" stroke="black" stroke-width="0.1" />
<line x1="64.000000" y1="105.000000" x2="64.000000" y2="106.000000" stroke="black" stroke-width="0.1" />
<circle cx="32.000000" cy="178.000000" r="2.500000" fill="none" stroke="black" stroke-width="0.1" />
<circle cx="32.000000" cy="178.000000" r="0.250000" fill="none" stroke="black" stroke-width="0.1" />
<line x1="31.750000" y1="178.000000" x2="31.500000" y2="178.000000" stroke="black" stroke-width="0.1" />
<line x1="32.250000" y1="178.000000" x2="32.500000" y2="178.000000" stroke="black" stroke-width="0.1" />
<line x1="32.000000" y1="177.750000" x2="32.000000" y2="177.500000" stroke="black" stroke-width="0.1" />
<line x1="32.000000" y1="178.250000" x2="32.000000" y2="178.500000" stroke="black" stroke-width="0.1" />
<line x1="29.000000" y1="178.000000" x2="30.000000" y2="178.000000" stroke="black" stroke-width="0.1" />
<line x1="34.000000" y1="178.000000" x2="35.000000" y2="178.000000" stroke="black" stroke-width="0.1" />
<line x1="32.000000" y1="175.000000" x2="32.000000" y2="176.000000" stroke="black" stroke-width="0.1" />
<line x1="32.000000" y1="180.000000" x2="32.000000" y2="181.000000" stroke="black" stroke-width="0.1" />
<circle cx="64.000000" cy="178.000000" r="2.500000" fill="none" stroke="black" stroke-width="0.1" />
<circle cx="64.000000" cy="178.000000" r="0.250000" fill="none" stroke="black" stroke-width="0.1" />
<line x1="63.750000" y1="178.000000" x2="63.500000" y2="178.000000" stroke="black" stroke-width="0.1" />
<line x1="64.250000" y1="178.000000" x2="64.500000" y2="178.000000" stroke="black" stroke-width="0.1" />
<line x1="64.000000" y1="177.750000" x2="64.000000" y2="177.500000" stroke="black" stroke-width="0.1" />
<line x1="64.000000" y1="178.250000" x2="64.000000" y2="178.500000" stroke="black" stroke-width="0.1" />
<line x1="61.000000" y1="178.000000" x2="62.000000" y2="178.000000" stroke="black" stroke-width="0.1" />
<line x1="66.000000" y1="178.000000" x2="67.000000" y2="178.000000" stroke="black" stroke-width="0.1" />
<line x1="64.000000" y1="175.000000" x2="64.000000" y2="176.000000" stroke="black" stroke-width="0.1" />
<line x1="64.000000" y1="180.000000" x2="64.000000" y2="181.000000" stroke="black" stroke-width="0.1" />
<text x="73.000000" y="25.000000" font-family="Arial" font-size="4" text-anchor="middle" dominant-baseline="middle" transform="rotate(90 73.000000 25.000000)" >Mid Sole Mount Line</text>
<text x="169.000000" y="235.000000" font-family="Arial" font-size="4" text-anchor="middle" dominant-baseline="middle" transform="rotate(90 169.000000 235.000000)" >Mid Sole Mount Line</text>
<text x="43.000000" y="235.000000" font-family="Arial" font-size="4" text-anchor="middle" dominant-baseline="middle" transform="rotate(90 43.000000 235.000000)" >Ski Center Line</text>
<text x="139.000000" y="25.000000" font-family="Arial" font-size="4" text-anchor="middle" dominant-baseline="middle" transform="rotate(90 139.000000 25.000000)" >Ski Center Line</text>
</svg>