<?xml version="1.0"?>
<!DOCTYPE svg PUBLIC "-//W3C//DTD SVG 1.1//EN"
"http://www.w3.org/Graphics/SVG/1.1/DTD/svg11.dtd">
<svg xmlns="http://www.w3.org/2000/svg" version="1.2" width="192.000000mm" height="259.000000mm" viewBox="0 0 192.000000 259.000000" style="background-color:white" >
<line x1="48.000000" y1="0.000000" x2="48.000000" y2="259.000000" stroke="black" stroke-width="0.1" />
<line x1="144.000000" y1="0.000000" x2="144.000000" y2="259.000000" stroke="black" stroke-width="0.1" />
<line x1="104.000000" y1="255.000000" x2="184.000000" y2="255.000000" stroke="black" stroke-width="0.1" />
<line x1="8.000000" y1="5.000000" x2="88.000000" y2="5.000000" stroke="black" stroke-width="0.1" />
<line x1="96.000000" y1="0.000000" x2="96.000000" y2="259.000000" stroke="black" stroke-width="0.1" stroke-dasharray="2 2" />
<line x1="0.000000" y1="259.000000" x2="96.000000" y2="259.000000" stroke="black" stroke-width="0.1" stroke-dasharray="2 2" />
<line x1="96.000000" y1="0.000000" x2="192.000000" y2="0.000000" stroke="black" stroke-width="0.1" stroke-dasharray="2 2" />
<line x1="48.000000" y1="7.000000" x2="41.000000" y2="0.000000" stroke="black" stroke-width="0.1" stroke-dasharray="2 2" />
<line x1="48.000000" y1="7.000000" x2="55.000000" y2="0.000000" stroke="black" stroke-width="0.1" stroke-dasharray="2 2" />
<line x1="144.000000" y1="253.000000" x2="138.000000" y2="259.000000" stroke="black" stroke-width="0.1" stroke-dasharray="2 2" />
<line x1="144.000000" y1="253.000000" x2="150.000000" y2="259.000000" stroke="black" stroke-width="0.1" stroke-dasharray="2 2" />
<text x="83.000000" y="130.000000" font-family="Arial" font-size="8" text-anchor="middle" dominant-baseline="middle" transform="rotate(90 83.000000 130.000000)" >Salomon Warden 13, Strive 16 290, Heel</text>
<text x="179.000000" y="130.000000" font-family="Arial" font-size="8" text-anchor="middle" dominant-baseline="middle" transform="rotate(90 179.000000 130.000000)" >Salomon Warden 13, Strive 16 290, Toe</text>
<line x1="104.000000" y1="125.000000" x2="104.000000" y2="255.000000" stroke="black" stroke-width="0.1" />
<line x1="101.500000" y1="125.000000" x2="106.500000" y2="125.000000" stroke="black" stroke-width="0.1" />
<line x1="104.000000" y1="125.000000" x2="101.500000" y2="127.500000" stroke="black" stroke-width="0.1" />
<line x1="104.000000" y1="125.000000" x2="106.500000" y2="127.500000" stroke="black" stroke-width="0.1" />
<line x1="101.500000" y1="255.000000" x2="106.500000" y2="255.000000" stroke="black" stroke-width="0.1" />
<line x1="104.000000" y1="255.000000" x2="101.500000" y2="252.500000" stroke="black" stroke-width="0.1" />
<line x1="104.000000" y1="255.000000" x2="106.500000" y2="252.500000" stroke="black" stroke-width="0.1" />
<text x="106.500000" y="190.000000" font-family="Arial" font-size="4" text-anchor="middle" dominant-baseline="middle" transform="rotate(90 106.500000 190.000000)" >130.0 mm</text>
<line x1="114.000000" y1="60.000000" x2="114.000000" y2="125.000000" stroke="black" stroke-width="0.1" />
<line x1="111.500000" y1="60.000000" x2="116.500000" y2="60.000000" stroke="black" stroke-width="0.1" />
<line x1="114.000000" y1="60.000000" x2="111.500000" y2="62.500000" stroke="black" stroke-width="0.1" />
<line x1="114.000000" y1="60.000000" x2="116.500000" y2="62.500000" stroke="black" stroke-width="0.1" />
<line x1="111.500000" y1="125.000000" x2="116.500000" y2="125.000000" stroke="black" stroke-width="0.1" />
<line x1="114.000000" y1="125.000000" x2="111.500000" y2="122.500000" stroke="black" stroke-width="0.1" />
<line x1="114.000000" y1="125.000000" x2="116.500000" y2="122.500000" stroke="black" stroke-width="0.1" />
<text x="116.500000" y="92.500000" font-family="Arial" font-size="4" text-anchor="middle" dominant-baseline="middle" transform="rotate(90 116.500000 92.500000)" >65.0 mm</text>
<line x1="8.000000" y1="5.000000" x2="8.000000" y2="122.000000" stroke="black" stroke-width="0.1" />
<line x1="5.500000" y1="5.000000" x2="10.500000" y2="5.000000" stroke="black" stroke-width="0.1" />
<line x1="8.000000" y1="5.000000" x2="5.500000" y2="7.500000" stroke="black" stroke-width="0.1" />
<line x1="8.000000" y1="5.000000" x2="10.500000" y2="7.500000" stroke="black" stroke-width="0.1" />
<line x1="5.500000" y1="122.000000" x2="10.500000" y2="122.000000" stroke="black" stroke-width="0.1" />
<line x1="8.000000" y1="122.000000" x2="5.500000" y2="119.500000" stroke="black" stroke-width="0.1" />
<line x1="8.000000" y1="122.000000" x2="10.500000" y2="119.500000" stroke="black" stroke-width="0.1" />
<text x="10.500000" y="63.500000" font-family="Arial" font-size="4" text-anchor="middle" dominant-baseline="middle" transform="rotate(90 10.500000 63.500000)" >117.0 mm</text>
<line x1="18.000000" y1="122.000000" x2="18.000000" y2="197.000000" stroke="black" stroke-width="0.1" />
<line x1="15.500000" y1="122.000000" x2="20.500000" y2="122.000000" stroke="black" stroke-width="0.1" />
<line x1="18.000000" y1="122.000000" x2="15.500000" y2="124.500000" stroke="black" stroke-width="0.1" />
<line x1="18.000000" y1="122.000000" x2="20.500000" y2="124.500000" stroke="black" stroke-width="0.1" />
<line x1="15.500000" y1="197.000000" x2="20.500000" y2="197.000000" stroke="black" stroke-width="0.1" />
<line x1="18.000000" y1="197.000000" x2="15.500000" y2="194.500000" stroke="black" stroke-width="0.1" />
<line x1="18.000000" y1="197.000000" x2="20.500000" y2="194.500000" stroke="black" stroke-width="0.1" />
<text x="20.500000" y="159.500000" font-family="Arial" font-size="4" text-anchor="middle" dominant-baseline="middle" transform="rotate(90 20.500000 159.500000)" >75.0 mm</text>
<line x1="124.000000" y1="50.000000" x2="164.000000" y2="50.000000" stroke="black" stroke-width="0.1" />
<line x1="124.000000" y1="47.500000" x2="124.000000" y2="52.500000" stroke="black" stroke-width="0.1" />
<line x1="124.000000" y1="50.000000" x2="126.500000" y2="52.500000" stroke="black" stroke-width="0.1" />
<line x1="124.000000" y1="50.000000" x2="126.500000" y2="47.500000" stroke="black" stroke-width="0.1" />
<line x1="164.000000" y1="47.500000" x2="164.000000" y2="52.500000" stroke="black" stroke-width="0.1" />
<line x1="164.000000" y1="50.000000" x2="161.500000" y2="52.500000" stroke="black" stroke-width="0.1" />
<line x1="164.000000" y1="50.000000" x2="161.500000" y2="47.500000" stroke="black" stroke-width="0.1" />
<text x="149.000000" y="40.000000" font-family="Arial" font-size="4" text-anchor="middle" dominant-baseline="middle" transform="rotate(90 149.000000 40.000000)" >40.0 mm</text>
<line x1="124.000000" y1="115.000000" x2="164.000000" y2="115.000000" stroke="black" stroke-width="0.1" />
<line x1="124.000000" y1="112.500000" x2="124.000000" y2="117.500000" stroke="black" stroke-width="0.1" />
<line x1="124.000000" y1="115.000000" x2="126.500000" y2="117.500000" stroke="black" stroke-width="0.1" />
<line x1="124.000000" y1="115.000000" x2="126.500000" y2="112.500000" stroke="black" stroke-width="0.1" />
<line x1="164.000000" y1="112.500000" x2="164.000000" y2="117.500000" stroke="black" stroke-width="0.1" />
<line x1="164.000000" y1="115.000000" x2="161.500000" y2="117.500000" stroke="black" stroke-width="0.1" />
<line x1="164.000000" y1="115.000000" x2="161.500000" y2="112.500000" stroke="black" stroke-width="0.1" />
<text x="149.000000" y="105.000000" font-family="Arial" font-size="4" text-anchor="middle" dominant-baseline="middle" transform="rotate(90 149.000000 105.000000)" >40.0 mm</text>
<line x1="32.000000" y1="132.000000" x2="64.000000" y2="132.000000" stroke="black" stroke-width="0.1" />
<line x1="32.000000" y1="129.500000" x2="32.000000" y2="134.500000" stroke="black" stroke-width="0.1" />
<line x1="32.000000" y1="132.000000" x2="34.500000" y2="134.500000" stroke="black" stroke-width="0.1" />
<line x1="32.000000" y1="132.000000" x2="34.500000" y2="129.500000" stroke="black" stroke-width="0.1" />
<line x1="64.000000" y1="129.500000" x2="64.000000" y2="134.500000" stroke="black" stroke-width="0.1" />
<line x1="64.000000" y1="132.000000" x2="61.500000" y2="134.500000" stroke="black" stroke-width="0.1" />
<line x1="64.000000" y1="132.000000" x2="61.500000" y2="129.500000" stroke="black" stroke-width="0.1" />
<text x="53.000000" y="142.000000" font-family="Arial" font-size="4" text-anchor="middle" dominant-baseline="middle" transform="rotate(90 53.000000 142.000000)" >32.0 mm</text>
<line x1="32.000000" y1="207.000000" x2="64.000000" y2="207.000000" stroke="black" stroke-width="0.1" />
<line x1="32.000000" y1="204.500000" x2="32.000000" y2="209.500000" stroke="black" stroke-width="0.1" />
<line x1="32.000000" y1="207.000000" x2="34.500000" y2="209.500000" stroke="black" stroke-width="0.1" />
<line x1="32.000000" y1="207.000000" x2="34.500000" y2="204.500000" stroke="black" stroke-width="0.1" />
<line x1="64.000000" y1="204.500000" x2="64.000000" y2="209.500000" stroke="black" stroke-width="0.1" />
<line x1="64.000000" y1="207.000000" x2="61.500000" y2="209.500000" stroke="black" stroke-width="0.1" />
<line x1="64.000000" y1="207.000000" x2="61.500000" y2="204.500000" stroke="black" stroke-width="0.1" />
<text x="53.000000" y="217.000000" font-family="Arial" font-size="4" text-anchor="middle" dominant-baseline="middle" transform="rotate(90 53.000000 217.000000)" >32.0 mm</text>
<circle cx="124.000000" cy="60.000000" r="2.500000" fill="none" stroke="black" stroke-width="0.1" />
<circle cx="124.000000" cy="60.000000" r="0.250000" fill="none" stroke="black" stroke-width="0.1" />
<line x1="123.750000" y1="60.000000" x2="123.500000" y2="60.000000" stroke="black" stroke-width="0.1" />
<line x1="124.250000" y1="60.000000" x2="124.500000" y2="60.000000" stroke="black" stroke-width="0.1" />
<line x1="124.000000" y1="59.750000" x2="124.000000" y2="59.500000" stroke="black" stroke-width="0.1" />
<line x1="124.000000" y1="60.250000" x2="124.000000" y2="60.500000" stroke="black" stroke-width="0.1" />
<line x1="121.000000" y1="60.000000" x2="122.000000" y2="60.000000" stroke="black" stroke-width="0.1" />
<line x1="126.000000" y1="60.000000" x2="127.000000" y2="60.000000" stroke="black" stroke-width="0.1" />
<line x1="124.000000" y1="57.000000" x2="124.000000" y2="58.000000" stroke="black" stroke-width="0.1" />
<line x1="124.000000" y1="62.000000" x2="124.000000" y2="63.000000" stroke="black" stroke-width="0.1" />
<circle cx="164.000000" cy="60.000000" r="2.500000" fill="none" stroke="black" stroke-width="0.1" />
<circle cx="164.000000" cy="60.000000" r="0.250000" fill="none" stroke="black" stroke-width="0.1" />
<line x1="163.750000" y1="60.000000" x2="163.500000" y2="60.000000" stroke="black" stroke-width="0.1" />
<line x1="164.250000" y1="60.000000" x2="164.500000" y2="60.000000" stroke="black" stroke-width="0.1" />
<line x1="164.000000" y1="59.750000" x2="164.000000" y2="59.500000" stroke="black" stroke-width="0.1" />
<line x1="164.000000" y1="60.250000" x2="164.000000" y2="60.500000" stroke="black" stroke-width="0.1" />
<line x1="161.000000" y1="60.000000" x2="162.000000" y2="60.000000" stroke="black" stroke-width="0.1" />
<line x1="166.000000" y1="60.000000" x2="167.000000" y2="60.000000" stroke="black" stroke-width="0.1" />
<line x1="164.000000" y1="57.000000" x2="164.000000" y2="58.000000" stroke="black" stroke-width="0.1" />
<line x1="164.000000" y1="62.000000" x2="164.000000" y2="63.000000" stroke="black" stroke-width="0.1" />
<circle cx="124.000000" cy="125.000000" r="2.500000" fill="none" stroke="black" stroke-width="0.1" />
<circle cx="124.000000" cy="125.000000" r="0.250000" fill="none" stroke="black" stroke-width="0.1" />
<line x1="123.750000" y1="125.000000" x2="123.500000" y2="125.000000" stroke="black" stroke-width="0.1" />
<line x1="124.250000" y1="125.000000" x2="124.500000" y2="125.000000" stroke="black" stroke-width="0.1" />
<line x1="124.000000" y1="124.750000" x2="124.000000" y2="124.500000" stroke="black" stroke-width="0.1" />
<line x1="124.000000" y1="125.250000" x2="124.000000" y2="125.500000" stroke="black" stroke-width="0.1" />
<line x1="121.000000" y1="125.000000" x2="122.000000" y2="125.000000" stroke="black" stroke-width="0.1" />
<line x1="126.000000" y1="125.000000" x2="127.000000" y2="125.000000" stroke="black" stroke-width="0.1" />
<line x1="124.000000" y1="122.000000" x2="124.000000" y2="123.000000" stroke="black" stroke-width="0.1" />
<line x1="124.000000" y1="127.000000" x2="124.000000" y2="128.000000" stroke="black" stroke-width="0.1" />
<circle cx="164.000000" cy="125.000000" r="2.500000" fill="none" stroke="black" stroke-width="0.1" />
<circle cx="164.000000" cy="125.000000" r="0.250000" fill="none" stroke="black" stroke-width="0.1" />
<line x1="163.750000" y1="125.000000" x2="163.500000" y2="125.000000" stroke="black" stroke-width="0.1" />
<line x1="164.250000" y1="125.000000" x2="164.500000" y2="125.000000" stroke="black" stroke-width="0.1" />
<line x1="164.000000" y1="124.750000" x2="164.000000" y2="124.500000" stroke="black" stroke-width="0.1" />
<line x1="164.000000" y1="125.250000" x2="164.000000" y2="125.500000" stroke="black" stroke-width="0.1" />
<line x1="161.000000" y1="125.000000" x2="162.000000" y2="125.000000" stroke="black" stroke-width="0.1" />
<line x1="166.000000" y1="125.000000" x2="167.000000" y2="125.000000" stroke="black" stroke-width="0.1" />
<line x1="164.000000" y1="122.000000" x2="164.000000" y2="123.000000" stroke="black" stroke-width="0.1" />
<line x1="164.000000" y1="127.000000" x2="164.000000" y2="128.000000" stroke="black" stroke-width="0.1" />
<circle cx="32.000000" cy="122.000000" r="2.500000" fill="none" stroke="black" stroke-width="0.1" />
<circle cx="32.000000" cy="122.000000" r="0.250000" fill="none" stroke="black" stroke-width="0.1" />
<line x1="31.750000" y1="122.000000" x2="31.500000" y2="122.000000" stroke="black" stroke-width="0.1" />
<line x1="32.250000" y1="122.000000" x2="32.500000" y2="122.000000" stroke="black" stroke-width="0.1" />
<line x1="32.000000" y1="121.750000" x2="32.000000" y2="121.500000" stroke="black" stroke-width="0.1" />
<line x1="32.000000" y1="122.250000" x2="32.000000" y2="122.500000" stroke="black" stroke-width="0.1" />
<line x1="29.000000" y1="122.000000" x2="30.000000" y2="122.000000" stroke="black" stroke-width="0.1" />
<line x1="34.000000" y1="122.000000" x2="35.000000" y2="122.000000" stroke="black" stroke-width="0.1" />
<line x1="32.000000" y1="119.000000" x2="32.000000" y2="120.000000" stroke="black" stroke-width="0.1" />
<line x1="32.000000" y1="124.000000" x2="32.000000" y2="125.000000" stroke="black" stroke-width="0.1" />
<circle cx="64.000000" cy="122.000000" r="2.500000" fill="none" stroke="black" stroke-width="0.1" />
<circle cx="64.000000" cy="122.000000" r="0.250000" fill="none" stroke="black" stroke-width="0.1" />
<line x1="63.750000" y1="122.000000" x2="63.500000" y2="122.000000" stroke="black" stroke-width="0.1" />
<line x1="64.250000" y1="122.000000" x2="64.500000" y2="122.000000" stroke="black" stroke-width="0.1" />
<line x1="64.000000" y1="121.750000" x2="64.000000" y2="121.500000" stroke="black" stroke-width="0.1" />
<line x1="64.000000" y1="122.250000" x2="64.000000" y2="122.500000" stroke="black" stroke-width="0.1" />
<line x1="61.000000" y1="122.000000" x2="62.000000" y2="122.000000" stroke="black" stroke-width="0.1" />
<line x1="66.000000" y1="122.000000" x2="67.000000" y2="122.000000" stroke="black" stroke-width="0.1" />
<line x1="64.000000" y1="119.000000" x2="64.000000" y2="120.000000" stroke="black" stroke-width="0.1" />
<line x1="64.000000" y1="124.000000" x2="64.000000" y2="125.000000" stroke="black" stroke-width="0.1" />
<circle cx="32.000000" cy="197.000000" r="2.500000" fill="none" stroke="black" stroke-width="0.1" />
<circle cx="32.000000" cy="197.000000" r="0.250000" fill="none" stroke="black" stroke-width="0.1" />
<line x1="31.750000" y1="197.000000" x2="31.500000" y2="197.000000" stroke="black" stroke-width="0.1" />
<line x1="32.250000" y1="197.000000" x2="32.500000" y2="197.000000" stroke="black" stroke-width="0.1" />
<line x1="32.000000" y1="196.750000" x2="32.000000" y2="196.500000" stroke="black" stroke-width="0.1" />
<line x1="32.000000" y1="197.250000" x2="32.000000" y2="197.500000" stroke="black" stroke-width="0.1" />
<line x1="29.000000" y1="197.000000" x2="30.000000" y2="197.000000" stroke="black" stroke-width="0.1" />
<line x1="34.000000" y1="197.000000" x2="35.000000" y2="197.000000" stroke="black" stroke-width="0.1" />
<line x1="32.000000" y1="194.000000" x2="32.000000" y2="195.000000" stroke="black" stroke-width="0.1" />
<line x1="32.000000" y1="199.000000" x2="32.000000" y2="200.000000" stroke="black" stroke-width="0.1" />
<circle cx="64.000000" cy="197.000000" r="2.500000" fill="none" stroke="black" stroke-width="0.1" />
<circle cx="64.000000" cy="197.000000" r="0.250000" fill="none" stroke="black" stroke-width="0.1" />
<line x1="63.750000" y1="197.000000" x2="63.500000" y2="197.000000" stroke="black" stroke-width="0.1" />
<line x1="64.250000" y1="197.000000" x2="64.500000" y2="197.000000" stroke="black" stroke-width="0.1" />
<line x1="64.000000" y1="196.750000" x2="64.000000" y2="196.500000" stroke="black" stroke-width="0.1" />
<line x1="64.000000" y1="197.250000" x2="64.000000" y2="197.500000" stroke="black" stroke-width="0.1" />
<line x1="61.000000" y1="197.000000" x2="62.000000" y2="197.000000" stroke="black" stroke-width="0.1" />
<line x1="66.000000" y1="197.000000" x2="67.000000" y2="197.000000" stroke="black" stroke-width="0.1" />
<line x1="64.000000" y1="194.000000" x2="64.000000" y2="195.000000" stroke="black" stroke-width="0.1" />
<line x1="64.000000" y1="199.000000" x2="64.000000" y2="200.000000" stroke="black" stroke-width="0.1" />
<text x="73.000000" y="25.000000" font-family="Arial" font-size="4" text-anchor="middle" dominant-baseline="middle" transform="rotate(90 73.000000 25.000000)" >Mid Sole Mount Line</text>
<text x="169.000000" y="235.000000" font-family="Arial" font-size="4" text-anchor="middle" dominant-baseline="middle" transform="rotate(90 169.000000 235.000000)" >Mid Sole Mount Line</text>
<text x="43.000000" y="235.000000" font-family="Arial" font-size="4" text-anchor="middle" dominant-baseline="middle" transform="rotate(90 43.000000 235.000000)" >Ski Center Line</text>
<text x="139.000000" y="25.000000" font-family="Arial" font-size="4" text-anchor="middle" dominant-baseline="middle" transform="rotate(90 139.000000 25.000000)" >Ski Center Line</text>
</svg>