<?xml version="1.0"?>
<!DOCTYPE svg PUBLIC "-//W3C//DTD SVG 1.1//EN"
"http://www.w3.org/Graphics/SVG/1.1/DTD/svg11.dtd">
<svg xmlns="http://www.w3.org/2000/svg" version="1.2" width="192.000000mm" height="259.000000mm" viewBox="0 0 192.000000 259.000000" style="background-color:white" >
<line x1="48.000000" y1="0.000000" x2="48.000000" y2="259.000000" stroke="black" stroke-width="0.1" />
<line x1="144.000000" y1="0.000000" x2="144.000000" y2="259.000000" stroke="black" stroke-width="0.1" />
<line x1="104.000000" y1="255.000000" x2="184.000000" y2="255.000000" stroke="black" stroke-width="0.1" />
<line x1="8.000000" y1="5.000000" x2="88.000000" y2="5.000000" stroke="black" stroke-width="0.1" />
<line x1="96.000000" y1="0.000000" x2="96.000000" y2="259.000000" stroke="black" stroke-width="0.1" stroke-dasharray="2 2" />
<line x1="0.000000" y1="259.000000" x2="96.000000" y2="259.000000" stroke="black" stroke-width="0.1" stroke-dasharray="2 2" />
<line x1="96.000000" y1="0.000000" x2="192.000000" y2="0.000000" stroke="black" stroke-width="0.1" stroke-dasharray="2 2" />
<line x1="48.000000" y1="7.000000" x2="41.000000" y2="0.000000" stroke="black" stroke-width="0.1" stroke-dasharray="2 2" />
<line x1="48.000000" y1="7.000000" x2="55.000000" y2="0.000000" stroke="black" stroke-width="0.1" stroke-dasharray="2 2" />
<line x1="144.000000" y1="253.000000" x2="138.000000" y2="259.000000" stroke="black" stroke-width="0.1" stroke-dasharray="2 2" />
<line x1="144.000000" y1="253.000000" x2="150.000000" y2="259.000000" stroke="black" stroke-width="0.1" stroke-dasharray="2 2" />
<text x="83.000000" y="130.000000" font-family="Arial" font-size="8" text-anchor="middle" dominant-baseline="middle" transform="rotate(90 83.000000 130.000000)" >Salomon Warden 13, Strive 16 346, Heel</text>
<text x="179.000000" y="130.000000" font-family="Arial" font-size="8" text-anchor="middle" dominant-baseline="middle" transform="rotate(90 179.000000 130.000000)" >Salomon Warden 13, Strive 16 346, Toe</text>
<line x1="104.000000" y1="97.000000" x2="104.000000" y2="255.000000" stroke="black" stroke-width="0.1" />
<line x1="101.500000" y1="97.000000" x2="106.500000" y2="97.000000" stroke="black" stroke-width="0.1" />
<line x1="104.000000" y1="97.000000" x2="101.500000" y2="99.500000" stroke="black" stroke-width="0.1" />
<line x1="104.000000" y1="97.000000" x2="106.500000" y2="99.500000" stroke="black" stroke-width="0.1" />
<line x1="101.500000" y1="255.000000" x2="106.500000" y2="255.000000" stroke="black" stroke-width="0.1" />
<line x1="104.000000" y1="255.000000" x2="101.500000" y2="252.500000" stroke="black" stroke-width="0.1" />
<line x1="104.000000" y1="255.000000" x2="106.500000" y2="252.500000" stroke="black" stroke-width="0.1" />
<text x="106.500000" y="176.000000" font-family="Arial" font-size="4" text-anchor="middle" dominant-baseline="middle" transform="rotate(90 106.500000 176.000000)" >158.0 mm</text>
<line x1="114.000000" y1="32.000000" x2="114.000000" y2="97.000000" stroke="black" stroke-width="0.1" />
<line x1="111.500000" y1="32.000000" x2="116.500000" y2="32.000000" stroke="black" stroke-width="0.1" />
<line x1="114.000000" y1="32.000000" x2="111.500000" y2="34.500000" stroke="black" stroke-width="0.1" />
<line x1="114.000000" y1="32.000000" x2="116.500000" y2="34.500000" stroke="black" stroke-width="0.1" />
<line x1="111.500000" y1="97.000000" x2="116.500000" y2="97.000000" stroke="black" stroke-width="0.1" />
<line x1="114.000000" y1="97.000000" x2="111.500000" y2="94.500000" stroke="black" stroke-width="0.1" />
<line x1="114.000000" y1="97.000000" x2="116.500000" y2="94.500000" stroke="black" stroke-width="0.1" />
<text x="116.500000" y="64.500000" font-family="Arial" font-size="4" text-anchor="middle" dominant-baseline="middle" transform="rotate(90 116.500000 64.500000)" >65.0 mm</text>
<line x1="8.000000" y1="5.000000" x2="8.000000" y2="150.000000" stroke="black" stroke-width="0.1" />
<line x1="5.500000" y1="5.000000" x2="10.500000" y2="5.000000" stroke="black" stroke-width="0.1" />
<line x1="8.000000" y1="5.000000" x2="5.500000" y2="7.500000" stroke="black" stroke-width="0.1" />
<line x1="8.000000" y1="5.000000" x2="10.500000" y2="7.500000" stroke="black" stroke-width="0.1" />
<line x1="5.500000" y1="150.000000" x2="10.500000" y2="150.000000" stroke="black" stroke-width="0.1" />
<line x1="8.000000" y1="150.000000" x2="5.500000" y2="147.500000" stroke="black" stroke-width="0.1" />
<line x1="8.000000" y1="150.000000" x2="10.500000" y2="147.500000" stroke="black" stroke-width="0.1" />
<text x="10.500000" y="77.500000" font-family="Arial" font-size="4" text-anchor="middle" dominant-baseline="middle" transform="rotate(90 10.500000 77.500000)" >145.0 mm</text>
<line x1="18.000000" y1="150.000000" x2="18.000000" y2="225.000000" stroke="black" stroke-width="0.1" />
<line x1="15.500000" y1="150.000000" x2="20.500000" y2="150.000000" stroke="black" stroke-width="0.1" />
<line x1="18.000000" y1="150.000000" x2="15.500000" y2="152.500000" stroke="black" stroke-width="0.1" />
<line x1="18.000000" y1="150.000000" x2="20.500000" y2="152.500000" stroke="black" stroke-width="0.1" />
<line x1="15.500000" y1="225.000000" x2="20.500000" y2="225.000000" stroke="black" stroke-width="0.1" />
<line x1="18.000000" y1="225.000000" x2="15.500000" y2="222.500000" stroke="black" stroke-width="0.1" />
<line x1="18.000000" y1="225.000000" x2="20.500000" y2="222.500000" stroke="black" stroke-width="0.1" />
<text x="20.500000" y="187.500000" font-family="Arial" font-size="4" text-anchor="middle" dominant-baseline="middle" transform="rotate(90 20.500000 187.500000)" >75.0 mm</text>
<line x1="124.000000" y1="22.000000" x2="164.000000" y2="22.000000" stroke="black" stroke-width="0.1" />
<line x1="124.000000" y1="19.500000" x2="124.000000" y2="24.500000" stroke="black" stroke-width="0.1" />
<line x1="124.000000" y1="22.000000" x2="126.500000" y2="24.500000" stroke="black" stroke-width="0.1" />
<line x1="124.000000" y1="22.000000" x2="126.500000" y2="19.500000" stroke="black" stroke-width="0.1" />
<line x1="164.000000" y1="19.500000" x2="164.000000" y2="24.500000" stroke="black" stroke-width="0.1" />
<line x1="164.000000" y1="22.000000" x2="161.500000" y2="24.500000" stroke="black" stroke-width="0.1" />
<line x1="164.000000" y1="22.000000" x2="161.500000" y2="19.500000" stroke="black" stroke-width="0.1" />
<text x="149.000000" y="12.000000" font-family="Arial" font-size="4" text-anchor="middle" dominant-baseline="middle" transform="rotate(90 149.000000 12.000000)" >40.0 mm</text>
<line x1="124.000000" y1="87.000000" x2="164.000000" y2="87.000000" stroke="black" stroke-width="0.1" />
<line x1="124.000000" y1="84.500000" x2="124.000000" y2="89.500000" stroke="black" stroke-width="0.1" />
<line x1="124.000000" y1="87.000000" x2="126.500000" y2="89.500000" stroke="black" stroke-width="0.1" />
<line x1="124.000000" y1="87.000000" x2="126.500000" y2="84.500000" stroke="black" stroke-width="0.1" />
<line x1="164.000000" y1="84.500000" x2="164.000000" y2="89.500000" stroke="black" stroke-width="0.1" />
<line x1="164.000000" y1="87.000000" x2="161.500000" y2="89.500000" stroke="black" stroke-width="0.1" />
<line x1="164.000000" y1="87.000000" x2="161.500000" y2="84.500000" stroke="black" stroke-width="0.1" />
<text x="149.000000" y="77.000000" font-family="Arial" font-size="4" text-anchor="middle" dominant-baseline="middle" transform="rotate(90 149.000000 77.000000)" >40.0 mm</text>
<line x1="32.000000" y1="160.000000" x2="64.000000" y2="160.000000" stroke="black" stroke-width="0.1" />
<line x1="32.000000" y1="157.500000" x2="32.000000" y2="162.500000" stroke="black" stroke-width="0.1" />
<line x1="32.000000" y1="160.000000" x2="34.500000" y2="162.500000" stroke="black" stroke-width="0.1" />
<line x1="32.000000" y1="160.000000" x2="34.500000" y2="157.500000" stroke="black" stroke-width="0.1" />
<line x1="64.000000" y1="157.500000" x2="64.000000" y2="162.500000" stroke="black" stroke-width="0.1" />
<line x1="64.000000" y1="160.000000" x2="61.500000" y2="162.500000" stroke="black" stroke-width="0.1" />
<line x1="64.000000" y1="160.000000" x2="61.500000" y2="157.500000" stroke="black" stroke-width="0.1" />
<text x="53.000000" y="170.000000" font-family="Arial" font-size="4" text-anchor="middle" dominant-baseline="middle" transform="rotate(90 53.000000 170.000000)" >32.0 mm</text>
<line x1="32.000000" y1="235.000000" x2="64.000000" y2="235.000000" stroke="black" stroke-width="0.1" />
<line x1="32.000000" y1="232.500000" x2="32.000000" y2="237.500000" stroke="black" stroke-width="0.1" />
<line x1="32.000000" y1="235.000000" x2="34.500000" y2="237.500000" stroke="black" stroke-width="0.1" />
<line x1="32.000000" y1="235.000000" x2="34.500000" y2="232.500000" stroke="black" stroke-width="0.1" />
<line x1="64.000000" y1="232.500000" x2="64.000000" y2="237.500000" stroke="black" stroke-width="0.1" />
<line x1="64.000000" y1="235.000000" x2="61.500000" y2="237.500000" stroke="black" stroke-width="0.1" />
<line x1="64.000000" y1="235.000000" x2="61.500000" y2="232.500000" stroke="black" stroke-width="0.1" />
<text x="53.000000" y="245.000000" font-family="Arial" font-size="4" text-anchor="middle" dominant-baseline="middle" transform="rotate(90 53.000000 245.000000)" >32.0 mm</text>
<circle cx="124.000000" cy="32.000000" r="2.500000" fill="none" stroke="black" stroke-width="0.1" />
<circle cx="124.000000" cy="32.000000" r="0.250000" fill="none" stroke="black" stroke-width="0.1" />
<line x1="123.750000" y1="32.000000" x2="123.500000" y2="32.000000" stroke="black" stroke-width="0.1" />
<line x1="124.250000" y1="32.000000" x2="124.500000" y2="32.000000" stroke="black" stroke-width="0.1" />
<line x1="124.000000" y1="31.750000" x2="124.000000" y2="31.500000" stroke="black" stroke-width="0.1" />
<line x1="124.000000" y1="32.250000" x2="124.000000" y2="32.500000" stroke="black" stroke-width="0.1" />
<line x1="121.000000" y1="32.000000" x2="122.000000" y2="32.000000" stroke="black" stroke-width="0.1" />
<line x1="126.000000" y1="32.000000" x2="127.000000" y2="32.000000" stroke="black" stroke-width="0.1" />
<line x1="124.000000" y1="29.000000" x2="124.000000" y2="30.000000" stroke="black" stroke-width="0.1" />
<line x1="124.000000" y1="34.000000" x2="124.000000" y2="35.000000" stroke="black" stroke-width="0.1" />
<circle cx="164.000000" cy="32.000000" r="2.500000" fill="none" stroke="black" stroke-width="0.1" />
<circle cx="164.000000" cy="32.000000" r="0.250000" fill="none" stroke="black" stroke-width="0.1" />
<line x1="163.750000" y1="32.000000" x2="163.500000" y2="32.000000" stroke="black" stroke-width="0.1" />
<line x1="164.250000" y1="32.000000" x2="164.500000" y2="32.000000" stroke="black" stroke-width="0.1" />
<line x1="164.000000" y1="31.750000" x2="164.000000" y2="31.500000" stroke="black" stroke-width="0.1" />
<line x1="164.000000" y1="32.250000" x2="164.000000" y2="32.500000" stroke="black" stroke-width="0.1" />
<line x1="161.000000" y1="32.000000" x2="162.000000" y2="32.000000" stroke="black" stroke-width="0.1" />
<line x1="166.000000" y1="32.000000" x2="167.000000" y2="32.000000" stroke="black" stroke-width="0.1" />
<line x1="164.000000" y1="29.000000" x2="164.000000" y2="30.000000" stroke="black" stroke-width="0.1" />
<line x1="164.000000" y1="34.000000" x2="164.000000" y2="35.000000" stroke="black" stroke-width="0.1" />
<circle cx="124.000000" cy="97.000000" r="2.500000" fill="none" stroke="black" stroke-width="0.1" />
<circle cx="124.000000" cy="97.000000" r="0.250000" fill="none" stroke="black" stroke-width="0.1" />
<line x1="123.750000" y1="97.000000" x2="123.500000" y2="97.000000" stroke="black" stroke-width="0.1" />
<line x1="124.250000" y1="97.000000" x2="124.500000" y2="97.000000" stroke="black" stroke-width="0.1" />
<line x1="124.000000" y1="96.750000" x2="124.000000" y2="96.500000" stroke="black" stroke-width="0.1" />
<line x1="124.000000" y1="97.250000" x2="124.000000" y2="97.500000" stroke="black" stroke-width="0.1" />
<line x1="121.000000" y1="97.000000" x2="122.000000" y2="97.000000" stroke="black" stroke-width="0.1" />
<line x1="126.000000" y1="97.000000" x2="127.000000" y2="97.000000" stroke="black" stroke-width="0.1" />
<line x1="124.000000" y1="94.000000" x2="124.000000" y2="95.000000" stroke="black" stroke-width="0.1" />
<line x1="124.000000" y1="99.000000" x2="124.000000" y2="100.000000" stroke="black" stroke-width="0.1" />
<circle cx="164.000000" cy="97.000000" r="2.500000" fill="none" stroke="black" stroke-width="0.1" />
<circle cx="164.000000" cy="97.000000" r="0.250000" fill="none" stroke="black" stroke-width="0.1" />
<line x1="163.750000" y1="97.000000" x2="163.500000" y2="97.000000" stroke="black" stroke-width="0.1" />
<line x1="164.250000" y1="97.000000" x2="164.500000" y2="97.000000" stroke="black" stroke-width="0.1" />
<line x1="164.000000" y1="96.750000" x2="164.000000" y2="96.500000" stroke="black" stroke-width="0.1" />
<line x1="164.000000" y1="97.250000" x2="164.000000" y2="97.500000" stroke="black" stroke-width="0.1" />
<line x1="161.000000" y1="97.000000" x2="162.000000" y2="97.000000" stroke="black" stroke-width="0.1" />
<line x1="166.000000" y1="97.000000" x2="167.000000" y2="97.000000" stroke="black" stroke-width="0.1" />
<line x1="164.000000" y1="94.000000" x2="164.000000" y2="95.000000" stroke="black" stroke-width="0.1" />
<line x1="164.000000" y1="99.000000" x2="164.000000" y2="100.000000" stroke="black" stroke-width="0.1" />
<circle cx="32.000000" cy="150.000000" r="2.500000" fill="none" stroke="black" stroke-width="0.1" />
<circle cx="32.000000" cy="150.000000" r="0.250000" fill="none" stroke="black" stroke-width="0.1" />
<line x1="31.750000" y1="150.000000" x2="31.500000" y2="150.000000" stroke="black" stroke-width="0.1" />
<line x1="32.250000" y1="150.000000" x2="32.500000" y2="150.000000" stroke="black" stroke-width="0.1" />
<line x1="32.000000" y1="149.750000" x2="32.000000" y2="149.500000" stroke="black" stroke-width="0.1" />
<line x1="32.000000" y1="150.250000" x2="32.000000" y2="150.500000" stroke="black" stroke-width="0.1" />
<line x1="29.000000" y1="150.000000" x2="30.000000" y2="150.000000" stroke="black" stroke-width="0.1" />
<line x1="34.000000" y1="150.000000" x2="35.000000" y2="150.000000" stroke="black" stroke-width="0.1" />
<line x1="32.000000" y1="147.000000" x2="32.000000" y2="148.000000" stroke="black" stroke-width="0.1" />
<line x1="32.000000" y1="152.000000" x2="32.000000" y2="153.000000" stroke="black" stroke-width="0.1" />
<circle cx="64.000000" cy="150.000000" r="2.500000" fill="none" stroke="black" stroke-width="0.1" />
<circle cx="64.000000" cy="150.000000" r="0.250000" fill="none" stroke="black" stroke-width="0.1" />
<line x1="63.750000" y1="150.000000" x2="63.500000" y2="150.000000" stroke="black" stroke-width="0.1" />
<line x1="64.250000" y1="150.000000" x2="64.500000" y2="150.000000" stroke="black" stroke-width="0.1" />
<line x1="64.000000" y1="149.750000" x2="64.000000" y2="149.500000" stroke="black" stroke-width="0.1" />
<line x1="64.000000" y1="150.250000" x2="64.000000" y2="150.500000" stroke="black" stroke-width="0.1" />
<line x1="61.000000" y1="150.000000" x2="62.000000" y2="150.000000" stroke="black" stroke-width="0.1" />
<line x1="66.000000" y1="150.000000" x2="67.000000" y2="150.000000" stroke="black" stroke-width="0.1" />
<line x1="64.000000" y1="147.000000" x2="64.000000" y2="148.000000" stroke="black" stroke-width="0.1" />
<line x1="64.000000" y1="152.000000" x2="64.000000" y2="153.000000" stroke="black" stroke-width="0.1" />
<circle cx="32.000000" cy="225.000000" r="2.500000" fill="none" stroke="black" stroke-width="0.1" />
<circle cx="32.000000" cy="225.000000" r="0.250000" fill="none" stroke="black" stroke-width="0.1" />
<line x1="31.750000" y1="225.000000" x2="31.500000" y2="225.000000" stroke="black" stroke-width="0.1" />
<line x1="32.250000" y1="225.000000" x2="32.500000" y2="225.000000" stroke="black" stroke-width="0.1" />
<line x1="32.000000" y1="224.750000" x2="32.000000" y2="224.500000" stroke="black" stroke-width="0.1" />
<line x1="32.000000" y1="225.250000" x2="32.000000" y2="225.500000" stroke="black" stroke-width="0.1" />
<line x1="29.000000" y1="225.000000" x2="30.000000" y2="225.000000" stroke="black" stroke-width="0.1" />
<line x1="34.000000" y1="225.000000" x2="35.000000" y2="225.000000" stroke="black" stroke-width="0.1" />
<line x1="32.000000" y1="222.000000" x2="32.000000" y2="223.000000" stroke="black" stroke-width="0.1" />
<line x1="32.000000" y1="227.000000" x2="32.000000" y2="228.000000" stroke="black" stroke-width="0.1" />
<circle cx="64.000000" cy="225.000000" r="2.500000" fill="none" stroke="black" stroke-width="0.1" />
<circle cx="64.000000" cy="225.000000" r="0.250000" fill="none" stroke="black" stroke-width="0.1" />
<line x1="63.750000" y1="225.000000" x2="63.500000" y2="225.000000" stroke="black" stroke-width="0.1" />
<line x1="64.250000" y1="225.000000" x2="64.500000" y2="225.000000" stroke="black" stroke-width="0.1" />
<line x1="64.000000" y1="224.750000" x2="64.000000" y2="224.500000" stroke="black" stroke-width="0.1" />
<line x1="64.000000" y1="225.250000" x2="64.000000" y2="225.500000" stroke="black" stroke-width="0.1" />
<line x1="61.000000" y1="225.000000" x2="62.000000" y2="225.000000" stroke="black" stroke-width="0.1" />
<line x1="66.000000" y1="225.000000" x2="67.000000" y2="225.000000" stroke="black" stroke-width="0.1" />
<line x1="64.000000" y1="222.000000" x2="64.000000" y2="223.000000" stroke="black" stroke-width="0.1" />
<line x1="64.000000" y1="227.000000" x2="64.000000" y2="228.000000" stroke="black" stroke-width="0.1" />
<text x="73.000000" y="25.000000" font-family="Arial" font-size="4" text-anchor="middle" dominant-baseline="middle" transform="rotate(90 73.000000 25.000000)" >Mid Sole Mount Line</text>
<text x="169.000000" y="235.000000" font-family="Arial" font-size="4" text-anchor="middle" dominant-baseline="middle" transform="rotate(90 169.000000 235.000000)" >Mid Sole Mount Line</text>
<text x="43.000000" y="235.000000" font-family="Arial" font-size="4" text-anchor="middle" dominant-baseline="middle" transform="rotate(90 43.000000 235.000000)" >Ski Center Line</text>
<text x="139.000000" y="25.000000" font-family="Arial" font-size="4" text-anchor="middle" dominant-baseline="middle" transform="rotate(90 139.000000 25.000000)" >Ski Center Line</text>
</svg>