<?xml version="1.0"?>
<!DOCTYPE svg PUBLIC "-//W3C//DTD SVG 1.1//EN"
"http://www.w3.org/Graphics/SVG/1.1/DTD/svg11.dtd">
<svg xmlns="http://www.w3.org/2000/svg" version="1.2" width="192.000000mm" height="259.000000mm" viewBox="0 0 192.000000 259.000000" style="background-color:white" >
<line x1="48.000000" y1="0.000000" x2="48.000000" y2="259.000000" stroke="black" stroke-width="0.1" />
<line x1="144.000000" y1="0.000000" x2="144.000000" y2="259.000000" stroke="black" stroke-width="0.1" />
<line x1="104.000000" y1="255.000000" x2="184.000000" y2="255.000000" stroke="black" stroke-width="0.1" />
<line x1="8.000000" y1="5.000000" x2="88.000000" y2="5.000000" stroke="black" stroke-width="0.1" />
<line x1="96.000000" y1="0.000000" x2="96.000000" y2="259.000000" stroke="black" stroke-width="0.1" stroke-dasharray="2 2" />
<line x1="0.000000" y1="259.000000" x2="96.000000" y2="259.000000" stroke="black" stroke-width="0.1" stroke-dasharray="2 2" />
<line x1="96.000000" y1="0.000000" x2="192.000000" y2="0.000000" stroke="black" stroke-width="0.1" stroke-dasharray="2 2" />
<line x1="48.000000" y1="7.000000" x2="41.000000" y2="0.000000" stroke="black" stroke-width="0.1" stroke-dasharray="2 2" />
<line x1="48.000000" y1="7.000000" x2="55.000000" y2="0.000000" stroke="black" stroke-width="0.1" stroke-dasharray="2 2" />
<line x1="144.000000" y1="253.000000" x2="138.000000" y2="259.000000" stroke="black" stroke-width="0.1" stroke-dasharray="2 2" />
<line x1="144.000000" y1="253.000000" x2="150.000000" y2="259.000000" stroke="black" stroke-width="0.1" stroke-dasharray="2 2" />
<text x="83.000000" y="130.000000" font-family="Arial" font-size="8" text-anchor="middle" dominant-baseline="middle" transform="rotate(90 83.000000 130.000000)" >Marker XComp 326, Heel</text>
<text x="179.000000" y="130.000000" font-family="Arial" font-size="8" text-anchor="middle" dominant-baseline="middle" transform="rotate(90 179.000000 130.000000)" >Marker XComp 326, Toe</text>
<line x1="104.000000" y1="159.000000" x2="104.000000" y2="255.000000" stroke="black" stroke-width="0.1" />
<line x1="101.500000" y1="159.000000" x2="106.500000" y2="159.000000" stroke="black" stroke-width="0.1" />
<line x1="104.000000" y1="159.000000" x2="101.500000" y2="161.500000" stroke="black" stroke-width="0.1" />
<line x1="104.000000" y1="159.000000" x2="106.500000" y2="161.500000" stroke="black" stroke-width="0.1" />
<line x1="101.500000" y1="255.000000" x2="106.500000" y2="255.000000" stroke="black" stroke-width="0.1" />
<line x1="104.000000" y1="255.000000" x2="101.500000" y2="252.500000" stroke="black" stroke-width="0.1" />
<line x1="104.000000" y1="255.000000" x2="106.500000" y2="252.500000" stroke="black" stroke-width="0.1" />
<text x="106.500000" y="207.000000" font-family="Arial" font-size="4" text-anchor="middle" dominant-baseline="middle" transform="rotate(90 106.500000 207.000000)" >96.0 mm</text>
<line x1="114.000000" y1="104.000000" x2="114.000000" y2="159.000000" stroke="black" stroke-width="0.1" />
<line x1="111.500000" y1="104.000000" x2="116.500000" y2="104.000000" stroke="black" stroke-width="0.1" />
<line x1="114.000000" y1="104.000000" x2="111.500000" y2="106.500000" stroke="black" stroke-width="0.1" />
<line x1="114.000000" y1="104.000000" x2="116.500000" y2="106.500000" stroke="black" stroke-width="0.1" />
<line x1="111.500000" y1="159.000000" x2="116.500000" y2="159.000000" stroke="black" stroke-width="0.1" />
<line x1="114.000000" y1="159.000000" x2="111.500000" y2="156.500000" stroke="black" stroke-width="0.1" />
<line x1="114.000000" y1="159.000000" x2="116.500000" y2="156.500000" stroke="black" stroke-width="0.1" />
<text x="116.500000" y="131.500000" font-family="Arial" font-size="4" text-anchor="middle" dominant-baseline="middle" transform="rotate(90 116.500000 131.500000)" >55.0 mm</text>
<line x1="8.000000" y1="5.000000" x2="8.000000" y2="156.000000" stroke="black" stroke-width="0.1" />
<line x1="5.500000" y1="5.000000" x2="10.500000" y2="5.000000" stroke="black" stroke-width="0.1" />
<line x1="8.000000" y1="5.000000" x2="5.500000" y2="7.500000" stroke="black" stroke-width="0.1" />
<line x1="8.000000" y1="5.000000" x2="10.500000" y2="7.500000" stroke="black" stroke-width="0.1" />
<line x1="5.500000" y1="156.000000" x2="10.500000" y2="156.000000" stroke="black" stroke-width="0.1" />
<line x1="8.000000" y1="156.000000" x2="5.500000" y2="153.500000" stroke="black" stroke-width="0.1" />
<line x1="8.000000" y1="156.000000" x2="10.500000" y2="153.500000" stroke="black" stroke-width="0.1" />
<text x="10.500000" y="80.500000" font-family="Arial" font-size="4" text-anchor="middle" dominant-baseline="middle" transform="rotate(90 10.500000 80.500000)" >151.0 mm</text>
<line x1="18.000000" y1="156.000000" x2="18.000000" y2="236.000000" stroke="black" stroke-width="0.1" />
<line x1="15.500000" y1="156.000000" x2="20.500000" y2="156.000000" stroke="black" stroke-width="0.1" />
<line x1="18.000000" y1="156.000000" x2="15.500000" y2="158.500000" stroke="black" stroke-width="0.1" />
<line x1="18.000000" y1="156.000000" x2="20.500000" y2="158.500000" stroke="black" stroke-width="0.1" />
<line x1="15.500000" y1="236.000000" x2="20.500000" y2="236.000000" stroke="black" stroke-width="0.1" />
<line x1="18.000000" y1="236.000000" x2="15.500000" y2="233.500000" stroke="black" stroke-width="0.1" />
<line x1="18.000000" y1="236.000000" x2="20.500000" y2="233.500000" stroke="black" stroke-width="0.1" />
<text x="20.500000" y="196.000000" font-family="Arial" font-size="4" text-anchor="middle" dominant-baseline="middle" transform="rotate(90 20.500000 196.000000)" >80.0 mm</text>
<line x1="126.000000" y1="94.000000" x2="162.000000" y2="94.000000" stroke="black" stroke-width="0.1" />
<line x1="126.000000" y1="91.500000" x2="126.000000" y2="96.500000" stroke="black" stroke-width="0.1" />
<line x1="126.000000" y1="94.000000" x2="128.500000" y2="96.500000" stroke="black" stroke-width="0.1" />
<line x1="126.000000" y1="94.000000" x2="128.500000" y2="91.500000" stroke="black" stroke-width="0.1" />
<line x1="162.000000" y1="91.500000" x2="162.000000" y2="96.500000" stroke="black" stroke-width="0.1" />
<line x1="162.000000" y1="94.000000" x2="159.500000" y2="96.500000" stroke="black" stroke-width="0.1" />
<line x1="162.000000" y1="94.000000" x2="159.500000" y2="91.500000" stroke="black" stroke-width="0.1" />
<text x="149.000000" y="84.000000" font-family="Arial" font-size="4" text-anchor="middle" dominant-baseline="middle" transform="rotate(90 149.000000 84.000000)" >36.0 mm</text>
<line x1="38.000000" y1="166.000000" x2="58.000000" y2="166.000000" stroke="black" stroke-width="0.1" />
<line x1="38.000000" y1="163.500000" x2="38.000000" y2="168.500000" stroke="black" stroke-width="0.1" />
<line x1="38.000000" y1="166.000000" x2="40.500000" y2="168.500000" stroke="black" stroke-width="0.1" />
<line x1="38.000000" y1="166.000000" x2="40.500000" y2="163.500000" stroke="black" stroke-width="0.1" />
<line x1="58.000000" y1="163.500000" x2="58.000000" y2="168.500000" stroke="black" stroke-width="0.1" />
<line x1="58.000000" y1="166.000000" x2="55.500000" y2="168.500000" stroke="black" stroke-width="0.1" />
<line x1="58.000000" y1="166.000000" x2="55.500000" y2="163.500000" stroke="black" stroke-width="0.1" />
<text x="53.000000" y="176.000000" font-family="Arial" font-size="4" text-anchor="middle" dominant-baseline="middle" transform="rotate(90 53.000000 176.000000)" >20.0 mm</text>
<line x1="27.750000" y1="246.000000" x2="68.250000" y2="246.000000" stroke="black" stroke-width="0.1" />
<line x1="27.750000" y1="243.500000" x2="27.750000" y2="248.500000" stroke="black" stroke-width="0.1" />
<line x1="27.750000" y1="246.000000" x2="30.250000" y2="248.500000" stroke="black" stroke-width="0.1" />
<line x1="27.750000" y1="246.000000" x2="30.250000" y2="243.500000" stroke="black" stroke-width="0.1" />
<line x1="68.250000" y1="243.500000" x2="68.250000" y2="248.500000" stroke="black" stroke-width="0.1" />
<line x1="68.250000" y1="246.000000" x2="65.750000" y2="248.500000" stroke="black" stroke-width="0.1" />
<line x1="68.250000" y1="246.000000" x2="65.750000" y2="243.500000" stroke="black" stroke-width="0.1" />
<text x="53.000000" y="256.000000" font-family="Arial" font-size="4" text-anchor="middle" dominant-baseline="middle" transform="rotate(90 53.000000 256.000000)" >40.5 mm</text>
<circle cx="126.000000" cy="104.000000" r="2.500000" fill="none" stroke="black" stroke-width="0.1" />
<circle cx="126.000000" cy="104.000000" r="0.250000" fill="none" stroke="black" stroke-width="0.1" />
<line x1="125.750000" y1="104.000000" x2="125.500000" y2="104.000000" stroke="black" stroke-width="0.1" />
<line x1="126.250000" y1="104.000000" x2="126.500000" y2="104.000000" stroke="black" stroke-width="0.1" />
<line x1="126.000000" y1="103.750000" x2="126.000000" y2="103.500000" stroke="black" stroke-width="0.1" />
<line x1="126.000000" y1="104.250000" x2="126.000000" y2="104.500000" stroke="black" stroke-width="0.1" />
<line x1="123.000000" y1="104.000000" x2="124.000000" y2="104.000000" stroke="black" stroke-width="0.1" />
<line x1="128.000000" y1="104.000000" x2="129.000000" y2="104.000000" stroke="black" stroke-width="0.1" />
<line x1="126.000000" y1="101.000000" x2="126.000000" y2="102.000000" stroke="black" stroke-width="0.1" />
<line x1="126.000000" y1="106.000000" x2="126.000000" y2="107.000000" stroke="black" stroke-width="0.1" />
<circle cx="162.000000" cy="104.000000" r="2.500000" fill="none" stroke="black" stroke-width="0.1" />
<circle cx="162.000000" cy="104.000000" r="0.250000" fill="none" stroke="black" stroke-width="0.1" />
<line x1="161.750000" y1="104.000000" x2="161.500000" y2="104.000000" stroke="black" stroke-width="0.1" />
<line x1="162.250000" y1="104.000000" x2="162.500000" y2="104.000000" stroke="black" stroke-width="0.1" />
<line x1="162.000000" y1="103.750000" x2="162.000000" y2="103.500000" stroke="black" stroke-width="0.1" />
<line x1="162.000000" y1="104.250000" x2="162.000000" y2="104.500000" stroke="black" stroke-width="0.1" />
<line x1="159.000000" y1="104.000000" x2="160.000000" y2="104.000000" stroke="black" stroke-width="0.1" />
<line x1="164.000000" y1="104.000000" x2="165.000000" y2="104.000000" stroke="black" stroke-width="0.1" />
<line x1="162.000000" y1="101.000000" x2="162.000000" y2="102.000000" stroke="black" stroke-width="0.1" />
<line x1="162.000000" y1="106.000000" x2="162.000000" y2="107.000000" stroke="black" stroke-width="0.1" />
<circle cx="144.000000" cy="159.000000" r="2.500000" fill="none" stroke="black" stroke-width="0.1" />
<circle cx="144.000000" cy="159.000000" r="0.250000" fill="none" stroke="black" stroke-width="0.1" />
<line x1="143.750000" y1="159.000000" x2="143.500000" y2="159.000000" stroke="black" stroke-width="0.1" />
<line x1="144.250000" y1="159.000000" x2="144.500000" y2="159.000000" stroke="black" stroke-width="0.1" />
<line x1="144.000000" y1="158.750000" x2="144.000000" y2="158.500000" stroke="black" stroke-width="0.1" />
<line x1="144.000000" y1="159.250000" x2="144.000000" y2="159.500000" stroke="black" stroke-width="0.1" />
<line x1="141.000000" y1="159.000000" x2="142.000000" y2="159.000000" stroke="black" stroke-width="0.1" />
<line x1="146.000000" y1="159.000000" x2="147.000000" y2="159.000000" stroke="black" stroke-width="0.1" />
<line x1="144.000000" y1="156.000000" x2="144.000000" y2="157.000000" stroke="black" stroke-width="0.1" />
<line x1="144.000000" y1="161.000000" x2="144.000000" y2="162.000000" stroke="black" stroke-width="0.1" />
<circle cx="38.000000" cy="156.000000" r="2.500000" fill="none" stroke="black" stroke-width="0.1" />
<circle cx="38.000000" cy="156.000000" r="0.250000" fill="none" stroke="black" stroke-width="0.1" />
<line x1="37.750000" y1="156.000000" x2="37.500000" y2="156.000000" stroke="black" stroke-width="0.1" />
<line x1="38.250000" y1="156.000000" x2="38.500000" y2="156.000000" stroke="black" stroke-width="0.1" />
<line x1="38.000000" y1="155.750000" x2="38.000000" y2="155.500000" stroke="black" stroke-width="0.1" />
<line x1="38.000000" y1="156.250000" x2="38.000000" y2="156.500000" stroke="black" stroke-width="0.1" />
<line x1="35.000000" y1="156.000000" x2="36.000000" y2="156.000000" stroke="black" stroke-width="0.1" />
<line x1="40.000000" y1="156.000000" x2="41.000000" y2="156.000000" stroke="black" stroke-width="0.1" />
<line x1="38.000000" y1="153.000000" x2="38.000000" y2="154.000000" stroke="black" stroke-width="0.1" />
<line x1="38.000000" y1="158.000000" x2="38.000000" y2="159.000000" stroke="black" stroke-width="0.1" />
<circle cx="58.000000" cy="156.000000" r="2.500000" fill="none" stroke="black" stroke-width="0.1" />
<circle cx="58.000000" cy="156.000000" r="0.250000" fill="none" stroke="black" stroke-width="0.1" />
<line x1="57.750000" y1="156.000000" x2="57.500000" y2="156.000000" stroke="black" stroke-width="0.1" />
<line x1="58.250000" y1="156.000000" x2="58.500000" y2="156.000000" stroke="black" stroke-width="0.1" />
<line x1="58.000000" y1="155.750000" x2="58.000000" y2="155.500000" stroke="black" stroke-width="0.1" />
<line x1="58.000000" y1="156.250000" x2="58.000000" y2="156.500000" stroke="black" stroke-width="0.1" />
<line x1="55.000000" y1="156.000000" x2="56.000000" y2="156.000000" stroke="black" stroke-width="0.1" />
<line x1="60.000000" y1="156.000000" x2="61.000000" y2="156.000000" stroke="black" stroke-width="0.1" />
<line x1="58.000000" y1="153.000000" x2="58.000000" y2="154.000000" stroke="black" stroke-width="0.1" />
<line x1="58.000000" y1="158.000000" x2="58.000000" y2="159.000000" stroke="black" stroke-width="0.1" />
<circle cx="27.750000" cy="236.000000" r="2.500000" fill="none" stroke="black" stroke-width="0.1" />
<circle cx="27.750000" cy="236.000000" r="0.250000" fill="none" stroke="black" stroke-width="0.1" />
<line x1="27.500000" y1="236.000000" x2="27.250000" y2="236.000000" stroke="black" stroke-width="0.1" />
<line x1="28.000000" y1="236.000000" x2="28.250000" y2="236.000000" stroke="black" stroke-width="0.1" />
<line x1="27.750000" y1="235.750000" x2="27.750000" y2="235.500000" stroke="black" stroke-width="0.1" />
<line x1="27.750000" y1="236.250000" x2="27.750000" y2="236.500000" stroke="black" stroke-width="0.1" />
<line x1="24.750000" y1="236.000000" x2="25.750000" y2="236.000000" stroke="black" stroke-width="0.1" />
<line x1="29.750000" y1="236.000000" x2="30.750000" y2="236.000000" stroke="black" stroke-width="0.1" />
<line x1="27.750000" y1="233.000000" x2="27.750000" y2="234.000000" stroke="black" stroke-width="0.1" />
<line x1="27.750000" y1="238.000000" x2="27.750000" y2="239.000000" stroke="black" stroke-width="0.1" />
<circle cx="68.250000" cy="236.000000" r="2.500000" fill="none" stroke="black" stroke-width="0.1" />
<circle cx="68.250000" cy="236.000000" r="0.250000" fill="none" stroke="black" stroke-width="0.1" />
<line x1="68.000000" y1="236.000000" x2="67.750000" y2="236.000000" stroke="black" stroke-width="0.1" />
<line x1="68.500000" y1="236.000000" x2="68.750000" y2="236.000000" stroke="black" stroke-width="0.1" />
<line x1="68.250000" y1="235.750000" x2="68.250000" y2="235.500000" stroke="black" stroke-width="0.1" />
<line x1="68.250000" y1="236.250000" x2="68.250000" y2="236.500000" stroke="black" stroke-width="0.1" />
<line x1="65.250000" y1="236.000000" x2="66.250000" y2="236.000000" stroke="black" stroke-width="0.1" />
<line x1="70.250000" y1="236.000000" x2="71.250000" y2="236.000000" stroke="black" stroke-width="0.1" />
<line x1="68.250000" y1="233.000000" x2="68.250000" y2="234.000000" stroke="black" stroke-width="0.1" />
<line x1="68.250000" y1="238.000000" x2="68.250000" y2="239.000000" stroke="black" stroke-width="0.1" />
<text x="73.000000" y="25.000000" font-family="Arial" font-size="4" text-anchor="middle" dominant-baseline="middle" transform="rotate(90 73.000000 25.000000)" >Mid Sole Mount Line</text>
<text x="169.000000" y="235.000000" font-family="Arial" font-size="4" text-anchor="middle" dominant-baseline="middle" transform="rotate(90 169.000000 235.000000)" >Mid Sole Mount Line</text>
<text x="43.000000" y="235.000000" font-family="Arial" font-size="4" text-anchor="middle" dominant-baseline="middle" transform="rotate(90 43.000000 235.000000)" >Ski Center Line</text>
<text x="139.000000" y="25.000000" font-family="Arial" font-size="4" text-anchor="middle" dominant-baseline="middle" transform="rotate(90 139.000000 25.000000)" >Ski Center Line</text>
</svg>