<?xml version="1.0"?>
<!DOCTYPE svg PUBLIC "-//W3C//DTD SVG 1.1//EN"
"http://www.w3.org/Graphics/SVG/1.1/DTD/svg11.dtd">
<svg xmlns="http://www.w3.org/2000/svg" version="1.2" width="192.000000mm" height="259.000000mm" viewBox="0 0 192.000000 259.000000" style="background-color:white" >
<line x1="48.000000" y1="0.000000" x2="48.000000" y2="259.000000" stroke="black" stroke-width="0.1" />
<line x1="144.000000" y1="0.000000" x2="144.000000" y2="259.000000" stroke="black" stroke-width="0.1" />
<line x1="104.000000" y1="255.000000" x2="184.000000" y2="255.000000" stroke="black" stroke-width="0.1" />
<line x1="8.000000" y1="5.000000" x2="88.000000" y2="5.000000" stroke="black" stroke-width="0.1" />
<line x1="96.000000" y1="0.000000" x2="96.000000" y2="259.000000" stroke="black" stroke-width="0.1" stroke-dasharray="2 2" />
<line x1="0.000000" y1="259.000000" x2="96.000000" y2="259.000000" stroke="black" stroke-width="0.1" stroke-dasharray="2 2" />
<line x1="96.000000" y1="0.000000" x2="192.000000" y2="0.000000" stroke="black" stroke-width="0.1" stroke-dasharray="2 2" />
<line x1="48.000000" y1="7.000000" x2="41.000000" y2="0.000000" stroke="black" stroke-width="0.1" stroke-dasharray="2 2" />
<line x1="48.000000" y1="7.000000" x2="55.000000" y2="0.000000" stroke="black" stroke-width="0.1" stroke-dasharray="2 2" />
<line x1="144.000000" y1="253.000000" x2="138.000000" y2="259.000000" stroke="black" stroke-width="0.1" stroke-dasharray="2 2" />
<line x1="144.000000" y1="253.000000" x2="150.000000" y2="259.000000" stroke="black" stroke-width="0.1" stroke-dasharray="2 2" />
<text x="83.000000" y="130.000000" font-family="Arial" font-size="8" text-anchor="middle" dominant-baseline="middle" transform="rotate(90 83.000000 130.000000)" >Tyrolia FreeFlex ST 312, Heel</text>
<text x="179.000000" y="130.000000" font-family="Arial" font-size="8" text-anchor="middle" dominant-baseline="middle" transform="rotate(90 179.000000 130.000000)" >Tyrolia FreeFlex ST 312, Toe</text>
<line x1="104.000000" y1="114.000000" x2="104.000000" y2="255.000000" stroke="black" stroke-width="0.1" />
<line x1="101.500000" y1="114.000000" x2="106.500000" y2="114.000000" stroke="black" stroke-width="0.1" />
<line x1="104.000000" y1="114.000000" x2="101.500000" y2="116.500000" stroke="black" stroke-width="0.1" />
<line x1="104.000000" y1="114.000000" x2="106.500000" y2="116.500000" stroke="black" stroke-width="0.1" />
<line x1="101.500000" y1="255.000000" x2="106.500000" y2="255.000000" stroke="black" stroke-width="0.1" />
<line x1="104.000000" y1="255.000000" x2="101.500000" y2="252.500000" stroke="black" stroke-width="0.1" />
<line x1="104.000000" y1="255.000000" x2="106.500000" y2="252.500000" stroke="black" stroke-width="0.1" />
<text x="106.500000" y="184.500000" font-family="Arial" font-size="4" text-anchor="middle" dominant-baseline="middle" transform="rotate(90 106.500000 184.500000)" >141.0 mm</text>
<line x1="114.000000" y1="59.000000" x2="114.000000" y2="114.000000" stroke="black" stroke-width="0.1" />
<line x1="111.500000" y1="59.000000" x2="116.500000" y2="59.000000" stroke="black" stroke-width="0.1" />
<line x1="114.000000" y1="59.000000" x2="111.500000" y2="61.500000" stroke="black" stroke-width="0.1" />
<line x1="114.000000" y1="59.000000" x2="116.500000" y2="61.500000" stroke="black" stroke-width="0.1" />
<line x1="111.500000" y1="114.000000" x2="116.500000" y2="114.000000" stroke="black" stroke-width="0.1" />
<line x1="114.000000" y1="114.000000" x2="111.500000" y2="111.500000" stroke="black" stroke-width="0.1" />
<line x1="114.000000" y1="114.000000" x2="116.500000" y2="111.500000" stroke="black" stroke-width="0.1" />
<text x="116.500000" y="86.500000" font-family="Arial" font-size="4" text-anchor="middle" dominant-baseline="middle" transform="rotate(90 116.500000 86.500000)" >55.0 mm</text>
<line x1="8.000000" y1="5.000000" x2="8.000000" y2="145.000000" stroke="black" stroke-width="0.1" />
<line x1="5.500000" y1="5.000000" x2="10.500000" y2="5.000000" stroke="black" stroke-width="0.1" />
<line x1="8.000000" y1="5.000000" x2="5.500000" y2="7.500000" stroke="black" stroke-width="0.1" />
<line x1="8.000000" y1="5.000000" x2="10.500000" y2="7.500000" stroke="black" stroke-width="0.1" />
<line x1="5.500000" y1="145.000000" x2="10.500000" y2="145.000000" stroke="black" stroke-width="0.1" />
<line x1="8.000000" y1="145.000000" x2="5.500000" y2="142.500000" stroke="black" stroke-width="0.1" />
<line x1="8.000000" y1="145.000000" x2="10.500000" y2="142.500000" stroke="black" stroke-width="0.1" />
<text x="10.500000" y="75.000000" font-family="Arial" font-size="4" text-anchor="middle" dominant-baseline="middle" transform="rotate(90 10.500000 75.000000)" >140.0 mm</text>
<line x1="18.000000" y1="145.000000" x2="18.000000" y2="240.000000" stroke="black" stroke-width="0.1" />
<line x1="15.500000" y1="145.000000" x2="20.500000" y2="145.000000" stroke="black" stroke-width="0.1" />
<line x1="18.000000" y1="145.000000" x2="15.500000" y2="147.500000" stroke="black" stroke-width="0.1" />
<line x1="18.000000" y1="145.000000" x2="20.500000" y2="147.500000" stroke="black" stroke-width="0.1" />
<line x1="15.500000" y1="240.000000" x2="20.500000" y2="240.000000" stroke="black" stroke-width="0.1" />
<line x1="18.000000" y1="240.000000" x2="15.500000" y2="237.500000" stroke="black" stroke-width="0.1" />
<line x1="18.000000" y1="240.000000" x2="20.500000" y2="237.500000" stroke="black" stroke-width="0.1" />
<text x="20.500000" y="192.500000" font-family="Arial" font-size="4" text-anchor="middle" dominant-baseline="middle" transform="rotate(90 20.500000 192.500000)" >95.0 mm</text>
<line x1="124.000000" y1="49.000000" x2="164.000000" y2="49.000000" stroke="black" stroke-width="0.1" />
<line x1="124.000000" y1="46.500000" x2="124.000000" y2="51.500000" stroke="black" stroke-width="0.1" />
<line x1="124.000000" y1="49.000000" x2="126.500000" y2="51.500000" stroke="black" stroke-width="0.1" />
<line x1="124.000000" y1="49.000000" x2="126.500000" y2="46.500000" stroke="black" stroke-width="0.1" />
<line x1="164.000000" y1="46.500000" x2="164.000000" y2="51.500000" stroke="black" stroke-width="0.1" />
<line x1="164.000000" y1="49.000000" x2="161.500000" y2="51.500000" stroke="black" stroke-width="0.1" />
<line x1="164.000000" y1="49.000000" x2="161.500000" y2="46.500000" stroke="black" stroke-width="0.1" />
<text x="149.000000" y="39.000000" font-family="Arial" font-size="4" text-anchor="middle" dominant-baseline="middle" transform="rotate(90 149.000000 39.000000)" >40.0 mm</text>
<line x1="124.000000" y1="104.000000" x2="164.000000" y2="104.000000" stroke="black" stroke-width="0.1" />
<line x1="124.000000" y1="101.500000" x2="124.000000" y2="106.500000" stroke="black" stroke-width="0.1" />
<line x1="124.000000" y1="104.000000" x2="126.500000" y2="106.500000" stroke="black" stroke-width="0.1" />
<line x1="124.000000" y1="104.000000" x2="126.500000" y2="101.500000" stroke="black" stroke-width="0.1" />
<line x1="164.000000" y1="101.500000" x2="164.000000" y2="106.500000" stroke="black" stroke-width="0.1" />
<line x1="164.000000" y1="104.000000" x2="161.500000" y2="106.500000" stroke="black" stroke-width="0.1" />
<line x1="164.000000" y1="104.000000" x2="161.500000" y2="101.500000" stroke="black" stroke-width="0.1" />
<text x="149.000000" y="94.000000" font-family="Arial" font-size="4" text-anchor="middle" dominant-baseline="middle" transform="rotate(90 149.000000 94.000000)" >40.0 mm</text>
<line x1="38.000000" y1="155.000000" x2="58.000000" y2="155.000000" stroke="black" stroke-width="0.1" />
<line x1="38.000000" y1="152.500000" x2="38.000000" y2="157.500000" stroke="black" stroke-width="0.1" />
<line x1="38.000000" y1="155.000000" x2="40.500000" y2="157.500000" stroke="black" stroke-width="0.1" />
<line x1="38.000000" y1="155.000000" x2="40.500000" y2="152.500000" stroke="black" stroke-width="0.1" />
<line x1="58.000000" y1="152.500000" x2="58.000000" y2="157.500000" stroke="black" stroke-width="0.1" />
<line x1="58.000000" y1="155.000000" x2="55.500000" y2="157.500000" stroke="black" stroke-width="0.1" />
<line x1="58.000000" y1="155.000000" x2="55.500000" y2="152.500000" stroke="black" stroke-width="0.1" />
<text x="53.000000" y="165.000000" font-family="Arial" font-size="4" text-anchor="middle" dominant-baseline="middle" transform="rotate(90 53.000000 165.000000)" >20.0 mm</text>
<line x1="26.375000" y1="250.000000" x2="69.625000" y2="250.000000" stroke="black" stroke-width="0.1" />
<line x1="26.375000" y1="247.500000" x2="26.375000" y2="252.500000" stroke="black" stroke-width="0.1" />
<line x1="26.375000" y1="250.000000" x2="28.875000" y2="252.500000" stroke="black" stroke-width="0.1" />
<line x1="26.375000" y1="250.000000" x2="28.875000" y2="247.500000" stroke="black" stroke-width="0.1" />
<line x1="69.625000" y1="247.500000" x2="69.625000" y2="252.500000" stroke="black" stroke-width="0.1" />
<line x1="69.625000" y1="250.000000" x2="67.125000" y2="252.500000" stroke="black" stroke-width="0.1" />
<line x1="69.625000" y1="250.000000" x2="67.125000" y2="247.500000" stroke="black" stroke-width="0.1" />
<text x="53.000000" y="260.000000" font-family="Arial" font-size="4" text-anchor="middle" dominant-baseline="middle" transform="rotate(90 53.000000 260.000000)" >43.3 mm</text>
<circle cx="124.000000" cy="59.000000" r="2.500000" fill="none" stroke="black" stroke-width="0.1" />
<circle cx="124.000000" cy="59.000000" r="0.250000" fill="none" stroke="black" stroke-width="0.1" />
<line x1="123.750000" y1="59.000000" x2="123.500000" y2="59.000000" stroke="black" stroke-width="0.1" />
<line x1="124.250000" y1="59.000000" x2="124.500000" y2="59.000000" stroke="black" stroke-width="0.1" />
<line x1="124.000000" y1="58.750000" x2="124.000000" y2="58.500000" stroke="black" stroke-width="0.1" />
<line x1="124.000000" y1="59.250000" x2="124.000000" y2="59.500000" stroke="black" stroke-width="0.1" />
<line x1="121.000000" y1="59.000000" x2="122.000000" y2="59.000000" stroke="black" stroke-width="0.1" />
<line x1="126.000000" y1="59.000000" x2="127.000000" y2="59.000000" stroke="black" stroke-width="0.1" />
<line x1="124.000000" y1="56.000000" x2="124.000000" y2="57.000000" stroke="black" stroke-width="0.1" />
<line x1="124.000000" y1="61.000000" x2="124.000000" y2="62.000000" stroke="black" stroke-width="0.1" />
<circle cx="164.000000" cy="59.000000" r="2.500000" fill="none" stroke="black" stroke-width="0.1" />
<circle cx="164.000000" cy="59.000000" r="0.250000" fill="none" stroke="black" stroke-width="0.1" />
<line x1="163.750000" y1="59.000000" x2="163.500000" y2="59.000000" stroke="black" stroke-width="0.1" />
<line x1="164.250000" y1="59.000000" x2="164.500000" y2="59.000000" stroke="black" stroke-width="0.1" />
<line x1="164.000000" y1="58.750000" x2="164.000000" y2="58.500000" stroke="black" stroke-width="0.1" />
<line x1="164.000000" y1="59.250000" x2="164.000000" y2="59.500000" stroke="black" stroke-width="0.1" />
<line x1="161.000000" y1="59.000000" x2="162.000000" y2="59.000000" stroke="black" stroke-width="0.1" />
<line x1="166.000000" y1="59.000000" x2="167.000000" y2="59.000000" stroke="black" stroke-width="0.1" />
<line x1="164.000000" y1="56.000000" x2="164.000000" y2="57.000000" stroke="black" stroke-width="0.1" />
<line x1="164.000000" y1="61.000000" x2="164.000000" y2="62.000000" stroke="black" stroke-width="0.1" />
<circle cx="124.000000" cy="114.000000" r="2.500000" fill="none" stroke="black" stroke-width="0.1" />
<circle cx="124.000000" cy="114.000000" r="0.250000" fill="none" stroke="black" stroke-width="0.1" />
<line x1="123.750000" y1="114.000000" x2="123.500000" y2="114.000000" stroke="black" stroke-width="0.1" />
<line x1="124.250000" y1="114.000000" x2="124.500000" y2="114.000000" stroke="black" stroke-width="0.1" />
<line x1="124.000000" y1="113.750000" x2="124.000000" y2="113.500000" stroke="black" stroke-width="0.1" />
<line x1="124.000000" y1="114.250000" x2="124.000000" y2="114.500000" stroke="black" stroke-width="0.1" />
<line x1="121.000000" y1="114.000000" x2="122.000000" y2="114.000000" stroke="black" stroke-width="0.1" />
<line x1="126.000000" y1="114.000000" x2="127.000000" y2="114.000000" stroke="black" stroke-width="0.1" />
<line x1="124.000000" y1="111.000000" x2="124.000000" y2="112.000000" stroke="black" stroke-width="0.1" />
<line x1="124.000000" y1="116.000000" x2="124.000000" y2="117.000000" stroke="black" stroke-width="0.1" />
<circle cx="164.000000" cy="114.000000" r="2.500000" fill="none" stroke="black" stroke-width="0.1" />
<circle cx="164.000000" cy="114.000000" r="0.250000" fill="none" stroke="black" stroke-width="0.1" />
<line x1="163.750000" y1="114.000000" x2="163.500000" y2="114.000000" stroke="black" stroke-width="0.1" />
<line x1="164.250000" y1="114.000000" x2="164.500000" y2="114.000000" stroke="black" stroke-width="0.1" />
<line x1="164.000000" y1="113.750000" x2="164.000000" y2="113.500000" stroke="black" stroke-width="0.1" />
<line x1="164.000000" y1="114.250000" x2="164.000000" y2="114.500000" stroke="black" stroke-width="0.1" />
<line x1="161.000000" y1="114.000000" x2="162.000000" y2="114.000000" stroke="black" stroke-width="0.1" />
<line x1="166.000000" y1="114.000000" x2="167.000000" y2="114.000000" stroke="black" stroke-width="0.1" />
<line x1="164.000000" y1="111.000000" x2="164.000000" y2="112.000000" stroke="black" stroke-width="0.1" />
<line x1="164.000000" y1="116.000000" x2="164.000000" y2="117.000000" stroke="black" stroke-width="0.1" />
<circle cx="38.000000" cy="145.000000" r="2.500000" fill="none" stroke="black" stroke-width="0.1" />
<circle cx="38.000000" cy="145.000000" r="0.250000" fill="none" stroke="black" stroke-width="0.1" />
<line x1="37.750000" y1="145.000000" x2="37.500000" y2="145.000000" stroke="black" stroke-width="0.1" />
<line x1="38.250000" y1="145.000000" x2="38.500000" y2="145.000000" stroke="black" stroke-width="0.1" />
<line x1="38.000000" y1="144.750000" x2="38.000000" y2="144.500000" stroke="black" stroke-width="0.1" />
<line x1="38.000000" y1="145.250000" x2="38.000000" y2="145.500000" stroke="black" stroke-width="0.1" />
<line x1="35.000000" y1="145.000000" x2="36.000000" y2="145.000000" stroke="black" stroke-width="0.1" />
<line x1="40.000000" y1="145.000000" x2="41.000000" y2="145.000000" stroke="black" stroke-width="0.1" />
<line x1="38.000000" y1="142.000000" x2="38.000000" y2="143.000000" stroke="black" stroke-width="0.1" />
<line x1="38.000000" y1="147.000000" x2="38.000000" y2="148.000000" stroke="black" stroke-width="0.1" />
<circle cx="58.000000" cy="145.000000" r="2.500000" fill="none" stroke="black" stroke-width="0.1" />
<circle cx="58.000000" cy="145.000000" r="0.250000" fill="none" stroke="black" stroke-width="0.1" />
<line x1="57.750000" y1="145.000000" x2="57.500000" y2="145.000000" stroke="black" stroke-width="0.1" />
<line x1="58.250000" y1="145.000000" x2="58.500000" y2="145.000000" stroke="black" stroke-width="0.1" />
<line x1="58.000000" y1="144.750000" x2="58.000000" y2="144.500000" stroke="black" stroke-width="0.1" />
<line x1="58.000000" y1="145.250000" x2="58.000000" y2="145.500000" stroke="black" stroke-width="0.1" />
<line x1="55.000000" y1="145.000000" x2="56.000000" y2="145.000000" stroke="black" stroke-width="0.1" />
<line x1="60.000000" y1="145.000000" x2="61.000000" y2="145.000000" stroke="black" stroke-width="0.1" />
<line x1="58.000000" y1="142.000000" x2="58.000000" y2="143.000000" stroke="black" stroke-width="0.1" />
<line x1="58.000000" y1="147.000000" x2="58.000000" y2="148.000000" stroke="black" stroke-width="0.1" />
<circle cx="26.375000" cy="240.000000" r="2.500000" fill="none" stroke="black" stroke-width="0.1" />
<circle cx="26.375000" cy="240.000000" r="0.250000" fill="none" stroke="black" stroke-width="0.1" />
<line x1="26.125000" y1="240.000000" x2="25.875000" y2="240.000000" stroke="black" stroke-width="0.1" />
<line x1="26.625000" y1="240.000000" x2="26.875000" y2="240.000000" stroke="black" stroke-width="0.1" />
<line x1="26.375000" y1="239.750000" x2="26.375000" y2="239.500000" stroke="black" stroke-width="0.1" />
<line x1="26.375000" y1="240.250000" x2="26.375000" y2="240.500000" stroke="black" stroke-width="0.1" />
<line x1="23.375000" y1="240.000000" x2="24.375000" y2="240.000000" stroke="black" stroke-width="0.1" />
<line x1="28.375000" y1="240.000000" x2="29.375000" y2="240.000000" stroke="black" stroke-width="0.1" />
<line x1="26.375000" y1="237.000000" x2="26.375000" y2="238.000000" stroke="black" stroke-width="0.1" />
<line x1="26.375000" y1="242.000000" x2="26.375000" y2="243.000000" stroke="black" stroke-width="0.1" />
<circle cx="69.625000" cy="240.000000" r="2.500000" fill="none" stroke="black" stroke-width="0.1" />
<circle cx="69.625000" cy="240.000000" r="0.250000" fill="none" stroke="black" stroke-width="0.1" />
<line x1="69.375000" y1="240.000000" x2="69.125000" y2="240.000000" stroke="black" stroke-width="0.1" />
<line x1="69.875000" y1="240.000000" x2="70.125000" y2="240.000000" stroke="black" stroke-width="0.1" />
<line x1="69.625000" y1="239.750000" x2="69.625000" y2="239.500000" stroke="black" stroke-width="0.1" />
<line x1="69.625000" y1="240.250000" x2="69.625000" y2="240.500000" stroke="black" stroke-width="0.1" />
<line x1="66.625000" y1="240.000000" x2="67.625000" y2="240.000000" stroke="black" stroke-width="0.1" />
<line x1="71.625000" y1="240.000000" x2="72.625000" y2="240.000000" stroke="black" stroke-width="0.1" />
<line x1="69.625000" y1="237.000000" x2="69.625000" y2="238.000000" stroke="black" stroke-width="0.1" />
<line x1="69.625000" y1="242.000000" x2="69.625000" y2="243.000000" stroke="black" stroke-width="0.1" />
<text x="73.000000" y="25.000000" font-family="Arial" font-size="4" text-anchor="middle" dominant-baseline="middle" transform="rotate(90 73.000000 25.000000)" >Mid Sole Mount Line</text>
<text x="169.000000" y="235.000000" font-family="Arial" font-size="4" text-anchor="middle" dominant-baseline="middle" transform="rotate(90 169.000000 235.000000)" >Mid Sole Mount Line</text>
<text x="43.000000" y="235.000000" font-family="Arial" font-size="4" text-anchor="middle" dominant-baseline="middle" transform="rotate(90 43.000000 235.000000)" >Ski Center Line</text>
<text x="139.000000" y="25.000000" font-family="Arial" font-size="4" text-anchor="middle" dominant-baseline="middle" transform="rotate(90 139.000000 25.000000)" >Ski Center Line</text>
</svg>