<?xml version="1.0"?>
<!DOCTYPE svg PUBLIC "-//W3C//DTD SVG 1.1//EN"
"http://www.w3.org/Graphics/SVG/1.1/DTD/svg11.dtd">
<svg xmlns="http://www.w3.org/2000/svg" version="1.2" width="192.000000mm" height="259.000000mm" viewBox="0 0 192.000000 259.000000" style="background-color:white" >
<line x1="48.000000" y1="0.000000" x2="48.000000" y2="259.000000" stroke="black" stroke-width="0.1" />
<line x1="144.000000" y1="0.000000" x2="144.000000" y2="259.000000" stroke="black" stroke-width="0.1" />
<line x1="104.000000" y1="255.000000" x2="184.000000" y2="255.000000" stroke="black" stroke-width="0.1" />
<line x1="8.000000" y1="5.000000" x2="88.000000" y2="5.000000" stroke="black" stroke-width="0.1" />
<line x1="96.000000" y1="0.000000" x2="96.000000" y2="259.000000" stroke="black" stroke-width="0.1" stroke-dasharray="2 2" />
<line x1="0.000000" y1="259.000000" x2="96.000000" y2="259.000000" stroke="black" stroke-width="0.1" stroke-dasharray="2 2" />
<line x1="96.000000" y1="0.000000" x2="192.000000" y2="0.000000" stroke="black" stroke-width="0.1" stroke-dasharray="2 2" />
<line x1="48.000000" y1="7.000000" x2="41.000000" y2="0.000000" stroke="black" stroke-width="0.1" stroke-dasharray="2 2" />
<line x1="48.000000" y1="7.000000" x2="55.000000" y2="0.000000" stroke="black" stroke-width="0.1" stroke-dasharray="2 2" />
<line x1="144.000000" y1="253.000000" x2="138.000000" y2="259.000000" stroke="black" stroke-width="0.1" stroke-dasharray="2 2" />
<line x1="144.000000" y1="253.000000" x2="150.000000" y2="259.000000" stroke="black" stroke-width="0.1" stroke-dasharray="2 2" />
<text x="83.000000" y="130.000000" font-family="Arial" font-size="8" text-anchor="middle" dominant-baseline="middle" transform="rotate(90 83.000000 130.000000)" >Tyrolia FreeFlex ST 299, Heel</text>
<text x="179.000000" y="130.000000" font-family="Arial" font-size="8" text-anchor="middle" dominant-baseline="middle" transform="rotate(90 179.000000 130.000000)" >Tyrolia FreeFlex ST 299, Toe</text>
<line x1="104.000000" y1="120.500000" x2="104.000000" y2="255.000000" stroke="black" stroke-width="0.1" />
<line x1="101.500000" y1="120.500000" x2="106.500000" y2="120.500000" stroke="black" stroke-width="0.1" />
<line x1="104.000000" y1="120.500000" x2="101.500000" y2="123.000000" stroke="black" stroke-width="0.1" />
<line x1="104.000000" y1="120.500000" x2="106.500000" y2="123.000000" stroke="black" stroke-width="0.1" />
<line x1="101.500000" y1="255.000000" x2="106.500000" y2="255.000000" stroke="black" stroke-width="0.1" />
<line x1="104.000000" y1="255.000000" x2="101.500000" y2="252.500000" stroke="black" stroke-width="0.1" />
<line x1="104.000000" y1="255.000000" x2="106.500000" y2="252.500000" stroke="black" stroke-width="0.1" />
<text x="106.500000" y="187.750000" font-family="Arial" font-size="4" text-anchor="middle" dominant-baseline="middle" transform="rotate(90 106.500000 187.750000)" >134.5 mm</text>
<line x1="114.000000" y1="65.500000" x2="114.000000" y2="120.500000" stroke="black" stroke-width="0.1" />
<line x1="111.500000" y1="65.500000" x2="116.500000" y2="65.500000" stroke="black" stroke-width="0.1" />
<line x1="114.000000" y1="65.500000" x2="111.500000" y2="68.000000" stroke="black" stroke-width="0.1" />
<line x1="114.000000" y1="65.500000" x2="116.500000" y2="68.000000" stroke="black" stroke-width="0.1" />
<line x1="111.500000" y1="120.500000" x2="116.500000" y2="120.500000" stroke="black" stroke-width="0.1" />
<line x1="114.000000" y1="120.500000" x2="111.500000" y2="118.000000" stroke="black" stroke-width="0.1" />
<line x1="114.000000" y1="120.500000" x2="116.500000" y2="118.000000" stroke="black" stroke-width="0.1" />
<text x="116.500000" y="93.000000" font-family="Arial" font-size="4" text-anchor="middle" dominant-baseline="middle" transform="rotate(90 116.500000 93.000000)" >55.0 mm</text>
<line x1="8.000000" y1="5.000000" x2="8.000000" y2="141.500000" stroke="black" stroke-width="0.1" />
<line x1="5.500000" y1="5.000000" x2="10.500000" y2="5.000000" stroke="black" stroke-width="0.1" />
<line x1="8.000000" y1="5.000000" x2="5.500000" y2="7.500000" stroke="black" stroke-width="0.1" />
<line x1="8.000000" y1="5.000000" x2="10.500000" y2="7.500000" stroke="black" stroke-width="0.1" />
<line x1="5.500000" y1="141.500000" x2="10.500000" y2="141.500000" stroke="black" stroke-width="0.1" />
<line x1="8.000000" y1="141.500000" x2="5.500000" y2="139.000000" stroke="black" stroke-width="0.1" />
<line x1="8.000000" y1="141.500000" x2="10.500000" y2="139.000000" stroke="black" stroke-width="0.1" />
<text x="10.500000" y="73.250000" font-family="Arial" font-size="4" text-anchor="middle" dominant-baseline="middle" transform="rotate(90 10.500000 73.250000)" >136.5 mm</text>
<line x1="18.000000" y1="141.500000" x2="18.000000" y2="236.500000" stroke="black" stroke-width="0.1" />
<line x1="15.500000" y1="141.500000" x2="20.500000" y2="141.500000" stroke="black" stroke-width="0.1" />
<line x1="18.000000" y1="141.500000" x2="15.500000" y2="144.000000" stroke="black" stroke-width="0.1" />
<line x1="18.000000" y1="141.500000" x2="20.500000" y2="144.000000" stroke="black" stroke-width="0.1" />
<line x1="15.500000" y1="236.500000" x2="20.500000" y2="236.500000" stroke="black" stroke-width="0.1" />
<line x1="18.000000" y1="236.500000" x2="15.500000" y2="234.000000" stroke="black" stroke-width="0.1" />
<line x1="18.000000" y1="236.500000" x2="20.500000" y2="234.000000" stroke="black" stroke-width="0.1" />
<text x="20.500000" y="189.000000" font-family="Arial" font-size="4" text-anchor="middle" dominant-baseline="middle" transform="rotate(90 20.500000 189.000000)" >95.0 mm</text>
<line x1="124.000000" y1="55.500000" x2="164.000000" y2="55.500000" stroke="black" stroke-width="0.1" />
<line x1="124.000000" y1="53.000000" x2="124.000000" y2="58.000000" stroke="black" stroke-width="0.1" />
<line x1="124.000000" y1="55.500000" x2="126.500000" y2="58.000000" stroke="black" stroke-width="0.1" />
<line x1="124.000000" y1="55.500000" x2="126.500000" y2="53.000000" stroke="black" stroke-width="0.1" />
<line x1="164.000000" y1="53.000000" x2="164.000000" y2="58.000000" stroke="black" stroke-width="0.1" />
<line x1="164.000000" y1="55.500000" x2="161.500000" y2="58.000000" stroke="black" stroke-width="0.1" />
<line x1="164.000000" y1="55.500000" x2="161.500000" y2="53.000000" stroke="black" stroke-width="0.1" />
<text x="149.000000" y="45.500000" font-family="Arial" font-size="4" text-anchor="middle" dominant-baseline="middle" transform="rotate(90 149.000000 45.500000)" >40.0 mm</text>
<line x1="124.000000" y1="110.500000" x2="164.000000" y2="110.500000" stroke="black" stroke-width="0.1" />
<line x1="124.000000" y1="108.000000" x2="124.000000" y2="113.000000" stroke="black" stroke-width="0.1" />
<line x1="124.000000" y1="110.500000" x2="126.500000" y2="113.000000" stroke="black" stroke-width="0.1" />
<line x1="124.000000" y1="110.500000" x2="126.500000" y2="108.000000" stroke="black" stroke-width="0.1" />
<line x1="164.000000" y1="108.000000" x2="164.000000" y2="113.000000" stroke="black" stroke-width="0.1" />
<line x1="164.000000" y1="110.500000" x2="161.500000" y2="113.000000" stroke="black" stroke-width="0.1" />
<line x1="164.000000" y1="110.500000" x2="161.500000" y2="108.000000" stroke="black" stroke-width="0.1" />
<text x="149.000000" y="100.500000" font-family="Arial" font-size="4" text-anchor="middle" dominant-baseline="middle" transform="rotate(90 149.000000 100.500000)" >40.0 mm</text>
<line x1="38.000000" y1="151.500000" x2="58.000000" y2="151.500000" stroke="black" stroke-width="0.1" />
<line x1="38.000000" y1="149.000000" x2="38.000000" y2="154.000000" stroke="black" stroke-width="0.1" />
<line x1="38.000000" y1="151.500000" x2="40.500000" y2="154.000000" stroke="black" stroke-width="0.1" />
<line x1="38.000000" y1="151.500000" x2="40.500000" y2="149.000000" stroke="black" stroke-width="0.1" />
<line x1="58.000000" y1="149.000000" x2="58.000000" y2="154.000000" stroke="black" stroke-width="0.1" />
<line x1="58.000000" y1="151.500000" x2="55.500000" y2="154.000000" stroke="black" stroke-width="0.1" />
<line x1="58.000000" y1="151.500000" x2="55.500000" y2="149.000000" stroke="black" stroke-width="0.1" />
<text x="53.000000" y="161.500000" font-family="Arial" font-size="4" text-anchor="middle" dominant-baseline="middle" transform="rotate(90 53.000000 161.500000)" >20.0 mm</text>
<line x1="26.375000" y1="246.500000" x2="69.625000" y2="246.500000" stroke="black" stroke-width="0.1" />
<line x1="26.375000" y1="244.000000" x2="26.375000" y2="249.000000" stroke="black" stroke-width="0.1" />
<line x1="26.375000" y1="246.500000" x2="28.875000" y2="249.000000" stroke="black" stroke-width="0.1" />
<line x1="26.375000" y1="246.500000" x2="28.875000" y2="244.000000" stroke="black" stroke-width="0.1" />
<line x1="69.625000" y1="244.000000" x2="69.625000" y2="249.000000" stroke="black" stroke-width="0.1" />
<line x1="69.625000" y1="246.500000" x2="67.125000" y2="249.000000" stroke="black" stroke-width="0.1" />
<line x1="69.625000" y1="246.500000" x2="67.125000" y2="244.000000" stroke="black" stroke-width="0.1" />
<text x="53.000000" y="256.500000" font-family="Arial" font-size="4" text-anchor="middle" dominant-baseline="middle" transform="rotate(90 53.000000 256.500000)" >43.3 mm</text>
<circle cx="124.000000" cy="65.500000" r="2.500000" fill="none" stroke="black" stroke-width="0.1" />
<circle cx="124.000000" cy="65.500000" r="0.250000" fill="none" stroke="black" stroke-width="0.1" />
<line x1="123.750000" y1="65.500000" x2="123.500000" y2="65.500000" stroke="black" stroke-width="0.1" />
<line x1="124.250000" y1="65.500000" x2="124.500000" y2="65.500000" stroke="black" stroke-width="0.1" />
<line x1="124.000000" y1="65.250000" x2="124.000000" y2="65.000000" stroke="black" stroke-width="0.1" />
<line x1="124.000000" y1="65.750000" x2="124.000000" y2="66.000000" stroke="black" stroke-width="0.1" />
<line x1="121.000000" y1="65.500000" x2="122.000000" y2="65.500000" stroke="black" stroke-width="0.1" />
<line x1="126.000000" y1="65.500000" x2="127.000000" y2="65.500000" stroke="black" stroke-width="0.1" />
<line x1="124.000000" y1="62.500000" x2="124.000000" y2="63.500000" stroke="black" stroke-width="0.1" />
<line x1="124.000000" y1="67.500000" x2="124.000000" y2="68.500000" stroke="black" stroke-width="0.1" />
<circle cx="164.000000" cy="65.500000" r="2.500000" fill="none" stroke="black" stroke-width="0.1" />
<circle cx="164.000000" cy="65.500000" r="0.250000" fill="none" stroke="black" stroke-width="0.1" />
<line x1="163.750000" y1="65.500000" x2="163.500000" y2="65.500000" stroke="black" stroke-width="0.1" />
<line x1="164.250000" y1="65.500000" x2="164.500000" y2="65.500000" stroke="black" stroke-width="0.1" />
<line x1="164.000000" y1="65.250000" x2="164.000000" y2="65.000000" stroke="black" stroke-width="0.1" />
<line x1="164.000000" y1="65.750000" x2="164.000000" y2="66.000000" stroke="black" stroke-width="0.1" />
<line x1="161.000000" y1="65.500000" x2="162.000000" y2="65.500000" stroke="black" stroke-width="0.1" />
<line x1="166.000000" y1="65.500000" x2="167.000000" y2="65.500000" stroke="black" stroke-width="0.1" />
<line x1="164.000000" y1="62.500000" x2="164.000000" y2="63.500000" stroke="black" stroke-width="0.1" />
<line x1="164.000000" y1="67.500000" x2="164.000000" y2="68.500000" stroke="black" stroke-width="0.1" />
<circle cx="124.000000" cy="120.500000" r="2.500000" fill="none" stroke="black" stroke-width="0.1" />
<circle cx="124.000000" cy="120.500000" r="0.250000" fill="none" stroke="black" stroke-width="0.1" />
<line x1="123.750000" y1="120.500000" x2="123.500000" y2="120.500000" stroke="black" stroke-width="0.1" />
<line x1="124.250000" y1="120.500000" x2="124.500000" y2="120.500000" stroke="black" stroke-width="0.1" />
<line x1="124.000000" y1="120.250000" x2="124.000000" y2="120.000000" stroke="black" stroke-width="0.1" />
<line x1="124.000000" y1="120.750000" x2="124.000000" y2="121.000000" stroke="black" stroke-width="0.1" />
<line x1="121.000000" y1="120.500000" x2="122.000000" y2="120.500000" stroke="black" stroke-width="0.1" />
<line x1="126.000000" y1="120.500000" x2="127.000000" y2="120.500000" stroke="black" stroke-width="0.1" />
<line x1="124.000000" y1="117.500000" x2="124.000000" y2="118.500000" stroke="black" stroke-width="0.1" />
<line x1="124.000000" y1="122.500000" x2="124.000000" y2="123.500000" stroke="black" stroke-width="0.1" />
<circle cx="164.000000" cy="120.500000" r="2.500000" fill="none" stroke="black" stroke-width="0.1" />
<circle cx="164.000000" cy="120.500000" r="0.250000" fill="none" stroke="black" stroke-width="0.1" />
<line x1="163.750000" y1="120.500000" x2="163.500000" y2="120.500000" stroke="black" stroke-width="0.1" />
<line x1="164.250000" y1="120.500000" x2="164.500000" y2="120.500000" stroke="black" stroke-width="0.1" />
<line x1="164.000000" y1="120.250000" x2="164.000000" y2="120.000000" stroke="black" stroke-width="0.1" />
<line x1="164.000000" y1="120.750000" x2="164.000000" y2="121.000000" stroke="black" stroke-width="0.1" />
<line x1="161.000000" y1="120.500000" x2="162.000000" y2="120.500000" stroke="black" stroke-width="0.1" />
<line x1="166.000000" y1="120.500000" x2="167.000000" y2="120.500000" stroke="black" stroke-width="0.1" />
<line x1="164.000000" y1="117.500000" x2="164.000000" y2="118.500000" stroke="black" stroke-width="0.1" />
<line x1="164.000000" y1="122.500000" x2="164.000000" y2="123.500000" stroke="black" stroke-width="0.1" />
<circle cx="38.000000" cy="141.500000" r="2.500000" fill="none" stroke="black" stroke-width="0.1" />
<circle cx="38.000000" cy="141.500000" r="0.250000" fill="none" stroke="black" stroke-width="0.1" />
<line x1="37.750000" y1="141.500000" x2="37.500000" y2="141.500000" stroke="black" stroke-width="0.1" />
<line x1="38.250000" y1="141.500000" x2="38.500000" y2="141.500000" stroke="black" stroke-width="0.1" />
<line x1="38.000000" y1="141.250000" x2="38.000000" y2="141.000000" stroke="black" stroke-width="0.1" />
<line x1="38.000000" y1="141.750000" x2="38.000000" y2="142.000000" stroke="black" stroke-width="0.1" />
<line x1="35.000000" y1="141.500000" x2="36.000000" y2="141.500000" stroke="black" stroke-width="0.1" />
<line x1="40.000000" y1="141.500000" x2="41.000000" y2="141.500000" stroke="black" stroke-width="0.1" />
<line x1="38.000000" y1="138.500000" x2="38.000000" y2="139.500000" stroke="black" stroke-width="0.1" />
<line x1="38.000000" y1="143.500000" x2="38.000000" y2="144.500000" stroke="black" stroke-width="0.1" />
<circle cx="58.000000" cy="141.500000" r="2.500000" fill="none" stroke="black" stroke-width="0.1" />
<circle cx="58.000000" cy="141.500000" r="0.250000" fill="none" stroke="black" stroke-width="0.1" />
<line x1="57.750000" y1="141.500000" x2="57.500000" y2="141.500000" stroke="black" stroke-width="0.1" />
<line x1="58.250000" y1="141.500000" x2="58.500000" y2="141.500000" stroke="black" stroke-width="0.1" />
<line x1="58.000000" y1="141.250000" x2="58.000000" y2="141.000000" stroke="black" stroke-width="0.1" />
<line x1="58.000000" y1="141.750000" x2="58.000000" y2="142.000000" stroke="black" stroke-width="0.1" />
<line x1="55.000000" y1="141.500000" x2="56.000000" y2="141.500000" stroke="black" stroke-width="0.1" />
<line x1="60.000000" y1="141.500000" x2="61.000000" y2="141.500000" stroke="black" stroke-width="0.1" />
<line x1="58.000000" y1="138.500000" x2="58.000000" y2="139.500000" stroke="black" stroke-width="0.1" />
<line x1="58.000000" y1="143.500000" x2="58.000000" y2="144.500000" stroke="black" stroke-width="0.1" />
<circle cx="26.375000" cy="236.500000" r="2.500000" fill="none" stroke="black" stroke-width="0.1" />
<circle cx="26.375000" cy="236.500000" r="0.250000" fill="none" stroke="black" stroke-width="0.1" />
<line x1="26.125000" y1="236.500000" x2="25.875000" y2="236.500000" stroke="black" stroke-width="0.1" />
<line x1="26.625000" y1="236.500000" x2="26.875000" y2="236.500000" stroke="black" stroke-width="0.1" />
<line x1="26.375000" y1="236.250000" x2="26.375000" y2="236.000000" stroke="black" stroke-width="0.1" />
<line x1="26.375000" y1="236.750000" x2="26.375000" y2="237.000000" stroke="black" stroke-width="0.1" />
<line x1="23.375000" y1="236.500000" x2="24.375000" y2="236.500000" stroke="black" stroke-width="0.1" />
<line x1="28.375000" y1="236.500000" x2="29.375000" y2="236.500000" stroke="black" stroke-width="0.1" />
<line x1="26.375000" y1="233.500000" x2="26.375000" y2="234.500000" stroke="black" stroke-width="0.1" />
<line x1="26.375000" y1="238.500000" x2="26.375000" y2="239.500000" stroke="black" stroke-width="0.1" />
<circle cx="69.625000" cy="236.500000" r="2.500000" fill="none" stroke="black" stroke-width="0.1" />
<circle cx="69.625000" cy="236.500000" r="0.250000" fill="none" stroke="black" stroke-width="0.1" />
<line x1="69.375000" y1="236.500000" x2="69.125000" y2="236.500000" stroke="black" stroke-width="0.1" />
<line x1="69.875000" y1="236.500000" x2="70.125000" y2="236.500000" stroke="black" stroke-width="0.1" />
<line x1="69.625000" y1="236.250000" x2="69.625000" y2="236.000000" stroke="black" stroke-width="0.1" />
<line x1="69.625000" y1="236.750000" x2="69.625000" y2="237.000000" stroke="black" stroke-width="0.1" />
<line x1="66.625000" y1="236.500000" x2="67.625000" y2="236.500000" stroke="black" stroke-width="0.1" />
<line x1="71.625000" y1="236.500000" x2="72.625000" y2="236.500000" stroke="black" stroke-width="0.1" />
<line x1="69.625000" y1="233.500000" x2="69.625000" y2="234.500000" stroke="black" stroke-width="0.1" />
<line x1="69.625000" y1="238.500000" x2="69.625000" y2="239.500000" stroke="black" stroke-width="0.1" />
<text x="73.000000" y="25.000000" font-family="Arial" font-size="4" text-anchor="middle" dominant-baseline="middle" transform="rotate(90 73.000000 25.000000)" >Mid Sole Mount Line</text>
<text x="169.000000" y="235.000000" font-family="Arial" font-size="4" text-anchor="middle" dominant-baseline="middle" transform="rotate(90 169.000000 235.000000)" >Mid Sole Mount Line</text>
<text x="43.000000" y="235.000000" font-family="Arial" font-size="4" text-anchor="middle" dominant-baseline="middle" transform="rotate(90 43.000000 235.000000)" >Ski Center Line</text>
<text x="139.000000" y="25.000000" font-family="Arial" font-size="4" text-anchor="middle" dominant-baseline="middle" transform="rotate(90 139.000000 25.000000)" >Ski Center Line</text>
</svg>