<?xml version="1.0"?>
<!DOCTYPE svg PUBLIC "-//W3C//DTD SVG 1.1//EN"
"http://www.w3.org/Graphics/SVG/1.1/DTD/svg11.dtd">
<svg xmlns="http://www.w3.org/2000/svg" version="1.2" width="192.000000mm" height="259.000000mm" viewBox="0 0 192.000000 259.000000" style="background-color:white" >
<line x1="48.000000" y1="0.000000" x2="48.000000" y2="259.000000" stroke="black" stroke-width="0.1" />
<line x1="144.000000" y1="0.000000" x2="144.000000" y2="259.000000" stroke="black" stroke-width="0.1" />
<line x1="104.000000" y1="255.000000" x2="184.000000" y2="255.000000" stroke="black" stroke-width="0.1" />
<line x1="8.000000" y1="5.000000" x2="88.000000" y2="5.000000" stroke="black" stroke-width="0.1" />
<line x1="96.000000" y1="0.000000" x2="96.000000" y2="259.000000" stroke="black" stroke-width="0.1" stroke-dasharray="2 2" />
<line x1="0.000000" y1="259.000000" x2="96.000000" y2="259.000000" stroke="black" stroke-width="0.1" stroke-dasharray="2 2" />
<line x1="96.000000" y1="0.000000" x2="192.000000" y2="0.000000" stroke="black" stroke-width="0.1" stroke-dasharray="2 2" />
<line x1="48.000000" y1="7.000000" x2="41.000000" y2="0.000000" stroke="black" stroke-width="0.1" stroke-dasharray="2 2" />
<line x1="48.000000" y1="7.000000" x2="55.000000" y2="0.000000" stroke="black" stroke-width="0.1" stroke-dasharray="2 2" />
<line x1="144.000000" y1="253.000000" x2="138.000000" y2="259.000000" stroke="black" stroke-width="0.1" stroke-dasharray="2 2" />
<line x1="144.000000" y1="253.000000" x2="150.000000" y2="259.000000" stroke="black" stroke-width="0.1" stroke-dasharray="2 2" />
<text x="83.000000" y="130.000000" font-family="Arial" font-size="8" text-anchor="middle" dominant-baseline="middle" transform="rotate(90 83.000000 130.000000)" >Marker FDT Plate, Heel</text>
<text x="179.000000" y="130.000000" font-family="Arial" font-size="8" text-anchor="middle" dominant-baseline="middle" transform="rotate(90 179.000000 130.000000)" >Marker FDT Plate, Toe</text>
<line x1="104.000000" y1="145.000000" x2="104.000000" y2="255.000000" stroke="black" stroke-width="0.1" />
<line x1="101.500000" y1="145.000000" x2="106.500000" y2="145.000000" stroke="black" stroke-width="0.1" />
<line x1="104.000000" y1="145.000000" x2="101.500000" y2="147.500000" stroke="black" stroke-width="0.1" />
<line x1="104.000000" y1="145.000000" x2="106.500000" y2="147.500000" stroke="black" stroke-width="0.1" />
<line x1="101.500000" y1="255.000000" x2="106.500000" y2="255.000000" stroke="black" stroke-width="0.1" />
<line x1="104.000000" y1="255.000000" x2="101.500000" y2="252.500000" stroke="black" stroke-width="0.1" />
<line x1="104.000000" y1="255.000000" x2="106.500000" y2="252.500000" stroke="black" stroke-width="0.1" />
<text x="106.500000" y="200.000000" font-family="Arial" font-size="4" text-anchor="middle" dominant-baseline="middle" transform="rotate(90 106.500000 200.000000)" >110.0 mm</text>
<line x1="114.000000" y1="70.000000" x2="114.000000" y2="145.000000" stroke="black" stroke-width="0.1" />
<line x1="111.500000" y1="70.000000" x2="116.500000" y2="70.000000" stroke="black" stroke-width="0.1" />
<line x1="114.000000" y1="70.000000" x2="111.500000" y2="72.500000" stroke="black" stroke-width="0.1" />
<line x1="114.000000" y1="70.000000" x2="116.500000" y2="72.500000" stroke="black" stroke-width="0.1" />
<line x1="111.500000" y1="145.000000" x2="116.500000" y2="145.000000" stroke="black" stroke-width="0.1" />
<line x1="114.000000" y1="145.000000" x2="111.500000" y2="142.500000" stroke="black" stroke-width="0.1" />
<line x1="114.000000" y1="145.000000" x2="116.500000" y2="142.500000" stroke="black" stroke-width="0.1" />
<text x="116.500000" y="107.500000" font-family="Arial" font-size="4" text-anchor="middle" dominant-baseline="middle" transform="rotate(90 116.500000 107.500000)" >75.0 mm</text>
<line x1="8.000000" y1="5.000000" x2="8.000000" y2="145.000000" stroke="black" stroke-width="0.1" />
<line x1="5.500000" y1="5.000000" x2="10.500000" y2="5.000000" stroke="black" stroke-width="0.1" />
<line x1="8.000000" y1="5.000000" x2="5.500000" y2="7.500000" stroke="black" stroke-width="0.1" />
<line x1="8.000000" y1="5.000000" x2="10.500000" y2="7.500000" stroke="black" stroke-width="0.1" />
<line x1="5.500000" y1="145.000000" x2="10.500000" y2="145.000000" stroke="black" stroke-width="0.1" />
<line x1="8.000000" y1="145.000000" x2="5.500000" y2="142.500000" stroke="black" stroke-width="0.1" />
<line x1="8.000000" y1="145.000000" x2="10.500000" y2="142.500000" stroke="black" stroke-width="0.1" />
<text x="10.500000" y="75.000000" font-family="Arial" font-size="4" text-anchor="middle" dominant-baseline="middle" transform="rotate(90 10.500000 75.000000)" >140.0 mm</text>
<line x1="18.000000" y1="145.000000" x2="18.000000" y2="225.000000" stroke="black" stroke-width="0.1" />
<line x1="15.500000" y1="145.000000" x2="20.500000" y2="145.000000" stroke="black" stroke-width="0.1" />
<line x1="18.000000" y1="145.000000" x2="15.500000" y2="147.500000" stroke="black" stroke-width="0.1" />
<line x1="18.000000" y1="145.000000" x2="20.500000" y2="147.500000" stroke="black" stroke-width="0.1" />
<line x1="15.500000" y1="225.000000" x2="20.500000" y2="225.000000" stroke="black" stroke-width="0.1" />
<line x1="18.000000" y1="225.000000" x2="15.500000" y2="222.500000" stroke="black" stroke-width="0.1" />
<line x1="18.000000" y1="225.000000" x2="20.500000" y2="222.500000" stroke="black" stroke-width="0.1" />
<text x="20.500000" y="185.000000" font-family="Arial" font-size="4" text-anchor="middle" dominant-baseline="middle" transform="rotate(90 20.500000 185.000000)" >80.0 mm</text>
<line x1="126.000000" y1="60.000000" x2="162.000000" y2="60.000000" stroke="black" stroke-width="0.1" />
<line x1="126.000000" y1="57.500000" x2="126.000000" y2="62.500000" stroke="black" stroke-width="0.1" />
<line x1="126.000000" y1="60.000000" x2="128.500000" y2="62.500000" stroke="black" stroke-width="0.1" />
<line x1="126.000000" y1="60.000000" x2="128.500000" y2="57.500000" stroke="black" stroke-width="0.1" />
<line x1="162.000000" y1="57.500000" x2="162.000000" y2="62.500000" stroke="black" stroke-width="0.1" />
<line x1="162.000000" y1="60.000000" x2="159.500000" y2="62.500000" stroke="black" stroke-width="0.1" />
<line x1="162.000000" y1="60.000000" x2="159.500000" y2="57.500000" stroke="black" stroke-width="0.1" />
<text x="149.000000" y="50.000000" font-family="Arial" font-size="4" text-anchor="middle" dominant-baseline="middle" transform="rotate(90 149.000000 50.000000)" >36.0 mm</text>
<line x1="126.000000" y1="135.000000" x2="162.000000" y2="135.000000" stroke="black" stroke-width="0.1" />
<line x1="126.000000" y1="132.500000" x2="126.000000" y2="137.500000" stroke="black" stroke-width="0.1" />
<line x1="126.000000" y1="135.000000" x2="128.500000" y2="137.500000" stroke="black" stroke-width="0.1" />
<line x1="126.000000" y1="135.000000" x2="128.500000" y2="132.500000" stroke="black" stroke-width="0.1" />
<line x1="162.000000" y1="132.500000" x2="162.000000" y2="137.500000" stroke="black" stroke-width="0.1" />
<line x1="162.000000" y1="135.000000" x2="159.500000" y2="137.500000" stroke="black" stroke-width="0.1" />
<line x1="162.000000" y1="135.000000" x2="159.500000" y2="132.500000" stroke="black" stroke-width="0.1" />
<text x="149.000000" y="125.000000" font-family="Arial" font-size="4" text-anchor="middle" dominant-baseline="middle" transform="rotate(90 149.000000 125.000000)" >36.0 mm</text>
<line x1="30.000000" y1="155.000000" x2="66.000000" y2="155.000000" stroke="black" stroke-width="0.1" />
<line x1="30.000000" y1="152.500000" x2="30.000000" y2="157.500000" stroke="black" stroke-width="0.1" />
<line x1="30.000000" y1="155.000000" x2="32.500000" y2="157.500000" stroke="black" stroke-width="0.1" />
<line x1="30.000000" y1="155.000000" x2="32.500000" y2="152.500000" stroke="black" stroke-width="0.1" />
<line x1="66.000000" y1="152.500000" x2="66.000000" y2="157.500000" stroke="black" stroke-width="0.1" />
<line x1="66.000000" y1="155.000000" x2="63.500000" y2="157.500000" stroke="black" stroke-width="0.1" />
<line x1="66.000000" y1="155.000000" x2="63.500000" y2="152.500000" stroke="black" stroke-width="0.1" />
<text x="53.000000" y="165.000000" font-family="Arial" font-size="4" text-anchor="middle" dominant-baseline="middle" transform="rotate(90 53.000000 165.000000)" >36.0 mm</text>
<line x1="30.000000" y1="235.000000" x2="66.000000" y2="235.000000" stroke="black" stroke-width="0.1" />
<line x1="30.000000" y1="232.500000" x2="30.000000" y2="237.500000" stroke="black" stroke-width="0.1" />
<line x1="30.000000" y1="235.000000" x2="32.500000" y2="237.500000" stroke="black" stroke-width="0.1" />
<line x1="30.000000" y1="235.000000" x2="32.500000" y2="232.500000" stroke="black" stroke-width="0.1" />
<line x1="66.000000" y1="232.500000" x2="66.000000" y2="237.500000" stroke="black" stroke-width="0.1" />
<line x1="66.000000" y1="235.000000" x2="63.500000" y2="237.500000" stroke="black" stroke-width="0.1" />
<line x1="66.000000" y1="235.000000" x2="63.500000" y2="232.500000" stroke="black" stroke-width="0.1" />
<text x="53.000000" y="245.000000" font-family="Arial" font-size="4" text-anchor="middle" dominant-baseline="middle" transform="rotate(90 53.000000 245.000000)" >36.0 mm</text>
<circle cx="126.000000" cy="70.000000" r="2.500000" fill="none" stroke="black" stroke-width="0.1" />
<circle cx="126.000000" cy="70.000000" r="0.250000" fill="none" stroke="black" stroke-width="0.1" />
<line x1="125.750000" y1="70.000000" x2="125.500000" y2="70.000000" stroke="black" stroke-width="0.1" />
<line x1="126.250000" y1="70.000000" x2="126.500000" y2="70.000000" stroke="black" stroke-width="0.1" />
<line x1="126.000000" y1="69.750000" x2="126.000000" y2="69.500000" stroke="black" stroke-width="0.1" />
<line x1="126.000000" y1="70.250000" x2="126.000000" y2="70.500000" stroke="black" stroke-width="0.1" />
<line x1="123.000000" y1="70.000000" x2="124.000000" y2="70.000000" stroke="black" stroke-width="0.1" />
<line x1="128.000000" y1="70.000000" x2="129.000000" y2="70.000000" stroke="black" stroke-width="0.1" />
<line x1="126.000000" y1="67.000000" x2="126.000000" y2="68.000000" stroke="black" stroke-width="0.1" />
<line x1="126.000000" y1="72.000000" x2="126.000000" y2="73.000000" stroke="black" stroke-width="0.1" />
<circle cx="162.000000" cy="70.000000" r="2.500000" fill="none" stroke="black" stroke-width="0.1" />
<circle cx="162.000000" cy="70.000000" r="0.250000" fill="none" stroke="black" stroke-width="0.1" />
<line x1="161.750000" y1="70.000000" x2="161.500000" y2="70.000000" stroke="black" stroke-width="0.1" />
<line x1="162.250000" y1="70.000000" x2="162.500000" y2="70.000000" stroke="black" stroke-width="0.1" />
<line x1="162.000000" y1="69.750000" x2="162.000000" y2="69.500000" stroke="black" stroke-width="0.1" />
<line x1="162.000000" y1="70.250000" x2="162.000000" y2="70.500000" stroke="black" stroke-width="0.1" />
<line x1="159.000000" y1="70.000000" x2="160.000000" y2="70.000000" stroke="black" stroke-width="0.1" />
<line x1="164.000000" y1="70.000000" x2="165.000000" y2="70.000000" stroke="black" stroke-width="0.1" />
<line x1="162.000000" y1="67.000000" x2="162.000000" y2="68.000000" stroke="black" stroke-width="0.1" />
<line x1="162.000000" y1="72.000000" x2="162.000000" y2="73.000000" stroke="black" stroke-width="0.1" />
<circle cx="126.000000" cy="145.000000" r="2.500000" fill="none" stroke="black" stroke-width="0.1" />
<circle cx="126.000000" cy="145.000000" r="0.250000" fill="none" stroke="black" stroke-width="0.1" />
<line x1="125.750000" y1="145.000000" x2="125.500000" y2="145.000000" stroke="black" stroke-width="0.1" />
<line x1="126.250000" y1="145.000000" x2="126.500000" y2="145.000000" stroke="black" stroke-width="0.1" />
<line x1="126.000000" y1="144.750000" x2="126.000000" y2="144.500000" stroke="black" stroke-width="0.1" />
<line x1="126.000000" y1="145.250000" x2="126.000000" y2="145.500000" stroke="black" stroke-width="0.1" />
<line x1="123.000000" y1="145.000000" x2="124.000000" y2="145.000000" stroke="black" stroke-width="0.1" />
<line x1="128.000000" y1="145.000000" x2="129.000000" y2="145.000000" stroke="black" stroke-width="0.1" />
<line x1="126.000000" y1="142.000000" x2="126.000000" y2="143.000000" stroke="black" stroke-width="0.1" />
<line x1="126.000000" y1="147.000000" x2="126.000000" y2="148.000000" stroke="black" stroke-width="0.1" />
<circle cx="162.000000" cy="145.000000" r="2.500000" fill="none" stroke="black" stroke-width="0.1" />
<circle cx="162.000000" cy="145.000000" r="0.250000" fill="none" stroke="black" stroke-width="0.1" />
<line x1="161.750000" y1="145.000000" x2="161.500000" y2="145.000000" stroke="black" stroke-width="0.1" />
<line x1="162.250000" y1="145.000000" x2="162.500000" y2="145.000000" stroke="black" stroke-width="0.1" />
<line x1="162.000000" y1="144.750000" x2="162.000000" y2="144.500000" stroke="black" stroke-width="0.1" />
<line x1="162.000000" y1="145.250000" x2="162.000000" y2="145.500000" stroke="black" stroke-width="0.1" />
<line x1="159.000000" y1="145.000000" x2="160.000000" y2="145.000000" stroke="black" stroke-width="0.1" />
<line x1="164.000000" y1="145.000000" x2="165.000000" y2="145.000000" stroke="black" stroke-width="0.1" />
<line x1="162.000000" y1="142.000000" x2="162.000000" y2="143.000000" stroke="black" stroke-width="0.1" />
<line x1="162.000000" y1="147.000000" x2="162.000000" y2="148.000000" stroke="black" stroke-width="0.1" />
<circle cx="30.000000" cy="145.000000" r="2.500000" fill="none" stroke="black" stroke-width="0.1" />
<circle cx="30.000000" cy="145.000000" r="0.250000" fill="none" stroke="black" stroke-width="0.1" />
<line x1="29.750000" y1="145.000000" x2="29.500000" y2="145.000000" stroke="black" stroke-width="0.1" />
<line x1="30.250000" y1="145.000000" x2="30.500000" y2="145.000000" stroke="black" stroke-width="0.1" />
<line x1="30.000000" y1="144.750000" x2="30.000000" y2="144.500000" stroke="black" stroke-width="0.1" />
<line x1="30.000000" y1="145.250000" x2="30.000000" y2="145.500000" stroke="black" stroke-width="0.1" />
<line x1="27.000000" y1="145.000000" x2="28.000000" y2="145.000000" stroke="black" stroke-width="0.1" />
<line x1="32.000000" y1="145.000000" x2="33.000000" y2="145.000000" stroke="black" stroke-width="0.1" />
<line x1="30.000000" y1="142.000000" x2="30.000000" y2="143.000000" stroke="black" stroke-width="0.1" />
<line x1="30.000000" y1="147.000000" x2="30.000000" y2="148.000000" stroke="black" stroke-width="0.1" />
<circle cx="66.000000" cy="145.000000" r="2.500000" fill="none" stroke="black" stroke-width="0.1" />
<circle cx="66.000000" cy="145.000000" r="0.250000" fill="none" stroke="black" stroke-width="0.1" />
<line x1="65.750000" y1="145.000000" x2="65.500000" y2="145.000000" stroke="black" stroke-width="0.1" />
<line x1="66.250000" y1="145.000000" x2="66.500000" y2="145.000000" stroke="black" stroke-width="0.1" />
<line x1="66.000000" y1="144.750000" x2="66.000000" y2="144.500000" stroke="black" stroke-width="0.1" />
<line x1="66.000000" y1="145.250000" x2="66.000000" y2="145.500000" stroke="black" stroke-width="0.1" />
<line x1="63.000000" y1="145.000000" x2="64.000000" y2="145.000000" stroke="black" stroke-width="0.1" />
<line x1="68.000000" y1="145.000000" x2="69.000000" y2="145.000000" stroke="black" stroke-width="0.1" />
<line x1="66.000000" y1="142.000000" x2="66.000000" y2="143.000000" stroke="black" stroke-width="0.1" />
<line x1="66.000000" y1="147.000000" x2="66.000000" y2="148.000000" stroke="black" stroke-width="0.1" />
<circle cx="30.000000" cy="225.000000" r="2.500000" fill="none" stroke="black" stroke-width="0.1" />
<circle cx="30.000000" cy="225.000000" r="0.250000" fill="none" stroke="black" stroke-width="0.1" />
<line x1="29.750000" y1="225.000000" x2="29.500000" y2="225.000000" stroke="black" stroke-width="0.1" />
<line x1="30.250000" y1="225.000000" x2="30.500000" y2="225.000000" stroke="black" stroke-width="0.1" />
<line x1="30.000000" y1="224.750000" x2="30.000000" y2="224.500000" stroke="black" stroke-width="0.1" />
<line x1="30.000000" y1="225.250000" x2="30.000000" y2="225.500000" stroke="black" stroke-width="0.1" />
<line x1="27.000000" y1="225.000000" x2="28.000000" y2="225.000000" stroke="black" stroke-width="0.1" />
<line x1="32.000000" y1="225.000000" x2="33.000000" y2="225.000000" stroke="black" stroke-width="0.1" />
<line x1="30.000000" y1="222.000000" x2="30.000000" y2="223.000000" stroke="black" stroke-width="0.1" />
<line x1="30.000000" y1="227.000000" x2="30.000000" y2="228.000000" stroke="black" stroke-width="0.1" />
<circle cx="66.000000" cy="225.000000" r="2.500000" fill="none" stroke="black" stroke-width="0.1" />
<circle cx="66.000000" cy="225.000000" r="0.250000" fill="none" stroke="black" stroke-width="0.1" />
<line x1="65.750000" y1="225.000000" x2="65.500000" y2="225.000000" stroke="black" stroke-width="0.1" />
<line x1="66.250000" y1="225.000000" x2="66.500000" y2="225.000000" stroke="black" stroke-width="0.1" />
<line x1="66.000000" y1="224.750000" x2="66.000000" y2="224.500000" stroke="black" stroke-width="0.1" />
<line x1="66.000000" y1="225.250000" x2="66.000000" y2="225.500000" stroke="black" stroke-width="0.1" />
<line x1="63.000000" y1="225.000000" x2="64.000000" y2="225.000000" stroke="black" stroke-width="0.1" />
<line x1="68.000000" y1="225.000000" x2="69.000000" y2="225.000000" stroke="black" stroke-width="0.1" />
<line x1="66.000000" y1="222.000000" x2="66.000000" y2="223.000000" stroke="black" stroke-width="0.1" />
<line x1="66.000000" y1="227.000000" x2="66.000000" y2="228.000000" stroke="black" stroke-width="0.1" />
<text x="73.000000" y="25.000000" font-family="Arial" font-size="4" text-anchor="middle" dominant-baseline="middle" transform="rotate(90 73.000000 25.000000)" >Mid Sole Mount Line</text>
<text x="169.000000" y="235.000000" font-family="Arial" font-size="4" text-anchor="middle" dominant-baseline="middle" transform="rotate(90 169.000000 235.000000)" >Mid Sole Mount Line</text>
<text x="43.000000" y="235.000000" font-family="Arial" font-size="4" text-anchor="middle" dominant-baseline="middle" transform="rotate(90 43.000000 235.000000)" >Ski Center Line</text>
<text x="139.000000" y="25.000000" font-family="Arial" font-size="4" text-anchor="middle" dominant-baseline="middle" transform="rotate(90 139.000000 25.000000)" >Ski Center Line</text>
</svg>