<?xml version="1.0"?>
<!DOCTYPE svg PUBLIC "-//W3C//DTD SVG 1.1//EN"
"http://www.w3.org/Graphics/SVG/1.1/DTD/svg11.dtd">
<svg xmlns="http://www.w3.org/2000/svg" version="1.2" width="192.000000mm" height="259.000000mm" viewBox="0 0 192.000000 259.000000" style="background-color:white" >
<line x1="48.000000" y1="0.000000" x2="48.000000" y2="259.000000" stroke="black" stroke-width="0.1" />
<line x1="144.000000" y1="0.000000" x2="144.000000" y2="259.000000" stroke="black" stroke-width="0.1" />
<line x1="104.000000" y1="255.000000" x2="184.000000" y2="255.000000" stroke="black" stroke-width="0.1" />
<line x1="8.000000" y1="5.000000" x2="88.000000" y2="5.000000" stroke="black" stroke-width="0.1" />
<line x1="96.000000" y1="0.000000" x2="96.000000" y2="259.000000" stroke="black" stroke-width="0.1" stroke-dasharray="2 2" />
<line x1="0.000000" y1="259.000000" x2="96.000000" y2="259.000000" stroke="black" stroke-width="0.1" stroke-dasharray="2 2" />
<line x1="96.000000" y1="0.000000" x2="192.000000" y2="0.000000" stroke="black" stroke-width="0.1" stroke-dasharray="2 2" />
<line x1="48.000000" y1="7.000000" x2="41.000000" y2="0.000000" stroke="black" stroke-width="0.1" stroke-dasharray="2 2" />
<line x1="48.000000" y1="7.000000" x2="55.000000" y2="0.000000" stroke="black" stroke-width="0.1" stroke-dasharray="2 2" />
<line x1="144.000000" y1="253.000000" x2="138.000000" y2="259.000000" stroke="black" stroke-width="0.1" stroke-dasharray="2 2" />
<line x1="144.000000" y1="253.000000" x2="150.000000" y2="259.000000" stroke="black" stroke-width="0.1" stroke-dasharray="2 2" />
<text x="83.000000" y="130.000000" font-family="Arial" font-size="8" text-anchor="middle" dominant-baseline="middle" transform="rotate(90 83.000000 130.000000)" >Salomon Strive Demo, Heel</text>
<text x="179.000000" y="130.000000" font-family="Arial" font-size="8" text-anchor="middle" dominant-baseline="middle" transform="rotate(90 179.000000 130.000000)" >Salomon Strive Demo, Toe</text>
<line x1="104.000000" y1="119.000000" x2="104.000000" y2="255.000000" stroke="black" stroke-width="0.1" />
<line x1="101.500000" y1="119.000000" x2="106.500000" y2="119.000000" stroke="black" stroke-width="0.1" />
<line x1="104.000000" y1="119.000000" x2="101.500000" y2="121.500000" stroke="black" stroke-width="0.1" />
<line x1="104.000000" y1="119.000000" x2="106.500000" y2="121.500000" stroke="black" stroke-width="0.1" />
<line x1="101.500000" y1="255.000000" x2="106.500000" y2="255.000000" stroke="black" stroke-width="0.1" />
<line x1="104.000000" y1="255.000000" x2="101.500000" y2="252.500000" stroke="black" stroke-width="0.1" />
<line x1="104.000000" y1="255.000000" x2="106.500000" y2="252.500000" stroke="black" stroke-width="0.1" />
<text x="106.500000" y="187.000000" font-family="Arial" font-size="4" text-anchor="middle" dominant-baseline="middle" transform="rotate(90 106.500000 187.000000)" >136.0 mm</text>
<line x1="114.000000" y1="44.000000" x2="114.000000" y2="119.000000" stroke="black" stroke-width="0.1" />
<line x1="111.500000" y1="44.000000" x2="116.500000" y2="44.000000" stroke="black" stroke-width="0.1" />
<line x1="114.000000" y1="44.000000" x2="111.500000" y2="46.500000" stroke="black" stroke-width="0.1" />
<line x1="114.000000" y1="44.000000" x2="116.500000" y2="46.500000" stroke="black" stroke-width="0.1" />
<line x1="111.500000" y1="119.000000" x2="116.500000" y2="119.000000" stroke="black" stroke-width="0.1" />
<line x1="114.000000" y1="119.000000" x2="111.500000" y2="116.500000" stroke="black" stroke-width="0.1" />
<line x1="114.000000" y1="119.000000" x2="116.500000" y2="116.500000" stroke="black" stroke-width="0.1" />
<text x="116.500000" y="81.500000" font-family="Arial" font-size="4" text-anchor="middle" dominant-baseline="middle" transform="rotate(90 116.500000 81.500000)" >75.0 mm</text>
<line x1="8.000000" y1="5.000000" x2="8.000000" y2="149.000000" stroke="black" stroke-width="0.1" />
<line x1="5.500000" y1="5.000000" x2="10.500000" y2="5.000000" stroke="black" stroke-width="0.1" />
<line x1="8.000000" y1="5.000000" x2="5.500000" y2="7.500000" stroke="black" stroke-width="0.1" />
<line x1="8.000000" y1="5.000000" x2="10.500000" y2="7.500000" stroke="black" stroke-width="0.1" />
<line x1="5.500000" y1="149.000000" x2="10.500000" y2="149.000000" stroke="black" stroke-width="0.1" />
<line x1="8.000000" y1="149.000000" x2="5.500000" y2="146.500000" stroke="black" stroke-width="0.1" />
<line x1="8.000000" y1="149.000000" x2="10.500000" y2="146.500000" stroke="black" stroke-width="0.1" />
<text x="10.500000" y="77.000000" font-family="Arial" font-size="4" text-anchor="middle" dominant-baseline="middle" transform="rotate(90 10.500000 77.000000)" >144.0 mm</text>
<line x1="18.000000" y1="149.000000" x2="18.000000" y2="229.500000" stroke="black" stroke-width="0.1" />
<line x1="15.500000" y1="149.000000" x2="20.500000" y2="149.000000" stroke="black" stroke-width="0.1" />
<line x1="18.000000" y1="149.000000" x2="15.500000" y2="151.500000" stroke="black" stroke-width="0.1" />
<line x1="18.000000" y1="149.000000" x2="20.500000" y2="151.500000" stroke="black" stroke-width="0.1" />
<line x1="15.500000" y1="229.500000" x2="20.500000" y2="229.500000" stroke="black" stroke-width="0.1" />
<line x1="18.000000" y1="229.500000" x2="15.500000" y2="227.000000" stroke="black" stroke-width="0.1" />
<line x1="18.000000" y1="229.500000" x2="20.500000" y2="227.000000" stroke="black" stroke-width="0.1" />
<text x="20.500000" y="189.250000" font-family="Arial" font-size="4" text-anchor="middle" dominant-baseline="middle" transform="rotate(90 20.500000 189.250000)" >80.5 mm</text>
<line x1="129.250000" y1="109.000000" x2="158.750000" y2="109.000000" stroke="black" stroke-width="0.1" />
<line x1="129.250000" y1="106.500000" x2="129.250000" y2="111.500000" stroke="black" stroke-width="0.1" />
<line x1="129.250000" y1="109.000000" x2="131.750000" y2="111.500000" stroke="black" stroke-width="0.1" />
<line x1="129.250000" y1="109.000000" x2="131.750000" y2="106.500000" stroke="black" stroke-width="0.1" />
<line x1="158.750000" y1="106.500000" x2="158.750000" y2="111.500000" stroke="black" stroke-width="0.1" />
<line x1="158.750000" y1="109.000000" x2="156.250000" y2="111.500000" stroke="black" stroke-width="0.1" />
<line x1="158.750000" y1="109.000000" x2="156.250000" y2="106.500000" stroke="black" stroke-width="0.1" />
<text x="149.000000" y="99.000000" font-family="Arial" font-size="4" text-anchor="middle" dominant-baseline="middle" transform="rotate(90 149.000000 99.000000)" >29.5 mm</text>
<line x1="129.250000" y1="34.000000" x2="158.750000" y2="34.000000" stroke="black" stroke-width="0.1" />
<line x1="129.250000" y1="31.500000" x2="129.250000" y2="36.500000" stroke="black" stroke-width="0.1" />
<line x1="129.250000" y1="34.000000" x2="131.750000" y2="36.500000" stroke="black" stroke-width="0.1" />
<line x1="129.250000" y1="34.000000" x2="131.750000" y2="31.500000" stroke="black" stroke-width="0.1" />
<line x1="158.750000" y1="31.500000" x2="158.750000" y2="36.500000" stroke="black" stroke-width="0.1" />
<line x1="158.750000" y1="34.000000" x2="156.250000" y2="36.500000" stroke="black" stroke-width="0.1" />
<line x1="158.750000" y1="34.000000" x2="156.250000" y2="31.500000" stroke="black" stroke-width="0.1" />
<text x="149.000000" y="24.000000" font-family="Arial" font-size="4" text-anchor="middle" dominant-baseline="middle" transform="rotate(90 149.000000 24.000000)" >29.5 mm</text>
<line x1="33.250000" y1="159.000000" x2="62.750000" y2="159.000000" stroke="black" stroke-width="0.1" />
<line x1="33.250000" y1="156.500000" x2="33.250000" y2="161.500000" stroke="black" stroke-width="0.1" />
<line x1="33.250000" y1="159.000000" x2="35.750000" y2="161.500000" stroke="black" stroke-width="0.1" />
<line x1="33.250000" y1="159.000000" x2="35.750000" y2="156.500000" stroke="black" stroke-width="0.1" />
<line x1="62.750000" y1="156.500000" x2="62.750000" y2="161.500000" stroke="black" stroke-width="0.1" />
<line x1="62.750000" y1="159.000000" x2="60.250000" y2="161.500000" stroke="black" stroke-width="0.1" />
<line x1="62.750000" y1="159.000000" x2="60.250000" y2="156.500000" stroke="black" stroke-width="0.1" />
<text x="53.000000" y="169.000000" font-family="Arial" font-size="4" text-anchor="middle" dominant-baseline="middle" transform="rotate(90 53.000000 169.000000)" >29.5 mm</text>
<line x1="33.250000" y1="239.500000" x2="62.750000" y2="239.500000" stroke="black" stroke-width="0.1" />
<line x1="33.250000" y1="237.000000" x2="33.250000" y2="242.000000" stroke="black" stroke-width="0.1" />
<line x1="33.250000" y1="239.500000" x2="35.750000" y2="242.000000" stroke="black" stroke-width="0.1" />
<line x1="33.250000" y1="239.500000" x2="35.750000" y2="237.000000" stroke="black" stroke-width="0.1" />
<line x1="62.750000" y1="237.000000" x2="62.750000" y2="242.000000" stroke="black" stroke-width="0.1" />
<line x1="62.750000" y1="239.500000" x2="60.250000" y2="242.000000" stroke="black" stroke-width="0.1" />
<line x1="62.750000" y1="239.500000" x2="60.250000" y2="237.000000" stroke="black" stroke-width="0.1" />
<text x="53.000000" y="249.500000" font-family="Arial" font-size="4" text-anchor="middle" dominant-baseline="middle" transform="rotate(90 53.000000 249.500000)" >29.5 mm</text>
<circle cx="129.250000" cy="119.000000" r="2.500000" fill="none" stroke="black" stroke-width="0.1" />
<circle cx="129.250000" cy="119.000000" r="0.250000" fill="none" stroke="black" stroke-width="0.1" />
<line x1="129.000000" y1="119.000000" x2="128.750000" y2="119.000000" stroke="black" stroke-width="0.1" />
<line x1="129.500000" y1="119.000000" x2="129.750000" y2="119.000000" stroke="black" stroke-width="0.1" />
<line x1="129.250000" y1="118.750000" x2="129.250000" y2="118.500000" stroke="black" stroke-width="0.1" />
<line x1="129.250000" y1="119.250000" x2="129.250000" y2="119.500000" stroke="black" stroke-width="0.1" />
<line x1="126.250000" y1="119.000000" x2="127.250000" y2="119.000000" stroke="black" stroke-width="0.1" />
<line x1="131.250000" y1="119.000000" x2="132.250000" y2="119.000000" stroke="black" stroke-width="0.1" />
<line x1="129.250000" y1="116.000000" x2="129.250000" y2="117.000000" stroke="black" stroke-width="0.1" />
<line x1="129.250000" y1="121.000000" x2="129.250000" y2="122.000000" stroke="black" stroke-width="0.1" />
<circle cx="158.750000" cy="119.000000" r="2.500000" fill="none" stroke="black" stroke-width="0.1" />
<circle cx="158.750000" cy="119.000000" r="0.250000" fill="none" stroke="black" stroke-width="0.1" />
<line x1="158.500000" y1="119.000000" x2="158.250000" y2="119.000000" stroke="black" stroke-width="0.1" />
<line x1="159.000000" y1="119.000000" x2="159.250000" y2="119.000000" stroke="black" stroke-width="0.1" />
<line x1="158.750000" y1="118.750000" x2="158.750000" y2="118.500000" stroke="black" stroke-width="0.1" />
<line x1="158.750000" y1="119.250000" x2="158.750000" y2="119.500000" stroke="black" stroke-width="0.1" />
<line x1="155.750000" y1="119.000000" x2="156.750000" y2="119.000000" stroke="black" stroke-width="0.1" />
<line x1="160.750000" y1="119.000000" x2="161.750000" y2="119.000000" stroke="black" stroke-width="0.1" />
<line x1="158.750000" y1="116.000000" x2="158.750000" y2="117.000000" stroke="black" stroke-width="0.1" />
<line x1="158.750000" y1="121.000000" x2="158.750000" y2="122.000000" stroke="black" stroke-width="0.1" />
<circle cx="129.250000" cy="44.000000" r="2.500000" fill="none" stroke="black" stroke-width="0.1" />
<circle cx="129.250000" cy="44.000000" r="0.250000" fill="none" stroke="black" stroke-width="0.1" />
<line x1="129.000000" y1="44.000000" x2="128.750000" y2="44.000000" stroke="black" stroke-width="0.1" />
<line x1="129.500000" y1="44.000000" x2="129.750000" y2="44.000000" stroke="black" stroke-width="0.1" />
<line x1="129.250000" y1="43.750000" x2="129.250000" y2="43.500000" stroke="black" stroke-width="0.1" />
<line x1="129.250000" y1="44.250000" x2="129.250000" y2="44.500000" stroke="black" stroke-width="0.1" />
<line x1="126.250000" y1="44.000000" x2="127.250000" y2="44.000000" stroke="black" stroke-width="0.1" />
<line x1="131.250000" y1="44.000000" x2="132.250000" y2="44.000000" stroke="black" stroke-width="0.1" />
<line x1="129.250000" y1="41.000000" x2="129.250000" y2="42.000000" stroke="black" stroke-width="0.1" />
<line x1="129.250000" y1="46.000000" x2="129.250000" y2="47.000000" stroke="black" stroke-width="0.1" />
<circle cx="158.750000" cy="44.000000" r="2.500000" fill="none" stroke="black" stroke-width="0.1" />
<circle cx="158.750000" cy="44.000000" r="0.250000" fill="none" stroke="black" stroke-width="0.1" />
<line x1="158.500000" y1="44.000000" x2="158.250000" y2="44.000000" stroke="black" stroke-width="0.1" />
<line x1="159.000000" y1="44.000000" x2="159.250000" y2="44.000000" stroke="black" stroke-width="0.1" />
<line x1="158.750000" y1="43.750000" x2="158.750000" y2="43.500000" stroke="black" stroke-width="0.1" />
<line x1="158.750000" y1="44.250000" x2="158.750000" y2="44.500000" stroke="black" stroke-width="0.1" />
<line x1="155.750000" y1="44.000000" x2="156.750000" y2="44.000000" stroke="black" stroke-width="0.1" />
<line x1="160.750000" y1="44.000000" x2="161.750000" y2="44.000000" stroke="black" stroke-width="0.1" />
<line x1="158.750000" y1="41.000000" x2="158.750000" y2="42.000000" stroke="black" stroke-width="0.1" />
<line x1="158.750000" y1="46.000000" x2="158.750000" y2="47.000000" stroke="black" stroke-width="0.1" />
<circle cx="33.250000" cy="149.000000" r="2.500000" fill="none" stroke="black" stroke-width="0.1" />
<circle cx="33.250000" cy="149.000000" r="0.250000" fill="none" stroke="black" stroke-width="0.1" />
<line x1="33.000000" y1="149.000000" x2="32.750000" y2="149.000000" stroke="black" stroke-width="0.1" />
<line x1="33.500000" y1="149.000000" x2="33.750000" y2="149.000000" stroke="black" stroke-width="0.1" />
<line x1="33.250000" y1="148.750000" x2="33.250000" y2="148.500000" stroke="black" stroke-width="0.1" />
<line x1="33.250000" y1="149.250000" x2="33.250000" y2="149.500000" stroke="black" stroke-width="0.1" />
<line x1="30.250000" y1="149.000000" x2="31.250000" y2="149.000000" stroke="black" stroke-width="0.1" />
<line x1="35.250000" y1="149.000000" x2="36.250000" y2="149.000000" stroke="black" stroke-width="0.1" />
<line x1="33.250000" y1="146.000000" x2="33.250000" y2="147.000000" stroke="black" stroke-width="0.1" />
<line x1="33.250000" y1="151.000000" x2="33.250000" y2="152.000000" stroke="black" stroke-width="0.1" />
<circle cx="62.750000" cy="149.000000" r="2.500000" fill="none" stroke="black" stroke-width="0.1" />
<circle cx="62.750000" cy="149.000000" r="0.250000" fill="none" stroke="black" stroke-width="0.1" />
<line x1="62.500000" y1="149.000000" x2="62.250000" y2="149.000000" stroke="black" stroke-width="0.1" />
<line x1="63.000000" y1="149.000000" x2="63.250000" y2="149.000000" stroke="black" stroke-width="0.1" />
<line x1="62.750000" y1="148.750000" x2="62.750000" y2="148.500000" stroke="black" stroke-width="0.1" />
<line x1="62.750000" y1="149.250000" x2="62.750000" y2="149.500000" stroke="black" stroke-width="0.1" />
<line x1="59.750000" y1="149.000000" x2="60.750000" y2="149.000000" stroke="black" stroke-width="0.1" />
<line x1="64.750000" y1="149.000000" x2="65.750000" y2="149.000000" stroke="black" stroke-width="0.1" />
<line x1="62.750000" y1="146.000000" x2="62.750000" y2="147.000000" stroke="black" stroke-width="0.1" />
<line x1="62.750000" y1="151.000000" x2="62.750000" y2="152.000000" stroke="black" stroke-width="0.1" />
<circle cx="33.250000" cy="229.500000" r="2.500000" fill="none" stroke="black" stroke-width="0.1" />
<circle cx="33.250000" cy="229.500000" r="0.250000" fill="none" stroke="black" stroke-width="0.1" />
<line x1="33.000000" y1="229.500000" x2="32.750000" y2="229.500000" stroke="black" stroke-width="0.1" />
<line x1="33.500000" y1="229.500000" x2="33.750000" y2="229.500000" stroke="black" stroke-width="0.1" />
<line x1="33.250000" y1="229.250000" x2="33.250000" y2="229.000000" stroke="black" stroke-width="0.1" />
<line x1="33.250000" y1="229.750000" x2="33.250000" y2="230.000000" stroke="black" stroke-width="0.1" />
<line x1="30.250000" y1="229.500000" x2="31.250000" y2="229.500000" stroke="black" stroke-width="0.1" />
<line x1="35.250000" y1="229.500000" x2="36.250000" y2="229.500000" stroke="black" stroke-width="0.1" />
<line x1="33.250000" y1="226.500000" x2="33.250000" y2="227.500000" stroke="black" stroke-width="0.1" />
<line x1="33.250000" y1="231.500000" x2="33.250000" y2="232.500000" stroke="black" stroke-width="0.1" />
<circle cx="62.750000" cy="229.500000" r="2.500000" fill="none" stroke="black" stroke-width="0.1" />
<circle cx="62.750000" cy="229.500000" r="0.250000" fill="none" stroke="black" stroke-width="0.1" />
<line x1="62.500000" y1="229.500000" x2="62.250000" y2="229.500000" stroke="black" stroke-width="0.1" />
<line x1="63.000000" y1="229.500000" x2="63.250000" y2="229.500000" stroke="black" stroke-width="0.1" />
<line x1="62.750000" y1="229.250000" x2="62.750000" y2="229.000000" stroke="black" stroke-width="0.1" />
<line x1="62.750000" y1="229.750000" x2="62.750000" y2="230.000000" stroke="black" stroke-width="0.1" />
<line x1="59.750000" y1="229.500000" x2="60.750000" y2="229.500000" stroke="black" stroke-width="0.1" />
<line x1="64.750000" y1="229.500000" x2="65.750000" y2="229.500000" stroke="black" stroke-width="0.1" />
<line x1="62.750000" y1="226.500000" x2="62.750000" y2="227.500000" stroke="black" stroke-width="0.1" />
<line x1="62.750000" y1="231.500000" x2="62.750000" y2="232.500000" stroke="black" stroke-width="0.1" />
<text x="73.000000" y="25.000000" font-family="Arial" font-size="4" text-anchor="middle" dominant-baseline="middle" transform="rotate(90 73.000000 25.000000)" >Mid Sole Mount Line</text>
<text x="169.000000" y="235.000000" font-family="Arial" font-size="4" text-anchor="middle" dominant-baseline="middle" transform="rotate(90 169.000000 235.000000)" >Mid Sole Mount Line</text>
<text x="43.000000" y="235.000000" font-family="Arial" font-size="4" text-anchor="middle" dominant-baseline="middle" transform="rotate(90 43.000000 235.000000)" >Ski Center Line</text>
<text x="139.000000" y="25.000000" font-family="Arial" font-size="4" text-anchor="middle" dominant-baseline="middle" transform="rotate(90 139.000000 25.000000)" >Ski Center Line</text>
</svg>