<?xml version="1.0"?>
<!DOCTYPE svg PUBLIC "-//W3C//DTD SVG 1.1//EN"
"http://www.w3.org/Graphics/SVG/1.1/DTD/svg11.dtd">
<svg xmlns="http://www.w3.org/2000/svg" version="1.2" width="192.000000mm" height="259.000000mm" viewBox="0 0 192.000000 259.000000" style="background-color:white" >
<line x1="48.000000" y1="0.000000" x2="48.000000" y2="259.000000" stroke="black" stroke-width="0.1" />
<line x1="144.000000" y1="0.000000" x2="144.000000" y2="259.000000" stroke="black" stroke-width="0.1" />
<line x1="104.000000" y1="255.000000" x2="184.000000" y2="255.000000" stroke="black" stroke-width="0.1" />
<line x1="8.000000" y1="5.000000" x2="88.000000" y2="5.000000" stroke="black" stroke-width="0.1" />
<line x1="96.000000" y1="0.000000" x2="96.000000" y2="259.000000" stroke="black" stroke-width="0.1" stroke-dasharray="2 2" />
<line x1="0.000000" y1="259.000000" x2="96.000000" y2="259.000000" stroke="black" stroke-width="0.1" stroke-dasharray="2 2" />
<line x1="96.000000" y1="0.000000" x2="192.000000" y2="0.000000" stroke="black" stroke-width="0.1" stroke-dasharray="2 2" />
<line x1="48.000000" y1="7.000000" x2="41.000000" y2="0.000000" stroke="black" stroke-width="0.1" stroke-dasharray="2 2" />
<line x1="48.000000" y1="7.000000" x2="55.000000" y2="0.000000" stroke="black" stroke-width="0.1" stroke-dasharray="2 2" />
<line x1="144.000000" y1="253.000000" x2="138.000000" y2="259.000000" stroke="black" stroke-width="0.1" stroke-dasharray="2 2" />
<line x1="144.000000" y1="253.000000" x2="150.000000" y2="259.000000" stroke="black" stroke-width="0.1" stroke-dasharray="2 2" />
<text x="83.000000" y="130.000000" font-family="Arial" font-size="8" text-anchor="middle" dominant-baseline="middle" transform="rotate(90 83.000000 130.000000)" >Look Pivot 262, Heel</text>
<text x="179.000000" y="130.000000" font-family="Arial" font-size="8" text-anchor="middle" dominant-baseline="middle" transform="rotate(90 179.000000 130.000000)" >Look Pivot 262, Toe</text>
<line x1="104.000000" y1="140.500000" x2="104.000000" y2="255.000000" stroke="black" stroke-width="0.1" />
<line x1="101.500000" y1="140.500000" x2="106.500000" y2="140.500000" stroke="black" stroke-width="0.1" />
<line x1="104.000000" y1="140.500000" x2="101.500000" y2="143.000000" stroke="black" stroke-width="0.1" />
<line x1="104.000000" y1="140.500000" x2="106.500000" y2="143.000000" stroke="black" stroke-width="0.1" />
<line x1="101.500000" y1="255.000000" x2="106.500000" y2="255.000000" stroke="black" stroke-width="0.1" />
<line x1="104.000000" y1="255.000000" x2="101.500000" y2="252.500000" stroke="black" stroke-width="0.1" />
<line x1="104.000000" y1="255.000000" x2="106.500000" y2="252.500000" stroke="black" stroke-width="0.1" />
<text x="106.500000" y="197.750000" font-family="Arial" font-size="4" text-anchor="middle" dominant-baseline="middle" transform="rotate(90 106.500000 197.750000)" >114.5 mm</text>
<line x1="114.000000" y1="99.000000" x2="114.000000" y2="140.500000" stroke="black" stroke-width="0.1" />
<line x1="111.500000" y1="99.000000" x2="116.500000" y2="99.000000" stroke="black" stroke-width="0.1" />
<line x1="114.000000" y1="99.000000" x2="111.500000" y2="101.500000" stroke="black" stroke-width="0.1" />
<line x1="114.000000" y1="99.000000" x2="116.500000" y2="101.500000" stroke="black" stroke-width="0.1" />
<line x1="111.500000" y1="140.500000" x2="116.500000" y2="140.500000" stroke="black" stroke-width="0.1" />
<line x1="114.000000" y1="140.500000" x2="111.500000" y2="138.000000" stroke="black" stroke-width="0.1" />
<line x1="114.000000" y1="140.500000" x2="116.500000" y2="138.000000" stroke="black" stroke-width="0.1" />
<text x="116.500000" y="119.750000" font-family="Arial" font-size="4" text-anchor="middle" dominant-baseline="middle" transform="rotate(90 116.500000 119.750000)" >41.5 mm</text>
<line x1="8.000000" y1="5.000000" x2="8.000000" y2="54.000000" stroke="black" stroke-width="0.1" />
<line x1="5.500000" y1="5.000000" x2="10.500000" y2="5.000000" stroke="black" stroke-width="0.1" />
<line x1="8.000000" y1="5.000000" x2="5.500000" y2="7.500000" stroke="black" stroke-width="0.1" />
<line x1="8.000000" y1="5.000000" x2="10.500000" y2="7.500000" stroke="black" stroke-width="0.1" />
<line x1="5.500000" y1="54.000000" x2="10.500000" y2="54.000000" stroke="black" stroke-width="0.1" />
<line x1="8.000000" y1="54.000000" x2="5.500000" y2="51.500000" stroke="black" stroke-width="0.1" />
<line x1="8.000000" y1="54.000000" x2="10.500000" y2="51.500000" stroke="black" stroke-width="0.1" />
<text x="10.500000" y="29.500000" font-family="Arial" font-size="4" text-anchor="middle" dominant-baseline="middle" transform="rotate(90 10.500000 29.500000)" >49.0 mm</text>
<line x1="18.000000" y1="54.000000" x2="18.000000" y2="86.000000" stroke="black" stroke-width="0.1" />
<line x1="15.500000" y1="54.000000" x2="20.500000" y2="54.000000" stroke="black" stroke-width="0.1" />
<line x1="18.000000" y1="54.000000" x2="15.500000" y2="56.500000" stroke="black" stroke-width="0.1" />
<line x1="18.000000" y1="54.000000" x2="20.500000" y2="56.500000" stroke="black" stroke-width="0.1" />
<line x1="15.500000" y1="86.000000" x2="20.500000" y2="86.000000" stroke="black" stroke-width="0.1" />
<line x1="18.000000" y1="86.000000" x2="15.500000" y2="83.500000" stroke="black" stroke-width="0.1" />
<line x1="18.000000" y1="86.000000" x2="20.500000" y2="83.500000" stroke="black" stroke-width="0.1" />
<text x="20.500000" y="70.000000" font-family="Arial" font-size="4" text-anchor="middle" dominant-baseline="middle" transform="rotate(90 20.500000 70.000000)" >32.0 mm</text>
<line x1="126.500000" y1="130.500000" x2="161.500000" y2="130.500000" stroke="black" stroke-width="0.1" />
<line x1="126.500000" y1="128.000000" x2="126.500000" y2="133.000000" stroke="black" stroke-width="0.1" />
<line x1="126.500000" y1="130.500000" x2="129.000000" y2="133.000000" stroke="black" stroke-width="0.1" />
<line x1="126.500000" y1="130.500000" x2="129.000000" y2="128.000000" stroke="black" stroke-width="0.1" />
<line x1="161.500000" y1="128.000000" x2="161.500000" y2="133.000000" stroke="black" stroke-width="0.1" />
<line x1="161.500000" y1="130.500000" x2="159.000000" y2="133.000000" stroke="black" stroke-width="0.1" />
<line x1="161.500000" y1="130.500000" x2="159.000000" y2="128.000000" stroke="black" stroke-width="0.1" />
<text x="149.000000" y="120.500000" font-family="Arial" font-size="4" text-anchor="middle" dominant-baseline="middle" transform="rotate(90 149.000000 120.500000)" >35.0 mm</text>
<line x1="123.000000" y1="89.000000" x2="165.000000" y2="89.000000" stroke="black" stroke-width="0.1" />
<line x1="123.000000" y1="86.500000" x2="123.000000" y2="91.500000" stroke="black" stroke-width="0.1" />
<line x1="123.000000" y1="89.000000" x2="125.500000" y2="91.500000" stroke="black" stroke-width="0.1" />
<line x1="123.000000" y1="89.000000" x2="125.500000" y2="86.500000" stroke="black" stroke-width="0.1" />
<line x1="165.000000" y1="86.500000" x2="165.000000" y2="91.500000" stroke="black" stroke-width="0.1" />
<line x1="165.000000" y1="89.000000" x2="162.500000" y2="91.500000" stroke="black" stroke-width="0.1" />
<line x1="165.000000" y1="89.000000" x2="162.500000" y2="86.500000" stroke="black" stroke-width="0.1" />
<text x="149.000000" y="79.000000" font-family="Arial" font-size="4" text-anchor="middle" dominant-baseline="middle" transform="rotate(90 149.000000 79.000000)" >42.0 mm</text>
<line x1="37.500000" y1="64.000000" x2="58.500000" y2="64.000000" stroke="black" stroke-width="0.1" />
<line x1="37.500000" y1="61.500000" x2="37.500000" y2="66.500000" stroke="black" stroke-width="0.1" />
<line x1="37.500000" y1="64.000000" x2="40.000000" y2="66.500000" stroke="black" stroke-width="0.1" />
<line x1="37.500000" y1="64.000000" x2="40.000000" y2="61.500000" stroke="black" stroke-width="0.1" />
<line x1="58.500000" y1="61.500000" x2="58.500000" y2="66.500000" stroke="black" stroke-width="0.1" />
<line x1="58.500000" y1="64.000000" x2="56.000000" y2="66.500000" stroke="black" stroke-width="0.1" />
<line x1="58.500000" y1="64.000000" x2="56.000000" y2="61.500000" stroke="black" stroke-width="0.1" />
<text x="53.000000" y="74.000000" font-family="Arial" font-size="4" text-anchor="middle" dominant-baseline="middle" transform="rotate(90 53.000000 74.000000)" >21.0 mm</text>
<line x1="33.500000" y1="96.000000" x2="62.500000" y2="96.000000" stroke="black" stroke-width="0.1" />
<line x1="33.500000" y1="93.500000" x2="33.500000" y2="98.500000" stroke="black" stroke-width="0.1" />
<line x1="33.500000" y1="96.000000" x2="36.000000" y2="98.500000" stroke="black" stroke-width="0.1" />
<line x1="33.500000" y1="96.000000" x2="36.000000" y2="93.500000" stroke="black" stroke-width="0.1" />
<line x1="62.500000" y1="93.500000" x2="62.500000" y2="98.500000" stroke="black" stroke-width="0.1" />
<line x1="62.500000" y1="96.000000" x2="60.000000" y2="98.500000" stroke="black" stroke-width="0.1" />
<line x1="62.500000" y1="96.000000" x2="60.000000" y2="93.500000" stroke="black" stroke-width="0.1" />
<text x="53.000000" y="106.000000" font-family="Arial" font-size="4" text-anchor="middle" dominant-baseline="middle" transform="rotate(90 53.000000 106.000000)" >29.0 mm</text>
<circle cx="126.500000" cy="140.500000" r="2.500000" fill="none" stroke="black" stroke-width="0.1" />
<circle cx="126.500000" cy="140.500000" r="0.250000" fill="none" stroke="black" stroke-width="0.1" />
<line x1="126.250000" y1="140.500000" x2="126.000000" y2="140.500000" stroke="black" stroke-width="0.1" />
<line x1="126.750000" y1="140.500000" x2="127.000000" y2="140.500000" stroke="black" stroke-width="0.1" />
<line x1="126.500000" y1="140.250000" x2="126.500000" y2="140.000000" stroke="black" stroke-width="0.1" />
<line x1="126.500000" y1="140.750000" x2="126.500000" y2="141.000000" stroke="black" stroke-width="0.1" />
<line x1="123.500000" y1="140.500000" x2="124.500000" y2="140.500000" stroke="black" stroke-width="0.1" />
<line x1="128.500000" y1="140.500000" x2="129.500000" y2="140.500000" stroke="black" stroke-width="0.1" />
<line x1="126.500000" y1="137.500000" x2="126.500000" y2="138.500000" stroke="black" stroke-width="0.1" />
<line x1="126.500000" y1="142.500000" x2="126.500000" y2="143.500000" stroke="black" stroke-width="0.1" />
<circle cx="161.500000" cy="140.500000" r="2.500000" fill="none" stroke="black" stroke-width="0.1" />
<circle cx="161.500000" cy="140.500000" r="0.250000" fill="none" stroke="black" stroke-width="0.1" />
<line x1="161.250000" y1="140.500000" x2="161.000000" y2="140.500000" stroke="black" stroke-width="0.1" />
<line x1="161.750000" y1="140.500000" x2="162.000000" y2="140.500000" stroke="black" stroke-width="0.1" />
<line x1="161.500000" y1="140.250000" x2="161.500000" y2="140.000000" stroke="black" stroke-width="0.1" />
<line x1="161.500000" y1="140.750000" x2="161.500000" y2="141.000000" stroke="black" stroke-width="0.1" />
<line x1="158.500000" y1="140.500000" x2="159.500000" y2="140.500000" stroke="black" stroke-width="0.1" />
<line x1="163.500000" y1="140.500000" x2="164.500000" y2="140.500000" stroke="black" stroke-width="0.1" />
<line x1="161.500000" y1="137.500000" x2="161.500000" y2="138.500000" stroke="black" stroke-width="0.1" />
<line x1="161.500000" y1="142.500000" x2="161.500000" y2="143.500000" stroke="black" stroke-width="0.1" />
<circle cx="123.000000" cy="99.000000" r="2.500000" fill="none" stroke="black" stroke-width="0.1" />
<circle cx="123.000000" cy="99.000000" r="0.250000" fill="none" stroke="black" stroke-width="0.1" />
<line x1="122.750000" y1="99.000000" x2="122.500000" y2="99.000000" stroke="black" stroke-width="0.1" />
<line x1="123.250000" y1="99.000000" x2="123.500000" y2="99.000000" stroke="black" stroke-width="0.1" />
<line x1="123.000000" y1="98.750000" x2="123.000000" y2="98.500000" stroke="black" stroke-width="0.1" />
<line x1="123.000000" y1="99.250000" x2="123.000000" y2="99.500000" stroke="black" stroke-width="0.1" />
<line x1="120.000000" y1="99.000000" x2="121.000000" y2="99.000000" stroke="black" stroke-width="0.1" />
<line x1="125.000000" y1="99.000000" x2="126.000000" y2="99.000000" stroke="black" stroke-width="0.1" />
<line x1="123.000000" y1="96.000000" x2="123.000000" y2="97.000000" stroke="black" stroke-width="0.1" />
<line x1="123.000000" y1="101.000000" x2="123.000000" y2="102.000000" stroke="black" stroke-width="0.1" />
<circle cx="165.000000" cy="99.000000" r="2.500000" fill="none" stroke="black" stroke-width="0.1" />
<circle cx="165.000000" cy="99.000000" r="0.250000" fill="none" stroke="black" stroke-width="0.1" />
<line x1="164.750000" y1="99.000000" x2="164.500000" y2="99.000000" stroke="black" stroke-width="0.1" />
<line x1="165.250000" y1="99.000000" x2="165.500000" y2="99.000000" stroke="black" stroke-width="0.1" />
<line x1="165.000000" y1="98.750000" x2="165.000000" y2="98.500000" stroke="black" stroke-width="0.1" />
<line x1="165.000000" y1="99.250000" x2="165.000000" y2="99.500000" stroke="black" stroke-width="0.1" />
<line x1="162.000000" y1="99.000000" x2="163.000000" y2="99.000000" stroke="black" stroke-width="0.1" />
<line x1="167.000000" y1="99.000000" x2="168.000000" y2="99.000000" stroke="black" stroke-width="0.1" />
<line x1="165.000000" y1="96.000000" x2="165.000000" y2="97.000000" stroke="black" stroke-width="0.1" />
<line x1="165.000000" y1="101.000000" x2="165.000000" y2="102.000000" stroke="black" stroke-width="0.1" />
<circle cx="37.500000" cy="54.000000" r="2.500000" fill="none" stroke="black" stroke-width="0.1" />
<circle cx="37.500000" cy="54.000000" r="0.250000" fill="none" stroke="black" stroke-width="0.1" />
<line x1="37.250000" y1="54.000000" x2="37.000000" y2="54.000000" stroke="black" stroke-width="0.1" />
<line x1="37.750000" y1="54.000000" x2="38.000000" y2="54.000000" stroke="black" stroke-width="0.1" />
<line x1="37.500000" y1="53.750000" x2="37.500000" y2="53.500000" stroke="black" stroke-width="0.1" />
<line x1="37.500000" y1="54.250000" x2="37.500000" y2="54.500000" stroke="black" stroke-width="0.1" />
<line x1="34.500000" y1="54.000000" x2="35.500000" y2="54.000000" stroke="black" stroke-width="0.1" />
<line x1="39.500000" y1="54.000000" x2="40.500000" y2="54.000000" stroke="black" stroke-width="0.1" />
<line x1="37.500000" y1="51.000000" x2="37.500000" y2="52.000000" stroke="black" stroke-width="0.1" />
<line x1="37.500000" y1="56.000000" x2="37.500000" y2="57.000000" stroke="black" stroke-width="0.1" />
<circle cx="58.500000" cy="54.000000" r="2.500000" fill="none" stroke="black" stroke-width="0.1" />
<circle cx="58.500000" cy="54.000000" r="0.250000" fill="none" stroke="black" stroke-width="0.1" />
<line x1="58.250000" y1="54.000000" x2="58.000000" y2="54.000000" stroke="black" stroke-width="0.1" />
<line x1="58.750000" y1="54.000000" x2="59.000000" y2="54.000000" stroke="black" stroke-width="0.1" />
<line x1="58.500000" y1="53.750000" x2="58.500000" y2="53.500000" stroke="black" stroke-width="0.1" />
<line x1="58.500000" y1="54.250000" x2="58.500000" y2="54.500000" stroke="black" stroke-width="0.1" />
<line x1="55.500000" y1="54.000000" x2="56.500000" y2="54.000000" stroke="black" stroke-width="0.1" />
<line x1="60.500000" y1="54.000000" x2="61.500000" y2="54.000000" stroke="black" stroke-width="0.1" />
<line x1="58.500000" y1="51.000000" x2="58.500000" y2="52.000000" stroke="black" stroke-width="0.1" />
<line x1="58.500000" y1="56.000000" x2="58.500000" y2="57.000000" stroke="black" stroke-width="0.1" />
<circle cx="33.500000" cy="86.000000" r="2.500000" fill="none" stroke="black" stroke-width="0.1" />
<circle cx="33.500000" cy="86.000000" r="0.250000" fill="none" stroke="black" stroke-width="0.1" />
<line x1="33.250000" y1="86.000000" x2="33.000000" y2="86.000000" stroke="black" stroke-width="0.1" />
<line x1="33.750000" y1="86.000000" x2="34.000000" y2="86.000000" stroke="black" stroke-width="0.1" />
<line x1="33.500000" y1="85.750000" x2="33.500000" y2="85.500000" stroke="black" stroke-width="0.1" />
<line x1="33.500000" y1="86.250000" x2="33.500000" y2="86.500000" stroke="black" stroke-width="0.1" />
<line x1="30.500000" y1="86.000000" x2="31.500000" y2="86.000000" stroke="black" stroke-width="0.1" />
<line x1="35.500000" y1="86.000000" x2="36.500000" y2="86.000000" stroke="black" stroke-width="0.1" />
<line x1="33.500000" y1="83.000000" x2="33.500000" y2="84.000000" stroke="black" stroke-width="0.1" />
<line x1="33.500000" y1="88.000000" x2="33.500000" y2="89.000000" stroke="black" stroke-width="0.1" />
<circle cx="62.500000" cy="86.000000" r="2.500000" fill="none" stroke="black" stroke-width="0.1" />
<circle cx="62.500000" cy="86.000000" r="0.250000" fill="none" stroke="black" stroke-width="0.1" />
<line x1="62.250000" y1="86.000000" x2="62.000000" y2="86.000000" stroke="black" stroke-width="0.1" />
<line x1="62.750000" y1="86.000000" x2="63.000000" y2="86.000000" stroke="black" stroke-width="0.1" />
<line x1="62.500000" y1="85.750000" x2="62.500000" y2="85.500000" stroke="black" stroke-width="0.1" />
<line x1="62.500000" y1="86.250000" x2="62.500000" y2="86.500000" stroke="black" stroke-width="0.1" />
<line x1="59.500000" y1="86.000000" x2="60.500000" y2="86.000000" stroke="black" stroke-width="0.1" />
<line x1="64.500000" y1="86.000000" x2="65.500000" y2="86.000000" stroke="black" stroke-width="0.1" />
<line x1="62.500000" y1="83.000000" x2="62.500000" y2="84.000000" stroke="black" stroke-width="0.1" />
<line x1="62.500000" y1="88.000000" x2="62.500000" y2="89.000000" stroke="black" stroke-width="0.1" />
<text x="73.000000" y="25.000000" font-family="Arial" font-size="4" text-anchor="middle" dominant-baseline="middle" transform="rotate(90 73.000000 25.000000)" >Mid Sole Mount Line</text>
<text x="169.000000" y="235.000000" font-family="Arial" font-size="4" text-anchor="middle" dominant-baseline="middle" transform="rotate(90 169.000000 235.000000)" >Mid Sole Mount Line</text>
<text x="43.000000" y="235.000000" font-family="Arial" font-size="4" text-anchor="middle" dominant-baseline="middle" transform="rotate(90 43.000000 235.000000)" >Ski Center Line</text>
<text x="139.000000" y="25.000000" font-family="Arial" font-size="4" text-anchor="middle" dominant-baseline="middle" transform="rotate(90 139.000000 25.000000)" >Ski Center Line</text>
</svg>