<?xml version="1.0"?>
<!DOCTYPE svg PUBLIC "-//W3C//DTD SVG 1.1//EN"
"http://www.w3.org/Graphics/SVG/1.1/DTD/svg11.dtd">
<svg xmlns="http://www.w3.org/2000/svg" version="1.2" width="192.000000mm" height="259.000000mm" viewBox="0 0 192.000000 259.000000" style="background-color:white" >
<line x1="48.000000" y1="0.000000" x2="48.000000" y2="259.000000" stroke="black" stroke-width="0.1" />
<line x1="144.000000" y1="0.000000" x2="144.000000" y2="259.000000" stroke="black" stroke-width="0.1" />
<line x1="104.000000" y1="255.000000" x2="184.000000" y2="255.000000" stroke="black" stroke-width="0.1" />
<line x1="8.000000" y1="5.000000" x2="88.000000" y2="5.000000" stroke="black" stroke-width="0.1" />
<line x1="96.000000" y1="0.000000" x2="96.000000" y2="259.000000" stroke="black" stroke-width="0.1" stroke-dasharray="2 2" />
<line x1="0.000000" y1="259.000000" x2="96.000000" y2="259.000000" stroke="black" stroke-width="0.1" stroke-dasharray="2 2" />
<line x1="96.000000" y1="0.000000" x2="192.000000" y2="0.000000" stroke="black" stroke-width="0.1" stroke-dasharray="2 2" />
<line x1="48.000000" y1="7.000000" x2="41.000000" y2="0.000000" stroke="black" stroke-width="0.1" stroke-dasharray="2 2" />
<line x1="48.000000" y1="7.000000" x2="55.000000" y2="0.000000" stroke="black" stroke-width="0.1" stroke-dasharray="2 2" />
<line x1="144.000000" y1="253.000000" x2="138.000000" y2="259.000000" stroke="black" stroke-width="0.1" stroke-dasharray="2 2" />
<line x1="144.000000" y1="253.000000" x2="150.000000" y2="259.000000" stroke="black" stroke-width="0.1" stroke-dasharray="2 2" />
<text x="83.000000" y="130.000000" font-family="Arial" font-size="8" text-anchor="middle" dominant-baseline="middle" transform="rotate(90 83.000000 130.000000)" >Look Pivot 310, Heel</text>
<text x="179.000000" y="130.000000" font-family="Arial" font-size="8" text-anchor="middle" dominant-baseline="middle" transform="rotate(90 179.000000 130.000000)" >Look Pivot 310, Toe</text>
<line x1="104.000000" y1="116.500000" x2="104.000000" y2="255.000000" stroke="black" stroke-width="0.1" />
<line x1="101.500000" y1="116.500000" x2="106.500000" y2="116.500000" stroke="black" stroke-width="0.1" />
<line x1="104.000000" y1="116.500000" x2="101.500000" y2="119.000000" stroke="black" stroke-width="0.1" />
<line x1="104.000000" y1="116.500000" x2="106.500000" y2="119.000000" stroke="black" stroke-width="0.1" />
<line x1="101.500000" y1="255.000000" x2="106.500000" y2="255.000000" stroke="black" stroke-width="0.1" />
<line x1="104.000000" y1="255.000000" x2="101.500000" y2="252.500000" stroke="black" stroke-width="0.1" />
<line x1="104.000000" y1="255.000000" x2="106.500000" y2="252.500000" stroke="black" stroke-width="0.1" />
<text x="106.500000" y="185.750000" font-family="Arial" font-size="4" text-anchor="middle" dominant-baseline="middle" transform="rotate(90 106.500000 185.750000)" >138.5 mm</text>
<line x1="114.000000" y1="75.000000" x2="114.000000" y2="116.500000" stroke="black" stroke-width="0.1" />
<line x1="111.500000" y1="75.000000" x2="116.500000" y2="75.000000" stroke="black" stroke-width="0.1" />
<line x1="114.000000" y1="75.000000" x2="111.500000" y2="77.500000" stroke="black" stroke-width="0.1" />
<line x1="114.000000" y1="75.000000" x2="116.500000" y2="77.500000" stroke="black" stroke-width="0.1" />
<line x1="111.500000" y1="116.500000" x2="116.500000" y2="116.500000" stroke="black" stroke-width="0.1" />
<line x1="114.000000" y1="116.500000" x2="111.500000" y2="114.000000" stroke="black" stroke-width="0.1" />
<line x1="114.000000" y1="116.500000" x2="116.500000" y2="114.000000" stroke="black" stroke-width="0.1" />
<text x="116.500000" y="95.750000" font-family="Arial" font-size="4" text-anchor="middle" dominant-baseline="middle" transform="rotate(90 116.500000 95.750000)" >41.5 mm</text>
<line x1="8.000000" y1="5.000000" x2="8.000000" y2="78.000000" stroke="black" stroke-width="0.1" />
<line x1="5.500000" y1="5.000000" x2="10.500000" y2="5.000000" stroke="black" stroke-width="0.1" />
<line x1="8.000000" y1="5.000000" x2="5.500000" y2="7.500000" stroke="black" stroke-width="0.1" />
<line x1="8.000000" y1="5.000000" x2="10.500000" y2="7.500000" stroke="black" stroke-width="0.1" />
<line x1="5.500000" y1="78.000000" x2="10.500000" y2="78.000000" stroke="black" stroke-width="0.1" />
<line x1="8.000000" y1="78.000000" x2="5.500000" y2="75.500000" stroke="black" stroke-width="0.1" />
<line x1="8.000000" y1="78.000000" x2="10.500000" y2="75.500000" stroke="black" stroke-width="0.1" />
<text x="10.500000" y="41.500000" font-family="Arial" font-size="4" text-anchor="middle" dominant-baseline="middle" transform="rotate(90 10.500000 41.500000)" >73.0 mm</text>
<line x1="18.000000" y1="78.000000" x2="18.000000" y2="110.000000" stroke="black" stroke-width="0.1" />
<line x1="15.500000" y1="78.000000" x2="20.500000" y2="78.000000" stroke="black" stroke-width="0.1" />
<line x1="18.000000" y1="78.000000" x2="15.500000" y2="80.500000" stroke="black" stroke-width="0.1" />
<line x1="18.000000" y1="78.000000" x2="20.500000" y2="80.500000" stroke="black" stroke-width="0.1" />
<line x1="15.500000" y1="110.000000" x2="20.500000" y2="110.000000" stroke="black" stroke-width="0.1" />
<line x1="18.000000" y1="110.000000" x2="15.500000" y2="107.500000" stroke="black" stroke-width="0.1" />
<line x1="18.000000" y1="110.000000" x2="20.500000" y2="107.500000" stroke="black" stroke-width="0.1" />
<text x="20.500000" y="94.000000" font-family="Arial" font-size="4" text-anchor="middle" dominant-baseline="middle" transform="rotate(90 20.500000 94.000000)" >32.0 mm</text>
<line x1="126.500000" y1="106.500000" x2="161.500000" y2="106.500000" stroke="black" stroke-width="0.1" />
<line x1="126.500000" y1="104.000000" x2="126.500000" y2="109.000000" stroke="black" stroke-width="0.1" />
<line x1="126.500000" y1="106.500000" x2="129.000000" y2="109.000000" stroke="black" stroke-width="0.1" />
<line x1="126.500000" y1="106.500000" x2="129.000000" y2="104.000000" stroke="black" stroke-width="0.1" />
<line x1="161.500000" y1="104.000000" x2="161.500000" y2="109.000000" stroke="black" stroke-width="0.1" />
<line x1="161.500000" y1="106.500000" x2="159.000000" y2="109.000000" stroke="black" stroke-width="0.1" />
<line x1="161.500000" y1="106.500000" x2="159.000000" y2="104.000000" stroke="black" stroke-width="0.1" />
<text x="149.000000" y="96.500000" font-family="Arial" font-size="4" text-anchor="middle" dominant-baseline="middle" transform="rotate(90 149.000000 96.500000)" >35.0 mm</text>
<line x1="123.000000" y1="65.000000" x2="165.000000" y2="65.000000" stroke="black" stroke-width="0.1" />
<line x1="123.000000" y1="62.500000" x2="123.000000" y2="67.500000" stroke="black" stroke-width="0.1" />
<line x1="123.000000" y1="65.000000" x2="125.500000" y2="67.500000" stroke="black" stroke-width="0.1" />
<line x1="123.000000" y1="65.000000" x2="125.500000" y2="62.500000" stroke="black" stroke-width="0.1" />
<line x1="165.000000" y1="62.500000" x2="165.000000" y2="67.500000" stroke="black" stroke-width="0.1" />
<line x1="165.000000" y1="65.000000" x2="162.500000" y2="67.500000" stroke="black" stroke-width="0.1" />
<line x1="165.000000" y1="65.000000" x2="162.500000" y2="62.500000" stroke="black" stroke-width="0.1" />
<text x="149.000000" y="55.000000" font-family="Arial" font-size="4" text-anchor="middle" dominant-baseline="middle" transform="rotate(90 149.000000 55.000000)" >42.0 mm</text>
<line x1="37.500000" y1="88.000000" x2="58.500000" y2="88.000000" stroke="black" stroke-width="0.1" />
<line x1="37.500000" y1="85.500000" x2="37.500000" y2="90.500000" stroke="black" stroke-width="0.1" />
<line x1="37.500000" y1="88.000000" x2="40.000000" y2="90.500000" stroke="black" stroke-width="0.1" />
<line x1="37.500000" y1="88.000000" x2="40.000000" y2="85.500000" stroke="black" stroke-width="0.1" />
<line x1="58.500000" y1="85.500000" x2="58.500000" y2="90.500000" stroke="black" stroke-width="0.1" />
<line x1="58.500000" y1="88.000000" x2="56.000000" y2="90.500000" stroke="black" stroke-width="0.1" />
<line x1="58.500000" y1="88.000000" x2="56.000000" y2="85.500000" stroke="black" stroke-width="0.1" />
<text x="53.000000" y="98.000000" font-family="Arial" font-size="4" text-anchor="middle" dominant-baseline="middle" transform="rotate(90 53.000000 98.000000)" >21.0 mm</text>
<line x1="33.500000" y1="120.000000" x2="62.500000" y2="120.000000" stroke="black" stroke-width="0.1" />
<line x1="33.500000" y1="117.500000" x2="33.500000" y2="122.500000" stroke="black" stroke-width="0.1" />
<line x1="33.500000" y1="120.000000" x2="36.000000" y2="122.500000" stroke="black" stroke-width="0.1" />
<line x1="33.500000" y1="120.000000" x2="36.000000" y2="117.500000" stroke="black" stroke-width="0.1" />
<line x1="62.500000" y1="117.500000" x2="62.500000" y2="122.500000" stroke="black" stroke-width="0.1" />
<line x1="62.500000" y1="120.000000" x2="60.000000" y2="122.500000" stroke="black" stroke-width="0.1" />
<line x1="62.500000" y1="120.000000" x2="60.000000" y2="117.500000" stroke="black" stroke-width="0.1" />
<text x="53.000000" y="130.000000" font-family="Arial" font-size="4" text-anchor="middle" dominant-baseline="middle" transform="rotate(90 53.000000 130.000000)" >29.0 mm</text>
<circle cx="126.500000" cy="116.500000" r="2.500000" fill="none" stroke="black" stroke-width="0.1" />
<circle cx="126.500000" cy="116.500000" r="0.250000" fill="none" stroke="black" stroke-width="0.1" />
<line x1="126.250000" y1="116.500000" x2="126.000000" y2="116.500000" stroke="black" stroke-width="0.1" />
<line x1="126.750000" y1="116.500000" x2="127.000000" y2="116.500000" stroke="black" stroke-width="0.1" />
<line x1="126.500000" y1="116.250000" x2="126.500000" y2="116.000000" stroke="black" stroke-width="0.1" />
<line x1="126.500000" y1="116.750000" x2="126.500000" y2="117.000000" stroke="black" stroke-width="0.1" />
<line x1="123.500000" y1="116.500000" x2="124.500000" y2="116.500000" stroke="black" stroke-width="0.1" />
<line x1="128.500000" y1="116.500000" x2="129.500000" y2="116.500000" stroke="black" stroke-width="0.1" />
<line x1="126.500000" y1="113.500000" x2="126.500000" y2="114.500000" stroke="black" stroke-width="0.1" />
<line x1="126.500000" y1="118.500000" x2="126.500000" y2="119.500000" stroke="black" stroke-width="0.1" />
<circle cx="161.500000" cy="116.500000" r="2.500000" fill="none" stroke="black" stroke-width="0.1" />
<circle cx="161.500000" cy="116.500000" r="0.250000" fill="none" stroke="black" stroke-width="0.1" />
<line x1="161.250000" y1="116.500000" x2="161.000000" y2="116.500000" stroke="black" stroke-width="0.1" />
<line x1="161.750000" y1="116.500000" x2="162.000000" y2="116.500000" stroke="black" stroke-width="0.1" />
<line x1="161.500000" y1="116.250000" x2="161.500000" y2="116.000000" stroke="black" stroke-width="0.1" />
<line x1="161.500000" y1="116.750000" x2="161.500000" y2="117.000000" stroke="black" stroke-width="0.1" />
<line x1="158.500000" y1="116.500000" x2="159.500000" y2="116.500000" stroke="black" stroke-width="0.1" />
<line x1="163.500000" y1="116.500000" x2="164.500000" y2="116.500000" stroke="black" stroke-width="0.1" />
<line x1="161.500000" y1="113.500000" x2="161.500000" y2="114.500000" stroke="black" stroke-width="0.1" />
<line x1="161.500000" y1="118.500000" x2="161.500000" y2="119.500000" stroke="black" stroke-width="0.1" />
<circle cx="123.000000" cy="75.000000" r="2.500000" fill="none" stroke="black" stroke-width="0.1" />
<circle cx="123.000000" cy="75.000000" r="0.250000" fill="none" stroke="black" stroke-width="0.1" />
<line x1="122.750000" y1="75.000000" x2="122.500000" y2="75.000000" stroke="black" stroke-width="0.1" />
<line x1="123.250000" y1="75.000000" x2="123.500000" y2="75.000000" stroke="black" stroke-width="0.1" />
<line x1="123.000000" y1="74.750000" x2="123.000000" y2="74.500000" stroke="black" stroke-width="0.1" />
<line x1="123.000000" y1="75.250000" x2="123.000000" y2="75.500000" stroke="black" stroke-width="0.1" />
<line x1="120.000000" y1="75.000000" x2="121.000000" y2="75.000000" stroke="black" stroke-width="0.1" />
<line x1="125.000000" y1="75.000000" x2="126.000000" y2="75.000000" stroke="black" stroke-width="0.1" />
<line x1="123.000000" y1="72.000000" x2="123.000000" y2="73.000000" stroke="black" stroke-width="0.1" />
<line x1="123.000000" y1="77.000000" x2="123.000000" y2="78.000000" stroke="black" stroke-width="0.1" />
<circle cx="165.000000" cy="75.000000" r="2.500000" fill="none" stroke="black" stroke-width="0.1" />
<circle cx="165.000000" cy="75.000000" r="0.250000" fill="none" stroke="black" stroke-width="0.1" />
<line x1="164.750000" y1="75.000000" x2="164.500000" y2="75.000000" stroke="black" stroke-width="0.1" />
<line x1="165.250000" y1="75.000000" x2="165.500000" y2="75.000000" stroke="black" stroke-width="0.1" />
<line x1="165.000000" y1="74.750000" x2="165.000000" y2="74.500000" stroke="black" stroke-width="0.1" />
<line x1="165.000000" y1="75.250000" x2="165.000000" y2="75.500000" stroke="black" stroke-width="0.1" />
<line x1="162.000000" y1="75.000000" x2="163.000000" y2="75.000000" stroke="black" stroke-width="0.1" />
<line x1="167.000000" y1="75.000000" x2="168.000000" y2="75.000000" stroke="black" stroke-width="0.1" />
<line x1="165.000000" y1="72.000000" x2="165.000000" y2="73.000000" stroke="black" stroke-width="0.1" />
<line x1="165.000000" y1="77.000000" x2="165.000000" y2="78.000000" stroke="black" stroke-width="0.1" />
<circle cx="37.500000" cy="78.000000" r="2.500000" fill="none" stroke="black" stroke-width="0.1" />
<circle cx="37.500000" cy="78.000000" r="0.250000" fill="none" stroke="black" stroke-width="0.1" />
<line x1="37.250000" y1="78.000000" x2="37.000000" y2="78.000000" stroke="black" stroke-width="0.1" />
<line x1="37.750000" y1="78.000000" x2="38.000000" y2="78.000000" stroke="black" stroke-width="0.1" />
<line x1="37.500000" y1="77.750000" x2="37.500000" y2="77.500000" stroke="black" stroke-width="0.1" />
<line x1="37.500000" y1="78.250000" x2="37.500000" y2="78.500000" stroke="black" stroke-width="0.1" />
<line x1="34.500000" y1="78.000000" x2="35.500000" y2="78.000000" stroke="black" stroke-width="0.1" />
<line x1="39.500000" y1="78.000000" x2="40.500000" y2="78.000000" stroke="black" stroke-width="0.1" />
<line x1="37.500000" y1="75.000000" x2="37.500000" y2="76.000000" stroke="black" stroke-width="0.1" />
<line x1="37.500000" y1="80.000000" x2="37.500000" y2="81.000000" stroke="black" stroke-width="0.1" />
<circle cx="58.500000" cy="78.000000" r="2.500000" fill="none" stroke="black" stroke-width="0.1" />
<circle cx="58.500000" cy="78.000000" r="0.250000" fill="none" stroke="black" stroke-width="0.1" />
<line x1="58.250000" y1="78.000000" x2="58.000000" y2="78.000000" stroke="black" stroke-width="0.1" />
<line x1="58.750000" y1="78.000000" x2="59.000000" y2="78.000000" stroke="black" stroke-width="0.1" />
<line x1="58.500000" y1="77.750000" x2="58.500000" y2="77.500000" stroke="black" stroke-width="0.1" />
<line x1="58.500000" y1="78.250000" x2="58.500000" y2="78.500000" stroke="black" stroke-width="0.1" />
<line x1="55.500000" y1="78.000000" x2="56.500000" y2="78.000000" stroke="black" stroke-width="0.1" />
<line x1="60.500000" y1="78.000000" x2="61.500000" y2="78.000000" stroke="black" stroke-width="0.1" />
<line x1="58.500000" y1="75.000000" x2="58.500000" y2="76.000000" stroke="black" stroke-width="0.1" />
<line x1="58.500000" y1="80.000000" x2="58.500000" y2="81.000000" stroke="black" stroke-width="0.1" />
<circle cx="33.500000" cy="110.000000" r="2.500000" fill="none" stroke="black" stroke-width="0.1" />
<circle cx="33.500000" cy="110.000000" r="0.250000" fill="none" stroke="black" stroke-width="0.1" />
<line x1="33.250000" y1="110.000000" x2="33.000000" y2="110.000000" stroke="black" stroke-width="0.1" />
<line x1="33.750000" y1="110.000000" x2="34.000000" y2="110.000000" stroke="black" stroke-width="0.1" />
<line x1="33.500000" y1="109.750000" x2="33.500000" y2="109.500000" stroke="black" stroke-width="0.1" />
<line x1="33.500000" y1="110.250000" x2="33.500000" y2="110.500000" stroke="black" stroke-width="0.1" />
<line x1="30.500000" y1="110.000000" x2="31.500000" y2="110.000000" stroke="black" stroke-width="0.1" />
<line x1="35.500000" y1="110.000000" x2="36.500000" y2="110.000000" stroke="black" stroke-width="0.1" />
<line x1="33.500000" y1="107.000000" x2="33.500000" y2="108.000000" stroke="black" stroke-width="0.1" />
<line x1="33.500000" y1="112.000000" x2="33.500000" y2="113.000000" stroke="black" stroke-width="0.1" />
<circle cx="62.500000" cy="110.000000" r="2.500000" fill="none" stroke="black" stroke-width="0.1" />
<circle cx="62.500000" cy="110.000000" r="0.250000" fill="none" stroke="black" stroke-width="0.1" />
<line x1="62.250000" y1="110.000000" x2="62.000000" y2="110.000000" stroke="black" stroke-width="0.1" />
<line x1="62.750000" y1="110.000000" x2="63.000000" y2="110.000000" stroke="black" stroke-width="0.1" />
<line x1="62.500000" y1="109.750000" x2="62.500000" y2="109.500000" stroke="black" stroke-width="0.1" />
<line x1="62.500000" y1="110.250000" x2="62.500000" y2="110.500000" stroke="black" stroke-width="0.1" />
<line x1="59.500000" y1="110.000000" x2="60.500000" y2="110.000000" stroke="black" stroke-width="0.1" />
<line x1="64.500000" y1="110.000000" x2="65.500000" y2="110.000000" stroke="black" stroke-width="0.1" />
<line x1="62.500000" y1="107.000000" x2="62.500000" y2="108.000000" stroke="black" stroke-width="0.1" />
<line x1="62.500000" y1="112.000000" x2="62.500000" y2="113.000000" stroke="black" stroke-width="0.1" />
<text x="73.000000" y="25.000000" font-family="Arial" font-size="4" text-anchor="middle" dominant-baseline="middle" transform="rotate(90 73.000000 25.000000)" >Mid Sole Mount Line</text>
<text x="169.000000" y="235.000000" font-family="Arial" font-size="4" text-anchor="middle" dominant-baseline="middle" transform="rotate(90 169.000000 235.000000)" >Mid Sole Mount Line</text>
<text x="43.000000" y="235.000000" font-family="Arial" font-size="4" text-anchor="middle" dominant-baseline="middle" transform="rotate(90 43.000000 235.000000)" >Ski Center Line</text>
<text x="139.000000" y="25.000000" font-family="Arial" font-size="4" text-anchor="middle" dominant-baseline="middle" transform="rotate(90 139.000000 25.000000)" >Ski Center Line</text>
</svg>