<?xml version="1.0"?>
<!DOCTYPE svg PUBLIC "-//W3C//DTD SVG 1.1//EN"
"http://www.w3.org/Graphics/SVG/1.1/DTD/svg11.dtd">
<svg xmlns="http://www.w3.org/2000/svg" version="1.2" width="192.000000mm" height="259.000000mm" viewBox="0 0 192.000000 259.000000" style="background-color:white" >
<line x1="48.000000" y1="0.000000" x2="48.000000" y2="259.000000" stroke="black" stroke-width="0.1" />
<line x1="144.000000" y1="0.000000" x2="144.000000" y2="259.000000" stroke="black" stroke-width="0.1" />
<line x1="104.000000" y1="255.000000" x2="184.000000" y2="255.000000" stroke="black" stroke-width="0.1" />
<line x1="8.000000" y1="5.000000" x2="88.000000" y2="5.000000" stroke="black" stroke-width="0.1" />
<line x1="96.000000" y1="0.000000" x2="96.000000" y2="259.000000" stroke="black" stroke-width="0.1" stroke-dasharray="2 2" />
<line x1="0.000000" y1="259.000000" x2="96.000000" y2="259.000000" stroke="black" stroke-width="0.1" stroke-dasharray="2 2" />
<line x1="96.000000" y1="0.000000" x2="192.000000" y2="0.000000" stroke="black" stroke-width="0.1" stroke-dasharray="2 2" />
<line x1="48.000000" y1="7.000000" x2="41.000000" y2="0.000000" stroke="black" stroke-width="0.1" stroke-dasharray="2 2" />
<line x1="48.000000" y1="7.000000" x2="55.000000" y2="0.000000" stroke="black" stroke-width="0.1" stroke-dasharray="2 2" />
<line x1="144.000000" y1="253.000000" x2="138.000000" y2="259.000000" stroke="black" stroke-width="0.1" stroke-dasharray="2 2" />
<line x1="144.000000" y1="253.000000" x2="150.000000" y2="259.000000" stroke="black" stroke-width="0.1" stroke-dasharray="2 2" />
<text x="83.000000" y="130.000000" font-family="Arial" font-size="8" text-anchor="middle" dominant-baseline="middle" transform="rotate(90 83.000000 130.000000)" >Marker Royal (Jester, Griffon, etc) 322, Heel</text>
<text x="179.000000" y="130.000000" font-family="Arial" font-size="8" text-anchor="middle" dominant-baseline="middle" transform="rotate(90 179.000000 130.000000)" >Marker Royal (Jester, Griffon, etc) 322, Toe</text>
<line x1="104.000000" y1="106.000000" x2="104.000000" y2="255.000000" stroke="black" stroke-width="0.1" />
<line x1="101.500000" y1="106.000000" x2="106.500000" y2="106.000000" stroke="black" stroke-width="0.1" />
<line x1="104.000000" y1="106.000000" x2="101.500000" y2="108.500000" stroke="black" stroke-width="0.1" />
<line x1="104.000000" y1="106.000000" x2="106.500000" y2="108.500000" stroke="black" stroke-width="0.1" />
<line x1="101.500000" y1="255.000000" x2="106.500000" y2="255.000000" stroke="black" stroke-width="0.1" />
<line x1="104.000000" y1="255.000000" x2="101.500000" y2="252.500000" stroke="black" stroke-width="0.1" />
<line x1="104.000000" y1="255.000000" x2="106.500000" y2="252.500000" stroke="black" stroke-width="0.1" />
<text x="106.500000" y="180.500000" font-family="Arial" font-size="4" text-anchor="middle" dominant-baseline="middle" transform="rotate(90 106.500000 180.500000)" >149.0 mm</text>
<line x1="114.000000" y1="75.000000" x2="114.000000" y2="106.000000" stroke="black" stroke-width="0.1" />
<line x1="111.500000" y1="75.000000" x2="116.500000" y2="75.000000" stroke="black" stroke-width="0.1" />
<line x1="114.000000" y1="75.000000" x2="111.500000" y2="77.500000" stroke="black" stroke-width="0.1" />
<line x1="114.000000" y1="75.000000" x2="116.500000" y2="77.500000" stroke="black" stroke-width="0.1" />
<line x1="111.500000" y1="106.000000" x2="116.500000" y2="106.000000" stroke="black" stroke-width="0.1" />
<line x1="114.000000" y1="106.000000" x2="111.500000" y2="103.500000" stroke="black" stroke-width="0.1" />
<line x1="114.000000" y1="106.000000" x2="116.500000" y2="103.500000" stroke="black" stroke-width="0.1" />
<text x="116.500000" y="90.500000" font-family="Arial" font-size="4" text-anchor="middle" dominant-baseline="middle" transform="rotate(90 116.500000 90.500000)" >31.0 mm</text>
<line x1="8.000000" y1="5.000000" x2="8.000000" y2="141.000000" stroke="black" stroke-width="0.1" />
<line x1="5.500000" y1="5.000000" x2="10.500000" y2="5.000000" stroke="black" stroke-width="0.1" />
<line x1="8.000000" y1="5.000000" x2="5.500000" y2="7.500000" stroke="black" stroke-width="0.1" />
<line x1="8.000000" y1="5.000000" x2="10.500000" y2="7.500000" stroke="black" stroke-width="0.1" />
<line x1="5.500000" y1="141.000000" x2="10.500000" y2="141.000000" stroke="black" stroke-width="0.1" />
<line x1="8.000000" y1="141.000000" x2="5.500000" y2="138.500000" stroke="black" stroke-width="0.1" />
<line x1="8.000000" y1="141.000000" x2="10.500000" y2="138.500000" stroke="black" stroke-width="0.1" />
<text x="10.500000" y="73.000000" font-family="Arial" font-size="4" text-anchor="middle" dominant-baseline="middle" transform="rotate(90 10.500000 73.000000)" >136.0 mm</text>
<line x1="18.000000" y1="141.000000" x2="18.000000" y2="221.000000" stroke="black" stroke-width="0.1" />
<line x1="15.500000" y1="141.000000" x2="20.500000" y2="141.000000" stroke="black" stroke-width="0.1" />
<line x1="18.000000" y1="141.000000" x2="15.500000" y2="143.500000" stroke="black" stroke-width="0.1" />
<line x1="18.000000" y1="141.000000" x2="20.500000" y2="143.500000" stroke="black" stroke-width="0.1" />
<line x1="15.500000" y1="221.000000" x2="20.500000" y2="221.000000" stroke="black" stroke-width="0.1" />
<line x1="18.000000" y1="221.000000" x2="15.500000" y2="218.500000" stroke="black" stroke-width="0.1" />
<line x1="18.000000" y1="221.000000" x2="20.500000" y2="218.500000" stroke="black" stroke-width="0.1" />
<text x="20.500000" y="181.000000" font-family="Arial" font-size="4" text-anchor="middle" dominant-baseline="middle" transform="rotate(90 20.500000 181.000000)" >80.0 mm</text>
<line x1="126.000000" y1="65.000000" x2="162.000000" y2="65.000000" stroke="black" stroke-width="0.1" />
<line x1="126.000000" y1="62.500000" x2="126.000000" y2="67.500000" stroke="black" stroke-width="0.1" />
<line x1="126.000000" y1="65.000000" x2="128.500000" y2="67.500000" stroke="black" stroke-width="0.1" />
<line x1="126.000000" y1="65.000000" x2="128.500000" y2="62.500000" stroke="black" stroke-width="0.1" />
<line x1="162.000000" y1="62.500000" x2="162.000000" y2="67.500000" stroke="black" stroke-width="0.1" />
<line x1="162.000000" y1="65.000000" x2="159.500000" y2="67.500000" stroke="black" stroke-width="0.1" />
<line x1="162.000000" y1="65.000000" x2="159.500000" y2="62.500000" stroke="black" stroke-width="0.1" />
<text x="149.000000" y="55.000000" font-family="Arial" font-size="4" text-anchor="middle" dominant-baseline="middle" transform="rotate(90 149.000000 55.000000)" >36.0 mm</text>
<line x1="126.000000" y1="96.000000" x2="162.000000" y2="96.000000" stroke="black" stroke-width="0.1" />
<line x1="126.000000" y1="93.500000" x2="126.000000" y2="98.500000" stroke="black" stroke-width="0.1" />
<line x1="126.000000" y1="96.000000" x2="128.500000" y2="98.500000" stroke="black" stroke-width="0.1" />
<line x1="126.000000" y1="96.000000" x2="128.500000" y2="93.500000" stroke="black" stroke-width="0.1" />
<line x1="162.000000" y1="93.500000" x2="162.000000" y2="98.500000" stroke="black" stroke-width="0.1" />
<line x1="162.000000" y1="96.000000" x2="159.500000" y2="98.500000" stroke="black" stroke-width="0.1" />
<line x1="162.000000" y1="96.000000" x2="159.500000" y2="93.500000" stroke="black" stroke-width="0.1" />
<text x="149.000000" y="86.000000" font-family="Arial" font-size="4" text-anchor="middle" dominant-baseline="middle" transform="rotate(90 149.000000 86.000000)" >36.0 mm</text>
<line x1="32.000000" y1="151.000000" x2="64.000000" y2="151.000000" stroke="black" stroke-width="0.1" />
<line x1="32.000000" y1="148.500000" x2="32.000000" y2="153.500000" stroke="black" stroke-width="0.1" />
<line x1="32.000000" y1="151.000000" x2="34.500000" y2="153.500000" stroke="black" stroke-width="0.1" />
<line x1="32.000000" y1="151.000000" x2="34.500000" y2="148.500000" stroke="black" stroke-width="0.1" />
<line x1="64.000000" y1="148.500000" x2="64.000000" y2="153.500000" stroke="black" stroke-width="0.1" />
<line x1="64.000000" y1="151.000000" x2="61.500000" y2="153.500000" stroke="black" stroke-width="0.1" />
<line x1="64.000000" y1="151.000000" x2="61.500000" y2="148.500000" stroke="black" stroke-width="0.1" />
<text x="53.000000" y="161.000000" font-family="Arial" font-size="4" text-anchor="middle" dominant-baseline="middle" transform="rotate(90 53.000000 161.000000)" >32.0 mm</text>
<line x1="32.000000" y1="231.000000" x2="64.000000" y2="231.000000" stroke="black" stroke-width="0.1" />
<line x1="32.000000" y1="228.500000" x2="32.000000" y2="233.500000" stroke="black" stroke-width="0.1" />
<line x1="32.000000" y1="231.000000" x2="34.500000" y2="233.500000" stroke="black" stroke-width="0.1" />
<line x1="32.000000" y1="231.000000" x2="34.500000" y2="228.500000" stroke="black" stroke-width="0.1" />
<line x1="64.000000" y1="228.500000" x2="64.000000" y2="233.500000" stroke="black" stroke-width="0.1" />
<line x1="64.000000" y1="231.000000" x2="61.500000" y2="233.500000" stroke="black" stroke-width="0.1" />
<line x1="64.000000" y1="231.000000" x2="61.500000" y2="228.500000" stroke="black" stroke-width="0.1" />
<text x="53.000000" y="241.000000" font-family="Arial" font-size="4" text-anchor="middle" dominant-baseline="middle" transform="rotate(90 53.000000 241.000000)" >32.0 mm</text>
<circle cx="126.000000" cy="75.000000" r="2.500000" fill="none" stroke="black" stroke-width="0.1" />
<circle cx="126.000000" cy="75.000000" r="0.250000" fill="none" stroke="black" stroke-width="0.1" />
<line x1="125.750000" y1="75.000000" x2="125.500000" y2="75.000000" stroke="black" stroke-width="0.1" />
<line x1="126.250000" y1="75.000000" x2="126.500000" y2="75.000000" stroke="black" stroke-width="0.1" />
<line x1="126.000000" y1="74.750000" x2="126.000000" y2="74.500000" stroke="black" stroke-width="0.1" />
<line x1="126.000000" y1="75.250000" x2="126.000000" y2="75.500000" stroke="black" stroke-width="0.1" />
<line x1="123.000000" y1="75.000000" x2="124.000000" y2="75.000000" stroke="black" stroke-width="0.1" />
<line x1="128.000000" y1="75.000000" x2="129.000000" y2="75.000000" stroke="black" stroke-width="0.1" />
<line x1="126.000000" y1="72.000000" x2="126.000000" y2="73.000000" stroke="black" stroke-width="0.1" />
<line x1="126.000000" y1="77.000000" x2="126.000000" y2="78.000000" stroke="black" stroke-width="0.1" />
<circle cx="162.000000" cy="75.000000" r="2.500000" fill="none" stroke="black" stroke-width="0.1" />
<circle cx="162.000000" cy="75.000000" r="0.250000" fill="none" stroke="black" stroke-width="0.1" />
<line x1="161.750000" y1="75.000000" x2="161.500000" y2="75.000000" stroke="black" stroke-width="0.1" />
<line x1="162.250000" y1="75.000000" x2="162.500000" y2="75.000000" stroke="black" stroke-width="0.1" />
<line x1="162.000000" y1="74.750000" x2="162.000000" y2="74.500000" stroke="black" stroke-width="0.1" />
<line x1="162.000000" y1="75.250000" x2="162.000000" y2="75.500000" stroke="black" stroke-width="0.1" />
<line x1="159.000000" y1="75.000000" x2="160.000000" y2="75.000000" stroke="black" stroke-width="0.1" />
<line x1="164.000000" y1="75.000000" x2="165.000000" y2="75.000000" stroke="black" stroke-width="0.1" />
<line x1="162.000000" y1="72.000000" x2="162.000000" y2="73.000000" stroke="black" stroke-width="0.1" />
<line x1="162.000000" y1="77.000000" x2="162.000000" y2="78.000000" stroke="black" stroke-width="0.1" />
<circle cx="126.000000" cy="106.000000" r="2.500000" fill="none" stroke="black" stroke-width="0.1" />
<circle cx="126.000000" cy="106.000000" r="0.250000" fill="none" stroke="black" stroke-width="0.1" />
<line x1="125.750000" y1="106.000000" x2="125.500000" y2="106.000000" stroke="black" stroke-width="0.1" />
<line x1="126.250000" y1="106.000000" x2="126.500000" y2="106.000000" stroke="black" stroke-width="0.1" />
<line x1="126.000000" y1="105.750000" x2="126.000000" y2="105.500000" stroke="black" stroke-width="0.1" />
<line x1="126.000000" y1="106.250000" x2="126.000000" y2="106.500000" stroke="black" stroke-width="0.1" />
<line x1="123.000000" y1="106.000000" x2="124.000000" y2="106.000000" stroke="black" stroke-width="0.1" />
<line x1="128.000000" y1="106.000000" x2="129.000000" y2="106.000000" stroke="black" stroke-width="0.1" />
<line x1="126.000000" y1="103.000000" x2="126.000000" y2="104.000000" stroke="black" stroke-width="0.1" />
<line x1="126.000000" y1="108.000000" x2="126.000000" y2="109.000000" stroke="black" stroke-width="0.1" />
<circle cx="162.000000" cy="106.000000" r="2.500000" fill="none" stroke="black" stroke-width="0.1" />
<circle cx="162.000000" cy="106.000000" r="0.250000" fill="none" stroke="black" stroke-width="0.1" />
<line x1="161.750000" y1="106.000000" x2="161.500000" y2="106.000000" stroke="black" stroke-width="0.1" />
<line x1="162.250000" y1="106.000000" x2="162.500000" y2="106.000000" stroke="black" stroke-width="0.1" />
<line x1="162.000000" y1="105.750000" x2="162.000000" y2="105.500000" stroke="black" stroke-width="0.1" />
<line x1="162.000000" y1="106.250000" x2="162.000000" y2="106.500000" stroke="black" stroke-width="0.1" />
<line x1="159.000000" y1="106.000000" x2="160.000000" y2="106.000000" stroke="black" stroke-width="0.1" />
<line x1="164.000000" y1="106.000000" x2="165.000000" y2="106.000000" stroke="black" stroke-width="0.1" />
<line x1="162.000000" y1="103.000000" x2="162.000000" y2="104.000000" stroke="black" stroke-width="0.1" />
<line x1="162.000000" y1="108.000000" x2="162.000000" y2="109.000000" stroke="black" stroke-width="0.1" />
<circle cx="32.000000" cy="141.000000" r="2.500000" fill="none" stroke="black" stroke-width="0.1" />
<circle cx="32.000000" cy="141.000000" r="0.250000" fill="none" stroke="black" stroke-width="0.1" />
<line x1="31.750000" y1="141.000000" x2="31.500000" y2="141.000000" stroke="black" stroke-width="0.1" />
<line x1="32.250000" y1="141.000000" x2="32.500000" y2="141.000000" stroke="black" stroke-width="0.1" />
<line x1="32.000000" y1="140.750000" x2="32.000000" y2="140.500000" stroke="black" stroke-width="0.1" />
<line x1="32.000000" y1="141.250000" x2="32.000000" y2="141.500000" stroke="black" stroke-width="0.1" />
<line x1="29.000000" y1="141.000000" x2="30.000000" y2="141.000000" stroke="black" stroke-width="0.1" />
<line x1="34.000000" y1="141.000000" x2="35.000000" y2="141.000000" stroke="black" stroke-width="0.1" />
<line x1="32.000000" y1="138.000000" x2="32.000000" y2="139.000000" stroke="black" stroke-width="0.1" />
<line x1="32.000000" y1="143.000000" x2="32.000000" y2="144.000000" stroke="black" stroke-width="0.1" />
<circle cx="64.000000" cy="141.000000" r="2.500000" fill="none" stroke="black" stroke-width="0.1" />
<circle cx="64.000000" cy="141.000000" r="0.250000" fill="none" stroke="black" stroke-width="0.1" />
<line x1="63.750000" y1="141.000000" x2="63.500000" y2="141.000000" stroke="black" stroke-width="0.1" />
<line x1="64.250000" y1="141.000000" x2="64.500000" y2="141.000000" stroke="black" stroke-width="0.1" />
<line x1="64.000000" y1="140.750000" x2="64.000000" y2="140.500000" stroke="black" stroke-width="0.1" />
<line x1="64.000000" y1="141.250000" x2="64.000000" y2="141.500000" stroke="black" stroke-width="0.1" />
<line x1="61.000000" y1="141.000000" x2="62.000000" y2="141.000000" stroke="black" stroke-width="0.1" />
<line x1="66.000000" y1="141.000000" x2="67.000000" y2="141.000000" stroke="black" stroke-width="0.1" />
<line x1="64.000000" y1="138.000000" x2="64.000000" y2="139.000000" stroke="black" stroke-width="0.1" />
<line x1="64.000000" y1="143.000000" x2="64.000000" y2="144.000000" stroke="black" stroke-width="0.1" />
<circle cx="32.000000" cy="221.000000" r="2.500000" fill="none" stroke="black" stroke-width="0.1" />
<circle cx="32.000000" cy="221.000000" r="0.250000" fill="none" stroke="black" stroke-width="0.1" />
<line x1="31.750000" y1="221.000000" x2="31.500000" y2="221.000000" stroke="black" stroke-width="0.1" />
<line x1="32.250000" y1="221.000000" x2="32.500000" y2="221.000000" stroke="black" stroke-width="0.1" />
<line x1="32.000000" y1="220.750000" x2="32.000000" y2="220.500000" stroke="black" stroke-width="0.1" />
<line x1="32.000000" y1="221.250000" x2="32.000000" y2="221.500000" stroke="black" stroke-width="0.1" />
<line x1="29.000000" y1="221.000000" x2="30.000000" y2="221.000000" stroke="black" stroke-width="0.1" />
<line x1="34.000000" y1="221.000000" x2="35.000000" y2="221.000000" stroke="black" stroke-width="0.1" />
<line x1="32.000000" y1="218.000000" x2="32.000000" y2="219.000000" stroke="black" stroke-width="0.1" />
<line x1="32.000000" y1="223.000000" x2="32.000000" y2="224.000000" stroke="black" stroke-width="0.1" />
<circle cx="64.000000" cy="221.000000" r="2.500000" fill="none" stroke="black" stroke-width="0.1" />
<circle cx="64.000000" cy="221.000000" r="0.250000" fill="none" stroke="black" stroke-width="0.1" />
<line x1="63.750000" y1="221.000000" x2="63.500000" y2="221.000000" stroke="black" stroke-width="0.1" />
<line x1="64.250000" y1="221.000000" x2="64.500000" y2="221.000000" stroke="black" stroke-width="0.1" />
<line x1="64.000000" y1="220.750000" x2="64.000000" y2="220.500000" stroke="black" stroke-width="0.1" />
<line x1="64.000000" y1="221.250000" x2="64.000000" y2="221.500000" stroke="black" stroke-width="0.1" />
<line x1="61.000000" y1="221.000000" x2="62.000000" y2="221.000000" stroke="black" stroke-width="0.1" />
<line x1="66.000000" y1="221.000000" x2="67.000000" y2="221.000000" stroke="black" stroke-width="0.1" />
<line x1="64.000000" y1="218.000000" x2="64.000000" y2="219.000000" stroke="black" stroke-width="0.1" />
<line x1="64.000000" y1="223.000000" x2="64.000000" y2="224.000000" stroke="black" stroke-width="0.1" />
<text x="73.000000" y="25.000000" font-family="Arial" font-size="4" text-anchor="middle" dominant-baseline="middle" transform="rotate(90 73.000000 25.000000)" >Mid Sole Mount Line</text>
<text x="169.000000" y="235.000000" font-family="Arial" font-size="4" text-anchor="middle" dominant-baseline="middle" transform="rotate(90 169.000000 235.000000)" >Mid Sole Mount Line</text>
<text x="43.000000" y="235.000000" font-family="Arial" font-size="4" text-anchor="middle" dominant-baseline="middle" transform="rotate(90 43.000000 235.000000)" >Ski Center Line</text>
<text x="139.000000" y="25.000000" font-family="Arial" font-size="4" text-anchor="middle" dominant-baseline="middle" transform="rotate(90 139.000000 25.000000)" >Ski Center Line</text>
</svg>