<?xml version="1.0"?>
<!DOCTYPE svg PUBLIC "-//W3C//DTD SVG 1.1//EN"
"http://www.w3.org/Graphics/SVG/1.1/DTD/svg11.dtd">
<svg xmlns="http://www.w3.org/2000/svg" version="1.2" width="192.000000mm" height="259.000000mm" viewBox="0 0 192.000000 259.000000" style="background-color:white" >
<line x1="48.000000" y1="0.000000" x2="48.000000" y2="259.000000" stroke="black" stroke-width="0.1" />
<line x1="144.000000" y1="0.000000" x2="144.000000" y2="259.000000" stroke="black" stroke-width="0.1" />
<line x1="104.000000" y1="255.000000" x2="184.000000" y2="255.000000" stroke="black" stroke-width="0.1" />
<line x1="8.000000" y1="5.000000" x2="88.000000" y2="5.000000" stroke="black" stroke-width="0.1" />
<line x1="96.000000" y1="0.000000" x2="96.000000" y2="259.000000" stroke="black" stroke-width="0.1" stroke-dasharray="2 2" />
<line x1="0.000000" y1="259.000000" x2="96.000000" y2="259.000000" stroke="black" stroke-width="0.1" stroke-dasharray="2 2" />
<line x1="96.000000" y1="0.000000" x2="192.000000" y2="0.000000" stroke="black" stroke-width="0.1" stroke-dasharray="2 2" />
<line x1="48.000000" y1="7.000000" x2="41.000000" y2="0.000000" stroke="black" stroke-width="0.1" stroke-dasharray="2 2" />
<line x1="48.000000" y1="7.000000" x2="55.000000" y2="0.000000" stroke="black" stroke-width="0.1" stroke-dasharray="2 2" />
<line x1="144.000000" y1="253.000000" x2="138.000000" y2="259.000000" stroke="black" stroke-width="0.1" stroke-dasharray="2 2" />
<line x1="144.000000" y1="253.000000" x2="150.000000" y2="259.000000" stroke="black" stroke-width="0.1" stroke-dasharray="2 2" />
<text x="83.000000" y="130.000000" font-family="Arial" font-size="8" text-anchor="middle" dominant-baseline="middle" transform="rotate(90 83.000000 130.000000)" >Marker Royal (Jester, Griffon, etc) 340, Heel</text>
<text x="179.000000" y="130.000000" font-family="Arial" font-size="8" text-anchor="middle" dominant-baseline="middle" transform="rotate(90 179.000000 130.000000)" >Marker Royal (Jester, Griffon, etc) 340, Toe</text>
<line x1="104.000000" y1="97.000000" x2="104.000000" y2="255.000000" stroke="black" stroke-width="0.1" />
<line x1="101.500000" y1="97.000000" x2="106.500000" y2="97.000000" stroke="black" stroke-width="0.1" />
<line x1="104.000000" y1="97.000000" x2="101.500000" y2="99.500000" stroke="black" stroke-width="0.1" />
<line x1="104.000000" y1="97.000000" x2="106.500000" y2="99.500000" stroke="black" stroke-width="0.1" />
<line x1="101.500000" y1="255.000000" x2="106.500000" y2="255.000000" stroke="black" stroke-width="0.1" />
<line x1="104.000000" y1="255.000000" x2="101.500000" y2="252.500000" stroke="black" stroke-width="0.1" />
<line x1="104.000000" y1="255.000000" x2="106.500000" y2="252.500000" stroke="black" stroke-width="0.1" />
<text x="106.500000" y="176.000000" font-family="Arial" font-size="4" text-anchor="middle" dominant-baseline="middle" transform="rotate(90 106.500000 176.000000)" >158.0 mm</text>
<line x1="114.000000" y1="66.000000" x2="114.000000" y2="97.000000" stroke="black" stroke-width="0.1" />
<line x1="111.500000" y1="66.000000" x2="116.500000" y2="66.000000" stroke="black" stroke-width="0.1" />
<line x1="114.000000" y1="66.000000" x2="111.500000" y2="68.500000" stroke="black" stroke-width="0.1" />
<line x1="114.000000" y1="66.000000" x2="116.500000" y2="68.500000" stroke="black" stroke-width="0.1" />
<line x1="111.500000" y1="97.000000" x2="116.500000" y2="97.000000" stroke="black" stroke-width="0.1" />
<line x1="114.000000" y1="97.000000" x2="111.500000" y2="94.500000" stroke="black" stroke-width="0.1" />
<line x1="114.000000" y1="97.000000" x2="116.500000" y2="94.500000" stroke="black" stroke-width="0.1" />
<text x="116.500000" y="81.500000" font-family="Arial" font-size="4" text-anchor="middle" dominant-baseline="middle" transform="rotate(90 116.500000 81.500000)" >31.0 mm</text>
<line x1="8.000000" y1="5.000000" x2="8.000000" y2="150.000000" stroke="black" stroke-width="0.1" />
<line x1="5.500000" y1="5.000000" x2="10.500000" y2="5.000000" stroke="black" stroke-width="0.1" />
<line x1="8.000000" y1="5.000000" x2="5.500000" y2="7.500000" stroke="black" stroke-width="0.1" />
<line x1="8.000000" y1="5.000000" x2="10.500000" y2="7.500000" stroke="black" stroke-width="0.1" />
<line x1="5.500000" y1="150.000000" x2="10.500000" y2="150.000000" stroke="black" stroke-width="0.1" />
<line x1="8.000000" y1="150.000000" x2="5.500000" y2="147.500000" stroke="black" stroke-width="0.1" />
<line x1="8.000000" y1="150.000000" x2="10.500000" y2="147.500000" stroke="black" stroke-width="0.1" />
<text x="10.500000" y="77.500000" font-family="Arial" font-size="4" text-anchor="middle" dominant-baseline="middle" transform="rotate(90 10.500000 77.500000)" >145.0 mm</text>
<line x1="18.000000" y1="150.000000" x2="18.000000" y2="230.000000" stroke="black" stroke-width="0.1" />
<line x1="15.500000" y1="150.000000" x2="20.500000" y2="150.000000" stroke="black" stroke-width="0.1" />
<line x1="18.000000" y1="150.000000" x2="15.500000" y2="152.500000" stroke="black" stroke-width="0.1" />
<line x1="18.000000" y1="150.000000" x2="20.500000" y2="152.500000" stroke="black" stroke-width="0.1" />
<line x1="15.500000" y1="230.000000" x2="20.500000" y2="230.000000" stroke="black" stroke-width="0.1" />
<line x1="18.000000" y1="230.000000" x2="15.500000" y2="227.500000" stroke="black" stroke-width="0.1" />
<line x1="18.000000" y1="230.000000" x2="20.500000" y2="227.500000" stroke="black" stroke-width="0.1" />
<text x="20.500000" y="190.000000" font-family="Arial" font-size="4" text-anchor="middle" dominant-baseline="middle" transform="rotate(90 20.500000 190.000000)" >80.0 mm</text>
<line x1="126.000000" y1="56.000000" x2="162.000000" y2="56.000000" stroke="black" stroke-width="0.1" />
<line x1="126.000000" y1="53.500000" x2="126.000000" y2="58.500000" stroke="black" stroke-width="0.1" />
<line x1="126.000000" y1="56.000000" x2="128.500000" y2="58.500000" stroke="black" stroke-width="0.1" />
<line x1="126.000000" y1="56.000000" x2="128.500000" y2="53.500000" stroke="black" stroke-width="0.1" />
<line x1="162.000000" y1="53.500000" x2="162.000000" y2="58.500000" stroke="black" stroke-width="0.1" />
<line x1="162.000000" y1="56.000000" x2="159.500000" y2="58.500000" stroke="black" stroke-width="0.1" />
<line x1="162.000000" y1="56.000000" x2="159.500000" y2="53.500000" stroke="black" stroke-width="0.1" />
<text x="149.000000" y="46.000000" font-family="Arial" font-size="4" text-anchor="middle" dominant-baseline="middle" transform="rotate(90 149.000000 46.000000)" >36.0 mm</text>
<line x1="126.000000" y1="87.000000" x2="162.000000" y2="87.000000" stroke="black" stroke-width="0.1" />
<line x1="126.000000" y1="84.500000" x2="126.000000" y2="89.500000" stroke="black" stroke-width="0.1" />
<line x1="126.000000" y1="87.000000" x2="128.500000" y2="89.500000" stroke="black" stroke-width="0.1" />
<line x1="126.000000" y1="87.000000" x2="128.500000" y2="84.500000" stroke="black" stroke-width="0.1" />
<line x1="162.000000" y1="84.500000" x2="162.000000" y2="89.500000" stroke="black" stroke-width="0.1" />
<line x1="162.000000" y1="87.000000" x2="159.500000" y2="89.500000" stroke="black" stroke-width="0.1" />
<line x1="162.000000" y1="87.000000" x2="159.500000" y2="84.500000" stroke="black" stroke-width="0.1" />
<text x="149.000000" y="77.000000" font-family="Arial" font-size="4" text-anchor="middle" dominant-baseline="middle" transform="rotate(90 149.000000 77.000000)" >36.0 mm</text>
<line x1="32.000000" y1="160.000000" x2="64.000000" y2="160.000000" stroke="black" stroke-width="0.1" />
<line x1="32.000000" y1="157.500000" x2="32.000000" y2="162.500000" stroke="black" stroke-width="0.1" />
<line x1="32.000000" y1="160.000000" x2="34.500000" y2="162.500000" stroke="black" stroke-width="0.1" />
<line x1="32.000000" y1="160.000000" x2="34.500000" y2="157.500000" stroke="black" stroke-width="0.1" />
<line x1="64.000000" y1="157.500000" x2="64.000000" y2="162.500000" stroke="black" stroke-width="0.1" />
<line x1="64.000000" y1="160.000000" x2="61.500000" y2="162.500000" stroke="black" stroke-width="0.1" />
<line x1="64.000000" y1="160.000000" x2="61.500000" y2="157.500000" stroke="black" stroke-width="0.1" />
<text x="53.000000" y="170.000000" font-family="Arial" font-size="4" text-anchor="middle" dominant-baseline="middle" transform="rotate(90 53.000000 170.000000)" >32.0 mm</text>
<line x1="32.000000" y1="240.000000" x2="64.000000" y2="240.000000" stroke="black" stroke-width="0.1" />
<line x1="32.000000" y1="237.500000" x2="32.000000" y2="242.500000" stroke="black" stroke-width="0.1" />
<line x1="32.000000" y1="240.000000" x2="34.500000" y2="242.500000" stroke="black" stroke-width="0.1" />
<line x1="32.000000" y1="240.000000" x2="34.500000" y2="237.500000" stroke="black" stroke-width="0.1" />
<line x1="64.000000" y1="237.500000" x2="64.000000" y2="242.500000" stroke="black" stroke-width="0.1" />
<line x1="64.000000" y1="240.000000" x2="61.500000" y2="242.500000" stroke="black" stroke-width="0.1" />
<line x1="64.000000" y1="240.000000" x2="61.500000" y2="237.500000" stroke="black" stroke-width="0.1" />
<text x="53.000000" y="250.000000" font-family="Arial" font-size="4" text-anchor="middle" dominant-baseline="middle" transform="rotate(90 53.000000 250.000000)" >32.0 mm</text>
<circle cx="126.000000" cy="66.000000" r="2.500000" fill="none" stroke="black" stroke-width="0.1" />
<circle cx="126.000000" cy="66.000000" r="0.250000" fill="none" stroke="black" stroke-width="0.1" />
<line x1="125.750000" y1="66.000000" x2="125.500000" y2="66.000000" stroke="black" stroke-width="0.1" />
<line x1="126.250000" y1="66.000000" x2="126.500000" y2="66.000000" stroke="black" stroke-width="0.1" />
<line x1="126.000000" y1="65.750000" x2="126.000000" y2="65.500000" stroke="black" stroke-width="0.1" />
<line x1="126.000000" y1="66.250000" x2="126.000000" y2="66.500000" stroke="black" stroke-width="0.1" />
<line x1="123.000000" y1="66.000000" x2="124.000000" y2="66.000000" stroke="black" stroke-width="0.1" />
<line x1="128.000000" y1="66.000000" x2="129.000000" y2="66.000000" stroke="black" stroke-width="0.1" />
<line x1="126.000000" y1="63.000000" x2="126.000000" y2="64.000000" stroke="black" stroke-width="0.1" />
<line x1="126.000000" y1="68.000000" x2="126.000000" y2="69.000000" stroke="black" stroke-width="0.1" />
<circle cx="162.000000" cy="66.000000" r="2.500000" fill="none" stroke="black" stroke-width="0.1" />
<circle cx="162.000000" cy="66.000000" r="0.250000" fill="none" stroke="black" stroke-width="0.1" />
<line x1="161.750000" y1="66.000000" x2="161.500000" y2="66.000000" stroke="black" stroke-width="0.1" />
<line x1="162.250000" y1="66.000000" x2="162.500000" y2="66.000000" stroke="black" stroke-width="0.1" />
<line x1="162.000000" y1="65.750000" x2="162.000000" y2="65.500000" stroke="black" stroke-width="0.1" />
<line x1="162.000000" y1="66.250000" x2="162.000000" y2="66.500000" stroke="black" stroke-width="0.1" />
<line x1="159.000000" y1="66.000000" x2="160.000000" y2="66.000000" stroke="black" stroke-width="0.1" />
<line x1="164.000000" y1="66.000000" x2="165.000000" y2="66.000000" stroke="black" stroke-width="0.1" />
<line x1="162.000000" y1="63.000000" x2="162.000000" y2="64.000000" stroke="black" stroke-width="0.1" />
<line x1="162.000000" y1="68.000000" x2="162.000000" y2="69.000000" stroke="black" stroke-width="0.1" />
<circle cx="126.000000" cy="97.000000" r="2.500000" fill="none" stroke="black" stroke-width="0.1" />
<circle cx="126.000000" cy="97.000000" r="0.250000" fill="none" stroke="black" stroke-width="0.1" />
<line x1="125.750000" y1="97.000000" x2="125.500000" y2="97.000000" stroke="black" stroke-width="0.1" />
<line x1="126.250000" y1="97.000000" x2="126.500000" y2="97.000000" stroke="black" stroke-width="0.1" />
<line x1="126.000000" y1="96.750000" x2="126.000000" y2="96.500000" stroke="black" stroke-width="0.1" />
<line x1="126.000000" y1="97.250000" x2="126.000000" y2="97.500000" stroke="black" stroke-width="0.1" />
<line x1="123.000000" y1="97.000000" x2="124.000000" y2="97.000000" stroke="black" stroke-width="0.1" />
<line x1="128.000000" y1="97.000000" x2="129.000000" y2="97.000000" stroke="black" stroke-width="0.1" />
<line x1="126.000000" y1="94.000000" x2="126.000000" y2="95.000000" stroke="black" stroke-width="0.1" />
<line x1="126.000000" y1="99.000000" x2="126.000000" y2="100.000000" stroke="black" stroke-width="0.1" />
<circle cx="162.000000" cy="97.000000" r="2.500000" fill="none" stroke="black" stroke-width="0.1" />
<circle cx="162.000000" cy="97.000000" r="0.250000" fill="none" stroke="black" stroke-width="0.1" />
<line x1="161.750000" y1="97.000000" x2="161.500000" y2="97.000000" stroke="black" stroke-width="0.1" />
<line x1="162.250000" y1="97.000000" x2="162.500000" y2="97.000000" stroke="black" stroke-width="0.1" />
<line x1="162.000000" y1="96.750000" x2="162.000000" y2="96.500000" stroke="black" stroke-width="0.1" />
<line x1="162.000000" y1="97.250000" x2="162.000000" y2="97.500000" stroke="black" stroke-width="0.1" />
<line x1="159.000000" y1="97.000000" x2="160.000000" y2="97.000000" stroke="black" stroke-width="0.1" />
<line x1="164.000000" y1="97.000000" x2="165.000000" y2="97.000000" stroke="black" stroke-width="0.1" />
<line x1="162.000000" y1="94.000000" x2="162.000000" y2="95.000000" stroke="black" stroke-width="0.1" />
<line x1="162.000000" y1="99.000000" x2="162.000000" y2="100.000000" stroke="black" stroke-width="0.1" />
<circle cx="32.000000" cy="150.000000" r="2.500000" fill="none" stroke="black" stroke-width="0.1" />
<circle cx="32.000000" cy="150.000000" r="0.250000" fill="none" stroke="black" stroke-width="0.1" />
<line x1="31.750000" y1="150.000000" x2="31.500000" y2="150.000000" stroke="black" stroke-width="0.1" />
<line x1="32.250000" y1="150.000000" x2="32.500000" y2="150.000000" stroke="black" stroke-width="0.1" />
<line x1="32.000000" y1="149.750000" x2="32.000000" y2="149.500000" stroke="black" stroke-width="0.1" />
<line x1="32.000000" y1="150.250000" x2="32.000000" y2="150.500000" stroke="black" stroke-width="0.1" />
<line x1="29.000000" y1="150.000000" x2="30.000000" y2="150.000000" stroke="black" stroke-width="0.1" />
<line x1="34.000000" y1="150.000000" x2="35.000000" y2="150.000000" stroke="black" stroke-width="0.1" />
<line x1="32.000000" y1="147.000000" x2="32.000000" y2="148.000000" stroke="black" stroke-width="0.1" />
<line x1="32.000000" y1="152.000000" x2="32.000000" y2="153.000000" stroke="black" stroke-width="0.1" />
<circle cx="64.000000" cy="150.000000" r="2.500000" fill="none" stroke="black" stroke-width="0.1" />
<circle cx="64.000000" cy="150.000000" r="0.250000" fill="none" stroke="black" stroke-width="0.1" />
<line x1="63.750000" y1="150.000000" x2="63.500000" y2="150.000000" stroke="black" stroke-width="0.1" />
<line x1="64.250000" y1="150.000000" x2="64.500000" y2="150.000000" stroke="black" stroke-width="0.1" />
<line x1="64.000000" y1="149.750000" x2="64.000000" y2="149.500000" stroke="black" stroke-width="0.1" />
<line x1="64.000000" y1="150.250000" x2="64.000000" y2="150.500000" stroke="black" stroke-width="0.1" />
<line x1="61.000000" y1="150.000000" x2="62.000000" y2="150.000000" stroke="black" stroke-width="0.1" />
<line x1="66.000000" y1="150.000000" x2="67.000000" y2="150.000000" stroke="black" stroke-width="0.1" />
<line x1="64.000000" y1="147.000000" x2="64.000000" y2="148.000000" stroke="black" stroke-width="0.1" />
<line x1="64.000000" y1="152.000000" x2="64.000000" y2="153.000000" stroke="black" stroke-width="0.1" />
<circle cx="32.000000" cy="230.000000" r="2.500000" fill="none" stroke="black" stroke-width="0.1" />
<circle cx="32.000000" cy="230.000000" r="0.250000" fill="none" stroke="black" stroke-width="0.1" />
<line x1="31.750000" y1="230.000000" x2="31.500000" y2="230.000000" stroke="black" stroke-width="0.1" />
<line x1="32.250000" y1="230.000000" x2="32.500000" y2="230.000000" stroke="black" stroke-width="0.1" />
<line x1="32.000000" y1="229.750000" x2="32.000000" y2="229.500000" stroke="black" stroke-width="0.1" />
<line x1="32.000000" y1="230.250000" x2="32.000000" y2="230.500000" stroke="black" stroke-width="0.1" />
<line x1="29.000000" y1="230.000000" x2="30.000000" y2="230.000000" stroke="black" stroke-width="0.1" />
<line x1="34.000000" y1="230.000000" x2="35.000000" y2="230.000000" stroke="black" stroke-width="0.1" />
<line x1="32.000000" y1="227.000000" x2="32.000000" y2="228.000000" stroke="black" stroke-width="0.1" />
<line x1="32.000000" y1="232.000000" x2="32.000000" y2="233.000000" stroke="black" stroke-width="0.1" />
<circle cx="64.000000" cy="230.000000" r="2.500000" fill="none" stroke="black" stroke-width="0.1" />
<circle cx="64.000000" cy="230.000000" r="0.250000" fill="none" stroke="black" stroke-width="0.1" />
<line x1="63.750000" y1="230.000000" x2="63.500000" y2="230.000000" stroke="black" stroke-width="0.1" />
<line x1="64.250000" y1="230.000000" x2="64.500000" y2="230.000000" stroke="black" stroke-width="0.1" />
<line x1="64.000000" y1="229.750000" x2="64.000000" y2="229.500000" stroke="black" stroke-width="0.1" />
<line x1="64.000000" y1="230.250000" x2="64.000000" y2="230.500000" stroke="black" stroke-width="0.1" />
<line x1="61.000000" y1="230.000000" x2="62.000000" y2="230.000000" stroke="black" stroke-width="0.1" />
<line x1="66.000000" y1="230.000000" x2="67.000000" y2="230.000000" stroke="black" stroke-width="0.1" />
<line x1="64.000000" y1="227.000000" x2="64.000000" y2="228.000000" stroke="black" stroke-width="0.1" />
<line x1="64.000000" y1="232.000000" x2="64.000000" y2="233.000000" stroke="black" stroke-width="0.1" />
<text x="73.000000" y="25.000000" font-family="Arial" font-size="4" text-anchor="middle" dominant-baseline="middle" transform="rotate(90 73.000000 25.000000)" >Mid Sole Mount Line</text>
<text x="169.000000" y="235.000000" font-family="Arial" font-size="4" text-anchor="middle" dominant-baseline="middle" transform="rotate(90 169.000000 235.000000)" >Mid Sole Mount Line</text>
<text x="43.000000" y="235.000000" font-family="Arial" font-size="4" text-anchor="middle" dominant-baseline="middle" transform="rotate(90 43.000000 235.000000)" >Ski Center Line</text>
<text x="139.000000" y="25.000000" font-family="Arial" font-size="4" text-anchor="middle" dominant-baseline="middle" transform="rotate(90 139.000000 25.000000)" >Ski Center Line</text>
</svg>