<?xml version="1.0"?>
<!DOCTYPE svg PUBLIC "-//W3C//DTD SVG 1.1//EN"
"http://www.w3.org/Graphics/SVG/1.1/DTD/svg11.dtd">
<svg xmlns="http://www.w3.org/2000/svg" version="1.2" width="192.000000mm" height="259.000000mm" viewBox="0 0 192.000000 259.000000" style="background-color:white" >
<line x1="48.000000" y1="0.000000" x2="48.000000" y2="259.000000" stroke="black" stroke-width="0.1" />
<line x1="144.000000" y1="0.000000" x2="144.000000" y2="259.000000" stroke="black" stroke-width="0.1" />
<line x1="104.000000" y1="255.000000" x2="184.000000" y2="255.000000" stroke="black" stroke-width="0.1" />
<line x1="8.000000" y1="5.000000" x2="88.000000" y2="5.000000" stroke="black" stroke-width="0.1" />
<line x1="96.000000" y1="0.000000" x2="96.000000" y2="259.000000" stroke="black" stroke-width="0.1" stroke-dasharray="2 2" />
<line x1="0.000000" y1="259.000000" x2="96.000000" y2="259.000000" stroke="black" stroke-width="0.1" stroke-dasharray="2 2" />
<line x1="96.000000" y1="0.000000" x2="192.000000" y2="0.000000" stroke="black" stroke-width="0.1" stroke-dasharray="2 2" />
<line x1="48.000000" y1="7.000000" x2="41.000000" y2="0.000000" stroke="black" stroke-width="0.1" stroke-dasharray="2 2" />
<line x1="48.000000" y1="7.000000" x2="55.000000" y2="0.000000" stroke="black" stroke-width="0.1" stroke-dasharray="2 2" />
<line x1="144.000000" y1="253.000000" x2="138.000000" y2="259.000000" stroke="black" stroke-width="0.1" stroke-dasharray="2 2" />
<line x1="144.000000" y1="253.000000" x2="150.000000" y2="259.000000" stroke="black" stroke-width="0.1" stroke-dasharray="2 2" />
<text x="83.000000" y="130.000000" font-family="Arial" font-size="8" text-anchor="middle" dominant-baseline="middle" transform="rotate(90 83.000000 130.000000)" >Marker Royal (Jester, Griffon, etc) 350, Heel</text>
<text x="179.000000" y="130.000000" font-family="Arial" font-size="8" text-anchor="middle" dominant-baseline="middle" transform="rotate(90 179.000000 130.000000)" >Marker Royal (Jester, Griffon, etc) 350, Toe</text>
<line x1="104.000000" y1="92.000000" x2="104.000000" y2="255.000000" stroke="black" stroke-width="0.1" />
<line x1="101.500000" y1="92.000000" x2="106.500000" y2="92.000000" stroke="black" stroke-width="0.1" />
<line x1="104.000000" y1="92.000000" x2="101.500000" y2="94.500000" stroke="black" stroke-width="0.1" />
<line x1="104.000000" y1="92.000000" x2="106.500000" y2="94.500000" stroke="black" stroke-width="0.1" />
<line x1="101.500000" y1="255.000000" x2="106.500000" y2="255.000000" stroke="black" stroke-width="0.1" />
<line x1="104.000000" y1="255.000000" x2="101.500000" y2="252.500000" stroke="black" stroke-width="0.1" />
<line x1="104.000000" y1="255.000000" x2="106.500000" y2="252.500000" stroke="black" stroke-width="0.1" />
<text x="106.500000" y="173.500000" font-family="Arial" font-size="4" text-anchor="middle" dominant-baseline="middle" transform="rotate(90 106.500000 173.500000)" >163.0 mm</text>
<line x1="114.000000" y1="61.000000" x2="114.000000" y2="92.000000" stroke="black" stroke-width="0.1" />
<line x1="111.500000" y1="61.000000" x2="116.500000" y2="61.000000" stroke="black" stroke-width="0.1" />
<line x1="114.000000" y1="61.000000" x2="111.500000" y2="63.500000" stroke="black" stroke-width="0.1" />
<line x1="114.000000" y1="61.000000" x2="116.500000" y2="63.500000" stroke="black" stroke-width="0.1" />
<line x1="111.500000" y1="92.000000" x2="116.500000" y2="92.000000" stroke="black" stroke-width="0.1" />
<line x1="114.000000" y1="92.000000" x2="111.500000" y2="89.500000" stroke="black" stroke-width="0.1" />
<line x1="114.000000" y1="92.000000" x2="116.500000" y2="89.500000" stroke="black" stroke-width="0.1" />
<text x="116.500000" y="76.500000" font-family="Arial" font-size="4" text-anchor="middle" dominant-baseline="middle" transform="rotate(90 116.500000 76.500000)" >31.0 mm</text>
<line x1="8.000000" y1="5.000000" x2="8.000000" y2="155.000000" stroke="black" stroke-width="0.1" />
<line x1="5.500000" y1="5.000000" x2="10.500000" y2="5.000000" stroke="black" stroke-width="0.1" />
<line x1="8.000000" y1="5.000000" x2="5.500000" y2="7.500000" stroke="black" stroke-width="0.1" />
<line x1="8.000000" y1="5.000000" x2="10.500000" y2="7.500000" stroke="black" stroke-width="0.1" />
<line x1="5.500000" y1="155.000000" x2="10.500000" y2="155.000000" stroke="black" stroke-width="0.1" />
<line x1="8.000000" y1="155.000000" x2="5.500000" y2="152.500000" stroke="black" stroke-width="0.1" />
<line x1="8.000000" y1="155.000000" x2="10.500000" y2="152.500000" stroke="black" stroke-width="0.1" />
<text x="10.500000" y="80.000000" font-family="Arial" font-size="4" text-anchor="middle" dominant-baseline="middle" transform="rotate(90 10.500000 80.000000)" >150.0 mm</text>
<line x1="18.000000" y1="155.000000" x2="18.000000" y2="235.000000" stroke="black" stroke-width="0.1" />
<line x1="15.500000" y1="155.000000" x2="20.500000" y2="155.000000" stroke="black" stroke-width="0.1" />
<line x1="18.000000" y1="155.000000" x2="15.500000" y2="157.500000" stroke="black" stroke-width="0.1" />
<line x1="18.000000" y1="155.000000" x2="20.500000" y2="157.500000" stroke="black" stroke-width="0.1" />
<line x1="15.500000" y1="235.000000" x2="20.500000" y2="235.000000" stroke="black" stroke-width="0.1" />
<line x1="18.000000" y1="235.000000" x2="15.500000" y2="232.500000" stroke="black" stroke-width="0.1" />
<line x1="18.000000" y1="235.000000" x2="20.500000" y2="232.500000" stroke="black" stroke-width="0.1" />
<text x="20.500000" y="195.000000" font-family="Arial" font-size="4" text-anchor="middle" dominant-baseline="middle" transform="rotate(90 20.500000 195.000000)" >80.0 mm</text>
<line x1="126.000000" y1="51.000000" x2="162.000000" y2="51.000000" stroke="black" stroke-width="0.1" />
<line x1="126.000000" y1="48.500000" x2="126.000000" y2="53.500000" stroke="black" stroke-width="0.1" />
<line x1="126.000000" y1="51.000000" x2="128.500000" y2="53.500000" stroke="black" stroke-width="0.1" />
<line x1="126.000000" y1="51.000000" x2="128.500000" y2="48.500000" stroke="black" stroke-width="0.1" />
<line x1="162.000000" y1="48.500000" x2="162.000000" y2="53.500000" stroke="black" stroke-width="0.1" />
<line x1="162.000000" y1="51.000000" x2="159.500000" y2="53.500000" stroke="black" stroke-width="0.1" />
<line x1="162.000000" y1="51.000000" x2="159.500000" y2="48.500000" stroke="black" stroke-width="0.1" />
<text x="149.000000" y="41.000000" font-family="Arial" font-size="4" text-anchor="middle" dominant-baseline="middle" transform="rotate(90 149.000000 41.000000)" >36.0 mm</text>
<line x1="126.000000" y1="82.000000" x2="162.000000" y2="82.000000" stroke="black" stroke-width="0.1" />
<line x1="126.000000" y1="79.500000" x2="126.000000" y2="84.500000" stroke="black" stroke-width="0.1" />
<line x1="126.000000" y1="82.000000" x2="128.500000" y2="84.500000" stroke="black" stroke-width="0.1" />
<line x1="126.000000" y1="82.000000" x2="128.500000" y2="79.500000" stroke="black" stroke-width="0.1" />
<line x1="162.000000" y1="79.500000" x2="162.000000" y2="84.500000" stroke="black" stroke-width="0.1" />
<line x1="162.000000" y1="82.000000" x2="159.500000" y2="84.500000" stroke="black" stroke-width="0.1" />
<line x1="162.000000" y1="82.000000" x2="159.500000" y2="79.500000" stroke="black" stroke-width="0.1" />
<text x="149.000000" y="72.000000" font-family="Arial" font-size="4" text-anchor="middle" dominant-baseline="middle" transform="rotate(90 149.000000 72.000000)" >36.0 mm</text>
<line x1="32.000000" y1="165.000000" x2="64.000000" y2="165.000000" stroke="black" stroke-width="0.1" />
<line x1="32.000000" y1="162.500000" x2="32.000000" y2="167.500000" stroke="black" stroke-width="0.1" />
<line x1="32.000000" y1="165.000000" x2="34.500000" y2="167.500000" stroke="black" stroke-width="0.1" />
<line x1="32.000000" y1="165.000000" x2="34.500000" y2="162.500000" stroke="black" stroke-width="0.1" />
<line x1="64.000000" y1="162.500000" x2="64.000000" y2="167.500000" stroke="black" stroke-width="0.1" />
<line x1="64.000000" y1="165.000000" x2="61.500000" y2="167.500000" stroke="black" stroke-width="0.1" />
<line x1="64.000000" y1="165.000000" x2="61.500000" y2="162.500000" stroke="black" stroke-width="0.1" />
<text x="53.000000" y="175.000000" font-family="Arial" font-size="4" text-anchor="middle" dominant-baseline="middle" transform="rotate(90 53.000000 175.000000)" >32.0 mm</text>
<line x1="32.000000" y1="245.000000" x2="64.000000" y2="245.000000" stroke="black" stroke-width="0.1" />
<line x1="32.000000" y1="242.500000" x2="32.000000" y2="247.500000" stroke="black" stroke-width="0.1" />
<line x1="32.000000" y1="245.000000" x2="34.500000" y2="247.500000" stroke="black" stroke-width="0.1" />
<line x1="32.000000" y1="245.000000" x2="34.500000" y2="242.500000" stroke="black" stroke-width="0.1" />
<line x1="64.000000" y1="242.500000" x2="64.000000" y2="247.500000" stroke="black" stroke-width="0.1" />
<line x1="64.000000" y1="245.000000" x2="61.500000" y2="247.500000" stroke="black" stroke-width="0.1" />
<line x1="64.000000" y1="245.000000" x2="61.500000" y2="242.500000" stroke="black" stroke-width="0.1" />
<text x="53.000000" y="255.000000" font-family="Arial" font-size="4" text-anchor="middle" dominant-baseline="middle" transform="rotate(90 53.000000 255.000000)" >32.0 mm</text>
<circle cx="126.000000" cy="61.000000" r="2.500000" fill="none" stroke="black" stroke-width="0.1" />
<circle cx="126.000000" cy="61.000000" r="0.250000" fill="none" stroke="black" stroke-width="0.1" />
<line x1="125.750000" y1="61.000000" x2="125.500000" y2="61.000000" stroke="black" stroke-width="0.1" />
<line x1="126.250000" y1="61.000000" x2="126.500000" y2="61.000000" stroke="black" stroke-width="0.1" />
<line x1="126.000000" y1="60.750000" x2="126.000000" y2="60.500000" stroke="black" stroke-width="0.1" />
<line x1="126.000000" y1="61.250000" x2="126.000000" y2="61.500000" stroke="black" stroke-width="0.1" />
<line x1="123.000000" y1="61.000000" x2="124.000000" y2="61.000000" stroke="black" stroke-width="0.1" />
<line x1="128.000000" y1="61.000000" x2="129.000000" y2="61.000000" stroke="black" stroke-width="0.1" />
<line x1="126.000000" y1="58.000000" x2="126.000000" y2="59.000000" stroke="black" stroke-width="0.1" />
<line x1="126.000000" y1="63.000000" x2="126.000000" y2="64.000000" stroke="black" stroke-width="0.1" />
<circle cx="162.000000" cy="61.000000" r="2.500000" fill="none" stroke="black" stroke-width="0.1" />
<circle cx="162.000000" cy="61.000000" r="0.250000" fill="none" stroke="black" stroke-width="0.1" />
<line x1="161.750000" y1="61.000000" x2="161.500000" y2="61.000000" stroke="black" stroke-width="0.1" />
<line x1="162.250000" y1="61.000000" x2="162.500000" y2="61.000000" stroke="black" stroke-width="0.1" />
<line x1="162.000000" y1="60.750000" x2="162.000000" y2="60.500000" stroke="black" stroke-width="0.1" />
<line x1="162.000000" y1="61.250000" x2="162.000000" y2="61.500000" stroke="black" stroke-width="0.1" />
<line x1="159.000000" y1="61.000000" x2="160.000000" y2="61.000000" stroke="black" stroke-width="0.1" />
<line x1="164.000000" y1="61.000000" x2="165.000000" y2="61.000000" stroke="black" stroke-width="0.1" />
<line x1="162.000000" y1="58.000000" x2="162.000000" y2="59.000000" stroke="black" stroke-width="0.1" />
<line x1="162.000000" y1="63.000000" x2="162.000000" y2="64.000000" stroke="black" stroke-width="0.1" />
<circle cx="126.000000" cy="92.000000" r="2.500000" fill="none" stroke="black" stroke-width="0.1" />
<circle cx="126.000000" cy="92.000000" r="0.250000" fill="none" stroke="black" stroke-width="0.1" />
<line x1="125.750000" y1="92.000000" x2="125.500000" y2="92.000000" stroke="black" stroke-width="0.1" />
<line x1="126.250000" y1="92.000000" x2="126.500000" y2="92.000000" stroke="black" stroke-width="0.1" />
<line x1="126.000000" y1="91.750000" x2="126.000000" y2="91.500000" stroke="black" stroke-width="0.1" />
<line x1="126.000000" y1="92.250000" x2="126.000000" y2="92.500000" stroke="black" stroke-width="0.1" />
<line x1="123.000000" y1="92.000000" x2="124.000000" y2="92.000000" stroke="black" stroke-width="0.1" />
<line x1="128.000000" y1="92.000000" x2="129.000000" y2="92.000000" stroke="black" stroke-width="0.1" />
<line x1="126.000000" y1="89.000000" x2="126.000000" y2="90.000000" stroke="black" stroke-width="0.1" />
<line x1="126.000000" y1="94.000000" x2="126.000000" y2="95.000000" stroke="black" stroke-width="0.1" />
<circle cx="162.000000" cy="92.000000" r="2.500000" fill="none" stroke="black" stroke-width="0.1" />
<circle cx="162.000000" cy="92.000000" r="0.250000" fill="none" stroke="black" stroke-width="0.1" />
<line x1="161.750000" y1="92.000000" x2="161.500000" y2="92.000000" stroke="black" stroke-width="0.1" />
<line x1="162.250000" y1="92.000000" x2="162.500000" y2="92.000000" stroke="black" stroke-width="0.1" />
<line x1="162.000000" y1="91.750000" x2="162.000000" y2="91.500000" stroke="black" stroke-width="0.1" />
<line x1="162.000000" y1="92.250000" x2="162.000000" y2="92.500000" stroke="black" stroke-width="0.1" />
<line x1="159.000000" y1="92.000000" x2="160.000000" y2="92.000000" stroke="black" stroke-width="0.1" />
<line x1="164.000000" y1="92.000000" x2="165.000000" y2="92.000000" stroke="black" stroke-width="0.1" />
<line x1="162.000000" y1="89.000000" x2="162.000000" y2="90.000000" stroke="black" stroke-width="0.1" />
<line x1="162.000000" y1="94.000000" x2="162.000000" y2="95.000000" stroke="black" stroke-width="0.1" />
<circle cx="32.000000" cy="155.000000" r="2.500000" fill="none" stroke="black" stroke-width="0.1" />
<circle cx="32.000000" cy="155.000000" r="0.250000" fill="none" stroke="black" stroke-width="0.1" />
<line x1="31.750000" y1="155.000000" x2="31.500000" y2="155.000000" stroke="black" stroke-width="0.1" />
<line x1="32.250000" y1="155.000000" x2="32.500000" y2="155.000000" stroke="black" stroke-width="0.1" />
<line x1="32.000000" y1="154.750000" x2="32.000000" y2="154.500000" stroke="black" stroke-width="0.1" />
<line x1="32.000000" y1="155.250000" x2="32.000000" y2="155.500000" stroke="black" stroke-width="0.1" />
<line x1="29.000000" y1="155.000000" x2="30.000000" y2="155.000000" stroke="black" stroke-width="0.1" />
<line x1="34.000000" y1="155.000000" x2="35.000000" y2="155.000000" stroke="black" stroke-width="0.1" />
<line x1="32.000000" y1="152.000000" x2="32.000000" y2="153.000000" stroke="black" stroke-width="0.1" />
<line x1="32.000000" y1="157.000000" x2="32.000000" y2="158.000000" stroke="black" stroke-width="0.1" />
<circle cx="64.000000" cy="155.000000" r="2.500000" fill="none" stroke="black" stroke-width="0.1" />
<circle cx="64.000000" cy="155.000000" r="0.250000" fill="none" stroke="black" stroke-width="0.1" />
<line x1="63.750000" y1="155.000000" x2="63.500000" y2="155.000000" stroke="black" stroke-width="0.1" />
<line x1="64.250000" y1="155.000000" x2="64.500000" y2="155.000000" stroke="black" stroke-width="0.1" />
<line x1="64.000000" y1="154.750000" x2="64.000000" y2="154.500000" stroke="black" stroke-width="0.1" />
<line x1="64.000000" y1="155.250000" x2="64.000000" y2="155.500000" stroke="black" stroke-width="0.1" />
<line x1="61.000000" y1="155.000000" x2="62.000000" y2="155.000000" stroke="black" stroke-width="0.1" />
<line x1="66.000000" y1="155.000000" x2="67.000000" y2="155.000000" stroke="black" stroke-width="0.1" />
<line x1="64.000000" y1="152.000000" x2="64.000000" y2="153.000000" stroke="black" stroke-width="0.1" />
<line x1="64.000000" y1="157.000000" x2="64.000000" y2="158.000000" stroke="black" stroke-width="0.1" />
<circle cx="32.000000" cy="235.000000" r="2.500000" fill="none" stroke="black" stroke-width="0.1" />
<circle cx="32.000000" cy="235.000000" r="0.250000" fill="none" stroke="black" stroke-width="0.1" />
<line x1="31.750000" y1="235.000000" x2="31.500000" y2="235.000000" stroke="black" stroke-width="0.1" />
<line x1="32.250000" y1="235.000000" x2="32.500000" y2="235.000000" stroke="black" stroke-width="0.1" />
<line x1="32.000000" y1="234.750000" x2="32.000000" y2="234.500000" stroke="black" stroke-width="0.1" />
<line x1="32.000000" y1="235.250000" x2="32.000000" y2="235.500000" stroke="black" stroke-width="0.1" />
<line x1="29.000000" y1="235.000000" x2="30.000000" y2="235.000000" stroke="black" stroke-width="0.1" />
<line x1="34.000000" y1="235.000000" x2="35.000000" y2="235.000000" stroke="black" stroke-width="0.1" />
<line x1="32.000000" y1="232.000000" x2="32.000000" y2="233.000000" stroke="black" stroke-width="0.1" />
<line x1="32.000000" y1="237.000000" x2="32.000000" y2="238.000000" stroke="black" stroke-width="0.1" />
<circle cx="64.000000" cy="235.000000" r="2.500000" fill="none" stroke="black" stroke-width="0.1" />
<circle cx="64.000000" cy="235.000000" r="0.250000" fill="none" stroke="black" stroke-width="0.1" />
<line x1="63.750000" y1="235.000000" x2="63.500000" y2="235.000000" stroke="black" stroke-width="0.1" />
<line x1="64.250000" y1="235.000000" x2="64.500000" y2="235.000000" stroke="black" stroke-width="0.1" />
<line x1="64.000000" y1="234.750000" x2="64.000000" y2="234.500000" stroke="black" stroke-width="0.1" />
<line x1="64.000000" y1="235.250000" x2="64.000000" y2="235.500000" stroke="black" stroke-width="0.1" />
<line x1="61.000000" y1="235.000000" x2="62.000000" y2="235.000000" stroke="black" stroke-width="0.1" />
<line x1="66.000000" y1="235.000000" x2="67.000000" y2="235.000000" stroke="black" stroke-width="0.1" />
<line x1="64.000000" y1="232.000000" x2="64.000000" y2="233.000000" stroke="black" stroke-width="0.1" />
<line x1="64.000000" y1="237.000000" x2="64.000000" y2="238.000000" stroke="black" stroke-width="0.1" />
<text x="73.000000" y="25.000000" font-family="Arial" font-size="4" text-anchor="middle" dominant-baseline="middle" transform="rotate(90 73.000000 25.000000)" >Mid Sole Mount Line</text>
<text x="169.000000" y="235.000000" font-family="Arial" font-size="4" text-anchor="middle" dominant-baseline="middle" transform="rotate(90 169.000000 235.000000)" >Mid Sole Mount Line</text>
<text x="43.000000" y="235.000000" font-family="Arial" font-size="4" text-anchor="middle" dominant-baseline="middle" transform="rotate(90 43.000000 235.000000)" >Ski Center Line</text>
<text x="139.000000" y="25.000000" font-family="Arial" font-size="4" text-anchor="middle" dominant-baseline="middle" transform="rotate(90 139.000000 25.000000)" >Ski Center Line</text>
</svg>