<?xml version="1.0"?>
<!DOCTYPE svg PUBLIC "-//W3C//DTD SVG 1.1//EN"
"http://www.w3.org/Graphics/SVG/1.1/DTD/svg11.dtd">
<svg xmlns="http://www.w3.org/2000/svg" version="1.2" width="192.000000mm" height="259.000000mm" viewBox="0 0 192.000000 259.000000" style="background-color:white" >
<line x1="48.000000" y1="0.000000" x2="48.000000" y2="259.000000" stroke="black" stroke-width="0.1" />
<line x1="144.000000" y1="0.000000" x2="144.000000" y2="259.000000" stroke="black" stroke-width="0.1" />
<line x1="104.000000" y1="255.000000" x2="184.000000" y2="255.000000" stroke="black" stroke-width="0.1" />
<line x1="8.000000" y1="5.000000" x2="88.000000" y2="5.000000" stroke="black" stroke-width="0.1" />
<line x1="96.000000" y1="0.000000" x2="96.000000" y2="259.000000" stroke="black" stroke-width="0.1" stroke-dasharray="2 2" />
<line x1="0.000000" y1="259.000000" x2="96.000000" y2="259.000000" stroke="black" stroke-width="0.1" stroke-dasharray="2 2" />
<line x1="96.000000" y1="0.000000" x2="192.000000" y2="0.000000" stroke="black" stroke-width="0.1" stroke-dasharray="2 2" />
<line x1="48.000000" y1="7.000000" x2="41.000000" y2="0.000000" stroke="black" stroke-width="0.1" stroke-dasharray="2 2" />
<line x1="48.000000" y1="7.000000" x2="55.000000" y2="0.000000" stroke="black" stroke-width="0.1" stroke-dasharray="2 2" />
<line x1="144.000000" y1="253.000000" x2="138.000000" y2="259.000000" stroke="black" stroke-width="0.1" stroke-dasharray="2 2" />
<line x1="144.000000" y1="253.000000" x2="150.000000" y2="259.000000" stroke="black" stroke-width="0.1" stroke-dasharray="2 2" />
<text x="83.000000" y="130.000000" font-family="Arial" font-size="8" text-anchor="middle" dominant-baseline="middle" transform="rotate(90 83.000000 130.000000)" >Marker Royal (Jester, Griffon, etc) 315, Heel</text>
<text x="179.000000" y="130.000000" font-family="Arial" font-size="8" text-anchor="middle" dominant-baseline="middle" transform="rotate(90 179.000000 130.000000)" >Marker Royal (Jester, Griffon, etc) 315, Toe</text>
<line x1="104.000000" y1="109.500000" x2="104.000000" y2="255.000000" stroke="black" stroke-width="0.1" />
<line x1="101.500000" y1="109.500000" x2="106.500000" y2="109.500000" stroke="black" stroke-width="0.1" />
<line x1="104.000000" y1="109.500000" x2="101.500000" y2="112.000000" stroke="black" stroke-width="0.1" />
<line x1="104.000000" y1="109.500000" x2="106.500000" y2="112.000000" stroke="black" stroke-width="0.1" />
<line x1="101.500000" y1="255.000000" x2="106.500000" y2="255.000000" stroke="black" stroke-width="0.1" />
<line x1="104.000000" y1="255.000000" x2="101.500000" y2="252.500000" stroke="black" stroke-width="0.1" />
<line x1="104.000000" y1="255.000000" x2="106.500000" y2="252.500000" stroke="black" stroke-width="0.1" />
<text x="106.500000" y="182.250000" font-family="Arial" font-size="4" text-anchor="middle" dominant-baseline="middle" transform="rotate(90 106.500000 182.250000)" >145.5 mm</text>
<line x1="114.000000" y1="78.500000" x2="114.000000" y2="109.500000" stroke="black" stroke-width="0.1" />
<line x1="111.500000" y1="78.500000" x2="116.500000" y2="78.500000" stroke="black" stroke-width="0.1" />
<line x1="114.000000" y1="78.500000" x2="111.500000" y2="81.000000" stroke="black" stroke-width="0.1" />
<line x1="114.000000" y1="78.500000" x2="116.500000" y2="81.000000" stroke="black" stroke-width="0.1" />
<line x1="111.500000" y1="109.500000" x2="116.500000" y2="109.500000" stroke="black" stroke-width="0.1" />
<line x1="114.000000" y1="109.500000" x2="111.500000" y2="107.000000" stroke="black" stroke-width="0.1" />
<line x1="114.000000" y1="109.500000" x2="116.500000" y2="107.000000" stroke="black" stroke-width="0.1" />
<text x="116.500000" y="94.000000" font-family="Arial" font-size="4" text-anchor="middle" dominant-baseline="middle" transform="rotate(90 116.500000 94.000000)" >31.0 mm</text>
<line x1="8.000000" y1="5.000000" x2="8.000000" y2="137.500000" stroke="black" stroke-width="0.1" />
<line x1="5.500000" y1="5.000000" x2="10.500000" y2="5.000000" stroke="black" stroke-width="0.1" />
<line x1="8.000000" y1="5.000000" x2="5.500000" y2="7.500000" stroke="black" stroke-width="0.1" />
<line x1="8.000000" y1="5.000000" x2="10.500000" y2="7.500000" stroke="black" stroke-width="0.1" />
<line x1="5.500000" y1="137.500000" x2="10.500000" y2="137.500000" stroke="black" stroke-width="0.1" />
<line x1="8.000000" y1="137.500000" x2="5.500000" y2="135.000000" stroke="black" stroke-width="0.1" />
<line x1="8.000000" y1="137.500000" x2="10.500000" y2="135.000000" stroke="black" stroke-width="0.1" />
<text x="10.500000" y="71.250000" font-family="Arial" font-size="4" text-anchor="middle" dominant-baseline="middle" transform="rotate(90 10.500000 71.250000)" >132.5 mm</text>
<line x1="18.000000" y1="137.500000" x2="18.000000" y2="217.500000" stroke="black" stroke-width="0.1" />
<line x1="15.500000" y1="137.500000" x2="20.500000" y2="137.500000" stroke="black" stroke-width="0.1" />
<line x1="18.000000" y1="137.500000" x2="15.500000" y2="140.000000" stroke="black" stroke-width="0.1" />
<line x1="18.000000" y1="137.500000" x2="20.500000" y2="140.000000" stroke="black" stroke-width="0.1" />
<line x1="15.500000" y1="217.500000" x2="20.500000" y2="217.500000" stroke="black" stroke-width="0.1" />
<line x1="18.000000" y1="217.500000" x2="15.500000" y2="215.000000" stroke="black" stroke-width="0.1" />
<line x1="18.000000" y1="217.500000" x2="20.500000" y2="215.000000" stroke="black" stroke-width="0.1" />
<text x="20.500000" y="177.500000" font-family="Arial" font-size="4" text-anchor="middle" dominant-baseline="middle" transform="rotate(90 20.500000 177.500000)" >80.0 mm</text>
<line x1="126.000000" y1="68.500000" x2="162.000000" y2="68.500000" stroke="black" stroke-width="0.1" />
<line x1="126.000000" y1="66.000000" x2="126.000000" y2="71.000000" stroke="black" stroke-width="0.1" />
<line x1="126.000000" y1="68.500000" x2="128.500000" y2="71.000000" stroke="black" stroke-width="0.1" />
<line x1="126.000000" y1="68.500000" x2="128.500000" y2="66.000000" stroke="black" stroke-width="0.1" />
<line x1="162.000000" y1="66.000000" x2="162.000000" y2="71.000000" stroke="black" stroke-width="0.1" />
<line x1="162.000000" y1="68.500000" x2="159.500000" y2="71.000000" stroke="black" stroke-width="0.1" />
<line x1="162.000000" y1="68.500000" x2="159.500000" y2="66.000000" stroke="black" stroke-width="0.1" />
<text x="149.000000" y="58.500000" font-family="Arial" font-size="4" text-anchor="middle" dominant-baseline="middle" transform="rotate(90 149.000000 58.500000)" >36.0 mm</text>
<line x1="126.000000" y1="99.500000" x2="162.000000" y2="99.500000" stroke="black" stroke-width="0.1" />
<line x1="126.000000" y1="97.000000" x2="126.000000" y2="102.000000" stroke="black" stroke-width="0.1" />
<line x1="126.000000" y1="99.500000" x2="128.500000" y2="102.000000" stroke="black" stroke-width="0.1" />
<line x1="126.000000" y1="99.500000" x2="128.500000" y2="97.000000" stroke="black" stroke-width="0.1" />
<line x1="162.000000" y1="97.000000" x2="162.000000" y2="102.000000" stroke="black" stroke-width="0.1" />
<line x1="162.000000" y1="99.500000" x2="159.500000" y2="102.000000" stroke="black" stroke-width="0.1" />
<line x1="162.000000" y1="99.500000" x2="159.500000" y2="97.000000" stroke="black" stroke-width="0.1" />
<text x="149.000000" y="89.500000" font-family="Arial" font-size="4" text-anchor="middle" dominant-baseline="middle" transform="rotate(90 149.000000 89.500000)" >36.0 mm</text>
<line x1="32.000000" y1="147.500000" x2="64.000000" y2="147.500000" stroke="black" stroke-width="0.1" />
<line x1="32.000000" y1="145.000000" x2="32.000000" y2="150.000000" stroke="black" stroke-width="0.1" />
<line x1="32.000000" y1="147.500000" x2="34.500000" y2="150.000000" stroke="black" stroke-width="0.1" />
<line x1="32.000000" y1="147.500000" x2="34.500000" y2="145.000000" stroke="black" stroke-width="0.1" />
<line x1="64.000000" y1="145.000000" x2="64.000000" y2="150.000000" stroke="black" stroke-width="0.1" />
<line x1="64.000000" y1="147.500000" x2="61.500000" y2="150.000000" stroke="black" stroke-width="0.1" />
<line x1="64.000000" y1="147.500000" x2="61.500000" y2="145.000000" stroke="black" stroke-width="0.1" />
<text x="53.000000" y="157.500000" font-family="Arial" font-size="4" text-anchor="middle" dominant-baseline="middle" transform="rotate(90 53.000000 157.500000)" >32.0 mm</text>
<line x1="32.000000" y1="227.500000" x2="64.000000" y2="227.500000" stroke="black" stroke-width="0.1" />
<line x1="32.000000" y1="225.000000" x2="32.000000" y2="230.000000" stroke="black" stroke-width="0.1" />
<line x1="32.000000" y1="227.500000" x2="34.500000" y2="230.000000" stroke="black" stroke-width="0.1" />
<line x1="32.000000" y1="227.500000" x2="34.500000" y2="225.000000" stroke="black" stroke-width="0.1" />
<line x1="64.000000" y1="225.000000" x2="64.000000" y2="230.000000" stroke="black" stroke-width="0.1" />
<line x1="64.000000" y1="227.500000" x2="61.500000" y2="230.000000" stroke="black" stroke-width="0.1" />
<line x1="64.000000" y1="227.500000" x2="61.500000" y2="225.000000" stroke="black" stroke-width="0.1" />
<text x="53.000000" y="237.500000" font-family="Arial" font-size="4" text-anchor="middle" dominant-baseline="middle" transform="rotate(90 53.000000 237.500000)" >32.0 mm</text>
<circle cx="126.000000" cy="78.500000" r="2.500000" fill="none" stroke="black" stroke-width="0.1" />
<circle cx="126.000000" cy="78.500000" r="0.250000" fill="none" stroke="black" stroke-width="0.1" />
<line x1="125.750000" y1="78.500000" x2="125.500000" y2="78.500000" stroke="black" stroke-width="0.1" />
<line x1="126.250000" y1="78.500000" x2="126.500000" y2="78.500000" stroke="black" stroke-width="0.1" />
<line x1="126.000000" y1="78.250000" x2="126.000000" y2="78.000000" stroke="black" stroke-width="0.1" />
<line x1="126.000000" y1="78.750000" x2="126.000000" y2="79.000000" stroke="black" stroke-width="0.1" />
<line x1="123.000000" y1="78.500000" x2="124.000000" y2="78.500000" stroke="black" stroke-width="0.1" />
<line x1="128.000000" y1="78.500000" x2="129.000000" y2="78.500000" stroke="black" stroke-width="0.1" />
<line x1="126.000000" y1="75.500000" x2="126.000000" y2="76.500000" stroke="black" stroke-width="0.1" />
<line x1="126.000000" y1="80.500000" x2="126.000000" y2="81.500000" stroke="black" stroke-width="0.1" />
<circle cx="162.000000" cy="78.500000" r="2.500000" fill="none" stroke="black" stroke-width="0.1" />
<circle cx="162.000000" cy="78.500000" r="0.250000" fill="none" stroke="black" stroke-width="0.1" />
<line x1="161.750000" y1="78.500000" x2="161.500000" y2="78.500000" stroke="black" stroke-width="0.1" />
<line x1="162.250000" y1="78.500000" x2="162.500000" y2="78.500000" stroke="black" stroke-width="0.1" />
<line x1="162.000000" y1="78.250000" x2="162.000000" y2="78.000000" stroke="black" stroke-width="0.1" />
<line x1="162.000000" y1="78.750000" x2="162.000000" y2="79.000000" stroke="black" stroke-width="0.1" />
<line x1="159.000000" y1="78.500000" x2="160.000000" y2="78.500000" stroke="black" stroke-width="0.1" />
<line x1="164.000000" y1="78.500000" x2="165.000000" y2="78.500000" stroke="black" stroke-width="0.1" />
<line x1="162.000000" y1="75.500000" x2="162.000000" y2="76.500000" stroke="black" stroke-width="0.1" />
<line x1="162.000000" y1="80.500000" x2="162.000000" y2="81.500000" stroke="black" stroke-width="0.1" />
<circle cx="126.000000" cy="109.500000" r="2.500000" fill="none" stroke="black" stroke-width="0.1" />
<circle cx="126.000000" cy="109.500000" r="0.250000" fill="none" stroke="black" stroke-width="0.1" />
<line x1="125.750000" y1="109.500000" x2="125.500000" y2="109.500000" stroke="black" stroke-width="0.1" />
<line x1="126.250000" y1="109.500000" x2="126.500000" y2="109.500000" stroke="black" stroke-width="0.1" />
<line x1="126.000000" y1="109.250000" x2="126.000000" y2="109.000000" stroke="black" stroke-width="0.1" />
<line x1="126.000000" y1="109.750000" x2="126.000000" y2="110.000000" stroke="black" stroke-width="0.1" />
<line x1="123.000000" y1="109.500000" x2="124.000000" y2="109.500000" stroke="black" stroke-width="0.1" />
<line x1="128.000000" y1="109.500000" x2="129.000000" y2="109.500000" stroke="black" stroke-width="0.1" />
<line x1="126.000000" y1="106.500000" x2="126.000000" y2="107.500000" stroke="black" stroke-width="0.1" />
<line x1="126.000000" y1="111.500000" x2="126.000000" y2="112.500000" stroke="black" stroke-width="0.1" />
<circle cx="162.000000" cy="109.500000" r="2.500000" fill="none" stroke="black" stroke-width="0.1" />
<circle cx="162.000000" cy="109.500000" r="0.250000" fill="none" stroke="black" stroke-width="0.1" />
<line x1="161.750000" y1="109.500000" x2="161.500000" y2="109.500000" stroke="black" stroke-width="0.1" />
<line x1="162.250000" y1="109.500000" x2="162.500000" y2="109.500000" stroke="black" stroke-width="0.1" />
<line x1="162.000000" y1="109.250000" x2="162.000000" y2="109.000000" stroke="black" stroke-width="0.1" />
<line x1="162.000000" y1="109.750000" x2="162.000000" y2="110.000000" stroke="black" stroke-width="0.1" />
<line x1="159.000000" y1="109.500000" x2="160.000000" y2="109.500000" stroke="black" stroke-width="0.1" />
<line x1="164.000000" y1="109.500000" x2="165.000000" y2="109.500000" stroke="black" stroke-width="0.1" />
<line x1="162.000000" y1="106.500000" x2="162.000000" y2="107.500000" stroke="black" stroke-width="0.1" />
<line x1="162.000000" y1="111.500000" x2="162.000000" y2="112.500000" stroke="black" stroke-width="0.1" />
<circle cx="32.000000" cy="137.500000" r="2.500000" fill="none" stroke="black" stroke-width="0.1" />
<circle cx="32.000000" cy="137.500000" r="0.250000" fill="none" stroke="black" stroke-width="0.1" />
<line x1="31.750000" y1="137.500000" x2="31.500000" y2="137.500000" stroke="black" stroke-width="0.1" />
<line x1="32.250000" y1="137.500000" x2="32.500000" y2="137.500000" stroke="black" stroke-width="0.1" />
<line x1="32.000000" y1="137.250000" x2="32.000000" y2="137.000000" stroke="black" stroke-width="0.1" />
<line x1="32.000000" y1="137.750000" x2="32.000000" y2="138.000000" stroke="black" stroke-width="0.1" />
<line x1="29.000000" y1="137.500000" x2="30.000000" y2="137.500000" stroke="black" stroke-width="0.1" />
<line x1="34.000000" y1="137.500000" x2="35.000000" y2="137.500000" stroke="black" stroke-width="0.1" />
<line x1="32.000000" y1="134.500000" x2="32.000000" y2="135.500000" stroke="black" stroke-width="0.1" />
<line x1="32.000000" y1="139.500000" x2="32.000000" y2="140.500000" stroke="black" stroke-width="0.1" />
<circle cx="64.000000" cy="137.500000" r="2.500000" fill="none" stroke="black" stroke-width="0.1" />
<circle cx="64.000000" cy="137.500000" r="0.250000" fill="none" stroke="black" stroke-width="0.1" />
<line x1="63.750000" y1="137.500000" x2="63.500000" y2="137.500000" stroke="black" stroke-width="0.1" />
<line x1="64.250000" y1="137.500000" x2="64.500000" y2="137.500000" stroke="black" stroke-width="0.1" />
<line x1="64.000000" y1="137.250000" x2="64.000000" y2="137.000000" stroke="black" stroke-width="0.1" />
<line x1="64.000000" y1="137.750000" x2="64.000000" y2="138.000000" stroke="black" stroke-width="0.1" />
<line x1="61.000000" y1="137.500000" x2="62.000000" y2="137.500000" stroke="black" stroke-width="0.1" />
<line x1="66.000000" y1="137.500000" x2="67.000000" y2="137.500000" stroke="black" stroke-width="0.1" />
<line x1="64.000000" y1="134.500000" x2="64.000000" y2="135.500000" stroke="black" stroke-width="0.1" />
<line x1="64.000000" y1="139.500000" x2="64.000000" y2="140.500000" stroke="black" stroke-width="0.1" />
<circle cx="32.000000" cy="217.500000" r="2.500000" fill="none" stroke="black" stroke-width="0.1" />
<circle cx="32.000000" cy="217.500000" r="0.250000" fill="none" stroke="black" stroke-width="0.1" />
<line x1="31.750000" y1="217.500000" x2="31.500000" y2="217.500000" stroke="black" stroke-width="0.1" />
<line x1="32.250000" y1="217.500000" x2="32.500000" y2="217.500000" stroke="black" stroke-width="0.1" />
<line x1="32.000000" y1="217.250000" x2="32.000000" y2="217.000000" stroke="black" stroke-width="0.1" />
<line x1="32.000000" y1="217.750000" x2="32.000000" y2="218.000000" stroke="black" stroke-width="0.1" />
<line x1="29.000000" y1="217.500000" x2="30.000000" y2="217.500000" stroke="black" stroke-width="0.1" />
<line x1="34.000000" y1="217.500000" x2="35.000000" y2="217.500000" stroke="black" stroke-width="0.1" />
<line x1="32.000000" y1="214.500000" x2="32.000000" y2="215.500000" stroke="black" stroke-width="0.1" />
<line x1="32.000000" y1="219.500000" x2="32.000000" y2="220.500000" stroke="black" stroke-width="0.1" />
<circle cx="64.000000" cy="217.500000" r="2.500000" fill="none" stroke="black" stroke-width="0.1" />
<circle cx="64.000000" cy="217.500000" r="0.250000" fill="none" stroke="black" stroke-width="0.1" />
<line x1="63.750000" y1="217.500000" x2="63.500000" y2="217.500000" stroke="black" stroke-width="0.1" />
<line x1="64.250000" y1="217.500000" x2="64.500000" y2="217.500000" stroke="black" stroke-width="0.1" />
<line x1="64.000000" y1="217.250000" x2="64.000000" y2="217.000000" stroke="black" stroke-width="0.1" />
<line x1="64.000000" y1="217.750000" x2="64.000000" y2="218.000000" stroke="black" stroke-width="0.1" />
<line x1="61.000000" y1="217.500000" x2="62.000000" y2="217.500000" stroke="black" stroke-width="0.1" />
<line x1="66.000000" y1="217.500000" x2="67.000000" y2="217.500000" stroke="black" stroke-width="0.1" />
<line x1="64.000000" y1="214.500000" x2="64.000000" y2="215.500000" stroke="black" stroke-width="0.1" />
<line x1="64.000000" y1="219.500000" x2="64.000000" y2="220.500000" stroke="black" stroke-width="0.1" />
<text x="73.000000" y="25.000000" font-family="Arial" font-size="4" text-anchor="middle" dominant-baseline="middle" transform="rotate(90 73.000000 25.000000)" >Mid Sole Mount Line</text>
<text x="169.000000" y="235.000000" font-family="Arial" font-size="4" text-anchor="middle" dominant-baseline="middle" transform="rotate(90 169.000000 235.000000)" >Mid Sole Mount Line</text>
<text x="43.000000" y="235.000000" font-family="Arial" font-size="4" text-anchor="middle" dominant-baseline="middle" transform="rotate(90 43.000000 235.000000)" >Ski Center Line</text>
<text x="139.000000" y="25.000000" font-family="Arial" font-size="4" text-anchor="middle" dominant-baseline="middle" transform="rotate(90 139.000000 25.000000)" >Ski Center Line</text>
</svg>