<?xml version="1.0"?>
<!DOCTYPE svg PUBLIC "-//W3C//DTD SVG 1.1//EN"
"http://www.w3.org/Graphics/SVG/1.1/DTD/svg11.dtd">
<svg xmlns="http://www.w3.org/2000/svg" version="1.2" width="192.000000mm" height="259.000000mm" viewBox="0 0 192.000000 259.000000" style="background-color:white" >
<line x1="48.000000" y1="0.000000" x2="48.000000" y2="259.000000" stroke="black" stroke-width="0.1" />
<line x1="144.000000" y1="0.000000" x2="144.000000" y2="259.000000" stroke="black" stroke-width="0.1" />
<line x1="104.000000" y1="255.000000" x2="184.000000" y2="255.000000" stroke="black" stroke-width="0.1" />
<line x1="8.000000" y1="5.000000" x2="88.000000" y2="5.000000" stroke="black" stroke-width="0.1" />
<line x1="96.000000" y1="0.000000" x2="96.000000" y2="259.000000" stroke="black" stroke-width="0.1" stroke-dasharray="2 2" />
<line x1="0.000000" y1="259.000000" x2="96.000000" y2="259.000000" stroke="black" stroke-width="0.1" stroke-dasharray="2 2" />
<line x1="96.000000" y1="0.000000" x2="192.000000" y2="0.000000" stroke="black" stroke-width="0.1" stroke-dasharray="2 2" />
<line x1="48.000000" y1="7.000000" x2="41.000000" y2="0.000000" stroke="black" stroke-width="0.1" stroke-dasharray="2 2" />
<line x1="48.000000" y1="7.000000" x2="55.000000" y2="0.000000" stroke="black" stroke-width="0.1" stroke-dasharray="2 2" />
<line x1="144.000000" y1="253.000000" x2="138.000000" y2="259.000000" stroke="black" stroke-width="0.1" stroke-dasharray="2 2" />
<line x1="144.000000" y1="253.000000" x2="150.000000" y2="259.000000" stroke="black" stroke-width="0.1" stroke-dasharray="2 2" />
<text x="83.000000" y="130.000000" font-family="Arial" font-size="8" text-anchor="middle" dominant-baseline="middle" transform="rotate(90 83.000000 130.000000)" >Tyrolia Attack Demo, Heel</text>
<text x="179.000000" y="130.000000" font-family="Arial" font-size="8" text-anchor="middle" dominant-baseline="middle" transform="rotate(90 179.000000 130.000000)" >Tyrolia Attack Demo, Toe</text>
<line x1="104.000000" y1="165.000000" x2="104.000000" y2="255.000000" stroke="black" stroke-width="0.1" />
<line x1="101.500000" y1="165.000000" x2="106.500000" y2="165.000000" stroke="black" stroke-width="0.1" />
<line x1="104.000000" y1="165.000000" x2="101.500000" y2="167.500000" stroke="black" stroke-width="0.1" />
<line x1="104.000000" y1="165.000000" x2="106.500000" y2="167.500000" stroke="black" stroke-width="0.1" />
<line x1="101.500000" y1="255.000000" x2="106.500000" y2="255.000000" stroke="black" stroke-width="0.1" />
<line x1="104.000000" y1="255.000000" x2="101.500000" y2="252.500000" stroke="black" stroke-width="0.1" />
<line x1="104.000000" y1="255.000000" x2="106.500000" y2="252.500000" stroke="black" stroke-width="0.1" />
<text x="106.500000" y="210.000000" font-family="Arial" font-size="4" text-anchor="middle" dominant-baseline="middle" transform="rotate(90 106.500000 210.000000)" >90.0 mm</text>
<line x1="114.000000" y1="65.000000" x2="114.000000" y2="165.000000" stroke="black" stroke-width="0.1" />
<line x1="111.500000" y1="65.000000" x2="116.500000" y2="65.000000" stroke="black" stroke-width="0.1" />
<line x1="114.000000" y1="65.000000" x2="111.500000" y2="67.500000" stroke="black" stroke-width="0.1" />
<line x1="114.000000" y1="65.000000" x2="116.500000" y2="67.500000" stroke="black" stroke-width="0.1" />
<line x1="111.500000" y1="165.000000" x2="116.500000" y2="165.000000" stroke="black" stroke-width="0.1" />
<line x1="114.000000" y1="165.000000" x2="111.500000" y2="162.500000" stroke="black" stroke-width="0.1" />
<line x1="114.000000" y1="165.000000" x2="116.500000" y2="162.500000" stroke="black" stroke-width="0.1" />
<text x="116.500000" y="115.000000" font-family="Arial" font-size="4" text-anchor="middle" dominant-baseline="middle" transform="rotate(90 116.500000 115.000000)" >100.0 mm</text>
<line x1="8.000000" y1="5.000000" x2="8.000000" y2="135.000000" stroke="black" stroke-width="0.1" />
<line x1="5.500000" y1="5.000000" x2="10.500000" y2="5.000000" stroke="black" stroke-width="0.1" />
<line x1="8.000000" y1="5.000000" x2="5.500000" y2="7.500000" stroke="black" stroke-width="0.1" />
<line x1="8.000000" y1="5.000000" x2="10.500000" y2="7.500000" stroke="black" stroke-width="0.1" />
<line x1="5.500000" y1="135.000000" x2="10.500000" y2="135.000000" stroke="black" stroke-width="0.1" />
<line x1="8.000000" y1="135.000000" x2="5.500000" y2="132.500000" stroke="black" stroke-width="0.1" />
<line x1="8.000000" y1="135.000000" x2="10.500000" y2="132.500000" stroke="black" stroke-width="0.1" />
<text x="10.500000" y="70.000000" font-family="Arial" font-size="4" text-anchor="middle" dominant-baseline="middle" transform="rotate(90 10.500000 70.000000)" >130.0 mm</text>
<line x1="18.000000" y1="135.000000" x2="18.000000" y2="230.000000" stroke="black" stroke-width="0.1" />
<line x1="15.500000" y1="135.000000" x2="20.500000" y2="135.000000" stroke="black" stroke-width="0.1" />
<line x1="18.000000" y1="135.000000" x2="15.500000" y2="137.500000" stroke="black" stroke-width="0.1" />
<line x1="18.000000" y1="135.000000" x2="20.500000" y2="137.500000" stroke="black" stroke-width="0.1" />
<line x1="15.500000" y1="230.000000" x2="20.500000" y2="230.000000" stroke="black" stroke-width="0.1" />
<line x1="18.000000" y1="230.000000" x2="15.500000" y2="227.500000" stroke="black" stroke-width="0.1" />
<line x1="18.000000" y1="230.000000" x2="20.500000" y2="227.500000" stroke="black" stroke-width="0.1" />
<text x="20.500000" y="182.500000" font-family="Arial" font-size="4" text-anchor="middle" dominant-baseline="middle" transform="rotate(90 20.500000 182.500000)" >95.0 mm</text>
<line x1="127.000000" y1="55.000000" x2="161.000000" y2="55.000000" stroke="black" stroke-width="0.1" />
<line x1="127.000000" y1="52.500000" x2="127.000000" y2="57.500000" stroke="black" stroke-width="0.1" />
<line x1="127.000000" y1="55.000000" x2="129.500000" y2="57.500000" stroke="black" stroke-width="0.1" />
<line x1="127.000000" y1="55.000000" x2="129.500000" y2="52.500000" stroke="black" stroke-width="0.1" />
<line x1="161.000000" y1="52.500000" x2="161.000000" y2="57.500000" stroke="black" stroke-width="0.1" />
<line x1="161.000000" y1="55.000000" x2="158.500000" y2="57.500000" stroke="black" stroke-width="0.1" />
<line x1="161.000000" y1="55.000000" x2="158.500000" y2="52.500000" stroke="black" stroke-width="0.1" />
<text x="149.000000" y="45.000000" font-family="Arial" font-size="4" text-anchor="middle" dominant-baseline="middle" transform="rotate(90 149.000000 45.000000)" >34.0 mm</text>
<line x1="127.000000" y1="155.000000" x2="161.000000" y2="155.000000" stroke="black" stroke-width="0.1" />
<line x1="127.000000" y1="152.500000" x2="127.000000" y2="157.500000" stroke="black" stroke-width="0.1" />
<line x1="127.000000" y1="155.000000" x2="129.500000" y2="157.500000" stroke="black" stroke-width="0.1" />
<line x1="127.000000" y1="155.000000" x2="129.500000" y2="152.500000" stroke="black" stroke-width="0.1" />
<line x1="161.000000" y1="152.500000" x2="161.000000" y2="157.500000" stroke="black" stroke-width="0.1" />
<line x1="161.000000" y1="155.000000" x2="158.500000" y2="157.500000" stroke="black" stroke-width="0.1" />
<line x1="161.000000" y1="155.000000" x2="158.500000" y2="152.500000" stroke="black" stroke-width="0.1" />
<text x="149.000000" y="145.000000" font-family="Arial" font-size="4" text-anchor="middle" dominant-baseline="middle" transform="rotate(90 149.000000 145.000000)" >34.0 mm</text>
<line x1="38.000000" y1="145.000000" x2="58.000000" y2="145.000000" stroke="black" stroke-width="0.1" />
<line x1="38.000000" y1="142.500000" x2="38.000000" y2="147.500000" stroke="black" stroke-width="0.1" />
<line x1="38.000000" y1="145.000000" x2="40.500000" y2="147.500000" stroke="black" stroke-width="0.1" />
<line x1="38.000000" y1="145.000000" x2="40.500000" y2="142.500000" stroke="black" stroke-width="0.1" />
<line x1="58.000000" y1="142.500000" x2="58.000000" y2="147.500000" stroke="black" stroke-width="0.1" />
<line x1="58.000000" y1="145.000000" x2="55.500000" y2="147.500000" stroke="black" stroke-width="0.1" />
<line x1="58.000000" y1="145.000000" x2="55.500000" y2="142.500000" stroke="black" stroke-width="0.1" />
<text x="53.000000" y="155.000000" font-family="Arial" font-size="4" text-anchor="middle" dominant-baseline="middle" transform="rotate(90 53.000000 155.000000)" >20.0 mm</text>
<line x1="26.500000" y1="240.000000" x2="69.500000" y2="240.000000" stroke="black" stroke-width="0.1" />
<line x1="26.500000" y1="237.500000" x2="26.500000" y2="242.500000" stroke="black" stroke-width="0.1" />
<line x1="26.500000" y1="240.000000" x2="29.000000" y2="242.500000" stroke="black" stroke-width="0.1" />
<line x1="26.500000" y1="240.000000" x2="29.000000" y2="237.500000" stroke="black" stroke-width="0.1" />
<line x1="69.500000" y1="237.500000" x2="69.500000" y2="242.500000" stroke="black" stroke-width="0.1" />
<line x1="69.500000" y1="240.000000" x2="67.000000" y2="242.500000" stroke="black" stroke-width="0.1" />
<line x1="69.500000" y1="240.000000" x2="67.000000" y2="237.500000" stroke="black" stroke-width="0.1" />
<text x="53.000000" y="250.000000" font-family="Arial" font-size="4" text-anchor="middle" dominant-baseline="middle" transform="rotate(90 53.000000 250.000000)" >43.0 mm</text>
<circle cx="127.000000" cy="65.000000" r="2.500000" fill="none" stroke="black" stroke-width="0.1" />
<circle cx="127.000000" cy="65.000000" r="0.250000" fill="none" stroke="black" stroke-width="0.1" />
<line x1="126.750000" y1="65.000000" x2="126.500000" y2="65.000000" stroke="black" stroke-width="0.1" />
<line x1="127.250000" y1="65.000000" x2="127.500000" y2="65.000000" stroke="black" stroke-width="0.1" />
<line x1="127.000000" y1="64.750000" x2="127.000000" y2="64.500000" stroke="black" stroke-width="0.1" />
<line x1="127.000000" y1="65.250000" x2="127.000000" y2="65.500000" stroke="black" stroke-width="0.1" />
<line x1="124.000000" y1="65.000000" x2="125.000000" y2="65.000000" stroke="black" stroke-width="0.1" />
<line x1="129.000000" y1="65.000000" x2="130.000000" y2="65.000000" stroke="black" stroke-width="0.1" />
<line x1="127.000000" y1="62.000000" x2="127.000000" y2="63.000000" stroke="black" stroke-width="0.1" />
<line x1="127.000000" y1="67.000000" x2="127.000000" y2="68.000000" stroke="black" stroke-width="0.1" />
<circle cx="161.000000" cy="65.000000" r="2.500000" fill="none" stroke="black" stroke-width="0.1" />
<circle cx="161.000000" cy="65.000000" r="0.250000" fill="none" stroke="black" stroke-width="0.1" />
<line x1="160.750000" y1="65.000000" x2="160.500000" y2="65.000000" stroke="black" stroke-width="0.1" />
<line x1="161.250000" y1="65.000000" x2="161.500000" y2="65.000000" stroke="black" stroke-width="0.1" />
<line x1="161.000000" y1="64.750000" x2="161.000000" y2="64.500000" stroke="black" stroke-width="0.1" />
<line x1="161.000000" y1="65.250000" x2="161.000000" y2="65.500000" stroke="black" stroke-width="0.1" />
<line x1="158.000000" y1="65.000000" x2="159.000000" y2="65.000000" stroke="black" stroke-width="0.1" />
<line x1="163.000000" y1="65.000000" x2="164.000000" y2="65.000000" stroke="black" stroke-width="0.1" />
<line x1="161.000000" y1="62.000000" x2="161.000000" y2="63.000000" stroke="black" stroke-width="0.1" />
<line x1="161.000000" y1="67.000000" x2="161.000000" y2="68.000000" stroke="black" stroke-width="0.1" />
<circle cx="127.000000" cy="165.000000" r="2.500000" fill="none" stroke="black" stroke-width="0.1" />
<circle cx="127.000000" cy="165.000000" r="0.250000" fill="none" stroke="black" stroke-width="0.1" />
<line x1="126.750000" y1="165.000000" x2="126.500000" y2="165.000000" stroke="black" stroke-width="0.1" />
<line x1="127.250000" y1="165.000000" x2="127.500000" y2="165.000000" stroke="black" stroke-width="0.1" />
<line x1="127.000000" y1="164.750000" x2="127.000000" y2="164.500000" stroke="black" stroke-width="0.1" />
<line x1="127.000000" y1="165.250000" x2="127.000000" y2="165.500000" stroke="black" stroke-width="0.1" />
<line x1="124.000000" y1="165.000000" x2="125.000000" y2="165.000000" stroke="black" stroke-width="0.1" />
<line x1="129.000000" y1="165.000000" x2="130.000000" y2="165.000000" stroke="black" stroke-width="0.1" />
<line x1="127.000000" y1="162.000000" x2="127.000000" y2="163.000000" stroke="black" stroke-width="0.1" />
<line x1="127.000000" y1="167.000000" x2="127.000000" y2="168.000000" stroke="black" stroke-width="0.1" />
<circle cx="161.000000" cy="165.000000" r="2.500000" fill="none" stroke="black" stroke-width="0.1" />
<circle cx="161.000000" cy="165.000000" r="0.250000" fill="none" stroke="black" stroke-width="0.1" />
<line x1="160.750000" y1="165.000000" x2="160.500000" y2="165.000000" stroke="black" stroke-width="0.1" />
<line x1="161.250000" y1="165.000000" x2="161.500000" y2="165.000000" stroke="black" stroke-width="0.1" />
<line x1="161.000000" y1="164.750000" x2="161.000000" y2="164.500000" stroke="black" stroke-width="0.1" />
<line x1="161.000000" y1="165.250000" x2="161.000000" y2="165.500000" stroke="black" stroke-width="0.1" />
<line x1="158.000000" y1="165.000000" x2="159.000000" y2="165.000000" stroke="black" stroke-width="0.1" />
<line x1="163.000000" y1="165.000000" x2="164.000000" y2="165.000000" stroke="black" stroke-width="0.1" />
<line x1="161.000000" y1="162.000000" x2="161.000000" y2="163.000000" stroke="black" stroke-width="0.1" />
<line x1="161.000000" y1="167.000000" x2="161.000000" y2="168.000000" stroke="black" stroke-width="0.1" />
<circle cx="38.000000" cy="135.000000" r="2.500000" fill="none" stroke="black" stroke-width="0.1" />
<circle cx="38.000000" cy="135.000000" r="0.250000" fill="none" stroke="black" stroke-width="0.1" />
<line x1="37.750000" y1="135.000000" x2="37.500000" y2="135.000000" stroke="black" stroke-width="0.1" />
<line x1="38.250000" y1="135.000000" x2="38.500000" y2="135.000000" stroke="black" stroke-width="0.1" />
<line x1="38.000000" y1="134.750000" x2="38.000000" y2="134.500000" stroke="black" stroke-width="0.1" />
<line x1="38.000000" y1="135.250000" x2="38.000000" y2="135.500000" stroke="black" stroke-width="0.1" />
<line x1="35.000000" y1="135.000000" x2="36.000000" y2="135.000000" stroke="black" stroke-width="0.1" />
<line x1="40.000000" y1="135.000000" x2="41.000000" y2="135.000000" stroke="black" stroke-width="0.1" />
<line x1="38.000000" y1="132.000000" x2="38.000000" y2="133.000000" stroke="black" stroke-width="0.1" />
<line x1="38.000000" y1="137.000000" x2="38.000000" y2="138.000000" stroke="black" stroke-width="0.1" />
<circle cx="58.000000" cy="135.000000" r="2.500000" fill="none" stroke="black" stroke-width="0.1" />
<circle cx="58.000000" cy="135.000000" r="0.250000" fill="none" stroke="black" stroke-width="0.1" />
<line x1="57.750000" y1="135.000000" x2="57.500000" y2="135.000000" stroke="black" stroke-width="0.1" />
<line x1="58.250000" y1="135.000000" x2="58.500000" y2="135.000000" stroke="black" stroke-width="0.1" />
<line x1="58.000000" y1="134.750000" x2="58.000000" y2="134.500000" stroke="black" stroke-width="0.1" />
<line x1="58.000000" y1="135.250000" x2="58.000000" y2="135.500000" stroke="black" stroke-width="0.1" />
<line x1="55.000000" y1="135.000000" x2="56.000000" y2="135.000000" stroke="black" stroke-width="0.1" />
<line x1="60.000000" y1="135.000000" x2="61.000000" y2="135.000000" stroke="black" stroke-width="0.1" />
<line x1="58.000000" y1="132.000000" x2="58.000000" y2="133.000000" stroke="black" stroke-width="0.1" />
<line x1="58.000000" y1="137.000000" x2="58.000000" y2="138.000000" stroke="black" stroke-width="0.1" />
<circle cx="26.500000" cy="230.000000" r="2.500000" fill="none" stroke="black" stroke-width="0.1" />
<circle cx="26.500000" cy="230.000000" r="0.250000" fill="none" stroke="black" stroke-width="0.1" />
<line x1="26.250000" y1="230.000000" x2="26.000000" y2="230.000000" stroke="black" stroke-width="0.1" />
<line x1="26.750000" y1="230.000000" x2="27.000000" y2="230.000000" stroke="black" stroke-width="0.1" />
<line x1="26.500000" y1="229.750000" x2="26.500000" y2="229.500000" stroke="black" stroke-width="0.1" />
<line x1="26.500000" y1="230.250000" x2="26.500000" y2="230.500000" stroke="black" stroke-width="0.1" />
<line x1="23.500000" y1="230.000000" x2="24.500000" y2="230.000000" stroke="black" stroke-width="0.1" />
<line x1="28.500000" y1="230.000000" x2="29.500000" y2="230.000000" stroke="black" stroke-width="0.1" />
<line x1="26.500000" y1="227.000000" x2="26.500000" y2="228.000000" stroke="black" stroke-width="0.1" />
<line x1="26.500000" y1="232.000000" x2="26.500000" y2="233.000000" stroke="black" stroke-width="0.1" />
<circle cx="69.500000" cy="230.000000" r="2.500000" fill="none" stroke="black" stroke-width="0.1" />
<circle cx="69.500000" cy="230.000000" r="0.250000" fill="none" stroke="black" stroke-width="0.1" />
<line x1="69.250000" y1="230.000000" x2="69.000000" y2="230.000000" stroke="black" stroke-width="0.1" />
<line x1="69.750000" y1="230.000000" x2="70.000000" y2="230.000000" stroke="black" stroke-width="0.1" />
<line x1="69.500000" y1="229.750000" x2="69.500000" y2="229.500000" stroke="black" stroke-width="0.1" />
<line x1="69.500000" y1="230.250000" x2="69.500000" y2="230.500000" stroke="black" stroke-width="0.1" />
<line x1="66.500000" y1="230.000000" x2="67.500000" y2="230.000000" stroke="black" stroke-width="0.1" />
<line x1="71.500000" y1="230.000000" x2="72.500000" y2="230.000000" stroke="black" stroke-width="0.1" />
<line x1="69.500000" y1="227.000000" x2="69.500000" y2="228.000000" stroke="black" stroke-width="0.1" />
<line x1="69.500000" y1="232.000000" x2="69.500000" y2="233.000000" stroke="black" stroke-width="0.1" />
<text x="73.000000" y="25.000000" font-family="Arial" font-size="4" text-anchor="middle" dominant-baseline="middle" transform="rotate(90 73.000000 25.000000)" >Mid Sole Mount Line</text>
<text x="169.000000" y="235.000000" font-family="Arial" font-size="4" text-anchor="middle" dominant-baseline="middle" transform="rotate(90 169.000000 235.000000)" >Mid Sole Mount Line</text>
<text x="43.000000" y="235.000000" font-family="Arial" font-size="4" text-anchor="middle" dominant-baseline="middle" transform="rotate(90 43.000000 235.000000)" >Ski Center Line</text>
<text x="139.000000" y="25.000000" font-family="Arial" font-size="4" text-anchor="middle" dominant-baseline="middle" transform="rotate(90 139.000000 25.000000)" >Ski Center Line</text>
</svg>