<?xml version="1.0"?>
<!DOCTYPE svg PUBLIC "-//W3C//DTD SVG 1.1//EN"
"http://www.w3.org/Graphics/SVG/1.1/DTD/svg11.dtd">
<svg xmlns="http://www.w3.org/2000/svg" version="1.2" width="192.000000mm" height="259.000000mm" viewBox="0 0 192.000000 259.000000" style="background-color:white" >
<line x1="48.000000" y1="0.000000" x2="48.000000" y2="259.000000" stroke="black" stroke-width="0.1" />
<line x1="144.000000" y1="0.000000" x2="144.000000" y2="259.000000" stroke="black" stroke-width="0.1" />
<line x1="104.000000" y1="255.000000" x2="184.000000" y2="255.000000" stroke="black" stroke-width="0.1" />
<line x1="8.000000" y1="5.000000" x2="88.000000" y2="5.000000" stroke="black" stroke-width="0.1" />
<line x1="96.000000" y1="0.000000" x2="96.000000" y2="259.000000" stroke="black" stroke-width="0.1" stroke-dasharray="2 2" />
<line x1="0.000000" y1="259.000000" x2="96.000000" y2="259.000000" stroke="black" stroke-width="0.1" stroke-dasharray="2 2" />
<line x1="96.000000" y1="0.000000" x2="192.000000" y2="0.000000" stroke="black" stroke-width="0.1" stroke-dasharray="2 2" />
<line x1="48.000000" y1="7.000000" x2="41.000000" y2="0.000000" stroke="black" stroke-width="0.1" stroke-dasharray="2 2" />
<line x1="48.000000" y1="7.000000" x2="55.000000" y2="0.000000" stroke="black" stroke-width="0.1" stroke-dasharray="2 2" />
<line x1="144.000000" y1="253.000000" x2="138.000000" y2="259.000000" stroke="black" stroke-width="0.1" stroke-dasharray="2 2" />
<line x1="144.000000" y1="253.000000" x2="150.000000" y2="259.000000" stroke="black" stroke-width="0.1" stroke-dasharray="2 2" />
<text x="83.000000" y="130.000000" font-family="Arial" font-size="8" text-anchor="middle" dominant-baseline="middle" transform="rotate(90 83.000000 130.000000)" >Tyrolia PowerRail (PR), Heel</text>
<text x="179.000000" y="130.000000" font-family="Arial" font-size="8" text-anchor="middle" dominant-baseline="middle" transform="rotate(90 179.000000 130.000000)" >Tyrolia PowerRail (PR), Toe</text>
<line x1="104.000000" y1="155.000000" x2="104.000000" y2="255.000000" stroke="black" stroke-width="0.1" />
<line x1="101.500000" y1="155.000000" x2="106.500000" y2="155.000000" stroke="black" stroke-width="0.1" />
<line x1="104.000000" y1="155.000000" x2="101.500000" y2="157.500000" stroke="black" stroke-width="0.1" />
<line x1="104.000000" y1="155.000000" x2="106.500000" y2="157.500000" stroke="black" stroke-width="0.1" />
<line x1="101.500000" y1="255.000000" x2="106.500000" y2="255.000000" stroke="black" stroke-width="0.1" />
<line x1="104.000000" y1="255.000000" x2="101.500000" y2="252.500000" stroke="black" stroke-width="0.1" />
<line x1="104.000000" y1="255.000000" x2="106.500000" y2="252.500000" stroke="black" stroke-width="0.1" />
<text x="106.500000" y="205.000000" font-family="Arial" font-size="4" text-anchor="middle" dominant-baseline="middle" transform="rotate(90 106.500000 205.000000)" >100.0 mm</text>
<line x1="114.000000" y1="55.000000" x2="114.000000" y2="155.000000" stroke="black" stroke-width="0.1" />
<line x1="111.500000" y1="55.000000" x2="116.500000" y2="55.000000" stroke="black" stroke-width="0.1" />
<line x1="114.000000" y1="55.000000" x2="111.500000" y2="57.500000" stroke="black" stroke-width="0.1" />
<line x1="114.000000" y1="55.000000" x2="116.500000" y2="57.500000" stroke="black" stroke-width="0.1" />
<line x1="111.500000" y1="155.000000" x2="116.500000" y2="155.000000" stroke="black" stroke-width="0.1" />
<line x1="114.000000" y1="155.000000" x2="111.500000" y2="152.500000" stroke="black" stroke-width="0.1" />
<line x1="114.000000" y1="155.000000" x2="116.500000" y2="152.500000" stroke="black" stroke-width="0.1" />
<text x="116.500000" y="105.000000" font-family="Arial" font-size="4" text-anchor="middle" dominant-baseline="middle" transform="rotate(90 116.500000 105.000000)" >100.0 mm</text>
<line x1="8.000000" y1="5.000000" x2="8.000000" y2="105.000000" stroke="black" stroke-width="0.1" />
<line x1="5.500000" y1="5.000000" x2="10.500000" y2="5.000000" stroke="black" stroke-width="0.1" />
<line x1="8.000000" y1="5.000000" x2="5.500000" y2="7.500000" stroke="black" stroke-width="0.1" />
<line x1="8.000000" y1="5.000000" x2="10.500000" y2="7.500000" stroke="black" stroke-width="0.1" />
<line x1="5.500000" y1="105.000000" x2="10.500000" y2="105.000000" stroke="black" stroke-width="0.1" />
<line x1="8.000000" y1="105.000000" x2="5.500000" y2="102.500000" stroke="black" stroke-width="0.1" />
<line x1="8.000000" y1="105.000000" x2="10.500000" y2="102.500000" stroke="black" stroke-width="0.1" />
<text x="10.500000" y="55.000000" font-family="Arial" font-size="4" text-anchor="middle" dominant-baseline="middle" transform="rotate(90 10.500000 55.000000)" >100.0 mm</text>
<line x1="18.000000" y1="105.000000" x2="18.000000" y2="205.000000" stroke="black" stroke-width="0.1" />
<line x1="15.500000" y1="105.000000" x2="20.500000" y2="105.000000" stroke="black" stroke-width="0.1" />
<line x1="18.000000" y1="105.000000" x2="15.500000" y2="107.500000" stroke="black" stroke-width="0.1" />
<line x1="18.000000" y1="105.000000" x2="20.500000" y2="107.500000" stroke="black" stroke-width="0.1" />
<line x1="15.500000" y1="205.000000" x2="20.500000" y2="205.000000" stroke="black" stroke-width="0.1" />
<line x1="18.000000" y1="205.000000" x2="15.500000" y2="202.500000" stroke="black" stroke-width="0.1" />
<line x1="18.000000" y1="205.000000" x2="20.500000" y2="202.500000" stroke="black" stroke-width="0.1" />
<text x="20.500000" y="155.000000" font-family="Arial" font-size="4" text-anchor="middle" dominant-baseline="middle" transform="rotate(90 20.500000 155.000000)" >100.0 mm</text>
<line x1="129.000000" y1="145.000000" x2="159.000000" y2="145.000000" stroke="black" stroke-width="0.1" />
<line x1="129.000000" y1="142.500000" x2="129.000000" y2="147.500000" stroke="black" stroke-width="0.1" />
<line x1="129.000000" y1="145.000000" x2="131.500000" y2="147.500000" stroke="black" stroke-width="0.1" />
<line x1="129.000000" y1="145.000000" x2="131.500000" y2="142.500000" stroke="black" stroke-width="0.1" />
<line x1="159.000000" y1="142.500000" x2="159.000000" y2="147.500000" stroke="black" stroke-width="0.1" />
<line x1="159.000000" y1="145.000000" x2="156.500000" y2="147.500000" stroke="black" stroke-width="0.1" />
<line x1="159.000000" y1="145.000000" x2="156.500000" y2="142.500000" stroke="black" stroke-width="0.1" />
<text x="149.000000" y="135.000000" font-family="Arial" font-size="4" text-anchor="middle" dominant-baseline="middle" transform="rotate(90 149.000000 135.000000)" >30.0 mm</text>
<line x1="129.000000" y1="45.000000" x2="159.000000" y2="45.000000" stroke="black" stroke-width="0.1" />
<line x1="129.000000" y1="42.500000" x2="129.000000" y2="47.500000" stroke="black" stroke-width="0.1" />
<line x1="129.000000" y1="45.000000" x2="131.500000" y2="47.500000" stroke="black" stroke-width="0.1" />
<line x1="129.000000" y1="45.000000" x2="131.500000" y2="42.500000" stroke="black" stroke-width="0.1" />
<line x1="159.000000" y1="42.500000" x2="159.000000" y2="47.500000" stroke="black" stroke-width="0.1" />
<line x1="159.000000" y1="45.000000" x2="156.500000" y2="47.500000" stroke="black" stroke-width="0.1" />
<line x1="159.000000" y1="45.000000" x2="156.500000" y2="42.500000" stroke="black" stroke-width="0.1" />
<text x="149.000000" y="35.000000" font-family="Arial" font-size="4" text-anchor="middle" dominant-baseline="middle" transform="rotate(90 149.000000 35.000000)" >30.0 mm</text>
<line x1="33.000000" y1="115.000000" x2="63.000000" y2="115.000000" stroke="black" stroke-width="0.1" />
<line x1="33.000000" y1="112.500000" x2="33.000000" y2="117.500000" stroke="black" stroke-width="0.1" />
<line x1="33.000000" y1="115.000000" x2="35.500000" y2="117.500000" stroke="black" stroke-width="0.1" />
<line x1="33.000000" y1="115.000000" x2="35.500000" y2="112.500000" stroke="black" stroke-width="0.1" />
<line x1="63.000000" y1="112.500000" x2="63.000000" y2="117.500000" stroke="black" stroke-width="0.1" />
<line x1="63.000000" y1="115.000000" x2="60.500000" y2="117.500000" stroke="black" stroke-width="0.1" />
<line x1="63.000000" y1="115.000000" x2="60.500000" y2="112.500000" stroke="black" stroke-width="0.1" />
<text x="53.000000" y="125.000000" font-family="Arial" font-size="4" text-anchor="middle" dominant-baseline="middle" transform="rotate(90 53.000000 125.000000)" >30.0 mm</text>
<line x1="33.000000" y1="215.000000" x2="63.000000" y2="215.000000" stroke="black" stroke-width="0.1" />
<line x1="33.000000" y1="212.500000" x2="33.000000" y2="217.500000" stroke="black" stroke-width="0.1" />
<line x1="33.000000" y1="215.000000" x2="35.500000" y2="217.500000" stroke="black" stroke-width="0.1" />
<line x1="33.000000" y1="215.000000" x2="35.500000" y2="212.500000" stroke="black" stroke-width="0.1" />
<line x1="63.000000" y1="212.500000" x2="63.000000" y2="217.500000" stroke="black" stroke-width="0.1" />
<line x1="63.000000" y1="215.000000" x2="60.500000" y2="217.500000" stroke="black" stroke-width="0.1" />
<line x1="63.000000" y1="215.000000" x2="60.500000" y2="212.500000" stroke="black" stroke-width="0.1" />
<text x="53.000000" y="225.000000" font-family="Arial" font-size="4" text-anchor="middle" dominant-baseline="middle" transform="rotate(90 53.000000 225.000000)" >30.0 mm</text>
<circle cx="129.000000" cy="155.000000" r="2.500000" fill="none" stroke="black" stroke-width="0.1" />
<circle cx="129.000000" cy="155.000000" r="0.250000" fill="none" stroke="black" stroke-width="0.1" />
<line x1="128.750000" y1="155.000000" x2="128.500000" y2="155.000000" stroke="black" stroke-width="0.1" />
<line x1="129.250000" y1="155.000000" x2="129.500000" y2="155.000000" stroke="black" stroke-width="0.1" />
<line x1="129.000000" y1="154.750000" x2="129.000000" y2="154.500000" stroke="black" stroke-width="0.1" />
<line x1="129.000000" y1="155.250000" x2="129.000000" y2="155.500000" stroke="black" stroke-width="0.1" />
<line x1="126.000000" y1="155.000000" x2="127.000000" y2="155.000000" stroke="black" stroke-width="0.1" />
<line x1="131.000000" y1="155.000000" x2="132.000000" y2="155.000000" stroke="black" stroke-width="0.1" />
<line x1="129.000000" y1="152.000000" x2="129.000000" y2="153.000000" stroke="black" stroke-width="0.1" />
<line x1="129.000000" y1="157.000000" x2="129.000000" y2="158.000000" stroke="black" stroke-width="0.1" />
<circle cx="159.000000" cy="155.000000" r="2.500000" fill="none" stroke="black" stroke-width="0.1" />
<circle cx="159.000000" cy="155.000000" r="0.250000" fill="none" stroke="black" stroke-width="0.1" />
<line x1="158.750000" y1="155.000000" x2="158.500000" y2="155.000000" stroke="black" stroke-width="0.1" />
<line x1="159.250000" y1="155.000000" x2="159.500000" y2="155.000000" stroke="black" stroke-width="0.1" />
<line x1="159.000000" y1="154.750000" x2="159.000000" y2="154.500000" stroke="black" stroke-width="0.1" />
<line x1="159.000000" y1="155.250000" x2="159.000000" y2="155.500000" stroke="black" stroke-width="0.1" />
<line x1="156.000000" y1="155.000000" x2="157.000000" y2="155.000000" stroke="black" stroke-width="0.1" />
<line x1="161.000000" y1="155.000000" x2="162.000000" y2="155.000000" stroke="black" stroke-width="0.1" />
<line x1="159.000000" y1="152.000000" x2="159.000000" y2="153.000000" stroke="black" stroke-width="0.1" />
<line x1="159.000000" y1="157.000000" x2="159.000000" y2="158.000000" stroke="black" stroke-width="0.1" />
<circle cx="129.000000" cy="55.000000" r="2.500000" fill="none" stroke="black" stroke-width="0.1" />
<circle cx="129.000000" cy="55.000000" r="0.250000" fill="none" stroke="black" stroke-width="0.1" />
<line x1="128.750000" y1="55.000000" x2="128.500000" y2="55.000000" stroke="black" stroke-width="0.1" />
<line x1="129.250000" y1="55.000000" x2="129.500000" y2="55.000000" stroke="black" stroke-width="0.1" />
<line x1="129.000000" y1="54.750000" x2="129.000000" y2="54.500000" stroke="black" stroke-width="0.1" />
<line x1="129.000000" y1="55.250000" x2="129.000000" y2="55.500000" stroke="black" stroke-width="0.1" />
<line x1="126.000000" y1="55.000000" x2="127.000000" y2="55.000000" stroke="black" stroke-width="0.1" />
<line x1="131.000000" y1="55.000000" x2="132.000000" y2="55.000000" stroke="black" stroke-width="0.1" />
<line x1="129.000000" y1="52.000000" x2="129.000000" y2="53.000000" stroke="black" stroke-width="0.1" />
<line x1="129.000000" y1="57.000000" x2="129.000000" y2="58.000000" stroke="black" stroke-width="0.1" />
<circle cx="159.000000" cy="55.000000" r="2.500000" fill="none" stroke="black" stroke-width="0.1" />
<circle cx="159.000000" cy="55.000000" r="0.250000" fill="none" stroke="black" stroke-width="0.1" />
<line x1="158.750000" y1="55.000000" x2="158.500000" y2="55.000000" stroke="black" stroke-width="0.1" />
<line x1="159.250000" y1="55.000000" x2="159.500000" y2="55.000000" stroke="black" stroke-width="0.1" />
<line x1="159.000000" y1="54.750000" x2="159.000000" y2="54.500000" stroke="black" stroke-width="0.1" />
<line x1="159.000000" y1="55.250000" x2="159.000000" y2="55.500000" stroke="black" stroke-width="0.1" />
<line x1="156.000000" y1="55.000000" x2="157.000000" y2="55.000000" stroke="black" stroke-width="0.1" />
<line x1="161.000000" y1="55.000000" x2="162.000000" y2="55.000000" stroke="black" stroke-width="0.1" />
<line x1="159.000000" y1="52.000000" x2="159.000000" y2="53.000000" stroke="black" stroke-width="0.1" />
<line x1="159.000000" y1="57.000000" x2="159.000000" y2="58.000000" stroke="black" stroke-width="0.1" />
<circle cx="33.000000" cy="105.000000" r="2.500000" fill="none" stroke="black" stroke-width="0.1" />
<circle cx="33.000000" cy="105.000000" r="0.250000" fill="none" stroke="black" stroke-width="0.1" />
<line x1="32.750000" y1="105.000000" x2="32.500000" y2="105.000000" stroke="black" stroke-width="0.1" />
<line x1="33.250000" y1="105.000000" x2="33.500000" y2="105.000000" stroke="black" stroke-width="0.1" />
<line x1="33.000000" y1="104.750000" x2="33.000000" y2="104.500000" stroke="black" stroke-width="0.1" />
<line x1="33.000000" y1="105.250000" x2="33.000000" y2="105.500000" stroke="black" stroke-width="0.1" />
<line x1="30.000000" y1="105.000000" x2="31.000000" y2="105.000000" stroke="black" stroke-width="0.1" />
<line x1="35.000000" y1="105.000000" x2="36.000000" y2="105.000000" stroke="black" stroke-width="0.1" />
<line x1="33.000000" y1="102.000000" x2="33.000000" y2="103.000000" stroke="black" stroke-width="0.1" />
<line x1="33.000000" y1="107.000000" x2="33.000000" y2="108.000000" stroke="black" stroke-width="0.1" />
<circle cx="63.000000" cy="105.000000" r="2.500000" fill="none" stroke="black" stroke-width="0.1" />
<circle cx="63.000000" cy="105.000000" r="0.250000" fill="none" stroke="black" stroke-width="0.1" />
<line x1="62.750000" y1="105.000000" x2="62.500000" y2="105.000000" stroke="black" stroke-width="0.1" />
<line x1="63.250000" y1="105.000000" x2="63.500000" y2="105.000000" stroke="black" stroke-width="0.1" />
<line x1="63.000000" y1="104.750000" x2="63.000000" y2="104.500000" stroke="black" stroke-width="0.1" />
<line x1="63.000000" y1="105.250000" x2="63.000000" y2="105.500000" stroke="black" stroke-width="0.1" />
<line x1="60.000000" y1="105.000000" x2="61.000000" y2="105.000000" stroke="black" stroke-width="0.1" />
<line x1="65.000000" y1="105.000000" x2="66.000000" y2="105.000000" stroke="black" stroke-width="0.1" />
<line x1="63.000000" y1="102.000000" x2="63.000000" y2="103.000000" stroke="black" stroke-width="0.1" />
<line x1="63.000000" y1="107.000000" x2="63.000000" y2="108.000000" stroke="black" stroke-width="0.1" />
<circle cx="33.000000" cy="205.000000" r="2.500000" fill="none" stroke="black" stroke-width="0.1" />
<circle cx="33.000000" cy="205.000000" r="0.250000" fill="none" stroke="black" stroke-width="0.1" />
<line x1="32.750000" y1="205.000000" x2="32.500000" y2="205.000000" stroke="black" stroke-width="0.1" />
<line x1="33.250000" y1="205.000000" x2="33.500000" y2="205.000000" stroke="black" stroke-width="0.1" />
<line x1="33.000000" y1="204.750000" x2="33.000000" y2="204.500000" stroke="black" stroke-width="0.1" />
<line x1="33.000000" y1="205.250000" x2="33.000000" y2="205.500000" stroke="black" stroke-width="0.1" />
<line x1="30.000000" y1="205.000000" x2="31.000000" y2="205.000000" stroke="black" stroke-width="0.1" />
<line x1="35.000000" y1="205.000000" x2="36.000000" y2="205.000000" stroke="black" stroke-width="0.1" />
<line x1="33.000000" y1="202.000000" x2="33.000000" y2="203.000000" stroke="black" stroke-width="0.1" />
<line x1="33.000000" y1="207.000000" x2="33.000000" y2="208.000000" stroke="black" stroke-width="0.1" />
<circle cx="63.000000" cy="205.000000" r="2.500000" fill="none" stroke="black" stroke-width="0.1" />
<circle cx="63.000000" cy="205.000000" r="0.250000" fill="none" stroke="black" stroke-width="0.1" />
<line x1="62.750000" y1="205.000000" x2="62.500000" y2="205.000000" stroke="black" stroke-width="0.1" />
<line x1="63.250000" y1="205.000000" x2="63.500000" y2="205.000000" stroke="black" stroke-width="0.1" />
<line x1="63.000000" y1="204.750000" x2="63.000000" y2="204.500000" stroke="black" stroke-width="0.1" />
<line x1="63.000000" y1="205.250000" x2="63.000000" y2="205.500000" stroke="black" stroke-width="0.1" />
<line x1="60.000000" y1="205.000000" x2="61.000000" y2="205.000000" stroke="black" stroke-width="0.1" />
<line x1="65.000000" y1="205.000000" x2="66.000000" y2="205.000000" stroke="black" stroke-width="0.1" />
<line x1="63.000000" y1="202.000000" x2="63.000000" y2="203.000000" stroke="black" stroke-width="0.1" />
<line x1="63.000000" y1="207.000000" x2="63.000000" y2="208.000000" stroke="black" stroke-width="0.1" />
<text x="73.000000" y="25.000000" font-family="Arial" font-size="4" text-anchor="middle" dominant-baseline="middle" transform="rotate(90 73.000000 25.000000)" >Mid Sole Mount Line</text>
<text x="169.000000" y="235.000000" font-family="Arial" font-size="4" text-anchor="middle" dominant-baseline="middle" transform="rotate(90 169.000000 235.000000)" >Mid Sole Mount Line</text>
<text x="43.000000" y="235.000000" font-family="Arial" font-size="4" text-anchor="middle" dominant-baseline="middle" transform="rotate(90 43.000000 235.000000)" >Ski Center Line</text>
<text x="139.000000" y="25.000000" font-family="Arial" font-size="4" text-anchor="middle" dominant-baseline="middle" transform="rotate(90 139.000000 25.000000)" >Ski Center Line</text>
</svg>