<?xml version="1.0"?>
<!DOCTYPE svg PUBLIC "-//W3C//DTD SVG 1.1//EN"
"http://www.w3.org/Graphics/SVG/1.1/DTD/svg11.dtd">
<svg xmlns="http://www.w3.org/2000/svg" version="1.2" width="192.000000mm" height="259.000000mm" viewBox="0 0 192.000000 259.000000" style="background-color:white" >
<line x1="48.000000" y1="0.000000" x2="48.000000" y2="259.000000" stroke="black" stroke-width="0.1" />
<line x1="144.000000" y1="0.000000" x2="144.000000" y2="259.000000" stroke="black" stroke-width="0.1" />
<line x1="104.000000" y1="255.000000" x2="184.000000" y2="255.000000" stroke="black" stroke-width="0.1" />
<line x1="8.000000" y1="5.000000" x2="88.000000" y2="5.000000" stroke="black" stroke-width="0.1" />
<line x1="96.000000" y1="0.000000" x2="96.000000" y2="259.000000" stroke="black" stroke-width="0.1" stroke-dasharray="2 2" />
<line x1="0.000000" y1="259.000000" x2="96.000000" y2="259.000000" stroke="black" stroke-width="0.1" stroke-dasharray="2 2" />
<line x1="96.000000" y1="0.000000" x2="192.000000" y2="0.000000" stroke="black" stroke-width="0.1" stroke-dasharray="2 2" />
<line x1="48.000000" y1="7.000000" x2="41.000000" y2="0.000000" stroke="black" stroke-width="0.1" stroke-dasharray="2 2" />
<line x1="48.000000" y1="7.000000" x2="55.000000" y2="0.000000" stroke="black" stroke-width="0.1" stroke-dasharray="2 2" />
<line x1="144.000000" y1="253.000000" x2="138.000000" y2="259.000000" stroke="black" stroke-width="0.1" stroke-dasharray="2 2" />
<line x1="144.000000" y1="253.000000" x2="150.000000" y2="259.000000" stroke="black" stroke-width="0.1" stroke-dasharray="2 2" />
<text x="83.000000" y="130.000000" font-family="Arial" font-size="8" text-anchor="middle" dominant-baseline="middle" transform="rotate(90 83.000000 130.000000)" >Tyrolia SuperLiteRail XS (SLR), Heel</text>
<text x="179.000000" y="130.000000" font-family="Arial" font-size="8" text-anchor="middle" dominant-baseline="middle" transform="rotate(90 179.000000 130.000000)" >Tyrolia SuperLiteRail XS (SLR), Toe</text>
<line x1="104.000000" y1="173.000000" x2="104.000000" y2="255.000000" stroke="black" stroke-width="0.1" />
<line x1="101.500000" y1="173.000000" x2="106.500000" y2="173.000000" stroke="black" stroke-width="0.1" />
<line x1="104.000000" y1="173.000000" x2="101.500000" y2="175.500000" stroke="black" stroke-width="0.1" />
<line x1="104.000000" y1="173.000000" x2="106.500000" y2="175.500000" stroke="black" stroke-width="0.1" />
<line x1="101.500000" y1="255.000000" x2="106.500000" y2="255.000000" stroke="black" stroke-width="0.1" />
<line x1="104.000000" y1="255.000000" x2="101.500000" y2="252.500000" stroke="black" stroke-width="0.1" />
<line x1="104.000000" y1="255.000000" x2="106.500000" y2="252.500000" stroke="black" stroke-width="0.1" />
<text x="106.500000" y="214.000000" font-family="Arial" font-size="4" text-anchor="middle" dominant-baseline="middle" transform="rotate(90 106.500000 214.000000)" >82.0 mm</text>
<line x1="114.000000" y1="88.000000" x2="114.000000" y2="173.000000" stroke="black" stroke-width="0.1" />
<line x1="111.500000" y1="88.000000" x2="116.500000" y2="88.000000" stroke="black" stroke-width="0.1" />
<line x1="114.000000" y1="88.000000" x2="111.500000" y2="90.500000" stroke="black" stroke-width="0.1" />
<line x1="114.000000" y1="88.000000" x2="116.500000" y2="90.500000" stroke="black" stroke-width="0.1" />
<line x1="111.500000" y1="173.000000" x2="116.500000" y2="173.000000" stroke="black" stroke-width="0.1" />
<line x1="114.000000" y1="173.000000" x2="111.500000" y2="170.500000" stroke="black" stroke-width="0.1" />
<line x1="114.000000" y1="173.000000" x2="116.500000" y2="170.500000" stroke="black" stroke-width="0.1" />
<text x="116.500000" y="130.500000" font-family="Arial" font-size="4" text-anchor="middle" dominant-baseline="middle" transform="rotate(90 116.500000 130.500000)" >85.0 mm</text>
<line x1="8.000000" y1="5.000000" x2="8.000000" y2="107.000000" stroke="black" stroke-width="0.1" />
<line x1="5.500000" y1="5.000000" x2="10.500000" y2="5.000000" stroke="black" stroke-width="0.1" />
<line x1="8.000000" y1="5.000000" x2="5.500000" y2="7.500000" stroke="black" stroke-width="0.1" />
<line x1="8.000000" y1="5.000000" x2="10.500000" y2="7.500000" stroke="black" stroke-width="0.1" />
<line x1="5.500000" y1="107.000000" x2="10.500000" y2="107.000000" stroke="black" stroke-width="0.1" />
<line x1="8.000000" y1="107.000000" x2="5.500000" y2="104.500000" stroke="black" stroke-width="0.1" />
<line x1="8.000000" y1="107.000000" x2="10.500000" y2="104.500000" stroke="black" stroke-width="0.1" />
<text x="10.500000" y="56.000000" font-family="Arial" font-size="4" text-anchor="middle" dominant-baseline="middle" transform="rotate(90 10.500000 56.000000)" >102.0 mm</text>
<line x1="18.000000" y1="107.000000" x2="18.000000" y2="192.000000" stroke="black" stroke-width="0.1" />
<line x1="15.500000" y1="107.000000" x2="20.500000" y2="107.000000" stroke="black" stroke-width="0.1" />
<line x1="18.000000" y1="107.000000" x2="15.500000" y2="109.500000" stroke="black" stroke-width="0.1" />
<line x1="18.000000" y1="107.000000" x2="20.500000" y2="109.500000" stroke="black" stroke-width="0.1" />
<line x1="15.500000" y1="192.000000" x2="20.500000" y2="192.000000" stroke="black" stroke-width="0.1" />
<line x1="18.000000" y1="192.000000" x2="15.500000" y2="189.500000" stroke="black" stroke-width="0.1" />
<line x1="18.000000" y1="192.000000" x2="20.500000" y2="189.500000" stroke="black" stroke-width="0.1" />
<text x="20.500000" y="149.500000" font-family="Arial" font-size="4" text-anchor="middle" dominant-baseline="middle" transform="rotate(90 20.500000 149.500000)" >85.0 mm</text>
<line x1="131.500000" y1="163.000000" x2="156.500000" y2="163.000000" stroke="black" stroke-width="0.1" />
<line x1="131.500000" y1="160.500000" x2="131.500000" y2="165.500000" stroke="black" stroke-width="0.1" />
<line x1="131.500000" y1="163.000000" x2="134.000000" y2="165.500000" stroke="black" stroke-width="0.1" />
<line x1="131.500000" y1="163.000000" x2="134.000000" y2="160.500000" stroke="black" stroke-width="0.1" />
<line x1="156.500000" y1="160.500000" x2="156.500000" y2="165.500000" stroke="black" stroke-width="0.1" />
<line x1="156.500000" y1="163.000000" x2="154.000000" y2="165.500000" stroke="black" stroke-width="0.1" />
<line x1="156.500000" y1="163.000000" x2="154.000000" y2="160.500000" stroke="black" stroke-width="0.1" />
<text x="149.000000" y="153.000000" font-family="Arial" font-size="4" text-anchor="middle" dominant-baseline="middle" transform="rotate(90 149.000000 153.000000)" >25.0 mm</text>
<line x1="131.500000" y1="78.000000" x2="156.500000" y2="78.000000" stroke="black" stroke-width="0.1" />
<line x1="131.500000" y1="75.500000" x2="131.500000" y2="80.500000" stroke="black" stroke-width="0.1" />
<line x1="131.500000" y1="78.000000" x2="134.000000" y2="80.500000" stroke="black" stroke-width="0.1" />
<line x1="131.500000" y1="78.000000" x2="134.000000" y2="75.500000" stroke="black" stroke-width="0.1" />
<line x1="156.500000" y1="75.500000" x2="156.500000" y2="80.500000" stroke="black" stroke-width="0.1" />
<line x1="156.500000" y1="78.000000" x2="154.000000" y2="80.500000" stroke="black" stroke-width="0.1" />
<line x1="156.500000" y1="78.000000" x2="154.000000" y2="75.500000" stroke="black" stroke-width="0.1" />
<text x="149.000000" y="68.000000" font-family="Arial" font-size="4" text-anchor="middle" dominant-baseline="middle" transform="rotate(90 149.000000 68.000000)" >25.0 mm</text>
<line x1="35.500000" y1="117.000000" x2="60.500000" y2="117.000000" stroke="black" stroke-width="0.1" />
<line x1="35.500000" y1="114.500000" x2="35.500000" y2="119.500000" stroke="black" stroke-width="0.1" />
<line x1="35.500000" y1="117.000000" x2="38.000000" y2="119.500000" stroke="black" stroke-width="0.1" />
<line x1="35.500000" y1="117.000000" x2="38.000000" y2="114.500000" stroke="black" stroke-width="0.1" />
<line x1="60.500000" y1="114.500000" x2="60.500000" y2="119.500000" stroke="black" stroke-width="0.1" />
<line x1="60.500000" y1="117.000000" x2="58.000000" y2="119.500000" stroke="black" stroke-width="0.1" />
<line x1="60.500000" y1="117.000000" x2="58.000000" y2="114.500000" stroke="black" stroke-width="0.1" />
<text x="53.000000" y="127.000000" font-family="Arial" font-size="4" text-anchor="middle" dominant-baseline="middle" transform="rotate(90 53.000000 127.000000)" >25.0 mm</text>
<line x1="35.500000" y1="202.000000" x2="60.500000" y2="202.000000" stroke="black" stroke-width="0.1" />
<line x1="35.500000" y1="199.500000" x2="35.500000" y2="204.500000" stroke="black" stroke-width="0.1" />
<line x1="35.500000" y1="202.000000" x2="38.000000" y2="204.500000" stroke="black" stroke-width="0.1" />
<line x1="35.500000" y1="202.000000" x2="38.000000" y2="199.500000" stroke="black" stroke-width="0.1" />
<line x1="60.500000" y1="199.500000" x2="60.500000" y2="204.500000" stroke="black" stroke-width="0.1" />
<line x1="60.500000" y1="202.000000" x2="58.000000" y2="204.500000" stroke="black" stroke-width="0.1" />
<line x1="60.500000" y1="202.000000" x2="58.000000" y2="199.500000" stroke="black" stroke-width="0.1" />
<text x="53.000000" y="212.000000" font-family="Arial" font-size="4" text-anchor="middle" dominant-baseline="middle" transform="rotate(90 53.000000 212.000000)" >25.0 mm</text>
<circle cx="131.500000" cy="173.000000" r="2.500000" fill="none" stroke="black" stroke-width="0.1" />
<circle cx="131.500000" cy="173.000000" r="0.250000" fill="none" stroke="black" stroke-width="0.1" />
<line x1="131.250000" y1="173.000000" x2="131.000000" y2="173.000000" stroke="black" stroke-width="0.1" />
<line x1="131.750000" y1="173.000000" x2="132.000000" y2="173.000000" stroke="black" stroke-width="0.1" />
<line x1="131.500000" y1="172.750000" x2="131.500000" y2="172.500000" stroke="black" stroke-width="0.1" />
<line x1="131.500000" y1="173.250000" x2="131.500000" y2="173.500000" stroke="black" stroke-width="0.1" />
<line x1="128.500000" y1="173.000000" x2="129.500000" y2="173.000000" stroke="black" stroke-width="0.1" />
<line x1="133.500000" y1="173.000000" x2="134.500000" y2="173.000000" stroke="black" stroke-width="0.1" />
<line x1="131.500000" y1="170.000000" x2="131.500000" y2="171.000000" stroke="black" stroke-width="0.1" />
<line x1="131.500000" y1="175.000000" x2="131.500000" y2="176.000000" stroke="black" stroke-width="0.1" />
<circle cx="156.500000" cy="173.000000" r="2.500000" fill="none" stroke="black" stroke-width="0.1" />
<circle cx="156.500000" cy="173.000000" r="0.250000" fill="none" stroke="black" stroke-width="0.1" />
<line x1="156.250000" y1="173.000000" x2="156.000000" y2="173.000000" stroke="black" stroke-width="0.1" />
<line x1="156.750000" y1="173.000000" x2="157.000000" y2="173.000000" stroke="black" stroke-width="0.1" />
<line x1="156.500000" y1="172.750000" x2="156.500000" y2="172.500000" stroke="black" stroke-width="0.1" />
<line x1="156.500000" y1="173.250000" x2="156.500000" y2="173.500000" stroke="black" stroke-width="0.1" />
<line x1="153.500000" y1="173.000000" x2="154.500000" y2="173.000000" stroke="black" stroke-width="0.1" />
<line x1="158.500000" y1="173.000000" x2="159.500000" y2="173.000000" stroke="black" stroke-width="0.1" />
<line x1="156.500000" y1="170.000000" x2="156.500000" y2="171.000000" stroke="black" stroke-width="0.1" />
<line x1="156.500000" y1="175.000000" x2="156.500000" y2="176.000000" stroke="black" stroke-width="0.1" />
<circle cx="131.500000" cy="88.000000" r="2.500000" fill="none" stroke="black" stroke-width="0.1" />
<circle cx="131.500000" cy="88.000000" r="0.250000" fill="none" stroke="black" stroke-width="0.1" />
<line x1="131.250000" y1="88.000000" x2="131.000000" y2="88.000000" stroke="black" stroke-width="0.1" />
<line x1="131.750000" y1="88.000000" x2="132.000000" y2="88.000000" stroke="black" stroke-width="0.1" />
<line x1="131.500000" y1="87.750000" x2="131.500000" y2="87.500000" stroke="black" stroke-width="0.1" />
<line x1="131.500000" y1="88.250000" x2="131.500000" y2="88.500000" stroke="black" stroke-width="0.1" />
<line x1="128.500000" y1="88.000000" x2="129.500000" y2="88.000000" stroke="black" stroke-width="0.1" />
<line x1="133.500000" y1="88.000000" x2="134.500000" y2="88.000000" stroke="black" stroke-width="0.1" />
<line x1="131.500000" y1="85.000000" x2="131.500000" y2="86.000000" stroke="black" stroke-width="0.1" />
<line x1="131.500000" y1="90.000000" x2="131.500000" y2="91.000000" stroke="black" stroke-width="0.1" />
<circle cx="156.500000" cy="88.000000" r="2.500000" fill="none" stroke="black" stroke-width="0.1" />
<circle cx="156.500000" cy="88.000000" r="0.250000" fill="none" stroke="black" stroke-width="0.1" />
<line x1="156.250000" y1="88.000000" x2="156.000000" y2="88.000000" stroke="black" stroke-width="0.1" />
<line x1="156.750000" y1="88.000000" x2="157.000000" y2="88.000000" stroke="black" stroke-width="0.1" />
<line x1="156.500000" y1="87.750000" x2="156.500000" y2="87.500000" stroke="black" stroke-width="0.1" />
<line x1="156.500000" y1="88.250000" x2="156.500000" y2="88.500000" stroke="black" stroke-width="0.1" />
<line x1="153.500000" y1="88.000000" x2="154.500000" y2="88.000000" stroke="black" stroke-width="0.1" />
<line x1="158.500000" y1="88.000000" x2="159.500000" y2="88.000000" stroke="black" stroke-width="0.1" />
<line x1="156.500000" y1="85.000000" x2="156.500000" y2="86.000000" stroke="black" stroke-width="0.1" />
<line x1="156.500000" y1="90.000000" x2="156.500000" y2="91.000000" stroke="black" stroke-width="0.1" />
<circle cx="35.500000" cy="107.000000" r="2.500000" fill="none" stroke="black" stroke-width="0.1" />
<circle cx="35.500000" cy="107.000000" r="0.250000" fill="none" stroke="black" stroke-width="0.1" />
<line x1="35.250000" y1="107.000000" x2="35.000000" y2="107.000000" stroke="black" stroke-width="0.1" />
<line x1="35.750000" y1="107.000000" x2="36.000000" y2="107.000000" stroke="black" stroke-width="0.1" />
<line x1="35.500000" y1="106.750000" x2="35.500000" y2="106.500000" stroke="black" stroke-width="0.1" />
<line x1="35.500000" y1="107.250000" x2="35.500000" y2="107.500000" stroke="black" stroke-width="0.1" />
<line x1="32.500000" y1="107.000000" x2="33.500000" y2="107.000000" stroke="black" stroke-width="0.1" />
<line x1="37.500000" y1="107.000000" x2="38.500000" y2="107.000000" stroke="black" stroke-width="0.1" />
<line x1="35.500000" y1="104.000000" x2="35.500000" y2="105.000000" stroke="black" stroke-width="0.1" />
<line x1="35.500000" y1="109.000000" x2="35.500000" y2="110.000000" stroke="black" stroke-width="0.1" />
<circle cx="60.500000" cy="107.000000" r="2.500000" fill="none" stroke="black" stroke-width="0.1" />
<circle cx="60.500000" cy="107.000000" r="0.250000" fill="none" stroke="black" stroke-width="0.1" />
<line x1="60.250000" y1="107.000000" x2="60.000000" y2="107.000000" stroke="black" stroke-width="0.1" />
<line x1="60.750000" y1="107.000000" x2="61.000000" y2="107.000000" stroke="black" stroke-width="0.1" />
<line x1="60.500000" y1="106.750000" x2="60.500000" y2="106.500000" stroke="black" stroke-width="0.1" />
<line x1="60.500000" y1="107.250000" x2="60.500000" y2="107.500000" stroke="black" stroke-width="0.1" />
<line x1="57.500000" y1="107.000000" x2="58.500000" y2="107.000000" stroke="black" stroke-width="0.1" />
<line x1="62.500000" y1="107.000000" x2="63.500000" y2="107.000000" stroke="black" stroke-width="0.1" />
<line x1="60.500000" y1="104.000000" x2="60.500000" y2="105.000000" stroke="black" stroke-width="0.1" />
<line x1="60.500000" y1="109.000000" x2="60.500000" y2="110.000000" stroke="black" stroke-width="0.1" />
<circle cx="35.500000" cy="192.000000" r="2.500000" fill="none" stroke="black" stroke-width="0.1" />
<circle cx="35.500000" cy="192.000000" r="0.250000" fill="none" stroke="black" stroke-width="0.1" />
<line x1="35.250000" y1="192.000000" x2="35.000000" y2="192.000000" stroke="black" stroke-width="0.1" />
<line x1="35.750000" y1="192.000000" x2="36.000000" y2="192.000000" stroke="black" stroke-width="0.1" />
<line x1="35.500000" y1="191.750000" x2="35.500000" y2="191.500000" stroke="black" stroke-width="0.1" />
<line x1="35.500000" y1="192.250000" x2="35.500000" y2="192.500000" stroke="black" stroke-width="0.1" />
<line x1="32.500000" y1="192.000000" x2="33.500000" y2="192.000000" stroke="black" stroke-width="0.1" />
<line x1="37.500000" y1="192.000000" x2="38.500000" y2="192.000000" stroke="black" stroke-width="0.1" />
<line x1="35.500000" y1="189.000000" x2="35.500000" y2="190.000000" stroke="black" stroke-width="0.1" />
<line x1="35.500000" y1="194.000000" x2="35.500000" y2="195.000000" stroke="black" stroke-width="0.1" />
<circle cx="60.500000" cy="192.000000" r="2.500000" fill="none" stroke="black" stroke-width="0.1" />
<circle cx="60.500000" cy="192.000000" r="0.250000" fill="none" stroke="black" stroke-width="0.1" />
<line x1="60.250000" y1="192.000000" x2="60.000000" y2="192.000000" stroke="black" stroke-width="0.1" />
<line x1="60.750000" y1="192.000000" x2="61.000000" y2="192.000000" stroke="black" stroke-width="0.1" />
<line x1="60.500000" y1="191.750000" x2="60.500000" y2="191.500000" stroke="black" stroke-width="0.1" />
<line x1="60.500000" y1="192.250000" x2="60.500000" y2="192.500000" stroke="black" stroke-width="0.1" />
<line x1="57.500000" y1="192.000000" x2="58.500000" y2="192.000000" stroke="black" stroke-width="0.1" />
<line x1="62.500000" y1="192.000000" x2="63.500000" y2="192.000000" stroke="black" stroke-width="0.1" />
<line x1="60.500000" y1="189.000000" x2="60.500000" y2="190.000000" stroke="black" stroke-width="0.1" />
<line x1="60.500000" y1="194.000000" x2="60.500000" y2="195.000000" stroke="black" stroke-width="0.1" />
<text x="73.000000" y="25.000000" font-family="Arial" font-size="4" text-anchor="middle" dominant-baseline="middle" transform="rotate(90 73.000000 25.000000)" >Mid Sole Mount Line</text>
<text x="169.000000" y="235.000000" font-family="Arial" font-size="4" text-anchor="middle" dominant-baseline="middle" transform="rotate(90 169.000000 235.000000)" >Mid Sole Mount Line</text>
<text x="43.000000" y="235.000000" font-family="Arial" font-size="4" text-anchor="middle" dominant-baseline="middle" transform="rotate(90 43.000000 235.000000)" >Ski Center Line</text>
<text x="139.000000" y="25.000000" font-family="Arial" font-size="4" text-anchor="middle" dominant-baseline="middle" transform="rotate(90 139.000000 25.000000)" >Ski Center Line</text>
</svg>