<?xml version="1.0"?>
<!DOCTYPE svg PUBLIC "-//W3C//DTD SVG 1.1//EN"
"http://www.w3.org/Graphics/SVG/1.1/DTD/svg11.dtd">
<svg xmlns="http://www.w3.org/2000/svg" version="1.2" width="190.0mm" height="259.0mm" viewBox="0 0 190.0 259.0" >
  <line x1="95.0" y1="0.0" x2="95.0" y2="259.0" stroke="black" stroke-width="0.1" stroke-dasharray="4 4" />
  <line x1="47.5" y1="0.0" x2="47.5" y2="259.0" stroke="black" stroke-width="0.1" />
  <line x1="142.5" y1="0.0" x2="142.5" y2="259.0" stroke="black" stroke-width="0.1" />
  <line x1="95.0" y1="255.0" x2="180.0" y2="255.0" stroke="black" stroke-width="0.1" />
  <line x1="10.0" y1="5.0" x2="95.0" y2="5.0" stroke="black" stroke-width="0.1" />
  <circle cx="160.0" cy="117.5" r="2.5" fill="none" stroke="black" stroke-width="0.1" />
  <line x1="159.5" y1="117.5" x2="160.5" y2="117.5" stroke="black" stroke-width="0.1" />
  <line x1="160.0" y1="117.0" x2="160.0" y2="118.0" stroke="black" stroke-width="0.1" />
  <line x1="157.0" y1="117.5" x2="158.0" y2="117.5" stroke="black" stroke-width="0.1" />
  <line x1="162.0" y1="117.5" x2="163.0" y2="117.5" stroke="black" stroke-width="0.1" />
  <line x1="160.0" y1="114.5" x2="160.0" y2="115.5" stroke="black" stroke-width="0.1" />
  <line x1="160.0" y1="119.5" x2="160.0" y2="120.5" stroke="black" stroke-width="0.1" />
  <circle cx="125.0" cy="117.5" r="2.5" fill="none" stroke="black" stroke-width="0.1" />
  <line x1="124.5" y1="117.5" x2="125.5" y2="117.5" stroke="black" stroke-width="0.1" />
  <line x1="125.0" y1="117.0" x2="125.0" y2="118.0" stroke="black" stroke-width="0.1" />
  <line x1="122.0" y1="117.5" x2="123.0" y2="117.5" stroke="black" stroke-width="0.1" />
  <line x1="127.0" y1="117.5" x2="128.0" y2="117.5" stroke="black" stroke-width="0.1" />
  <line x1="125.0" y1="114.5" x2="125.0" y2="115.5" stroke="black" stroke-width="0.1" />
  <line x1="125.0" y1="119.5" x2="125.0" y2="120.5" stroke="black" stroke-width="0.1" />
  <circle cx="163.5" cy="76.0" r="2.5" fill="none" stroke="black" stroke-width="0.1" />
  <line x1="163.0" y1="76.0" x2="164.0" y2="76.0" stroke="black" stroke-width="0.1" />
  <line x1="163.5" y1="75.5" x2="163.5" y2="76.5" stroke="black" stroke-width="0.1" />
  <line x1="160.5" y1="76.0" x2="161.5" y2="76.0" stroke="black" stroke-width="0.1" />
  <line x1="165.5" y1="76.0" x2="166.5" y2="76.0" stroke="black" stroke-width="0.1" />
  <line x1="163.5" y1="73.0" x2="163.5" y2="74.0" stroke="black" stroke-width="0.1" />
  <line x1="163.5" y1="78.0" x2="163.5" y2="79.0" stroke="black" stroke-width="0.1" />
  <circle cx="121.5" cy="76.0" r="2.5" fill="none" stroke="black" stroke-width="0.1" />
  <line x1="121.0" y1="76.0" x2="122.0" y2="76.0" stroke="black" stroke-width="0.1" />
  <line x1="121.5" y1="75.5" x2="121.5" y2="76.5" stroke="black" stroke-width="0.1" />
  <line x1="118.5" y1="76.0" x2="119.5" y2="76.0" stroke="black" stroke-width="0.1" />
  <line x1="123.5" y1="76.0" x2="124.5" y2="76.0" stroke="black" stroke-width="0.1" />
  <line x1="121.5" y1="73.0" x2="121.5" y2="74.0" stroke="black" stroke-width="0.1" />
  <line x1="121.5" y1="78.0" x2="121.5" y2="79.0" stroke="black" stroke-width="0.1" />
  <circle cx="68.75" cy="97.0" r="2.5" fill="none" stroke="black" stroke-width="0.1" />
  <line x1="68.25" y1="97.0" x2="69.25" y2="97.0" stroke="black" stroke-width="0.1" />
  <line x1="68.75" y1="96.5" x2="68.75" y2="97.5" stroke="black" stroke-width="0.1" />
  <line x1="65.75" y1="97.0" x2="66.75" y2="97.0" stroke="black" stroke-width="0.1" />
  <line x1="70.75" y1="97.0" x2="71.75" y2="97.0" stroke="black" stroke-width="0.1" />
  <line x1="68.75" y1="94.0" x2="68.75" y2="95.0" stroke="black" stroke-width="0.1" />
  <line x1="68.75" y1="99.0" x2="68.75" y2="100.0" stroke="black" stroke-width="0.1" />
  <circle cx="26.25" cy="97.0" r="2.5" fill="none" stroke="black" stroke-width="0.1" />
  <line x1="25.75" y1="97.0" x2="26.75" y2="97.0" stroke="black" stroke-width="0.1" />
  <line x1="26.25" y1="96.5" x2="26.25" y2="97.5" stroke="black" stroke-width="0.1" />
  <line x1="23.25" y1="97.0" x2="24.25" y2="97.0" stroke="black" stroke-width="0.1" />
  <line x1="28.25" y1="97.0" x2="29.25" y2="97.0" stroke="black" stroke-width="0.1" />
  <line x1="26.25" y1="94.0" x2="26.25" y2="95.0" stroke="black" stroke-width="0.1" />
  <line x1="26.25" y1="99.0" x2="26.25" y2="100.0" stroke="black" stroke-width="0.1" />
  <circle cx="68.75" cy="136.0" r="2.5" fill="none" stroke="black" stroke-width="0.1" />
  <line x1="68.25" y1="136.0" x2="69.25" y2="136.0" stroke="black" stroke-width="0.1" />
  <line x1="68.75" y1="135.5" x2="68.75" y2="136.5" stroke="black" stroke-width="0.1" />
  <line x1="65.75" y1="136.0" x2="66.75" y2="136.0" stroke="black" stroke-width="0.1" />
  <line x1="70.75" y1="136.0" x2="71.75" y2="136.0" stroke="black" stroke-width="0.1" />
  <line x1="68.75" y1="133.0" x2="68.75" y2="134.0" stroke="black" stroke-width="0.1" />
  <line x1="68.75" y1="138.0" x2="68.75" y2="139.0" stroke="black" stroke-width="0.1" />
  <circle cx="26.25" cy="136.0" r="2.5" fill="none" stroke="black" stroke-width="0.1" />
  <line x1="25.75" y1="136.0" x2="26.75" y2="136.0" stroke="black" stroke-width="0.1" />
  <line x1="26.25" y1="135.5" x2="26.25" y2="136.5" stroke="black" stroke-width="0.1" />
  <line x1="23.25" y1="136.0" x2="24.25" y2="136.0" stroke="black" stroke-width="0.1" />
  <line x1="28.25" y1="136.0" x2="29.25" y2="136.0" stroke="black" stroke-width="0.1" />
  <line x1="26.25" y1="133.0" x2="26.25" y2="134.0" stroke="black" stroke-width="0.1" />
  <line x1="26.25" y1="138.0" x2="26.25" y2="139.0" stroke="black" stroke-width="0.1" />
</svg>
