<?xml version="1.0"?>
<!DOCTYPE svg PUBLIC "-//W3C//DTD SVG 1.1//EN"
"http://www.w3.org/Graphics/SVG/1.1/DTD/svg11.dtd">
<svg xmlns="http://www.w3.org/2000/svg" version="1.2" width="190.0mm" height="259.0mm" viewBox="0 0 190.0 259.0" >
  <line x1="95.0" y1="0.0" x2="95.0" y2="259.0" stroke="black" stroke-width="0.1" stroke-dasharray="4 4" />
  <line x1="47.5" y1="0.0" x2="47.5" y2="259.0" stroke="black" stroke-width="0.1" />
  <line x1="142.5" y1="0.0" x2="142.5" y2="259.0" stroke="black" stroke-width="0.1" />
  <line x1="95.0" y1="255.0" x2="180.0" y2="255.0" stroke="black" stroke-width="0.1" />
  <line x1="10.0" y1="5.0" x2="95.0" y2="5.0" stroke="black" stroke-width="0.1" />
  <circle cx="163.5" cy="70.5" r="2.5" fill="none" stroke="black" stroke-width="0.1" />
  <line x1="163.0" y1="70.5" x2="164.0" y2="70.5" stroke="black" stroke-width="0.1" />
  <line x1="163.5" y1="70.0" x2="163.5" y2="71.0" stroke="black" stroke-width="0.1" />
  <line x1="160.5" y1="70.5" x2="161.5" y2="70.5" stroke="black" stroke-width="0.1" />
  <line x1="165.5" y1="70.5" x2="166.5" y2="70.5" stroke="black" stroke-width="0.1" />
  <line x1="163.5" y1="67.5" x2="163.5" y2="68.5" stroke="black" stroke-width="0.1" />
  <line x1="163.5" y1="72.5" x2="163.5" y2="73.5" stroke="black" stroke-width="0.1" />
  <circle cx="121.5" cy="70.5" r="2.5" fill="none" stroke="black" stroke-width="0.1" />
  <line x1="121.0" y1="70.5" x2="122.0" y2="70.5" stroke="black" stroke-width="0.1" />
  <line x1="121.5" y1="70.0" x2="121.5" y2="71.0" stroke="black" stroke-width="0.1" />
  <line x1="118.5" y1="70.5" x2="119.5" y2="70.5" stroke="black" stroke-width="0.1" />
  <line x1="123.5" y1="70.5" x2="124.5" y2="70.5" stroke="black" stroke-width="0.1" />
  <line x1="121.5" y1="67.5" x2="121.5" y2="68.5" stroke="black" stroke-width="0.1" />
  <line x1="121.5" y1="72.5" x2="121.5" y2="73.5" stroke="black" stroke-width="0.1" />
  <circle cx="162.5" cy="100.5" r="2.5" fill="none" stroke="black" stroke-width="0.1" />
  <line x1="162.0" y1="100.5" x2="163.0" y2="100.5" stroke="black" stroke-width="0.1" />
  <line x1="162.5" y1="100.0" x2="162.5" y2="101.0" stroke="black" stroke-width="0.1" />
  <line x1="159.5" y1="100.5" x2="160.5" y2="100.5" stroke="black" stroke-width="0.1" />
  <line x1="164.5" y1="100.5" x2="165.5" y2="100.5" stroke="black" stroke-width="0.1" />
  <line x1="162.5" y1="97.5" x2="162.5" y2="98.5" stroke="black" stroke-width="0.1" />
  <line x1="162.5" y1="102.5" x2="162.5" y2="103.5" stroke="black" stroke-width="0.1" />
  <circle cx="122.5" cy="100.5" r="2.5" fill="none" stroke="black" stroke-width="0.1" />
  <line x1="122.0" y1="100.5" x2="123.0" y2="100.5" stroke="black" stroke-width="0.1" />
  <line x1="122.5" y1="100.0" x2="122.5" y2="101.0" stroke="black" stroke-width="0.1" />
  <line x1="119.5" y1="100.5" x2="120.5" y2="100.5" stroke="black" stroke-width="0.1" />
  <line x1="124.5" y1="100.5" x2="125.5" y2="100.5" stroke="black" stroke-width="0.1" />
  <line x1="122.5" y1="97.5" x2="122.5" y2="98.5" stroke="black" stroke-width="0.1" />
  <line x1="122.5" y1="102.5" x2="122.5" y2="103.5" stroke="black" stroke-width="0.1" />
  <circle cx="63.5" cy="146.5" r="2.5" fill="none" stroke="black" stroke-width="0.1" />
  <line x1="63.0" y1="146.5" x2="64.0" y2="146.5" stroke="black" stroke-width="0.1" />
  <line x1="63.5" y1="146.0" x2="63.5" y2="147.0" stroke="black" stroke-width="0.1" />
  <line x1="60.5" y1="146.5" x2="61.5" y2="146.5" stroke="black" stroke-width="0.1" />
  <line x1="65.5" y1="146.5" x2="66.5" y2="146.5" stroke="black" stroke-width="0.1" />
  <line x1="63.5" y1="143.5" x2="63.5" y2="144.5" stroke="black" stroke-width="0.1" />
  <line x1="63.5" y1="148.5" x2="63.5" y2="149.5" stroke="black" stroke-width="0.1" />
  <circle cx="31.5" cy="146.5" r="2.5" fill="none" stroke="black" stroke-width="0.1" />
  <line x1="31.0" y1="146.5" x2="32.0" y2="146.5" stroke="black" stroke-width="0.1" />
  <line x1="31.5" y1="146.0" x2="31.5" y2="147.0" stroke="black" stroke-width="0.1" />
  <line x1="28.5" y1="146.5" x2="29.5" y2="146.5" stroke="black" stroke-width="0.1" />
  <line x1="33.5" y1="146.5" x2="34.5" y2="146.5" stroke="black" stroke-width="0.1" />
  <line x1="31.5" y1="143.5" x2="31.5" y2="144.5" stroke="black" stroke-width="0.1" />
  <line x1="31.5" y1="148.5" x2="31.5" y2="149.5" stroke="black" stroke-width="0.1" />
  <circle cx="63.5" cy="221.5" r="2.5" fill="none" stroke="black" stroke-width="0.1" />
  <line x1="63.0" y1="221.5" x2="64.0" y2="221.5" stroke="black" stroke-width="0.1" />
  <line x1="63.5" y1="221.0" x2="63.5" y2="222.0" stroke="black" stroke-width="0.1" />
  <line x1="60.5" y1="221.5" x2="61.5" y2="221.5" stroke="black" stroke-width="0.1" />
  <line x1="65.5" y1="221.5" x2="66.5" y2="221.5" stroke="black" stroke-width="0.1" />
  <line x1="63.5" y1="218.5" x2="63.5" y2="219.5" stroke="black" stroke-width="0.1" />
  <line x1="63.5" y1="223.5" x2="63.5" y2="224.5" stroke="black" stroke-width="0.1" />
  <circle cx="31.5" cy="221.5" r="2.5" fill="none" stroke="black" stroke-width="0.1" />
  <line x1="31.0" y1="221.5" x2="32.0" y2="221.5" stroke="black" stroke-width="0.1" />
  <line x1="31.5" y1="221.0" x2="31.5" y2="222.0" stroke="black" stroke-width="0.1" />
  <line x1="28.5" y1="221.5" x2="29.5" y2="221.5" stroke="black" stroke-width="0.1" />
  <line x1="33.5" y1="221.5" x2="34.5" y2="221.5" stroke="black" stroke-width="0.1" />
  <line x1="31.5" y1="218.5" x2="31.5" y2="219.5" stroke="black" stroke-width="0.1" />
  <line x1="31.5" y1="223.5" x2="31.5" y2="224.5" stroke="black" stroke-width="0.1" />
</svg>
