<?xml version="1.0"?>
<!DOCTYPE svg PUBLIC "-//W3C//DTD SVG 1.1//EN"
"http://www.w3.org/Graphics/SVG/1.1/DTD/svg11.dtd">
<svg xmlns="http://www.w3.org/2000/svg" version="1.2" width="190.0mm" height="259.0mm" viewBox="0 0 190.0 259.0" >
  <line x1="95.0" y1="0.0" x2="95.0" y2="259.0" stroke="black" stroke-width="0.1" stroke-dasharray="4 4" />
  <line x1="47.5" y1="0.0" x2="47.5" y2="259.0" stroke="black" stroke-width="0.1" />
  <line x1="142.5" y1="0.0" x2="142.5" y2="259.0" stroke="black" stroke-width="0.1" />
  <line x1="95.0" y1="255.0" x2="180.0" y2="255.0" stroke="black" stroke-width="0.1" />
  <line x1="10.0" y1="5.0" x2="95.0" y2="5.0" stroke="black" stroke-width="0.1" />
  <circle cx="163.5" cy="80.5" r="2.5" fill="none" stroke="black" stroke-width="0.1" />
  <line x1="163.0" y1="80.5" x2="164.0" y2="80.5" stroke="black" stroke-width="0.1" />
  <line x1="163.5" y1="80.0" x2="163.5" y2="81.0" stroke="black" stroke-width="0.1" />
  <line x1="160.5" y1="80.5" x2="161.5" y2="80.5" stroke="black" stroke-width="0.1" />
  <line x1="165.5" y1="80.5" x2="166.5" y2="80.5" stroke="black" stroke-width="0.1" />
  <line x1="163.5" y1="77.5" x2="163.5" y2="78.5" stroke="black" stroke-width="0.1" />
  <line x1="163.5" y1="82.5" x2="163.5" y2="83.5" stroke="black" stroke-width="0.1" />
  <circle cx="121.5" cy="80.5" r="2.5" fill="none" stroke="black" stroke-width="0.1" />
  <line x1="121.0" y1="80.5" x2="122.0" y2="80.5" stroke="black" stroke-width="0.1" />
  <line x1="121.5" y1="80.0" x2="121.5" y2="81.0" stroke="black" stroke-width="0.1" />
  <line x1="118.5" y1="80.5" x2="119.5" y2="80.5" stroke="black" stroke-width="0.1" />
  <line x1="123.5" y1="80.5" x2="124.5" y2="80.5" stroke="black" stroke-width="0.1" />
  <line x1="121.5" y1="77.5" x2="121.5" y2="78.5" stroke="black" stroke-width="0.1" />
  <line x1="121.5" y1="82.5" x2="121.5" y2="83.5" stroke="black" stroke-width="0.1" />
  <circle cx="162.5" cy="110.5" r="2.5" fill="none" stroke="black" stroke-width="0.1" />
  <line x1="162.0" y1="110.5" x2="163.0" y2="110.5" stroke="black" stroke-width="0.1" />
  <line x1="162.5" y1="110.0" x2="162.5" y2="111.0" stroke="black" stroke-width="0.1" />
  <line x1="159.5" y1="110.5" x2="160.5" y2="110.5" stroke="black" stroke-width="0.1" />
  <line x1="164.5" y1="110.5" x2="165.5" y2="110.5" stroke="black" stroke-width="0.1" />
  <line x1="162.5" y1="107.5" x2="162.5" y2="108.5" stroke="black" stroke-width="0.1" />
  <line x1="162.5" y1="112.5" x2="162.5" y2="113.5" stroke="black" stroke-width="0.1" />
  <circle cx="122.5" cy="110.5" r="2.5" fill="none" stroke="black" stroke-width="0.1" />
  <line x1="122.0" y1="110.5" x2="123.0" y2="110.5" stroke="black" stroke-width="0.1" />
  <line x1="122.5" y1="110.0" x2="122.5" y2="111.0" stroke="black" stroke-width="0.1" />
  <line x1="119.5" y1="110.5" x2="120.5" y2="110.5" stroke="black" stroke-width="0.1" />
  <line x1="124.5" y1="110.5" x2="125.5" y2="110.5" stroke="black" stroke-width="0.1" />
  <line x1="122.5" y1="107.5" x2="122.5" y2="108.5" stroke="black" stroke-width="0.1" />
  <line x1="122.5" y1="112.5" x2="122.5" y2="113.5" stroke="black" stroke-width="0.1" />
  <circle cx="63.5" cy="136.5" r="2.5" fill="none" stroke="black" stroke-width="0.1" />
  <line x1="63.0" y1="136.5" x2="64.0" y2="136.5" stroke="black" stroke-width="0.1" />
  <line x1="63.5" y1="136.0" x2="63.5" y2="137.0" stroke="black" stroke-width="0.1" />
  <line x1="60.5" y1="136.5" x2="61.5" y2="136.5" stroke="black" stroke-width="0.1" />
  <line x1="65.5" y1="136.5" x2="66.5" y2="136.5" stroke="black" stroke-width="0.1" />
  <line x1="63.5" y1="133.5" x2="63.5" y2="134.5" stroke="black" stroke-width="0.1" />
  <line x1="63.5" y1="138.5" x2="63.5" y2="139.5" stroke="black" stroke-width="0.1" />
  <circle cx="31.5" cy="136.5" r="2.5" fill="none" stroke="black" stroke-width="0.1" />
  <line x1="31.0" y1="136.5" x2="32.0" y2="136.5" stroke="black" stroke-width="0.1" />
  <line x1="31.5" y1="136.0" x2="31.5" y2="137.0" stroke="black" stroke-width="0.1" />
  <line x1="28.5" y1="136.5" x2="29.5" y2="136.5" stroke="black" stroke-width="0.1" />
  <line x1="33.5" y1="136.5" x2="34.5" y2="136.5" stroke="black" stroke-width="0.1" />
  <line x1="31.5" y1="133.5" x2="31.5" y2="134.5" stroke="black" stroke-width="0.1" />
  <line x1="31.5" y1="138.5" x2="31.5" y2="139.5" stroke="black" stroke-width="0.1" />
  <circle cx="63.5" cy="211.5" r="2.5" fill="none" stroke="black" stroke-width="0.1" />
  <line x1="63.0" y1="211.5" x2="64.0" y2="211.5" stroke="black" stroke-width="0.1" />
  <line x1="63.5" y1="211.0" x2="63.5" y2="212.0" stroke="black" stroke-width="0.1" />
  <line x1="60.5" y1="211.5" x2="61.5" y2="211.5" stroke="black" stroke-width="0.1" />
  <line x1="65.5" y1="211.5" x2="66.5" y2="211.5" stroke="black" stroke-width="0.1" />
  <line x1="63.5" y1="208.5" x2="63.5" y2="209.5" stroke="black" stroke-width="0.1" />
  <line x1="63.5" y1="213.5" x2="63.5" y2="214.5" stroke="black" stroke-width="0.1" />
  <circle cx="31.5" cy="211.5" r="2.5" fill="none" stroke="black" stroke-width="0.1" />
  <line x1="31.0" y1="211.5" x2="32.0" y2="211.5" stroke="black" stroke-width="0.1" />
  <line x1="31.5" y1="211.0" x2="31.5" y2="212.0" stroke="black" stroke-width="0.1" />
  <line x1="28.5" y1="211.5" x2="29.5" y2="211.5" stroke="black" stroke-width="0.1" />
  <line x1="33.5" y1="211.5" x2="34.5" y2="211.5" stroke="black" stroke-width="0.1" />
  <line x1="31.5" y1="208.5" x2="31.5" y2="209.5" stroke="black" stroke-width="0.1" />
  <line x1="31.5" y1="213.5" x2="31.5" y2="214.5" stroke="black" stroke-width="0.1" />
</svg>
