<?xml version="1.0"?>
<!DOCTYPE svg PUBLIC "-//W3C//DTD SVG 1.1//EN"
"http://www.w3.org/Graphics/SVG/1.1/DTD/svg11.dtd">
<svg xmlns="http://www.w3.org/2000/svg" version="1.2" width="190.0mm" height="259.0mm" viewBox="0 0 190.0 259.0" style="background-color:white" >
<style >
.small { font: 6px sans-serif; }
</style>
  <line x1="47.5" y1="0.0" x2="47.5" y2="259.0" stroke="black" stroke-width="0.1" />
  <line x1="142.5" y1="0.0" x2="142.5" y2="259.0" stroke="black" stroke-width="0.1" />
  <line x1="102.5" y1="255.0" x2="182.5" y2="255.0" stroke="black" stroke-width="0.1" />
  <line x1="7.5" y1="5.0" x2="87.5" y2="5.0" stroke="black" stroke-width="0.1" />
  <line x1="95.0" y1="0.0" x2="95.0" y2="259.0" stroke="black" stroke-width="0.1" stroke-dasharray="2 2" />
  <line x1="0.0" y1="259.0" x2="95.0" y2="259.0" stroke="black" stroke-width="0.1" stroke-dasharray="2 2" />
  <line x1="95.0" y1="0.0" x2="190.0" y2="0.0" stroke="black" stroke-width="0.1" stroke-dasharray="2 2" />
  <line x1="47.5" y1="7.0" x2="40.5" y2="0.0" stroke="black" stroke-width="0.1" stroke-dasharray="2 2" />
  <line x1="47.5" y1="7.0" x2="54.5" y2="0.0" stroke="black" stroke-width="0.1" stroke-dasharray="2 2" />
  <line x1="142.5" y1="253.0" x2="136.5" y2="259.0" stroke="black" stroke-width="0.1" stroke-dasharray="2 2" />
  <line x1="142.5" y1="253.0" x2="148.5" y2="259.0" stroke="black" stroke-width="0.1" stroke-dasharray="2 2" />
  <line x1="0.0" y1="5.0" x2="3.0" y2="5.0" stroke="black" stroke-width="0.1" />
  <line x1="0.0" y1="6.0" x2="1.0" y2="6.0" stroke="black" stroke-width="0.1" />
  <line x1="0.0" y1="7.0" x2="1.0" y2="7.0" stroke="black" stroke-width="0.1" />
  <line x1="0.0" y1="8.0" x2="1.0" y2="8.0" stroke="black" stroke-width="0.1" />
  <line x1="0.0" y1="9.0" x2="1.0" y2="9.0" stroke="black" stroke-width="0.1" />
  <line x1="0.0" y1="10.0" x2="2.0" y2="10.0" stroke="black" stroke-width="0.1" />
  <line x1="0.0" y1="11.0" x2="1.0" y2="11.0" stroke="black" stroke-width="0.1" />
  <line x1="0.0" y1="12.0" x2="1.0" y2="12.0" stroke="black" stroke-width="0.1" />
  <line x1="0.0" y1="13.0" x2="1.0" y2="13.0" stroke="black" stroke-width="0.1" />
  <line x1="0.0" y1="14.0" x2="1.0" y2="14.0" stroke="black" stroke-width="0.1" />
  <line x1="0.0" y1="15.0" x2="3.0" y2="15.0" stroke="black" stroke-width="0.1" />
  <line x1="0.0" y1="16.0" x2="1.0" y2="16.0" stroke="black" stroke-width="0.1" />
  <line x1="0.0" y1="17.0" x2="1.0" y2="17.0" stroke="black" stroke-width="0.1" />
  <line x1="0.0" y1="18.0" x2="1.0" y2="18.0" stroke="black" stroke-width="0.1" />
  <line x1="0.0" y1="19.0" x2="1.0" y2="19.0" stroke="black" stroke-width="0.1" />
  <line x1="0.0" y1="20.0" x2="2.0" y2="20.0" stroke="black" stroke-width="0.1" />
  <line x1="0.0" y1="21.0" x2="1.0" y2="21.0" stroke="black" stroke-width="0.1" />
  <line x1="0.0" y1="22.0" x2="1.0" y2="22.0" stroke="black" stroke-width="0.1" />
  <line x1="0.0" y1="23.0" x2="1.0" y2="23.0" stroke="black" stroke-width="0.1" />
  <line x1="0.0" y1="24.0" x2="1.0" y2="24.0" stroke="black" stroke-width="0.1" />
  <line x1="0.0" y1="25.0" x2="3.0" y2="25.0" stroke="black" stroke-width="0.1" />
  <line x1="0.0" y1="26.0" x2="1.0" y2="26.0" stroke="black" stroke-width="0.1" />
  <line x1="0.0" y1="27.0" x2="1.0" y2="27.0" stroke="black" stroke-width="0.1" />
  <line x1="0.0" y1="28.0" x2="1.0" y2="28.0" stroke="black" stroke-width="0.1" />
  <line x1="0.0" y1="29.0" x2="1.0" y2="29.0" stroke="black" stroke-width="0.1" />
  <line x1="0.0" y1="30.0" x2="2.0" y2="30.0" stroke="black" stroke-width="0.1" />
  <line x1="0.0" y1="31.0" x2="1.0" y2="31.0" stroke="black" stroke-width="0.1" />
  <line x1="0.0" y1="32.0" x2="1.0" y2="32.0" stroke="black" stroke-width="0.1" />
  <line x1="0.0" y1="33.0" x2="1.0" y2="33.0" stroke="black" stroke-width="0.1" />
  <line x1="0.0" y1="34.0" x2="1.0" y2="34.0" stroke="black" stroke-width="0.1" />
  <line x1="0.0" y1="35.0" x2="3.0" y2="35.0" stroke="black" stroke-width="0.1" />
  <line x1="0.0" y1="36.0" x2="1.0" y2="36.0" stroke="black" stroke-width="0.1" />
  <line x1="0.0" y1="37.0" x2="1.0" y2="37.0" stroke="black" stroke-width="0.1" />
  <line x1="0.0" y1="38.0" x2="1.0" y2="38.0" stroke="black" stroke-width="0.1" />
  <line x1="0.0" y1="39.0" x2="1.0" y2="39.0" stroke="black" stroke-width="0.1" />
  <line x1="0.0" y1="40.0" x2="2.0" y2="40.0" stroke="black" stroke-width="0.1" />
  <line x1="0.0" y1="41.0" x2="1.0" y2="41.0" stroke="black" stroke-width="0.1" />
  <line x1="0.0" y1="42.0" x2="1.0" y2="42.0" stroke="black" stroke-width="0.1" />
  <line x1="0.0" y1="43.0" x2="1.0" y2="43.0" stroke="black" stroke-width="0.1" />
  <line x1="0.0" y1="44.0" x2="1.0" y2="44.0" stroke="black" stroke-width="0.1" />
  <line x1="0.0" y1="45.0" x2="3.0" y2="45.0" stroke="black" stroke-width="0.1" />
  <line x1="0.0" y1="46.0" x2="1.0" y2="46.0" stroke="black" stroke-width="0.1" />
  <line x1="0.0" y1="47.0" x2="1.0" y2="47.0" stroke="black" stroke-width="0.1" />
  <line x1="0.0" y1="48.0" x2="1.0" y2="48.0" stroke="black" stroke-width="0.1" />
  <line x1="0.0" y1="49.0" x2="1.0" y2="49.0" stroke="black" stroke-width="0.1" />
  <line x1="0.0" y1="50.0" x2="2.0" y2="50.0" stroke="black" stroke-width="0.1" />
  <line x1="0.0" y1="51.0" x2="1.0" y2="51.0" stroke="black" stroke-width="0.1" />
  <line x1="0.0" y1="52.0" x2="1.0" y2="52.0" stroke="black" stroke-width="0.1" />
  <line x1="0.0" y1="53.0" x2="1.0" y2="53.0" stroke="black" stroke-width="0.1" />
  <line x1="0.0" y1="54.0" x2="1.0" y2="54.0" stroke="black" stroke-width="0.1" />
  <line x1="0.0" y1="55.0" x2="3.0" y2="55.0" stroke="black" stroke-width="0.1" />
  <line x1="0.0" y1="56.0" x2="1.0" y2="56.0" stroke="black" stroke-width="0.1" />
  <line x1="0.0" y1="57.0" x2="1.0" y2="57.0" stroke="black" stroke-width="0.1" />
  <line x1="0.0" y1="58.0" x2="1.0" y2="58.0" stroke="black" stroke-width="0.1" />
  <line x1="0.0" y1="59.0" x2="1.0" y2="59.0" stroke="black" stroke-width="0.1" />
  <line x1="0.0" y1="60.0" x2="2.0" y2="60.0" stroke="black" stroke-width="0.1" />
  <line x1="0.0" y1="61.0" x2="1.0" y2="61.0" stroke="black" stroke-width="0.1" />
  <line x1="0.0" y1="62.0" x2="1.0" y2="62.0" stroke="black" stroke-width="0.1" />
  <line x1="0.0" y1="63.0" x2="1.0" y2="63.0" stroke="black" stroke-width="0.1" />
  <line x1="0.0" y1="64.0" x2="1.0" y2="64.0" stroke="black" stroke-width="0.1" />
  <line x1="0.0" y1="65.0" x2="3.0" y2="65.0" stroke="black" stroke-width="0.1" />
  <line x1="0.0" y1="66.0" x2="1.0" y2="66.0" stroke="black" stroke-width="0.1" />
  <line x1="0.0" y1="67.0" x2="1.0" y2="67.0" stroke="black" stroke-width="0.1" />
  <line x1="0.0" y1="68.0" x2="1.0" y2="68.0" stroke="black" stroke-width="0.1" />
  <line x1="0.0" y1="69.0" x2="1.0" y2="69.0" stroke="black" stroke-width="0.1" />
  <line x1="0.0" y1="70.0" x2="2.0" y2="70.0" stroke="black" stroke-width="0.1" />
  <line x1="0.0" y1="71.0" x2="1.0" y2="71.0" stroke="black" stroke-width="0.1" />
  <line x1="0.0" y1="72.0" x2="1.0" y2="72.0" stroke="black" stroke-width="0.1" />
  <line x1="0.0" y1="73.0" x2="1.0" y2="73.0" stroke="black" stroke-width="0.1" />
  <line x1="0.0" y1="74.0" x2="1.0" y2="74.0" stroke="black" stroke-width="0.1" />
  <line x1="0.0" y1="75.0" x2="3.0" y2="75.0" stroke="black" stroke-width="0.1" />
  <line x1="0.0" y1="76.0" x2="1.0" y2="76.0" stroke="black" stroke-width="0.1" />
  <line x1="0.0" y1="77.0" x2="1.0" y2="77.0" stroke="black" stroke-width="0.1" />
  <line x1="0.0" y1="78.0" x2="1.0" y2="78.0" stroke="black" stroke-width="0.1" />
  <line x1="0.0" y1="79.0" x2="1.0" y2="79.0" stroke="black" stroke-width="0.1" />
  <line x1="0.0" y1="80.0" x2="2.0" y2="80.0" stroke="black" stroke-width="0.1" />
  <line x1="0.0" y1="81.0" x2="1.0" y2="81.0" stroke="black" stroke-width="0.1" />
  <line x1="0.0" y1="82.0" x2="1.0" y2="82.0" stroke="black" stroke-width="0.1" />
  <line x1="0.0" y1="83.0" x2="1.0" y2="83.0" stroke="black" stroke-width="0.1" />
  <line x1="0.0" y1="84.0" x2="1.0" y2="84.0" stroke="black" stroke-width="0.1" />
  <line x1="0.0" y1="85.0" x2="3.0" y2="85.0" stroke="black" stroke-width="0.1" />
  <line x1="0.0" y1="86.0" x2="1.0" y2="86.0" stroke="black" stroke-width="0.1" />
  <line x1="0.0" y1="87.0" x2="1.0" y2="87.0" stroke="black" stroke-width="0.1" />
  <line x1="0.0" y1="88.0" x2="1.0" y2="88.0" stroke="black" stroke-width="0.1" />
  <line x1="0.0" y1="89.0" x2="1.0" y2="89.0" stroke="black" stroke-width="0.1" />
  <line x1="0.0" y1="90.0" x2="2.0" y2="90.0" stroke="black" stroke-width="0.1" />
  <line x1="0.0" y1="91.0" x2="1.0" y2="91.0" stroke="black" stroke-width="0.1" />
  <line x1="0.0" y1="92.0" x2="1.0" y2="92.0" stroke="black" stroke-width="0.1" />
  <line x1="0.0" y1="93.0" x2="1.0" y2="93.0" stroke="black" stroke-width="0.1" />
  <line x1="0.0" y1="94.0" x2="1.0" y2="94.0" stroke="black" stroke-width="0.1" />
  <line x1="0.0" y1="95.0" x2="3.0" y2="95.0" stroke="black" stroke-width="0.1" />
  <line x1="0.0" y1="96.0" x2="1.0" y2="96.0" stroke="black" stroke-width="0.1" />
  <line x1="0.0" y1="97.0" x2="1.0" y2="97.0" stroke="black" stroke-width="0.1" />
  <line x1="0.0" y1="98.0" x2="1.0" y2="98.0" stroke="black" stroke-width="0.1" />
  <line x1="0.0" y1="99.0" x2="1.0" y2="99.0" stroke="black" stroke-width="0.1" />
  <line x1="0.0" y1="100.0" x2="2.0" y2="100.0" stroke="black" stroke-width="0.1" />
  <line x1="0.0" y1="101.0" x2="1.0" y2="101.0" stroke="black" stroke-width="0.1" />
  <line x1="0.0" y1="102.0" x2="1.0" y2="102.0" stroke="black" stroke-width="0.1" />
  <line x1="0.0" y1="103.0" x2="1.0" y2="103.0" stroke="black" stroke-width="0.1" />
  <line x1="0.0" y1="104.0" x2="1.0" y2="104.0" stroke="black" stroke-width="0.1" />
  <line x1="0.0" y1="105.0" x2="3.0" y2="105.0" stroke="black" stroke-width="0.1" />
  <line x1="0.0" y1="106.0" x2="1.0" y2="106.0" stroke="black" stroke-width="0.1" />
  <line x1="0.0" y1="107.0" x2="1.0" y2="107.0" stroke="black" stroke-width="0.1" />
  <line x1="0.0" y1="108.0" x2="1.0" y2="108.0" stroke="black" stroke-width="0.1" />
  <line x1="0.0" y1="109.0" x2="1.0" y2="109.0" stroke="black" stroke-width="0.1" />
  <line x1="0.0" y1="110.0" x2="2.0" y2="110.0" stroke="black" stroke-width="0.1" />
  <line x1="0.0" y1="111.0" x2="1.0" y2="111.0" stroke="black" stroke-width="0.1" />
  <line x1="0.0" y1="112.0" x2="1.0" y2="112.0" stroke="black" stroke-width="0.1" />
  <line x1="0.0" y1="113.0" x2="1.0" y2="113.0" stroke="black" stroke-width="0.1" />
  <line x1="0.0" y1="114.0" x2="1.0" y2="114.0" stroke="black" stroke-width="0.1" />
  <line x1="0.0" y1="115.0" x2="3.0" y2="115.0" stroke="black" stroke-width="0.1" />
  <line x1="0.0" y1="116.0" x2="1.0" y2="116.0" stroke="black" stroke-width="0.1" />
  <line x1="0.0" y1="117.0" x2="1.0" y2="117.0" stroke="black" stroke-width="0.1" />
  <line x1="0.0" y1="118.0" x2="1.0" y2="118.0" stroke="black" stroke-width="0.1" />
  <line x1="0.0" y1="119.0" x2="1.0" y2="119.0" stroke="black" stroke-width="0.1" />
  <line x1="0.0" y1="120.0" x2="2.0" y2="120.0" stroke="black" stroke-width="0.1" />
  <line x1="0.0" y1="121.0" x2="1.0" y2="121.0" stroke="black" stroke-width="0.1" />
  <line x1="0.0" y1="122.0" x2="1.0" y2="122.0" stroke="black" stroke-width="0.1" />
  <line x1="0.0" y1="123.0" x2="1.0" y2="123.0" stroke="black" stroke-width="0.1" />
  <line x1="0.0" y1="124.0" x2="1.0" y2="124.0" stroke="black" stroke-width="0.1" />
  <line x1="0.0" y1="125.0" x2="3.0" y2="125.0" stroke="black" stroke-width="0.1" />
  <line x1="0.0" y1="126.0" x2="1.0" y2="126.0" stroke="black" stroke-width="0.1" />
  <line x1="0.0" y1="127.0" x2="1.0" y2="127.0" stroke="black" stroke-width="0.1" />
  <line x1="0.0" y1="128.0" x2="1.0" y2="128.0" stroke="black" stroke-width="0.1" />
  <line x1="0.0" y1="129.0" x2="1.0" y2="129.0" stroke="black" stroke-width="0.1" />
  <line x1="0.0" y1="130.0" x2="2.0" y2="130.0" stroke="black" stroke-width="0.1" />
  <line x1="0.0" y1="131.0" x2="1.0" y2="131.0" stroke="black" stroke-width="0.1" />
  <line x1="0.0" y1="132.0" x2="1.0" y2="132.0" stroke="black" stroke-width="0.1" />
  <line x1="0.0" y1="133.0" x2="1.0" y2="133.0" stroke="black" stroke-width="0.1" />
  <line x1="0.0" y1="134.0" x2="1.0" y2="134.0" stroke="black" stroke-width="0.1" />
  <line x1="0.0" y1="135.0" x2="3.0" y2="135.0" stroke="black" stroke-width="0.1" />
  <line x1="0.0" y1="136.0" x2="1.0" y2="136.0" stroke="black" stroke-width="0.1" />
  <line x1="0.0" y1="137.0" x2="1.0" y2="137.0" stroke="black" stroke-width="0.1" />
  <line x1="0.0" y1="138.0" x2="1.0" y2="138.0" stroke="black" stroke-width="0.1" />
  <line x1="0.0" y1="139.0" x2="1.0" y2="139.0" stroke="black" stroke-width="0.1" />
  <line x1="0.0" y1="140.0" x2="2.0" y2="140.0" stroke="black" stroke-width="0.1" />
  <line x1="0.0" y1="141.0" x2="1.0" y2="141.0" stroke="black" stroke-width="0.1" />
  <line x1="0.0" y1="142.0" x2="1.0" y2="142.0" stroke="black" stroke-width="0.1" />
  <line x1="0.0" y1="143.0" x2="1.0" y2="143.0" stroke="black" stroke-width="0.1" />
  <line x1="0.0" y1="144.0" x2="1.0" y2="144.0" stroke="black" stroke-width="0.1" />
  <line x1="0.0" y1="145.0" x2="3.0" y2="145.0" stroke="black" stroke-width="0.1" />
  <line x1="0.0" y1="146.0" x2="1.0" y2="146.0" stroke="black" stroke-width="0.1" />
  <line x1="0.0" y1="147.0" x2="1.0" y2="147.0" stroke="black" stroke-width="0.1" />
  <line x1="0.0" y1="148.0" x2="1.0" y2="148.0" stroke="black" stroke-width="0.1" />
  <line x1="0.0" y1="149.0" x2="1.0" y2="149.0" stroke="black" stroke-width="0.1" />
  <line x1="0.0" y1="150.0" x2="2.0" y2="150.0" stroke="black" stroke-width="0.1" />
  <line x1="0.0" y1="151.0" x2="1.0" y2="151.0" stroke="black" stroke-width="0.1" />
  <line x1="0.0" y1="152.0" x2="1.0" y2="152.0" stroke="black" stroke-width="0.1" />
  <line x1="0.0" y1="153.0" x2="1.0" y2="153.0" stroke="black" stroke-width="0.1" />
  <line x1="0.0" y1="154.0" x2="1.0" y2="154.0" stroke="black" stroke-width="0.1" />
  <line x1="0.0" y1="155.0" x2="3.0" y2="155.0" stroke="black" stroke-width="0.1" />
  <line x1="0.0" y1="156.0" x2="1.0" y2="156.0" stroke="black" stroke-width="0.1" />
  <line x1="0.0" y1="157.0" x2="1.0" y2="157.0" stroke="black" stroke-width="0.1" />
  <line x1="0.0" y1="158.0" x2="1.0" y2="158.0" stroke="black" stroke-width="0.1" />
  <line x1="0.0" y1="159.0" x2="1.0" y2="159.0" stroke="black" stroke-width="0.1" />
  <line x1="0.0" y1="160.0" x2="2.0" y2="160.0" stroke="black" stroke-width="0.1" />
  <line x1="0.0" y1="161.0" x2="1.0" y2="161.0" stroke="black" stroke-width="0.1" />
  <line x1="0.0" y1="162.0" x2="1.0" y2="162.0" stroke="black" stroke-width="0.1" />
  <line x1="0.0" y1="163.0" x2="1.0" y2="163.0" stroke="black" stroke-width="0.1" />
  <line x1="0.0" y1="164.0" x2="1.0" y2="164.0" stroke="black" stroke-width="0.1" />
  <line x1="0.0" y1="165.0" x2="3.0" y2="165.0" stroke="black" stroke-width="0.1" />
  <line x1="0.0" y1="166.0" x2="1.0" y2="166.0" stroke="black" stroke-width="0.1" />
  <line x1="0.0" y1="167.0" x2="1.0" y2="167.0" stroke="black" stroke-width="0.1" />
  <line x1="0.0" y1="168.0" x2="1.0" y2="168.0" stroke="black" stroke-width="0.1" />
  <line x1="0.0" y1="169.0" x2="1.0" y2="169.0" stroke="black" stroke-width="0.1" />
  <line x1="0.0" y1="170.0" x2="2.0" y2="170.0" stroke="black" stroke-width="0.1" />
  <line x1="0.0" y1="171.0" x2="1.0" y2="171.0" stroke="black" stroke-width="0.1" />
  <line x1="0.0" y1="172.0" x2="1.0" y2="172.0" stroke="black" stroke-width="0.1" />
  <line x1="0.0" y1="173.0" x2="1.0" y2="173.0" stroke="black" stroke-width="0.1" />
  <line x1="0.0" y1="174.0" x2="1.0" y2="174.0" stroke="black" stroke-width="0.1" />
  <line x1="0.0" y1="175.0" x2="3.0" y2="175.0" stroke="black" stroke-width="0.1" />
  <line x1="0.0" y1="176.0" x2="1.0" y2="176.0" stroke="black" stroke-width="0.1" />
  <line x1="0.0" y1="177.0" x2="1.0" y2="177.0" stroke="black" stroke-width="0.1" />
  <line x1="0.0" y1="178.0" x2="1.0" y2="178.0" stroke="black" stroke-width="0.1" />
  <line x1="0.0" y1="179.0" x2="1.0" y2="179.0" stroke="black" stroke-width="0.1" />
  <line x1="0.0" y1="180.0" x2="2.0" y2="180.0" stroke="black" stroke-width="0.1" />
  <line x1="0.0" y1="181.0" x2="1.0" y2="181.0" stroke="black" stroke-width="0.1" />
  <line x1="0.0" y1="182.0" x2="1.0" y2="182.0" stroke="black" stroke-width="0.1" />
  <line x1="0.0" y1="183.0" x2="1.0" y2="183.0" stroke="black" stroke-width="0.1" />
  <line x1="0.0" y1="184.0" x2="1.0" y2="184.0" stroke="black" stroke-width="0.1" />
  <line x1="0.0" y1="185.0" x2="3.0" y2="185.0" stroke="black" stroke-width="0.1" />
  <line x1="0.0" y1="186.0" x2="1.0" y2="186.0" stroke="black" stroke-width="0.1" />
  <line x1="0.0" y1="187.0" x2="1.0" y2="187.0" stroke="black" stroke-width="0.1" />
  <line x1="0.0" y1="188.0" x2="1.0" y2="188.0" stroke="black" stroke-width="0.1" />
  <line x1="0.0" y1="189.0" x2="1.0" y2="189.0" stroke="black" stroke-width="0.1" />
  <line x1="0.0" y1="190.0" x2="2.0" y2="190.0" stroke="black" stroke-width="0.1" />
  <line x1="0.0" y1="191.0" x2="1.0" y2="191.0" stroke="black" stroke-width="0.1" />
  <line x1="0.0" y1="192.0" x2="1.0" y2="192.0" stroke="black" stroke-width="0.1" />
  <line x1="0.0" y1="193.0" x2="1.0" y2="193.0" stroke="black" stroke-width="0.1" />
  <line x1="0.0" y1="194.0" x2="1.0" y2="194.0" stroke="black" stroke-width="0.1" />
  <line x1="0.0" y1="195.0" x2="3.0" y2="195.0" stroke="black" stroke-width="0.1" />
  <line x1="0.0" y1="196.0" x2="1.0" y2="196.0" stroke="black" stroke-width="0.1" />
  <line x1="0.0" y1="197.0" x2="1.0" y2="197.0" stroke="black" stroke-width="0.1" />
  <line x1="0.0" y1="198.0" x2="1.0" y2="198.0" stroke="black" stroke-width="0.1" />
  <line x1="0.0" y1="199.0" x2="1.0" y2="199.0" stroke="black" stroke-width="0.1" />
  <line x1="0.0" y1="200.0" x2="2.0" y2="200.0" stroke="black" stroke-width="0.1" />
  <line x1="0.0" y1="201.0" x2="1.0" y2="201.0" stroke="black" stroke-width="0.1" />
  <line x1="0.0" y1="202.0" x2="1.0" y2="202.0" stroke="black" stroke-width="0.1" />
  <line x1="0.0" y1="203.0" x2="1.0" y2="203.0" stroke="black" stroke-width="0.1" />
  <line x1="0.0" y1="204.0" x2="1.0" y2="204.0" stroke="black" stroke-width="0.1" />
  <line x1="0.0" y1="205.0" x2="3.0" y2="205.0" stroke="black" stroke-width="0.1" />
  <line x1="0.0" y1="206.0" x2="1.0" y2="206.0" stroke="black" stroke-width="0.1" />
  <line x1="0.0" y1="207.0" x2="1.0" y2="207.0" stroke="black" stroke-width="0.1" />
  <line x1="0.0" y1="208.0" x2="1.0" y2="208.0" stroke="black" stroke-width="0.1" />
  <line x1="0.0" y1="209.0" x2="1.0" y2="209.0" stroke="black" stroke-width="0.1" />
  <line x1="0.0" y1="210.0" x2="2.0" y2="210.0" stroke="black" stroke-width="0.1" />
  <line x1="0.0" y1="211.0" x2="1.0" y2="211.0" stroke="black" stroke-width="0.1" />
  <line x1="0.0" y1="212.0" x2="1.0" y2="212.0" stroke="black" stroke-width="0.1" />
  <line x1="0.0" y1="213.0" x2="1.0" y2="213.0" stroke="black" stroke-width="0.1" />
  <line x1="0.0" y1="214.0" x2="1.0" y2="214.0" stroke="black" stroke-width="0.1" />
  <line x1="0.0" y1="215.0" x2="3.0" y2="215.0" stroke="black" stroke-width="0.1" />
  <line x1="0.0" y1="216.0" x2="1.0" y2="216.0" stroke="black" stroke-width="0.1" />
  <line x1="0.0" y1="217.0" x2="1.0" y2="217.0" stroke="black" stroke-width="0.1" />
  <line x1="0.0" y1="218.0" x2="1.0" y2="218.0" stroke="black" stroke-width="0.1" />
  <line x1="0.0" y1="219.0" x2="1.0" y2="219.0" stroke="black" stroke-width="0.1" />
  <line x1="0.0" y1="220.0" x2="2.0" y2="220.0" stroke="black" stroke-width="0.1" />
  <line x1="0.0" y1="221.0" x2="1.0" y2="221.0" stroke="black" stroke-width="0.1" />
  <line x1="0.0" y1="222.0" x2="1.0" y2="222.0" stroke="black" stroke-width="0.1" />
  <line x1="0.0" y1="223.0" x2="1.0" y2="223.0" stroke="black" stroke-width="0.1" />
  <line x1="0.0" y1="224.0" x2="1.0" y2="224.0" stroke="black" stroke-width="0.1" />
  <line x1="0.0" y1="225.0" x2="3.0" y2="225.0" stroke="black" stroke-width="0.1" />
  <line x1="0.0" y1="226.0" x2="1.0" y2="226.0" stroke="black" stroke-width="0.1" />
  <line x1="0.0" y1="227.0" x2="1.0" y2="227.0" stroke="black" stroke-width="0.1" />
  <line x1="0.0" y1="228.0" x2="1.0" y2="228.0" stroke="black" stroke-width="0.1" />
  <line x1="0.0" y1="229.0" x2="1.0" y2="229.0" stroke="black" stroke-width="0.1" />
  <line x1="0.0" y1="230.0" x2="2.0" y2="230.0" stroke="black" stroke-width="0.1" />
  <line x1="0.0" y1="231.0" x2="1.0" y2="231.0" stroke="black" stroke-width="0.1" />
  <line x1="0.0" y1="232.0" x2="1.0" y2="232.0" stroke="black" stroke-width="0.1" />
  <line x1="0.0" y1="233.0" x2="1.0" y2="233.0" stroke="black" stroke-width="0.1" />
  <line x1="0.0" y1="234.0" x2="1.0" y2="234.0" stroke="black" stroke-width="0.1" />
  <line x1="0.0" y1="235.0" x2="3.0" y2="235.0" stroke="black" stroke-width="0.1" />
  <line x1="0.0" y1="236.0" x2="1.0" y2="236.0" stroke="black" stroke-width="0.1" />
  <line x1="0.0" y1="237.0" x2="1.0" y2="237.0" stroke="black" stroke-width="0.1" />
  <line x1="0.0" y1="238.0" x2="1.0" y2="238.0" stroke="black" stroke-width="0.1" />
  <line x1="0.0" y1="239.0" x2="1.0" y2="239.0" stroke="black" stroke-width="0.1" />
  <line x1="0.0" y1="240.0" x2="2.0" y2="240.0" stroke="black" stroke-width="0.1" />
  <line x1="0.0" y1="241.0" x2="1.0" y2="241.0" stroke="black" stroke-width="0.1" />
  <line x1="0.0" y1="242.0" x2="1.0" y2="242.0" stroke="black" stroke-width="0.1" />
  <line x1="0.0" y1="243.0" x2="1.0" y2="243.0" stroke="black" stroke-width="0.1" />
  <line x1="0.0" y1="244.0" x2="1.0" y2="244.0" stroke="black" stroke-width="0.1" />
  <line x1="0.0" y1="245.0" x2="3.0" y2="245.0" stroke="black" stroke-width="0.1" />
  <line x1="0.0" y1="246.0" x2="1.0" y2="246.0" stroke="black" stroke-width="0.1" />
  <line x1="0.0" y1="247.0" x2="1.0" y2="247.0" stroke="black" stroke-width="0.1" />
  <line x1="0.0" y1="248.0" x2="1.0" y2="248.0" stroke="black" stroke-width="0.1" />
  <line x1="0.0" y1="249.0" x2="1.0" y2="249.0" stroke="black" stroke-width="0.1" />
  <line x1="0.0" y1="250.0" x2="2.0" y2="250.0" stroke="black" stroke-width="0.1" />
  <line x1="0.0" y1="251.0" x2="1.0" y2="251.0" stroke="black" stroke-width="0.1" />
  <line x1="0.0" y1="252.0" x2="1.0" y2="252.0" stroke="black" stroke-width="0.1" />
  <line x1="0.0" y1="253.0" x2="1.0" y2="253.0" stroke="black" stroke-width="0.1" />
  <line x1="0.0" y1="254.0" x2="1.0" y2="254.0" stroke="black" stroke-width="0.1" />
  <line x1="0.0" y1="255.0" x2="3.0" y2="255.0" stroke="black" stroke-width="0.1" />
  <line x1="7.5" y1="255.0" x2="7.5" y2="252.0" stroke="black" stroke-width="0.1" />
  <line x1="8.5" y1="255.0" x2="8.5" y2="254.0" stroke="black" stroke-width="0.1" />
  <line x1="9.5" y1="255.0" x2="9.5" y2="254.0" stroke="black" stroke-width="0.1" />
  <line x1="10.5" y1="255.0" x2="10.5" y2="254.0" stroke="black" stroke-width="0.1" />
  <line x1="11.5" y1="255.0" x2="11.5" y2="254.0" stroke="black" stroke-width="0.1" />
  <line x1="12.5" y1="255.0" x2="12.5" y2="253.0" stroke="black" stroke-width="0.1" />
  <line x1="13.5" y1="255.0" x2="13.5" y2="254.0" stroke="black" stroke-width="0.1" />
  <line x1="14.5" y1="255.0" x2="14.5" y2="254.0" stroke="black" stroke-width="0.1" />
  <line x1="15.5" y1="255.0" x2="15.5" y2="254.0" stroke="black" stroke-width="0.1" />
  <line x1="16.5" y1="255.0" x2="16.5" y2="254.0" stroke="black" stroke-width="0.1" />
  <line x1="17.5" y1="255.0" x2="17.5" y2="252.0" stroke="black" stroke-width="0.1" />
  <line x1="18.5" y1="255.0" x2="18.5" y2="254.0" stroke="black" stroke-width="0.1" />
  <line x1="19.5" y1="255.0" x2="19.5" y2="254.0" stroke="black" stroke-width="0.1" />
  <line x1="20.5" y1="255.0" x2="20.5" y2="254.0" stroke="black" stroke-width="0.1" />
  <line x1="21.5" y1="255.0" x2="21.5" y2="254.0" stroke="black" stroke-width="0.1" />
  <line x1="22.5" y1="255.0" x2="22.5" y2="253.0" stroke="black" stroke-width="0.1" />
  <line x1="23.5" y1="255.0" x2="23.5" y2="254.0" stroke="black" stroke-width="0.1" />
  <line x1="24.5" y1="255.0" x2="24.5" y2="254.0" stroke="black" stroke-width="0.1" />
  <line x1="25.5" y1="255.0" x2="25.5" y2="254.0" stroke="black" stroke-width="0.1" />
  <line x1="26.5" y1="255.0" x2="26.5" y2="254.0" stroke="black" stroke-width="0.1" />
  <line x1="27.5" y1="255.0" x2="27.5" y2="252.0" stroke="black" stroke-width="0.1" />
  <line x1="28.5" y1="255.0" x2="28.5" y2="254.0" stroke="black" stroke-width="0.1" />
  <line x1="29.5" y1="255.0" x2="29.5" y2="254.0" stroke="black" stroke-width="0.1" />
  <line x1="30.5" y1="255.0" x2="30.5" y2="254.0" stroke="black" stroke-width="0.1" />
  <line x1="31.5" y1="255.0" x2="31.5" y2="254.0" stroke="black" stroke-width="0.1" />
  <line x1="32.5" y1="255.0" x2="32.5" y2="253.0" stroke="black" stroke-width="0.1" />
  <line x1="33.5" y1="255.0" x2="33.5" y2="254.0" stroke="black" stroke-width="0.1" />
  <line x1="34.5" y1="255.0" x2="34.5" y2="254.0" stroke="black" stroke-width="0.1" />
  <line x1="35.5" y1="255.0" x2="35.5" y2="254.0" stroke="black" stroke-width="0.1" />
  <line x1="36.5" y1="255.0" x2="36.5" y2="254.0" stroke="black" stroke-width="0.1" />
  <line x1="37.5" y1="255.0" x2="37.5" y2="252.0" stroke="black" stroke-width="0.1" />
  <line x1="38.5" y1="255.0" x2="38.5" y2="254.0" stroke="black" stroke-width="0.1" />
  <line x1="39.5" y1="255.0" x2="39.5" y2="254.0" stroke="black" stroke-width="0.1" />
  <line x1="40.5" y1="255.0" x2="40.5" y2="254.0" stroke="black" stroke-width="0.1" />
  <line x1="41.5" y1="255.0" x2="41.5" y2="254.0" stroke="black" stroke-width="0.1" />
  <line x1="42.5" y1="255.0" x2="42.5" y2="253.0" stroke="black" stroke-width="0.1" />
  <line x1="43.5" y1="255.0" x2="43.5" y2="254.0" stroke="black" stroke-width="0.1" />
  <line x1="44.5" y1="255.0" x2="44.5" y2="254.0" stroke="black" stroke-width="0.1" />
  <line x1="45.5" y1="255.0" x2="45.5" y2="254.0" stroke="black" stroke-width="0.1" />
  <line x1="46.5" y1="255.0" x2="46.5" y2="254.0" stroke="black" stroke-width="0.1" />
  <line x1="47.5" y1="255.0" x2="47.5" y2="252.0" stroke="black" stroke-width="0.1" />
  <line x1="47.5" y1="255.0" x2="47.5" y2="252.0" stroke="black" stroke-width="0.1" />
  <line x1="48.5" y1="255.0" x2="48.5" y2="254.0" stroke="black" stroke-width="0.1" />
  <line x1="49.5" y1="255.0" x2="49.5" y2="254.0" stroke="black" stroke-width="0.1" />
  <line x1="50.5" y1="255.0" x2="50.5" y2="254.0" stroke="black" stroke-width="0.1" />
  <line x1="51.5" y1="255.0" x2="51.5" y2="254.0" stroke="black" stroke-width="0.1" />
  <line x1="52.5" y1="255.0" x2="52.5" y2="253.0" stroke="black" stroke-width="0.1" />
  <line x1="53.5" y1="255.0" x2="53.5" y2="254.0" stroke="black" stroke-width="0.1" />
  <line x1="54.5" y1="255.0" x2="54.5" y2="254.0" stroke="black" stroke-width="0.1" />
  <line x1="55.5" y1="255.0" x2="55.5" y2="254.0" stroke="black" stroke-width="0.1" />
  <line x1="56.5" y1="255.0" x2="56.5" y2="254.0" stroke="black" stroke-width="0.1" />
  <line x1="57.5" y1="255.0" x2="57.5" y2="252.0" stroke="black" stroke-width="0.1" />
  <line x1="58.5" y1="255.0" x2="58.5" y2="254.0" stroke="black" stroke-width="0.1" />
  <line x1="59.5" y1="255.0" x2="59.5" y2="254.0" stroke="black" stroke-width="0.1" />
  <line x1="60.5" y1="255.0" x2="60.5" y2="254.0" stroke="black" stroke-width="0.1" />
  <line x1="61.5" y1="255.0" x2="61.5" y2="254.0" stroke="black" stroke-width="0.1" />
  <line x1="62.5" y1="255.0" x2="62.5" y2="253.0" stroke="black" stroke-width="0.1" />
  <line x1="63.5" y1="255.0" x2="63.5" y2="254.0" stroke="black" stroke-width="0.1" />
  <line x1="64.5" y1="255.0" x2="64.5" y2="254.0" stroke="black" stroke-width="0.1" />
  <line x1="65.5" y1="255.0" x2="65.5" y2="254.0" stroke="black" stroke-width="0.1" />
  <line x1="66.5" y1="255.0" x2="66.5" y2="254.0" stroke="black" stroke-width="0.1" />
  <line x1="67.5" y1="255.0" x2="67.5" y2="252.0" stroke="black" stroke-width="0.1" />
  <line x1="68.5" y1="255.0" x2="68.5" y2="254.0" stroke="black" stroke-width="0.1" />
  <line x1="69.5" y1="255.0" x2="69.5" y2="254.0" stroke="black" stroke-width="0.1" />
  <line x1="70.5" y1="255.0" x2="70.5" y2="254.0" stroke="black" stroke-width="0.1" />
  <line x1="71.5" y1="255.0" x2="71.5" y2="254.0" stroke="black" stroke-width="0.1" />
  <line x1="72.5" y1="255.0" x2="72.5" y2="253.0" stroke="black" stroke-width="0.1" />
  <line x1="73.5" y1="255.0" x2="73.5" y2="254.0" stroke="black" stroke-width="0.1" />
  <line x1="74.5" y1="255.0" x2="74.5" y2="254.0" stroke="black" stroke-width="0.1" />
  <line x1="75.5" y1="255.0" x2="75.5" y2="254.0" stroke="black" stroke-width="0.1" />
  <line x1="76.5" y1="255.0" x2="76.5" y2="254.0" stroke="black" stroke-width="0.1" />
  <line x1="77.5" y1="255.0" x2="77.5" y2="252.0" stroke="black" stroke-width="0.1" />
  <line x1="78.5" y1="255.0" x2="78.5" y2="254.0" stroke="black" stroke-width="0.1" />
  <line x1="79.5" y1="255.0" x2="79.5" y2="254.0" stroke="black" stroke-width="0.1" />
  <line x1="80.5" y1="255.0" x2="80.5" y2="254.0" stroke="black" stroke-width="0.1" />
  <line x1="81.5" y1="255.0" x2="81.5" y2="254.0" stroke="black" stroke-width="0.1" />
  <line x1="82.5" y1="255.0" x2="82.5" y2="253.0" stroke="black" stroke-width="0.1" />
  <line x1="83.5" y1="255.0" x2="83.5" y2="254.0" stroke="black" stroke-width="0.1" />
  <line x1="84.5" y1="255.0" x2="84.5" y2="254.0" stroke="black" stroke-width="0.1" />
  <line x1="85.5" y1="255.0" x2="85.5" y2="254.0" stroke="black" stroke-width="0.1" />
  <line x1="86.5" y1="255.0" x2="86.5" y2="254.0" stroke="black" stroke-width="0.1" />
  <line x1="87.5" y1="255.0" x2="87.5" y2="252.0" stroke="black" stroke-width="0.1" />
  <circle cx="163.5" cy="67.0" r="2.5" fill="none" stroke="black" stroke-width="0.1" />
  <circle cx="163.5" cy="67.0" r="0.25" fill="none" stroke="black" stroke-width="0.1" />
  <line x1="163.25" y1="67.0" x2="163.0" y2="67.0" stroke="black" stroke-width="0.1" />
  <line x1="163.75" y1="67.0" x2="164.0" y2="67.0" stroke="black" stroke-width="0.1" />
  <line x1="163.5" y1="66.75" x2="163.5" y2="66.5" stroke="black" stroke-width="0.1" />
  <line x1="163.5" y1="67.25" x2="163.5" y2="67.5" stroke="black" stroke-width="0.1" />
  <line x1="160.5" y1="67.0" x2="161.5" y2="67.0" stroke="black" stroke-width="0.1" />
  <line x1="165.5" y1="67.0" x2="166.5" y2="67.0" stroke="black" stroke-width="0.1" />
  <line x1="163.5" y1="64.0" x2="163.5" y2="65.0" stroke="black" stroke-width="0.1" />
  <line x1="163.5" y1="69.0" x2="163.5" y2="70.0" stroke="black" stroke-width="0.1" />
  <circle cx="121.5" cy="67.0" r="2.5" fill="none" stroke="black" stroke-width="0.1" />
  <circle cx="121.5" cy="67.0" r="0.25" fill="none" stroke="black" stroke-width="0.1" />
  <line x1="121.25" y1="67.0" x2="121.0" y2="67.0" stroke="black" stroke-width="0.1" />
  <line x1="121.75" y1="67.0" x2="122.0" y2="67.0" stroke="black" stroke-width="0.1" />
  <line x1="121.5" y1="66.75" x2="121.5" y2="66.5" stroke="black" stroke-width="0.1" />
  <line x1="121.5" y1="67.25" x2="121.5" y2="67.5" stroke="black" stroke-width="0.1" />
  <line x1="118.5" y1="67.0" x2="119.5" y2="67.0" stroke="black" stroke-width="0.1" />
  <line x1="123.5" y1="67.0" x2="124.5" y2="67.0" stroke="black" stroke-width="0.1" />
  <line x1="121.5" y1="64.0" x2="121.5" y2="65.0" stroke="black" stroke-width="0.1" />
  <line x1="121.5" y1="69.0" x2="121.5" y2="70.0" stroke="black" stroke-width="0.1" />
  <circle cx="162.5" cy="97.0" r="2.5" fill="none" stroke="black" stroke-width="0.1" />
  <circle cx="162.5" cy="97.0" r="0.25" fill="none" stroke="black" stroke-width="0.1" />
  <line x1="162.25" y1="97.0" x2="162.0" y2="97.0" stroke="black" stroke-width="0.1" />
  <line x1="162.75" y1="97.0" x2="163.0" y2="97.0" stroke="black" stroke-width="0.1" />
  <line x1="162.5" y1="96.75" x2="162.5" y2="96.5" stroke="black" stroke-width="0.1" />
  <line x1="162.5" y1="97.25" x2="162.5" y2="97.5" stroke="black" stroke-width="0.1" />
  <line x1="159.5" y1="97.0" x2="160.5" y2="97.0" stroke="black" stroke-width="0.1" />
  <line x1="164.5" y1="97.0" x2="165.5" y2="97.0" stroke="black" stroke-width="0.1" />
  <line x1="162.5" y1="94.0" x2="162.5" y2="95.0" stroke="black" stroke-width="0.1" />
  <line x1="162.5" y1="99.0" x2="162.5" y2="100.0" stroke="black" stroke-width="0.1" />
  <circle cx="122.5" cy="97.0" r="2.5" fill="none" stroke="black" stroke-width="0.1" />
  <circle cx="122.5" cy="97.0" r="0.25" fill="none" stroke="black" stroke-width="0.1" />
  <line x1="122.25" y1="97.0" x2="122.0" y2="97.0" stroke="black" stroke-width="0.1" />
  <line x1="122.75" y1="97.0" x2="123.0" y2="97.0" stroke="black" stroke-width="0.1" />
  <line x1="122.5" y1="96.75" x2="122.5" y2="96.5" stroke="black" stroke-width="0.1" />
  <line x1="122.5" y1="97.25" x2="122.5" y2="97.5" stroke="black" stroke-width="0.1" />
  <line x1="119.5" y1="97.0" x2="120.5" y2="97.0" stroke="black" stroke-width="0.1" />
  <line x1="124.5" y1="97.0" x2="125.5" y2="97.0" stroke="black" stroke-width="0.1" />
  <line x1="122.5" y1="94.0" x2="122.5" y2="95.0" stroke="black" stroke-width="0.1" />
  <line x1="122.5" y1="99.0" x2="122.5" y2="100.0" stroke="black" stroke-width="0.1" />
  <circle cx="63.5" cy="150.0" r="2.5" fill="none" stroke="black" stroke-width="0.1" />
  <circle cx="63.5" cy="150.0" r="0.25" fill="none" stroke="black" stroke-width="0.1" />
  <line x1="63.25" y1="150.0" x2="63.0" y2="150.0" stroke="black" stroke-width="0.1" />
  <line x1="63.75" y1="150.0" x2="64.0" y2="150.0" stroke="black" stroke-width="0.1" />
  <line x1="63.5" y1="149.75" x2="63.5" y2="149.5" stroke="black" stroke-width="0.1" />
  <line x1="63.5" y1="150.25" x2="63.5" y2="150.5" stroke="black" stroke-width="0.1" />
  <line x1="60.5" y1="150.0" x2="61.5" y2="150.0" stroke="black" stroke-width="0.1" />
  <line x1="65.5" y1="150.0" x2="66.5" y2="150.0" stroke="black" stroke-width="0.1" />
  <line x1="63.5" y1="147.0" x2="63.5" y2="148.0" stroke="black" stroke-width="0.1" />
  <line x1="63.5" y1="152.0" x2="63.5" y2="153.0" stroke="black" stroke-width="0.1" />
  <circle cx="31.5" cy="150.0" r="2.5" fill="none" stroke="black" stroke-width="0.1" />
  <circle cx="31.5" cy="150.0" r="0.25" fill="none" stroke="black" stroke-width="0.1" />
  <line x1="31.25" y1="150.0" x2="31.0" y2="150.0" stroke="black" stroke-width="0.1" />
  <line x1="31.75" y1="150.0" x2="32.0" y2="150.0" stroke="black" stroke-width="0.1" />
  <line x1="31.5" y1="149.75" x2="31.5" y2="149.5" stroke="black" stroke-width="0.1" />
  <line x1="31.5" y1="150.25" x2="31.5" y2="150.5" stroke="black" stroke-width="0.1" />
  <line x1="28.5" y1="150.0" x2="29.5" y2="150.0" stroke="black" stroke-width="0.1" />
  <line x1="33.5" y1="150.0" x2="34.5" y2="150.0" stroke="black" stroke-width="0.1" />
  <line x1="31.5" y1="147.0" x2="31.5" y2="148.0" stroke="black" stroke-width="0.1" />
  <line x1="31.5" y1="152.0" x2="31.5" y2="153.0" stroke="black" stroke-width="0.1" />
  <circle cx="63.5" cy="225.0" r="2.5" fill="none" stroke="black" stroke-width="0.1" />
  <circle cx="63.5" cy="225.0" r="0.25" fill="none" stroke="black" stroke-width="0.1" />
  <line x1="63.25" y1="225.0" x2="63.0" y2="225.0" stroke="black" stroke-width="0.1" />
  <line x1="63.75" y1="225.0" x2="64.0" y2="225.0" stroke="black" stroke-width="0.1" />
  <line x1="63.5" y1="224.75" x2="63.5" y2="224.5" stroke="black" stroke-width="0.1" />
  <line x1="63.5" y1="225.25" x2="63.5" y2="225.5" stroke="black" stroke-width="0.1" />
  <line x1="60.5" y1="225.0" x2="61.5" y2="225.0" stroke="black" stroke-width="0.1" />
  <line x1="65.5" y1="225.0" x2="66.5" y2="225.0" stroke="black" stroke-width="0.1" />
  <line x1="63.5" y1="222.0" x2="63.5" y2="223.0" stroke="black" stroke-width="0.1" />
  <line x1="63.5" y1="227.0" x2="63.5" y2="228.0" stroke="black" stroke-width="0.1" />
  <circle cx="31.5" cy="225.0" r="2.5" fill="none" stroke="black" stroke-width="0.1" />
  <circle cx="31.5" cy="225.0" r="0.25" fill="none" stroke="black" stroke-width="0.1" />
  <line x1="31.25" y1="225.0" x2="31.0" y2="225.0" stroke="black" stroke-width="0.1" />
  <line x1="31.75" y1="225.0" x2="32.0" y2="225.0" stroke="black" stroke-width="0.1" />
  <line x1="31.5" y1="224.75" x2="31.5" y2="224.5" stroke="black" stroke-width="0.1" />
  <line x1="31.5" y1="225.25" x2="31.5" y2="225.5" stroke="black" stroke-width="0.1" />
  <line x1="28.5" y1="225.0" x2="29.5" y2="225.0" stroke="black" stroke-width="0.1" />
  <line x1="33.5" y1="225.0" x2="34.5" y2="225.0" stroke="black" stroke-width="0.1" />
  <line x1="31.5" y1="222.0" x2="31.5" y2="223.0" stroke="black" stroke-width="0.1" />
  <line x1="31.5" y1="227.0" x2="31.5" y2="228.0" stroke="black" stroke-width="0.1" />
  <text x="82.5" y="10.0" class="small" transform="rotate(90 82.5 10.0)" >Salomon STH2, BSL: 346 mm, Heel</text>
  <text x="177.5" y="10.0" class="small" transform="rotate(90 177.5 10.0)" >Salomon STH2, BSL: 346 mm, Toe</text>
</svg>
