<?xml version="1.0"?>
<!DOCTYPE svg PUBLIC "-//W3C//DTD SVG 1.1//EN"
"http://www.w3.org/Graphics/SVG/1.1/DTD/svg11.dtd">
<svg xmlns="http://www.w3.org/2000/svg" version="1.2" width="190.0mm" height="259.0mm" viewBox="0 0 190.0 259.0" >
  <line x1="95.0" y1="0.0" x2="95.0" y2="259.0" stroke="black" stroke-width="0.1" stroke-dasharray="4 4" />
  <line x1="47.5" y1="0.0" x2="47.5" y2="259.0" stroke="black" stroke-width="0.1" />
  <line x1="142.5" y1="0.0" x2="142.5" y2="259.0" stroke="black" stroke-width="0.1" />
  <line x1="95.0" y1="255.0" x2="180.0" y2="255.0" stroke="black" stroke-width="0.1" />
  <line x1="10.0" y1="5.0" x2="95.0" y2="5.0" stroke="black" stroke-width="0.1" />
  <circle cx="160.5" cy="76.0" r="2.5" fill="none" stroke="black" stroke-width="0.1" />
  <line x1="160.0" y1="76.0" x2="161.0" y2="76.0" stroke="black" stroke-width="0.1" />
  <line x1="160.5" y1="75.5" x2="160.5" y2="76.5" stroke="black" stroke-width="0.1" />
  <line x1="157.5" y1="76.0" x2="158.5" y2="76.0" stroke="black" stroke-width="0.1" />
  <line x1="162.5" y1="76.0" x2="163.5" y2="76.0" stroke="black" stroke-width="0.1" />
  <line x1="160.5" y1="73.0" x2="160.5" y2="74.0" stroke="black" stroke-width="0.1" />
  <line x1="160.5" y1="78.0" x2="160.5" y2="79.0" stroke="black" stroke-width="0.1" />
  <circle cx="124.5" cy="76.0" r="2.5" fill="none" stroke="black" stroke-width="0.1" />
  <line x1="124.0" y1="76.0" x2="125.0" y2="76.0" stroke="black" stroke-width="0.1" />
  <line x1="124.5" y1="75.5" x2="124.5" y2="76.5" stroke="black" stroke-width="0.1" />
  <line x1="121.5" y1="76.0" x2="122.5" y2="76.0" stroke="black" stroke-width="0.1" />
  <line x1="126.5" y1="76.0" x2="127.5" y2="76.0" stroke="black" stroke-width="0.1" />
  <line x1="124.5" y1="73.0" x2="124.5" y2="74.0" stroke="black" stroke-width="0.1" />
  <line x1="124.5" y1="78.0" x2="124.5" y2="79.0" stroke="black" stroke-width="0.1" />
  <circle cx="160.5" cy="107.0" r="2.5" fill="none" stroke="black" stroke-width="0.1" />
  <line x1="160.0" y1="107.0" x2="161.0" y2="107.0" stroke="black" stroke-width="0.1" />
  <line x1="160.5" y1="106.5" x2="160.5" y2="107.5" stroke="black" stroke-width="0.1" />
  <line x1="157.5" y1="107.0" x2="158.5" y2="107.0" stroke="black" stroke-width="0.1" />
  <line x1="162.5" y1="107.0" x2="163.5" y2="107.0" stroke="black" stroke-width="0.1" />
  <line x1="160.5" y1="104.0" x2="160.5" y2="105.0" stroke="black" stroke-width="0.1" />
  <line x1="160.5" y1="109.0" x2="160.5" y2="110.0" stroke="black" stroke-width="0.1" />
  <circle cx="124.5" cy="107.0" r="2.5" fill="none" stroke="black" stroke-width="0.1" />
  <line x1="124.0" y1="107.0" x2="125.0" y2="107.0" stroke="black" stroke-width="0.1" />
  <line x1="124.5" y1="106.5" x2="124.5" y2="107.5" stroke="black" stroke-width="0.1" />
  <line x1="121.5" y1="107.0" x2="122.5" y2="107.0" stroke="black" stroke-width="0.1" />
  <line x1="126.5" y1="107.0" x2="127.5" y2="107.0" stroke="black" stroke-width="0.1" />
  <line x1="124.5" y1="104.0" x2="124.5" y2="105.0" stroke="black" stroke-width="0.1" />
  <line x1="124.5" y1="109.0" x2="124.5" y2="110.0" stroke="black" stroke-width="0.1" />
  <circle cx="63.5" cy="140.0" r="2.5" fill="none" stroke="black" stroke-width="0.1" />
  <line x1="63.0" y1="140.0" x2="64.0" y2="140.0" stroke="black" stroke-width="0.1" />
  <line x1="63.5" y1="139.5" x2="63.5" y2="140.5" stroke="black" stroke-width="0.1" />
  <line x1="60.5" y1="140.0" x2="61.5" y2="140.0" stroke="black" stroke-width="0.1" />
  <line x1="65.5" y1="140.0" x2="66.5" y2="140.0" stroke="black" stroke-width="0.1" />
  <line x1="63.5" y1="137.0" x2="63.5" y2="138.0" stroke="black" stroke-width="0.1" />
  <line x1="63.5" y1="142.0" x2="63.5" y2="143.0" stroke="black" stroke-width="0.1" />
  <circle cx="31.5" cy="140.0" r="2.5" fill="none" stroke="black" stroke-width="0.1" />
  <line x1="31.0" y1="140.0" x2="32.0" y2="140.0" stroke="black" stroke-width="0.1" />
  <line x1="31.5" y1="139.5" x2="31.5" y2="140.5" stroke="black" stroke-width="0.1" />
  <line x1="28.5" y1="140.0" x2="29.5" y2="140.0" stroke="black" stroke-width="0.1" />
  <line x1="33.5" y1="140.0" x2="34.5" y2="140.0" stroke="black" stroke-width="0.1" />
  <line x1="31.5" y1="137.0" x2="31.5" y2="138.0" stroke="black" stroke-width="0.1" />
  <line x1="31.5" y1="142.0" x2="31.5" y2="143.0" stroke="black" stroke-width="0.1" />
  <circle cx="63.5" cy="220.0" r="2.5" fill="none" stroke="black" stroke-width="0.1" />
  <line x1="63.0" y1="220.0" x2="64.0" y2="220.0" stroke="black" stroke-width="0.1" />
  <line x1="63.5" y1="219.5" x2="63.5" y2="220.5" stroke="black" stroke-width="0.1" />
  <line x1="60.5" y1="220.0" x2="61.5" y2="220.0" stroke="black" stroke-width="0.1" />
  <line x1="65.5" y1="220.0" x2="66.5" y2="220.0" stroke="black" stroke-width="0.1" />
  <line x1="63.5" y1="217.0" x2="63.5" y2="218.0" stroke="black" stroke-width="0.1" />
  <line x1="63.5" y1="222.0" x2="63.5" y2="223.0" stroke="black" stroke-width="0.1" />
  <circle cx="31.5" cy="220.0" r="2.5" fill="none" stroke="black" stroke-width="0.1" />
  <line x1="31.0" y1="220.0" x2="32.0" y2="220.0" stroke="black" stroke-width="0.1" />
  <line x1="31.5" y1="219.5" x2="31.5" y2="220.5" stroke="black" stroke-width="0.1" />
  <line x1="28.5" y1="220.0" x2="29.5" y2="220.0" stroke="black" stroke-width="0.1" />
  <line x1="33.5" y1="220.0" x2="34.5" y2="220.0" stroke="black" stroke-width="0.1" />
  <line x1="31.5" y1="217.0" x2="31.5" y2="218.0" stroke="black" stroke-width="0.1" />
  <line x1="31.5" y1="222.0" x2="31.5" y2="223.0" stroke="black" stroke-width="0.1" />
</svg>
