<?xml version="1.0"?>
<!DOCTYPE svg PUBLIC "-//W3C//DTD SVG 1.1//EN"
"http://www.w3.org/Graphics/SVG/1.1/DTD/svg11.dtd">
<svg xmlns="http://www.w3.org/2000/svg" version="1.2" width="190.0mm" height="259.0mm" viewBox="0 0 190.0 259.0" >
  <line x1="95.0" y1="0.0" x2="95.0" y2="259.0" stroke="black" stroke-width="0.1" stroke-dasharray="4 4" />
  <line x1="47.5" y1="0.0" x2="47.5" y2="259.0" stroke="black" stroke-width="0.1" />
  <line x1="142.5" y1="0.0" x2="142.5" y2="259.0" stroke="black" stroke-width="0.1" />
  <line x1="95.0" y1="255.0" x2="180.0" y2="255.0" stroke="black" stroke-width="0.1" />
  <line x1="10.0" y1="5.0" x2="95.0" y2="5.0" stroke="black" stroke-width="0.1" />
  <circle cx="160.5" cy="72.0" r="2.5" fill="none" stroke="black" stroke-width="0.1" />
  <line x1="160.0" y1="72.0" x2="161.0" y2="72.0" stroke="black" stroke-width="0.1" />
  <line x1="160.5" y1="71.5" x2="160.5" y2="72.5" stroke="black" stroke-width="0.1" />
  <line x1="157.5" y1="72.0" x2="158.5" y2="72.0" stroke="black" stroke-width="0.1" />
  <line x1="162.5" y1="72.0" x2="163.5" y2="72.0" stroke="black" stroke-width="0.1" />
  <line x1="160.5" y1="69.0" x2="160.5" y2="70.0" stroke="black" stroke-width="0.1" />
  <line x1="160.5" y1="74.0" x2="160.5" y2="75.0" stroke="black" stroke-width="0.1" />
  <circle cx="124.5" cy="72.0" r="2.5" fill="none" stroke="black" stroke-width="0.1" />
  <line x1="124.0" y1="72.0" x2="125.0" y2="72.0" stroke="black" stroke-width="0.1" />
  <line x1="124.5" y1="71.5" x2="124.5" y2="72.5" stroke="black" stroke-width="0.1" />
  <line x1="121.5" y1="72.0" x2="122.5" y2="72.0" stroke="black" stroke-width="0.1" />
  <line x1="126.5" y1="72.0" x2="127.5" y2="72.0" stroke="black" stroke-width="0.1" />
  <line x1="124.5" y1="69.0" x2="124.5" y2="70.0" stroke="black" stroke-width="0.1" />
  <line x1="124.5" y1="74.0" x2="124.5" y2="75.0" stroke="black" stroke-width="0.1" />
  <circle cx="160.5" cy="103.0" r="2.5" fill="none" stroke="black" stroke-width="0.1" />
  <line x1="160.0" y1="103.0" x2="161.0" y2="103.0" stroke="black" stroke-width="0.1" />
  <line x1="160.5" y1="102.5" x2="160.5" y2="103.5" stroke="black" stroke-width="0.1" />
  <line x1="157.5" y1="103.0" x2="158.5" y2="103.0" stroke="black" stroke-width="0.1" />
  <line x1="162.5" y1="103.0" x2="163.5" y2="103.0" stroke="black" stroke-width="0.1" />
  <line x1="160.5" y1="100.0" x2="160.5" y2="101.0" stroke="black" stroke-width="0.1" />
  <line x1="160.5" y1="105.0" x2="160.5" y2="106.0" stroke="black" stroke-width="0.1" />
  <circle cx="124.5" cy="103.0" r="2.5" fill="none" stroke="black" stroke-width="0.1" />
  <line x1="124.0" y1="103.0" x2="125.0" y2="103.0" stroke="black" stroke-width="0.1" />
  <line x1="124.5" y1="102.5" x2="124.5" y2="103.5" stroke="black" stroke-width="0.1" />
  <line x1="121.5" y1="103.0" x2="122.5" y2="103.0" stroke="black" stroke-width="0.1" />
  <line x1="126.5" y1="103.0" x2="127.5" y2="103.0" stroke="black" stroke-width="0.1" />
  <line x1="124.5" y1="100.0" x2="124.5" y2="101.0" stroke="black" stroke-width="0.1" />
  <line x1="124.5" y1="105.0" x2="124.5" y2="106.0" stroke="black" stroke-width="0.1" />
  <circle cx="63.5" cy="144.0" r="2.5" fill="none" stroke="black" stroke-width="0.1" />
  <line x1="63.0" y1="144.0" x2="64.0" y2="144.0" stroke="black" stroke-width="0.1" />
  <line x1="63.5" y1="143.5" x2="63.5" y2="144.5" stroke="black" stroke-width="0.1" />
  <line x1="60.5" y1="144.0" x2="61.5" y2="144.0" stroke="black" stroke-width="0.1" />
  <line x1="65.5" y1="144.0" x2="66.5" y2="144.0" stroke="black" stroke-width="0.1" />
  <line x1="63.5" y1="141.0" x2="63.5" y2="142.0" stroke="black" stroke-width="0.1" />
  <line x1="63.5" y1="146.0" x2="63.5" y2="147.0" stroke="black" stroke-width="0.1" />
  <circle cx="31.5" cy="144.0" r="2.5" fill="none" stroke="black" stroke-width="0.1" />
  <line x1="31.0" y1="144.0" x2="32.0" y2="144.0" stroke="black" stroke-width="0.1" />
  <line x1="31.5" y1="143.5" x2="31.5" y2="144.5" stroke="black" stroke-width="0.1" />
  <line x1="28.5" y1="144.0" x2="29.5" y2="144.0" stroke="black" stroke-width="0.1" />
  <line x1="33.5" y1="144.0" x2="34.5" y2="144.0" stroke="black" stroke-width="0.1" />
  <line x1="31.5" y1="141.0" x2="31.5" y2="142.0" stroke="black" stroke-width="0.1" />
  <line x1="31.5" y1="146.0" x2="31.5" y2="147.0" stroke="black" stroke-width="0.1" />
  <circle cx="63.5" cy="224.0" r="2.5" fill="none" stroke="black" stroke-width="0.1" />
  <line x1="63.0" y1="224.0" x2="64.0" y2="224.0" stroke="black" stroke-width="0.1" />
  <line x1="63.5" y1="223.5" x2="63.5" y2="224.5" stroke="black" stroke-width="0.1" />
  <line x1="60.5" y1="224.0" x2="61.5" y2="224.0" stroke="black" stroke-width="0.1" />
  <line x1="65.5" y1="224.0" x2="66.5" y2="224.0" stroke="black" stroke-width="0.1" />
  <line x1="63.5" y1="221.0" x2="63.5" y2="222.0" stroke="black" stroke-width="0.1" />
  <line x1="63.5" y1="226.0" x2="63.5" y2="227.0" stroke="black" stroke-width="0.1" />
  <circle cx="31.5" cy="224.0" r="2.5" fill="none" stroke="black" stroke-width="0.1" />
  <line x1="31.0" y1="224.0" x2="32.0" y2="224.0" stroke="black" stroke-width="0.1" />
  <line x1="31.5" y1="223.5" x2="31.5" y2="224.5" stroke="black" stroke-width="0.1" />
  <line x1="28.5" y1="224.0" x2="29.5" y2="224.0" stroke="black" stroke-width="0.1" />
  <line x1="33.5" y1="224.0" x2="34.5" y2="224.0" stroke="black" stroke-width="0.1" />
  <line x1="31.5" y1="221.0" x2="31.5" y2="222.0" stroke="black" stroke-width="0.1" />
  <line x1="31.5" y1="226.0" x2="31.5" y2="227.0" stroke="black" stroke-width="0.1" />
</svg>
