<?xml version="1.0"?>
<!DOCTYPE svg PUBLIC "-//W3C//DTD SVG 1.1//EN"
"http://www.w3.org/Graphics/SVG/1.1/DTD/svg11.dtd">
<svg xmlns="http://www.w3.org/2000/svg" version="1.2" width="190.0mm" height="259.0mm" viewBox="0 0 190.0 259.0" >
  <line x1="95.0" y1="0.0" x2="95.0" y2="259.0" stroke="black" stroke-width="0.1" stroke-dasharray="4 4" />
  <line x1="47.5" y1="0.0" x2="47.5" y2="259.0" stroke="black" stroke-width="0.1" />
  <line x1="142.5" y1="0.0" x2="142.5" y2="259.0" stroke="black" stroke-width="0.1" />
  <line x1="95.0" y1="255.0" x2="180.0" y2="255.0" stroke="black" stroke-width="0.1" />
  <line x1="10.0" y1="5.0" x2="95.0" y2="5.0" stroke="black" stroke-width="0.1" />
  <circle cx="160.5" cy="77.0" r="2.5" fill="none" stroke="black" stroke-width="0.1" />
  <line x1="160.0" y1="77.0" x2="161.0" y2="77.0" stroke="black" stroke-width="0.1" />
  <line x1="160.5" y1="76.5" x2="160.5" y2="77.5" stroke="black" stroke-width="0.1" />
  <line x1="157.5" y1="77.0" x2="158.5" y2="77.0" stroke="black" stroke-width="0.1" />
  <line x1="162.5" y1="77.0" x2="163.5" y2="77.0" stroke="black" stroke-width="0.1" />
  <line x1="160.5" y1="74.0" x2="160.5" y2="75.0" stroke="black" stroke-width="0.1" />
  <line x1="160.5" y1="79.0" x2="160.5" y2="80.0" stroke="black" stroke-width="0.1" />
  <circle cx="124.5" cy="77.0" r="2.5" fill="none" stroke="black" stroke-width="0.1" />
  <line x1="124.0" y1="77.0" x2="125.0" y2="77.0" stroke="black" stroke-width="0.1" />
  <line x1="124.5" y1="76.5" x2="124.5" y2="77.5" stroke="black" stroke-width="0.1" />
  <line x1="121.5" y1="77.0" x2="122.5" y2="77.0" stroke="black" stroke-width="0.1" />
  <line x1="126.5" y1="77.0" x2="127.5" y2="77.0" stroke="black" stroke-width="0.1" />
  <line x1="124.5" y1="74.0" x2="124.5" y2="75.0" stroke="black" stroke-width="0.1" />
  <line x1="124.5" y1="79.0" x2="124.5" y2="80.0" stroke="black" stroke-width="0.1" />
  <circle cx="160.5" cy="108.0" r="2.5" fill="none" stroke="black" stroke-width="0.1" />
  <line x1="160.0" y1="108.0" x2="161.0" y2="108.0" stroke="black" stroke-width="0.1" />
  <line x1="160.5" y1="107.5" x2="160.5" y2="108.5" stroke="black" stroke-width="0.1" />
  <line x1="157.5" y1="108.0" x2="158.5" y2="108.0" stroke="black" stroke-width="0.1" />
  <line x1="162.5" y1="108.0" x2="163.5" y2="108.0" stroke="black" stroke-width="0.1" />
  <line x1="160.5" y1="105.0" x2="160.5" y2="106.0" stroke="black" stroke-width="0.1" />
  <line x1="160.5" y1="110.0" x2="160.5" y2="111.0" stroke="black" stroke-width="0.1" />
  <circle cx="124.5" cy="108.0" r="2.5" fill="none" stroke="black" stroke-width="0.1" />
  <line x1="124.0" y1="108.0" x2="125.0" y2="108.0" stroke="black" stroke-width="0.1" />
  <line x1="124.5" y1="107.5" x2="124.5" y2="108.5" stroke="black" stroke-width="0.1" />
  <line x1="121.5" y1="108.0" x2="122.5" y2="108.0" stroke="black" stroke-width="0.1" />
  <line x1="126.5" y1="108.0" x2="127.5" y2="108.0" stroke="black" stroke-width="0.1" />
  <line x1="124.5" y1="105.0" x2="124.5" y2="106.0" stroke="black" stroke-width="0.1" />
  <line x1="124.5" y1="110.0" x2="124.5" y2="111.0" stroke="black" stroke-width="0.1" />
  <circle cx="63.5" cy="139.0" r="2.5" fill="none" stroke="black" stroke-width="0.1" />
  <line x1="63.0" y1="139.0" x2="64.0" y2="139.0" stroke="black" stroke-width="0.1" />
  <line x1="63.5" y1="138.5" x2="63.5" y2="139.5" stroke="black" stroke-width="0.1" />
  <line x1="60.5" y1="139.0" x2="61.5" y2="139.0" stroke="black" stroke-width="0.1" />
  <line x1="65.5" y1="139.0" x2="66.5" y2="139.0" stroke="black" stroke-width="0.1" />
  <line x1="63.5" y1="136.0" x2="63.5" y2="137.0" stroke="black" stroke-width="0.1" />
  <line x1="63.5" y1="141.0" x2="63.5" y2="142.0" stroke="black" stroke-width="0.1" />
  <circle cx="31.5" cy="139.0" r="2.5" fill="none" stroke="black" stroke-width="0.1" />
  <line x1="31.0" y1="139.0" x2="32.0" y2="139.0" stroke="black" stroke-width="0.1" />
  <line x1="31.5" y1="138.5" x2="31.5" y2="139.5" stroke="black" stroke-width="0.1" />
  <line x1="28.5" y1="139.0" x2="29.5" y2="139.0" stroke="black" stroke-width="0.1" />
  <line x1="33.5" y1="139.0" x2="34.5" y2="139.0" stroke="black" stroke-width="0.1" />
  <line x1="31.5" y1="136.0" x2="31.5" y2="137.0" stroke="black" stroke-width="0.1" />
  <line x1="31.5" y1="141.0" x2="31.5" y2="142.0" stroke="black" stroke-width="0.1" />
  <circle cx="63.5" cy="219.0" r="2.5" fill="none" stroke="black" stroke-width="0.1" />
  <line x1="63.0" y1="219.0" x2="64.0" y2="219.0" stroke="black" stroke-width="0.1" />
  <line x1="63.5" y1="218.5" x2="63.5" y2="219.5" stroke="black" stroke-width="0.1" />
  <line x1="60.5" y1="219.0" x2="61.5" y2="219.0" stroke="black" stroke-width="0.1" />
  <line x1="65.5" y1="219.0" x2="66.5" y2="219.0" stroke="black" stroke-width="0.1" />
  <line x1="63.5" y1="216.0" x2="63.5" y2="217.0" stroke="black" stroke-width="0.1" />
  <line x1="63.5" y1="221.0" x2="63.5" y2="222.0" stroke="black" stroke-width="0.1" />
  <circle cx="31.5" cy="219.0" r="2.5" fill="none" stroke="black" stroke-width="0.1" />
  <line x1="31.0" y1="219.0" x2="32.0" y2="219.0" stroke="black" stroke-width="0.1" />
  <line x1="31.5" y1="218.5" x2="31.5" y2="219.5" stroke="black" stroke-width="0.1" />
  <line x1="28.5" y1="219.0" x2="29.5" y2="219.0" stroke="black" stroke-width="0.1" />
  <line x1="33.5" y1="219.0" x2="34.5" y2="219.0" stroke="black" stroke-width="0.1" />
  <line x1="31.5" y1="216.0" x2="31.5" y2="217.0" stroke="black" stroke-width="0.1" />
  <line x1="31.5" y1="221.0" x2="31.5" y2="222.0" stroke="black" stroke-width="0.1" />
</svg>
