<?xml version="1.0"?>
<!DOCTYPE svg PUBLIC "-//W3C//DTD SVG 1.1//EN"
"http://www.w3.org/Graphics/SVG/1.1/DTD/svg11.dtd">
<svg xmlns="http://www.w3.org/2000/svg" version="1.2" width="190.0mm" height="259.0mm" viewBox="0 0 190.0 259.0" >
  <line x1="95.0" y1="0.0" x2="95.0" y2="259.0" stroke="black" stroke-width="0.1" stroke-dasharray="4 4" />
  <line x1="47.5" y1="0.0" x2="47.5" y2="259.0" stroke="black" stroke-width="0.1" />
  <line x1="142.5" y1="0.0" x2="142.5" y2="259.0" stroke="black" stroke-width="0.1" />
  <line x1="95.0" y1="255.0" x2="180.0" y2="255.0" stroke="black" stroke-width="0.1" />
  <line x1="10.0" y1="5.0" x2="95.0" y2="5.0" stroke="black" stroke-width="0.1" />
  <circle cx="160.5" cy="81.0" r="2.5" fill="none" stroke="black" stroke-width="0.1" />
  <line x1="160.0" y1="81.0" x2="161.0" y2="81.0" stroke="black" stroke-width="0.1" />
  <line x1="160.5" y1="80.5" x2="160.5" y2="81.5" stroke="black" stroke-width="0.1" />
  <line x1="157.5" y1="81.0" x2="158.5" y2="81.0" stroke="black" stroke-width="0.1" />
  <line x1="162.5" y1="81.0" x2="163.5" y2="81.0" stroke="black" stroke-width="0.1" />
  <line x1="160.5" y1="78.0" x2="160.5" y2="79.0" stroke="black" stroke-width="0.1" />
  <line x1="160.5" y1="83.0" x2="160.5" y2="84.0" stroke="black" stroke-width="0.1" />
  <circle cx="124.5" cy="81.0" r="2.5" fill="none" stroke="black" stroke-width="0.1" />
  <line x1="124.0" y1="81.0" x2="125.0" y2="81.0" stroke="black" stroke-width="0.1" />
  <line x1="124.5" y1="80.5" x2="124.5" y2="81.5" stroke="black" stroke-width="0.1" />
  <line x1="121.5" y1="81.0" x2="122.5" y2="81.0" stroke="black" stroke-width="0.1" />
  <line x1="126.5" y1="81.0" x2="127.5" y2="81.0" stroke="black" stroke-width="0.1" />
  <line x1="124.5" y1="78.0" x2="124.5" y2="79.0" stroke="black" stroke-width="0.1" />
  <line x1="124.5" y1="83.0" x2="124.5" y2="84.0" stroke="black" stroke-width="0.1" />
  <circle cx="160.5" cy="112.0" r="2.5" fill="none" stroke="black" stroke-width="0.1" />
  <line x1="160.0" y1="112.0" x2="161.0" y2="112.0" stroke="black" stroke-width="0.1" />
  <line x1="160.5" y1="111.5" x2="160.5" y2="112.5" stroke="black" stroke-width="0.1" />
  <line x1="157.5" y1="112.0" x2="158.5" y2="112.0" stroke="black" stroke-width="0.1" />
  <line x1="162.5" y1="112.0" x2="163.5" y2="112.0" stroke="black" stroke-width="0.1" />
  <line x1="160.5" y1="109.0" x2="160.5" y2="110.0" stroke="black" stroke-width="0.1" />
  <line x1="160.5" y1="114.0" x2="160.5" y2="115.0" stroke="black" stroke-width="0.1" />
  <circle cx="124.5" cy="112.0" r="2.5" fill="none" stroke="black" stroke-width="0.1" />
  <line x1="124.0" y1="112.0" x2="125.0" y2="112.0" stroke="black" stroke-width="0.1" />
  <line x1="124.5" y1="111.5" x2="124.5" y2="112.5" stroke="black" stroke-width="0.1" />
  <line x1="121.5" y1="112.0" x2="122.5" y2="112.0" stroke="black" stroke-width="0.1" />
  <line x1="126.5" y1="112.0" x2="127.5" y2="112.0" stroke="black" stroke-width="0.1" />
  <line x1="124.5" y1="109.0" x2="124.5" y2="110.0" stroke="black" stroke-width="0.1" />
  <line x1="124.5" y1="114.0" x2="124.5" y2="115.0" stroke="black" stroke-width="0.1" />
  <circle cx="63.5" cy="135.0" r="2.5" fill="none" stroke="black" stroke-width="0.1" />
  <line x1="63.0" y1="135.0" x2="64.0" y2="135.0" stroke="black" stroke-width="0.1" />
  <line x1="63.5" y1="134.5" x2="63.5" y2="135.5" stroke="black" stroke-width="0.1" />
  <line x1="60.5" y1="135.0" x2="61.5" y2="135.0" stroke="black" stroke-width="0.1" />
  <line x1="65.5" y1="135.0" x2="66.5" y2="135.0" stroke="black" stroke-width="0.1" />
  <line x1="63.5" y1="132.0" x2="63.5" y2="133.0" stroke="black" stroke-width="0.1" />
  <line x1="63.5" y1="137.0" x2="63.5" y2="138.0" stroke="black" stroke-width="0.1" />
  <circle cx="31.5" cy="135.0" r="2.5" fill="none" stroke="black" stroke-width="0.1" />
  <line x1="31.0" y1="135.0" x2="32.0" y2="135.0" stroke="black" stroke-width="0.1" />
  <line x1="31.5" y1="134.5" x2="31.5" y2="135.5" stroke="black" stroke-width="0.1" />
  <line x1="28.5" y1="135.0" x2="29.5" y2="135.0" stroke="black" stroke-width="0.1" />
  <line x1="33.5" y1="135.0" x2="34.5" y2="135.0" stroke="black" stroke-width="0.1" />
  <line x1="31.5" y1="132.0" x2="31.5" y2="133.0" stroke="black" stroke-width="0.1" />
  <line x1="31.5" y1="137.0" x2="31.5" y2="138.0" stroke="black" stroke-width="0.1" />
  <circle cx="63.5" cy="215.0" r="2.5" fill="none" stroke="black" stroke-width="0.1" />
  <line x1="63.0" y1="215.0" x2="64.0" y2="215.0" stroke="black" stroke-width="0.1" />
  <line x1="63.5" y1="214.5" x2="63.5" y2="215.5" stroke="black" stroke-width="0.1" />
  <line x1="60.5" y1="215.0" x2="61.5" y2="215.0" stroke="black" stroke-width="0.1" />
  <line x1="65.5" y1="215.0" x2="66.5" y2="215.0" stroke="black" stroke-width="0.1" />
  <line x1="63.5" y1="212.0" x2="63.5" y2="213.0" stroke="black" stroke-width="0.1" />
  <line x1="63.5" y1="217.0" x2="63.5" y2="218.0" stroke="black" stroke-width="0.1" />
  <circle cx="31.5" cy="215.0" r="2.5" fill="none" stroke="black" stroke-width="0.1" />
  <line x1="31.0" y1="215.0" x2="32.0" y2="215.0" stroke="black" stroke-width="0.1" />
  <line x1="31.5" y1="214.5" x2="31.5" y2="215.5" stroke="black" stroke-width="0.1" />
  <line x1="28.5" y1="215.0" x2="29.5" y2="215.0" stroke="black" stroke-width="0.1" />
  <line x1="33.5" y1="215.0" x2="34.5" y2="215.0" stroke="black" stroke-width="0.1" />
  <line x1="31.5" y1="212.0" x2="31.5" y2="213.0" stroke="black" stroke-width="0.1" />
  <line x1="31.5" y1="217.0" x2="31.5" y2="218.0" stroke="black" stroke-width="0.1" />
</svg>
