<?xml version="1.0"?>
<!DOCTYPE svg PUBLIC "-//W3C//DTD SVG 1.1//EN"
"http://www.w3.org/Graphics/SVG/1.1/DTD/svg11.dtd">
<svg xmlns="http://www.w3.org/2000/svg" version="1.2" width="190.0mm" height="259.0mm" viewBox="0 0 190.0 259.0" >
  <line x1="95.0" y1="0.0" x2="95.0" y2="259.0" stroke="black" stroke-width="0.1" stroke-dasharray="4 4" />
  <line x1="47.5" y1="0.0" x2="47.5" y2="259.0" stroke="black" stroke-width="0.1" />
  <line x1="142.5" y1="0.0" x2="142.5" y2="259.0" stroke="black" stroke-width="0.1" />
  <line x1="95.0" y1="255.0" x2="180.0" y2="255.0" stroke="black" stroke-width="0.1" />
  <line x1="10.0" y1="5.0" x2="95.0" y2="5.0" stroke="black" stroke-width="0.1" />
  <circle cx="160.5" cy="89.0" r="2.5" fill="none" stroke="black" stroke-width="0.1" />
  <line x1="160.0" y1="89.0" x2="161.0" y2="89.0" stroke="black" stroke-width="0.1" />
  <line x1="160.5" y1="88.5" x2="160.5" y2="89.5" stroke="black" stroke-width="0.1" />
  <line x1="157.5" y1="89.0" x2="158.5" y2="89.0" stroke="black" stroke-width="0.1" />
  <line x1="162.5" y1="89.0" x2="163.5" y2="89.0" stroke="black" stroke-width="0.1" />
  <line x1="160.5" y1="86.0" x2="160.5" y2="87.0" stroke="black" stroke-width="0.1" />
  <line x1="160.5" y1="91.0" x2="160.5" y2="92.0" stroke="black" stroke-width="0.1" />
  <circle cx="124.5" cy="89.0" r="2.5" fill="none" stroke="black" stroke-width="0.1" />
  <line x1="124.0" y1="89.0" x2="125.0" y2="89.0" stroke="black" stroke-width="0.1" />
  <line x1="124.5" y1="88.5" x2="124.5" y2="89.5" stroke="black" stroke-width="0.1" />
  <line x1="121.5" y1="89.0" x2="122.5" y2="89.0" stroke="black" stroke-width="0.1" />
  <line x1="126.5" y1="89.0" x2="127.5" y2="89.0" stroke="black" stroke-width="0.1" />
  <line x1="124.5" y1="86.0" x2="124.5" y2="87.0" stroke="black" stroke-width="0.1" />
  <line x1="124.5" y1="91.0" x2="124.5" y2="92.0" stroke="black" stroke-width="0.1" />
  <circle cx="160.5" cy="120.0" r="2.5" fill="none" stroke="black" stroke-width="0.1" />
  <line x1="160.0" y1="120.0" x2="161.0" y2="120.0" stroke="black" stroke-width="0.1" />
  <line x1="160.5" y1="119.5" x2="160.5" y2="120.5" stroke="black" stroke-width="0.1" />
  <line x1="157.5" y1="120.0" x2="158.5" y2="120.0" stroke="black" stroke-width="0.1" />
  <line x1="162.5" y1="120.0" x2="163.5" y2="120.0" stroke="black" stroke-width="0.1" />
  <line x1="160.5" y1="117.0" x2="160.5" y2="118.0" stroke="black" stroke-width="0.1" />
  <line x1="160.5" y1="122.0" x2="160.5" y2="123.0" stroke="black" stroke-width="0.1" />
  <circle cx="124.5" cy="120.0" r="2.5" fill="none" stroke="black" stroke-width="0.1" />
  <line x1="124.0" y1="120.0" x2="125.0" y2="120.0" stroke="black" stroke-width="0.1" />
  <line x1="124.5" y1="119.5" x2="124.5" y2="120.5" stroke="black" stroke-width="0.1" />
  <line x1="121.5" y1="120.0" x2="122.5" y2="120.0" stroke="black" stroke-width="0.1" />
  <line x1="126.5" y1="120.0" x2="127.5" y2="120.0" stroke="black" stroke-width="0.1" />
  <line x1="124.5" y1="117.0" x2="124.5" y2="118.0" stroke="black" stroke-width="0.1" />
  <line x1="124.5" y1="122.0" x2="124.5" y2="123.0" stroke="black" stroke-width="0.1" />
  <circle cx="63.5" cy="127.0" r="2.5" fill="none" stroke="black" stroke-width="0.1" />
  <line x1="63.0" y1="127.0" x2="64.0" y2="127.0" stroke="black" stroke-width="0.1" />
  <line x1="63.5" y1="126.5" x2="63.5" y2="127.5" stroke="black" stroke-width="0.1" />
  <line x1="60.5" y1="127.0" x2="61.5" y2="127.0" stroke="black" stroke-width="0.1" />
  <line x1="65.5" y1="127.0" x2="66.5" y2="127.0" stroke="black" stroke-width="0.1" />
  <line x1="63.5" y1="124.0" x2="63.5" y2="125.0" stroke="black" stroke-width="0.1" />
  <line x1="63.5" y1="129.0" x2="63.5" y2="130.0" stroke="black" stroke-width="0.1" />
  <circle cx="31.5" cy="127.0" r="2.5" fill="none" stroke="black" stroke-width="0.1" />
  <line x1="31.0" y1="127.0" x2="32.0" y2="127.0" stroke="black" stroke-width="0.1" />
  <line x1="31.5" y1="126.5" x2="31.5" y2="127.5" stroke="black" stroke-width="0.1" />
  <line x1="28.5" y1="127.0" x2="29.5" y2="127.0" stroke="black" stroke-width="0.1" />
  <line x1="33.5" y1="127.0" x2="34.5" y2="127.0" stroke="black" stroke-width="0.1" />
  <line x1="31.5" y1="124.0" x2="31.5" y2="125.0" stroke="black" stroke-width="0.1" />
  <line x1="31.5" y1="129.0" x2="31.5" y2="130.0" stroke="black" stroke-width="0.1" />
  <circle cx="63.5" cy="207.0" r="2.5" fill="none" stroke="black" stroke-width="0.1" />
  <line x1="63.0" y1="207.0" x2="64.0" y2="207.0" stroke="black" stroke-width="0.1" />
  <line x1="63.5" y1="206.5" x2="63.5" y2="207.5" stroke="black" stroke-width="0.1" />
  <line x1="60.5" y1="207.0" x2="61.5" y2="207.0" stroke="black" stroke-width="0.1" />
  <line x1="65.5" y1="207.0" x2="66.5" y2="207.0" stroke="black" stroke-width="0.1" />
  <line x1="63.5" y1="204.0" x2="63.5" y2="205.0" stroke="black" stroke-width="0.1" />
  <line x1="63.5" y1="209.0" x2="63.5" y2="210.0" stroke="black" stroke-width="0.1" />
  <circle cx="31.5" cy="207.0" r="2.5" fill="none" stroke="black" stroke-width="0.1" />
  <line x1="31.0" y1="207.0" x2="32.0" y2="207.0" stroke="black" stroke-width="0.1" />
  <line x1="31.5" y1="206.5" x2="31.5" y2="207.5" stroke="black" stroke-width="0.1" />
  <line x1="28.5" y1="207.0" x2="29.5" y2="207.0" stroke="black" stroke-width="0.1" />
  <line x1="33.5" y1="207.0" x2="34.5" y2="207.0" stroke="black" stroke-width="0.1" />
  <line x1="31.5" y1="204.0" x2="31.5" y2="205.0" stroke="black" stroke-width="0.1" />
  <line x1="31.5" y1="209.0" x2="31.5" y2="210.0" stroke="black" stroke-width="0.1" />
</svg>
