<?xml version="1.0"?>
<!DOCTYPE svg PUBLIC "-//W3C//DTD SVG 1.1//EN"
"http://www.w3.org/Graphics/SVG/1.1/DTD/svg11.dtd">
<svg xmlns="http://www.w3.org/2000/svg" version="1.2" width="190.0mm" height="518.0mm" viewBox="0 0 190.0 518.0" >
  <line x1="47.5" y1="0.0" x2="47.5" y2="518.0" style="stroke:#000000;stroke-width:0.1;" />
  <line x1="142.5" y1="0.0" x2="142.5" y2="518.0" style="stroke:#000000;stroke-width:0.1;" />
  <line x1="10.0" y1="255.0" x2="180.0" y2="255.0" style="stroke:#000000;stroke-width:0.1;" />
  <line x1="5.0" y1="255.0" x2="15.0" y2="255.0" style="stroke:#000000;stroke-width:0.1;" />
  <line x1="10.0" y1="250.0" x2="10.0" y2="260.0" style="stroke:#000000;stroke-width:0.1;" />
  <line x1="175.0" y1="255.0" x2="185.0" y2="255.0" style="stroke:#000000;stroke-width:0.1;" />
  <line x1="180.0" y1="250.0" x2="180.0" y2="260.0" style="stroke:#000000;stroke-width:0.1;" />
  <line x1="10.0" y1="265.0" x2="180.0" y2="265.0" style="stroke:#000000;stroke-width:0.1;" />
  <line x1="5.0" y1="265.0" x2="15.0" y2="265.0" style="stroke:#000000;stroke-width:0.1;" />
  <line x1="10.0" y1="260.0" x2="10.0" y2="270.0" style="stroke:#000000;stroke-width:0.1;" />
  <line x1="175.0" y1="265.0" x2="185.0" y2="265.0" style="stroke:#000000;stroke-width:0.1;" />
  <line x1="180.0" y1="260.0" x2="180.0" y2="270.0" style="stroke:#000000;stroke-width:0.1;" />
  <text x="60.0" y="225.0" font-family="Arial" fill="black" font-size="6" >BSL: 307 mm</text>
  <text x="60.0" y="295.0" font-family="Arial" fill="black" font-size="6" >BSL: 307 mm</text>
  <circle cx="47.5" cy="56.5" r="2.5" style="fill:none;stroke:#000000;stroke-width:0.1;" />
  <line x1="42.5" y1="56.5" x2="52.5" y2="56.5" style="stroke:#000000;stroke-width:0.1;" />
  <line x1="47.5" y1="51.5" x2="47.5" y2="61.5" style="stroke:#000000;stroke-width:0.1;" />
  <circle cx="142.5" cy="56.5" r="2.5" style="fill:none;stroke:#000000;stroke-width:0.1;" />
  <line x1="137.5" y1="56.5" x2="147.5" y2="56.5" style="stroke:#000000;stroke-width:0.1;" />
  <line x1="142.5" y1="51.5" x2="142.5" y2="61.5" style="stroke:#000000;stroke-width:0.1;" />
  <circle cx="67.5" cy="121.5" r="2.5" style="fill:none;stroke:#000000;stroke-width:0.1;" />
  <line x1="62.5" y1="121.5" x2="72.5" y2="121.5" style="stroke:#000000;stroke-width:0.1;" />
  <line x1="67.5" y1="116.5" x2="67.5" y2="126.5" style="stroke:#000000;stroke-width:0.1;" />
  <circle cx="162.5" cy="121.5" r="2.5" style="fill:none;stroke:#000000;stroke-width:0.1;" />
  <line x1="157.5" y1="121.5" x2="167.5" y2="121.5" style="stroke:#000000;stroke-width:0.1;" />
  <line x1="162.5" y1="116.5" x2="162.5" y2="126.5" style="stroke:#000000;stroke-width:0.1;" />
  <circle cx="27.5" cy="121.5" r="2.5" style="fill:none;stroke:#000000;stroke-width:0.1;" />
  <line x1="22.5" y1="121.5" x2="32.5" y2="121.5" style="stroke:#000000;stroke-width:0.1;" />
  <line x1="27.5" y1="116.5" x2="27.5" y2="126.5" style="stroke:#000000;stroke-width:0.1;" />
  <circle cx="122.5" cy="121.5" r="2.5" style="fill:none;stroke:#000000;stroke-width:0.1;" />
  <line x1="117.5" y1="121.5" x2="127.5" y2="121.5" style="stroke:#000000;stroke-width:0.1;" />
  <line x1="122.5" y1="116.5" x2="122.5" y2="126.5" style="stroke:#000000;stroke-width:0.1;" />
  <circle cx="62.5" cy="191.5" r="2.5" style="fill:none;stroke:#000000;stroke-width:0.1;" />
  <line x1="57.5" y1="191.5" x2="67.5" y2="191.5" style="stroke:#000000;stroke-width:0.1;" />
  <line x1="62.5" y1="186.5" x2="62.5" y2="196.5" style="stroke:#000000;stroke-width:0.1;" />
  <circle cx="157.5" cy="191.5" r="2.5" style="fill:none;stroke:#000000;stroke-width:0.1;" />
  <line x1="152.5" y1="191.5" x2="162.5" y2="191.5" style="stroke:#000000;stroke-width:0.1;" />
  <line x1="157.5" y1="186.5" x2="157.5" y2="196.5" style="stroke:#000000;stroke-width:0.1;" />
  <circle cx="32.5" cy="191.5" r="2.5" style="fill:none;stroke:#000000;stroke-width:0.1;" />
  <line x1="27.5" y1="191.5" x2="37.5" y2="191.5" style="stroke:#000000;stroke-width:0.1;" />
  <line x1="32.5" y1="186.5" x2="32.5" y2="196.5" style="stroke:#000000;stroke-width:0.1;" />
  <circle cx="127.5" cy="191.5" r="2.5" style="fill:none;stroke:#000000;stroke-width:0.1;" />
  <line x1="122.5" y1="191.5" x2="132.5" y2="191.5" style="stroke:#000000;stroke-width:0.1;" />
  <line x1="127.5" y1="186.5" x2="127.5" y2="196.5" style="stroke:#000000;stroke-width:0.1;" />
  <circle cx="65.5" cy="403.5" r="2.5" style="fill:none;stroke:#000000;stroke-width:0.1;" />
  <line x1="60.5" y1="403.5" x2="70.5" y2="403.5" style="stroke:#000000;stroke-width:0.1;" />
  <line x1="65.5" y1="398.5" x2="65.5" y2="408.5" style="stroke:#000000;stroke-width:0.1;" />
  <circle cx="160.5" cy="403.5" r="2.5" style="fill:none;stroke:#000000;stroke-width:0.1;" />
  <line x1="155.5" y1="403.5" x2="165.5" y2="403.5" style="stroke:#000000;stroke-width:0.1;" />
  <line x1="160.5" y1="398.5" x2="160.5" y2="408.5" style="stroke:#000000;stroke-width:0.1;" />
  <circle cx="29.5" cy="403.5" r="2.5" style="fill:none;stroke:#000000;stroke-width:0.1;" />
  <line x1="24.5" y1="403.5" x2="34.5" y2="403.5" style="stroke:#000000;stroke-width:0.1;" />
  <line x1="29.5" y1="398.5" x2="29.5" y2="408.5" style="stroke:#000000;stroke-width:0.1;" />
  <circle cx="124.5" cy="403.5" r="2.5" style="fill:none;stroke:#000000;stroke-width:0.1;" />
  <line x1="119.5" y1="403.5" x2="129.5" y2="403.5" style="stroke:#000000;stroke-width:0.1;" />
  <line x1="124.5" y1="398.5" x2="124.5" y2="408.5" style="stroke:#000000;stroke-width:0.1;" />
  <circle cx="65.5" cy="471.5" r="2.5" style="fill:none;stroke:#000000;stroke-width:0.1;" />
  <line x1="60.5" y1="471.5" x2="70.5" y2="471.5" style="stroke:#000000;stroke-width:0.1;" />
  <line x1="65.5" y1="466.5" x2="65.5" y2="476.5" style="stroke:#000000;stroke-width:0.1;" />
  <circle cx="160.5" cy="471.5" r="2.5" style="fill:none;stroke:#000000;stroke-width:0.1;" />
  <line x1="155.5" y1="471.5" x2="165.5" y2="471.5" style="stroke:#000000;stroke-width:0.1;" />
  <line x1="160.5" y1="466.5" x2="160.5" y2="476.5" style="stroke:#000000;stroke-width:0.1;" />
  <circle cx="29.5" cy="471.5" r="2.5" style="fill:none;stroke:#000000;stroke-width:0.1;" />
  <line x1="24.5" y1="471.5" x2="34.5" y2="471.5" style="stroke:#000000;stroke-width:0.1;" />
  <line x1="29.5" y1="466.5" x2="29.5" y2="476.5" style="stroke:#000000;stroke-width:0.1;" />
  <circle cx="124.5" cy="471.5" r="2.5" style="fill:none;stroke:#000000;stroke-width:0.1;" />
  <line x1="119.5" y1="471.5" x2="129.5" y2="471.5" style="stroke:#000000;stroke-width:0.1;" />
  <line x1="124.5" y1="466.5" x2="124.5" y2="476.5" style="stroke:#000000;stroke-width:0.1;" />
</svg>
