<?xml version="1.0"?>
<!DOCTYPE svg PUBLIC "-//W3C//DTD SVG 1.1//EN"
"http://www.w3.org/Graphics/SVG/1.1/DTD/svg11.dtd">
<svg xmlns="http://www.w3.org/2000/svg" version="1.2" width="190.0mm" height="518.0mm" viewBox="0 0 190.0 518.0" >
  <line x1="47.5" y1="0.0" x2="47.5" y2="518.0" stroke="black" stroke-width="0.1" />
  <line x1="142.5" y1="0.0" x2="142.5" y2="518.0" stroke="black" stroke-width="0.1" />
  <line x1="10.0" y1="255.0" x2="180.0" y2="255.0" stroke="black" stroke-width="0.1" />
  <line x1="5.0" y1="255.0" x2="15.0" y2="255.0" stroke="black" stroke-width="0.1" />
  <line x1="10.0" y1="250.0" x2="10.0" y2="260.0" stroke="black" stroke-width="0.1" />
  <line x1="175.0" y1="255.0" x2="185.0" y2="255.0" stroke="black" stroke-width="0.1" />
  <line x1="180.0" y1="250.0" x2="180.0" y2="260.0" stroke="black" stroke-width="0.1" />
  <line x1="10.0" y1="265.0" x2="180.0" y2="265.0" stroke="black" stroke-width="0.1" />
  <line x1="5.0" y1="265.0" x2="15.0" y2="265.0" stroke="black" stroke-width="0.1" />
  <line x1="10.0" y1="260.0" x2="10.0" y2="270.0" stroke="black" stroke-width="0.1" />
  <line x1="175.0" y1="265.0" x2="185.0" y2="265.0" stroke="black" stroke-width="0.1" />
  <line x1="180.0" y1="260.0" x2="180.0" y2="270.0" stroke="black" stroke-width="0.1" />
  <line x1="10.0" y1="91.0" x2="180.0" y2="91.0" stroke="black" stroke-width="0.1" stroke-dasharray="5 5" />
  <line x1="10.0" y1="429.0" x2="180.0" y2="429.0" stroke="black" stroke-width="0.1" stroke-dasharray="5 5" />
  <text x="60.0" y="225.0" font-family="Arial" fill="black" font-size="6" >BSL: 328 mm</text>
  <text x="60.0" y="295.0" font-family="Arial" fill="black" font-size="6" >BSL: 328 mm</text>
  <circle cx="47.5" cy="46.0" r="2.5" fill="none" stroke="black" stroke-width="0.1" />
  <line x1="42.5" y1="46.0" x2="52.5" y2="46.0" stroke="black" stroke-width="0.1" />
  <line x1="47.5" y1="41.0" x2="47.5" y2="51.0" stroke="black" stroke-width="0.1" />
  <circle cx="142.5" cy="46.0" r="2.5" fill="none" stroke="black" stroke-width="0.1" />
  <line x1="137.5" y1="46.0" x2="147.5" y2="46.0" stroke="black" stroke-width="0.1" />
  <line x1="142.5" y1="41.0" x2="142.5" y2="51.0" stroke="black" stroke-width="0.1" />
  <circle cx="67.5" cy="111.0" r="2.5" fill="none" stroke="black" stroke-width="0.1" />
  <line x1="62.5" y1="111.0" x2="72.5" y2="111.0" stroke="black" stroke-width="0.1" />
  <line x1="67.5" y1="106.0" x2="67.5" y2="116.0" stroke="black" stroke-width="0.1" />
  <circle cx="162.5" cy="111.0" r="2.5" fill="none" stroke="black" stroke-width="0.1" />
  <line x1="157.5" y1="111.0" x2="167.5" y2="111.0" stroke="black" stroke-width="0.1" />
  <line x1="162.5" y1="106.0" x2="162.5" y2="116.0" stroke="black" stroke-width="0.1" />
  <circle cx="27.5" cy="111.0" r="2.5" fill="none" stroke="black" stroke-width="0.1" />
  <line x1="22.5" y1="111.0" x2="32.5" y2="111.0" stroke="black" stroke-width="0.1" />
  <line x1="27.5" y1="106.0" x2="27.5" y2="116.0" stroke="black" stroke-width="0.1" />
  <circle cx="122.5" cy="111.0" r="2.5" fill="none" stroke="black" stroke-width="0.1" />
  <line x1="117.5" y1="111.0" x2="127.5" y2="111.0" stroke="black" stroke-width="0.1" />
  <line x1="122.5" y1="106.0" x2="122.5" y2="116.0" stroke="black" stroke-width="0.1" />
  <circle cx="62.5" cy="181.0" r="2.5" fill="none" stroke="black" stroke-width="0.1" />
  <line x1="57.5" y1="181.0" x2="67.5" y2="181.0" stroke="black" stroke-width="0.1" />
  <line x1="62.5" y1="176.0" x2="62.5" y2="186.0" stroke="black" stroke-width="0.1" />
  <circle cx="157.5" cy="181.0" r="2.5" fill="none" stroke="black" stroke-width="0.1" />
  <line x1="152.5" y1="181.0" x2="162.5" y2="181.0" stroke="black" stroke-width="0.1" />
  <line x1="157.5" y1="176.0" x2="157.5" y2="186.0" stroke="black" stroke-width="0.1" />
  <circle cx="32.5" cy="181.0" r="2.5" fill="none" stroke="black" stroke-width="0.1" />
  <line x1="27.5" y1="181.0" x2="37.5" y2="181.0" stroke="black" stroke-width="0.1" />
  <line x1="32.5" y1="176.0" x2="32.5" y2="186.0" stroke="black" stroke-width="0.1" />
  <circle cx="127.5" cy="181.0" r="2.5" fill="none" stroke="black" stroke-width="0.1" />
  <line x1="122.5" y1="181.0" x2="132.5" y2="181.0" stroke="black" stroke-width="0.1" />
  <line x1="127.5" y1="176.0" x2="127.5" y2="186.0" stroke="black" stroke-width="0.1" />
  <circle cx="65.5" cy="414.0" r="2.5" fill="none" stroke="black" stroke-width="0.1" />
  <line x1="60.5" y1="414.0" x2="70.5" y2="414.0" stroke="black" stroke-width="0.1" />
  <line x1="65.5" y1="409.0" x2="65.5" y2="419.0" stroke="black" stroke-width="0.1" />
  <circle cx="160.5" cy="414.0" r="2.5" fill="none" stroke="black" stroke-width="0.1" />
  <line x1="155.5" y1="414.0" x2="165.5" y2="414.0" stroke="black" stroke-width="0.1" />
  <line x1="160.5" y1="409.0" x2="160.5" y2="419.0" stroke="black" stroke-width="0.1" />
  <circle cx="29.5" cy="414.0" r="2.5" fill="none" stroke="black" stroke-width="0.1" />
  <line x1="24.5" y1="414.0" x2="34.5" y2="414.0" stroke="black" stroke-width="0.1" />
  <line x1="29.5" y1="409.0" x2="29.5" y2="419.0" stroke="black" stroke-width="0.1" />
  <circle cx="124.5" cy="414.0" r="2.5" fill="none" stroke="black" stroke-width="0.1" />
  <line x1="119.5" y1="414.0" x2="129.5" y2="414.0" stroke="black" stroke-width="0.1" />
  <line x1="124.5" y1="409.0" x2="124.5" y2="419.0" stroke="black" stroke-width="0.1" />
  <circle cx="65.5" cy="482.0" r="2.5" fill="none" stroke="black" stroke-width="0.1" />
  <line x1="60.5" y1="482.0" x2="70.5" y2="482.0" stroke="black" stroke-width="0.1" />
  <line x1="65.5" y1="477.0" x2="65.5" y2="487.0" stroke="black" stroke-width="0.1" />
  <circle cx="160.5" cy="482.0" r="2.5" fill="none" stroke="black" stroke-width="0.1" />
  <line x1="155.5" y1="482.0" x2="165.5" y2="482.0" stroke="black" stroke-width="0.1" />
  <line x1="160.5" y1="477.0" x2="160.5" y2="487.0" stroke="black" stroke-width="0.1" />
  <circle cx="29.5" cy="482.0" r="2.5" fill="none" stroke="black" stroke-width="0.1" />
  <line x1="24.5" y1="482.0" x2="34.5" y2="482.0" stroke="black" stroke-width="0.1" />
  <line x1="29.5" y1="477.0" x2="29.5" y2="487.0" stroke="black" stroke-width="0.1" />
  <circle cx="124.5" cy="482.0" r="2.5" fill="none" stroke="black" stroke-width="0.1" />
  <line x1="119.5" y1="482.0" x2="129.5" y2="482.0" stroke="black" stroke-width="0.1" />
  <line x1="124.5" y1="477.0" x2="124.5" y2="487.0" stroke="black" stroke-width="0.1" />
</svg>
