<?xml version="1.0"?>
<!DOCTYPE svg PUBLIC "-//W3C//DTD SVG 1.1//EN"
"http://www.w3.org/Graphics/SVG/1.1/DTD/svg11.dtd">
<svg xmlns="http://www.w3.org/2000/svg" version="1.2" width="180.0mm" height="510.0mm" viewBox="0 0 180.0 510.0" >
  <line x1="90.0" y1="0.0" x2="90.0" y2="510.0" style="stroke:#000000;stroke-width:0.1;" />
  <line x1="10.0" y1="250.0" x2="170.0" y2="250.0" style="stroke:#000000;stroke-width:0.1;" />
  <line x1="5.0" y1="250.0" x2="15.0" y2="250.0" style="stroke:#000000;stroke-width:0.1;" />
  <line x1="10.0" y1="245.0" x2="10.0" y2="255.0" style="stroke:#000000;stroke-width:0.1;" />
  <line x1="165.0" y1="250.0" x2="175.0" y2="250.0" style="stroke:#000000;stroke-width:0.1;" />
  <line x1="170.0" y1="245.0" x2="170.0" y2="255.0" style="stroke:#000000;stroke-width:0.1;" />
  <line x1="10.0" y1="270.0" x2="170.0" y2="270.0" style="stroke:#000000;stroke-width:0.1;" />
  <line x1="5.0" y1="270.0" x2="15.0" y2="270.0" style="stroke:#000000;stroke-width:0.1;" />
  <line x1="10.0" y1="265.0" x2="10.0" y2="275.0" style="stroke:#000000;stroke-width:0.1;" />
  <line x1="165.0" y1="270.0" x2="175.0" y2="270.0" style="stroke:#000000;stroke-width:0.1;" />
  <line x1="170.0" y1="265.0" x2="170.0" y2="275.0" style="stroke:#000000;stroke-width:0.1;" />
  <line x1="60.0" y1="0.0" x2="60.0" y2="12.0" style="stroke:#000000;stroke-width:0.1;" />
  <line x1="120.0" y1="0.0" x2="120.0" y2="12.0" style="stroke:#000000;stroke-width:0.1;" />
  <line x1="60.0" y1="510.0" x2="60.0" y2="498.0" style="stroke:#000000;stroke-width:0.1;" />
  <line x1="120.0" y1="510.0" x2="120.0" y2="498.0" style="stroke:#000000;stroke-width:0.1;" />
  <line x1="50.0" y1="0.0" x2="50.0" y2="12.0" style="stroke:#000000;stroke-width:0.1;" />
  <line x1="130.0" y1="0.0" x2="130.0" y2="12.0" style="stroke:#000000;stroke-width:0.1;" />
  <line x1="50.0" y1="510.0" x2="50.0" y2="498.0" style="stroke:#000000;stroke-width:0.1;" />
  <line x1="130.0" y1="510.0" x2="130.0" y2="498.0" style="stroke:#000000;stroke-width:0.1;" />
  <line x1="40.0" y1="0.0" x2="40.0" y2="12.0" style="stroke:#000000;stroke-width:0.1;" />
  <line x1="140.0" y1="0.0" x2="140.0" y2="12.0" style="stroke:#000000;stroke-width:0.1;" />
  <line x1="40.0" y1="510.0" x2="40.0" y2="498.0" style="stroke:#000000;stroke-width:0.1;" />
  <line x1="140.0" y1="510.0" x2="140.0" y2="498.0" style="stroke:#000000;stroke-width:0.1;" />
  <line x1="30.0" y1="0.0" x2="30.0" y2="12.0" style="stroke:#000000;stroke-width:0.1;" />
  <line x1="150.0" y1="0.0" x2="150.0" y2="12.0" style="stroke:#000000;stroke-width:0.1;" />
  <line x1="30.0" y1="510.0" x2="30.0" y2="498.0" style="stroke:#000000;stroke-width:0.1;" />
  <line x1="150.0" y1="510.0" x2="150.0" y2="498.0" style="stroke:#000000;stroke-width:0.1;" />
  <line x1="20.0" y1="0.0" x2="20.0" y2="12.0" style="stroke:#000000;stroke-width:0.1;" />
  <line x1="160.0" y1="0.0" x2="160.0" y2="12.0" style="stroke:#000000;stroke-width:0.1;" />
  <line x1="20.0" y1="510.0" x2="20.0" y2="498.0" style="stroke:#000000;stroke-width:0.1;" />
  <line x1="160.0" y1="510.0" x2="160.0" y2="498.0" style="stroke:#000000;stroke-width:0.1;" />
  <line x1="55.0" y1="0.0" x2="55.0" y2="8.0" style="stroke:#000000;stroke-width:0.1;" />
  <line x1="125.0" y1="0.0" x2="125.0" y2="8.0" style="stroke:#000000;stroke-width:0.1;" />
  <line x1="55.0" y1="510.0" x2="55.0" y2="502.0" style="stroke:#000000;stroke-width:0.1;" />
  <line x1="125.0" y1="510.0" x2="125.0" y2="502.0" style="stroke:#000000;stroke-width:0.1;" />
  <line x1="45.0" y1="0.0" x2="45.0" y2="8.0" style="stroke:#000000;stroke-width:0.1;" />
  <line x1="135.0" y1="0.0" x2="135.0" y2="8.0" style="stroke:#000000;stroke-width:0.1;" />
  <line x1="45.0" y1="510.0" x2="45.0" y2="502.0" style="stroke:#000000;stroke-width:0.1;" />
  <line x1="135.0" y1="510.0" x2="135.0" y2="502.0" style="stroke:#000000;stroke-width:0.1;" />
  <line x1="35.0" y1="0.0" x2="35.0" y2="8.0" style="stroke:#000000;stroke-width:0.1;" />
  <line x1="145.0" y1="0.0" x2="145.0" y2="8.0" style="stroke:#000000;stroke-width:0.1;" />
  <line x1="35.0" y1="510.0" x2="35.0" y2="502.0" style="stroke:#000000;stroke-width:0.1;" />
  <line x1="145.0" y1="510.0" x2="145.0" y2="502.0" style="stroke:#000000;stroke-width:0.1;" />
  <line x1="25.0" y1="0.0" x2="25.0" y2="8.0" style="stroke:#000000;stroke-width:0.1;" />
  <line x1="155.0" y1="0.0" x2="155.0" y2="8.0" style="stroke:#000000;stroke-width:0.1;" />
  <line x1="25.0" y1="510.0" x2="25.0" y2="502.0" style="stroke:#000000;stroke-width:0.1;" />
  <line x1="155.0" y1="510.0" x2="155.0" y2="502.0" style="stroke:#000000;stroke-width:0.1;" />
  <line x1="60.0" y1="0.0" x2="60.0" y2="4.0" style="stroke:#000000;stroke-width:0.1;" />
  <line x1="120.0" y1="0.0" x2="120.0" y2="4.0" style="stroke:#000000;stroke-width:0.1;" />
  <line x1="60.0" y1="510.0" x2="60.0" y2="506.0" style="stroke:#000000;stroke-width:0.1;" />
  <line x1="120.0" y1="510.0" x2="120.0" y2="506.0" style="stroke:#000000;stroke-width:0.1;" />
  <line x1="59.0" y1="0.0" x2="59.0" y2="4.0" style="stroke:#000000;stroke-width:0.1;" />
  <line x1="121.0" y1="0.0" x2="121.0" y2="4.0" style="stroke:#000000;stroke-width:0.1;" />
  <line x1="59.0" y1="510.0" x2="59.0" y2="506.0" style="stroke:#000000;stroke-width:0.1;" />
  <line x1="121.0" y1="510.0" x2="121.0" y2="506.0" style="stroke:#000000;stroke-width:0.1;" />
  <line x1="58.0" y1="0.0" x2="58.0" y2="4.0" style="stroke:#000000;stroke-width:0.1;" />
  <line x1="122.0" y1="0.0" x2="122.0" y2="4.0" style="stroke:#000000;stroke-width:0.1;" />
  <line x1="58.0" y1="510.0" x2="58.0" y2="506.0" style="stroke:#000000;stroke-width:0.1;" />
  <line x1="122.0" y1="510.0" x2="122.0" y2="506.0" style="stroke:#000000;stroke-width:0.1;" />
  <line x1="57.0" y1="0.0" x2="57.0" y2="4.0" style="stroke:#000000;stroke-width:0.1;" />
  <line x1="123.0" y1="0.0" x2="123.0" y2="4.0" style="stroke:#000000;stroke-width:0.1;" />
  <line x1="57.0" y1="510.0" x2="57.0" y2="506.0" style="stroke:#000000;stroke-width:0.1;" />
  <line x1="123.0" y1="510.0" x2="123.0" y2="506.0" style="stroke:#000000;stroke-width:0.1;" />
  <line x1="56.0" y1="0.0" x2="56.0" y2="4.0" style="stroke:#000000;stroke-width:0.1;" />
  <line x1="124.0" y1="0.0" x2="124.0" y2="4.0" style="stroke:#000000;stroke-width:0.1;" />
  <line x1="56.0" y1="510.0" x2="56.0" y2="506.0" style="stroke:#000000;stroke-width:0.1;" />
  <line x1="124.0" y1="510.0" x2="124.0" y2="506.0" style="stroke:#000000;stroke-width:0.1;" />
  <line x1="55.0" y1="0.0" x2="55.0" y2="4.0" style="stroke:#000000;stroke-width:0.1;" />
  <line x1="125.0" y1="0.0" x2="125.0" y2="4.0" style="stroke:#000000;stroke-width:0.1;" />
  <line x1="55.0" y1="510.0" x2="55.0" y2="506.0" style="stroke:#000000;stroke-width:0.1;" />
  <line x1="125.0" y1="510.0" x2="125.0" y2="506.0" style="stroke:#000000;stroke-width:0.1;" />
  <line x1="54.0" y1="0.0" x2="54.0" y2="4.0" style="stroke:#000000;stroke-width:0.1;" />
  <line x1="126.0" y1="0.0" x2="126.0" y2="4.0" style="stroke:#000000;stroke-width:0.1;" />
  <line x1="54.0" y1="510.0" x2="54.0" y2="506.0" style="stroke:#000000;stroke-width:0.1;" />
  <line x1="126.0" y1="510.0" x2="126.0" y2="506.0" style="stroke:#000000;stroke-width:0.1;" />
  <line x1="53.0" y1="0.0" x2="53.0" y2="4.0" style="stroke:#000000;stroke-width:0.1;" />
  <line x1="127.0" y1="0.0" x2="127.0" y2="4.0" style="stroke:#000000;stroke-width:0.1;" />
  <line x1="53.0" y1="510.0" x2="53.0" y2="506.0" style="stroke:#000000;stroke-width:0.1;" />
  <line x1="127.0" y1="510.0" x2="127.0" y2="506.0" style="stroke:#000000;stroke-width:0.1;" />
  <line x1="52.0" y1="0.0" x2="52.0" y2="4.0" style="stroke:#000000;stroke-width:0.1;" />
  <line x1="128.0" y1="0.0" x2="128.0" y2="4.0" style="stroke:#000000;stroke-width:0.1;" />
  <line x1="52.0" y1="510.0" x2="52.0" y2="506.0" style="stroke:#000000;stroke-width:0.1;" />
  <line x1="128.0" y1="510.0" x2="128.0" y2="506.0" style="stroke:#000000;stroke-width:0.1;" />
  <line x1="51.0" y1="0.0" x2="51.0" y2="4.0" style="stroke:#000000;stroke-width:0.1;" />
  <line x1="129.0" y1="0.0" x2="129.0" y2="4.0" style="stroke:#000000;stroke-width:0.1;" />
  <line x1="51.0" y1="510.0" x2="51.0" y2="506.0" style="stroke:#000000;stroke-width:0.1;" />
  <line x1="129.0" y1="510.0" x2="129.0" y2="506.0" style="stroke:#000000;stroke-width:0.1;" />
  <line x1="50.0" y1="0.0" x2="50.0" y2="4.0" style="stroke:#000000;stroke-width:0.1;" />
  <line x1="130.0" y1="0.0" x2="130.0" y2="4.0" style="stroke:#000000;stroke-width:0.1;" />
  <line x1="50.0" y1="510.0" x2="50.0" y2="506.0" style="stroke:#000000;stroke-width:0.1;" />
  <line x1="130.0" y1="510.0" x2="130.0" y2="506.0" style="stroke:#000000;stroke-width:0.1;" />
  <line x1="49.0" y1="0.0" x2="49.0" y2="4.0" style="stroke:#000000;stroke-width:0.1;" />
  <line x1="131.0" y1="0.0" x2="131.0" y2="4.0" style="stroke:#000000;stroke-width:0.1;" />
  <line x1="49.0" y1="510.0" x2="49.0" y2="506.0" style="stroke:#000000;stroke-width:0.1;" />
  <line x1="131.0" y1="510.0" x2="131.0" y2="506.0" style="stroke:#000000;stroke-width:0.1;" />
  <line x1="48.0" y1="0.0" x2="48.0" y2="4.0" style="stroke:#000000;stroke-width:0.1;" />
  <line x1="132.0" y1="0.0" x2="132.0" y2="4.0" style="stroke:#000000;stroke-width:0.1;" />
  <line x1="48.0" y1="510.0" x2="48.0" y2="506.0" style="stroke:#000000;stroke-width:0.1;" />
  <line x1="132.0" y1="510.0" x2="132.0" y2="506.0" style="stroke:#000000;stroke-width:0.1;" />
  <line x1="47.0" y1="0.0" x2="47.0" y2="4.0" style="stroke:#000000;stroke-width:0.1;" />
  <line x1="133.0" y1="0.0" x2="133.0" y2="4.0" style="stroke:#000000;stroke-width:0.1;" />
  <line x1="47.0" y1="510.0" x2="47.0" y2="506.0" style="stroke:#000000;stroke-width:0.1;" />
  <line x1="133.0" y1="510.0" x2="133.0" y2="506.0" style="stroke:#000000;stroke-width:0.1;" />
  <line x1="46.0" y1="0.0" x2="46.0" y2="4.0" style="stroke:#000000;stroke-width:0.1;" />
  <line x1="134.0" y1="0.0" x2="134.0" y2="4.0" style="stroke:#000000;stroke-width:0.1;" />
  <line x1="46.0" y1="510.0" x2="46.0" y2="506.0" style="stroke:#000000;stroke-width:0.1;" />
  <line x1="134.0" y1="510.0" x2="134.0" y2="506.0" style="stroke:#000000;stroke-width:0.1;" />
  <line x1="45.0" y1="0.0" x2="45.0" y2="4.0" style="stroke:#000000;stroke-width:0.1;" />
  <line x1="135.0" y1="0.0" x2="135.0" y2="4.0" style="stroke:#000000;stroke-width:0.1;" />
  <line x1="45.0" y1="510.0" x2="45.0" y2="506.0" style="stroke:#000000;stroke-width:0.1;" />
  <line x1="135.0" y1="510.0" x2="135.0" y2="506.0" style="stroke:#000000;stroke-width:0.1;" />
  <line x1="44.0" y1="0.0" x2="44.0" y2="4.0" style="stroke:#000000;stroke-width:0.1;" />
  <line x1="136.0" y1="0.0" x2="136.0" y2="4.0" style="stroke:#000000;stroke-width:0.1;" />
  <line x1="44.0" y1="510.0" x2="44.0" y2="506.0" style="stroke:#000000;stroke-width:0.1;" />
  <line x1="136.0" y1="510.0" x2="136.0" y2="506.0" style="stroke:#000000;stroke-width:0.1;" />
  <line x1="43.0" y1="0.0" x2="43.0" y2="4.0" style="stroke:#000000;stroke-width:0.1;" />
  <line x1="137.0" y1="0.0" x2="137.0" y2="4.0" style="stroke:#000000;stroke-width:0.1;" />
  <line x1="43.0" y1="510.0" x2="43.0" y2="506.0" style="stroke:#000000;stroke-width:0.1;" />
  <line x1="137.0" y1="510.0" x2="137.0" y2="506.0" style="stroke:#000000;stroke-width:0.1;" />
  <line x1="42.0" y1="0.0" x2="42.0" y2="4.0" style="stroke:#000000;stroke-width:0.1;" />
  <line x1="138.0" y1="0.0" x2="138.0" y2="4.0" style="stroke:#000000;stroke-width:0.1;" />
  <line x1="42.0" y1="510.0" x2="42.0" y2="506.0" style="stroke:#000000;stroke-width:0.1;" />
  <line x1="138.0" y1="510.0" x2="138.0" y2="506.0" style="stroke:#000000;stroke-width:0.1;" />
  <line x1="41.0" y1="0.0" x2="41.0" y2="4.0" style="stroke:#000000;stroke-width:0.1;" />
  <line x1="139.0" y1="0.0" x2="139.0" y2="4.0" style="stroke:#000000;stroke-width:0.1;" />
  <line x1="41.0" y1="510.0" x2="41.0" y2="506.0" style="stroke:#000000;stroke-width:0.1;" />
  <line x1="139.0" y1="510.0" x2="139.0" y2="506.0" style="stroke:#000000;stroke-width:0.1;" />
  <line x1="40.0" y1="0.0" x2="40.0" y2="4.0" style="stroke:#000000;stroke-width:0.1;" />
  <line x1="140.0" y1="0.0" x2="140.0" y2="4.0" style="stroke:#000000;stroke-width:0.1;" />
  <line x1="40.0" y1="510.0" x2="40.0" y2="506.0" style="stroke:#000000;stroke-width:0.1;" />
  <line x1="140.0" y1="510.0" x2="140.0" y2="506.0" style="stroke:#000000;stroke-width:0.1;" />
  <line x1="39.0" y1="0.0" x2="39.0" y2="4.0" style="stroke:#000000;stroke-width:0.1;" />
  <line x1="141.0" y1="0.0" x2="141.0" y2="4.0" style="stroke:#000000;stroke-width:0.1;" />
  <line x1="39.0" y1="510.0" x2="39.0" y2="506.0" style="stroke:#000000;stroke-width:0.1;" />
  <line x1="141.0" y1="510.0" x2="141.0" y2="506.0" style="stroke:#000000;stroke-width:0.1;" />
  <line x1="38.0" y1="0.0" x2="38.0" y2="4.0" style="stroke:#000000;stroke-width:0.1;" />
  <line x1="142.0" y1="0.0" x2="142.0" y2="4.0" style="stroke:#000000;stroke-width:0.1;" />
  <line x1="38.0" y1="510.0" x2="38.0" y2="506.0" style="stroke:#000000;stroke-width:0.1;" />
  <line x1="142.0" y1="510.0" x2="142.0" y2="506.0" style="stroke:#000000;stroke-width:0.1;" />
  <line x1="37.0" y1="0.0" x2="37.0" y2="4.0" style="stroke:#000000;stroke-width:0.1;" />
  <line x1="143.0" y1="0.0" x2="143.0" y2="4.0" style="stroke:#000000;stroke-width:0.1;" />
  <line x1="37.0" y1="510.0" x2="37.0" y2="506.0" style="stroke:#000000;stroke-width:0.1;" />
  <line x1="143.0" y1="510.0" x2="143.0" y2="506.0" style="stroke:#000000;stroke-width:0.1;" />
  <line x1="36.0" y1="0.0" x2="36.0" y2="4.0" style="stroke:#000000;stroke-width:0.1;" />
  <line x1="144.0" y1="0.0" x2="144.0" y2="4.0" style="stroke:#000000;stroke-width:0.1;" />
  <line x1="36.0" y1="510.0" x2="36.0" y2="506.0" style="stroke:#000000;stroke-width:0.1;" />
  <line x1="144.0" y1="510.0" x2="144.0" y2="506.0" style="stroke:#000000;stroke-width:0.1;" />
  <line x1="35.0" y1="0.0" x2="35.0" y2="4.0" style="stroke:#000000;stroke-width:0.1;" />
  <line x1="145.0" y1="0.0" x2="145.0" y2="4.0" style="stroke:#000000;stroke-width:0.1;" />
  <line x1="35.0" y1="510.0" x2="35.0" y2="506.0" style="stroke:#000000;stroke-width:0.1;" />
  <line x1="145.0" y1="510.0" x2="145.0" y2="506.0" style="stroke:#000000;stroke-width:0.1;" />
  <line x1="34.0" y1="0.0" x2="34.0" y2="4.0" style="stroke:#000000;stroke-width:0.1;" />
  <line x1="146.0" y1="0.0" x2="146.0" y2="4.0" style="stroke:#000000;stroke-width:0.1;" />
  <line x1="34.0" y1="510.0" x2="34.0" y2="506.0" style="stroke:#000000;stroke-width:0.1;" />
  <line x1="146.0" y1="510.0" x2="146.0" y2="506.0" style="stroke:#000000;stroke-width:0.1;" />
  <line x1="33.0" y1="0.0" x2="33.0" y2="4.0" style="stroke:#000000;stroke-width:0.1;" />
  <line x1="147.0" y1="0.0" x2="147.0" y2="4.0" style="stroke:#000000;stroke-width:0.1;" />
  <line x1="33.0" y1="510.0" x2="33.0" y2="506.0" style="stroke:#000000;stroke-width:0.1;" />
  <line x1="147.0" y1="510.0" x2="147.0" y2="506.0" style="stroke:#000000;stroke-width:0.1;" />
  <line x1="32.0" y1="0.0" x2="32.0" y2="4.0" style="stroke:#000000;stroke-width:0.1;" />
  <line x1="148.0" y1="0.0" x2="148.0" y2="4.0" style="stroke:#000000;stroke-width:0.1;" />
  <line x1="32.0" y1="510.0" x2="32.0" y2="506.0" style="stroke:#000000;stroke-width:0.1;" />
  <line x1="148.0" y1="510.0" x2="148.0" y2="506.0" style="stroke:#000000;stroke-width:0.1;" />
  <line x1="31.0" y1="0.0" x2="31.0" y2="4.0" style="stroke:#000000;stroke-width:0.1;" />
  <line x1="149.0" y1="0.0" x2="149.0" y2="4.0" style="stroke:#000000;stroke-width:0.1;" />
  <line x1="31.0" y1="510.0" x2="31.0" y2="506.0" style="stroke:#000000;stroke-width:0.1;" />
  <line x1="149.0" y1="510.0" x2="149.0" y2="506.0" style="stroke:#000000;stroke-width:0.1;" />
  <line x1="30.0" y1="0.0" x2="30.0" y2="4.0" style="stroke:#000000;stroke-width:0.1;" />
  <line x1="150.0" y1="0.0" x2="150.0" y2="4.0" style="stroke:#000000;stroke-width:0.1;" />
  <line x1="30.0" y1="510.0" x2="30.0" y2="506.0" style="stroke:#000000;stroke-width:0.1;" />
  <line x1="150.0" y1="510.0" x2="150.0" y2="506.0" style="stroke:#000000;stroke-width:0.1;" />
  <line x1="29.0" y1="0.0" x2="29.0" y2="4.0" style="stroke:#000000;stroke-width:0.1;" />
  <line x1="151.0" y1="0.0" x2="151.0" y2="4.0" style="stroke:#000000;stroke-width:0.1;" />
  <line x1="29.0" y1="510.0" x2="29.0" y2="506.0" style="stroke:#000000;stroke-width:0.1;" />
  <line x1="151.0" y1="510.0" x2="151.0" y2="506.0" style="stroke:#000000;stroke-width:0.1;" />
  <line x1="28.0" y1="0.0" x2="28.0" y2="4.0" style="stroke:#000000;stroke-width:0.1;" />
  <line x1="152.0" y1="0.0" x2="152.0" y2="4.0" style="stroke:#000000;stroke-width:0.1;" />
  <line x1="28.0" y1="510.0" x2="28.0" y2="506.0" style="stroke:#000000;stroke-width:0.1;" />
  <line x1="152.0" y1="510.0" x2="152.0" y2="506.0" style="stroke:#000000;stroke-width:0.1;" />
  <line x1="27.0" y1="0.0" x2="27.0" y2="4.0" style="stroke:#000000;stroke-width:0.1;" />
  <line x1="153.0" y1="0.0" x2="153.0" y2="4.0" style="stroke:#000000;stroke-width:0.1;" />
  <line x1="27.0" y1="510.0" x2="27.0" y2="506.0" style="stroke:#000000;stroke-width:0.1;" />
  <line x1="153.0" y1="510.0" x2="153.0" y2="506.0" style="stroke:#000000;stroke-width:0.1;" />
  <line x1="26.0" y1="0.0" x2="26.0" y2="4.0" style="stroke:#000000;stroke-width:0.1;" />
  <line x1="154.0" y1="0.0" x2="154.0" y2="4.0" style="stroke:#000000;stroke-width:0.1;" />
  <line x1="26.0" y1="510.0" x2="26.0" y2="506.0" style="stroke:#000000;stroke-width:0.1;" />
  <line x1="154.0" y1="510.0" x2="154.0" y2="506.0" style="stroke:#000000;stroke-width:0.1;" />
  <line x1="25.0" y1="0.0" x2="25.0" y2="4.0" style="stroke:#000000;stroke-width:0.1;" />
  <line x1="155.0" y1="0.0" x2="155.0" y2="4.0" style="stroke:#000000;stroke-width:0.1;" />
  <line x1="25.0" y1="510.0" x2="25.0" y2="506.0" style="stroke:#000000;stroke-width:0.1;" />
  <line x1="155.0" y1="510.0" x2="155.0" y2="506.0" style="stroke:#000000;stroke-width:0.1;" />
  <line x1="24.0" y1="0.0" x2="24.0" y2="4.0" style="stroke:#000000;stroke-width:0.1;" />
  <line x1="156.0" y1="0.0" x2="156.0" y2="4.0" style="stroke:#000000;stroke-width:0.1;" />
  <line x1="24.0" y1="510.0" x2="24.0" y2="506.0" style="stroke:#000000;stroke-width:0.1;" />
  <line x1="156.0" y1="510.0" x2="156.0" y2="506.0" style="stroke:#000000;stroke-width:0.1;" />
  <line x1="23.0" y1="0.0" x2="23.0" y2="4.0" style="stroke:#000000;stroke-width:0.1;" />
  <line x1="157.0" y1="0.0" x2="157.0" y2="4.0" style="stroke:#000000;stroke-width:0.1;" />
  <line x1="23.0" y1="510.0" x2="23.0" y2="506.0" style="stroke:#000000;stroke-width:0.1;" />
  <line x1="157.0" y1="510.0" x2="157.0" y2="506.0" style="stroke:#000000;stroke-width:0.1;" />
  <line x1="22.0" y1="0.0" x2="22.0" y2="4.0" style="stroke:#000000;stroke-width:0.1;" />
  <line x1="158.0" y1="0.0" x2="158.0" y2="4.0" style="stroke:#000000;stroke-width:0.1;" />
  <line x1="22.0" y1="510.0" x2="22.0" y2="506.0" style="stroke:#000000;stroke-width:0.1;" />
  <line x1="158.0" y1="510.0" x2="158.0" y2="506.0" style="stroke:#000000;stroke-width:0.1;" />
  <line x1="21.0" y1="0.0" x2="21.0" y2="4.0" style="stroke:#000000;stroke-width:0.1;" />
  <line x1="159.0" y1="0.0" x2="159.0" y2="4.0" style="stroke:#000000;stroke-width:0.1;" />
  <line x1="21.0" y1="510.0" x2="21.0" y2="506.0" style="stroke:#000000;stroke-width:0.1;" />
  <line x1="159.0" y1="510.0" x2="159.0" y2="506.0" style="stroke:#000000;stroke-width:0.1;" />
  <line x1="20.0" y1="0.0" x2="20.0" y2="4.0" style="stroke:#000000;stroke-width:0.1;" />
  <line x1="160.0" y1="0.0" x2="160.0" y2="4.0" style="stroke:#000000;stroke-width:0.1;" />
  <line x1="20.0" y1="510.0" x2="20.0" y2="506.0" style="stroke:#000000;stroke-width:0.1;" />
  <line x1="160.0" y1="510.0" x2="160.0" y2="506.0" style="stroke:#000000;stroke-width:0.1;" />
  <line x1="0.0" y1="30.0" x2="12.0" y2="30.0" style="stroke:#000000;stroke-width:0.1;" />
  <line x1="0.0" y1="40.0" x2="12.0" y2="40.0" style="stroke:#000000;stroke-width:0.1;" />
  <line x1="0.0" y1="50.0" x2="12.0" y2="50.0" style="stroke:#000000;stroke-width:0.1;" />
  <line x1="0.0" y1="60.0" x2="12.0" y2="60.0" style="stroke:#000000;stroke-width:0.1;" />
  <line x1="0.0" y1="70.0" x2="12.0" y2="70.0" style="stroke:#000000;stroke-width:0.1;" />
  <line x1="0.0" y1="80.0" x2="12.0" y2="80.0" style="stroke:#000000;stroke-width:0.1;" />
  <line x1="0.0" y1="90.0" x2="12.0" y2="90.0" style="stroke:#000000;stroke-width:0.1;" />
  <line x1="0.0" y1="100.0" x2="12.0" y2="100.0" style="stroke:#000000;stroke-width:0.1;" />
  <line x1="0.0" y1="110.0" x2="12.0" y2="110.0" style="stroke:#000000;stroke-width:0.1;" />
  <line x1="0.0" y1="120.0" x2="12.0" y2="120.0" style="stroke:#000000;stroke-width:0.1;" />
  <line x1="0.0" y1="130.0" x2="12.0" y2="130.0" style="stroke:#000000;stroke-width:0.1;" />
  <line x1="0.0" y1="140.0" x2="12.0" y2="140.0" style="stroke:#000000;stroke-width:0.1;" />
  <line x1="0.0" y1="35.0" x2="8.0" y2="35.0" style="stroke:#000000;stroke-width:0.1;" />
  <line x1="0.0" y1="45.0" x2="8.0" y2="45.0" style="stroke:#000000;stroke-width:0.1;" />
  <line x1="0.0" y1="55.0" x2="8.0" y2="55.0" style="stroke:#000000;stroke-width:0.1;" />
  <line x1="0.0" y1="65.0" x2="8.0" y2="65.0" style="stroke:#000000;stroke-width:0.1;" />
  <line x1="0.0" y1="75.0" x2="8.0" y2="75.0" style="stroke:#000000;stroke-width:0.1;" />
  <line x1="0.0" y1="85.0" x2="8.0" y2="85.0" style="stroke:#000000;stroke-width:0.1;" />
  <line x1="0.0" y1="95.0" x2="8.0" y2="95.0" style="stroke:#000000;stroke-width:0.1;" />
  <line x1="0.0" y1="105.0" x2="8.0" y2="105.0" style="stroke:#000000;stroke-width:0.1;" />
  <line x1="0.0" y1="115.0" x2="8.0" y2="115.0" style="stroke:#000000;stroke-width:0.1;" />
  <line x1="0.0" y1="125.0" x2="8.0" y2="125.0" style="stroke:#000000;stroke-width:0.1;" />
  <line x1="0.0" y1="135.0" x2="8.0" y2="135.0" style="stroke:#000000;stroke-width:0.1;" />
  <line x1="0.0" y1="30.0" x2="4.0" y2="30.0" style="stroke:#000000;stroke-width:0.1;" />
  <line x1="0.0" y1="31.0" x2="4.0" y2="31.0" style="stroke:#000000;stroke-width:0.1;" />
  <line x1="0.0" y1="32.0" x2="4.0" y2="32.0" style="stroke:#000000;stroke-width:0.1;" />
  <line x1="0.0" y1="33.0" x2="4.0" y2="33.0" style="stroke:#000000;stroke-width:0.1;" />
  <line x1="0.0" y1="34.0" x2="4.0" y2="34.0" style="stroke:#000000;stroke-width:0.1;" />
  <line x1="0.0" y1="35.0" x2="4.0" y2="35.0" style="stroke:#000000;stroke-width:0.1;" />
  <line x1="0.0" y1="36.0" x2="4.0" y2="36.0" style="stroke:#000000;stroke-width:0.1;" />
  <line x1="0.0" y1="37.0" x2="4.0" y2="37.0" style="stroke:#000000;stroke-width:0.1;" />
  <line x1="0.0" y1="38.0" x2="4.0" y2="38.0" style="stroke:#000000;stroke-width:0.1;" />
  <line x1="0.0" y1="39.0" x2="4.0" y2="39.0" style="stroke:#000000;stroke-width:0.1;" />
  <line x1="0.0" y1="40.0" x2="4.0" y2="40.0" style="stroke:#000000;stroke-width:0.1;" />
  <line x1="0.0" y1="41.0" x2="4.0" y2="41.0" style="stroke:#000000;stroke-width:0.1;" />
  <line x1="0.0" y1="42.0" x2="4.0" y2="42.0" style="stroke:#000000;stroke-width:0.1;" />
  <line x1="0.0" y1="43.0" x2="4.0" y2="43.0" style="stroke:#000000;stroke-width:0.1;" />
  <line x1="0.0" y1="44.0" x2="4.0" y2="44.0" style="stroke:#000000;stroke-width:0.1;" />
  <line x1="0.0" y1="45.0" x2="4.0" y2="45.0" style="stroke:#000000;stroke-width:0.1;" />
  <line x1="0.0" y1="46.0" x2="4.0" y2="46.0" style="stroke:#000000;stroke-width:0.1;" />
  <line x1="0.0" y1="47.0" x2="4.0" y2="47.0" style="stroke:#000000;stroke-width:0.1;" />
  <line x1="0.0" y1="48.0" x2="4.0" y2="48.0" style="stroke:#000000;stroke-width:0.1;" />
  <line x1="0.0" y1="49.0" x2="4.0" y2="49.0" style="stroke:#000000;stroke-width:0.1;" />
  <line x1="0.0" y1="50.0" x2="4.0" y2="50.0" style="stroke:#000000;stroke-width:0.1;" />
  <line x1="0.0" y1="51.0" x2="4.0" y2="51.0" style="stroke:#000000;stroke-width:0.1;" />
  <line x1="0.0" y1="52.0" x2="4.0" y2="52.0" style="stroke:#000000;stroke-width:0.1;" />
  <line x1="0.0" y1="53.0" x2="4.0" y2="53.0" style="stroke:#000000;stroke-width:0.1;" />
  <line x1="0.0" y1="54.0" x2="4.0" y2="54.0" style="stroke:#000000;stroke-width:0.1;" />
  <line x1="0.0" y1="55.0" x2="4.0" y2="55.0" style="stroke:#000000;stroke-width:0.1;" />
  <line x1="0.0" y1="56.0" x2="4.0" y2="56.0" style="stroke:#000000;stroke-width:0.1;" />
  <line x1="0.0" y1="57.0" x2="4.0" y2="57.0" style="stroke:#000000;stroke-width:0.1;" />
  <line x1="0.0" y1="58.0" x2="4.0" y2="58.0" style="stroke:#000000;stroke-width:0.1;" />
  <line x1="0.0" y1="59.0" x2="4.0" y2="59.0" style="stroke:#000000;stroke-width:0.1;" />
  <line x1="0.0" y1="60.0" x2="4.0" y2="60.0" style="stroke:#000000;stroke-width:0.1;" />
  <line x1="0.0" y1="61.0" x2="4.0" y2="61.0" style="stroke:#000000;stroke-width:0.1;" />
  <line x1="0.0" y1="62.0" x2="4.0" y2="62.0" style="stroke:#000000;stroke-width:0.1;" />
  <line x1="0.0" y1="63.0" x2="4.0" y2="63.0" style="stroke:#000000;stroke-width:0.1;" />
  <line x1="0.0" y1="64.0" x2="4.0" y2="64.0" style="stroke:#000000;stroke-width:0.1;" />
  <line x1="0.0" y1="65.0" x2="4.0" y2="65.0" style="stroke:#000000;stroke-width:0.1;" />
  <line x1="0.0" y1="66.0" x2="4.0" y2="66.0" style="stroke:#000000;stroke-width:0.1;" />
  <line x1="0.0" y1="67.0" x2="4.0" y2="67.0" style="stroke:#000000;stroke-width:0.1;" />
  <line x1="0.0" y1="68.0" x2="4.0" y2="68.0" style="stroke:#000000;stroke-width:0.1;" />
  <line x1="0.0" y1="69.0" x2="4.0" y2="69.0" style="stroke:#000000;stroke-width:0.1;" />
  <line x1="0.0" y1="70.0" x2="4.0" y2="70.0" style="stroke:#000000;stroke-width:0.1;" />
  <line x1="0.0" y1="71.0" x2="4.0" y2="71.0" style="stroke:#000000;stroke-width:0.1;" />
  <line x1="0.0" y1="72.0" x2="4.0" y2="72.0" style="stroke:#000000;stroke-width:0.1;" />
  <line x1="0.0" y1="73.0" x2="4.0" y2="73.0" style="stroke:#000000;stroke-width:0.1;" />
  <line x1="0.0" y1="74.0" x2="4.0" y2="74.0" style="stroke:#000000;stroke-width:0.1;" />
  <line x1="0.0" y1="75.0" x2="4.0" y2="75.0" style="stroke:#000000;stroke-width:0.1;" />
  <line x1="0.0" y1="76.0" x2="4.0" y2="76.0" style="stroke:#000000;stroke-width:0.1;" />
  <line x1="0.0" y1="77.0" x2="4.0" y2="77.0" style="stroke:#000000;stroke-width:0.1;" />
  <line x1="0.0" y1="78.0" x2="4.0" y2="78.0" style="stroke:#000000;stroke-width:0.1;" />
  <line x1="0.0" y1="79.0" x2="4.0" y2="79.0" style="stroke:#000000;stroke-width:0.1;" />
  <line x1="0.0" y1="80.0" x2="4.0" y2="80.0" style="stroke:#000000;stroke-width:0.1;" />
  <line x1="0.0" y1="81.0" x2="4.0" y2="81.0" style="stroke:#000000;stroke-width:0.1;" />
  <line x1="0.0" y1="82.0" x2="4.0" y2="82.0" style="stroke:#000000;stroke-width:0.1;" />
  <line x1="0.0" y1="83.0" x2="4.0" y2="83.0" style="stroke:#000000;stroke-width:0.1;" />
  <line x1="0.0" y1="84.0" x2="4.0" y2="84.0" style="stroke:#000000;stroke-width:0.1;" />
  <line x1="0.0" y1="85.0" x2="4.0" y2="85.0" style="stroke:#000000;stroke-width:0.1;" />
  <line x1="0.0" y1="86.0" x2="4.0" y2="86.0" style="stroke:#000000;stroke-width:0.1;" />
  <line x1="0.0" y1="87.0" x2="4.0" y2="87.0" style="stroke:#000000;stroke-width:0.1;" />
  <line x1="0.0" y1="88.0" x2="4.0" y2="88.0" style="stroke:#000000;stroke-width:0.1;" />
  <line x1="0.0" y1="89.0" x2="4.0" y2="89.0" style="stroke:#000000;stroke-width:0.1;" />
  <line x1="0.0" y1="90.0" x2="4.0" y2="90.0" style="stroke:#000000;stroke-width:0.1;" />
  <line x1="0.0" y1="91.0" x2="4.0" y2="91.0" style="stroke:#000000;stroke-width:0.1;" />
  <line x1="0.0" y1="92.0" x2="4.0" y2="92.0" style="stroke:#000000;stroke-width:0.1;" />
  <line x1="0.0" y1="93.0" x2="4.0" y2="93.0" style="stroke:#000000;stroke-width:0.1;" />
  <line x1="0.0" y1="94.0" x2="4.0" y2="94.0" style="stroke:#000000;stroke-width:0.1;" />
  <line x1="0.0" y1="95.0" x2="4.0" y2="95.0" style="stroke:#000000;stroke-width:0.1;" />
  <line x1="0.0" y1="96.0" x2="4.0" y2="96.0" style="stroke:#000000;stroke-width:0.1;" />
  <line x1="0.0" y1="97.0" x2="4.0" y2="97.0" style="stroke:#000000;stroke-width:0.1;" />
  <line x1="0.0" y1="98.0" x2="4.0" y2="98.0" style="stroke:#000000;stroke-width:0.1;" />
  <line x1="0.0" y1="99.0" x2="4.0" y2="99.0" style="stroke:#000000;stroke-width:0.1;" />
  <line x1="0.0" y1="100.0" x2="4.0" y2="100.0" style="stroke:#000000;stroke-width:0.1;" />
  <line x1="0.0" y1="101.0" x2="4.0" y2="101.0" style="stroke:#000000;stroke-width:0.1;" />
  <line x1="0.0" y1="102.0" x2="4.0" y2="102.0" style="stroke:#000000;stroke-width:0.1;" />
  <line x1="0.0" y1="103.0" x2="4.0" y2="103.0" style="stroke:#000000;stroke-width:0.1;" />
  <line x1="0.0" y1="104.0" x2="4.0" y2="104.0" style="stroke:#000000;stroke-width:0.1;" />
  <line x1="0.0" y1="105.0" x2="4.0" y2="105.0" style="stroke:#000000;stroke-width:0.1;" />
  <line x1="0.0" y1="106.0" x2="4.0" y2="106.0" style="stroke:#000000;stroke-width:0.1;" />
  <line x1="0.0" y1="107.0" x2="4.0" y2="107.0" style="stroke:#000000;stroke-width:0.1;" />
  <line x1="0.0" y1="108.0" x2="4.0" y2="108.0" style="stroke:#000000;stroke-width:0.1;" />
  <line x1="0.0" y1="109.0" x2="4.0" y2="109.0" style="stroke:#000000;stroke-width:0.1;" />
  <line x1="0.0" y1="110.0" x2="4.0" y2="110.0" style="stroke:#000000;stroke-width:0.1;" />
  <line x1="0.0" y1="111.0" x2="4.0" y2="111.0" style="stroke:#000000;stroke-width:0.1;" />
  <line x1="0.0" y1="112.0" x2="4.0" y2="112.0" style="stroke:#000000;stroke-width:0.1;" />
  <line x1="0.0" y1="113.0" x2="4.0" y2="113.0" style="stroke:#000000;stroke-width:0.1;" />
  <line x1="0.0" y1="114.0" x2="4.0" y2="114.0" style="stroke:#000000;stroke-width:0.1;" />
  <line x1="0.0" y1="115.0" x2="4.0" y2="115.0" style="stroke:#000000;stroke-width:0.1;" />
  <line x1="0.0" y1="116.0" x2="4.0" y2="116.0" style="stroke:#000000;stroke-width:0.1;" />
  <line x1="0.0" y1="117.0" x2="4.0" y2="117.0" style="stroke:#000000;stroke-width:0.1;" />
  <line x1="0.0" y1="118.0" x2="4.0" y2="118.0" style="stroke:#000000;stroke-width:0.1;" />
  <line x1="0.0" y1="119.0" x2="4.0" y2="119.0" style="stroke:#000000;stroke-width:0.1;" />
  <line x1="0.0" y1="120.0" x2="4.0" y2="120.0" style="stroke:#000000;stroke-width:0.1;" />
  <line x1="0.0" y1="121.0" x2="4.0" y2="121.0" style="stroke:#000000;stroke-width:0.1;" />
  <line x1="0.0" y1="122.0" x2="4.0" y2="122.0" style="stroke:#000000;stroke-width:0.1;" />
  <line x1="0.0" y1="123.0" x2="4.0" y2="123.0" style="stroke:#000000;stroke-width:0.1;" />
  <line x1="0.0" y1="124.0" x2="4.0" y2="124.0" style="stroke:#000000;stroke-width:0.1;" />
  <line x1="0.0" y1="125.0" x2="4.0" y2="125.0" style="stroke:#000000;stroke-width:0.1;" />
  <line x1="0.0" y1="126.0" x2="4.0" y2="126.0" style="stroke:#000000;stroke-width:0.1;" />
  <line x1="0.0" y1="127.0" x2="4.0" y2="127.0" style="stroke:#000000;stroke-width:0.1;" />
  <line x1="0.0" y1="128.0" x2="4.0" y2="128.0" style="stroke:#000000;stroke-width:0.1;" />
  <line x1="0.0" y1="129.0" x2="4.0" y2="129.0" style="stroke:#000000;stroke-width:0.1;" />
  <line x1="0.0" y1="130.0" x2="4.0" y2="130.0" style="stroke:#000000;stroke-width:0.1;" />
  <line x1="0.0" y1="131.0" x2="4.0" y2="131.0" style="stroke:#000000;stroke-width:0.1;" />
  <line x1="0.0" y1="132.0" x2="4.0" y2="132.0" style="stroke:#000000;stroke-width:0.1;" />
  <line x1="0.0" y1="133.0" x2="4.0" y2="133.0" style="stroke:#000000;stroke-width:0.1;" />
  <line x1="0.0" y1="134.0" x2="4.0" y2="134.0" style="stroke:#000000;stroke-width:0.1;" />
  <line x1="0.0" y1="135.0" x2="4.0" y2="135.0" style="stroke:#000000;stroke-width:0.1;" />
  <line x1="0.0" y1="136.0" x2="4.0" y2="136.0" style="stroke:#000000;stroke-width:0.1;" />
  <line x1="0.0" y1="137.0" x2="4.0" y2="137.0" style="stroke:#000000;stroke-width:0.1;" />
  <line x1="0.0" y1="138.0" x2="4.0" y2="138.0" style="stroke:#000000;stroke-width:0.1;" />
  <line x1="0.0" y1="139.0" x2="4.0" y2="139.0" style="stroke:#000000;stroke-width:0.1;" />
  <line x1="0.0" y1="140.0" x2="4.0" y2="140.0" style="stroke:#000000;stroke-width:0.1;" />
  <text x="10.0" y="230.0" font-family="Arial" fill="black" font-size="6" >BSL: 240 mm</text>
  <circle cx="69.0" cy="102.0" r="2.5" style="fill:none;stroke:#000000;stroke-width:0.1;" />
  <line x1="64.0" y1="102.0" x2="74.0" y2="102.0" style="stroke:#000000;stroke-width:0.1;" />
  <line x1="69.0" y1="97.0" x2="69.0" y2="107.0" style="stroke:#000000;stroke-width:0.1;" />
  <circle cx="111.0" cy="102.0" r="2.5" style="fill:none;stroke:#000000;stroke-width:0.1;" />
  <line x1="106.0" y1="102.0" x2="116.0" y2="102.0" style="stroke:#000000;stroke-width:0.1;" />
  <line x1="111.0" y1="97.0" x2="111.0" y2="107.0" style="stroke:#000000;stroke-width:0.1;" />
  <circle cx="72.5" cy="143.5" r="2.5" style="fill:none;stroke:#000000;stroke-width:0.1;" />
  <line x1="67.5" y1="143.5" x2="77.5" y2="143.5" style="stroke:#000000;stroke-width:0.1;" />
  <line x1="72.5" y1="138.5" x2="72.5" y2="148.5" style="stroke:#000000;stroke-width:0.1;" />
  <circle cx="107.5" cy="143.5" r="2.5" style="fill:none;stroke:#000000;stroke-width:0.1;" />
  <line x1="102.5" y1="143.5" x2="112.5" y2="143.5" style="stroke:#000000;stroke-width:0.1;" />
  <line x1="107.5" y1="138.5" x2="107.5" y2="148.5" style="stroke:#000000;stroke-width:0.1;" />
  <text x="10.0" y="290.0" font-family="Arial" fill="black" font-size="6" >BSL: 240 mm</text>
  <circle cx="79.5" cy="308.5" r="2.5" style="fill:none;stroke:#000000;stroke-width:0.1;" />
  <line x1="74.5" y1="308.5" x2="84.5" y2="308.5" style="stroke:#000000;stroke-width:0.1;" />
  <line x1="79.5" y1="303.5" x2="79.5" y2="313.5" style="stroke:#000000;stroke-width:0.1;" />
  <circle cx="100.5" cy="308.5" r="2.5" style="fill:none;stroke:#000000;stroke-width:0.1;" />
  <line x1="95.5" y1="308.5" x2="105.5" y2="308.5" style="stroke:#000000;stroke-width:0.1;" />
  <line x1="100.5" y1="303.5" x2="100.5" y2="313.5" style="stroke:#000000;stroke-width:0.1;" />
  <circle cx="75.5" cy="340.5" r="2.5" style="fill:none;stroke:#000000;stroke-width:0.1;" />
  <line x1="70.5" y1="340.5" x2="80.5" y2="340.5" style="stroke:#000000;stroke-width:0.1;" />
  <line x1="75.5" y1="335.5" x2="75.5" y2="345.5" style="stroke:#000000;stroke-width:0.1;" />
  <circle cx="104.5" cy="340.5" r="2.5" style="fill:none;stroke:#000000;stroke-width:0.1;" />
  <line x1="99.5" y1="340.5" x2="109.5" y2="340.5" style="stroke:#000000;stroke-width:0.1;" />
  <line x1="104.5" y1="335.5" x2="104.5" y2="345.5" style="stroke:#000000;stroke-width:0.1;" />
</svg>
