<?xml version="1.0"?>
<!DOCTYPE svg PUBLIC "-//W3C//DTD SVG 1.1//EN"
"http://www.w3.org/Graphics/SVG/1.1/DTD/svg11.dtd">
<svg xmlns="http://www.w3.org/2000/svg" version="1.2" width="190.0mm" height="259.0mm" viewBox="0 0 190.0 259.0" >
  <line x1="95.0" y1="0.0" x2="95.0" y2="259.0" stroke="black" stroke-width="0.1" stroke-dasharray="4 4" />
  <line x1="47.5" y1="0.0" x2="47.5" y2="259.0" stroke="black" stroke-width="0.1" />
  <line x1="142.5" y1="0.0" x2="142.5" y2="259.0" stroke="black" stroke-width="0.1" />
  <line x1="95.0" y1="255.0" x2="180.0" y2="255.0" stroke="black" stroke-width="0.1" />
  <line x1="10.0" y1="5.0" x2="95.0" y2="5.0" stroke="black" stroke-width="0.1" />
  <circle cx="162.5" cy="45.0" r="2.5" fill="none" stroke="black" stroke-width="0.1" />
  <line x1="162.0" y1="45.0" x2="163.0" y2="45.0" stroke="black" stroke-width="0.1" />
  <line x1="162.5" y1="44.5" x2="162.5" y2="45.5" stroke="black" stroke-width="0.1" />
  <line x1="159.5" y1="45.0" x2="160.5" y2="45.0" stroke="black" stroke-width="0.1" />
  <line x1="164.5" y1="45.0" x2="165.5" y2="45.0" stroke="black" stroke-width="0.1" />
  <line x1="162.5" y1="42.0" x2="162.5" y2="43.0" stroke="black" stroke-width="0.1" />
  <line x1="162.5" y1="47.0" x2="162.5" y2="48.0" stroke="black" stroke-width="0.1" />
  <circle cx="122.5" cy="45.0" r="2.5" fill="none" stroke="black" stroke-width="0.1" />
  <line x1="122.0" y1="45.0" x2="123.0" y2="45.0" stroke="black" stroke-width="0.1" />
  <line x1="122.5" y1="44.5" x2="122.5" y2="45.5" stroke="black" stroke-width="0.1" />
  <line x1="119.5" y1="45.0" x2="120.5" y2="45.0" stroke="black" stroke-width="0.1" />
  <line x1="124.5" y1="45.0" x2="125.5" y2="45.0" stroke="black" stroke-width="0.1" />
  <line x1="122.5" y1="42.0" x2="122.5" y2="43.0" stroke="black" stroke-width="0.1" />
  <line x1="122.5" y1="47.0" x2="122.5" y2="48.0" stroke="black" stroke-width="0.1" />
  <circle cx="162.5" cy="110.0" r="2.5" fill="none" stroke="black" stroke-width="0.1" />
  <line x1="162.0" y1="110.0" x2="163.0" y2="110.0" stroke="black" stroke-width="0.1" />
  <line x1="162.5" y1="109.5" x2="162.5" y2="110.5" stroke="black" stroke-width="0.1" />
  <line x1="159.5" y1="110.0" x2="160.5" y2="110.0" stroke="black" stroke-width="0.1" />
  <line x1="164.5" y1="110.0" x2="165.5" y2="110.0" stroke="black" stroke-width="0.1" />
  <line x1="162.5" y1="107.0" x2="162.5" y2="108.0" stroke="black" stroke-width="0.1" />
  <line x1="162.5" y1="112.0" x2="162.5" y2="113.0" stroke="black" stroke-width="0.1" />
  <circle cx="122.5" cy="110.0" r="2.5" fill="none" stroke="black" stroke-width="0.1" />
  <line x1="122.0" y1="110.0" x2="123.0" y2="110.0" stroke="black" stroke-width="0.1" />
  <line x1="122.5" y1="109.5" x2="122.5" y2="110.5" stroke="black" stroke-width="0.1" />
  <line x1="119.5" y1="110.0" x2="120.5" y2="110.0" stroke="black" stroke-width="0.1" />
  <line x1="124.5" y1="110.0" x2="125.5" y2="110.0" stroke="black" stroke-width="0.1" />
  <line x1="122.5" y1="107.0" x2="122.5" y2="108.0" stroke="black" stroke-width="0.1" />
  <line x1="122.5" y1="112.0" x2="122.5" y2="113.0" stroke="black" stroke-width="0.1" />
  <circle cx="63.5" cy="137.0" r="2.5" fill="none" stroke="black" stroke-width="0.1" />
  <line x1="63.0" y1="137.0" x2="64.0" y2="137.0" stroke="black" stroke-width="0.1" />
  <line x1="63.5" y1="136.5" x2="63.5" y2="137.5" stroke="black" stroke-width="0.1" />
  <line x1="60.5" y1="137.0" x2="61.5" y2="137.0" stroke="black" stroke-width="0.1" />
  <line x1="65.5" y1="137.0" x2="66.5" y2="137.0" stroke="black" stroke-width="0.1" />
  <line x1="63.5" y1="134.0" x2="63.5" y2="135.0" stroke="black" stroke-width="0.1" />
  <line x1="63.5" y1="139.0" x2="63.5" y2="140.0" stroke="black" stroke-width="0.1" />
  <circle cx="31.5" cy="137.0" r="2.5" fill="none" stroke="black" stroke-width="0.1" />
  <line x1="31.0" y1="137.0" x2="32.0" y2="137.0" stroke="black" stroke-width="0.1" />
  <line x1="31.5" y1="136.5" x2="31.5" y2="137.5" stroke="black" stroke-width="0.1" />
  <line x1="28.5" y1="137.0" x2="29.5" y2="137.0" stroke="black" stroke-width="0.1" />
  <line x1="33.5" y1="137.0" x2="34.5" y2="137.0" stroke="black" stroke-width="0.1" />
  <line x1="31.5" y1="134.0" x2="31.5" y2="135.0" stroke="black" stroke-width="0.1" />
  <line x1="31.5" y1="139.0" x2="31.5" y2="140.0" stroke="black" stroke-width="0.1" />
  <circle cx="63.5" cy="212.0" r="2.5" fill="none" stroke="black" stroke-width="0.1" />
  <line x1="63.0" y1="212.0" x2="64.0" y2="212.0" stroke="black" stroke-width="0.1" />
  <line x1="63.5" y1="211.5" x2="63.5" y2="212.5" stroke="black" stroke-width="0.1" />
  <line x1="60.5" y1="212.0" x2="61.5" y2="212.0" stroke="black" stroke-width="0.1" />
  <line x1="65.5" y1="212.0" x2="66.5" y2="212.0" stroke="black" stroke-width="0.1" />
  <line x1="63.5" y1="209.0" x2="63.5" y2="210.0" stroke="black" stroke-width="0.1" />
  <line x1="63.5" y1="214.0" x2="63.5" y2="215.0" stroke="black" stroke-width="0.1" />
  <circle cx="31.5" cy="212.0" r="2.5" fill="none" stroke="black" stroke-width="0.1" />
  <line x1="31.0" y1="212.0" x2="32.0" y2="212.0" stroke="black" stroke-width="0.1" />
  <line x1="31.5" y1="211.5" x2="31.5" y2="212.5" stroke="black" stroke-width="0.1" />
  <line x1="28.5" y1="212.0" x2="29.5" y2="212.0" stroke="black" stroke-width="0.1" />
  <line x1="33.5" y1="212.0" x2="34.5" y2="212.0" stroke="black" stroke-width="0.1" />
  <line x1="31.5" y1="209.0" x2="31.5" y2="210.0" stroke="black" stroke-width="0.1" />
  <line x1="31.5" y1="214.0" x2="31.5" y2="215.0" stroke="black" stroke-width="0.1" />
</svg>
