<?xml version="1.0"?>
<!DOCTYPE svg PUBLIC "-//W3C//DTD SVG 1.1//EN"
"http://www.w3.org/Graphics/SVG/1.1/DTD/svg11.dtd">
<svg xmlns="http://www.w3.org/2000/svg" version="1.2" width="190.0mm" height="259.0mm" viewBox="0 0 190.0 259.0" >
  <line x1="95.0" y1="0.0" x2="95.0" y2="259.0" stroke="black" stroke-width="0.1" stroke-dasharray="4 4" />
  <line x1="47.5" y1="0.0" x2="47.5" y2="259.0" stroke="black" stroke-width="0.1" />
  <line x1="142.5" y1="0.0" x2="142.5" y2="259.0" stroke="black" stroke-width="0.1" />
  <line x1="95.0" y1="255.0" x2="180.0" y2="255.0" stroke="black" stroke-width="0.1" />
  <line x1="10.0" y1="5.0" x2="95.0" y2="5.0" stroke="black" stroke-width="0.1" />
  <circle cx="162.5" cy="48.5" r="2.5" fill="none" stroke="black" stroke-width="0.1" />
  <line x1="162.0" y1="48.5" x2="163.0" y2="48.5" stroke="black" stroke-width="0.1" />
  <line x1="162.5" y1="48.0" x2="162.5" y2="49.0" stroke="black" stroke-width="0.1" />
  <line x1="159.5" y1="48.5" x2="160.5" y2="48.5" stroke="black" stroke-width="0.1" />
  <line x1="164.5" y1="48.5" x2="165.5" y2="48.5" stroke="black" stroke-width="0.1" />
  <line x1="162.5" y1="45.5" x2="162.5" y2="46.5" stroke="black" stroke-width="0.1" />
  <line x1="162.5" y1="50.5" x2="162.5" y2="51.5" stroke="black" stroke-width="0.1" />
  <circle cx="122.5" cy="48.5" r="2.5" fill="none" stroke="black" stroke-width="0.1" />
  <line x1="122.0" y1="48.5" x2="123.0" y2="48.5" stroke="black" stroke-width="0.1" />
  <line x1="122.5" y1="48.0" x2="122.5" y2="49.0" stroke="black" stroke-width="0.1" />
  <line x1="119.5" y1="48.5" x2="120.5" y2="48.5" stroke="black" stroke-width="0.1" />
  <line x1="124.5" y1="48.5" x2="125.5" y2="48.5" stroke="black" stroke-width="0.1" />
  <line x1="122.5" y1="45.5" x2="122.5" y2="46.5" stroke="black" stroke-width="0.1" />
  <line x1="122.5" y1="50.5" x2="122.5" y2="51.5" stroke="black" stroke-width="0.1" />
  <circle cx="162.5" cy="113.5" r="2.5" fill="none" stroke="black" stroke-width="0.1" />
  <line x1="162.0" y1="113.5" x2="163.0" y2="113.5" stroke="black" stroke-width="0.1" />
  <line x1="162.5" y1="113.0" x2="162.5" y2="114.0" stroke="black" stroke-width="0.1" />
  <line x1="159.5" y1="113.5" x2="160.5" y2="113.5" stroke="black" stroke-width="0.1" />
  <line x1="164.5" y1="113.5" x2="165.5" y2="113.5" stroke="black" stroke-width="0.1" />
  <line x1="162.5" y1="110.5" x2="162.5" y2="111.5" stroke="black" stroke-width="0.1" />
  <line x1="162.5" y1="115.5" x2="162.5" y2="116.5" stroke="black" stroke-width="0.1" />
  <circle cx="122.5" cy="113.5" r="2.5" fill="none" stroke="black" stroke-width="0.1" />
  <line x1="122.0" y1="113.5" x2="123.0" y2="113.5" stroke="black" stroke-width="0.1" />
  <line x1="122.5" y1="113.0" x2="122.5" y2="114.0" stroke="black" stroke-width="0.1" />
  <line x1="119.5" y1="113.5" x2="120.5" y2="113.5" stroke="black" stroke-width="0.1" />
  <line x1="124.5" y1="113.5" x2="125.5" y2="113.5" stroke="black" stroke-width="0.1" />
  <line x1="122.5" y1="110.5" x2="122.5" y2="111.5" stroke="black" stroke-width="0.1" />
  <line x1="122.5" y1="115.5" x2="122.5" y2="116.5" stroke="black" stroke-width="0.1" />
  <circle cx="63.5" cy="133.5" r="2.5" fill="none" stroke="black" stroke-width="0.1" />
  <line x1="63.0" y1="133.5" x2="64.0" y2="133.5" stroke="black" stroke-width="0.1" />
  <line x1="63.5" y1="133.0" x2="63.5" y2="134.0" stroke="black" stroke-width="0.1" />
  <line x1="60.5" y1="133.5" x2="61.5" y2="133.5" stroke="black" stroke-width="0.1" />
  <line x1="65.5" y1="133.5" x2="66.5" y2="133.5" stroke="black" stroke-width="0.1" />
  <line x1="63.5" y1="130.5" x2="63.5" y2="131.5" stroke="black" stroke-width="0.1" />
  <line x1="63.5" y1="135.5" x2="63.5" y2="136.5" stroke="black" stroke-width="0.1" />
  <circle cx="31.5" cy="133.5" r="2.5" fill="none" stroke="black" stroke-width="0.1" />
  <line x1="31.0" y1="133.5" x2="32.0" y2="133.5" stroke="black" stroke-width="0.1" />
  <line x1="31.5" y1="133.0" x2="31.5" y2="134.0" stroke="black" stroke-width="0.1" />
  <line x1="28.5" y1="133.5" x2="29.5" y2="133.5" stroke="black" stroke-width="0.1" />
  <line x1="33.5" y1="133.5" x2="34.5" y2="133.5" stroke="black" stroke-width="0.1" />
  <line x1="31.5" y1="130.5" x2="31.5" y2="131.5" stroke="black" stroke-width="0.1" />
  <line x1="31.5" y1="135.5" x2="31.5" y2="136.5" stroke="black" stroke-width="0.1" />
  <circle cx="63.5" cy="208.5" r="2.5" fill="none" stroke="black" stroke-width="0.1" />
  <line x1="63.0" y1="208.5" x2="64.0" y2="208.5" stroke="black" stroke-width="0.1" />
  <line x1="63.5" y1="208.0" x2="63.5" y2="209.0" stroke="black" stroke-width="0.1" />
  <line x1="60.5" y1="208.5" x2="61.5" y2="208.5" stroke="black" stroke-width="0.1" />
  <line x1="65.5" y1="208.5" x2="66.5" y2="208.5" stroke="black" stroke-width="0.1" />
  <line x1="63.5" y1="205.5" x2="63.5" y2="206.5" stroke="black" stroke-width="0.1" />
  <line x1="63.5" y1="210.5" x2="63.5" y2="211.5" stroke="black" stroke-width="0.1" />
  <circle cx="31.5" cy="208.5" r="2.5" fill="none" stroke="black" stroke-width="0.1" />
  <line x1="31.0" y1="208.5" x2="32.0" y2="208.5" stroke="black" stroke-width="0.1" />
  <line x1="31.5" y1="208.0" x2="31.5" y2="209.0" stroke="black" stroke-width="0.1" />
  <line x1="28.5" y1="208.5" x2="29.5" y2="208.5" stroke="black" stroke-width="0.1" />
  <line x1="33.5" y1="208.5" x2="34.5" y2="208.5" stroke="black" stroke-width="0.1" />
  <line x1="31.5" y1="205.5" x2="31.5" y2="206.5" stroke="black" stroke-width="0.1" />
  <line x1="31.5" y1="210.5" x2="31.5" y2="211.5" stroke="black" stroke-width="0.1" />
</svg>
