<?xml version="1.0"?>
<!DOCTYPE svg PUBLIC "-//W3C//DTD SVG 1.1//EN"
"http://www.w3.org/Graphics/SVG/1.1/DTD/svg11.dtd">
<svg xmlns="http://www.w3.org/2000/svg" version="1.2" width="190.0mm" height="259.0mm" viewBox="0 0 190.0 259.0" >
  <line x1="95.0" y1="0.0" x2="95.0" y2="259.0" stroke="black" stroke-width="0.1" stroke-dasharray="4 4" />
  <line x1="47.5" y1="0.0" x2="47.5" y2="259.0" stroke="black" stroke-width="0.1" />
  <line x1="142.5" y1="0.0" x2="142.5" y2="259.0" stroke="black" stroke-width="0.1" />
  <line x1="95.0" y1="255.0" x2="180.0" y2="255.0" stroke="black" stroke-width="0.1" />
  <line x1="10.0" y1="5.0" x2="95.0" y2="5.0" stroke="black" stroke-width="0.1" />
  <circle cx="162.5" cy="37.0" r="2.5" fill="none" stroke="black" stroke-width="0.1" />
  <line x1="162.0" y1="37.0" x2="163.0" y2="37.0" stroke="black" stroke-width="0.1" />
  <line x1="162.5" y1="36.5" x2="162.5" y2="37.5" stroke="black" stroke-width="0.1" />
  <line x1="159.5" y1="37.0" x2="160.5" y2="37.0" stroke="black" stroke-width="0.1" />
  <line x1="164.5" y1="37.0" x2="165.5" y2="37.0" stroke="black" stroke-width="0.1" />
  <line x1="162.5" y1="34.0" x2="162.5" y2="35.0" stroke="black" stroke-width="0.1" />
  <line x1="162.5" y1="39.0" x2="162.5" y2="40.0" stroke="black" stroke-width="0.1" />
  <circle cx="122.5" cy="37.0" r="2.5" fill="none" stroke="black" stroke-width="0.1" />
  <line x1="122.0" y1="37.0" x2="123.0" y2="37.0" stroke="black" stroke-width="0.1" />
  <line x1="122.5" y1="36.5" x2="122.5" y2="37.5" stroke="black" stroke-width="0.1" />
  <line x1="119.5" y1="37.0" x2="120.5" y2="37.0" stroke="black" stroke-width="0.1" />
  <line x1="124.5" y1="37.0" x2="125.5" y2="37.0" stroke="black" stroke-width="0.1" />
  <line x1="122.5" y1="34.0" x2="122.5" y2="35.0" stroke="black" stroke-width="0.1" />
  <line x1="122.5" y1="39.0" x2="122.5" y2="40.0" stroke="black" stroke-width="0.1" />
  <circle cx="162.5" cy="102.0" r="2.5" fill="none" stroke="black" stroke-width="0.1" />
  <line x1="162.0" y1="102.0" x2="163.0" y2="102.0" stroke="black" stroke-width="0.1" />
  <line x1="162.5" y1="101.5" x2="162.5" y2="102.5" stroke="black" stroke-width="0.1" />
  <line x1="159.5" y1="102.0" x2="160.5" y2="102.0" stroke="black" stroke-width="0.1" />
  <line x1="164.5" y1="102.0" x2="165.5" y2="102.0" stroke="black" stroke-width="0.1" />
  <line x1="162.5" y1="99.0" x2="162.5" y2="100.0" stroke="black" stroke-width="0.1" />
  <line x1="162.5" y1="104.0" x2="162.5" y2="105.0" stroke="black" stroke-width="0.1" />
  <circle cx="122.5" cy="102.0" r="2.5" fill="none" stroke="black" stroke-width="0.1" />
  <line x1="122.0" y1="102.0" x2="123.0" y2="102.0" stroke="black" stroke-width="0.1" />
  <line x1="122.5" y1="101.5" x2="122.5" y2="102.5" stroke="black" stroke-width="0.1" />
  <line x1="119.5" y1="102.0" x2="120.5" y2="102.0" stroke="black" stroke-width="0.1" />
  <line x1="124.5" y1="102.0" x2="125.5" y2="102.0" stroke="black" stroke-width="0.1" />
  <line x1="122.5" y1="99.0" x2="122.5" y2="100.0" stroke="black" stroke-width="0.1" />
  <line x1="122.5" y1="104.0" x2="122.5" y2="105.0" stroke="black" stroke-width="0.1" />
  <circle cx="63.5" cy="145.0" r="2.5" fill="none" stroke="black" stroke-width="0.1" />
  <line x1="63.0" y1="145.0" x2="64.0" y2="145.0" stroke="black" stroke-width="0.1" />
  <line x1="63.5" y1="144.5" x2="63.5" y2="145.5" stroke="black" stroke-width="0.1" />
  <line x1="60.5" y1="145.0" x2="61.5" y2="145.0" stroke="black" stroke-width="0.1" />
  <line x1="65.5" y1="145.0" x2="66.5" y2="145.0" stroke="black" stroke-width="0.1" />
  <line x1="63.5" y1="142.0" x2="63.5" y2="143.0" stroke="black" stroke-width="0.1" />
  <line x1="63.5" y1="147.0" x2="63.5" y2="148.0" stroke="black" stroke-width="0.1" />
  <circle cx="31.5" cy="145.0" r="2.5" fill="none" stroke="black" stroke-width="0.1" />
  <line x1="31.0" y1="145.0" x2="32.0" y2="145.0" stroke="black" stroke-width="0.1" />
  <line x1="31.5" y1="144.5" x2="31.5" y2="145.5" stroke="black" stroke-width="0.1" />
  <line x1="28.5" y1="145.0" x2="29.5" y2="145.0" stroke="black" stroke-width="0.1" />
  <line x1="33.5" y1="145.0" x2="34.5" y2="145.0" stroke="black" stroke-width="0.1" />
  <line x1="31.5" y1="142.0" x2="31.5" y2="143.0" stroke="black" stroke-width="0.1" />
  <line x1="31.5" y1="147.0" x2="31.5" y2="148.0" stroke="black" stroke-width="0.1" />
  <circle cx="63.5" cy="220.0" r="2.5" fill="none" stroke="black" stroke-width="0.1" />
  <line x1="63.0" y1="220.0" x2="64.0" y2="220.0" stroke="black" stroke-width="0.1" />
  <line x1="63.5" y1="219.5" x2="63.5" y2="220.5" stroke="black" stroke-width="0.1" />
  <line x1="60.5" y1="220.0" x2="61.5" y2="220.0" stroke="black" stroke-width="0.1" />
  <line x1="65.5" y1="220.0" x2="66.5" y2="220.0" stroke="black" stroke-width="0.1" />
  <line x1="63.5" y1="217.0" x2="63.5" y2="218.0" stroke="black" stroke-width="0.1" />
  <line x1="63.5" y1="222.0" x2="63.5" y2="223.0" stroke="black" stroke-width="0.1" />
  <circle cx="31.5" cy="220.0" r="2.5" fill="none" stroke="black" stroke-width="0.1" />
  <line x1="31.0" y1="220.0" x2="32.0" y2="220.0" stroke="black" stroke-width="0.1" />
  <line x1="31.5" y1="219.5" x2="31.5" y2="220.5" stroke="black" stroke-width="0.1" />
  <line x1="28.5" y1="220.0" x2="29.5" y2="220.0" stroke="black" stroke-width="0.1" />
  <line x1="33.5" y1="220.0" x2="34.5" y2="220.0" stroke="black" stroke-width="0.1" />
  <line x1="31.5" y1="217.0" x2="31.5" y2="218.0" stroke="black" stroke-width="0.1" />
  <line x1="31.5" y1="222.0" x2="31.5" y2="223.0" stroke="black" stroke-width="0.1" />
</svg>
